<?xml version="1.0" encoding="UTF-8" standalone="no"?>
<!-- Created with Inkscape (http://www.inkscape.org/) -->

<svg
   version="1.1"
   id="svg1"
   width="200.78224"
   height="144.99719"
   viewBox="0 0 200.78224 144.99719"
   xmlns="http://www.w3.org/2000/svg"
   xmlns:svg="http://www.w3.org/2000/svg">
  <defs
     id="defs1" />
  <g
     id="g1"
     transform="translate(-0.2643888,-0.26535929)">
    <path
       id="path1"
       d="m -28.34645,-1.99255 v 3.9851"
       style="fill:none;stroke:#000000;stroke-width:0.3985;stroke-linecap:round;stroke-linejoin:miter;stroke-miterlimit:10;stroke-dasharray:none;stroke-opacity:1"
       transform="matrix(1.3333333,0,0,-1.3333333,72.350667,44.504)" />
    <path
       id="path2"
       d="m 28.34645,-1.99255 v 3.9851"
       style="fill:none;stroke:#000000;stroke-width:0.3985;stroke-linecap:round;stroke-linejoin:miter;stroke-miterlimit:10;stroke-dasharray:none;stroke-opacity:1"
       transform="matrix(1.3333333,0,0,-1.3333333,72.350667,44.504)" />
    <path
       id="path3"
       d="m 56.69292,-1.99255 v 3.9851"
       style="fill:none;stroke:#000000;stroke-width:0.3985;stroke-linecap:round;stroke-linejoin:miter;stroke-miterlimit:10;stroke-dasharray:none;stroke-opacity:1"
       transform="matrix(1.3333333,0,0,-1.3333333,72.350667,44.504)" />
    <path
       id="path4"
       d="m 85.03935,-1.99255 v 3.9851"
       style="fill:none;stroke:#000000;stroke-width:0.3985;stroke-linecap:round;stroke-linejoin:miter;stroke-miterlimit:10;stroke-dasharray:none;stroke-opacity:1"
       transform="matrix(1.3333333,0,0,-1.3333333,72.350667,44.504)" />
    <path
       id="path5"
       d="m -1.99255,-56.69292 h 3.9851"
       style="fill:none;stroke:#000000;stroke-width:0.3985;stroke-linecap:round;stroke-linejoin:miter;stroke-miterlimit:10;stroke-dasharray:none;stroke-opacity:1"
       transform="matrix(1.3333333,0,0,-1.3333333,72.350667,44.504)" />
    <path
       id="path6"
       d="m -1.99255,-28.34645 h 3.9851"
       style="fill:none;stroke:#000000;stroke-width:0.3985;stroke-linecap:round;stroke-linejoin:miter;stroke-miterlimit:10;stroke-dasharray:none;stroke-opacity:1"
       transform="matrix(1.3333333,0,0,-1.3333333,72.350667,44.504)" />
    <path
       id="path7"
       d="M -54.06471,0 H 96.06375"
       style="fill:none;stroke:#000000;stroke-width:0.3985;stroke-linecap:butt;stroke-linejoin:miter;stroke-miterlimit:10;stroke-dasharray:none;stroke-opacity:1"
       transform="matrix(1.3333333,0,0,-1.3333333,72.350667,44.504)" />
    <path
       id="path8"
       d="M -1.19551,1.59401 C -1.09587,0.99626 0,0.09961 0.29886,0 0,-0.09961 -1.09587,-0.99626 -1.19551,-1.59401"
       style="fill:none;stroke:#000000;stroke-width:0.31879;stroke-linecap:round;stroke-linejoin:round;stroke-miterlimit:10;stroke-dasharray:none;stroke-opacity:1"
       transform="matrix(1.3333333,0,0,-1.3333333,200.43567,44.504)" />
    <path
       id="path9"
       d="M 0,-75.56891 V 32.72076"
       style="fill:none;stroke:#000000;stroke-width:0.3985;stroke-linecap:butt;stroke-linejoin:miter;stroke-miterlimit:10;stroke-dasharray:none;stroke-opacity:1"
       transform="matrix(1.3333333,0,0,-1.3333333,72.350667,44.504)" />
    <path
       id="path10"
       d="M -1.19551,1.59401 C -1.09587,0.99626 0,0.09961 0.29886,0 0,-0.09961 -1.09587,-0.99626 -1.19551,-1.59401"
       style="fill:none;stroke:#000000;stroke-width:0.31879;stroke-linecap:round;stroke-linejoin:round;stroke-miterlimit:10;stroke-dasharray:none;stroke-opacity:1"
       transform="matrix(0,-1.3333333,-1.3333333,0,72.350667,0.87632)" />
    <path
       id="path11"
       d="M 0,0 C 0,0 2.69229,0.44548 3.58397,0.96022 4.47563,1.47496 5.83177,2.75119 6.42656,3.70998 7.02133,4.66876 7.73285,6.60194 7.8708,7.87051 8.00876,9.13908 7.84679,11.45868 7.42094,12.85298 6.9951,14.24727 5.83122,16.61409 4.8016,17.91963 3.77197,19.22517 1.59874,21.26787 0,22.26245 c -1.59874,0.9946 -4.66202,2.34767 -6.72107,2.82558 -2.05907,0.4779 -5.77574,0.82348 -8.11928,0.61894 -2.34353,-0.20456 -6.37219,-1.10074 -8.77137,-2.09326 -2.39918,-0.99252 -6.32645,-3.24977 -8.52025,-5.06024 -2.19381,-1.81049 -5.57164,-5.41448 -7.29114,-7.98847 -1.7195,-2.57399 -4.10703,-7.36549 -5.10179,-10.56303 -0.99475,-3.19753 -2.0035,-8.87903 -2.06774,-12.48262 -0.06425,-3.60358 0.60079,-9.76117 1.60469,-13.4895 1.0039,-3.72834 3.50768,-9.8519 5.63074,-13.38181 2.12306,-3.52989 6.47565,-9.0658 9.67082,-12.05929 3.19519,-2.9935 9.23959,-7.38235 13.35784,-9.51577 4.11822,-2.1334 11.52728,-4.86569 16.32361,-5.86047 4.79629,-0.9948 13.09678,-1.6588 18.24487,-1.30934 5.14809,0.34947 13.74609,2.02495 18.85905,3.82805 5.11295,1.80308 13.33109,5.91395 17.99166,9.16737 4.66058,3.25343 11.80545,9.70145 15.59861,14.28111 3.79317,4.57965 9.19248,13.06331 11.73998,18.72594 2.5475,5.66263 6.62073,22.08643 6.62073,22.08643"
       style="fill:none;stroke:#000000;stroke-width:0.59776;stroke-linecap:butt;stroke-linejoin:miter;stroke-miterlimit:10;stroke-dasharray:none;stroke-opacity:1"
       transform="matrix(1.3333333,0,0,-1.3333333,72.350667,44.504)" />
    <g
       id="g11"
       aria-label="−2"
       transform="matrix(1.3333333,0,0,1.3333333,27.342667,57.550667)">
      <path
         id="path12"
         d="m 5.5672187,-1.8046016 c 0.1289063,0 0.3046875,0 0.3046875,-0.1875 0,-0.1875 -0.1757812,-0.1875 -0.3046875,-0.1875 H 1.008625 c -0.12890625,0 -0.3046875,0 -0.3046875,0.1875 0,0.1875 0.17578125,0.1875 0.3046875,0.1875 z m 0,0"
         style="fill:#000000;fill-opacity:1;fill-rule:nonzero;stroke:none" />
      <path
         id="path13"
         d="m 8.83675,-1.6288203 c 0.1289062,-0.1171875 0.4570312,-0.375 0.5859375,-0.4921875 0.4921875,-0.4570313 0.9609375,-0.890625 0.9609375,-1.6171875 0,-0.9492188 -0.796875,-1.5585938 -1.7929688,-1.5585938 -0.9492187,0 -1.5820312,0.7265625 -1.5820312,1.4296875 0,0.3984375 0.3164062,0.4453125 0.421875,0.4453125 0.1640625,0 0.4101562,-0.1171875 0.4101562,-0.421875 0,-0.4101562 -0.3984375,-0.4101562 -0.4921875,-0.4101562 0.234375,-0.5859375 0.7734375,-0.7851563 1.1601563,-0.7851563 0.7382812,0 1.125,0.6328125 1.125,1.3007813 0,0.8320312 -0.5859375,1.4296875 -1.5234375,2.4023437 L 7.102375,-0.30460156 c -0.09375,0.09375 -0.09375,0.10546875 -0.09375,0.3046874975 h 3.152344 L 10.383625,-1.4296016 h -0.246094 c -0.02344,0.1640625 -0.08203,0.56250004 -0.175781,0.71484379 -0.046875,0.0585938 -0.65625,0.0585938 -0.7851563,0.0585938 H 7.758625 Z m 0,0"
         style="fill:#000000;fill-opacity:1;fill-rule:nonzero;stroke:none" />
    </g>
    <path
       id="path14"
       d="m 2.2511641,-1.6288203 c 0.1289062,-0.1171875 0.4570312,-0.375 0.5859375,-0.4921875 0.4921875,-0.4570313 0.9609375,-0.890625 0.9609375,-1.6171875 0,-0.9492188 -0.796875,-1.5585938 -1.7929688,-1.5585938 -0.9492187,0 -1.58203124,0.7265625 -1.58203124,1.4296875 0,0.3984375 0.31640625,0.4453125 0.421875,0.4453125 0.16406254,0 0.41015624,-0.1171875 0.41015624,-0.421875 0,-0.4101562 -0.39843749,-0.4101562 -0.49218749,-0.4101562 0.234375,-0.5859375 0.77343749,-0.7851563 1.16015629,-0.7851563 0.7382812,0 1.125,0.6328125 1.125,1.3007813 0,0.8320312 -0.5859375,1.4296875 -1.5234375,2.4023437 l -1.00781254,1.03125004 c -0.09375,0.09375 -0.09375,0.10546875 -0.09375,0.3046874975 H 3.5753828 L 3.7980391,-1.4296016 H 3.5519453 c -0.023437,0.1640625 -0.082031,0.56250004 -0.1757812,0.71484379 -0.046875,0.0585938 -0.65625,0.0585938 -0.7851563,0.0585938 H 1.1730391 Z m 0,0"
       style="fill:#000000;fill-opacity:1;fill-rule:nonzero;stroke:none"
       aria-label="2"
       transform="matrix(1.3333333,0,0,1.3333333,107.32267,57.550667)" />
    <path
       id="path15"
       d="m 3.1405156,-5.1561641 c 0,-0.1640625 0,-0.2226562 -0.1640625,-0.2226562 -0.1054687,0 -0.1171875,0.011719 -0.1992187,0.1171875 l -2.54296877,3.6914062 v 0.2578125 H 2.4842656 v 0.66796879 c 0,0.29296875 -0.023437,0.38671875 -0.6328125,0.38671875 h -0.1875 V 8.59375e-5 C 2.3436406,-0.02335156 2.3553594,-0.02335156 2.8123906,-0.02335156 c 0.4570313,0 0.46875,0 1.1484375,0.0234374975 V -0.25772656 h -0.1875 c -0.609375,0 -0.6328125,-0.09375 -0.6328125,-0.38671875 V -1.3124141 h 0.84375 v -0.2578125 h -0.84375 z m -0.5976562,0.6445313 v 2.9414062 H 0.51551563 Z m 0,0"
       style="fill:#000000;fill-opacity:1;fill-rule:nonzero;stroke:none"
       aria-label="4"
       transform="matrix(1.3333333,0,0,1.3333333,145.11733,57.550667)" />
    <path
       id="path16"
       d="m 1.1001797,-2.6366328 c 0,-0.6679688 0.058594,-1.2421875 0.3398437,-1.734375 0.234375,-0.3984375 0.6445313,-0.7265625 1.1484375,-0.7265625 0.1640625,0 0.5273438,0.035156 0.7148438,0.3046875 -0.3632813,0.023437 -0.3984375,0.2929687 -0.3984375,0.375 0,0.2460937 0.1875,0.375 0.375,0.375 0.140625,0 0.375,-0.082031 0.375,-0.3867188 0,-0.4804687 -0.3515625,-0.8671875 -1.078125,-0.8671875 -1.1015625,0 -2.22656251,1.0546875 -2.22656251,2.765625 0,2.16796879 1.00781251,2.69531254 1.78125001,2.69531254 0.375,0 0.796875,-0.10546875 1.1484375,-0.4453125 0.3164062,-0.3046875 0.5859375,-0.64453125 0.5859375,-1.33593754 0,-1.0429687 -0.7851563,-1.78125 -1.6640625,-1.78125 -0.5742188,0 -0.9257813,0.375 -1.1015625,0.7617188 z m 1.03125,2.56640624 c -0.421875,0 -0.6914063,-0.29296875 -0.8085938,-0.515625 -0.1875,-0.36328125 -0.1992187,-0.90234374 -0.1992187,-1.20703124 0,-0.7851563 0.4335937,-1.3828125 1.0429687,-1.3828125 0.3984375,0 0.6328125,0.2109375 0.7851563,0.4921875 0.1757812,0.2929687 0.1757812,0.65625 0.1757812,1.0546875 0,0.4101562 0,0.76171874 -0.1640625,1.04296874 -0.2109375,0.375 -0.4921875,0.515625 -0.8320312,0.515625 z m 0,0"
       style="fill:#000000;fill-opacity:1;fill-rule:nonzero;stroke:none"
       aria-label="6"
       transform="matrix(1.3333333,0,0,1.3333333,182.912,57.550667)" />
    <g
       id="g16"
       aria-label="−4"
       transform="matrix(1.3333333,0,0,1.3333333,51.725333,122.964)">
      <path
         id="path17"
         d="m 5.5673281,-1.8040547 c 0.1289063,0 0.3046875,0 0.3046875,-0.1875 0,-0.1875 -0.1757812,-0.1875 -0.3046875,-0.1875 H 1.0087344 c -0.12890628,0 -0.30468753,0 -0.30468753,0.1875 0,0.1875 0.17578125,0.1875 0.30468753,0.1875 z m 0,0"
         style="fill:#000000;fill-opacity:1;fill-rule:nonzero;stroke:none" />
      <path
         id="path18"
         d="m 9.7274844,-5.1556172 c 0,-0.1640625 0,-0.2226562 -0.1640625,-0.2226562 -0.1054688,0 -0.1171875,0.011719 -0.1992188,0.1171875 l -2.5429687,3.6914062 v 0.2578125 h 2.25 v 0.66796876 c 0,0.29296875 -0.023437,0.38671875 -0.6328125,0.38671875 h -0.1875 V 6.328125e-4 C 8.9306094,-0.02280469 8.9423281,-0.02280469 9.3993594,-0.02280469 c 0.4570312,0 0.46875,0 1.1484376,0.0234375025 V -0.25717969 h -0.1875 c -0.6093751,0 -0.6328126,-0.09375 -0.6328126,-0.38671875 V -1.3118672 H 10.571234 V -1.5696797 H 9.7274844 Z m -0.5976563,0.6445313 v 2.9414062 H 7.1024844 Z m 0,0"
         style="fill:#000000;fill-opacity:1;fill-rule:nonzero;stroke:none" />
    </g>
    <g
       id="g18"
       aria-label="−2"
       transform="matrix(1.3333333,0,0,1.3333333,51.725333,85.169333)">
      <path
         id="path19"
         d="m 5.5673281,-1.8057109 c 0.1289063,0 0.3046875,0 0.3046875,-0.1875 0,-0.1875 -0.1757812,-0.1875 -0.3046875,-0.1875 H 1.0087344 c -0.12890628,0 -0.30468753,0 -0.30468753,0.1875 0,0.1875 0.17578125,0.1875 0.30468753,0.1875 z m 0,0"
         style="fill:#000000;fill-opacity:1;fill-rule:nonzero;stroke:none" />
      <path
         id="path20"
         d="m 8.8368594,-1.6299297 c 0.1289062,-0.1171875 0.4570312,-0.375 0.5859375,-0.4921875 0.4921875,-0.4570312 0.9609371,-0.890625 0.9609371,-1.6171875 0,-0.9492187 -0.7968746,-1.5585937 -1.7929684,-1.5585937 -0.9492187,0 -1.5820312,0.7265625 -1.5820312,1.4296875 0,0.3984375 0.3164062,0.4453125 0.421875,0.4453125 0.1640625,0 0.4101562,-0.1171875 0.4101562,-0.421875 0,-0.4101563 -0.3984375,-0.4101563 -0.4921875,-0.4101563 0.234375,-0.5859375 0.7734375,-0.7851562 1.1601563,-0.7851562 0.7382812,0 1.125,0.6328125 1.125,1.3007812 0,0.8320313 -0.5859375,1.4296875 -1.5234375,2.4023438 l -1.0078125,1.03124996 c -0.09375,0.09375 -0.09375,0.10546875 -0.09375,0.3046875 h 3.1523436 l 0.222656,-1.42968746 h -0.246093 c -0.02344,0.1640625 -0.08203,0.56249996 -0.1757816,0.71484371 -0.046875,0.0585938 -0.65625,0.0585938 -0.7851563,0.0585938 H 7.7587344 Z m 0,0"
         style="fill:#000000;fill-opacity:1;fill-rule:nonzero;stroke:none" />
    </g>
    <path
       id="path21"
       d="m 3.9023906,-2.5420703 c 0,-0.8554688 -0.09375,-1.3710938 -0.3515625,-1.875 -0.3515625,-0.703125 -0.9960937,-0.8789063 -1.4414062,-0.8789063 -0.9960938,0 -1.37109378,0.75 -1.47656253,0.9726563 -0.29296875,0.5742187 -0.3046875,1.3710937 -0.3046875,1.78125 0,0.5273437 0.0234375,1.3359375 0.41015625,1.96874999 0.36328128,0.5859375 0.94921878,0.73828125 1.37109378,0.73828125 0.3867187,0 1.0664062,-0.1171875 1.4648437,-0.90234375 0.2929688,-0.57421879 0.328125,-1.28906249 0.328125,-1.80468749 z m -1.7929687,2.48437499 c -0.2695313,0 -0.8203125,-0.12890625 -0.984375,-0.96093749 -0.09375,-0.4570313 -0.09375,-1.2070313 -0.09375,-1.6171875 0,-0.5507813 0,-1.1132813 0.09375,-1.546875 0.1640625,-0.8085938 0.7851562,-0.890625 0.984375,-0.890625 0.2695312,0 0.8203125,0.1289062 0.984375,0.8554687 0.09375,0.4453125 0.09375,1.0429688 0.09375,1.5820313 0,0.46875 0,1.1835937 -0.09375,1.6289062 -0.1640625,0.84375004 -0.7148438,0.94921879 -0.984375,0.94921879 z m 0,0"
       style="fill:#000000;fill-opacity:1;fill-rule:nonzero;stroke:none"
       aria-label="0"
       transform="matrix(1.3333333,0,0,1.3333333,63.164,54.893333)" />
  </g>
</svg>
