<?xml version="1.0" encoding="UTF-8" standalone="no"?>
<!-- Created with Inkscape (http://www.inkscape.org/) -->

<svg
   version="1.1"
   id="svg1"
   width="237.71094"
   height="222.07689"
   viewBox="0 0 237.71093 222.07689"
   xmlns="http://www.w3.org/2000/svg"
   xmlns:svg="http://www.w3.org/2000/svg">
  <defs
     id="defs1" />
  <g
     id="g1"
     transform="translate(-5.1328125,-4.4218756)">
    <path
       id="path1"
       d="M -2.83484,-28.3468 H 110.55237 M -2.83484,0 H 110.55237 M -2.83484,28.3468 H 110.55237 M -2.83484,56.69362 H 110.55237 M -2.83484,85.04042 H 110.55237 M 0,-31.18166 V 110.55237 M 28.3468,-31.18166 V 110.55237 M 56.69362,-31.18166 v 141.73403 m 28.3468,-141.73403 v 141.73403"
       style="fill:none;stroke:#808080;stroke-width:0.19925;stroke-linecap:butt;stroke-linejoin:miter;stroke-miterlimit:10;stroke-dasharray:none;stroke-opacity:1"
       transform="matrix(1.3333333,0,0,-1.3333333,17.356,181.144)" />
    <path
       id="path2"
       d="M -5.66927,0 H 118.59822"
       style="fill:none;stroke:#000000;stroke-width:0.3985;stroke-linecap:butt;stroke-linejoin:miter;stroke-miterlimit:10;stroke-dasharray:none;stroke-opacity:1"
       transform="matrix(1.3333333,0,0,-1.3333333,17.356,181.144)" />
    <path
       id="path3"
       d="M -1.19551,1.59401 C -1.09587,0.99626 0,0.09961 0.29886,0 0,-0.09961 -1.09587,-0.99626 -1.19551,-1.59401"
       style="fill:none;stroke:#000000;stroke-width:0.31879;stroke-linecap:round;stroke-linejoin:round;stroke-miterlimit:10;stroke-dasharray:none;stroke-opacity:1"
       transform="matrix(1.3333333,0,0,-1.3333333,175.48696,181.144)" />
    <path
       id="path4"
       d="m 3.3279219,-3.0117891 c 0.058594,-0.2578125 0.2929687,-1.171875 0.984375,-1.171875 0.046875,0 0.2929687,0 0.5039062,0.1289063 -0.28125,0.046875 -0.4804687,0.3046875 -0.4804687,0.5390625 0,0.1640625 0.1054687,0.3515625 0.375,0.3515625 0.2226562,0 0.5390625,-0.1875 0.5390625,-0.5859375 0,-0.515625 -0.5859375,-0.65625 -0.9257813,-0.65625 -0.5742187,0 -0.9257812,0.5273437 -1.0429687,0.7617187 -0.2578125,-0.65625 -0.7851563,-0.7617187 -1.078125,-0.7617187 -1.0429688,0 -1.60546877,1.2890625 -1.60546877,1.5351562 0,0.1054688 0.10546875,0.1054688 0.1171875,0.1054688 0.0820313,0 0.1171875,-0.023437 0.12890625,-0.1171875 0.33984372,-1.0546875 0.99609372,-1.3007813 1.33593752,-1.3007813 0.1875,0 0.5390625,0.09375 0.5390625,0.6679688 0,0.3046875 -0.1640625,0.9726562 -0.5390625,2.3671875 -0.1523438,0.62109374 -0.5039063,1.04296874 -0.9492188,1.04296874 -0.058594,0 -0.28124997,0 -0.49218747,-0.12890625 0.24609375,-0.0585938 0.46874997,-0.26953125 0.46874997,-0.5390625 0,-0.26953129 -0.22265622,-0.35156249 -0.37499997,-0.35156249 -0.29296875,0 -0.5390625,0.25781249 -0.5390625,0.57421874 0,0.45703125 0.4921875,0.65625 0.93749997,0.65625 0.65625,0 1.0078125,-0.69140625 1.0429688,-0.75 0.1171875,0.36328125 0.4804687,0.75 1.078125,0.75 1.0195312,0 1.59375,-1.27734374 1.59375,-1.53515624 0,-0.09375 -0.09375,-0.09375 -0.1289063,-0.09375 -0.082031,0 -0.1054687,0.035156 -0.1289062,0.1054687 -0.328125,1.06640629 -0.9960938,1.31250004 -1.3242188,1.31250004 -0.3867187,0 -0.5390625,-0.328125 -0.5390625,-0.65625 0,-0.22265625 0.058594,-0.44531254 0.1640625,-0.87890624 z m 0,0"
       style="fill:#000000;fill-opacity:1;fill-rule:nonzero;stroke:none"
       aria-label="x"
       transform="matrix(1.3333333,0,0,1.3333333,180.78933,184.004)" />
    <path
       id="path5"
       d="m 0,-34.01608 v 152.6143"
       style="fill:none;stroke:#000000;stroke-width:0.3985;stroke-linecap:butt;stroke-linejoin:miter;stroke-miterlimit:10;stroke-dasharray:none;stroke-opacity:1"
       transform="matrix(1.3333333,0,0,-1.3333333,17.356,181.144)" />
    <path
       id="path6"
       d="M -1.19551,1.59401 C -1.09587,0.99626 0,0.09961 0.29886,0 0,-0.09961 -1.09587,-0.99626 -1.19551,-1.59401"
       style="fill:none;stroke:#000000;stroke-width:0.31879;stroke-linecap:round;stroke-linejoin:round;stroke-miterlimit:10;stroke-dasharray:none;stroke-opacity:1"
       transform="matrix(0,-1.3333333,-1.3333333,0,17.356,23.01304)" />
    <g
       id="g6"
       aria-label="f(x)"
       transform="matrix(1.3333333,0,0,1.3333333,4.428,14.390667)">
      <path
         id="path7"
         d="m 3.6575156,-3.9844062 h 0.8554688 c 0.1992187,0 0.3046875,0 0.3046875,-0.1992188 0,-0.1054687 -0.1054688,-0.1054687 -0.2695313,-0.1054687 H 3.7161094 l 0.2109375,-1.1367188 c 0.035156,-0.2109375 0.1757812,-0.9140625 0.234375,-1.0429687 0.09375,-0.1875 0.2578125,-0.3398438 0.46875,-0.3398438 0.046875,0 0.3046875,0 0.4921875,0.1875 -0.4335938,0.035156 -0.5390625,0.3867188 -0.5390625,0.5390625 0,0.2226563 0.1757812,0.3398438 0.3632812,0.3398438 0.2695313,0 0.5507813,-0.2109375 0.5507813,-0.5976563 0,-0.4570312 -0.4570313,-0.6796875 -0.8671875,-0.6796875 -0.3398438,0 -0.9609375,0.1757813 -1.265625,1.1601563 -0.058594,0.2109375 -0.082031,0.3164062 -0.328125,1.5703125 H 2.3567344 c -0.1992188,0 -0.3046875,0 -0.3046875,0.1875 0,0.1171875 0.09375,0.1171875 0.28125,0.1171875 h 0.65625 l -0.75,3.93749995 C 2.0637656,0.91403125 1.8997031,1.8280938 1.3723594,1.8280938 c -0.035156,0 -0.28125,0 -0.46875002,-0.1875 C 1.3606406,1.6171563 1.4426719,1.253875 1.4426719,1.1015313 c 0,-0.2226563 -0.1757813,-0.3398438 -0.3632813,-0.3398438 -0.25781247,0 -0.55078122,0.2109375 -0.55078122,0.5976563 0,0.4453125 0.43359375,0.6796875 0.84375002,0.6796875 0.5507812,0 0.9492187,-0.5859375 1.125,-0.9609375 0.328125,-0.63281255 0.5507812,-1.8398438 0.5625,-1.9101563 z m 0,0"
         style="fill:#000000;fill-opacity:1;fill-rule:nonzero;stroke:none" />
      <path
         id="path8"
         d="m 9.2473594,2.3905938 c 0,-0.035156 0,-0.046875 -0.1640625,-0.2226563 C 7.8411094,0.91403125 7.5129844,-0.96096875 7.5129844,-2.496125 c 0,-1.7226562 0.3867187,-3.4570312 1.6054687,-4.7109375 0.1289063,-0.1171875 0.1289063,-0.1289062 0.1289063,-0.1640625 0,-0.070312 -0.035156,-0.1054687 -0.09375,-0.1054687 -0.1054688,0 -0.9960938,0.6796875 -1.5820313,1.9453125 -0.515625,1.1015625 -0.6328125,2.203125 -0.6328125,3.0351562 0,0.7851563 0.1171875,1.9921875 0.65625,3.1171875 0.5976563,1.21875 1.453125,1.875 1.5585938,1.875 0.058594,0 0.09375,-0.035156 0.09375,-0.1054687 z m 0,0"
         style="fill:#000000;fill-opacity:1;fill-rule:nonzero;stroke:none" />
      <path
         id="path9"
         d="m 13.155563,-3.01175 c 0.05859,-0.2578125 0.292968,-1.171875 0.984375,-1.171875 0.04687,0 0.292968,0 0.503906,0.1289063 -0.28125,0.046875 -0.480469,0.3046875 -0.480469,0.5390625 0,0.1640625 0.105469,0.3515625 0.375,0.3515625 0.222656,0 0.539063,-0.1875 0.539063,-0.5859375 0,-0.515625 -0.585938,-0.65625 -0.925782,-0.65625 -0.574218,0 -0.925781,0.5273437 -1.042968,0.7617187 -0.257813,-0.65625 -0.785157,-0.7617187 -1.078125,-0.7617187 -1.042969,0 -1.605469,1.2890625 -1.605469,1.5351562 0,0.1054688 0.105469,0.1054688 0.117187,0.1054688 0.08203,0 0.117188,-0.023437 0.128907,-0.1171875 0.339843,-1.0546875 0.996093,-1.3007813 1.335937,-1.3007813 0.1875,0 0.539063,0.09375 0.539063,0.6679688 0,0.3046875 -0.164063,0.9726562 -0.539063,2.3671875 -0.152344,0.6210937 -0.503906,1.0429687 -0.949219,1.0429687 -0.05859,0 -0.28125,0 -0.492187,-0.12890625 0.246094,-0.0585937 0.46875,-0.26953125 0.46875,-0.5390625 0,-0.26953125 -0.222656,-0.35156245 -0.375,-0.35156245 -0.292969,0 -0.539063,0.25781245 -0.539063,0.5742187 0,0.45703125 0.492188,0.65625 0.9375,0.65625 0.65625,0 1.007813,-0.69140625 1.042969,-0.75 0.117188,0.36328125 0.480469,0.75 1.078125,0.75 1.019531,0 1.59375,-1.2773437 1.59375,-1.5351562 0,-0.09375 -0.09375,-0.09375 -0.128906,-0.09375 -0.08203,0 -0.105469,0.035156 -0.128906,0.1054687 -0.328125,1.06640625 -0.996094,1.3125 -1.324219,1.3125 -0.386719,0 -0.539063,-0.328125 -0.539063,-0.65625 0,-0.22265625 0.05859,-0.4453125 0.164063,-0.8789062 z m 0,0"
         style="fill:#000000;fill-opacity:1;fill-rule:nonzero;stroke:none" />
      <path
         id="path10"
         d="m 18.405563,-2.496125 c 0,-0.7734375 -0.117188,-1.9804687 -0.65625,-3.1054687 -0.597657,-1.21875 -1.464844,-1.875 -1.558594,-1.875 -0.05859,0 -0.105469,0.046875 -0.105469,0.1054687 0,0.035156 0,0.046875 0.199219,0.234375 0.972656,0.984375 1.535156,2.5664063 1.535156,4.640625 0,1.7109375 -0.363281,3.45703125 -1.59375,4.7226563 -0.140625,0.1171875 -0.140625,0.1289062 -0.140625,0.1640625 0,0.058594 0.04687,0.1054687 0.105469,0.1054687 0.09375,0 0.996094,-0.6796875 1.582031,-1.9453125 0.503906,-1.1015625 0.632813,-2.203125 0.632813,-3.046875 z m 0,0"
         style="fill:#000000;fill-opacity:1;fill-rule:nonzero;stroke:none" />
    </g>
    <path
       id="path11"
       d="m 0,0 4.72415,4.72415 4.72418,4.72418 4.72419,4.72419 4.72418,4.72418 4.72418,4.72418 4.72418,4.72418 4.72418,4.72418 4.72417,4.72417 4.72419,4.72419 4.72418,4.72418 4.72418,4.72418 4.72418,4.72418 4.72418,4.72418 4.72418,4.72418 4.72417,4.72417 4.72418,4.72418 4.72419,4.72419 4.72418,4.72418 4.72418,4.72418 4.72418,4.72418 4.72418,4.72418 4.72419,4.72419 4.72416,4.72416 4.72419,4.72419"
       style="fill:none;stroke:#ff0000;stroke-width:1.19553;stroke-linecap:butt;stroke-linejoin:miter;stroke-miterlimit:10;stroke-dasharray:none;stroke-opacity:1"
       transform="matrix(1.3333333,0,0,-1.3333333,17.356,181.144)" />
    <g
       id="g11"
       aria-label="f(x)=x"
       transform="matrix(1.3333333,0,0,1.3333333,173.752,33.293333)">
      <path
         id="path12"
         d="m 3.6576797,-3.9846484 h 0.8554687 c 0.1992188,0 0.3046875,0 0.3046875,-0.1992188 0,-0.1054687 -0.1054687,-0.1054687 -0.2695312,-0.1054687 H 3.7162734 l 0.2109375,-1.1367188 c 0.035156,-0.2109375 0.1757813,-0.9140625 0.234375,-1.0429687 0.09375,-0.1875 0.2578125,-0.3398438 0.46875,-0.3398438 0.046875,0 0.3046875,0 0.4921875,0.1875 -0.4335937,0.035156 -0.5390625,0.3867188 -0.5390625,0.5390625 0,0.2226563 0.1757813,0.3398438 0.3632813,0.3398438 0.2695312,0 0.5507812,-0.2109375 0.5507812,-0.5976563 0,-0.4570312 -0.4570312,-0.6796875 -0.8671875,-0.6796875 -0.3398437,0 -0.9609375,0.1757813 -1.265625,1.1601563 -0.058594,0.2109375 -0.082031,0.3164062 -0.328125,1.5703125 H 2.3568984 c -0.1992187,0 -0.3046875,0 -0.3046875,0.1875 0,0.1171875 0.09375,0.1171875 0.28125,0.1171875 h 0.65625 l -0.75,3.93749996 C 2.0639297,0.91378906 1.8998672,1.8278516 1.3725234,1.8278516 c -0.035156,0 -0.28125,0 -0.46874996,-0.1875 C 1.3608047,1.6169141 1.4428359,1.2536328 1.4428359,1.1012891 c 0,-0.22265629 -0.1757812,-0.33984379 -0.3632812,-0.33984379 -0.25781251,0 -0.55078126,0.2109375 -0.55078126,0.59765629 0,0.4453125 0.43359375,0.6796875 0.84374996,0.6796875 0.5507813,0 0.9492188,-0.5859375 1.125,-0.9609375 0.328125,-0.63281254 0.5507813,-1.83984379 0.5625,-1.91015629 z m 0,0"
         style="fill:#ff0000;fill-opacity:1;fill-rule:nonzero;stroke:none" />
      <path
         id="path13"
         d="m 9.2475234,2.3903516 c 0,-0.035156 0,-0.046875 -0.1640625,-0.2226563 -1.2421875,-1.25390624 -1.5703125,-3.12890624 -1.5703125,-4.6640625 0,-1.7226562 0.3867188,-3.4570312 1.6054688,-4.7109375 0.1289062,-0.1171875 0.1289062,-0.1289062 0.1289062,-0.1640625 0,-0.070312 -0.035156,-0.1054687 -0.09375,-0.1054687 -0.1054687,0 -0.9960937,0.6796875 -1.5820312,1.9453125 -0.515625,1.1015625 -0.6328125,2.203125 -0.6328125,3.0351562 0,0.7851563 0.1171875,1.99218751 0.65625,3.11718751 0.5976562,1.21874999 1.453125,1.87499999 1.5585937,1.87499999 0.058594,0 0.09375,-0.035156 0.09375,-0.1054687 z m 0,0"
         style="fill:#ff0000;fill-opacity:1;fill-rule:nonzero;stroke:none" />
      <path
         id="path14"
         d="m 13.155727,-3.0119922 c 0.05859,-0.2578125 0.292968,-1.171875 0.984375,-1.171875 0.04687,0 0.292968,0 0.503906,0.1289063 -0.28125,0.046875 -0.480469,0.3046875 -0.480469,0.5390625 0,0.1640625 0.105469,0.3515625 0.375,0.3515625 0.222656,0 0.539063,-0.1875 0.539063,-0.5859375 0,-0.515625 -0.585938,-0.65625 -0.925782,-0.65625 -0.574218,0 -0.925781,0.5273437 -1.042968,0.7617187 -0.257813,-0.65625 -0.785157,-0.7617187 -1.078125,-0.7617187 -1.042969,0 -1.605469,1.2890625 -1.605469,1.5351562 0,0.1054688 0.105469,0.1054688 0.117187,0.1054688 0.08203,0 0.117188,-0.023437 0.128907,-0.1171875 0.339843,-1.0546875 0.996093,-1.3007813 1.335937,-1.3007813 0.1875,0 0.539063,0.09375 0.539063,0.6679688 0,0.3046875 -0.164063,0.9726562 -0.539063,2.3671875 -0.152344,0.62109371 -0.503906,1.04296871 -0.949219,1.04296871 -0.05859,0 -0.28125,0 -0.492187,-0.12890625 0.246094,-0.0585938 0.46875,-0.26953125 0.46875,-0.5390625 0,-0.26953126 -0.222656,-0.35156246 -0.375,-0.35156246 -0.292969,0 -0.539063,0.25781246 -0.539063,0.57421871 0,0.45703125 0.492188,0.65625 0.9375,0.65625 0.65625,0 1.007813,-0.69140625 1.042969,-0.75 0.117188,0.36328125 0.480469,0.75 1.078125,0.75 1.019531,0 1.59375,-1.27734371 1.59375,-1.53515621 0,-0.09375 -0.09375,-0.09375 -0.128906,-0.09375 -0.08203,0 -0.105469,0.035156 -0.128906,0.1054687 -0.328125,1.06640626 -0.996094,1.31250001 -1.324219,1.31250001 -0.386719,0 -0.539063,-0.328125 -0.539063,-0.65625 0,-0.22265625 0.05859,-0.44531251 0.164063,-0.87890621 z m 0,0"
         style="fill:#ff0000;fill-opacity:1;fill-rule:nonzero;stroke:none" />
      <path
         id="path15"
         d="m 18.405727,-2.4963672 c 0,-0.7734375 -0.117188,-1.9804687 -0.65625,-3.1054687 -0.597657,-1.21875 -1.464844,-1.875 -1.558594,-1.875 -0.05859,0 -0.105469,0.046875 -0.105469,0.1054687 0,0.035156 0,0.046875 0.199219,0.234375 0.972656,0.984375 1.535156,2.5664063 1.535156,4.640625 0,1.71093751 -0.363281,3.45703126 -1.59375,4.7226563 -0.140625,0.1171875 -0.140625,0.1289062 -0.140625,0.1640625 0,0.058594 0.04687,0.1054687 0.105469,0.1054687 0.09375,0 0.996094,-0.6796875 1.582031,-1.94531249 0.503906,-1.1015625 0.632813,-2.20312501 0.632813,-3.04687501 z m 10.59375,-0.7617187 c 0.152343,0 0.339843,0 0.339843,-0.1992188 0,-0.1992187 -0.1875,-0.1992187 -0.328125,-0.1992187 h -5.964843 c -0.140625,0 -0.328125,0 -0.328125,0.1992187 0,0.1992188 0.1875,0.1992188 0.339843,0.1992188 z m 0.01172,1.9335937 c 0.140625,0 0.328125,0 0.328125,-0.1992187 0,-0.1992188 -0.1875,-0.1992188 -0.339843,-0.1992188 H 23.05807 c -0.152343,0 -0.339843,0 -0.339843,0.1992188 0,0.1992187 0.1875,0.1992187 0.328125,0.1992187 z m 0,0"
         style="fill:#ff0000;fill-opacity:1;fill-rule:nonzero;stroke:none" />
      <path
         id="path16"
         d="m 36.00143,-3.0119922 c 0.05859,-0.2578125 0.292968,-1.171875 0.984375,-1.171875 0.04687,0 0.292968,0 0.503906,0.1289063 -0.28125,0.046875 -0.480469,0.3046875 -0.480469,0.5390625 0,0.1640625 0.105469,0.3515625 0.375,0.3515625 0.222656,0 0.539063,-0.1875 0.539063,-0.5859375 0,-0.515625 -0.585938,-0.65625 -0.925782,-0.65625 -0.574218,0 -0.925781,0.5273437 -1.042968,0.7617187 -0.257813,-0.65625 -0.785157,-0.7617187 -1.078125,-0.7617187 -1.042969,0 -1.605469,1.2890625 -1.605469,1.5351562 0,0.1054688 0.105469,0.1054688 0.117187,0.1054688 0.08203,0 0.117188,-0.023437 0.128907,-0.1171875 0.339843,-1.0546875 0.996093,-1.3007813 1.335937,-1.3007813 0.1875,0 0.539063,0.09375 0.539063,0.6679688 0,0.3046875 -0.164063,0.9726562 -0.539063,2.3671875 -0.152344,0.62109371 -0.503906,1.04296871 -0.949219,1.04296871 -0.05859,0 -0.28125,0 -0.492187,-0.12890625 0.246094,-0.0585938 0.46875,-0.26953125 0.46875,-0.5390625 0,-0.26953126 -0.222656,-0.35156246 -0.375,-0.35156246 -0.292969,0 -0.539063,0.25781246 -0.539063,0.57421871 0,0.45703125 0.492188,0.65625 0.9375,0.65625 0.65625,0 1.007813,-0.69140625 1.042969,-0.75 0.117188,0.36328125 0.480469,0.75 1.078125,0.75 1.019531,0 1.59375,-1.27734371 1.59375,-1.53515621 0,-0.09375 -0.09375,-0.09375 -0.128906,-0.09375 -0.08203,0 -0.105469,0.035156 -0.128906,0.1054687 -0.328125,1.06640626 -0.996094,1.31250001 -1.324219,1.31250001 -0.386719,0 -0.539063,-0.328125 -0.539063,-0.65625 0,-0.22265625 0.05859,-0.44531251 0.164063,-0.87890621 z m 0,0"
         style="fill:#ff0000;fill-opacity:1;fill-rule:nonzero;stroke:none" />
    </g>
    <path
       id="path17"
       d="m 0,0 4.72415,4.70168 4.72418,4.57235 4.72419,4.31457 4.72418,3.93826 4.72418,3.45251 4.72418,2.87163 4.72418,2.2107 4.72417,1.48792 4.72419,0.72495 4.72418,-0.05927 4.72418,-0.83955 4.72418,-1.59996 4.72418,-2.31278 4.72418,-2.96418 4.72417,-3.53124 4.72418,-4.00185 4.72419,-4.36128 4.72418,-4.59961 4.72418,-4.70987 4.72418,-4.69087 4.72418,-4.54123 4.72419,-4.26655 4.72416,-3.87209 4.72419,-3.37163"
       style="fill:none;stroke:#0000ff;stroke-width:1.19553;stroke-linecap:butt;stroke-linejoin:miter;stroke-miterlimit:10;stroke-dasharray:none;stroke-opacity:1"
       transform="matrix(1.3333333,0,0,-1.3333333,17.356,181.144)" />
    <g
       id="g17"
       aria-label="f(x)=sinx"
       transform="matrix(1.3333333,0,0,1.3333333,173.752,213.06133)">
      <path
         id="path18"
         d="m 3.6576797,-3.9835 h 0.8554687 c 0.1992188,0 0.3046875,0 0.3046875,-0.1992187 0,-0.1054688 -0.1054687,-0.1054688 -0.2695312,-0.1054688 H 3.7162734 l 0.2109375,-1.1367187 c 0.035156,-0.2109375 0.1757813,-0.9140625 0.234375,-1.0429688 0.09375,-0.1875 0.2578125,-0.3398437 0.46875,-0.3398437 0.046875,0 0.3046875,0 0.4921875,0.1875 -0.4335937,0.035156 -0.5390625,0.3867187 -0.5390625,0.5390625 0,0.2226562 0.1757813,0.3398437 0.3632813,0.3398437 0.2695312,0 0.5507812,-0.2109375 0.5507812,-0.5976562 0,-0.4570313 -0.4570312,-0.6796875 -0.8671875,-0.6796875 -0.3398437,0 -0.9609375,0.1757812 -1.265625,1.1601562 -0.058594,0.2109375 -0.082031,0.3164063 -0.328125,1.5703125 H 2.3568984 c -0.1992187,0 -0.3046875,0 -0.3046875,0.1875 0,0.1171875 0.09375,0.1171875 0.28125,0.1171875 h 0.65625 l -0.75,3.9375 C 2.0639297,0.9149375 1.8998672,1.829 1.3725234,1.829 c -0.035156,0 -0.28125,0 -0.46874996,-0.1875 C 1.3608047,1.6180625 1.4428359,1.2547813 1.4428359,1.1024375 c 0,-0.22265625 -0.1757812,-0.33984375 -0.3632812,-0.33984375 -0.25781251,0 -0.55078126,0.2109375 -0.55078126,0.59765625 0,0.4453125 0.43359375,0.6796875 0.84374996,0.6796875 0.5507813,0 0.9492188,-0.5859375 1.125,-0.9609375 0.328125,-0.6328125 0.5507813,-1.83984375 0.5625,-1.91015625 z m 0,0"
         style="fill:#0000ff;fill-opacity:1;fill-rule:nonzero;stroke:none" />
      <path
         id="path19"
         d="m 9.2475234,2.3915 c 0,-0.035156 0,-0.046875 -0.1640625,-0.2226562 -1.2421875,-1.2539063 -1.5703125,-3.1289063 -1.5703125,-4.6640625 0,-1.7226563 0.3867188,-3.4570313 1.6054688,-4.7109375 0.1289062,-0.1171875 0.1289062,-0.1289063 0.1289062,-0.1640625 0,-0.070312 -0.035156,-0.1054688 -0.09375,-0.1054688 -0.1054687,0 -0.9960937,0.6796875 -1.5820312,1.9453125 -0.515625,1.1015625 -0.6328125,2.203125 -0.6328125,3.0351563 0,0.7851562 0.1171875,1.99218745 0.65625,3.11718745 0.5976562,1.21875005 1.453125,1.87500005 1.5585937,1.87500005 0.058594,0 0.09375,-0.035156 0.09375,-0.1054688 z m 0,0"
         style="fill:#0000ff;fill-opacity:1;fill-rule:nonzero;stroke:none" />
      <path
         id="path20"
         d="m 13.155727,-3.0108437 c 0.05859,-0.2578125 0.292968,-1.171875 0.984375,-1.171875 0.04687,0 0.292968,0 0.503906,0.1289062 -0.28125,0.046875 -0.480469,0.3046875 -0.480469,0.5390625 0,0.1640625 0.105469,0.3515625 0.375,0.3515625 0.222656,0 0.539063,-0.1875 0.539063,-0.5859375 0,-0.515625 -0.585938,-0.65625 -0.925782,-0.65625 -0.574218,0 -0.925781,0.5273438 -1.042968,0.7617188 -0.257813,-0.65625 -0.785157,-0.7617188 -1.078125,-0.7617188 -1.042969,0 -1.605469,1.2890625 -1.605469,1.5351563 0,0.1054687 0.105469,0.1054687 0.117187,0.1054687 0.08203,0 0.117188,-0.023437 0.128907,-0.1171875 0.339843,-1.0546875 0.996093,-1.3007812 1.335937,-1.3007812 0.1875,0 0.539063,0.09375 0.539063,0.6679687 0,0.3046875 -0.164063,0.9726563 -0.539063,2.3671875 -0.152344,0.62109375 -0.503906,1.04296875 -0.949219,1.04296875 -0.05859,0 -0.28125,0 -0.492187,-0.12890625 0.246094,-0.0585937 0.46875,-0.26953125 0.46875,-0.5390625 0,-0.2695312 -0.222656,-0.3515625 -0.375,-0.3515625 -0.292969,0 -0.539063,0.2578125 -0.539063,0.57421875 0,0.45703125 0.492188,0.65625 0.9375,0.65625 0.65625,0 1.007813,-0.69140625 1.042969,-0.75 0.117188,0.36328125 0.480469,0.75 1.078125,0.75 1.019531,0 1.59375,-1.27734375 1.59375,-1.53515625 0,-0.09375 -0.09375,-0.09375 -0.128906,-0.09375 -0.08203,0 -0.105469,0.035156 -0.128906,0.1054688 -0.328125,1.0664062 -0.996094,1.31249995 -1.324219,1.31249995 -0.386719,0 -0.539063,-0.328125 -0.539063,-0.65625 0,-0.22265625 0.05859,-0.44531245 0.164063,-0.87890625 z m 0,0"
         style="fill:#0000ff;fill-opacity:1;fill-rule:nonzero;stroke:none" />
      <path
         id="path21"
         d="m 18.405727,-2.4952187 c 0,-0.7734375 -0.117188,-1.9804688 -0.65625,-3.1054688 -0.597657,-1.21875 -1.464844,-1.875 -1.558594,-1.875 -0.05859,0 -0.105469,0.046875 -0.105469,0.1054688 0,0.035156 0,0.046875 0.199219,0.234375 0.972656,0.984375 1.535156,2.5664062 1.535156,4.640625 0,1.71093745 -0.363281,3.4570312 -1.59375,4.7226562 -0.140625,0.1171875 -0.140625,0.1289063 -0.140625,0.1640625 0,0.058594 0.04687,0.1054688 0.105469,0.1054688 0.09375,0 0.996094,-0.6796875 1.582031,-1.94531255 0.503906,-1.1015625 0.632813,-2.20312495 0.632813,-3.04687495 z m 10.59375,-0.7617188 c 0.152343,0 0.339843,0 0.339843,-0.1992187 0,-0.1992188 -0.1875,-0.1992188 -0.328125,-0.1992188 h -5.964843 c -0.140625,0 -0.328125,0 -0.328125,0.1992188 0,0.1992187 0.1875,0.1992187 0.339843,0.1992187 z m 0.01172,1.9335938 c 0.140625,0 0.328125,0 0.328125,-0.1992188 0,-0.1992187 -0.1875,-0.1992187 -0.339843,-0.1992187 H 23.05807 c -0.152343,0 -0.339843,0 -0.339843,0.1992187 0,0.1992188 0.1875,0.1992188 0.328125,0.1992188 z m 5.736328,-0.609375 c 0.222657,0.035156 1.03125,0.1992187 1.03125,0.9140625 0,0.51562495 -0.351562,0.91406245 -1.125,0.91406245 -0.832031,0 -1.195312,-0.57421875 -1.382812,-1.41796875 -0.03516,-0.1289062 -0.03516,-0.1757812 -0.140625,-0.1757812 -0.128906,0 -0.128906,0.070312 -0.128906,0.2578125 v 1.31249995 c 0,0.1640625 0,0.234375 0.105468,0.234375 0.05859,0 0.07031,0 0.257813,-0.19921875 0.01172,-0.01171875 0.01172,-0.03515625 0.199219,-0.22265625 0.433593,0.421875 0.878906,0.421875 1.089843,0.421875 1.148438,0 1.605469,-0.66796875 1.605469,-1.38281245 0,-0.5273438 -0.292969,-0.8203125 -0.421875,-0.9492188 C 35.509244,-2.5420937 35.122525,-2.624125 34.70065,-2.6944375 34.149869,-2.811625 33.4819,-2.9405312 33.4819,-3.51475 c 0,-0.3515625 0.257813,-0.7617187 1.113282,-0.7617187 1.101562,0 1.148437,0.9023437 1.171875,1.2070312 0,0.09375 0.09375,0.09375 0.117187,0.09375 0.128906,0 0.128906,-0.046875 0.128906,-0.2460937 V -4.217875 c 0,-0.1757812 0,-0.2460937 -0.117187,-0.2460937 -0.04687,0 -0.07031,0 -0.199219,0.1171875 -0.02344,0.046875 -0.128906,0.1289062 -0.164062,0.1640625 -0.375,-0.28125 -0.785157,-0.28125 -0.9375,-0.28125 -1.21875,0 -1.59375,0.6679687 -1.59375,1.2304687 0,0.3398438 0.164062,0.6210938 0.433593,0.84375 0.316407,0.2578125 0.597657,0.3164063 1.3125,0.4570313 z M 38.36276,-4.405375 36.968229,-4.2881875 V -3.9835 c 0.65625,0 0.738281,0.058594 0.738281,0.5507813 v 2.67187495 c 0,0.45703125 -0.105469,0.45703125 -0.773438,0.45703125 V 8.75e-4 c 0.316407,-0.01171875 0.855469,-0.03515625 1.101563,-0.03515625 0.339844,0 0.691406,0.0234375 1.03125,0.03515625 v -0.3046875 c -0.65625,0 -0.703125,-0.0585938 -0.703125,-0.4453125 z m 0.04687,-1.734375 c 0,-0.3164062 -0.246094,-0.5273437 -0.527344,-0.5273437 -0.316406,0 -0.527344,0.2695312 -0.527344,0.5273437 0,0.2695313 0.210938,0.5273438 0.527344,0.5273438 0.28125,0 0.527344,-0.1992188 0.527344,-0.5273438 z m 2.0625,2.71875 v 2.66015625 c 0,0.45703125 -0.117188,0.45703125 -0.785156,0.45703125 V 8.75e-4 c 0.351562,-0.01171875 0.855468,-0.03515625 1.125,-0.03515625 0.257812,0 0.785156,0.0234375 1.113281,0.03515625 v -0.3046875 c -0.65625,0 -0.773438,0 -0.773438,-0.45703125 V -2.5889687 c 0,-1.03125 0.714844,-1.59375 1.347657,-1.59375 0.621093,0 0.738281,0.5390625 0.738281,1.1015625 v 2.32031245 c 0,0.45703125 -0.117188,0.45703125 -0.773438,0.45703125 V 8.75e-4 c 0.339844,-0.01171875 0.855469,-0.03515625 1.125,-0.03515625 0.257813,0 0.773438,0.0234375 1.113282,0.03515625 v -0.3046875 c -0.515625,0 -0.773438,0 -0.785157,-0.3046875 v -1.8984375 c 0,-0.8554687 0,-1.171875 -0.304687,-1.5234375 -0.140625,-0.1757812 -0.46875,-0.375 -1.042969,-0.375 -0.726562,0 -1.195312,0.4335938 -1.476562,1.0546875 V -4.405375 l -1.40625,0.1171875 V -3.9835 c 0.703125,0 0.785156,0.070312 0.785156,0.5625 z m 0,0"
         style="fill:#0000ff;fill-opacity:1;fill-rule:nonzero;stroke:none" />
      <path
         id="path22"
         d="m 49.896937,-3.0108437 c 0.05859,-0.2578125 0.292969,-1.171875 0.984375,-1.171875 0.04687,0 0.292969,0 0.503907,0.1289062 -0.28125,0.046875 -0.480469,0.3046875 -0.480469,0.5390625 0,0.1640625 0.105469,0.3515625 0.375,0.3515625 0.222656,0 0.539062,-0.1875 0.539062,-0.5859375 0,-0.515625 -0.585937,-0.65625 -0.925781,-0.65625 -0.574219,0 -0.925781,0.5273438 -1.042969,0.7617188 -0.257812,-0.65625 -0.785156,-0.7617188 -1.078125,-0.7617188 -1.042968,0 -1.605468,1.2890625 -1.605468,1.5351563 0,0.1054687 0.105468,0.1054687 0.117187,0.1054687 0.08203,0 0.117188,-0.023437 0.128906,-0.1171875 0.339844,-1.0546875 0.996094,-1.3007812 1.335938,-1.3007812 0.1875,0 0.539062,0.09375 0.539062,0.6679687 0,0.3046875 -0.164062,0.9726563 -0.539062,2.3671875 -0.152344,0.62109375 -0.503906,1.04296875 -0.949219,1.04296875 -0.05859,0 -0.28125,0 -0.492187,-0.12890625 0.246093,-0.0585937 0.46875,-0.26953125 0.46875,-0.5390625 0,-0.2695312 -0.222657,-0.3515625 -0.375,-0.3515625 -0.292969,0 -0.539063,0.2578125 -0.539063,0.57421875 0,0.45703125 0.492188,0.65625 0.9375,0.65625 0.65625,0 1.007813,-0.69140625 1.042969,-0.75 0.117187,0.36328125 0.480469,0.75 1.078125,0.75 1.019531,0 1.59375,-1.27734375 1.59375,-1.53515625 0,-0.09375 -0.09375,-0.09375 -0.128906,-0.09375 -0.08203,0 -0.105469,0.035156 -0.128907,0.1054688 -0.328125,1.0664062 -0.996093,1.31249995 -1.324218,1.31249995 -0.386719,0 -0.539063,-0.328125 -0.539063,-0.65625 0,-0.22265625 0.05859,-0.44531245 0.164063,-0.87890625 z m 0,0"
         style="fill:#0000ff;fill-opacity:1;fill-rule:nonzero;stroke:none" />
    </g>
    <path
       id="path23"
       d="m 0,1.4174 4.72415,0.25693 4.72418,0.30365 4.72419,0.35857 4.72418,0.42389 4.72418,0.50046 4.72418,0.59127 4.72418,0.69898 4.72417,0.82528 4.72419,0.97495 4.72418,1.15184 4.72418,1.36078 4.72418,1.6073 4.72418,1.89927 4.72418,2.24357 4.72417,2.65016 4.72418,3.13072 4.72419,3.69907 4.72418,4.36949 4.72418,5.16191 4.72418,6.09836 4.72418,7.20347 4.72419,8.5102 4.72416,10.05348 4.72419,11.87748"
       style="fill:none;stroke:#ff8000;stroke-width:1.19553;stroke-linecap:butt;stroke-linejoin:miter;stroke-miterlimit:10;stroke-dasharray:none;stroke-opacity:1"
       transform="matrix(1.3333333,0,0,-1.3333333,17.356,181.144)" />
    <g
       id="g23"
       aria-label="f(x)=&#10;1"
       transform="matrix(1.3333333,0,0,1.3333333,173.752,81.308)">
      <path
         id="path24"
         d="m 3.6576797,-3.9839297 h 0.8554687 c 0.1992188,0 0.3046875,0 0.3046875,-0.1992187 0,-0.1054688 -0.1054687,-0.1054688 -0.2695312,-0.1054688 H 3.7162734 l 0.2109375,-1.1367187 c 0.035156,-0.2109375 0.1757813,-0.9140625 0.234375,-1.0429688 0.09375,-0.1875 0.2578125,-0.3398437 0.46875,-0.3398437 0.046875,0 0.3046875,0 0.4921875,0.1875 -0.4335937,0.035156 -0.5390625,0.3867187 -0.5390625,0.5390625 0,0.2226562 0.1757813,0.3398437 0.3632813,0.3398437 0.2695312,0 0.5507812,-0.2109375 0.5507812,-0.5976562 0,-0.4570313 -0.4570312,-0.6796875 -0.8671875,-0.6796875 -0.3398437,0 -0.9609375,0.1757812 -1.265625,1.1601562 -0.058594,0.2109375 -0.082031,0.3164063 -0.328125,1.5703125 H 2.3568984 c -0.1992187,0 -0.3046875,0 -0.3046875,0.1875 0,0.1171875 0.09375,0.1171875 0.28125,0.1171875 h 0.65625 l -0.75,3.93750001 C 2.0639297,0.91450781 1.8998672,1.8285703 1.3725234,1.8285703 c -0.035156,0 -0.28125,0 -0.46874996,-0.1875 C 1.3608047,1.6176328 1.4428359,1.2543516 1.4428359,1.1020078 c 0,-0.22265624 -0.1757812,-0.33984374 -0.3632812,-0.33984374 -0.25781251,0 -0.55078126,0.2109375 -0.55078126,0.59765624 0,0.4453125 0.43359375,0.6796875 0.84374996,0.6796875 0.5507813,0 0.9492188,-0.5859375 1.125,-0.9609375 0.328125,-0.63281249 0.5507813,-1.83984374 0.5625,-1.91015624 z m 0,0"
         style="fill:#ff8000;fill-opacity:1;fill-rule:nonzero;stroke:none" />
      <path
         id="path25"
         d="m 9.2475234,2.3910703 c 0,-0.035156 0,-0.046875 -0.1640625,-0.2226562 -1.2421875,-1.25390629 -1.5703125,-3.12890629 -1.5703125,-4.6640625 0,-1.7226563 0.3867188,-3.4570313 1.6054688,-4.7109375 0.1289062,-0.1171875 0.1289062,-0.1289063 0.1289062,-0.1640625 0,-0.070312 -0.035156,-0.1054688 -0.09375,-0.1054688 -0.1054687,0 -0.9960937,0.6796875 -1.5820312,1.9453125 -0.515625,1.1015625 -0.6328125,2.203125 -0.6328125,3.0351563 0,0.7851562 0.1171875,1.99218746 0.65625,3.11718746 0.5976562,1.21875004 1.453125,1.87500004 1.5585937,1.87500004 0.058594,0 0.09375,-0.035156 0.09375,-0.1054688 z m 0,0"
         style="fill:#ff8000;fill-opacity:1;fill-rule:nonzero;stroke:none" />
      <path
         id="path26"
         d="m 13.155727,-3.0112734 c 0.05859,-0.2578125 0.292968,-1.171875 0.984375,-1.171875 0.04687,0 0.292968,0 0.503906,0.1289062 -0.28125,0.046875 -0.480469,0.3046875 -0.480469,0.5390625 0,0.1640625 0.105469,0.3515625 0.375,0.3515625 0.222656,0 0.539063,-0.1875 0.539063,-0.5859375 0,-0.515625 -0.585938,-0.65625 -0.925782,-0.65625 -0.574218,0 -0.925781,0.5273438 -1.042968,0.7617188 -0.257813,-0.65625 -0.785157,-0.7617188 -1.078125,-0.7617188 -1.042969,0 -1.605469,1.2890625 -1.605469,1.5351563 0,0.1054687 0.105469,0.1054687 0.117187,0.1054687 0.08203,0 0.117188,-0.023437 0.128907,-0.1171875 0.339843,-1.0546875 0.996093,-1.3007812 1.335937,-1.3007812 0.1875,0 0.539063,0.09375 0.539063,0.6679687 0,0.3046875 -0.164063,0.9726563 -0.539063,2.3671875 -0.152344,0.62109376 -0.503906,1.04296876 -0.949219,1.04296876 -0.05859,0 -0.28125,0 -0.492187,-0.12890625 0.246094,-0.0585938 0.46875,-0.26953125 0.46875,-0.5390625 0,-0.26953121 -0.222656,-0.35156251 -0.375,-0.35156251 -0.292969,0 -0.539063,0.25781251 -0.539063,0.57421876 0,0.45703125 0.492188,0.65625 0.9375,0.65625 0.65625,0 1.007813,-0.69140625 1.042969,-0.75 0.117188,0.36328125 0.480469,0.75 1.078125,0.75 1.019531,0 1.59375,-1.27734376 1.59375,-1.53515626 0,-0.09375 -0.09375,-0.09375 -0.128906,-0.09375 -0.08203,0 -0.105469,0.035156 -0.128906,0.1054688 -0.328125,1.06640621 -0.996094,1.31249996 -1.324219,1.31249996 -0.386719,0 -0.539063,-0.328125 -0.539063,-0.65625 0,-0.22265625 0.05859,-0.44531246 0.164063,-0.87890626 z m 0,0"
         style="fill:#ff8000;fill-opacity:1;fill-rule:nonzero;stroke:none" />
      <path
         id="path27"
         d="m 18.405727,-2.4956484 c 0,-0.7734375 -0.117188,-1.9804688 -0.65625,-3.1054688 -0.597657,-1.21875 -1.464844,-1.875 -1.558594,-1.875 -0.05859,0 -0.105469,0.046875 -0.105469,0.1054688 0,0.035156 0,0.046875 0.199219,0.234375 0.972656,0.984375 1.535156,2.5664062 1.535156,4.640625 0,1.71093746 -0.363281,3.45703121 -1.59375,4.7226562 -0.140625,0.1171875 -0.140625,0.1289063 -0.140625,0.1640625 0,0.058594 0.04687,0.1054688 0.105469,0.1054688 0.09375,0 0.996094,-0.6796875 1.582031,-1.94531254 0.503906,-1.1015625 0.632813,-2.20312496 0.632813,-3.04687496 z m 10.59375,-0.7617188 c 0.152343,0 0.339843,0 0.339843,-0.1992187 0,-0.1992188 -0.1875,-0.1992188 -0.328125,-0.1992188 h -5.964843 c -0.140625,0 -0.328125,0 -0.328125,0.1992188 0,0.1992187 0.1875,0.1992187 0.339843,0.1992187 z m 0.01172,1.9335938 c 0.140625,0 0.328125,0 0.328125,-0.1992188 0,-0.1992187 -0.1875,-0.1992187 -0.339843,-0.1992187 H 23.05807 c -0.152343,0 -0.339843,0 -0.339843,0.1992187 0,0.1992188 0.1875,0.1992188 0.328125,0.1992188 z m 0,0"
         style="fill:#ff8000;fill-opacity:1;fill-rule:nonzero;stroke:none" />
      <path
         id="path28"
         d="m 38.189906,-8.3520937 c 0,-0.1875 -0.01172,-0.1992188 -0.210937,-0.1992188 C 37.533656,-8.1177187 36.900844,-8.106 36.619594,-8.106 v 0.2460938 c 0.164062,0 0.621093,0 1.007812,-0.1875 v 3.5507812 c 0,0.234375 0,0.328125 -0.691406,0.328125 h -0.269531 v 0.2460938 c 0.128906,-0.011719 0.984375,-0.023437 1.242187,-0.023437 0.210938,0 1.089844,0.011719 1.242188,0.023437 V -4.1685 h -0.257813 c -0.703125,0 -0.703125,-0.09375 -0.703125,-0.328125 z m 0,0"
         style="fill:#ff8000;fill-opacity:1;fill-rule:nonzero;stroke:none" />
    </g>
    <path
       id="path29"
       d="M 0,0 H 7.942"
       style="fill:none;stroke:#ff8000;stroke-width:0.398;stroke-linecap:butt;stroke-linejoin:miter;stroke-miterlimit:10;stroke-dasharray:none;stroke-opacity:1"
       transform="matrix(1.3333333,0,0,-1.3333333,218.91467,77.988)" />
    <g
       id="g29"
       aria-label="20&#10;e&#10;x"
       transform="matrix(1.3333333,0,0,1.3333333,218.91467,85.889333)">
      <path
         id="path30"
         d="m 3.5151719,-1.2646562 h -0.234375 c -0.023437,0.1523437 -0.082031,0.56249995 -0.1757813,0.63281245 -0.058594,0.0351563 -0.5976562,0.0351563 -0.6914062,0.0351563 H 1.1245469 c 0.7382812,-0.64453115 0.984375,-0.84374995 1.3945312,-1.17187495 0.515625,-0.4101563 0.9960938,-0.8437501 0.9960938,-1.5000001 0,-0.8437499 -0.7382813,-1.3593749 -1.6289063,-1.3593749 -0.8671875,0 -1.45312498,0.609375 -1.45312498,1.2421874 0,0.3632813 0.3046875,0.3984375 0.375,0.3984375 0.1640625,0 0.37499998,-0.1171875 0.37499998,-0.375 0,-0.1289062 -0.058594,-0.3632812 -0.42187498,-0.3632812 0.22265625,-0.5039062 0.69140628,-0.65625 1.01953128,-0.65625 0.703125,0 1.0664062,0.5507812 1.0664062,1.1132812 0,0.609375 -0.4335937,1.0898438 -0.65625,1.3359376 L 0.50345312,-0.2685625 C 0.43314062,-0.20996875 0.43314062,-0.19825 0.43314062,9.6875e-4 H 3.3159531 Z m 4.0546875,-0.9609375 c 0,-0.7617188 -0.09375,-1.3125 -0.4101563,-1.8046875 -0.2226562,-0.3164063 -0.6445312,-0.5976563 -1.2070312,-0.5976563 -1.6171875,0 -1.6171875,1.8984375 -1.6171875,2.4023438 0,0.5039062 0,2.36718745 1.6171875,2.36718745 1.6171875,0 1.6171875,-1.86328125 1.6171875,-2.36718745 z M 5.9526719,-0.057625 c -0.3164063,0 -0.75,-0.1875 -0.890625,-0.76171875 -0.09375,-0.41015625 -0.09375,-0.98437495 -0.09375,-1.49999995 0,-0.5039063 0,-1.03125 0.1054687,-1.4179688 0.1523438,-0.5507812 0.5976563,-0.6914062 0.8789063,-0.6914062 0.375,0 0.7382812,0.2226562 0.8671875,0.6328125 0.1054687,0.375 0.1171875,0.8789062 0.1171875,1.4765625 0,0.515625 0,1.0429687 -0.09375,1.47656245 -0.140625,0.6328125 -0.609375,0.78515625 -0.890625,0.78515625 z m 0,0"
         style="fill:#ff8000;fill-opacity:1;fill-rule:nonzero;stroke:none" />
      <path
         id="path31"
         d="m 10.250523,-5.9433672 c 0.05859,-1.4882812 0.902344,-1.734375 1.242188,-1.734375 1.019531,0 1.125,1.3476563 1.125,1.734375 z m -0.01172,0.2109375 h 2.789062 c 0.210938,0 0.246094,0 0.246094,-0.2109375 0,-0.984375 -0.539063,-1.9570312 -1.78125,-1.9570312 -1.160156,0 -2.0742188,1.03125 -2.0742188,2.2734375 0,1.3359375 1.0429688,2.296875 2.1914058,2.296875 1.21875,0 1.664063,-1.1015625 1.664063,-1.2890625 0,-0.1054688 -0.08203,-0.1171875 -0.128906,-0.1171875 -0.09375,0 -0.117188,0.058594 -0.128907,0.140625 -0.351562,1.0195312 -1.253906,1.0195312 -1.347656,1.0195312 -0.503906,0 -0.902344,-0.2929687 -1.125,-0.6679687 -0.304687,-0.4804688 -0.304687,-1.1367188 -0.304687,-1.4882813 z m 0,0"
         style="fill:#ff8000;fill-opacity:1;fill-rule:nonzero;stroke:none" />
      <path
         id="path32"
         d="m 15.298375,-7.7890703 c -0.07031,0.234375 -0.292969,0.609375 -0.65625,0.609375 -0.02344,0 -0.222656,0 -0.375,-0.09375 0.28125,-0.09375 0.304687,-0.3398438 0.304687,-0.3867188 0,-0.1523437 -0.117187,-0.2578125 -0.28125,-0.2578125 -0.1875,0 -0.386718,0.1640625 -0.386718,0.4335938 0,0.3398437 0.386718,0.5039062 0.726562,0.5039062 0.316406,0 0.609375,-0.1992187 0.785156,-0.4921875 0.164063,0.3632813 0.550782,0.4921875 0.820313,0.4921875 0.808594,0 1.230469,-0.8671875 1.230469,-1.0664062 0,-0.09375 -0.09375,-0.09375 -0.105469,-0.09375 -0.105469,0 -0.105469,0.035156 -0.140625,0.1171875 -0.140625,0.4804687 -0.5625,0.84375 -0.949219,0.84375 -0.28125,0 -0.421875,-0.1875 -0.421875,-0.4453125 0,-0.1875 0.164063,-0.8203125 0.363281,-1.59375 0.128907,-0.5390625 0.445313,-0.7148438 0.679688,-0.7148438 0.01172,0 0.222656,0 0.375,0.1054688 -0.222656,0.058594 -0.304688,0.2578125 -0.304688,0.375 0,0.1523437 0.117188,0.2578125 0.28125,0.2578125 0.152344,0 0.386719,-0.1289063 0.386719,-0.421875 0,-0.3867187 -0.445312,-0.5039067 -0.726562,-0.5039067 -0.351563,0 -0.632813,0.2226567 -0.785157,0.4921879 -0.117187,-0.2929687 -0.445312,-0.4921879 -0.832031,-0.4921879 -0.785156,0 -1.230469,0.8554692 -1.230469,1.0664067 0,0.082031 0.105469,0.082031 0.117188,0.082031 0.09375,0 0.105469,-0.023437 0.140625,-0.1171875 0.175781,-0.5390625 0.609375,-0.84375 0.949219,-0.84375 0.234375,0 0.421875,0.1289063 0.421875,0.46875 0,0.1289063 -0.08203,0.4804688 -0.152344,0.7148438 z m 0,0"
         style="fill:#ff8000;fill-opacity:1;fill-rule:nonzero;stroke:none" />
    </g>
  </g>
</svg>
