<?xml version="1.0" encoding="UTF-8" standalone="no"?>
<!-- Created with Inkscape (http://www.inkscape.org/) -->

<svg
   version="1.1"
   id="svg1"
   width="303.40704"
   height="4836.854"
   viewBox="0 0 303.40704 4836.854"
   xmlns="http://www.w3.org/2000/svg"
   xmlns:svg="http://www.w3.org/2000/svg">
  <defs
     id="defs1" />
  <g
     id="g1"
     transform="translate(0.00220157,-0.48923711)">
    <path
       id="path1"
       d="M -113.38724,-56.69362 H 113.38724 M -113.38724,-28.3468 H 113.38724 M -113.38724,0 H 113.38724 M -113.38724,28.3468 H 113.38724 M -113.38724,56.68365 H 113.38724 M -113.38724,-56.69362 V 56.69362 M -85.04042,-56.69362 V 56.69362 m 28.3468,-113.38724 V 56.69362 M -28.3468,-56.69362 V 56.69362 M 0,-56.69362 V 56.69362 M 28.3468,-56.69362 V 56.69362 M 56.69362,-56.69362 V 56.69362 M 85.04042,-56.69362 V 56.69362 M 113.37727,-56.69362 V 56.69362"
       style="fill:none;stroke:#808080;stroke-width:0.19925;stroke-linecap:butt;stroke-linejoin:miter;stroke-miterlimit:10;stroke-dasharray:none;stroke-opacity:1"
       transform="matrix(1.3333333,0,0,-1.3333333,151.712,2418.404)" />
    <path
       id="path2"
       d="m -113.38724,-1814.1958 c 0,0 3.34357,156.4433 4.62774,213.1893 1.28416,56.746 3.34355,143.7741 4.62773,195.7965 1.28416,52.0224 3.34355,131.6406 4.62771,179.1447 1.28418,47.5042 3.34356,120.0408 4.62773,163.2321 1.28417,43.1913 3.34355,108.97675 4.62772,148.06077 1.28418,39.08401 3.34357,98.44756 4.62773,133.62959 1.28418,35.18202 3.34355,88.45278 4.62773,119.93802 1.28417,31.48525 3.34355,78.99187 4.62772,106.98569 1.28418,27.99382 3.34355,70.0665 4.62773,94.77426 1.28416,24.70777 3.34355,61.67488 4.62773,83.30207 1.28417,21.62719 3.34354,53.81973 4.6277,72.57165 1.28418,18.75191 3.34355,46.49737 4.62773,62.57916 1.28417,16.0818 3.34355,39.70987 4.62772,53.32718 1.28418,13.61731 3.34356,33.45883 4.62773,44.817 1.28416,11.35816 3.34355,27.74054 4.62773,37.04471 1.28416,9.30417 3.34356,22.5578 4.62772,30.01337 1.28418,7.45556 3.34355,17.90886 4.62773,23.72126 1.28416,5.8124 3.34355,13.79584 4.62771,18.17049 1.28418,4.37463 3.34357,10.21678 4.62774,13.35893 1.28418,3.14214 3.34355,7.17244 4.62773,9.28745 1.28416,2.115 3.34353,4.66282 4.6277,5.95605 1.28418,1.29325 3.34355,2.68788 4.62773,3.3647 1.28416,0.67684 3.34355,1.24768 4.62773,1.51348 1.28417,0.26579 3.34355,0.34225 4.62772,0.40225 1.28418,0.06 3.34352,-0.02933 4.6277,0.03024 1.28416,0.05957 3.34355,0.13458 4.62771,0.39923 1.28418,0.26465 3.34357,0.83318 4.62774,1.50827 1.28416,0.67508 3.34355,2.06658 4.62773,3.35735 1.28416,1.29077 3.34355,3.83386 4.62771,5.94568 1.28418,2.11181 3.34356,6.13667 4.62773,9.27491 1.28417,3.13824 3.34354,8.97339 4.6277,13.34336 1.28418,4.36995 3.34357,12.34515 4.62773,18.15233 1.28419,5.80717 3.34356,16.25221 4.62774,23.70178 1.28416,7.44958 3.34355,20.69224 4.62771,29.98957 1.28418,9.29734 3.34355,25.66857 4.62773,37.01922 1.28417,11.35064 3.34356,31.17933 4.62774,44.78843 1.28416,13.6091 3.34355,37.22352 4.62771,53.29648 1.28418,16.07296 3.34355,43.80391 4.62773,62.54628 1.28417,18.74239 3.34355,50.91884 4.62772,72.53577 1.28418,21.61691 3.34357,58.56722 4.62773,83.26398 1.28416,24.69677 3.34355,66.75106 4.62773,94.73318 1.28416,27.98212 3.34354,75.46973 4.6277,106.94241 1.28418,31.47271 3.34356,84.72219 4.62773,119.8909 1.28417,35.16872 3.34356,94.51055 4.62772,133.58069 1.28418,39.07016 3.34357,104.83276 4.62773,148.00976 1.28418,43.177 3.34355,115.6912 4.62773,163.1801 1.28417,47.489 3.34355,127.081 4.62772,179.0872 1.28418,52.0063 3.34355,139.0084 4.62773,195.7377 1.28416,56.7294 4.62773,213.1279 4.62773,213.1279"
       style="fill:none;stroke:#0000ff;stroke-width:0.79701;stroke-linecap:butt;stroke-linejoin:miter;stroke-miterlimit:10;stroke-dasharray:none;stroke-opacity:1"
       transform="matrix(1.3333333,0,0,-1.3333333,151.712,2418.404)" />
  </g>
</svg>
