<?xml version="1.0" encoding="UTF-8" standalone="no"?>
<!-- Created with Inkscape (http://www.inkscape.org/) -->

<svg
   version="1.1"
   id="svg1"
   width="76.570389"
   height="75.882919"
   viewBox="0 0 76.570389 75.88292"
   xmlns="http://www.w3.org/2000/svg"
   xmlns:svg="http://www.w3.org/2000/svg">
  <defs
     id="defs1" />
  <g
     id="g1"
     transform="translate(-0.02816987,-0.33138128)">
    <path
       id="path1"
       d="M -28.3468,-28.3468 H 28.3468 M -28.3468,0 H 28.3468 M -28.3468,28.33684 H 28.3468 M -28.3468,-28.3468 V 28.3468 M 0,-28.3468 v 56.6936 m 28.33684,-56.6936 v 56.6936"
       style="fill:none;stroke:#808080;stroke-width:0.19925;stroke-linecap:butt;stroke-linejoin:miter;stroke-miterlimit:10;stroke-dasharray:none;stroke-opacity:1"
       transform="matrix(1.3333333,0,0,-1.3333333,38.326667,38.246667)" />
    <path
       id="path2"
       d="m -28.3468,-28.3468 c 0,0 0.83566,2.44409 1.15661,3.33055 0.32094,0.88646 0.83567,2.24577 1.15661,3.05847 0.32095,0.8127 0.83566,2.05682 1.1566,2.79897 0.32095,0.74212 0.83568,1.87507 1.15661,2.5498 0.32094,0.67473 0.83567,1.70264 1.15662,2.31322 0.32094,0.61056 0.83565,1.53782 1.15658,2.08742 0.32096,0.5496 0.83568,1.38183 1.15662,1.87376 0.32094,0.49191 0.83566,1.23431 1.15662,1.67175 0.32093,0.43744 0.83564,1.09496 1.1566,1.48101 0.32093,0.38606 0.83566,0.96357 1.1566,1.30151 0.32095,0.33792 0.83566,0.84109 1.1566,1.13412 0.32094,0.29303 0.83566,0.72663 1.15662,0.97796 0.32093,0.25134 0.83566,0.62065 1.15661,0.83351 0.32094,0.21285 0.83565,0.52313 1.15659,0.70071 0.32095,0.17757 0.83568,0.43369 1.15661,0.57916 0.32094,0.14547 0.83567,0.35277 1.15662,0.46932 0.32094,0.11653 0.83565,0.27983 1.15658,0.37068 0.32096,0.09085 0.83568,0.2157 1.15662,0.28416 0.32096,0.06849 0.83568,0.16015 1.15662,0.20935 0.32094,0.04921 0.83565,0.11228 1.1566,0.14534 0.32094,0.03307 0.83566,0.07279 1.1566,0.09301 0.32096,0.02022 0.83566,0.04216 1.1566,0.05276 0.32096,0.01061 0.83566,0.01959 1.15662,0.02379 0.32094,0.0042 0.83566,0.00558 1.15661,0.00647 0.32094,8.9e-4 0.83562,-8.2e-4 1.15656,0 0.32095,8.2e-4 0.83567,0.00197 1.15662,0.00604 0.32093,0.00408 0.83566,0.01286 1.15661,0.02335 0.32094,0.0105 0.83565,0.03224 1.1566,0.05234 0.32094,0.02011 0.83567,0.05969 1.1566,0.09257 0.32096,0.03288 0.83568,0.09561 1.15662,0.14446 0.32094,0.04884 0.83565,0.13957 1.1566,0.20762 0.32094,0.06804 0.83566,0.19239 1.1566,0.28289 0.32095,0.0905 0.83566,0.25326 1.1566,0.36938 0.32096,0.1161 0.83568,0.32266 1.15662,0.46757 0.32094,0.14493 0.83566,0.40004 1.15661,0.57702 0.32094,0.17696 0.83565,0.48634 1.15659,0.69854 0.32095,0.21221 0.83568,0.58031 1.15662,0.83091 0.32095,0.25061 0.83566,0.68304 1.15661,0.97537 0.32094,0.29231 0.83565,0.79437 1.1566,1.13151 0.32094,0.33716 0.83567,0.91333 1.1566,1.29848 0.32096,0.38516 0.83568,1.04108 1.15662,1.47757 0.32094,0.43648 0.83565,1.17732 1.1566,1.66829 0.32094,0.49097 0.83566,1.32164 1.15662,1.87029 0.32093,0.54864 0.83565,1.47448 1.15658,2.08398 0.32095,0.60948 0.83568,1.63522 1.15662,2.30887 0.32094,0.67364 0.83566,1.80543 1.15662,2.54635 0.32093,0.74094 0.83564,1.9824 1.15658,2.79377 0.32096,0.81137 0.83568,2.16896 1.15662,3.05415 0.32095,0.88519 1.15661,3.32579 1.15661,3.32579"
       style="fill:none;stroke:#0000ff;stroke-width:0.79701;stroke-linecap:butt;stroke-linejoin:miter;stroke-miterlimit:10;stroke-dasharray:none;stroke-opacity:1"
       transform="matrix(1.3333333,0,0,-1.3333333,38.326667,38.246667)" />
  </g>
</svg>
