<?xml version="1.0" encoding="UTF-8" standalone="no"?>
<!-- Created with Inkscape (http://www.inkscape.org/) -->

<svg
   version="1.1"
   id="svg1"
   width="133.31213"
   height="108.04719"
   viewBox="0 0 133.31213 108.04719"
   xmlns="http://www.w3.org/2000/svg"
   xmlns:svg="http://www.w3.org/2000/svg">
  <defs
     id="defs1" />
  <g
     id="g1"
     transform="translate(-0.265228,-0.26530596)">
    <path
       id="path1"
       d="m -28.34666,-1.99255 v 3.9851"
       style="fill:none;stroke:#000000;stroke-width:0.3985;stroke-linecap:round;stroke-linejoin:miter;stroke-miterlimit:10;stroke-dasharray:none;stroke-opacity:1"
       transform="matrix(1.3333333,0,0,-1.3333333,66.921333,95.268)" />
    <path
       id="path2"
       d="m 28.34666,-1.99255 v 3.9851"
       style="fill:none;stroke:#000000;stroke-width:0.3985;stroke-linecap:round;stroke-linejoin:miter;stroke-miterlimit:10;stroke-dasharray:none;stroke-opacity:1"
       transform="matrix(1.3333333,0,0,-1.3333333,66.921333,95.268)" />
    <path
       id="path3"
       d="m -1.99255,28.34666 h 3.9851"
       style="fill:none;stroke:#000000;stroke-width:0.3985;stroke-linecap:round;stroke-linejoin:miter;stroke-miterlimit:10;stroke-dasharray:none;stroke-opacity:1"
       transform="matrix(1.3333333,0,0,-1.3333333,66.921333,95.268)" />
    <path
       id="path4"
       d="m -1.99255,56.69334 h 3.9851"
       style="fill:none;stroke:#000000;stroke-width:0.3985;stroke-linecap:round;stroke-linejoin:miter;stroke-miterlimit:10;stroke-dasharray:none;stroke-opacity:1"
       transform="matrix(1.3333333,0,0,-1.3333333,66.921333,95.268)" />
    <path
       id="path5"
       d="M -49.99208,0 H 49.5338"
       style="fill:none;stroke:#000000;stroke-width:0.3985;stroke-linecap:butt;stroke-linejoin:miter;stroke-miterlimit:10;stroke-dasharray:none;stroke-opacity:1"
       transform="matrix(1.3333333,0,0,-1.3333333,66.921333,95.268)" />
    <path
       id="path6"
       d="M -1.19551,1.59401 C -1.09587,0.99626 0,0.09961 0.29886,0 0,-0.09961 -1.09587,-0.99626 -1.19551,-1.59401"
       style="fill:none;stroke:#000000;stroke-width:0.31879;stroke-linecap:round;stroke-linejoin:round;stroke-miterlimit:10;stroke-dasharray:none;stroke-opacity:1"
       transform="matrix(1.3333333,0,0,-1.3333333,132.9664,95.268)" />
    <path
       id="path7"
       d="M 0,-7.47208 V 70.7938"
       style="fill:none;stroke:#000000;stroke-width:0.3985;stroke-linecap:butt;stroke-linejoin:miter;stroke-miterlimit:10;stroke-dasharray:none;stroke-opacity:1"
       transform="matrix(1.3333333,0,0,-1.3333333,66.921333,95.268)" />
    <path
       id="path8"
       d="M -1.19551,1.59401 C -1.09587,0.99626 0,0.09961 0.29886,0 0,-0.09961 -1.09587,-0.99626 -1.19551,-1.59401"
       style="fill:none;stroke:#000000;stroke-width:0.31879;stroke-linecap:round;stroke-linejoin:round;stroke-miterlimit:10;stroke-dasharray:none;stroke-opacity:1"
       transform="matrix(0,-1.3333333,-1.3333333,0,66.921333,0.87626667)" />
    <path
       id="path9"
       d="m -42.52,63.78 c 0,0 10.24029,-27.56723 14.17334,-35.43334 C -24.41362,20.48058 -18.10637,11.0197 -14.17332,7.08665 -10.2403,3.15361 -3.93303,0 0,0 3.93303,0 10.2403,3.15361 14.17332,7.08665 18.10637,11.0197 24.41362,20.48058 28.34666,28.34666 32.27971,36.21277 42.52,63.78 42.52,63.78"
       style="fill:none;stroke:#000000;stroke-width:0.59776;stroke-linecap:butt;stroke-linejoin:miter;stroke-miterlimit:10;stroke-dasharray:none;stroke-opacity:1"
       transform="matrix(1.3333333,0,0,-1.3333333,66.921333,95.268)" />
    <g
       id="g9"
       aria-label="−1"
       transform="matrix(1.3333333,0,0,1.3333333,21.912,108.31333)">
      <path
         id="path10"
         d="m 5.5650234,-1.8053125 c 0.1289063,0 0.3046875,0 0.3046875,-0.1875 0,-0.1875 -0.1757812,-0.1875 -0.3046875,-0.1875 H 1.0064297 c -0.12890626,0 -0.30468751,0 -0.30468751,0.1875 0,0.1875 0.17578125,0.1875 0.30468751,0.1875 z m 0,0"
         style="fill:#000000;fill-opacity:1;fill-rule:nonzero;stroke:none" />
      <path
         id="path11"
         d="m 9.0952969,-5.0748437 c 0,-0.2226563 -0.023437,-0.2226563 -0.234375,-0.2226563 -0.328125,0.3164063 -0.75,0.5039063 -1.5117188,0.5039063 v 0.2695312 c 0.2226563,0 0.6445313,0 1.1132813,-0.2226562 v 4.0898437 c 0,0.29296875 -0.023437,0.3984375 -0.7851563,0.3984375 h -0.28125 V -6.25e-4 c 0.328125,-0.0234375 1.0195313,-0.0234375 1.3710938,-0.0234375 0.3632812,0 1.0546875,0 1.3828121,0.0234375 V -0.2584375 H 9.8687344 c -0.75,0 -0.7734375,-0.10546875 -0.7734375,-0.3984375 z m 0,0"
         style="fill:#000000;fill-opacity:1;fill-rule:nonzero;stroke:none" />
    </g>
    <path
       id="path12"
       d="m 2.5087109,-5.0748437 c 0,-0.2226563 -0.023437,-0.2226563 -0.234375,-0.2226563 -0.328125,0.3164063 -0.75,0.5039063 -1.51171871,0.5039063 v 0.2695312 c 0.22265625,0 0.64453121,0 1.11328121,-0.2226562 v 4.0898437 c 0,0.29296875 -0.023437,0.3984375 -0.7851562,0.3984375 H 0.80949219 V -6.25e-4 C 1.1376172,-0.0240625 1.8290234,-0.0240625 2.1805859,-0.0240625 c 0.3632813,0 1.0546875,0 1.3828125,0.0234375 v -0.2578125 h -0.28125 c -0.75,0 -0.7734375,-0.10546875 -0.7734375,-0.3984375 z m 0,0"
       style="fill:#000000;fill-opacity:1;fill-rule:nonzero;stroke:none"
       aria-label="1"
       transform="matrix(1.3333333,0,0,1.3333333,101.89333,108.31333)" />
    <path
       id="path13"
       d="m 3.902125,-2.5437812 c 0,-0.8554688 -0.09375,-1.3710938 -0.3515625,-1.875 C 3.199,-5.1219062 2.5544687,-5.2976875 2.1091562,-5.2976875 c -0.9960937,0 -1.3710937,0.75 -1.47656245,0.9726563 -0.29296875,0.5742187 -0.3046875,1.3710937 -0.3046875,1.78125 0,0.5273437 0.0234375,1.3359375 0.41015625,1.96874995 C 1.1013437,0.01090625 1.6872812,0.16325 2.1091562,0.16325 2.495875,0.16325 3.1755625,0.0460625 3.574,-0.73909375 3.8669687,-1.3133125 3.902125,-2.0281562 3.902125,-2.5437812 Z m -1.7929688,2.48437495 c -0.2695312,0 -0.8203125,-0.12890625 -0.984375,-0.96093745 -0.09375,-0.4570313 -0.09375,-1.2070313 -0.09375,-1.6171875 0,-0.5507813 0,-1.1132813 0.09375,-1.546875 0.1640625,-0.8085938 0.7851563,-0.890625 0.984375,-0.890625 0.2695313,0 0.8203125,0.1289062 0.984375,0.8554687 0.09375,0.4453125 0.09375,1.0429688 0.09375,1.5820313 0,0.46875 0,1.1835937 -0.09375,1.6289062 -0.1640625,0.84375 -0.7148437,0.94921875 -0.984375,0.94921875 z m 0,0"
       style="fill:#000000;fill-opacity:1;fill-rule:nonzero;stroke:none"
       aria-label="0"
       transform="matrix(1.3333333,0,0,1.3333333,57.734667,105.65733)" />
    <path
       id="path14"
       d="m 2.5084063,-5.0733906 c 0,-0.2226563 -0.023437,-0.2226563 -0.234375,-0.2226563 -0.328125,0.3164063 -0.75,0.5039063 -1.5117188,0.5039063 v 0.2695312 c 0.22265625,0 0.6445313,0 1.1132813,-0.2226562 v 4.08984372 c 0,0.29296875 -0.023437,0.3984375 -0.7851563,0.3984375 h -0.28125 V 8.28125e-4 c 0.328125,-0.023437505 1.0195313,-0.023437505 1.3710938,-0.023437505 0.3632812,0 1.0546875,0 1.3828125,0.023437505 V -0.25698438 h -0.28125 c -0.75,0 -0.7734375,-0.10546875 -0.7734375,-0.3984375 z m 0,0"
       style="fill:#000000;fill-opacity:1;fill-rule:nonzero;stroke:none"
       aria-label="1"
       transform="matrix(1.3333333,0,0,1.3333333,55.077333,60.897333)" />
    <path
       id="path15"
       d="m 2.2505938,-1.6287344 c 0.1289062,-0.1171875 0.4570312,-0.375 0.5859375,-0.4921875 0.4921875,-0.4570312 0.9609375,-0.890625 0.9609375,-1.6171875 0,-0.9492187 -0.796875,-1.5585937 -1.7929688,-1.5585937 -0.9492187,0 -1.58203125,0.7265625 -1.58203125,1.4296875 0,0.3984375 0.31640625,0.4453125 0.421875,0.4453125 0.16406255,0 0.41015625,-0.1171875 0.41015625,-0.421875 0,-0.4101563 -0.3984375,-0.4101563 -0.4921875,-0.4101563 0.234375,-0.5859375 0.7734375,-0.7851562 1.1601563,-0.7851562 0.7382812,0 1.125,0.6328125 1.125,1.3007812 0,0.8320313 -0.5859375,1.4296875 -1.5234375,2.4023438 l -1.00781255,1.03124998 c -0.09375,0.09375 -0.09375,0.10546875 -0.09375,0.304687495 H 3.5748125 L 3.7974688,-1.4295156 H 3.551375 c -0.023437,0.1640625 -0.082031,0.56249998 -0.1757812,0.71484373 -0.046875,0.0585938 -0.65625,0.0585938 -0.7851563,0.0585938 H 1.1724688 Z m 0,0"
       style="fill:#000000;fill-opacity:1;fill-rule:nonzero;stroke:none"
       aria-label="2"
       transform="matrix(1.3333333,0,0,1.3333333,55.077333,23.101333)" />
  </g>
</svg>
