<?xml version="1.0" encoding="UTF-8" standalone="no"?>
<!-- Created with Inkscape (http://www.inkscape.org/) -->

<svg
   version="1.1"
   id="svg1"
   width="416.00558"
   height="416.40372"
   viewBox="0 0 416.00559 416.40372"
   xmlns="http://www.w3.org/2000/svg"
   xmlns:svg="http://www.w3.org/2000/svg">
  <defs
     id="defs1" />
  <g
     id="g1"
     transform="translate(-0.39783334,-0.00724373)">
    <path
       id="path1"
       d="M 0,0 H 311.8149 M 0,28.3468 H 311.8149 M 0,56.69362 H 311.8149 M 0,85.04042 H 311.8149 M 0,113.38724 H 311.8149 M 0,141.73404 H 311.8149 M 0,170.08086 H 311.8149 M 0,198.42766 H 311.8149 M 0,226.77448 H 311.8149 M 0,255.12128 H 311.8149 M 0,283.4681 H 311.8149 M 0,311.80495 H 311.8149 M 0,0 V 311.8149 M 28.3468,0 V 311.8149 M 56.69362,0 V 311.8149 M 85.04042,0 V 311.8149 M 113.38724,0 V 311.8149 M 141.73404,0 V 311.8149 M 170.08086,0 V 311.8149 M 198.42766,0 V 311.8149 M 226.77448,0 V 311.8149 M 255.12128,0 V 311.8149 M 283.4681,0 V 311.8149 M 311.80495,0 v 311.8149"
       style="fill:none;stroke:#808080;stroke-width:0.19925;stroke-linecap:butt;stroke-linejoin:miter;stroke-miterlimit:10;stroke-dasharray:none;stroke-opacity:1"
       transform="matrix(1.3333333,0,0,-1.3333333,0.53066667,415.88)" />
    <path
       id="path2"
       d="m 0,0 c 0,0 1.25378,0.04703 1.73532,0.10596 0.48155,0.05891 1.2538,0.20085 1.73534,0.31877 0.48155,0.11793 1.25381,0.35431 1.73535,0.53116 0.48155,0.17686 1.2538,0.50769 1.73534,0.74353 0.48155,0.23585 1.25381,0.66156 1.73535,0.95634 0.48155,0.29479 1.2538,0.81458 1.73533,1.16829 0.48156,0.35371 1.2538,0.9684 1.73534,1.3811 0.48155,0.41271 1.25381,1.12177 1.73535,1.59346 0.48155,0.47171 1.2538,1.27564 1.73534,1.80628 0.48155,0.53064 1.25381,1.42866 1.73535,2.01823 0.48155,0.58956 1.2538,1.58246 1.73534,2.23102 0.48155,0.64858 1.25379,1.73592 1.73533,2.44342 0.48154,0.70751 1.25382,1.8893 1.73535,2.65579 0.48154,0.76648 1.2538,2.04315 1.73534,2.86858 0.48153,0.82542 1.25381,2.19618 1.73535,3.08054 0.48154,0.88436 1.2538,2.35 1.73534,3.29335 0.48154,0.94334 1.2538,2.50343 1.73534,3.5057 0.48153,1.00229 1.25381,2.65683 1.73535,3.71811 0.48153,1.06128 1.25379,2.81064 1.73533,3.93091 0.48154,1.12027 1.25382,2.96413 1.73535,4.14326 0.48154,1.17914 1.2538,3.1171 1.73534,4.35524 0.48153,1.23813 1.2538,3.27132 1.73533,4.56847 0.48154,1.29714 1.25382,3.42435 1.73536,4.78041 0.48154,1.35607 1.2538,3.57822 1.73534,4.99321 0.48153,1.41501 1.25381,3.73122 1.73534,5.20516 0.48154,1.47393 1.2538,3.88507 1.73534,5.41798 0.48154,1.53293 1.2538,4.03842 1.73534,5.63034 0.48153,1.59193 1.25381,4.19225 1.73535,5.84316 0.48153,1.65092 1.2538,4.34574 1.73533,6.05552 0.48154,1.7098 1.25382,4.49877 1.73536,6.26749 0.48154,1.76872 1.2538,4.65251 1.73534,6.48028 0.48153,1.82779 1.25381,4.80639 1.73534,6.69309 0.48154,1.8867 1.2538,4.9594 1.73534,6.90505 0.48154,1.94563 1.2538,5.1132 1.73534,7.11784 0.48153,2.00464 1.25381,5.26666 1.73535,7.33021 0.48153,2.06357 1.2538,5.42011 1.73533,7.54261 0.48154,2.12249 1.25382,5.57347 1.73536,7.75497 0.48154,2.1815 1.2538,5.72729 1.73534,7.96777 0.48153,2.2405 1.2538,5.88074 1.73533,8.18016 0.48154,2.29943 1.25381,6.03418 1.73535,8.39255 0.48154,2.35835 1.2538,6.18761 1.73534,8.60491 0.48153,2.41729 1.25381,6.341 1.73535,8.81728 0.48153,2.47628 1.2538,6.49482 1.73533,9.0301 0.48154,2.53528 1.2538,6.64825 1.73534,9.24246 0.48154,2.59422 1.25382,6.80173 1.73536,9.45486 0.48153,2.65314 1.2538,6.95508 1.73533,9.66722 0.48154,2.71215 1.25381,7.10889 1.73535,9.88004 0.48154,2.77113 1.2538,7.26234 1.73534,10.09241 0.48153,2.83006 1.73533,10.30478 1.73533,10.30478"
       style="fill:none;stroke:#0000ff;stroke-width:0.79701;stroke-linecap:butt;stroke-linejoin:miter;stroke-miterlimit:10;stroke-dasharray:none;stroke-opacity:1"
       transform="matrix(1.3333333,0,0,-1.3333333,0.53066667,415.88)" />
  </g>
</svg>
