<?xml version="1.0" encoding="UTF-8" standalone="no"?>
<!-- Created with Inkscape (http://www.inkscape.org/) -->

<svg
   version="1.1"
   id="svg1"
   width="416.00558"
   height="1020.725"
   viewBox="0 0 416.00559 1020.7251"
   xmlns="http://www.w3.org/2000/svg"
   xmlns:svg="http://www.w3.org/2000/svg">
  <defs
     id="defs1" />
  <g
     id="g1"
     transform="translate(-0.39783334,-0.49839846)">
    <path
       id="path1"
       d="M 0,0 H 311.8149 M 0,28.3468 H 311.8149 M 0,56.69362 H 311.8149 M 0,85.04042 H 311.8149 M 0,113.38724 H 311.8149 M 0,141.73404 H 311.8149 M 0,170.08086 H 311.8149 M 0,198.42766 H 311.8149 M 0,226.77448 H 311.8149 M 0,255.12128 H 311.8149 M 0,283.4681 H 311.8149 M 0,311.80495 H 311.8149 M 0,0 V 311.8149 M 28.3468,0 V 311.8149 M 56.69362,0 V 311.8149 M 85.04042,0 V 311.8149 M 113.38724,0 V 311.8149 M 141.73404,0 V 311.8149 M 170.08086,0 V 311.8149 M 198.42766,0 V 311.8149 M 226.77448,0 V 311.8149 M 255.12128,0 V 311.8149 M 283.4681,0 V 311.8149 M 311.80495,0 v 311.8149"
       style="fill:none;stroke:#808080;stroke-width:0.19925;stroke-linecap:butt;stroke-linejoin:miter;stroke-miterlimit:10;stroke-dasharray:none;stroke-opacity:1"
       transform="matrix(1.3333333,0,0,-1.3333333,0.53066667,1020.692)" />
    <path
       id="path2"
       d="m 0,0 c 0,0 1.25378,-0.00113 1.73532,0.00604 0.48155,0.00719 1.2538,0.0224 1.73534,0.04586 0.48155,0.02345 1.25381,0.07275 1.73535,0.12327 0.48155,0.05051 1.2538,0.15247 1.73534,0.24092 0.48155,0.08844 1.25381,0.25951 1.73535,0.39662 0.48155,0.13713 1.2538,0.39509 1.73533,0.59174 0.48156,0.19664 1.2538,0.55865 1.73534,0.8257 0.48155,0.26706 1.25381,0.75076 1.73535,1.09907 0.48155,0.34832 1.2538,0.97101 1.73534,1.41138 0.48155,0.44038 1.25381,1.21935 1.73535,1.76259 0.48155,0.54324 1.2538,1.49583 1.73534,2.15275 0.48155,0.65691 1.25379,1.80045 1.73533,2.58181 0.48154,0.78137 1.25382,2.13307 1.73535,3.04983 0.48154,0.91678 1.2538,2.49466 1.73534,3.55762 0.48153,1.06296 1.25381,2.88354 1.73535,4.1035 0.48154,1.21996 1.2538,3.30133 1.73534,4.68915 0.48154,1.3878 1.2538,3.74681 1.73534,5.31328 0.48153,1.56648 1.25381,4.22082 1.73535,5.9768 0.48153,1.756 1.25379,4.72293 1.73533,6.67927 0.48154,1.95632 1.25382,5.25323 1.73535,7.42062 0.48154,2.16738 1.2538,5.81109 1.73534,8.20048 0.48153,2.38939 1.2538,6.39835 1.73533,9.02059 0.48154,2.62222 1.25382,7.01283 1.73536,9.87872 0.48154,2.86589 1.2538,7.6564 1.73534,10.7767 0.48153,3.1203 1.25381,8.32677 1.73534,11.71225 0.48154,3.3855 1.2538,9.0264 1.73534,12.68808 0.48154,3.66168 1.2538,9.75408 1.73534,13.70281 0.48153,3.94873 1.25381,10.51039 1.73535,14.75689 0.48153,4.24651 1.2538,11.29407 1.73533,15.84905 0.48154,4.55499 1.25382,12.10577 1.73536,16.98016 0.48154,4.87438 1.2538,12.94621 1.73534,18.15102 0.48153,5.2048 1.25381,13.81583 1.73534,19.36169 0.48154,5.54589 1.2538,14.71141 1.73534,20.60915 0.48154,5.89772 1.2538,15.63713 1.73534,21.89766 0.48153,6.26053 1.25381,16.5898 1.73535,23.22383 0.48153,6.63403 1.2538,17.57141 1.73533,24.58978 0.48154,7.01837 1.25382,18.58012 1.73536,25.99382 0.48154,7.41368 1.2538,19.61905 1.73534,27.43889 0.48153,7.81985 1.2538,20.68457 1.73533,28.92122 0.48154,8.23666 1.25381,21.77858 1.73535,30.44289 0.48154,8.6643 1.2538,22.90072 1.73534,32.00349 0.48153,9.10278 1.25381,24.0508 1.73535,33.60303 0.48153,9.55221 1.2538,25.23022 1.73533,35.24275 0.48154,10.01253 1.2538,26.43707 1.73534,36.92058 0.48154,10.4835 1.25382,27.67201 1.73536,38.63731 0.48153,10.96532 1.2538,28.93498 1.73533,40.39301 0.48154,11.458 1.25381,30.22679 1.73535,42.18844 0.48154,11.96167 1.2538,31.54689 1.73534,44.02286 0.48153,12.47598 1.73533,45.89531 1.73533,45.89531"
       style="fill:none;stroke:#0000ff;stroke-width:0.79701;stroke-linecap:butt;stroke-linejoin:miter;stroke-miterlimit:10;stroke-dasharray:none;stroke-opacity:1"
       transform="matrix(1.3333333,0,0,-1.3333333,0.53066667,1020.692)" />
  </g>
</svg>
