<?xml version="1.0" encoding="UTF-8" standalone="no"?>
<!-- Created with Inkscape (http://www.inkscape.org/) -->

<svg
   version="1.1"
   id="svg1"
   width="152.24211"
   height="152.23814"
   viewBox="0 0 152.24212 152.23815"
   xmlns="http://www.w3.org/2000/svg"
   xmlns:svg="http://www.w3.org/2000/svg">
  <defs
     id="defs1" />
  <g
     id="g1"
     transform="translate(-0.00205686,-0.02363953)">
    <path
       id="path1"
       d="m 56.69362,0 c 0,0 -0.01421,3.87973 -0.03029,5.36087 -0.01608,1.48113 -0.05409,3.85281 -0.08565,5.31415 -0.03155,1.46133 -0.09506,3.78993 -0.14186,5.21814 -0.04682,1.42821 -0.13336,3.69294 -0.19551,5.07541 -0.06216,1.38246 -0.17448,3.5644 -0.25261,4.88855 -0.07811,1.32412 -0.21669,3.40104 -0.31055,4.65496 -0.09387,1.25392 -0.25708,3.20982 -0.36593,4.38247 -0.10886,1.17266 -0.29472,2.98848 -0.4187,4.06933 -0.124,1.08084 -0.33583,2.7415 -0.47493,3.72069 -0.1391,0.97917 -0.3736,2.46797 -0.52769,3.33659 -0.1541,0.86864 -0.41383,2.17307 -0.58306,2.92395 -0.16924,0.75089 -0.45294,1.86202 -0.6367,2.48796 -0.18377,0.62595 -0.48958,1.52796 -0.68775,2.02341 -0.19815,0.49547 -0.52817,1.1872 -0.74049,1.54762 -0.21233,0.36045 -0.56345,0.82818 -0.78983,1.0502 -0.22636,0.22205 -0.60119,0.468 -0.84172,0.55019 -0.24052,0.08221 -0.63779,0.10109 -0.89187,0.04241 -0.25409,-0.05869 -0.6722,-0.26656 -0.93949,-0.46543 -0.2673,-0.19887 -0.70679,-0.63038 -0.98704,-0.96801 -0.28028,-0.33764 -0.73993,-0.9923 -1.0329,-1.46544 C 45.46606,53.27487 44.986,52.40778 44.6803,51.80333 44.3746,51.19888 43.87387,50.12198 43.5557,49.3915 43.23752,48.66101 42.71681,47.38815 42.38698,46.53848 42.05716,45.68881 41.51959,44.22903 41.17847,43.26762 40.83736,42.3062 40.2807,40.67361 39.92844,39.60922 39.57616,38.54482 39.0029,36.75415 38.63947,35.59613 38.27603,34.4381 37.68309,32.50417 37.30898,31.26297 36.93486,30.02177 36.32712,27.96361 35.94304,26.65039 35.55896,25.33716 34.93456,23.17175 34.54074,21.79817 34.14694,20.42458 33.50789,18.17192 33.10472,16.75044 32.70155,15.32896 32.047,13.00972 31.63495,11.55307 31.2229,10.09642 30.55547,7.7306 30.1349,6.25188 29.71434,4.77315 29.03256,2.38272 28.60371,0.89534 28.17487,-0.59203 27.48041,-2.98503 27.04399,-4.4681 26.60757,-5.95116 25.90192,-8.32799 25.4583,-9.79352 c -0.4436,-1.46553 -1.16106,-3.80248 -1.61164,-5.23715 -0.45056,-1.43469 -1.17878,-3.7121 -1.63584,-5.1031 -0.45707,-1.391 -1.19541,-3.58757 -1.65836,-4.92228 -0.46295,-1.3347 -1.20992,-3.43072 -1.67826,-4.69737 -0.46833,-1.26663 -1.224,-3.24484 -1.69726,-4.43178 -0.47327,-1.18693 -1.23602,-3.02626 -1.71373,-4.12294 -0.47771,-1.09669 -1.2475,-2.78442 -1.72928,-3.78125 -0.48178,-0.99682 -1.25775,-2.51548 -1.74313,-3.40321 -0.48538,-0.88771 -1.26674,-2.22407 -1.75523,-2.99489 -0.48851,-0.77083 -1.2746,-1.91345 -1.76563,-2.56062 -0.49103,-0.64719 -1.28021,-1.5862 -1.77341,-2.10387 -0.49318,-0.51767 -1.28643,-1.24409 -1.78119,-1.62721 -0.49474,-0.38313 -1.28883,-0.88855 -1.78465,-1.13412 -0.49583,-0.24558 -1.29268,-0.5302 -1.78897,-0.63582 -0.49631,-0.10562 -1.29181,-0.16074 -1.78809,-0.12545 -0.4963,0.03528 -1.29267,0.20418 -1.78897,0.37978 -0.49629,0.1756 -1.29276,0.57101 -1.78811,0.88583 -0.49535,0.31482 -1.28815,0.93256 -1.78206,1.38326 -0.49391,0.4507 -1.28563,1.28226 -1.77773,1.8651 -0.49211,0.58285 -1.27926,1.62587 -1.76909,2.33571 -0.48982,0.70983 -1.27421,1.95013 -1.76129,2.78034 -0.48706,0.83024 -1.26548,2.26009 -1.74918,3.20339 -0.4837,0.9433 -1.2572,2.54742 -1.73707,3.59526 -0.47986,1.04785 -1.24596,2.8136 -1.7215,3.95685 -0.47555,1.14325 -1.23507,3.05499 -1.70593,4.28299 -0.47087,1.22799 -1.2222,3.26567 -1.68777,4.56761 -0.46558,1.30192 -1.2078,3.45152 -1.66786,4.81587 -0.46006,1.36435 -1.19414,3.60317 -1.64797,5.01744 -0.45383,1.41429 -1.1758,3.72402 -1.62288,5.17575 -0.4471,1.45172 -1.15928,3.81125 -1.59953,5.28736 -0.44025,1.47609 -1.14087,3.86433 -1.57356,5.35134 -0.4327,1.48702 -1.12015,3.8813 -1.54505,5.36605 -0.42489,1.48472 -1.10084,3.86566 -1.51733,5.33491 -0.41649,1.46926 -1.077,3.81368 -1.48448,5.25447 -0.40749,1.44082 -1.0541,3.73075 -1.45246,5.1299 -0.39836,1.39916 -1.02972,3.60939 -1.41873,4.9543 -0.38899,1.3449 -1.00583,3.46012 -1.38498,4.73888 -0.37916,1.27876 -0.97908,3.27678 -1.34778,4.47763 -0.36871,1.20086 -0.95181,3.06494 -1.30973,4.17746 -0.35791,1.11253 -0.92316,2.82683 -1.26993,3.84094 -0.34676,1.0141 -0.89369,2.5614 -1.22926,3.46808 -0.3356,0.90668 -0.86532,2.27573 -1.18949,3.0667 -0.32419,0.79097 -0.83504,1.96621 -1.14709,2.63415 -0.31208,0.66794 -0.80277,1.64047 -1.1021,2.17999 -0.29935,0.53952 -0.76891,1.30249 -1.05541,1.70854 -0.28649,0.40604 -0.73565,0.94929 -1.00955,1.21802 -0.27388,0.26876 -0.70361,0.58986 -0.96454,0.71888 -0.26092,0.12902 -0.66876,0.22271 -0.91612,0.21109 -0.24736,-0.01165 -0.63348,-0.14269 -0.86682,-0.295 -0.23334,-0.15232 -0.59561,-0.5109 -0.8149,-0.8028 -0.21928,-0.29189 -0.56034,-0.87282 -0.76559,-1.30107 -0.20523,-0.42825 -0.52274,-1.2244 -0.71369,-1.78552 -0.19094,-0.56111 -0.48585,-1.56975 -0.66265,-2.2587 -0.17679,-0.68896 -0.44992,-1.89604 -0.61161,-2.70682 -0.16166,-0.81079 -0.40721,-2.21174 -0.55363,-3.13678 -0.14642,-0.92505 -0.37009,-2.49946 -0.50175,-3.53038 -0.13167,-1.0309 -0.33071,-2.77162 -0.44726,-3.89975 -0.11653,-1.12814 -0.2912,-3.01655 -0.39274,-4.23109 -0.10153,-1.21456 -0.25328,-3.23235 -0.3391,-4.52263 -0.08581,-1.29028 -0.20944,-3.4222 -0.27942,-4.77695 -0.06997,-1.35473 -0.17031,-3.58008 -0.22493,-4.98715 -0.05461,-1.40709 -0.12956,-3.70767 -0.16868,-5.15413 -0.03911,-1.44646 -0.08957,-3.79805 -0.11333,-5.2709 -0.02376,-1.47286 -0.04993,-3.85839 -0.05795,-5.34444 -0.008,-1.48605 -0.008,-3.88011 0,-5.36604 0.008,-1.48594 0.03419,-3.87071 0.05795,-5.34357 0.02376,-1.47285 0.07422,-3.82532 0.11333,-5.27177 0.03912,-1.44646 0.11419,-3.74643 0.16868,-5.15326 0.05449,-1.40684 0.15397,-3.63156 0.22406,-4.9863 0.0701,-1.35474 0.19521,-3.48717 0.28115,-4.77782 0.08593,-1.29065 0.23683,-3.30967 0.33824,-4.52435 0.10142,-1.21466 0.27621,-3.1022 0.39274,-4.23022 0.11655,-1.12801 0.31559,-2.86861 0.44726,-3.89975 0.13166,-1.03116 0.35533,-2.60695 0.50175,-3.53211 0.14642,-0.92517 0.39209,-2.32524 0.55363,-3.13589 0.16156,-0.81067 0.43407,-2.01775 0.61076,-2.70682 0.17666,-0.68909 0.47157,-1.69811 0.66264,-2.25958 0.19108,-0.5615 0.50932,-1.35888 0.71455,-1.78725 0.20525,-0.42838 0.54556,-1.00832 0.76472,-1.30022 0.21917,-0.29188 0.58147,-0.65109 0.81492,-0.80365 0.23342,-0.15255 0.62031,-0.28399 0.86767,-0.29587 0.24736,-0.01187 0.65445,0.08119 0.91525,0.21023 0.26081,0.12901 0.69078,0.45098 0.96456,0.71974 0.27377,0.26873 0.7223,0.81147 1.00868,1.21716 0.28636,0.40567 0.75592,1.1674 1.05539,1.7068 0.29947,0.53939 0.79089,1.51291 1.10297,2.18085 0.31207,0.66795 0.82217,1.84244 1.14622,2.63329 0.32407,0.79086 0.8539,2.16024 1.18948,3.06669 0.33559,0.90645 0.88253,2.4525 1.22928,3.46636 0.34676,1.01387 0.91202,2.7283 1.26993,3.84095 0.35791,1.11264 0.941,2.97745 1.30972,4.1783 0.36873,1.20087 0.96865,3.19812 1.3478,4.47678 0.37915,1.27865 0.99597,3.3941 1.38498,4.73887 0.389,1.34479 1.02023,3.5544 1.41871,4.95343 0.3985,1.39905 1.04573,3.68911 1.45334,5.12992 0.40763,1.44081 1.0681,3.78522 1.48447,5.25447 0.41637,1.46925 1.0916,3.85019 1.51648,5.33491 0.42489,1.48474 1.1132,3.87902 1.5459,5.36603 0.43269,1.48701 1.13256,3.87528 1.5727,5.35138 0.44013,1.47609 1.1523,3.8356 1.59952,5.28734 0.44721,1.45172 1.17005,3.76146 1.62375,5.17575 0.45371,1.41429 1.18631,3.65308 1.64624,5.01743 0.45993,1.36435 1.20303,3.51384 1.66873,4.81588 0.4657,1.30205 1.21689,3.34035 1.68776,4.56847 0.47087,1.22812 1.23027,3.13974 1.70594,4.28299 0.47567,1.14325 1.2425,2.90901 1.72236,3.95687 0.47988,1.04783 1.25263,2.65171 1.73621,3.59524 0.48359,0.94352 1.26223,2.37465 1.74919,3.20511 0.48695,0.83047 1.27074,2.07051 1.76044,2.78035 0.4897,0.70985 1.27684,1.75262 1.76905,2.3357 0.49224,0.5831 1.28458,1.41604 1.77861,1.86684 0.49404,0.45082 1.28672,1.06758 1.78205,1.3824 0.49534,0.31482 1.29182,0.71086 1.78811,0.88669 0.49631,0.17584 1.29268,0.34525 1.78898,0.38065 0.49629,0.03541 1.2919,-0.02007 1.78808,-0.12545 0.4962,-0.10537 1.29218,-0.38876 1.78812,-0.63409 0.49595,-0.24533 1.29152,-0.75089 1.78639,-1.13413 0.49487,-0.38324 1.28726,-1.11051 1.78032,-1.62806 0.49306,-0.51757 1.2825,-1.4552 1.77341,-2.10213 0.49088,-0.64694 1.27626,-1.78993 1.76475,-2.56062 0.48851,-0.77071 1.2706,-2.10631 1.7561,-2.99404 0.48551,-0.88772 1.26122,-2.40724 1.74313,-3.40406 0.4819,-0.99683 1.25245,-2.68383 1.73016,-3.78039 0.4777,-1.09657 1.2397,-2.93612 1.71284,-4.12297 0.47315,-1.18682 1.22894,-3.16439 1.69728,-4.43092 0.46836,-1.26651 1.2153,-3.36276 1.67824,-4.69734 0.46295,-1.33458 1.20142,-3.53055 1.65836,-4.92143 0.45694,-1.39087 1.18454,-3.66838 1.63499,-5.10308 0.45044,-1.43469 1.16803,-3.77176 1.61163,-5.23717 0.4436,-1.4654 1.14916,-3.84147 1.5857,-5.32453 0.43654,-1.48307 1.13163,-3.87683 1.5606,-5.36431 0.42896,-1.4875 1.1105,-3.87782 1.53118,-5.35656 0.42067,-1.47873 1.08885,-3.84441 1.5009,-5.30118 0.41205,-1.45679 1.06573,-3.77677 1.4689,-5.19824 0.40317,-1.42148 1.04322,-3.67328 1.43689,-5.04686 0.39369,-1.3736 1.01648,-3.53974 1.40056,-4.85308 0.38408,-1.31332 0.99344,-3.37138 1.36767,-4.61258 0.37426,-1.24119 0.96633,-3.17514 1.32964,-4.33317 0.36331,-1.15802 0.93668,-2.94858 1.28896,-4.01309 0.35228,-1.06452 0.9088,-2.69762 1.25004,-3.65928 0.34123,-0.96163 0.87955,-2.4219 1.20938,-3.27169 0.32982,-0.8498 0.84968,-2.12255 1.16785,-2.85305 0.31818,-0.73048 0.81964,-1.80725 1.12546,-2.41182 0.30581,-0.60456 0.78578,-1.47229 1.07875,-1.94555 0.29297,-0.47327 0.75262,-1.12767 1.0329,-1.46543 0.28025,-0.33776 0.71977,-0.76978 0.98706,-0.9689 0.2673,-0.19911 0.68538,-0.40735 0.93946,-0.46628 0.2541,-0.05893 0.65148,-0.04055 0.8919,0.04154 0.2404,0.08209 0.61448,0.32826 0.84086,0.55018 0.22637,0.22193 0.57834,0.68901 0.79067,1.04934 0.21232,0.36032 0.54147,1.05215 0.73964,1.54762 0.19815,0.49547 0.50461,1.3976 0.6886,2.02341 0.18399,0.62582 0.46821,1.73632 0.63757,2.48709 0.16936,0.75077 0.42908,2.05534 0.58306,2.92396 0.15398,0.86864 0.38784,2.35755 0.52682,3.3366 0.13898,0.97905 0.35081,2.63923 0.47493,3.71983 0.1241,1.0806 0.31059,2.8959 0.41957,4.06845 0.10898,1.17253 0.27218,3.12856 0.36593,4.38248 0.09374,1.25392 0.23157,3.33084 0.3097,4.65497 0.07812,1.32413 0.19105,3.50621 0.25346,4.88854 0.06239,1.38234 0.14969,3.64646 0.19637,5.07453 0.04669,1.42807 0.1087,3.7568 0.14013,5.21814 0.03144,1.46133 0.07044,3.83304 0.08652,5.31418 0.01608,1.48112 0.02942,5.36087 0.02942,5.36087"
       style="fill:none;stroke:#0000ff;stroke-width:0.79701;stroke-linecap:butt;stroke-linejoin:miter;stroke-miterlimit:10;stroke-dasharray:none;stroke-opacity:1"
       transform="matrix(1.3333333,0,0,-1.3333333,76.121333,76.142667)" />
  </g>
</svg>
