<?xml version="1.0" encoding="UTF-8" standalone="no"?>
<!-- Created with Inkscape (http://www.inkscape.org/) -->

<svg
   version="1.1"
   id="svg1"
   width="416.00558"
   height="3779.7363"
   viewBox="0 0 416.00559 3779.7363"
   xmlns="http://www.w3.org/2000/svg"
   xmlns:svg="http://www.w3.org/2000/svg">
  <defs
     id="defs1" />
  <g
     id="g1"
     transform="translate(-0.39783334,-0.45485847)">
    <path
       id="path1"
       d="M 0,0 H 311.8149 M 0,28.3468 H 311.8149 M 0,56.69362 H 311.8149 M 0,85.04042 H 311.8149 M 0,113.38724 H 311.8149 M 0,141.73404 H 311.8149 M 0,170.08086 H 311.8149 M 0,198.42766 H 311.8149 M 0,226.77448 H 311.8149 M 0,255.12128 H 311.8149 M 0,283.4681 H 311.8149 M 0,311.80495 H 311.8149 M 0,0 V 311.8149 M 28.3468,0 V 311.8149 M 56.69362,0 V 311.8149 M 85.04042,0 V 311.8149 M 113.38724,0 V 311.8149 M 141.73404,0 V 311.8149 M 170.08086,0 V 311.8149 M 198.42766,0 V 311.8149 M 226.77448,0 V 311.8149 M 255.12128,0 V 311.8149 M 283.4681,0 V 311.8149 M 311.80495,0 v 311.8149"
       style="fill:none;stroke:#808080;stroke-width:0.19925;stroke-linecap:butt;stroke-linejoin:miter;stroke-miterlimit:10;stroke-dasharray:none;stroke-opacity:1"
       transform="matrix(1.3333333,0,0,-1.3333333,0.53066667,3779.664)" />
    <path
       id="path2"
       d="m 0,0 c 0,0 4.1795,0.52528 5.78474,1.18037 1.60524,0.65511 4.17952,2.23087 5.78476,3.5412 1.60524,1.31033 4.17952,3.93733 5.78476,5.90283 1.60524,1.96552 4.17954,5.64254 5.78476,8.26322 1.60524,2.62068 4.17954,7.34903 5.78478,10.62488 1.60524,3.27583 4.17952,9.05418 5.78476,12.9852 1.60524,3.93103 4.17952,10.76069 5.78476,15.34689 1.60524,4.58618 4.17953,12.46594 5.78476,17.70724 1.60524,5.24131 4.17953,14.17194 5.78477,20.06847 1.60524,5.89653 4.17952,15.87798 5.78476,22.42969 1.60524,6.55169 4.17952,17.5836 5.78476,24.79048 1.60524,7.20688 4.17953,19.28966 5.78476,27.1517 1.60524,7.86206 4.17953,20.99529 5.78477,29.5125 1.60524,8.51721 4.17952,22.70135 5.78476,31.87373 1.60524,9.1724 4.17952,24.40695 5.78476,34.23452 1.60524,9.82756 4.17954,26.113 5.78476,36.59574 1.60524,10.48274 4.17954,27.8187 5.78478,38.95653 1.60522,11.13783 4.17952,29.52431 5.78476,41.31732 1.60524,11.79302 4.17952,31.2303 5.78476,43.67856 1.60524,12.44824 4.17953,32.93636 5.78476,46.03978 1.60524,13.10343 4.17953,34.64198 5.78477,48.40056 1.60523,13.75858 4.17952,36.34804 5.78476,50.76179 1.60524,14.41376 4.17952,38.05372 5.78476,53.1226 1.60524,15.06886 4.17952,39.75933 5.78476,55.48338 1.60524,15.72404 4.17953,41.46532 5.78477,57.84459 1.60523,16.37928 4.17952,43.1714 5.78476,60.20583 1.60524,17.03445 4.17952,44.87707 5.78476,62.56663 1.60524,17.68954 4.17952,46.58262 5.78476,64.92741 1.60524,18.34479 4.17954,48.28911 5.78478,67.28906 1.60522,19 4.17952,49.9944 5.78476,69.6494 1.60524,19.6551 4.17952,51.7004 5.78476,72.0107 1.60524,20.3103 4.17952,53.4064 5.78476,74.3719 1.60524,20.9655 4.17953,55.1121 5.78477,76.7327 1.60523,21.6205 4.17952,56.8177 5.78476,79.0934 1.60524,22.2758 4.17952,58.5237 5.78476,81.4547 1.60524,22.931 4.17952,60.2298 5.78476,83.8159 1.60524,23.5861 4.17953,61.935 5.78476,86.1763 1.60524,24.2413 4.17953,63.6414 5.78477,88.5379 1.60524,24.8965 4.17952,65.3471 5.78476,90.8987 1.60524,25.5517 4.17952,67.0528 5.78476,93.2596 1.60524,26.2068 4.17954,68.7587 5.78476,95.6207 1.60524,26.862 4.17954,70.4648 5.78478,97.982 1.60524,27.5172 4.17952,72.1704 5.78476,100.3427 1.60524,28.1723 4.17952,73.8761 5.78476,102.7036 1.60524,28.8275 4.17953,75.5821 5.78476,105.0648 1.60524,29.4826 4.17953,77.2877 5.78477,107.4255 1.60524,30.1378 4.17952,78.9938 5.78476,109.7868 1.60524,30.7931 4.17952,80.6998 5.78476,112.148 1.60524,31.4483 5.78476,114.5089 5.78476,114.5089"
       style="fill:none;stroke:#0000ff;stroke-width:0.79701;stroke-linecap:butt;stroke-linejoin:miter;stroke-miterlimit:10;stroke-dasharray:none;stroke-opacity:1"
       transform="matrix(1.3333333,0,0,-1.3333333,0.53066667,3779.664)" />
  </g>
</svg>
