<?xml version="1.0" encoding="UTF-8" standalone="no"?>
<!-- Created with Inkscape (http://www.inkscape.org/) -->

<svg
   version="1.1"
   id="svg1"
   width="227.29251"
   height="189.49678"
   viewBox="0 0 227.29251 189.49678"
   xmlns="http://www.w3.org/2000/svg"
   xmlns:svg="http://www.w3.org/2000/svg">
  <defs
     id="defs1" />
  <g
     id="g1"
     transform="translate(3.3332701e-4,-0.01155473)">
    <path
       id="path1"
       d="M 0,0 H 170.08086 M 0,28.3468 H 170.08086 M 0,56.69362 H 170.08086 M 0,85.04042 H 170.08086 M 0,113.38724 H 170.08086 M 0,141.72409 H 170.08086 M 0,0 V 141.73404 M 28.3468,0 V 141.73404 M 56.69362,0 V 141.73404 M 85.04042,0 V 141.73404 M 113.38724,0 V 141.73404 M 141.73404,0 V 141.73404 M 170.07089,0 v 141.73404"
       style="fill:none;stroke:#e6e6e6;stroke-width:0.3985;stroke-linecap:butt;stroke-linejoin:miter;stroke-miterlimit:10;stroke-dasharray:none;stroke-opacity:1"
       transform="matrix(1.3333333,0,0,-1.3333333,0.26533333,189.24267)" />
    <path
       id="path2"
       d="m 2.8246797,-6.2226016 c 0,-0.1992187 -0.1289063,-0.3632812 -0.3632813,-0.3632812 -0.2695312,0 -0.5390625,0.2578125 -0.5390625,0.5273437 0,0.1875 0.140625,0.3632813 0.375,0.3632813 0.234375,0 0.5273438,-0.234375 0.5273438,-0.5273438 z m -0.75,3.7382813 c 0.1171875,-0.28125 0.1171875,-0.3046875 0.2226562,-0.5742188 0.070312,-0.1992187 0.1289063,-0.3398437 0.1289063,-0.5273437 0,-0.4453125 -0.328125,-0.8203125 -0.8203125,-0.8203125 -0.93750001,0 -1.31250001,1.453125 -1.31250001,1.5351562 0,0.1054688 0.09375,0.1054688 0.1171875,0.1054688 0.09375,0 0.10546875,-0.023437 0.15234375,-0.1875 0.26953125,-0.9375 0.66796876,-1.2304688 1.00781246,-1.2304688 0.082031,0 0.2578125,0 0.2578125,0.3164063 0,0.2109375 -0.070312,0.421875 -0.1171875,0.515625 -0.082031,0.2578125 -0.5273437,1.4179687 -0.6796875,1.8515625 -0.10546871,0.2578125 -0.23437496,0.58593749 -0.23437496,0.79687499 0,0.46875 0.33984376,0.80859375 0.82031246,0.80859375 0.9375,0 1.3007813,-1.44140624 1.3007813,-1.53515624 0,-0.09375 -0.09375,-0.09375 -0.1171875,-0.09375 -0.1054688,0 -0.1054688,0.023437 -0.1523438,0.1757812 -0.1757812,0.63281254 -0.5039062,1.24218754 -1.0195312,1.24218754 -0.1640625,0 -0.234375,-0.10546875 -0.234375,-0.328125 0,-0.2578125 0.058594,-0.3984375 0.2929687,-0.99609374 z m 0,0"
       style="fill:#000000;fill-opacity:1;fill-rule:nonzero;stroke:none"
       aria-label="i"
       transform="matrix(1.3333333,0,0,1.3333333,111.36267,42.441333)" />
    <path
       id="path3"
       d="m 2.8592734,-6.8096484 c 0,0 0,-0.1054688 -0.1289062,-0.1054688 -0.234375,0 -0.9609375,0.082031 -1.21875,0.1054688 -0.082031,0 -0.1875,0.011719 -0.1875,0.1992187 0,0.1171875 0.09375,0.1171875 0.234375,0.1171875 0.4804687,0 0.5039062,0.070312 0.5039062,0.1640625 l -0.035156,0.1992188 -1.44140626,5.74218746 c -0.0351563,0.140625 -0.0351563,0.15234375 -0.0351563,0.22265625 0,0.22265625 0.19921875,0.26953125 0.28125,0.26953125 0.12890625,0 0.28124996,-0.08203125 0.33984376,-0.2109375 0.058594,-0.0820313 0.5039063,-1.92187496 0.5625,-2.17968746 0.3398438,0.035156 1.1601563,0.1875 1.1601563,0.8554687 0,0.070312 0,0.1054688 -0.035156,0.1992188 -0.023437,0.1289062 -0.035156,0.24609371 -0.035156,0.35156246 0,0.5859375 0.3984375,0.984375 0.9140625,0.984375 0.2929687,0 0.5625,-0.15234375 0.7851562,-0.52734375 0.2460938,-0.43359375 0.3632813,-0.98437501 0.3632813,-1.00781251 0,-0.09375 -0.09375,-0.09375 -0.1289063,-0.09375 -0.09375,0 -0.1054687,0.035156 -0.140625,0.1757813 -0.1992187,0.72656246 -0.421875,1.24218746 -0.8671875,1.24218746 -0.1875,0 -0.3164061,-0.1171875 -0.3164061,-0.46875 0,-0.17578125 0.046875,-0.3984375 0.082031,-0.56249996 0.035156,-0.1640625 0.035156,-0.2109375 0.035156,-0.3046875 0,-0.65625 -0.6210938,-0.9375 -1.4648438,-1.0546875 0.3046875,-0.1757813 0.6210938,-0.4921875 0.8554688,-0.7265625 0.4804687,-0.5273438 0.9375,-0.9609375 1.4179686,-0.9609375 0.058594,0 0.070312,0 0.09375,0.011719 0.1171875,0.023437 0.1289063,0.023437 0.2109375,0.082031 0.023437,0 0.023437,0.011719 0.035156,0.035156 -0.4804688,0.035156 -0.5625,0.421875 -0.5625,0.5390625 0,0.1640625 0.1054687,0.3515625 0.375,0.3515625 0.2578125,0 0.5507812,-0.2226562 0.5507812,-0.609375 0,-0.3046875 -0.234375,-0.6328125 -0.6796875,-0.6328125 -0.28125,0 -0.7382811,0.082031 -1.4531249,0.8789063 -0.3398437,0.375 -0.7265625,0.7734375 -1.1015625,0.9257812 z m 0,0"
       style="fill:#000000;fill-opacity:1;fill-rule:nonzero;stroke:none"
       aria-label="k"
       transform="matrix(1.3333333,0,0,1.3333333,34.394667,156.06)" />
    <path
       id="path4"
       d="m 3.9479688,-6.2232891 c 0,-0.1875 -0.1289063,-0.3632812 -0.375,-0.3632812 -0.2226563,0 -0.5273438,0.234375 -0.5273438,0.5273437 0,0.1992188 0.140625,0.3632813 0.375,0.3632813 0.2695313,0 0.5273438,-0.2578125 0.5273438,-0.5273438 z M 1.9557813,0.50327344 C 1.7565625,1.2532734 1.2878125,1.8274922 0.7253125,1.8274922 c -0.0585938,0 -0.2109375,0 -0.38671875,-0.09375 0.29296875,-0.070312 0.4453125,-0.328125 0.4453125,-0.5273438 0,-0.1640625 -0.10546875,-0.35156246 -0.375,-0.35156246 -0.24609375,0 -0.5390625,0.21093746 -0.5390625,0.57421876 0,0.3984375 0.3984375,0.609375 0.87890625,0.609375 0.6914063,0 1.6171875,-0.5273438 1.875,-1.51171876 L 3.5378125,-3.1178203 c 0.046875,-0.1992188 0.046875,-0.3398438 0.046875,-0.375 0,-0.5625 -0.421875,-0.9140625 -0.9140625,-0.9140625 -1.0195312,0 -1.5820312,1.453125 -1.5820312,1.5351562 0,0.1054688 0.09375,0.1054688 0.1171875,0.1054688 0.09375,0 0.09375,-0.011719 0.1757812,-0.1992188 0.2460938,-0.609375 0.7148438,-1.21875 1.2539063,-1.21875 0.140625,0 0.3164062,0.035156 0.3164062,0.4570313 0,0.234375 -0.023437,0.3398437 -0.058594,0.5039062 z m 0,0"
       style="fill:#000000;fill-opacity:1;fill-rule:nonzero;stroke:none"
       aria-label="j"
       transform="matrix(1.3333333,0,0,1.3333333,186.12667,154.536)" />
    <path
       id="path5"
       d="M 90.7097,107.71794 135.56354,34.83057"
       style="fill:none;stroke:#000000;stroke-width:1.19553;stroke-linecap:butt;stroke-linejoin:miter;stroke-miterlimit:10;stroke-dasharray:none;stroke-opacity:1"
       transform="matrix(1.3333333,0,0,-1.3333333,0.26533333,189.24267)" />
    <path
       id="path6"
       d="M -1.91284,2.55046 C -1.75343,1.59402 0,0.15938 0.4782,0 0,-0.15938 -1.75343,-1.59402 -1.91284,-2.55046"
       style="fill:none;stroke:#000000;stroke-width:0.9564;stroke-linecap:round;stroke-linejoin:round;stroke-miterlimit:10;stroke-dasharray:none;stroke-opacity:1"
       transform="matrix(0.69874667,1.13548,1.13548,-0.69874667,181.01669,142.80191)" />
    <path
       id="path7"
       d="M 136.06476,28.3468 H 34.97249"
       style="fill:none;stroke:#000000;stroke-width:1.19553;stroke-linecap:butt;stroke-linejoin:miter;stroke-miterlimit:10;stroke-dasharray:none;stroke-opacity:1"
       transform="matrix(1.3333333,0,0,-1.3333333,0.26533333,189.24267)" />
    <path
       id="path8"
       d="M -1.91284,2.55046 C -1.75343,1.59402 0,0.15938 0.4782,0 0,-0.15938 -1.75343,-1.59402 -1.91284,-2.55046"
       style="fill:none;stroke:#000000;stroke-width:0.9564;stroke-linecap:round;stroke-linejoin:round;stroke-miterlimit:10;stroke-dasharray:none;stroke-opacity:1"
       transform="matrix(-1.3333333,0,0,1.3333333,46.89532,151.44693)" />
    <path
       id="path9"
       d="m 34.01608,34.01608 44.85384,72.88738"
       style="fill:none;stroke:#000000;stroke-width:1.19553;stroke-linecap:butt;stroke-linejoin:miter;stroke-miterlimit:10;stroke-dasharray:none;stroke-opacity:1"
       transform="matrix(1.3333333,0,0,-1.3333333,0.26533333,189.24267)" />
    <path
       id="path10"
       d="M -1.91284,2.55046 C -1.75343,1.59402 0,0.15938 0.4782,0 0,-0.15938 -1.75343,-1.59402 -1.91284,-2.55046"
       style="fill:none;stroke:#000000;stroke-width:0.9564;stroke-linecap:round;stroke-linejoin:round;stroke-miterlimit:10;stroke-dasharray:none;stroke-opacity:1"
       transform="matrix(0.69874667,-1.13548,-1.13548,-0.69874667,105.4252,46.70472)" />
  </g>
</svg>
