<?xml version="1.0" encoding="UTF-8" standalone="no"?>
<!-- Created with Inkscape (http://www.inkscape.org/) -->

<svg
   version="1.1"
   id="svg1"
   width="416.00558"
   height="416.00558"
   viewBox="0 0 416.00559 416.00559"
   xmlns="http://www.w3.org/2000/svg"
   xmlns:svg="http://www.w3.org/2000/svg">
  <defs
     id="defs1" />
  <g
     id="g1"
     transform="translate(-0.39783334,-0.00724373)">
    <path
       id="path1"
       d="M 0,0 H 311.8149 M 0,28.3468 H 311.8149 M 0,56.69362 H 311.8149 M 0,85.04042 H 311.8149 M 0,113.38724 H 311.8149 M 0,141.73404 H 311.8149 M 0,170.08086 H 311.8149 M 0,198.42766 H 311.8149 M 0,226.77448 H 311.8149 M 0,255.12128 H 311.8149 M 0,283.4681 H 311.8149 M 0,311.80495 H 311.8149 M 0,0 V 311.8149 M 28.3468,0 V 311.8149 M 56.69362,0 V 311.8149 M 85.04042,0 V 311.8149 M 113.38724,0 V 311.8149 M 141.73404,0 V 311.8149 M 170.08086,0 V 311.8149 M 198.42766,0 V 311.8149 M 226.77448,0 V 311.8149 M 255.12128,0 V 311.8149 M 283.4681,0 V 311.8149 M 311.80495,0 v 311.8149"
       style="fill:none;stroke:#808080;stroke-width:0.19925;stroke-linecap:butt;stroke-linejoin:miter;stroke-miterlimit:10;stroke-dasharray:none;stroke-opacity:1"
       transform="matrix(1.3333333,0,0,-1.3333333,0.53066667,415.88)" />
    <path
       id="path2"
       d="M 0,0 C 0,0 0,0 0,0 0,0 0,0 0,0 0,0 0,0 0,0 0,0 0,0 0,0 0,0 0,0 0,0 0,0 0,0 0,0 0,0 0,0 0,0 0,0 0,0 0,0 0,0 0,0 0,0 0,0 0,0 0,0 0,0 0,0 0,0 0,0 0,0 0,0 0,0 0,0 0,0 0,0 0,0 0,0 0,0 0,0 0,0 0,0 0,0 0,0 0,0 0,0 0,0 0,0 0,0 0,0 0,0 0,0 0,0 0,0 0,0 0,0 0,0 0,0 0,0 0,0 0,0 0,0 0,0 0,0 0,0 0,0 0,0 0,0 0,0 0,0 0,0 0,0 0,0 0,0 0,0 0,0 0,0 0,0 0,0 0,0 0,0 0,0 0,0 0,0 0,0 0,0 0,0 0,0 0,0 0,0 0,0 0,0 0,0 0,0 0,0 0,0 0,0 0,0 0,0 0,0 0,0 0,0 0,0 0,0 0,0 0,0 0,0 0,0 0,0 0,0 0,0 0,0 0,0 0,0 0,0 0,0 0,0 0,0 0,0 0,0 0,0 0,0 0,0 0,0 0,0 0,0 0,0 0,0 0,0 0,0 0,0 0,0 0,0 0,0 0,0 0,0 0,0 0,0 0,0 0,0 0,0 0,0 0,0"
       style="fill:none;stroke:#0000ff;stroke-width:0.79701;stroke-linecap:butt;stroke-linejoin:miter;stroke-miterlimit:10;stroke-dasharray:none;stroke-opacity:1"
       transform="matrix(1.3333333,0,0,-1.3333333,0.53066667,415.88)" />
  </g>
</svg>
