<?xml version="1.0" encoding="UTF-8" standalone="no"?>
<!-- Created with Inkscape (http://www.inkscape.org/) -->

<svg
   version="1.1"
   id="svg1"
   width="133.31021"
   height="275.03336"
   viewBox="0 0 133.31021 275.03336"
   xmlns="http://www.w3.org/2000/svg"
   xmlns:svg="http://www.w3.org/2000/svg">
  <defs
     id="defs1" />
  <g
     id="g1"
     transform="translate(-0.265228,-0.26409262)">
    <path
       id="path1"
       d="m -28.34666,-1.99255 v 3.9851"
       style="fill:none;stroke:#000000;stroke-width:0.3985;stroke-linecap:round;stroke-linejoin:miter;stroke-miterlimit:10;stroke-dasharray:none;stroke-opacity:1"
       transform="matrix(1.3333333,0,0,-1.3333333,66.921333,137.77467)" />
    <path
       id="path2"
       d="m 28.34666,-1.99255 v 3.9851"
       style="fill:none;stroke:#000000;stroke-width:0.3985;stroke-linecap:round;stroke-linejoin:miter;stroke-miterlimit:10;stroke-dasharray:none;stroke-opacity:1"
       transform="matrix(1.3333333,0,0,-1.3333333,66.921333,137.77467)" />
    <path
       id="path3"
       d="m -1.99255,-85.04 h 3.9851"
       style="fill:none;stroke:#000000;stroke-width:0.3985;stroke-linecap:round;stroke-linejoin:miter;stroke-miterlimit:10;stroke-dasharray:none;stroke-opacity:1"
       transform="matrix(1.3333333,0,0,-1.3333333,66.921333,137.77467)" />
    <path
       id="path4"
       d="m -1.99255,-56.69334 h 3.9851"
       style="fill:none;stroke:#000000;stroke-width:0.3985;stroke-linecap:round;stroke-linejoin:miter;stroke-miterlimit:10;stroke-dasharray:none;stroke-opacity:1"
       transform="matrix(1.3333333,0,0,-1.3333333,66.921333,137.77467)" />
    <path
       id="path5"
       d="m -1.99255,-28.34666 h 3.9851"
       style="fill:none;stroke:#000000;stroke-width:0.3985;stroke-linecap:round;stroke-linejoin:miter;stroke-miterlimit:10;stroke-dasharray:none;stroke-opacity:1"
       transform="matrix(1.3333333,0,0,-1.3333333,66.921333,137.77467)" />
    <path
       id="path6"
       d="m -1.99255,28.34666 h 3.9851"
       style="fill:none;stroke:#000000;stroke-width:0.3985;stroke-linecap:round;stroke-linejoin:miter;stroke-miterlimit:10;stroke-dasharray:none;stroke-opacity:1"
       transform="matrix(1.3333333,0,0,-1.3333333,66.921333,137.77467)" />
    <path
       id="path7"
       d="m -1.99255,56.69334 h 3.9851"
       style="fill:none;stroke:#000000;stroke-width:0.3985;stroke-linecap:round;stroke-linejoin:miter;stroke-miterlimit:10;stroke-dasharray:none;stroke-opacity:1"
       transform="matrix(1.3333333,0,0,-1.3333333,66.921333,137.77467)" />
    <path
       id="path8"
       d="m -1.99255,85.04 h 3.9851"
       style="fill:none;stroke:#000000;stroke-width:0.3985;stroke-linecap:round;stroke-linejoin:miter;stroke-miterlimit:10;stroke-dasharray:none;stroke-opacity:1"
       transform="matrix(1.3333333,0,0,-1.3333333,66.921333,137.77467)" />
    <path
       id="path9"
       d="M -49.99208,0 H 49.53236"
       style="fill:none;stroke:#000000;stroke-width:0.3985;stroke-linecap:butt;stroke-linejoin:miter;stroke-miterlimit:10;stroke-dasharray:none;stroke-opacity:1"
       transform="matrix(1.3333333,0,0,-1.3333333,66.921333,137.77467)" />
    <path
       id="path10"
       d="M -1.19551,1.59401 C -1.09587,0.99626 0,0.09961 0.29886,0 0,-0.09961 -1.09587,-0.99626 -1.19551,-1.59401"
       style="fill:none;stroke:#000000;stroke-width:0.31879;stroke-linecap:round;stroke-linejoin:round;stroke-miterlimit:10;stroke-dasharray:none;stroke-opacity:1"
       transform="matrix(1.3333333,0,0,-1.3333333,132.96448,137.77467)" />
    <path
       id="path11"
       d="m 0,-103.14209 v 205.8168"
       style="fill:none;stroke:#000000;stroke-width:0.3985;stroke-linecap:butt;stroke-linejoin:miter;stroke-miterlimit:10;stroke-dasharray:none;stroke-opacity:1"
       transform="matrix(1.3333333,0,0,-1.3333333,66.921333,137.77467)" />
    <path
       id="path12"
       d="M -1.19551,1.59401 C -1.09587,0.99626 0,0.09961 0.29886,0 0,-0.09961 -1.09587,-0.99626 -1.19551,-1.59401"
       style="fill:none;stroke:#000000;stroke-width:0.31879;stroke-linecap:round;stroke-linejoin:round;stroke-miterlimit:10;stroke-dasharray:none;stroke-opacity:1"
       transform="matrix(0,-1.3333333,-1.3333333,0,66.921333,0.87505333)" />
    <path
       id="path13"
       d="m -42.52,-95.67001 c 0,0 6.82681,39.65844 9.4488,50.65635 2.622,10.9979 6.82683,22.85494 9.4488,28.60887 2.62196,5.75394 6.82655,10.60351 9.44851,12.86147 2.62196,2.25797 6.8268,2.90257 9.44879,3.41238 2.622,0.50979 6.82678,-0.24778 9.44878,0.26188 2.62198,0.50969 6.8268,1.15402 9.44877,3.41154 2.622,2.25752 6.82682,7.1059 9.44881,12.85919 2.62201,5.75328 6.82684,17.60956 9.44881,28.60662 2.62196,10.99707 9.4485,50.65263 9.4485,50.65263"
       style="fill:none;stroke:#000000;stroke-width:0.59776;stroke-linecap:butt;stroke-linejoin:miter;stroke-miterlimit:10;stroke-dasharray:none;stroke-opacity:1"
       transform="matrix(1.3333333,0,0,-1.3333333,66.921333,137.77467)" />
    <g
       id="g13"
       aria-label="−1"
       transform="matrix(1.3333333,0,0,1.3333333,21.912,150.82133)">
      <path
         id="path14"
         d="m 5.5650234,-1.8054531 c 0.1289063,0 0.3046875,0 0.3046875,-0.1875 0,-0.1875 -0.1757812,-0.1875 -0.3046875,-0.1875 H 1.0064297 c -0.12890626,0 -0.30468751,0 -0.30468751,0.1875 0,0.1875 0.17578125,0.1875 0.30468751,0.1875 z m 0,0"
         style="fill:#000000;fill-opacity:1;fill-rule:nonzero;stroke:none" />
      <path
         id="path15"
         d="m 9.0952969,-5.0749844 c 0,-0.2226562 -0.023437,-0.2226562 -0.234375,-0.2226562 -0.328125,0.3164062 -0.75,0.5039062 -1.5117188,0.5039062 v 0.2695313 c 0.2226563,0 0.6445313,0 1.1132813,-0.2226563 v 4.08984377 c 0,0.29296875 -0.023437,0.3984375 -0.7851563,0.3984375 h -0.28125 v 0.257812505 c 0.328125,-0.023437505 1.0195313,-0.023437505 1.3710938,-0.023437505 0.3632812,0 1.0546875,0 1.3828121,0.023437505 V -0.25857813 H 9.8687344 c -0.75,0 -0.7734375,-0.10546875 -0.7734375,-0.3984375 z m 0,0"
         style="fill:#000000;fill-opacity:1;fill-rule:nonzero;stroke:none" />
    </g>
    <path
       id="path16"
       d="m 2.5087109,-5.0749844 c 0,-0.2226562 -0.023437,-0.2226562 -0.234375,-0.2226562 -0.328125,0.3164062 -0.75,0.5039062 -1.51171871,0.5039062 v 0.2695313 c 0.22265625,0 0.64453121,0 1.11328121,-0.2226563 v 4.08984377 c 0,0.29296875 -0.023437,0.3984375 -0.7851562,0.3984375 H 0.80949219 V -7.65625e-4 C 1.1376172,-0.02420313 1.8290234,-0.02420313 2.1805859,-0.02420313 c 0.3632813,0 1.0546875,0 1.3828125,0.023437505 V -0.25857813 h -0.28125 c -0.75,0 -0.7734375,-0.10546875 -0.7734375,-0.3984375 z m 0,0"
       style="fill:#000000;fill-opacity:1;fill-rule:nonzero;stroke:none"
       aria-label="1"
       transform="matrix(1.3333333,0,0,1.3333333,101.89333,150.82133)" />
    <g
       id="g16"
       aria-label="−3"
       transform="matrix(1.3333333,0,0,1.3333333,46.294667,254.03067)">
      <path
         id="path17"
         d="m 5.5651328,-1.80425 c 0.1289063,0 0.3046875,0 0.3046875,-0.1875 0,-0.1875 -0.1757812,-0.1875 -0.3046875,-0.1875 H 1.0065391 c -0.12890629,0 -0.30468754,0 -0.30468754,0.1875 0,0.1875 0.17578125,0.1875 0.30468754,0.1875 z m 0,0"
         style="fill:#000000;fill-opacity:1;fill-rule:nonzero;stroke:none" />
      <path
         id="path18"
         d="m 8.6032187,-2.6597187 c 0.6328125,0 1.03125,0.4570312 1.03125,1.3007812 0,0.99609375 -0.5742187,1.2890625 -0.9960937,1.2890625 -0.4335938,0 -1.03125,-0.1640625 -1.3125,-0.5859375 0.2929687,0 0.4921875,-0.17578125 0.4921875,-0.4453125 0,-0.2578125 -0.1875,-0.4335937 -0.4453125,-0.4335937 -0.2109375,0 -0.4335938,0.1289062 -0.4335938,0.4570312 0,0.75 0.8085938,1.2421875 1.7226563,1.2421875 1.0546875,0 1.7929685,-0.7265625 1.7929685,-1.5234375 0,-0.6679687 -0.5156248,-1.265625 -1.3359373,-1.4414062 0.6328125,-0.2226563 1.1015623,-0.7734375 1.1015623,-1.40625 0,-0.6328125 -0.7148435,-1.0898438 -1.5468748,-1.0898438 -0.8554687,0 -1.5,0.4570313 -1.5,1.0664063 0,0.2929687 0.1992188,0.421875 0.4101563,0.421875 0.2460937,0 0.4101562,-0.1757813 0.4101562,-0.4101563 0,-0.2929687 -0.2578125,-0.3984375 -0.4335937,-0.4101562 0.3398437,-0.4335938 0.9492187,-0.46875 1.0898437,-0.46875 0.2109375,0 0.8085938,0.070312 0.8085938,0.890625 0,0.5625 -0.2226563,0.890625 -0.3398438,1.0195312 -0.234375,0.2460938 -0.421875,0.2578125 -0.9023437,0.2929688 -0.1523438,0.011719 -0.2226563,0.023437 -0.2226563,0.1171875 0,0.1171875 0.070312,0.1171875 0.2109375,0.1171875 z m 0,0"
         style="fill:#000000;fill-opacity:1;fill-rule:nonzero;stroke:none" />
    </g>
    <g
       id="g18"
       aria-label="−2"
       transform="matrix(1.3333333,0,0,1.3333333,46.294667,216.236)">
      <path
         id="path19"
         d="m 5.5651328,-1.8059062 c 0.1289063,0 0.3046875,0 0.3046875,-0.1875 0,-0.1875 -0.1757812,-0.1875 -0.3046875,-0.1875 H 1.0065391 c -0.12890629,0 -0.30468754,0 -0.30468754,0.1875 0,0.1875 0.17578125,0.1875 0.30468754,0.1875 z m 0,0"
         style="fill:#000000;fill-opacity:1;fill-rule:nonzero;stroke:none" />
      <path
         id="path20"
         d="M 8.8375937,-1.630125 C 8.9665,-1.7473125 9.294625,-2.005125 9.4235312,-2.1223125 9.9157187,-2.5793437 10.384469,-3.0129375 10.384469,-3.7395 c 0,-0.9492187 -0.7968753,-1.5585937 -1.792969,-1.5585937 -0.9492188,0 -1.5820313,0.7265625 -1.5820313,1.4296875 0,0.3984375 0.3164063,0.4453125 0.421875,0.4453125 0.1640625,0 0.4101563,-0.1171875 0.4101563,-0.421875 0,-0.4101563 -0.3984375,-0.4101563 -0.4921875,-0.4101563 0.234375,-0.5859375 0.7734375,-0.7851562 1.1601562,-0.7851562 0.7382813,0 1.125,0.6328125 1.125,1.3007812 0,0.8320313 -0.5859375,1.4296875 -1.5234375,2.4023438 l -1.0078125,1.03124995 c -0.09375,0.09375 -0.09375,0.10546875 -0.09375,0.3046875 h 3.1523433 l 0.222657,-1.42968745 h -0.246094 c -0.02344,0.1640625 -0.08203,0.56249995 -0.1757813,0.7148437 -0.046875,0.0585938 -0.65625,0.0585938 -0.7851562,0.0585938 H 7.7594687 Z m 0,0"
         style="fill:#000000;fill-opacity:1;fill-rule:nonzero;stroke:none" />
    </g>
    <g
       id="g20"
       aria-label="−1"
       transform="matrix(1.3333333,0,0,1.3333333,46.294667,178.44)">
      <path
         id="path21"
         d="m 5.5651328,-1.8036328 c 0.1289063,0 0.3046875,0 0.3046875,-0.1875 0,-0.1875 -0.1757812,-0.1875 -0.3046875,-0.1875 H 1.0065391 c -0.12890629,0 -0.30468754,0 -0.30468754,0.1875 0,0.1875 0.17578125,0.1875 0.30468754,0.1875 z m 0,0"
         style="fill:#000000;fill-opacity:1;fill-rule:nonzero;stroke:none" />
      <path
         id="path22"
         d="m 9.0954062,-5.0731641 c 0,-0.2226562 -0.023437,-0.2226562 -0.234375,-0.2226562 -0.328125,0.3164062 -0.75,0.5039062 -1.5117187,0.5039062 v 0.2695313 c 0.2226562,0 0.6445312,0 1.1132812,-0.2226563 v 4.08984379 c 0,0.29296875 -0.023437,0.3984375 -0.7851562,0.3984375 h -0.28125 v 0.2578125 c 0.328125,-0.0234375 1.0195312,-0.0234375 1.3710937,-0.0234375 0.3632813,0 1.0546875,0 1.3828128,0.0234375 v -0.2578125 H 9.8688437 c -0.75,0 -0.7734375,-0.10546875 -0.7734375,-0.3984375 z m 0,0"
         style="fill:#000000;fill-opacity:1;fill-rule:nonzero;stroke:none" />
    </g>
    <path
       id="path23"
       d="m 3.903125,-2.5429219 c 0,-0.8554687 -0.09375,-1.3710937 -0.3515625,-1.875 C 3.2,-5.1210469 2.5554687,-5.2968281 2.1101562,-5.2968281 c -0.9960937,0 -1.3710937,0.75 -1.47656245,0.9726562 -0.29296875,0.5742188 -0.3046875,1.3710938 -0.3046875,1.78125 0,0.5273438 0.0234375,1.3359375 0.41015625,1.96875003 0.3632812,0.5859375 0.9492187,0.73828125 1.3710937,0.73828125 0.3867188,0 1.0664063,-0.1171875 1.4648438,-0.90234375 C 3.8679687,-1.3124531 3.903125,-2.0272969 3.903125,-2.5429219 Z m -1.7929688,2.48437503 c -0.2695312,0 -0.8203125,-0.12890625 -0.984375,-0.96093753 -0.09375,-0.4570312 -0.09375,-1.2070312 -0.09375,-1.6171875 0,-0.5507812 0,-1.1132812 0.09375,-1.546875 0.1640625,-0.8085937 0.7851563,-0.890625 0.984375,-0.890625 0.2695313,0 0.8203125,0.1289063 0.984375,0.8554688 0.09375,0.4453125 0.09375,1.0429687 0.09375,1.5820312 0,0.46875 0,1.1835938 -0.09375,1.6289063 -0.1640625,0.84374998 -0.7148437,0.94921873 -0.984375,0.94921873 z m 0,0"
       style="fill:#000000;fill-opacity:1;fill-rule:nonzero;stroke:none"
       aria-label="0"
       transform="matrix(1.3333333,0,0,1.3333333,57.733333,148.164)" />
    <path
       id="path24"
       d="m 2.5084063,-5.0754609 c 0,-0.2226563 -0.023437,-0.2226563 -0.234375,-0.2226563 -0.328125,0.3164063 -0.75,0.5039063 -1.5117188,0.5039063 v 0.2695312 c 0.22265625,0 0.6445313,0 1.1132813,-0.2226562 v 4.08984371 c 0,0.29296875 -0.023437,0.3984375 -0.7851563,0.3984375 h -0.28125 v 0.2578125 c 0.328125,-0.0234375 1.0195313,-0.0234375 1.3710938,-0.0234375 0.3632812,0 1.0546875,0 1.3828125,0.0234375 v -0.2578125 h -0.28125 c -0.75,0 -0.7734375,-0.10546875 -0.7734375,-0.3984375 z m 0,0"
       style="fill:#000000;fill-opacity:1;fill-rule:nonzero;stroke:none"
       aria-label="1"
       transform="matrix(1.3333333,0,0,1.3333333,55.077333,103.404)" />
    <path
       id="path25"
       d="m 2.2505938,-1.627875 c 0.1289062,-0.1171875 0.4570312,-0.375 0.5859375,-0.4921875 0.4921875,-0.4570313 0.9609375,-0.890625 0.9609375,-1.6171875 0,-0.9492188 -0.796875,-1.5585938 -1.7929688,-1.5585938 -0.9492187,0 -1.58203125,0.7265625 -1.58203125,1.4296875 0,0.3984375 0.31640625,0.4453125 0.421875,0.4453125 0.16406255,0 0.41015625,-0.1171875 0.41015625,-0.421875 0,-0.4101562 -0.3984375,-0.4101562 -0.4921875,-0.4101562 0.234375,-0.5859375 0.7734375,-0.7851563 1.1601563,-0.7851563 0.7382812,0 1.125,0.6328125 1.125,1.3007813 0,0.8320312 -0.5859375,1.4296875 -1.5234375,2.4023437 l -1.00781255,1.03125005 c -0.09375,0.09375 -0.09375,0.10546875 -0.09375,0.3046875 H 3.5748125 L 3.7974688,-1.4286563 H 3.551375 c -0.023437,0.1640625 -0.082031,0.56250005 -0.1757812,0.7148438 -0.046875,0.0585938 -0.65625,0.0585938 -0.7851563,0.0585938 H 1.1724688 Z m 0,0"
       style="fill:#000000;fill-opacity:1;fill-rule:nonzero;stroke:none"
       aria-label="2"
       transform="matrix(1.3333333,0,0,1.3333333,55.077333,65.608)" />
    <path
       id="path26"
       d="m 2.0162188,-2.6607812 c 0.6328125,0 1.03125,0.4570312 1.03125,1.3007812 0,0.99609375 -0.5742188,1.2890625 -0.9960938,1.2890625 -0.4335937,0 -1.03125,-0.1640625 -1.3125,-0.5859375 0.2929688,0 0.4921875,-0.17578125 0.4921875,-0.4453125 0,-0.2578125 -0.1875,-0.4335937 -0.4453125,-0.4335937 -0.2109375,0 -0.43359375,0.1289062 -0.43359375,0.4570312 0,0.75 0.80859375,1.2421875 1.72265625,1.2421875 1.0546875,0 1.7929688,-0.7265625 1.7929688,-1.5234375 0,-0.6679687 -0.515625,-1.265625 -1.3359375,-1.4414062 0.6328125,-0.2226563 1.1015625,-0.7734375 1.1015625,-1.40625 0,-0.6328125 -0.7148438,-1.0898438 -1.546875,-1.0898438 -0.8554688,0 -1.50000005,0.4570313 -1.50000005,1.0664063 0,0.2929687 0.19921875,0.421875 0.41015625,0.421875 0.2460938,0 0.4101563,-0.1757813 0.4101563,-0.4101563 0,-0.2929687 -0.2578125,-0.3984375 -0.4335938,-0.4101562 0.3398438,-0.4335938 0.9492188,-0.46875 1.0898438,-0.46875 0.2109375,0 0.8085937,0.070312 0.8085937,0.890625 0,0.5625 -0.2226562,0.890625 -0.3398437,1.0195312 -0.234375,0.2460938 -0.421875,0.2578125 -0.9023438,0.2929688 -0.1523437,0.011719 -0.2226562,0.023437 -0.2226562,0.1171875 0,0.1171875 0.070312,0.1171875 0.2109375,0.1171875 z m 0,0"
       style="fill:#000000;fill-opacity:1;fill-rule:nonzero;stroke:none"
       aria-label="3"
       transform="matrix(1.3333333,0,0,1.3333333,55.077333,27.813333)" />
  </g>
</svg>
