<?xml version="1.0" encoding="UTF-8" standalone="no"?>
<!-- Created with Inkscape (http://www.inkscape.org/) -->

<svg
   version="1.1"
   id="svg1"
   width="45.367191"
   height="12.09375"
   viewBox="0 0 45.367191 12.09375"
   xmlns="http://www.w3.org/2000/svg"
   xmlns:svg="http://www.w3.org/2000/svg">
  <defs
     id="defs1" />
  <g
     id="g1"
     transform="translate(-20.300781,0.13671923)">
    <path
       id="path1"
       d="m 1.7112734,-3.7510078 v -0.65625 l -1.42968746,0.1171875 v 0.3046875 c 0.703125,0 0.77343746,0.058594 0.77343746,0.4921875 v 4.6640625 c 0,0.4570312 -0.10546871,0.4570312 -0.77343746,0.4570312 v 0.3046875 c 0.33984375,-0.011719 0.85546876,-0.035156 1.11328126,-0.035156 0.2695312,0 0.7734375,0.023437 1.125,0.035156 V 1.6278984 c -0.6679688,0 -0.7734375,0 -0.7734375,-0.4570312 v -1.75781251 c 0.046875,0.15234375 0.46875,0.69140625 1.21875,0.69140625 1.1835937,0 2.2265625,-0.97265625 2.2265625,-2.26171874 0,-1.265625 -0.9726563,-2.25 -2.0859375,-2.25 -0.7734375,0 -1.1953125,0.4453125 -1.3945313,0.65625 z m 0.035156,2.6132812 v -2.2148437 c 0.28125,-0.515625 0.7734375,-0.796875 1.2773437,-0.796875 0.7265625,0 1.3359375,0.8671875 1.3359375,1.9921875 0,1.20703124 -0.6914062,2.05078124 -1.4296875,2.05078124 -0.3984375,0 -0.7734375,-0.19921875 -1.0429687,-0.609375 -0.140625,-0.2109375 -0.140625,-0.22265625 -0.140625,-0.42187504 z m 6.0029297,-0.5742187 c -0.8671875,0 -0.8671875,-0.9960938 -0.8671875,-1.2304688 0,-0.2695312 0.011719,-0.5859375 0.1523437,-0.8320312 0.082031,-0.1171875 0.3164063,-0.3984375 0.7148438,-0.3984375 0.8671875,0 0.8671875,0.9960937 0.8671875,1.21875 0,0.2695312 -0.011719,0.5976562 -0.1640625,0.84375 -0.082031,0.1171875 -0.3046875,0.3984375 -0.703125,0.3984375 z m -1.1601563,0.3867187 c 0,-0.035156 0,-0.2695312 0.1757813,-0.46875 0.3867187,0.28125 0.796875,0.3046875 0.984375,0.3046875 0.9257812,0 1.6054687,-0.6796875 1.6054687,-1.453125 0,-0.3632812 -0.1523437,-0.7382812 -0.3984375,-0.9609375 0.3515625,-0.3398437 0.7148438,-0.3867187 0.890625,-0.3867187 0.023437,0 0.070312,0 0.1054688,0 -0.1171875,0.046875 -0.1640625,0.1523437 -0.1640625,0.2695312 0,0.1757813 0.1289062,0.2929688 0.2929694,0.2929688 0.09375,0 0.28125,-0.070312 0.28125,-0.2929688 0,-0.1757812 -0.117188,-0.4921875 -0.5039069,-0.4921875 -0.1992188,0 -0.6328125,0.058594 -1.0546875,0.46875 -0.421875,-0.328125 -0.84375,-0.3632812 -1.0546875,-0.3632812 -0.9257813,0 -1.6171875,0.6914062 -1.6171875,1.453125 0,0.4453125 0.2226562,0.8203125 0.46875,1.03125 -0.1289063,0.1523437 -0.3046875,0.4804687 -0.3046875,0.8203125 0,0.31640624 0.1289062,0.69140624 0.4335937,0.89062499 -0.5976562,0.17578125 -0.9140625,0.59765625 -0.9140625,0.99609375 0,0.71484376 0.984375,1.26562496 2.203125,1.26562496 1.171875,0 2.2031257,-0.5039062 2.2031257,-1.28906246 0,-0.33984375 -0.140625,-0.85546875 -0.6445319,-1.125 -0.5273438,-0.28125 -1.1015625,-0.28125 -1.7109375,-0.28125 -0.2460938,0 -0.6796875,0 -0.75,-0.0117188 -0.316406,-0.046875 -0.5273435,-0.35156244 -0.5273438,-0.66796874 z m 1.4414063,3.1523438 c -1.0078125,0 -1.6992188,-0.515625 -1.6992188,-1.04296876 0,-0.45703125 0.375,-0.8203125 0.8203125,-0.85546875 h 0.5859375 c 0.8554688,0 1.96875,0 1.96875,0.85546875 0,0.53906246 -0.703125,1.04296876 -1.6757812,1.04296876 z m 4.2333989,-6.1171875 v -1.1601563 c 0,-0.8789062 0.480469,-1.359375 0.914062,-1.359375 0.03516,0 0.175782,0 0.328125,0.070312 -0.117187,0.046875 -0.292968,0.1757813 -0.292968,0.421875 0,0.234375 0.152343,0.4335938 0.421875,0.4335938 0.292968,0 0.433593,-0.1992188 0.433593,-0.4453125 0,-0.3632813 -0.363281,-0.6914063 -0.890625,-0.6914063 -0.703125,0 -1.546875,0.5273438 -1.546875,1.5820313 v 1.1484375 h -0.785156 v 0.3046875 h 0.785156 v 3.22265624 c 0,0.45703125 -0.105468,0.45703125 -0.773437,0.45703125 v 0.3046875 c 0.386719,-0.01171875 0.855469,-0.03515625 1.136719,-0.03515625 0.398437,0 0.867187,0 1.265625,0.03515625 v -0.3046875 h -0.210938 c -0.738281,0 -0.761719,-0.1171875 -0.761719,-0.46875 V -3.9853828 h 1.136719 v -0.3046875 z m 3.008789,0.5390625 v -0.65625 l -1.429688,0.1171875 v 0.3046875 c 0.703125,0 0.773438,0.058594 0.773438,0.4921875 v 4.6640625 c 0,0.4570312 -0.105469,0.4570312 -0.773438,0.4570312 v 0.3046875 c 0.339844,-0.011719 0.855469,-0.035156 1.113282,-0.035156 0.269531,0 0.773437,0.023437 1.125,0.035156 V 1.6278984 c -0.667969,0 -0.773438,0 -0.773438,-0.4570312 v -1.75781251 c 0.04687,0.15234375 0.46875,0.69140625 1.21875,0.69140625 1.183594,0 2.226563,-0.97265625 2.226563,-2.26171874 0,-1.265625 -0.972657,-2.25 -2.085938,-2.25 -0.773437,0 -1.195312,0.4453125 -1.394531,0.65625 z m 0.03516,2.6132812 v -2.2148437 c 0.28125,-0.515625 0.773438,-0.796875 1.277344,-0.796875 0.726562,0 1.335937,0.8671875 1.335937,1.9921875 0,1.20703124 -0.691406,2.05078124 -1.429687,2.05078124 -0.398438,0 -0.773438,-0.19921875 -1.042969,-0.609375 -0.140625,-0.2109375 -0.140625,-0.22265625 -0.140625,-0.42187504 z m 5.545899,-5.7773437 -1.429688,0.1054687 v 0.3164063 c 0.703125,0 0.773438,0.070312 0.773438,0.5507812 v 5.17968754 c 0,0.45703125 -0.105469,0.45703125 -0.773438,0.45703125 v 0.3046875 c 0.328125,-0.01171875 0.855469,-0.03515625 1.101563,-0.03515625 0.257812,0 0.738281,0.0234375 1.113281,0.03515625 v -0.3046875 c -0.667969,0 -0.785156,0 -0.785156,-0.45703125 z m 5.698242,4.78125 c 0,-1.2773438 -0.996094,-2.3320313 -2.191407,-2.3320313 -1.253906,0 -2.214843,1.0898438 -2.214843,2.3320313 0,1.28906249 1.03125,2.23828124 2.203125,2.23828124 1.207031,0 2.203125,-0.97265625 2.203125,-2.23828124 z m -2.191407,1.99218749 c -0.433593,0 -0.867187,-0.2109375 -1.136718,-0.66796875 C 22.96616,-1.2431953 22.96616,-1.8525703 22.96616,-2.2158516 c 0,-0.3867187 0,-0.9257812 0.246094,-1.359375 0.269531,-0.4570312 0.738281,-0.6679687 1.136719,-0.6679687 0.433593,0 0.867187,0.2226562 1.125,0.6445312 0.257812,0.4335938 0.257812,1.0078125 0.257812,1.3828125 0,0.3632813 0,0.9023438 -0.222656,1.33593754 -0.222656,0.4453125 -0.65625,0.73828125 -1.148438,0.73828125 z m 4.207032,-3.84374999 h 1.429687 v -0.3046875 h -1.429687 v -1.8398438 h -0.246094 c -0.01172,0.8203125 -0.316406,1.8867188 -1.289063,1.921875 v 0.2226563 h 0.84375 v 2.7539062 c 0,1.21875004 0.925782,1.33593754 1.289063,1.33593754 0.703125,0 0.984375,-0.703125 0.984375,-1.33593754 V -1.8056953 H 29.90366 v 0.5507812 c 0,0.73828129 -0.304687,1.11328129 -0.667969,1.11328129 -0.667968,0 -0.667968,-0.90234379 -0.667968,-1.07812499 z m 4.227539,2.0507812 c 0.222656,0.035156 1.03125,0.1992188 1.03125,0.9140625 0,0.51562504 -0.351563,0.91406254 -1.125,0.91406254 -0.832031,0 -1.195313,-0.57421875 -1.382813,-1.41796874 -0.03516,-0.1289063 -0.03516,-0.1757813 -0.140625,-0.1757813 -0.128906,0 -0.128906,0.070312 -0.128906,0.2578125 v 1.31250004 c 0,0.1640625 0,0.234375 0.105469,0.234375 0.05859,0 0.07031,0 0.257812,-0.19921875 0.01172,-0.01171875 0.01172,-0.03515625 0.199219,-0.22265625 0.433594,0.421875 0.878906,0.421875 1.089844,0.421875 1.148437,0 1.605469,-0.66796875 1.605469,-1.38281254 0,-0.5273437 -0.292969,-0.8203125 -0.421875,-0.9492187 -0.328125,-0.3164063 -0.714844,-0.3984375 -1.136719,-0.46875 -0.550781,-0.1171875 -1.21875,-0.2460938 -1.21875,-0.8203125 0,-0.3515625 0.257812,-0.7617188 1.113281,-0.7617188 1.101563,0 1.148438,0.9023438 1.171875,1.2070313 0,0.09375 0.09375,0.09375 0.117188,0.09375 0.128906,0 0.128906,-0.046875 0.128906,-0.2460938 v -0.9960937 c 0,-0.1757813 0,-0.2460938 -0.117188,-0.2460938 -0.04687,0 -0.07031,0 -0.199218,0.1171875 -0.02344,0.046875 -0.128907,0.1289063 -0.164063,0.1640625 -0.375,-0.28125 -0.785156,-0.28125 -0.9375,-0.28125 -1.21875,0 -1.59375,0.6679688 -1.59375,1.2304688 0,0.3398437 0.164063,0.6210937 0.433594,0.84375 0.316406,0.2578125 0.597656,0.3164062 1.3125,0.4570312 z m 0,0"
       style="fill:#000000;fill-opacity:1;fill-rule:nonzero;stroke:none"
       aria-label="pgfplots"
       transform="matrix(1.3333333,0,0,1.3333333,19.925333,9.224)" />
  </g>
</svg>
