<?xml version="1.0" encoding="UTF-8" standalone="no"?>
<!-- Created with Inkscape (http://www.inkscape.org/) -->

<svg
   version="1.1"
   id="svg1"
   width="133.31213"
   height="275.04547"
   viewBox="0 0 133.31213 275.04547"
   xmlns="http://www.w3.org/2000/svg"
   xmlns:svg="http://www.w3.org/2000/svg">
  <defs
     id="defs1" />
  <g
     id="g1"
     transform="translate(-0.265228,-0.26397262)">
    <path
       id="path1"
       d="m -28.34666,-1.99255 v 3.9851"
       style="fill:none;stroke:#000000;stroke-width:0.3985;stroke-linecap:round;stroke-linejoin:miter;stroke-miterlimit:10;stroke-dasharray:none;stroke-opacity:1"
       transform="matrix(1.3333333,0,0,-1.3333333,66.921333,137.78667)" />
    <path
       id="path2"
       d="m 28.34666,-1.99255 v 3.9851"
       style="fill:none;stroke:#000000;stroke-width:0.3985;stroke-linecap:round;stroke-linejoin:miter;stroke-miterlimit:10;stroke-dasharray:none;stroke-opacity:1"
       transform="matrix(1.3333333,0,0,-1.3333333,66.921333,137.78667)" />
    <path
       id="path3"
       d="m -1.99255,-85.04 h 3.9851"
       style="fill:none;stroke:#000000;stroke-width:0.3985;stroke-linecap:round;stroke-linejoin:miter;stroke-miterlimit:10;stroke-dasharray:none;stroke-opacity:1"
       transform="matrix(1.3333333,0,0,-1.3333333,66.921333,137.78667)" />
    <path
       id="path4"
       d="m -1.99255,-56.69334 h 3.9851"
       style="fill:none;stroke:#000000;stroke-width:0.3985;stroke-linecap:round;stroke-linejoin:miter;stroke-miterlimit:10;stroke-dasharray:none;stroke-opacity:1"
       transform="matrix(1.3333333,0,0,-1.3333333,66.921333,137.78667)" />
    <path
       id="path5"
       d="m -1.99255,-28.34666 h 3.9851"
       style="fill:none;stroke:#000000;stroke-width:0.3985;stroke-linecap:round;stroke-linejoin:miter;stroke-miterlimit:10;stroke-dasharray:none;stroke-opacity:1"
       transform="matrix(1.3333333,0,0,-1.3333333,66.921333,137.78667)" />
    <path
       id="path6"
       d="m -1.99255,28.34666 h 3.9851"
       style="fill:none;stroke:#000000;stroke-width:0.3985;stroke-linecap:round;stroke-linejoin:miter;stroke-miterlimit:10;stroke-dasharray:none;stroke-opacity:1"
       transform="matrix(1.3333333,0,0,-1.3333333,66.921333,137.78667)" />
    <path
       id="path7"
       d="m -1.99255,56.69334 h 3.9851"
       style="fill:none;stroke:#000000;stroke-width:0.3985;stroke-linecap:round;stroke-linejoin:miter;stroke-miterlimit:10;stroke-dasharray:none;stroke-opacity:1"
       transform="matrix(1.3333333,0,0,-1.3333333,66.921333,137.78667)" />
    <path
       id="path8"
       d="m -1.99255,85.04 h 3.9851"
       style="fill:none;stroke:#000000;stroke-width:0.3985;stroke-linecap:round;stroke-linejoin:miter;stroke-miterlimit:10;stroke-dasharray:none;stroke-opacity:1"
       transform="matrix(1.3333333,0,0,-1.3333333,66.921333,137.78667)" />
    <path
       id="path9"
       d="M -49.99208,0 H 49.5338"
       style="fill:none;stroke:#000000;stroke-width:0.3985;stroke-linecap:butt;stroke-linejoin:miter;stroke-miterlimit:10;stroke-dasharray:none;stroke-opacity:1"
       transform="matrix(1.3333333,0,0,-1.3333333,66.921333,137.78667)" />
    <path
       id="path10"
       d="M -1.19551,1.59401 C -1.09587,0.99626 0,0.09961 0.29886,0 0,-0.09961 -1.09587,-0.99626 -1.19551,-1.59401"
       style="fill:none;stroke:#000000;stroke-width:0.31879;stroke-linecap:round;stroke-linejoin:round;stroke-miterlimit:10;stroke-dasharray:none;stroke-opacity:1"
       transform="matrix(1.3333333,0,0,-1.3333333,132.9664,137.78667)" />
    <path
       id="path11"
       d="M 0,-103.14209 V 102.6838"
       style="fill:none;stroke:#000000;stroke-width:0.3985;stroke-linecap:butt;stroke-linejoin:miter;stroke-miterlimit:10;stroke-dasharray:none;stroke-opacity:1"
       transform="matrix(1.3333333,0,0,-1.3333333,66.921333,137.78667)" />
    <path
       id="path12"
       d="M -1.19551,1.59401 C -1.09587,0.99626 0,0.09961 0.29886,0 0,-0.09961 -1.09587,-0.99626 -1.19551,-1.59401"
       style="fill:none;stroke:#000000;stroke-width:0.31879;stroke-linecap:round;stroke-linejoin:round;stroke-miterlimit:10;stroke-dasharray:none;stroke-opacity:1"
       transform="matrix(0,-1.3333333,-1.3333333,0,66.921333,0.87493333)" />
    <path
       id="path13"
       d="m -42.52,-95.67001 c 0,0 10.24029,54.54094 14.17334,67.32335 3.93304,12.78239 10.24029,20.87031 14.17334,24.80334 C -10.2403,0.38971 -3.93303,-0.98325 0,0 3.93303,0.98325 10.2403,-0.38971 14.17332,3.54332 18.10637,7.47635 24.41362,15.56427 28.34666,28.34666 32.27971,41.12907 42.52,95.67001 42.52,95.67001"
       style="fill:none;stroke:#000000;stroke-width:0.59776;stroke-linecap:butt;stroke-linejoin:miter;stroke-miterlimit:10;stroke-dasharray:none;stroke-opacity:1"
       transform="matrix(1.3333333,0,0,-1.3333333,66.921333,137.78667)" />
    <g
       id="g13"
       aria-label="−1"
       transform="matrix(1.3333333,0,0,1.3333333,21.912,150.83333)">
      <path
         id="path14"
         d="m 5.5650234,-1.8056641 c 0.1289063,0 0.3046875,0 0.3046875,-0.1875 0,-0.1875 -0.1757812,-0.1875 -0.3046875,-0.1875 H 1.0064297 c -0.12890626,0 -0.30468751,0 -0.30468751,0.1875 0,0.1875 0.17578125,0.1875 0.30468751,0.1875 z m 0,0"
         style="fill:#000000;fill-opacity:1;fill-rule:nonzero;stroke:none" />
      <path
         id="path15"
         d="m 9.0952969,-5.0751953 c 0,-0.2226563 -0.023437,-0.2226563 -0.234375,-0.2226563 -0.328125,0.3164063 -0.75,0.5039063 -1.5117188,0.5039063 v 0.2695312 c 0.2226563,0 0.6445313,0 1.1132813,-0.2226562 v 4.08984374 c 0,0.29296875 -0.023437,0.3984375 -0.7851563,0.3984375 h -0.28125 V -9.765625e-4 C 7.7242031,-0.02441406 8.4156094,-0.02441406 8.7671719,-0.02441406 c 0.3632812,0 1.0546875,0 1.3828121,0.0234374975 V -0.25878906 H 9.8687344 c -0.75,0 -0.7734375,-0.10546875 -0.7734375,-0.3984375 z m 0,0"
         style="fill:#000000;fill-opacity:1;fill-rule:nonzero;stroke:none" />
    </g>
    <path
       id="path16"
       d="m 2.5087109,-5.0751953 c 0,-0.2226563 -0.023437,-0.2226563 -0.234375,-0.2226563 -0.328125,0.3164063 -0.75,0.5039063 -1.51171871,0.5039063 v 0.2695312 c 0.22265625,0 0.64453121,0 1.11328121,-0.2226562 v 4.08984374 c 0,0.29296875 -0.023437,0.3984375 -0.7851562,0.3984375 H 0.80949219 V -9.765625e-4 C 1.1376172,-0.02441406 1.8290234,-0.02441406 2.1805859,-0.02441406 c 0.3632813,0 1.0546875,0 1.3828125,0.0234374975 V -0.25878906 h -0.28125 c -0.75,0 -0.7734375,-0.10546875 -0.7734375,-0.3984375 z m 0,0"
       style="fill:#000000;fill-opacity:1;fill-rule:nonzero;stroke:none"
       aria-label="1"
       transform="matrix(1.3333333,0,0,1.3333333,101.89333,150.83333)" />
    <g
       id="g16"
       aria-label="−3"
       transform="matrix(1.3333333,0,0,1.3333333,46.294667,254.04267)">
      <path
         id="path17"
         d="m 5.5651328,-1.8044609 c 0.1289063,0 0.3046875,0 0.3046875,-0.1875 0,-0.1875 -0.1757812,-0.1875 -0.3046875,-0.1875 H 1.0065391 c -0.12890629,0 -0.30468754,0 -0.30468754,0.1875 0,0.1875 0.17578125,0.1875 0.30468754,0.1875 z m 0,0"
         style="fill:#000000;fill-opacity:1;fill-rule:nonzero;stroke:none" />
      <path
         id="path18"
         d="m 8.6032187,-2.6599297 c 0.6328125,0 1.03125,0.4570313 1.03125,1.3007813 0,0.99609371 -0.5742187,1.28906246 -0.9960937,1.28906246 -0.4335938,0 -1.03125,-0.1640625 -1.3125,-0.5859375 0.2929687,0 0.4921875,-0.17578125 0.4921875,-0.44531246 0,-0.2578125 -0.1875,-0.4335938 -0.4453125,-0.4335938 -0.2109375,0 -0.4335938,0.1289063 -0.4335938,0.4570313 0,0.74999996 0.8085938,1.24218746 1.7226563,1.24218746 1.0546875,0 1.7929685,-0.7265625 1.7929685,-1.52343746 0,-0.6679688 -0.5156248,-1.265625 -1.3359373,-1.4414063 0.6328125,-0.2226562 1.1015623,-0.7734375 1.1015623,-1.40625 0,-0.6328125 -0.7148435,-1.0898437 -1.5468748,-1.0898437 -0.8554687,0 -1.5,0.4570312 -1.5,1.0664062 0,0.2929688 0.1992188,0.421875 0.4101563,0.421875 0.2460937,0 0.4101562,-0.1757812 0.4101562,-0.4101562 0,-0.2929688 -0.2578125,-0.3984375 -0.4335937,-0.4101563 0.3398437,-0.4335937 0.9492187,-0.46875 1.0898437,-0.46875 0.2109375,0 0.8085938,0.070312 0.8085938,0.890625 0,0.5625 -0.2226563,0.890625 -0.3398438,1.0195313 -0.234375,0.2460937 -0.421875,0.2578125 -0.9023437,0.2929687 -0.1523438,0.011719 -0.2226563,0.023437 -0.2226563,0.1171875 0,0.1171875 0.070312,0.1171875 0.2109375,0.1171875 z m 0,0"
         style="fill:#000000;fill-opacity:1;fill-rule:nonzero;stroke:none" />
    </g>
    <g
       id="g18"
       aria-label="−2"
       transform="matrix(1.3333333,0,0,1.3333333,46.294667,216.248)">
      <path
         id="path19"
         d="m 5.5651328,-1.8061172 c 0.1289063,0 0.3046875,0 0.3046875,-0.1875 0,-0.1875 -0.1757812,-0.1875 -0.3046875,-0.1875 H 1.0065391 c -0.12890629,0 -0.30468754,0 -0.30468754,0.1875 0,0.1875 0.17578125,0.1875 0.30468754,0.1875 z m 0,0"
         style="fill:#000000;fill-opacity:1;fill-rule:nonzero;stroke:none" />
      <path
         id="path20"
         d="m 8.8375937,-1.6303359 c 0.1289063,-0.1171875 0.4570313,-0.375 0.5859375,-0.4921875 0.4921875,-0.4570313 0.9609378,-0.890625 0.9609378,-1.6171875 0,-0.9492188 -0.7968753,-1.5585938 -1.792969,-1.5585938 -0.9492188,0 -1.5820313,0.7265625 -1.5820313,1.4296875 0,0.3984375 0.3164063,0.4453125 0.421875,0.4453125 0.1640625,0 0.4101563,-0.1171875 0.4101563,-0.421875 0,-0.4101562 -0.3984375,-0.4101562 -0.4921875,-0.4101562 0.234375,-0.5859375 0.7734375,-0.7851563 1.1601562,-0.7851563 0.7382813,0 1.125,0.6328125 1.125,1.3007813 0,0.8320312 -0.5859375,1.4296875 -1.5234375,2.4023437 l -1.0078125,1.03125001 c -0.09375,0.09375 -0.09375,0.10546875 -0.09375,0.3046875 h 3.1523433 l 0.222657,-1.42968751 h -0.246094 c -0.02344,0.1640625 -0.08203,0.56250001 -0.1757813,0.71484376 -0.046875,0.0585938 -0.65625,0.0585938 -0.7851562,0.0585938 H 7.7594687 Z m 0,0"
         style="fill:#000000;fill-opacity:1;fill-rule:nonzero;stroke:none" />
    </g>
    <g
       id="g20"
       aria-label="−1"
       transform="matrix(1.3333333,0,0,1.3333333,46.294667,178.452)">
      <path
         id="path21"
         d="m 5.5651328,-1.8038437 c 0.1289063,0 0.3046875,0 0.3046875,-0.1875 0,-0.1875 -0.1757812,-0.1875 -0.3046875,-0.1875 H 1.0065391 c -0.12890629,0 -0.30468754,0 -0.30468754,0.1875 0,0.1875 0.17578125,0.1875 0.30468754,0.1875 z m 0,0"
         style="fill:#000000;fill-opacity:1;fill-rule:nonzero;stroke:none" />
      <path
         id="path22"
         d="m 9.0954062,-5.073375 c 0,-0.2226562 -0.023437,-0.2226562 -0.234375,-0.2226562 -0.328125,0.3164062 -0.75,0.5039062 -1.5117187,0.5039062 v 0.2695313 c 0.2226562,0 0.6445312,0 1.1132812,-0.2226563 v 4.08984375 c 0,0.29296875 -0.023437,0.3984375 -0.7851562,0.3984375 h -0.28125 v 0.2578125 c 0.328125,-0.0234375 1.0195312,-0.0234375 1.3710937,-0.0234375 0.3632813,0 1.0546875,0 1.3828128,0.0234375 v -0.2578125 H 9.8688437 c -0.75,0 -0.7734375,-0.10546875 -0.7734375,-0.3984375 z m 0,0"
         style="fill:#000000;fill-opacity:1;fill-rule:nonzero;stroke:none" />
    </g>
    <path
       id="path23"
       d="m 3.903125,-2.5431328 c 0,-0.8554688 -0.09375,-1.3710938 -0.3515625,-1.875 C 3.2,-5.1212578 2.5554687,-5.2970391 2.1101562,-5.2970391 c -0.9960937,0 -1.3710937,0.75 -1.47656245,0.9726563 -0.29296875,0.5742187 -0.3046875,1.3710937 -0.3046875,1.78125 0,0.5273437 0.0234375,1.3359375 0.41015625,1.96874999 0.3632812,0.5859375 0.9492187,0.73828125 1.3710937,0.73828125 0.3867188,0 1.0664063,-0.1171875 1.4648438,-0.90234375 C 3.8679687,-1.3126641 3.903125,-2.0275078 3.903125,-2.5431328 Z m -1.7929688,2.48437499 c -0.2695312,0 -0.8203125,-0.12890625 -0.984375,-0.96093749 -0.09375,-0.4570313 -0.09375,-1.2070313 -0.09375,-1.6171875 0,-0.5507813 0,-1.1132813 0.09375,-1.546875 0.1640625,-0.8085938 0.7851563,-0.890625 0.984375,-0.890625 0.2695313,0 0.8203125,0.1289062 0.984375,0.8554687 0.09375,0.4453125 0.09375,1.0429688 0.09375,1.5820313 0,0.46875 0,1.1835937 -0.09375,1.6289062 -0.1640625,0.84375004 -0.7148437,0.94921879 -0.984375,0.94921879 z m 0,0"
       style="fill:#000000;fill-opacity:1;fill-rule:nonzero;stroke:none"
       aria-label="0"
       transform="matrix(1.3333333,0,0,1.3333333,57.733333,148.176)" />
    <path
       id="path24"
       d="m 2.5084063,-5.0756719 c 0,-0.2226562 -0.023437,-0.2226562 -0.234375,-0.2226562 -0.328125,0.3164062 -0.75,0.5039062 -1.5117188,0.5039062 v 0.2695313 c 0.22265625,0 0.6445313,0 1.1132813,-0.2226563 v 4.08984378 c 0,0.29296875 -0.023437,0.3984375 -0.7851563,0.3984375 h -0.28125 v 0.2578125 c 0.328125,-0.0234375 1.0195313,-0.0234375 1.3710938,-0.0234375 0.3632812,0 1.0546875,0 1.3828125,0.0234375 v -0.2578125 h -0.28125 c -0.75,0 -0.7734375,-0.10546875 -0.7734375,-0.3984375 z m 0,0"
       style="fill:#000000;fill-opacity:1;fill-rule:nonzero;stroke:none"
       aria-label="1"
       transform="matrix(1.3333333,0,0,1.3333333,55.077333,103.416)" />
    <path
       id="path25"
       d="m 2.2505938,-1.6280859 c 0.1289062,-0.1171875 0.4570312,-0.375 0.5859375,-0.4921875 0.4921875,-0.4570313 0.9609375,-0.890625 0.9609375,-1.6171875 0,-0.9492188 -0.796875,-1.5585938 -1.7929688,-1.5585938 -0.9492187,0 -1.58203125,0.7265625 -1.58203125,1.4296875 0,0.3984375 0.31640625,0.4453125 0.421875,0.4453125 0.16406255,0 0.41015625,-0.1171875 0.41015625,-0.421875 0,-0.4101562 -0.3984375,-0.4101562 -0.4921875,-0.4101562 0.234375,-0.5859375 0.7734375,-0.7851563 1.1601563,-0.7851563 0.7382812,0 1.125,0.6328125 1.125,1.3007813 0,0.8320312 -0.5859375,1.4296875 -1.5234375,2.4023437 l -1.00781255,1.03125001 c -0.09375,0.09375 -0.09375,0.10546875 -0.09375,0.3046875025 H 3.5748125 L 3.7974688,-1.4288672 H 3.551375 c -0.023437,0.1640625 -0.082031,0.56250001 -0.1757812,0.71484376 -0.046875,0.0585938 -0.65625,0.0585938 -0.7851563,0.0585938 H 1.1724688 Z m 0,0"
       style="fill:#000000;fill-opacity:1;fill-rule:nonzero;stroke:none"
       aria-label="2"
       transform="matrix(1.3333333,0,0,1.3333333,55.077333,65.62)" />
    <path
       id="path26"
       d="m 2.0162188,-2.6609922 c 0.6328125,0 1.03125,0.4570313 1.03125,1.3007813 0,0.99609371 -0.5742188,1.28906246 -0.9960938,1.28906246 -0.4335937,0 -1.03125,-0.1640625 -1.3125,-0.5859375 0.2929688,0 0.4921875,-0.17578125 0.4921875,-0.44531246 0,-0.2578125 -0.1875,-0.4335938 -0.4453125,-0.4335938 -0.2109375,0 -0.43359375,0.1289063 -0.43359375,0.4570313 0,0.74999996 0.80859375,1.24218746 1.72265625,1.24218746 1.0546875,0 1.7929688,-0.7265625 1.7929688,-1.52343746 0,-0.6679688 -0.515625,-1.265625 -1.3359375,-1.4414063 0.6328125,-0.2226562 1.1015625,-0.7734375 1.1015625,-1.40625 0,-0.6328125 -0.7148438,-1.0898437 -1.546875,-1.0898437 -0.8554688,0 -1.50000005,0.4570312 -1.50000005,1.0664062 0,0.2929688 0.19921875,0.421875 0.41015625,0.421875 0.2460938,0 0.4101563,-0.1757812 0.4101563,-0.4101562 0,-0.2929688 -0.2578125,-0.3984375 -0.4335938,-0.4101563 0.3398438,-0.4335937 0.9492188,-0.46875 1.0898438,-0.46875 0.2109375,0 0.8085937,0.070312 0.8085937,0.890625 0,0.5625 -0.2226562,0.890625 -0.3398437,1.0195313 -0.234375,0.2460937 -0.421875,0.2578125 -0.9023438,0.2929687 -0.1523437,0.011719 -0.2226562,0.023437 -0.2226562,0.1171875 0,0.1171875 0.070312,0.1171875 0.2109375,0.1171875 z m 0,0"
       style="fill:#000000;fill-opacity:1;fill-rule:nonzero;stroke:none"
       aria-label="3"
       transform="matrix(1.3333333,0,0,1.3333333,55.077333,27.825333)" />
  </g>
</svg>
