<?xml version="1.0" encoding="UTF-8" standalone="no"?>
<!-- Created with Inkscape (http://www.inkscape.org/) -->

<svg
   version="1.1"
   id="svg1"
   width="416.00558"
   height="3060.7466"
   viewBox="0 0 416.00559 3060.7466"
   xmlns="http://www.w3.org/2000/svg"
   xmlns:svg="http://www.w3.org/2000/svg">
  <defs
     id="defs1" />
  <g
     id="g1"
     transform="translate(-0.39783334,-0.48802717)">
    <path
       id="path1"
       d="M 0,0 H 311.8149 M 0,28.3468 H 311.8149 M 0,56.69362 H 311.8149 M 0,85.04042 H 311.8149 M 0,113.38724 H 311.8149 M 0,141.73404 H 311.8149 M 0,170.08086 H 311.8149 M 0,198.42766 H 311.8149 M 0,226.77448 H 311.8149 M 0,255.12128 H 311.8149 M 0,283.4681 H 311.8149 M 0,311.80495 H 311.8149 M 0,0 V 311.8149 M 28.3468,0 V 311.8149 M 56.69362,0 V 311.8149 M 85.04042,0 V 311.8149 M 113.38724,0 V 311.8149 M 141.73404,0 V 311.8149 M 170.08086,0 V 311.8149 M 198.42766,0 V 311.8149 M 226.77448,0 V 311.8149 M 255.12128,0 V 311.8149 M 283.4681,0 V 311.8149 M 311.80495,0 v 311.8149"
       style="fill:none;stroke:#808080;stroke-width:0.19925;stroke-linecap:butt;stroke-linejoin:miter;stroke-miterlimit:10;stroke-dasharray:none;stroke-opacity:1"
       transform="matrix(1.3333333,0,0,-1.3333333,0.53066667,3060.7027)" />
    <path
       id="path2"
       d="m 0,0 c 0,0 1.25378,-8.2e-4 1.73532,0 0.48155,8.2e-4 1.2538,0.0016 1.73534,0.00604 0.48155,0.00444 1.25381,0.0127 1.73535,0.02596 0.48155,0.01324 1.2538,0.03958 1.73534,0.06964 0.48155,0.03004 1.25381,0.08964 1.73535,0.14706 0.48155,0.05742 1.2538,0.16881 1.73533,0.26686 0.48156,0.09806 1.2538,0.28525 1.73534,0.4399 0.48155,0.15466 1.25381,0.44499 1.73535,0.67476 0.48155,0.22978 1.2538,0.65526 1.73534,0.98143 0.48155,0.32617 1.25381,0.92311 1.73535,1.36941 0.48155,0.44632 1.2538,1.25432 1.73534,1.84737 0.48155,0.59305 1.25379,1.65804 1.73533,2.42699 0.48154,0.76893 1.25382,2.13847 1.73535,3.11512 0.48154,0.97666 1.2538,2.70524 1.73534,3.924 0.48153,1.21875 1.25381,3.36192 1.73535,4.85999 0.48154,1.49807 1.2538,4.11979 1.73534,5.93701 0.48154,1.81721 1.2538,4.98169 1.73534,7.16025 0.48153,2.17854 1.25381,5.95611 1.73535,8.54131 0.48153,2.58521 1.25379,7.05141 1.73533,10.0911 0.48154,3.0397 1.25382,8.27283 1.73535,11.81694 0.48154,3.54411 1.2538,9.62473 1.73534,13.72661 0.48153,4.10187 1.2538,11.12155 1.73533,15.83695 0.48154,4.71539 1.25382,12.7614 1.73536,18.14842 0.48154,5.38702 1.2538,14.55789 1.73534,20.67748 0.48153,6.1196 1.25381,16.51255 1.73534,23.42841 0.48154,6.91587 1.2538,18.63784 1.73534,26.4164 0.48154,7.77856 1.2538,20.93582 1.73534,29.64616 0.48153,8.71033 1.25381,23.4182 1.73535,33.13198 0.48153,9.71377 1.2538,26.08757 1.73533,36.87817 0.48154,10.79062 1.25382,28.9483 1.73536,40.89302 0.48154,11.94473 1.2538,32.01705 1.73534,45.19632 0.48153,13.17928 1.25381,35.29567 1.73534,49.79076 0.48154,14.49508 1.2538,38.78398 1.73534,54.67972 0.48154,15.89573 1.2538,42.50129 1.73534,59.88574 0.48153,17.38446 1.25381,46.44645 1.73535,65.40927 0.48153,18.96281 1.2538,50.62759 1.73533,71.2615 0.48154,20.6339 1.25382,55.05228 1.73536,77.45328 0.48154,22.40099 1.2538,59.73134 1.73534,83.99757 0.48153,24.26624 1.2538,64.66489 1.73533,90.89657 0.48154,26.23169 1.25381,69.86271 1.73535,98.16323 0.48154,28.3005 1.2538,75.3317 1.73534,105.807 0.48153,30.4753 1.25381,81.0779 1.73535,113.8375 0.48153,32.7596 1.2538,87.1155 1.73533,122.2707 0.48154,35.1552 1.2538,93.4395 1.73534,131.1036 0.48154,37.664 1.25382,100.0633 1.73536,140.3529 0.48153,40.2897 1.2538,106.9913 1.73533,150.0267 0.48154,43.0354 1.25381,114.2393 1.73535,160.1424 0.48154,45.9032 1.2538,121.801 1.73534,170.6955 0.48153,48.8945 1.73533,181.7023 1.73533,181.7023"
       style="fill:none;stroke:#0000ff;stroke-width:0.79701;stroke-linecap:butt;stroke-linejoin:miter;stroke-miterlimit:10;stroke-dasharray:none;stroke-opacity:1"
       transform="matrix(1.3333333,0,0,-1.3333333,0.53066667,3060.7027)" />
  </g>
</svg>
