<?xml version="1.0" encoding="UTF-8" standalone="no"?>
<!-- Created with Inkscape (http://www.inkscape.org/) -->

<svg
   version="1.1"
   id="svg1"
   width="416.27127"
   height="416.27127"
   viewBox="0 0 416.27127 416.27127"
   xmlns="http://www.w3.org/2000/svg"
   xmlns:svg="http://www.w3.org/2000/svg">
  <defs
     id="defs1" />
  <g
     id="g1"
     transform="translate(3.3332701e-4,-0.0077404)">
    <path
       id="path1"
       d="M 0,0 H 311.8149 M 0,28.3468 H 311.8149 M 0,56.69362 H 311.8149 M 0,85.04042 H 311.8149 M 0,113.38724 H 311.8149 M 0,141.73404 H 311.8149 M 0,170.08086 H 311.8149 M 0,198.42766 H 311.8149 M 0,226.77448 H 311.8149 M 0,255.12128 H 311.8149 M 0,283.4681 H 311.8149 M 0,311.80495 H 311.8149 M 0,0 V 311.8149 M 28.3468,0 V 311.8149 M 56.69362,0 V 311.8149 M 85.04042,0 V 311.8149 M 113.38724,0 V 311.8149 M 141.73404,0 V 311.8149 M 170.08086,0 V 311.8149 M 198.42766,0 V 311.8149 M 226.77448,0 V 311.8149 M 255.12128,0 V 311.8149 M 283.4681,0 V 311.8149 M 311.80495,0 v 311.8149"
       style="fill:none;stroke:#e6e6e6;stroke-width:0.3985;stroke-linecap:butt;stroke-linejoin:miter;stroke-miterlimit:10;stroke-dasharray:none;stroke-opacity:1"
       transform="matrix(1.3333333,0,0,-1.3333333,0.26533333,416.01333)" />
    <path
       id="path2"
       d="m 28.3468,28.3468 h 254.12502 c 0.55023,0 0.99628,0.44605 0.99628,0.99628 v 26.35426 c 0,0.55023 -0.44605,0.99628 -0.99628,0.99628 h -55.69734 m 56.69362,0 v 84.04414 c 0,0.55024 -0.44605,0.99628 -0.99628,0.99628 h -54.70107 c -0.55023,0 -0.99627,0.44604 -0.99627,0.99628 v 26.35426 c 0,0.55023 0.44604,0.99628 0.99627,0.99628 H 254.125 c 0.55025,0 0.99628,0.44603 0.99628,0.99627 v 27.35053 M 283.4681,113.38724 V 283.4681 M 56.69362,56.69362 H 29.34308 c -0.55023,0 -0.99628,0.44603 -0.99628,0.99628 v 54.70106 c 0,0.55024 0.44605,0.99628 0.99628,0.99628 h 26.35426 c 0.55023,0 0.99628,0.44603 0.99628,0.99627 v 55.69735 M 28.3468,113.38724 v 169.08458 c 0,0.55023 0.44605,0.99628 0.99628,0.99628 h 54.70106 c 0.55024,0 0.99628,-0.44605 0.99628,-0.99628 V 255.12128 M 56.69362,283.4681 H 225.7782 c 0.55023,0 0.99628,-0.44605 0.99628,-0.99628 v -27.35054 m 0,28.34682 H 254.125 c 0.55025,0 0.99628,-0.44605 0.99628,-0.99628 v -54.70107 c 0,-0.55023 -0.44603,-0.99627 -0.99628,-0.99627 h -54.70107 c -0.55023,0 -0.99627,0.44604 -0.99627,0.99627 v 27.35053 M 141.73404,28.3468 v 27.35054 c 0,0.55023 0.44604,0.99628 0.99628,0.99628 h 54.70106 c 0.55023,0 0.55023,0 0,0 H 86.0367 c -0.55023,0 -0.99628,0.44603 -0.99628,0.99628 v 0 c 0,-0.55025 0,-0.55025 0,0 v 26.35424 c 0,0.55024 -0.44604,0.99628 -0.99628,0.99628 H 56.69362 m 28.3468,0 v 55.69734 c 0,0.55024 0.44605,0.99628 0.99628,0.99628 h 26.35426 c 0.55024,0 0.99628,0.44604 0.99628,0.99628 v 55.69734 m 0,-28.3468 h 27.35052 c 0.55024,0 0.99628,0.44603 0.99628,0.99627 v 54.70107 c 0,0.55023 -0.44604,0.99628 -0.99628,0.99628 H 86.0367 c -0.55023,0 -0.99628,-0.44605 -0.99628,-0.99628 v -55.69734 m -28.3468,28.3468 V 254.125 c 0,0.55025 0.44603,0.99628 0.99628,0.99628 h 111.39468 c 0.55023,0 0.99628,-0.44603 0.99628,-0.99628 V 142.73032 c 0,-0.55024 -0.44605,-0.99628 -0.99628,-0.99628 h -26.35426 c -0.55024,0 -0.99628,-0.44604 -0.99628,-0.99628 v -26.35425 c 0,-0.55024 -0.44604,-0.99627 -0.99628,-0.99627 h -26.35425 c -0.55024,0 -0.99627,-0.44604 -0.99627,-0.99628 V 86.0367 c 0,-0.55023 0.44603,-0.99628 0.99627,-0.99628 h 27.35053 m 28.34682,0 H 254.125 c 0.55025,0 0.99628,0.44605 0.99628,0.99628 v 26.35426 c 0,0.55024 -0.44603,0.99628 -0.99628,0.99628 h -84.04414 m 28.3468,0 v 84.04414 c 0,0.55023 0.44604,0.99628 0.99627,0.99628 h 27.35055 m -28.34682,-28.3468 h -28.3468"
       style="fill:none;stroke:#000000;stroke-width:1.99255;stroke-linecap:round;stroke-linejoin:miter;stroke-miterlimit:10;stroke-dasharray:none;stroke-opacity:1"
       transform="matrix(1.3333333,0,0,-1.3333333,0.26533333,416.01333)" />
    <path
       id="path3"
       d="M 14.17339,42.5202 H 31.93967"
       style="fill:none;stroke:#ff0000;stroke-width:2.98883;stroke-linecap:butt;stroke-linejoin:miter;stroke-miterlimit:10;stroke-dasharray:none;stroke-opacity:1"
       transform="matrix(1.3333333,0,0,-1.3333333,0.26533333,416.01333)" />
    <path
       id="path4"
       d="M 10.58052,0 C 7.4455,0.5878 2.35123,2.35123 -1.17561,4.40854 V -4.40854 C 2.35123,-2.35123 7.4455,-0.5878 10.58052,0"
       style="fill:#ff0000;fill-opacity:1;fill-rule:nonzero;stroke:none"
       transform="matrix(1.3333333,0,0,-1.3333333,42.85156,359.31973)" />
    <path
       id="path5"
       d="m 269.29468,269.29468 v 17.76628"
       style="fill:none;stroke:#ff0000;stroke-width:2.98883;stroke-linecap:butt;stroke-linejoin:miter;stroke-miterlimit:10;stroke-dasharray:none;stroke-opacity:1"
       transform="matrix(1.3333333,0,0,-1.3333333,0.26533333,416.01333)" />
    <path
       id="path6"
       d="M 10.58052,0 C 7.4455,0.5878 2.35123,2.35123 -1.17561,4.40854 V -4.40854 C 2.35123,-2.35123 7.4455,-0.5878 10.58052,0"
       style="fill:#ff0000;fill-opacity:1;fill-rule:nonzero;stroke:none"
       transform="matrix(0,-1.3333333,-1.3333333,0,359.32491,33.265387)" />
  </g>
</svg>
