<?xml version="1.0" encoding="UTF-8" standalone="no"?>
<!-- Created with Inkscape (http://www.inkscape.org/) -->

<svg
   version="1.1"
   id="svg1"
   width="114.41207"
   height="167.55373"
   viewBox="0 0 114.41207 167.55372"
   xmlns="http://www.w3.org/2000/svg"
   xmlns:svg="http://www.w3.org/2000/svg">
  <defs
     id="defs1" />
  <g
     id="g1"
     transform="translate(-0.26480143,-0.26465262)">
    <path
       id="path1"
       d="m -28.34666,-1.99255 v 3.9851"
       style="fill:none;stroke:#000000;stroke-width:0.3985;stroke-linecap:round;stroke-linejoin:miter;stroke-miterlimit:10;stroke-dasharray:none;stroke-opacity:1"
       transform="matrix(1.3333333,0,0,-1.3333333,57.472,84.036)" />
    <path
       id="path2"
       d="m 28.34666,-1.99255 v 3.9851"
       style="fill:none;stroke:#000000;stroke-width:0.3985;stroke-linecap:round;stroke-linejoin:miter;stroke-miterlimit:10;stroke-dasharray:none;stroke-opacity:1"
       transform="matrix(1.3333333,0,0,-1.3333333,57.472,84.036)" />
    <path
       id="path3"
       d="m -1.99255,-28.34666 h 3.9851"
       style="fill:none;stroke:#000000;stroke-width:0.3985;stroke-linecap:round;stroke-linejoin:miter;stroke-miterlimit:10;stroke-dasharray:none;stroke-opacity:1"
       transform="matrix(1.3333333,0,0,-1.3333333,57.472,84.036)" />
    <path
       id="path4"
       d="m -1.99255,28.34666 h 3.9851"
       style="fill:none;stroke:#000000;stroke-width:0.3985;stroke-linecap:round;stroke-linejoin:miter;stroke-miterlimit:10;stroke-dasharray:none;stroke-opacity:1"
       transform="matrix(1.3333333,0,0,-1.3333333,57.472,84.036)" />
    <path
       id="path5"
       d="M -42.9054,0 H 42.44543"
       style="fill:none;stroke:#000000;stroke-width:0.3985;stroke-linecap:butt;stroke-linejoin:miter;stroke-miterlimit:10;stroke-dasharray:none;stroke-opacity:1"
       transform="matrix(1.3333333,0,0,-1.3333333,57.472,84.036)" />
    <path
       id="path6"
       d="M -1.19551,1.59401 C -1.09587,0.99626 0,0.09961 0.29886,0 0,-0.09961 -1.09587,-0.99626 -1.19551,-1.59401"
       style="fill:none;stroke:#000000;stroke-width:0.31879;stroke-linecap:round;stroke-linejoin:round;stroke-miterlimit:10;stroke-dasharray:none;stroke-opacity:1"
       transform="matrix(1.3333333,0,0,-1.3333333,114.06591,84.036)" />
    <path
       id="path7"
       d="M 0,-62.83679 V 62.37029"
       style="fill:none;stroke:#000000;stroke-width:0.3985;stroke-linecap:butt;stroke-linejoin:miter;stroke-miterlimit:10;stroke-dasharray:none;stroke-opacity:1"
       transform="matrix(1.3333333,0,0,-1.3333333,57.472,84.036)" />
    <path
       id="path8"
       d="M -1.19551,1.59401 C -1.09587,0.99626 0,0.09961 0.29886,0 0,-0.09961 -1.09587,-0.99626 -1.19551,-1.59401"
       style="fill:none;stroke:#000000;stroke-width:0.31879;stroke-linecap:round;stroke-linejoin:round;stroke-miterlimit:10;stroke-dasharray:none;stroke-opacity:1"
       transform="matrix(0,-1.3333333,-1.3333333,0,57.472,0.87561333)" />
    <path
       id="path9"
       d="m -35.43332,-55.36472 c 0,0 5.68887,22.95078 7.87384,29.31527 2.18497,6.3645 5.68891,13.2258 7.87387,16.5556 2.18497,3.32979 5.68889,6.13652 7.87384,7.44327 2.18495,1.30674 5.68891,1.6799 7.87386,1.97491 2.18495,0.295 5.68884,-0.14354 7.87384,0.15134 2.18498,0.29489 5.68913,0.66774 7.87413,1.97406 2.185,1.30633 5.6889,4.11172 7.87387,7.44101 2.18497,3.32928 5.68887,10.19038 7.87384,16.55416 2.18497,6.36378 7.87387,29.31159 7.87387,29.31159"
       style="fill:none;stroke:#000000;stroke-width:0.59776;stroke-linecap:butt;stroke-linejoin:miter;stroke-miterlimit:10;stroke-dasharray:none;stroke-opacity:1"
       transform="matrix(1.3333333,0,0,-1.3333333,57.472,84.036)" />
    <g
       id="g9"
       aria-label="−1"
       transform="matrix(1.3333333,0,0,1.3333333,12.462667,97.082667)">
      <path
         id="path10"
         d="m 5.5651094,-1.8051641 c 0.1289062,0 0.3046875,0 0.3046875,-0.1875 0,-0.1875 -0.1757813,-0.1875 -0.3046875,-0.1875 H 1.0065156 c -0.12890622,0 -0.30468747,0 -0.30468747,0.1875 0,0.1875 0.17578125,0.1875 0.30468747,0.1875 z m 0,0"
         style="fill:#000000;fill-opacity:1;fill-rule:nonzero;stroke:none" />
      <path
         id="path11"
         d="m 9.0953828,-5.0746953 c 0,-0.2226563 -0.023437,-0.2226563 -0.234375,-0.2226563 -0.328125,0.3164063 -0.75,0.5039063 -1.5117187,0.5039063 v 0.2695312 c 0.2226562,0 0.6445312,0 1.1132812,-0.2226562 v 4.08984374 c 0,0.29296875 -0.023437,0.3984375 -0.7851562,0.3984375 h -0.28125 V -4.765625e-4 C 7.7242891,-0.02391406 8.4156953,-0.02391406 8.7672578,-0.02391406 c 0.3632813,0 1.0546875,0 1.3828122,0.0234374975 V -0.25828906 H 9.8688203 c -0.75,0 -0.7734375,-0.10546875 -0.7734375,-0.3984375 z m 0,0"
         style="fill:#000000;fill-opacity:1;fill-rule:nonzero;stroke:none" />
    </g>
    <path
       id="path12"
       d="m 2.5087969,-5.0746953 c 0,-0.2226563 -0.023437,-0.2226563 -0.234375,-0.2226563 -0.328125,0.3164063 -0.75,0.5039063 -1.51171877,0.5039063 v 0.2695312 c 0.22265625,0 0.64453127,0 1.11328127,-0.2226562 v 4.08984374 c 0,0.29296875 -0.023437,0.3984375 -0.7851563,0.3984375 H 0.80957813 V -4.765625e-4 C 1.1377031,-0.02391406 1.8291094,-0.02391406 2.1806719,-0.02391406 c 0.3632812,0 1.0546875,0 1.3828125,0.0234374975 V -0.25828906 h -0.28125 c -0.75,0 -0.7734375,-0.10546875 -0.7734375,-0.3984375 z m 0,0"
       style="fill:#000000;fill-opacity:1;fill-rule:nonzero;stroke:none"
       aria-label="1"
       transform="matrix(1.3333333,0,0,1.3333333,92.444,97.082667)" />
    <g
       id="g12"
       aria-label="−1"
       transform="matrix(1.3333333,0,0,1.3333333,36.846667,124.70133)">
      <path
         id="path13"
         d="m 5.5671484,-1.8033437 c 0.1289063,0 0.3046875,0 0.3046875,-0.1875 0,-0.1875 -0.1757812,-0.1875 -0.3046875,-0.1875 H 1.0085547 c -0.12890626,0 -0.30468751,0 -0.30468751,0.1875 0,0.1875 0.17578125,0.1875 0.30468751,0.1875 z m 0,0"
         style="fill:#000000;fill-opacity:1;fill-rule:nonzero;stroke:none" />
      <path
         id="path14"
         d="m 9.0944922,-5.072875 c 0,-0.2226562 -0.023437,-0.2226562 -0.234375,-0.2226562 -0.328125,0.3164062 -0.75,0.5039062 -1.5117188,0.5039062 v 0.2695313 c 0.2226563,0 0.6445313,0 1.1132813,-0.2226563 v 4.08984375 c 0,0.29296875 -0.023437,0.3984375 -0.7851563,0.3984375 h -0.28125 v 0.2578125 c 0.328125,-0.0234375 1.0195313,-0.0234375 1.3710938,-0.0234375 0.3632812,0 1.0546875,0 1.3828128,0.0234375 v -0.2578125 H 9.8679297 c -0.75,0 -0.7734375,-0.10546875 -0.7734375,-0.3984375 z m 0,0"
         style="fill:#000000;fill-opacity:1;fill-rule:nonzero;stroke:none" />
    </g>
    <path
       id="path15"
       d="m 3.9022109,-2.5426328 c 0,-0.8554688 -0.09375,-1.3710938 -0.3515625,-1.875 -0.3515625,-0.703125 -0.9960937,-0.8789063 -1.4414062,-0.8789063 -0.9960938,0 -1.37109376,0.75 -1.47656251,0.9726563 -0.29296875,0.5742187 -0.3046875,1.3710937 -0.3046875,1.78125 0,0.5273437 0.0234375,1.3359375 0.41015625,1.96874999 0.36328126,0.5859375 0.94921876,0.73828125 1.37109376,0.73828125 0.3867187,0 1.0664062,-0.1171875 1.4648437,-0.90234375 0.2929688,-0.57421879 0.328125,-1.28906249 0.328125,-1.80468749 z m -1.7929687,2.48437499 c -0.2695313,0 -0.8203125,-0.12890625 -0.984375,-0.96093749 -0.09375,-0.4570313 -0.09375,-1.2070313 -0.09375,-1.6171875 0,-0.5507813 0,-1.1132813 0.09375,-1.546875 0.1640625,-0.8085938 0.7851562,-0.890625 0.984375,-0.890625 0.2695312,0 0.8203125,0.1289062 0.984375,0.8554687 0.09375,0.4453125 0.09375,1.0429688 0.09375,1.5820313 0,0.46875 0,1.1835937 -0.09375,1.6289062 -0.1640625,0.84375004 -0.7148438,0.94921879 -0.984375,0.94921879 z m 0,0"
       style="fill:#000000;fill-opacity:1;fill-rule:nonzero;stroke:none"
       aria-label="0"
       transform="matrix(1.3333333,0,0,1.3333333,48.285333,94.425333)" />
    <path
       id="path16"
       d="m 2.5084922,-5.0751719 c 0,-0.2226562 -0.023437,-0.2226562 -0.234375,-0.2226562 -0.328125,0.3164062 -0.75,0.5039062 -1.51171876,0.5039062 v 0.2695313 c 0.22265625,0 0.64453126,0 1.11328126,-0.2226563 v 4.08984378 c 0,0.29296875 -0.023437,0.3984375 -0.7851563,0.3984375 H 0.80927344 V -9.53125e-4 C 1.1373984,-0.02439062 1.8288047,-0.02439062 2.1803672,-0.02439062 c 0.3632812,0 1.0546875,0 1.3828125,0.023437495 V -0.25876562 h -0.28125 c -0.75,0 -0.7734375,-0.10546875 -0.7734375,-0.3984375 z m 0,0"
       style="fill:#000000;fill-opacity:1;fill-rule:nonzero;stroke:none"
       aria-label="1"
       transform="matrix(1.3333333,0,0,1.3333333,45.628,49.665333)" />
  </g>
</svg>
