<?xml version="1.0" encoding="UTF-8" standalone="no"?>
<!-- Created with Inkscape (http://www.inkscape.org/) -->

<svg
   version="1.1"
   id="svg1"
   width="529.79095"
   height="2040.3877"
   viewBox="0 0 529.79095 2040.3877"
   xmlns="http://www.w3.org/2000/svg"
   xmlns:svg="http://www.w3.org/2000/svg">
  <defs
     id="defs1" />
  <g
     id="g1"
     transform="translate(8.507044e-4,-0.49756342)">
    <path
       id="path1"
       d="M 0,0 H 311.8149 M 0,28.3468 H 311.8149 M 0,56.69362 H 311.8149 M 0,85.04042 H 311.8149 M 0,113.38724 H 311.8149 M 0,141.73404 H 311.8149 M 0,170.08086 H 311.8149 M 0,198.42766 H 311.8149 M 0,226.77448 H 311.8149 M 0,255.12128 H 311.8149 M 0,283.4681 H 311.8149 M 0,311.80495 H 311.8149 M 0,0 V 311.8149 M 28.3468,0 V 311.8149 M 56.69362,0 V 311.8149 M 85.04042,0 V 311.8149 M 113.38724,0 V 311.8149 M 141.73404,0 V 311.8149 M 170.08086,0 V 311.8149 M 198.42766,0 V 311.8149 M 226.77448,0 V 311.8149 M 255.12128,0 V 311.8149 M 283.4681,0 V 311.8149 M 311.80495,0 v 311.8149"
       style="fill:none;stroke:#808080;stroke-width:0.19925;stroke-linecap:butt;stroke-linejoin:miter;stroke-miterlimit:10;stroke-dasharray:none;stroke-opacity:1"
       transform="matrix(1.3333333,0,0,-1.3333333,113.91733,1020.38)" />
    <path
       id="path2"
       d="m -85.04042,-765.36386 c 0,0 2.5076,65.99768 3.47069,89.93678 0.96309,23.9391 2.5076,60.65315 3.47069,82.59961 0.96308,21.94646 2.50759,55.53477 3.47068,75.5752 0.96309,20.04042 2.5076,50.64122 3.47069,68.86221 0.96309,18.22098 2.5076,45.97368 3.47069,62.46194 0.96309,16.48827 2.50758,41.53185 3.47067,56.37398 0.96309,14.84214 2.5076,37.31511 3.47069,50.59786 0.96309,13.28274 2.5076,33.32496 3.47069,45.1349 0.96309,11.80995 2.5076,29.5594 3.47069,39.98296 0.96308,10.42355 2.50759,26.01884 3.47068,35.14285 0.96309,9.12401 2.50759,22.70563 3.47068,30.61677 0.96308,7.91114 2.50759,19.61644 3.47068,26.40125 0.96309,6.78479 2.5076,16.75389 3.47069,22.49888 0.96309,5.745 2.5076,14.11518 3.47069,18.90711 0.96309,4.79192 2.5076,11.70431 3.47069,15.62976 0.96309,3.92543 2.5076,9.51656 3.47068,12.66212 0.96309,3.14556 2.50759,7.55646 3.47068,10.00892 0.96309,2.45246 2.5076,5.82096 3.47069,7.66674 0.96308,1.84578 2.50759,4.31064 3.47068,5.6364 0.96309,1.32578 2.5076,3.02628 3.47069,3.91881 0.96309,0.89251 2.5076,1.96809 3.47069,2.5139 0.96309,0.54581 2.50758,1.13437 3.47067,1.42003 0.96309,0.28566 2.5076,0.52668 3.47069,0.63885 0.96309,0.11216 2.50758,0.14431 3.47069,0.16956 0.96309,0.02524 2.50755,-0.01254 3.47065,0.01251 0.96309,0.02507 2.50759,0.0567 3.47069,0.16826 0.96309,0.11154 2.50757,0.35124 3.47068,0.63582 0.96308,0.28458 2.50758,0.87102 3.47068,1.41527 0.96309,0.54426 2.50759,1.61688 3.47069,2.50741 0.96309,0.89054 2.50758,2.5876 3.47069,3.91103 0.96309,1.32341 2.50758,3.7843 3.47069,5.6273 0.96309,1.84302 2.50758,5.20677 3.47068,7.65593 0.96309,2.44916 2.50757,6.85407 3.47068,9.99596 0.96309,3.14191 2.50758,8.72736 3.47068,12.6487 0.96309,3.92135 2.50759,10.82634 3.47068,15.61375 0.9631,4.78743 2.5076,13.1506 3.47068,18.89069 0.96311,5.74008 2.5076,15.70059 3.4707,22.47986 0.9631,6.77928 2.50758,18.47521 3.47067,26.38048 0.9631,7.90525 2.50759,21.47724 3.47068,30.59515 0.96311,9.1179 2.5076,24.70345 3.47069,35.12036 0.96311,10.4169 2.5076,28.15474 3.47069,39.95743 0.9631,11.80267 2.5076,31.83285 3.47069,45.10807 0.9631,13.27524 2.5076,35.73641 3.47068,50.57062 0.96311,14.83421 2.50759,39.86421 3.47068,56.34413 0.9631,16.47991 2.5076,44.21946 3.47069,62.43166 0.9631,18.21222 2.50759,48.79829 3.47068,68.82934 0.96309,20.03106 2.5076,53.60392 3.47069,75.54059 0.96309,21.93669 2.5076,58.63483 3.47069,82.56374 0.96309,23.92889 3.47067,89.89912 3.47067,89.89912"
       style="fill:none;stroke:#0000ff;stroke-width:0.79701;stroke-linecap:butt;stroke-linejoin:miter;stroke-miterlimit:10;stroke-dasharray:none;stroke-opacity:1"
       transform="matrix(1.3333333,0,0,-1.3333333,113.91733,1020.38)" />
  </g>
</svg>
