<?xml version="1.0" encoding="UTF-8" standalone="no"?>
<!-- Created with Inkscape (http://www.inkscape.org/) -->

<svg
   version="1.1"
   id="svg1"
   width="280.44931"
   height="229.0107"
   viewBox="0 0 280.44931 229.0107"
   xmlns="http://www.w3.org/2000/svg"
   xmlns:svg="http://www.w3.org/2000/svg">
  <defs
     id="defs1" />
  <g
     id="g1"
     transform="translate(-4.9414063,0.00287839)">
    <path
       id="path1"
       d="m 0,-13.45044 v 4.25256 m 32.3787,-4.25256 v 4.25256 m 32.37869,-4.25256 v 4.25256 m 32.37869,-4.25256 v 4.25256 m 32.37869,-4.25256 v 4.25256 m 32.37869,-4.25256 v 4.25256 M 0,147.94691 v -4.25257 m 32.3787,4.25257 v -4.25257 m 32.37869,4.25257 v -4.25257 m 32.37869,4.25257 v -4.25257 m 32.37869,4.25257 v -4.25257 m 32.37869,4.25257 v -4.25257"
       style="fill:none;stroke:#808080;stroke-width:0.19925;stroke-linecap:butt;stroke-linejoin:miter;stroke-miterlimit:10;stroke-dasharray:none;stroke-opacity:1"
       transform="matrix(1.3333333,0,0,-1.3333333,47.68,197.52533)" />
    <path
       id="path2"
       d="m -16.1903,0 h 4.2522 m -4.2522,26.89929 h 4.2522 m -4.2522,26.89929 h 4.2522 m -4.2522,26.8993 h 4.2522 m -4.2522,26.89929 h 4.2522 m -4.2522,26.89929 h 4.2522 M 178.08379,0 h -4.25223 m 4.25223,26.89929 h -4.25223 m 4.25223,26.89929 h -4.25223 m 4.25223,26.8993 h -4.25223 m 4.25223,26.89929 h -4.25223 m 4.25223,26.89929 h -4.25223"
       style="fill:none;stroke:#808080;stroke-width:0.19925;stroke-linecap:butt;stroke-linejoin:miter;stroke-miterlimit:10;stroke-dasharray:none;stroke-opacity:1"
       transform="matrix(1.3333333,0,0,-1.3333333,47.68,197.52533)" />
    <path
       id="path3"
       d="M -16.1903,-13.45044 V 147.94691 H 178.08379 V -13.45044 Z"
       style="fill:none;stroke:#000000;stroke-width:0.3985;stroke-linecap:butt;stroke-linejoin:miter;stroke-miterlimit:10;stroke-dasharray:none;stroke-opacity:1"
       transform="matrix(1.3333333,0,0,-1.3333333,47.68,197.52533)" />
    <path
       id="path4"
       d="m 4.5815625,-3.1882969 c 0,-0.796875 -0.046875,-1.59375 -0.3984375,-2.3320312 -0.4570313,-0.9609375 -1.2773438,-1.1132813 -1.6875,-1.1132813 -0.5976563,0 -1.3359375,0.2578125 -1.734375,1.1835938 -0.328125,0.6914062 -0.375,1.4648437 -0.375,2.2617187 0,0.75 0.046875,1.640625 0.4453125,2.40234377 0.4335937,0.80859375 1.1601562,1.0078125 1.6523437,1.0078125 0.5390625,0 1.2890625,-0.2109375 1.734375,-1.16015625 C 4.5346875,-1.6297031 4.5815625,-2.4031406 4.5815625,-3.1882969 Z M 2.4839062,-7.96875e-4 c -0.3867187,0 -0.984375,-0.246093755 -1.1601562,-1.207031225 -0.1054688,-0.5976563 -0.1054688,-1.5117188 -0.1054688,-2.0976563 0,-0.6445312 0,-1.3007812 0.082031,-1.8398437 0.1875,-1.1835938 0.9257812,-1.265625 1.1835937,-1.265625 0.328125,0 0.984375,0.1757812 1.171875,1.1601562 0.09375,0.5625 0.09375,1.3125 0.09375,1.9453125 0,0.75 0,1.4179688 -0.1054687,2.0625 -0.1523438,0.93750002 -0.7148438,1.242187525 -1.160156,1.242187525 z m 0,0"
       style="fill:#000000;fill-opacity:1;fill-rule:nonzero;stroke:none"
       aria-label="0"
       transform="matrix(1.3333333,0,0,1.3333333,44.36,228.712)" />
    <g
       id="g4"
       aria-label="0.2"
       transform="matrix(1.3333333,0,0,1.3333333,82.365333,228.712)">
      <path
         id="path5"
         d="m 4.5834219,-3.1882969 c 0,-0.796875 -0.046875,-1.59375 -0.3984375,-2.3320312 -0.4570313,-0.9609375 -1.2773438,-1.1132813 -1.6875,-1.1132813 -0.5976563,0 -1.3359375,0.2578125 -1.73437503,1.1835938 -0.328125,0.6914062 -0.375,1.4648437 -0.375,2.2617187 0,0.75 0.046875,1.640625 0.4453125,2.40234377 0.43359373,0.80859375 1.16015623,1.0078125 1.65234373,1.0078125 0.5390625,0 1.2890625,-0.2109375 1.734375,-1.16015625 C 4.5365469,-1.6297031 4.5834219,-2.4031406 4.5834219,-3.1882969 Z M 2.4857656,-7.96875e-4 c -0.3867187,0 -0.984375,-0.246093755 -1.1601562,-1.207031225 -0.1054688,-0.5976563 -0.1054688,-1.5117188 -0.1054688,-2.0976563 0,-0.6445312 0,-1.3007812 0.082031,-1.8398437 0.1875,-1.1835938 0.9257812,-1.265625 1.1835937,-1.265625 0.328125,0 0.984375,0.1757812 1.171875,1.1601562 0.09375,0.5625 0.09375,1.3125 0.09375,1.9453125 0,0.75 0,1.4179688 -0.1054687,2.0625 -0.1523438,0.93750002 -0.7148438,1.242187525 -1.160156,1.242187525 z m 0,0"
         style="fill:#000000;fill-opacity:1;fill-rule:nonzero;stroke:none" />
      <path
         id="path6"
         d="m 6.8920156,-0.52814063 c 0,-0.29296875 -0.234375,-0.52734377 -0.5273437,-0.52734377 -0.28125,0 -0.5273438,0.23437502 -0.5273438,0.52734377 0,0.29296875 0.2460938,0.527343755 0.5273438,0.527343755 0.2929687,0 0.5273437,-0.234375005 0.5273437,-0.527343755 z m 0,0"
         style="fill:#000000;fill-opacity:1;fill-rule:nonzero;stroke:none" />
      <path
         id="path7"
         d="M 9.0131094,-0.76251563 10.067797,-1.7937656 c 1.558594,-1.3710938 2.15625,-1.9101563 2.15625,-2.90625 0,-1.1367188 -0.902344,-1.9335938 -2.121094,-1.9335938 -1.1249999,0 -1.8515624,0.9140625 -1.8515624,1.8046875 0,0.5507813 0.4921875,0.5507813 0.5273438,0.5507813 0.1640625,0 0.515625,-0.1171875 0.515625,-0.5273438 0,-0.2578125 -0.1875,-0.515625 -0.5273438,-0.515625 -0.082031,0 -0.1054687,0 -0.1289062,0.011719 0.2226562,-0.6445313 0.7617187,-1.0195313 1.3359375,-1.0195313 0.9140621,0 1.3359371,0.8085938 1.3359371,1.6289063 0,0.796875 -0.492187,1.5820312 -1.042968,2.203125 L 8.3568594,-0.36407813 C 8.2513906,-0.25860938 8.2513906,-0.23517188 8.2513906,-7.96875e-4 h 3.6914064 l 0.28125,-1.734375025 h -0.257813 c -0.04687,0.3046875 -0.117187,0.73828127 -0.210937,0.89062502 -0.07031,0.0820313 -0.726563,0.0820313 -0.949219,0.0820313 z m 0,0"
         style="fill:#000000;fill-opacity:1;fill-rule:nonzero;stroke:none" />
    </g>
    <g
       id="g7"
       aria-label="0.4"
       transform="matrix(1.3333333,0,0,1.3333333,125.536,228.712)">
      <path
         id="path8"
         d="m 4.5813984,-3.1882969 c 0,-0.796875 -0.046875,-1.59375 -0.3984375,-2.3320312 -0.4570312,-0.9609375 -1.2773437,-1.1132813 -1.6875,-1.1132813 -0.5976562,0 -1.3359375,0.2578125 -1.73437496,1.1835938 -0.328125,0.6914062 -0.375,1.4648437 -0.375,2.2617187 0,0.75 0.046875,1.640625 0.4453125,2.40234377 0.43359376,0.80859375 1.16015626,1.0078125 1.65234376,1.0078125 0.5390625,0 1.2890625,-0.2109375 1.734375,-1.16015625 C 4.5345234,-1.6297031 4.5813984,-2.4031406 4.5813984,-3.1882969 Z M 2.4837422,-7.96875e-4 c -0.3867188,0 -0.984375,-0.246093755 -1.1601563,-1.207031225 -0.1054687,-0.5976563 -0.1054687,-1.5117188 -0.1054687,-2.0976563 0,-0.6445312 0,-1.3007812 0.082031,-1.8398437 0.1875,-1.1835938 0.9257813,-1.265625 1.1835938,-1.265625 0.328125,0 0.984375,0.1757812 1.171875,1.1601562 0.09375,0.5625 0.09375,1.3125 0.09375,1.9453125 0,0.75 0,1.4179688 -0.1054688,2.0625 -0.1523437,0.93750002 -0.7148437,1.242187525 -1.160156,1.242187525 z m 0,0"
         style="fill:#000000;fill-opacity:1;fill-rule:nonzero;stroke:none" />
      <path
         id="path9"
         d="m 6.8899922,-0.52814063 c 0,-0.29296875 -0.234375,-0.52734377 -0.5273438,-0.52734377 -0.28125,0 -0.5273437,0.23437502 -0.5273437,0.52734377 0,0.29296875 0.2460937,0.527343755 0.5273437,0.527343755 0.2929688,0 0.5273438,-0.234375005 0.5273438,-0.527343755 z m 0,0"
         style="fill:#000000;fill-opacity:1;fill-rule:nonzero;stroke:none" />
      <path
         id="path10"
         d="m 10.678078,-1.6414219 v 0.86718752 c 0,0.3515625 -0.02344,0.46875 -0.7617186,0.46875 H 9.7054219 V -7.96875e-4 C 10.115578,-0.03595313 10.642922,-0.03595313 11.053078,-0.03595313 c 0.421875,0 0.949219,0 1.359375,0.035156255 V -0.30548438 h -0.210937 c -0.738282,0 -0.761719,-0.1171875 -0.761719,-0.46875 V -1.6414219 h 0.996094 v -0.3164062 h -0.996094 v -4.5234375 c 0,-0.1992188 0,-0.2578125 -0.152344,-0.2578125 -0.09375,0 -0.117187,0 -0.199219,0.1171875 l -3.0585934,4.6640625 v 0.3164062 z m 0.05859,-0.3164062 H 8.3108906 l 2.4257814,-3.7148438 z m 0,0"
         style="fill:#000000;fill-opacity:1;fill-rule:nonzero;stroke:none" />
    </g>
    <g
       id="g10"
       aria-label="0.6"
       transform="matrix(1.3333333,0,0,1.3333333,168.70667,228.712)">
      <path
         id="path11"
         d="m 4.5823047,-3.1882969 c 0,-0.796875 -0.046875,-1.59375 -0.3984375,-2.3320312 -0.4570313,-0.9609375 -1.2773438,-1.1132813 -1.6875,-1.1132813 -0.5976563,0 -1.3359375,0.2578125 -1.73437501,1.1835938 -0.328125,0.6914062 -0.375,1.4648437 -0.375,2.2617187 0,0.75 0.046875,1.640625 0.4453125,2.40234377 0.43359371,0.80859375 1.16015621,1.0078125 1.65234371,1.0078125 0.5390625,0 1.2890625,-0.2109375 1.734375,-1.16015625 C 4.5354297,-1.6297031 4.5823047,-2.4031406 4.5823047,-3.1882969 Z M 2.4846484,-7.96875e-4 c -0.3867187,0 -0.984375,-0.246093755 -1.1601562,-1.207031225 -0.1054688,-0.5976563 -0.1054688,-1.5117188 -0.1054688,-2.0976563 0,-0.6445312 0,-1.3007812 0.082031,-1.8398437 0.1875,-1.1835938 0.9257812,-1.265625 1.1835937,-1.265625 0.328125,0 0.984375,0.1757812 1.171875,1.1601562 0.09375,0.5625 0.09375,1.3125 0.09375,1.9453125 0,0.75 0,1.4179688 -0.1054687,2.0625 -0.1523438,0.93750002 -0.7148438,1.242187525 -1.160156,1.242187525 z m 0,0"
         style="fill:#000000;fill-opacity:1;fill-rule:nonzero;stroke:none" />
      <path
         id="path12"
         d="m 6.8908984,-0.52814063 c 0,-0.29296875 -0.234375,-0.52734377 -0.5273437,-0.52734377 -0.28125,0 -0.5273438,0.23437502 -0.5273438,0.52734377 0,0.29296875 0.2460938,0.527343755 0.5273438,0.527343755 0.2929687,0 0.5273437,-0.234375005 0.5273437,-0.527343755 z m 0,0"
         style="fill:#000000;fill-opacity:1;fill-rule:nonzero;stroke:none" />
      <path
         id="path13"
         d="m 9.0617969,-3.2703281 v -0.234375 c 0,-2.5195313 1.2421871,-2.8828125 1.7460941,-2.8828125 0.234375,0 0.65625,0.058594 0.878906,0.3984375 -0.152344,0 -0.550781,0 -0.550781,0.4453125 0,0.3164062 0.234375,0.4570312 0.457031,0.4570312 0.164062,0 0.457031,-0.082031 0.457031,-0.46875 0,-0.5976562 -0.433594,-1.078125 -1.265625,-1.078125 -1.2773436,0 -2.6132811,1.2890625 -2.6132811,3.4804688 0,2.66015622 1.1484375,3.37499997 2.0742191,3.37499997 1.113281,0 2.050781,-0.9375 2.050781,-2.24999997 0,-1.265625 -0.878906,-2.2265625 -1.992188,-2.2265625 -0.6679684,0 -1.0429684,0.5039062 -1.2421871,0.984375 z m 1.1835941,3.21093747 c -0.6210941,0 -0.9257816,-0.59765625 -0.9843754,-0.75 C 9.0852344,-1.2781406 9.0852344,-2.0750156 9.0852344,-2.2507969 c 0,-0.7734375 0.3164062,-1.7695312 1.2187496,-1.7695312 0.152344,0 0.609375,0 0.925782,0.609375 0.175781,0.375 0.175781,0.8789062 0.175781,1.3710937 0,0.4804688 0,0.9726563 -0.164063,1.33593752 -0.304687,0.59765625 -0.761718,0.64453125 -0.996093,0.64453125 z m 0,0"
         style="fill:#000000;fill-opacity:1;fill-rule:nonzero;stroke:none" />
    </g>
    <g
       id="g13"
       aria-label="0.8"
       transform="matrix(1.3333333,0,0,1.3333333,211.87867,228.712)">
      <path
         id="path14"
         d="m 4.5822109,-3.1882969 c 0,-0.796875 -0.046875,-1.59375 -0.3984375,-2.3320312 -0.4570312,-0.9609375 -1.2773437,-1.1132813 -1.6875,-1.1132813 -0.5976562,0 -1.3359375,0.2578125 -1.73437496,1.1835938 -0.328125,0.6914062 -0.375,1.4648437 -0.375,2.2617187 0,0.75 0.046875,1.640625 0.4453125,2.40234377 0.43359376,0.80859375 1.16015626,1.0078125 1.65234376,1.0078125 0.5390625,0 1.2890625,-0.2109375 1.734375,-1.16015625 C 4.5353359,-1.6297031 4.5822109,-2.4031406 4.5822109,-3.1882969 Z M 2.4845547,-7.96875e-4 c -0.3867188,0 -0.984375,-0.246093755 -1.1601563,-1.207031225 -0.1054687,-0.5976563 -0.1054687,-1.5117188 -0.1054687,-2.0976563 0,-0.6445312 0,-1.3007812 0.082031,-1.8398437 0.1875,-1.1835938 0.9257813,-1.265625 1.1835938,-1.265625 0.328125,0 0.984375,0.1757812 1.171875,1.1601562 0.09375,0.5625 0.09375,1.3125 0.09375,1.9453125 0,0.75 0,1.4179688 -0.1054688,2.0625 C 3.492367,-0.30548438 2.929867,-7.96875e-4 2.4845547,-7.96875e-4 Z m 0,0"
         style="fill:#000000;fill-opacity:1;fill-rule:nonzero;stroke:none" />
      <path
         id="path15"
         d="m 6.8908047,-0.52814063 c 0,-0.29296875 -0.234375,-0.52734377 -0.5273438,-0.52734377 -0.28125,0 -0.5273437,0.23437502 -0.5273437,0.52734377 0,0.29296875 0.2460937,0.527343755 0.5273437,0.527343755 0.2929688,0 0.5273438,-0.234375005 0.5273438,-0.527343755 z m 0,0"
         style="fill:#000000;fill-opacity:1;fill-rule:nonzero;stroke:none" />
      <path
         id="path16"
         d="m 9.3781094,-4.5476719 c -0.46875,-0.3046875 -0.5039063,-0.6445312 -0.5039063,-0.8085937 0,-0.609375 0.6445313,-1.03125 1.3593749,-1.03125 0.726563,0 1.359375,0.515625 1.359375,1.2421875 0,0.5625 -0.386719,1.0429687 -0.984375,1.3945312 z m 1.4531246,0.9375 c 0.714844,-0.3632812 1.207032,-0.8789062 1.207032,-1.5351562 0,-0.9257813 -0.890625,-1.4882813 -1.792969,-1.4882813 -0.9960939,0 -1.8046876,0.7382813 -1.8046876,1.6640625 0,0.1757813 0.011719,0.6210938 0.4335937,1.0898438 0.1054688,0.1289062 0.4804688,0.375 0.7265625,0.5390625 -0.5742187,0.2929687 -1.4296875,0.84375 -1.4296875,1.8398437 0,1.05468752 1.0078125,1.72265627 2.0624999,1.72265627 1.125,0 2.0625,-0.83203125 2.0625,-1.89843747 0,-0.3515625 -0.105469,-0.8085938 -0.480469,-1.21875 -0.1875,-0.2109375 -0.351562,-0.3164063 -0.984375,-0.7148438 z m -0.9960934,0.421875 1.2187504,0.7734375 c 0.28125,0.1875 0.75,0.4921875 0.75,1.1015625 0,0.73828127 -0.75,1.25390627 -1.558594,1.25390627 -0.8671876,0 -1.5820314,-0.62109375 -1.5820314,-1.44140627 0,-0.5859375 0.3164063,-1.21875 1.171875,-1.6875 z m 0,0"
         style="fill:#000000;fill-opacity:1;fill-rule:nonzero;stroke:none" />
    </g>
    <path
       id="path17"
       d="m 2.9298203,-6.3757969 c 0,-0.234375 0,-0.2578125 -0.234375,-0.2578125 -0.609375,0.6328125 -1.4882812,0.6328125 -1.80468749,0.6328125 v 0.3164063 c 0.19921879,0 0.78515629,0 1.30078129,-0.2578125 v 5.15624997 c 0,0.3515625 -0.035156,0.48046875 -0.9257813,0.48046875 H 0.94935156 V -7.96875e-4 C 1.3009141,-0.03595313 2.1563828,-0.03595313 2.5548203,-0.03595313 c 0.3984375,0 1.265625,0 1.6171875,0.035156255 V -0.30548438 H 3.8556016 c -0.9023438,0 -0.9257813,-0.1171875 -0.9257813,-0.48046875 z m 0,0"
       style="fill:#000000;fill-opacity:1;fill-rule:nonzero;stroke:none"
       aria-label="1"
       transform="matrix(1.3333333,0,0,1.3333333,260.21467,228.712)" />
    <path
       id="path18"
       d="m 4.5813906,-3.1879844 c 0,-0.796875 -0.046875,-1.59375 -0.3984375,-2.3320312 -0.4570312,-0.9609375 -1.2773437,-1.1132813 -1.6875,-1.1132813 -0.5976562,0 -1.3359375,0.2578125 -1.73437498,1.1835938 -0.328125,0.6914062 -0.375,1.4648437 -0.375,2.2617187 0,0.75 0.046875,1.640625 0.4453125,2.40234377 0.43359378,0.80859375 1.16015628,1.0078125 1.65234378,1.0078125 0.5390625,0 1.2890625,-0.2109375 1.734375,-1.16015625 C 4.5345156,-1.6293906 4.5813906,-2.4028281 4.5813906,-3.1879844 Z M 2.4837344,-4.84375e-4 c -0.3867188,0 -0.984375,-0.246093755 -1.1601563,-1.207031225 -0.1054687,-0.5976563 -0.1054687,-1.5117188 -0.1054687,-2.0976563 0,-0.6445312 0,-1.3007812 0.082031,-1.8398437 0.1875,-1.1835938 0.9257813,-1.265625 1.1835938,-1.265625 0.328125,0 0.984375,0.1757812 1.171875,1.1601562 0.09375,0.5625 0.09375,1.3125 0.09375,1.9453125 0,0.75 0,1.4179688 -0.1054688,2.0625 -0.1523437,0.93750002 -0.7148437,1.242187525 -1.160156,1.242187525 z m 0,0"
       style="fill:#000000;fill-opacity:1;fill-rule:nonzero;stroke:none"
       aria-label="0"
       transform="matrix(1.3333333,0,0,1.3333333,14.758667,201.80533)" />
    <g
       id="g18"
       aria-label="0.2"
       transform="matrix(1.3333333,0,0,1.3333333,4.4266667,165.94)">
      <path
         id="path19"
         d="m 4.5813672,-3.1864453 c 0,-0.796875 -0.046875,-1.59375 -0.3984375,-2.3320313 -0.4570313,-0.9609375 -1.2773438,-1.1132812 -1.6875,-1.1132812 -0.5976563,0 -1.3359375,0.2578125 -1.73437501,1.1835937 -0.328125,0.6914063 -0.375,1.4648438 -0.375,2.2617188 0,0.75 0.046875,1.640625 0.4453125,2.40234374 0.43359371,0.80859375 1.16015621,1.0078125 1.65234371,1.0078125 0.5390625,0 1.2890625,-0.2109375 1.734375,-1.16015625 C 4.5344922,-1.6278516 4.5813672,-2.4012891 4.5813672,-3.1864453 Z M 2.4837109,0.00105469 c -0.3867187,0 -0.984375,-0.24609375 -1.1601562,-1.20703129 -0.1054688,-0.5976562 -0.1054688,-1.5117187 -0.1054688,-2.0976562 0,-0.6445313 0,-1.3007813 0.082031,-1.8398438 0.1875,-1.1835937 0.9257812,-1.265625 1.1835937,-1.265625 0.328125,0 0.984375,0.1757813 1.171875,1.1601563 0.09375,0.5625 0.09375,1.3125 0.09375,1.9453125 0,0.75 0,1.4179687 -0.1054687,2.0625 -0.1523438,0.93749999 -0.7148438,1.24218749 -1.160156,1.24218749 z m 0,0"
         style="fill:#000000;fill-opacity:1;fill-rule:nonzero;stroke:none" />
      <path
         id="path20"
         d="m 6.8928906,-0.52628906 c 0,-0.29296875 -0.234375,-0.52734374 -0.5273437,-0.52734374 -0.28125,0 -0.5273438,0.23437499 -0.5273438,0.52734374 0,0.29296875 0.2460938,0.52734375 0.5273438,0.52734375 0.2929687,0 0.5273437,-0.234375 0.5273437,-0.52734375 z m 0,0"
         style="fill:#000000;fill-opacity:1;fill-rule:nonzero;stroke:none" />
      <path
         id="path21"
         d="M 9.0139844,-0.76066406 10.068672,-1.7919141 c 1.558594,-1.3710937 2.15625,-1.9101562 2.15625,-2.90625 0,-1.1367187 -0.902344,-1.9335937 -2.121094,-1.9335937 -1.1249999,0 -1.8515624,0.9140625 -1.8515624,1.8046875 0,0.5507812 0.4921875,0.5507812 0.5273438,0.5507812 0.1640625,0 0.515625,-0.1171875 0.515625,-0.5273437 0,-0.2578125 -0.1875,-0.515625 -0.5273438,-0.515625 -0.082031,0 -0.1054687,0 -0.1289062,0.011719 C 8.8616406,-5.95207 9.4007031,-6.32707 9.9749219,-6.32707 c 0.9140621,0 1.3359371,0.8085937 1.3359371,1.6289062 0,0.796875 -0.492187,1.5820313 -1.042968,2.203125 L 8.3577344,-0.36222656 C 8.2522656,-0.25675781 8.2522656,-0.23332031 8.2522656,0.00105469 h 3.6914064 l 0.28125,-1.73437499 h -0.257813 c -0.04687,0.3046875 -0.117187,0.73828124 -0.210937,0.89062499 -0.07031,0.0820313 -0.726563,0.0820313 -0.949219,0.0820313 z m 0,0"
         style="fill:#000000;fill-opacity:1;fill-rule:nonzero;stroke:none" />
    </g>
    <g
       id="g21"
       aria-label="0.4"
       transform="matrix(1.3333333,0,0,1.3333333,4.4266667,130.07467)">
      <path
         id="path22"
         d="m 4.5813672,-3.1878359 c 0,-0.796875 -0.046875,-1.59375 -0.3984375,-2.3320313 -0.4570313,-0.9609375 -1.2773438,-1.1132812 -1.6875,-1.1132812 -0.5976563,0 -1.3359375,0.2578125 -1.73437501,1.1835937 -0.328125,0.6914063 -0.375,1.4648438 -0.375,2.2617188 0,0.75 0.046875,1.640625 0.4453125,2.40234371 0.43359371,0.80859375 1.16015621,1.0078125 1.65234371,1.0078125 0.5390625,0 1.2890625,-0.2109375 1.734375,-1.16015625 C 4.5344922,-1.6292422 4.5813672,-2.4026797 4.5813672,-3.1878359 Z M 2.4837109,-3.359375e-4 c -0.3867187,0 -0.984375,-0.2460937525 -1.1601562,-1.2070312625 -0.1054688,-0.5976562 -0.1054688,-1.5117187 -0.1054688,-2.0976562 0,-0.6445313 0,-1.3007813 0.082031,-1.8398438 0.1875,-1.1835937 0.9257812,-1.265625 1.1835937,-1.265625 0.328125,0 0.984375,0.1757813 1.171875,1.1601563 0.09375,0.5625 0.09375,1.3125 0.09375,1.9453125 0,0.75 0,1.4179687 -0.1054687,2.0625 -0.1523438,0.93749996 -0.7148438,1.2421874625 -1.160156,1.2421874625 z m 0,0"
         style="fill:#000000;fill-opacity:1;fill-rule:nonzero;stroke:none" />
      <path
         id="path23"
         d="m 6.8928906,-0.52767969 c 0,-0.29296875 -0.234375,-0.52734371 -0.5273437,-0.52734371 -0.28125,0 -0.5273438,0.23437496 -0.5273438,0.52734371 0,0.29296875 0.2460938,0.5273437525 0.5273438,0.5273437525 0.2929687,0 0.5273437,-0.2343750025 0.5273437,-0.5273437525 z m 0,0"
         style="fill:#000000;fill-opacity:1;fill-rule:nonzero;stroke:none" />
      <path
         id="path24"
         d="m 10.678047,-1.6409609 v 0.86718746 c 0,0.3515625 -0.02344,0.46875 -0.7617189,0.46875 H 9.7053906 V -3.359375e-4 C 10.115547,-0.03549219 10.642891,-0.03549219 11.053047,-0.03549219 c 0.421875,0 0.949219,0 1.359375,0.0351562525 V -0.30502344 h -0.210938 c -0.738281,0 -0.761718,-0.1171875 -0.761718,-0.46875 V -1.6409609 h 0.996093 v -0.3164063 h -0.996093 v -4.5234375 c 0,-0.1992187 0,-0.2578125 -0.152344,-0.2578125 -0.09375,0 -0.117188,0 -0.199219,0.1171875 l -3.0585936,4.6640625 v 0.3164063 z m 0.05859,-0.3164063 H 8.3108594 l 2.4257816,-3.7148437 z m 0,0"
         style="fill:#000000;fill-opacity:1;fill-rule:nonzero;stroke:none" />
    </g>
    <g
       id="g24"
       aria-label="0.6"
       transform="matrix(1.3333333,0,0,1.3333333,4.4266667,94.209333)">
      <path
         id="path25"
         d="m 4.5813672,-3.1862969 c 0,-0.796875 -0.046875,-1.59375 -0.3984375,-2.3320312 -0.4570313,-0.9609375 -1.2773438,-1.1132813 -1.6875,-1.1132813 -0.5976563,0 -1.3359375,0.2578125 -1.73437501,1.1835938 -0.328125,0.6914062 -0.375,1.4648437 -0.375,2.2617187 0,0.75 0.046875,1.640625 0.4453125,2.40234377 0.43359371,0.80859375 1.16015621,1.0078125 1.65234371,1.0078125 0.5390625,0 1.2890625,-0.2109375 1.734375,-1.16015625 C 4.5344922,-1.6277031 4.5813672,-2.4011406 4.5813672,-3.1862969 Z M 2.4837109,0.00120312 c -0.3867187,0 -0.984375,-0.24609375 -1.1601562,-1.20703122 -0.1054688,-0.5976563 -0.1054688,-1.5117188 -0.1054688,-2.0976563 0,-0.6445312 0,-1.3007812 0.082031,-1.8398437 0.1875,-1.1835938 0.9257812,-1.265625 1.1835937,-1.265625 0.328125,0 0.984375,0.1757812 1.171875,1.1601562 0.09375,0.5625 0.09375,1.3125 0.09375,1.9453125 0,0.75 0,1.4179688 -0.1054687,2.0625 -0.1523438,0.93750002 -0.7148438,1.24218752 -1.160156,1.24218752 z m 0,0"
         style="fill:#000000;fill-opacity:1;fill-rule:nonzero;stroke:none" />
      <path
         id="path26"
         d="m 6.8928906,-0.52614063 c 0,-0.29296875 -0.234375,-0.52734377 -0.5273437,-0.52734377 -0.28125,0 -0.5273438,0.23437502 -0.5273438,0.52734377 0,0.29296875 0.2460938,0.52734375 0.5273438,0.52734375 0.2929687,0 0.5273437,-0.234375 0.5273437,-0.52734375 z m 0,0"
         style="fill:#000000;fill-opacity:1;fill-rule:nonzero;stroke:none" />
      <path
         id="path27"
         d="m 9.0608594,-3.2683281 v -0.234375 c 0,-2.5195313 1.2421876,-2.8828125 1.7460936,-2.8828125 0.234375,0 0.65625,0.058594 0.878906,0.3984375 -0.152343,0 -0.550781,0 -0.550781,0.4453125 0,0.3164062 0.234375,0.4570312 0.457031,0.4570312 0.164063,0 0.457032,-0.082031 0.457032,-0.46875 0,-0.5976562 -0.433594,-1.078125 -1.265625,-1.078125 -1.2773441,0 -2.6132816,1.2890625 -2.6132816,3.4804688 0,2.66015622 1.1484375,3.37499997 2.0742186,3.37499997 1.113281,0 2.050781,-0.9375 2.050781,-2.24999997 0,-1.265625 -0.878906,-2.2265625 -1.992187,-2.2265625 -0.6679689,0 -1.0429689,0.5039062 -1.2421876,0.984375 z m 1.1835936,3.21093747 c -0.6210936,0 -0.9257811,-0.59765625 -0.9843749,-0.75 C 9.0842969,-1.2761406 9.0842969,-2.0730156 9.0842969,-2.2487969 c 0,-0.7734375 0.3164062,-1.7695312 1.2187501,-1.7695312 0.152344,0 0.609375,0 0.925781,0.609375 0.175781,0.375 0.175781,0.8789062 0.175781,1.3710937 0,0.4804688 0,0.9726563 -0.164062,1.33593752 -0.304688,0.59765625 -0.761719,0.64453125 -0.996094,0.64453125 z m 0,0"
         style="fill:#000000;fill-opacity:1;fill-rule:nonzero;stroke:none" />
    </g>
    <g
       id="g27"
       aria-label="0.8"
       transform="matrix(1.3333333,0,0,1.3333333,4.4266667,58.344)">
      <path
         id="path28"
         d="m 4.5813672,-3.1876875 c 0,-0.796875 -0.046875,-1.59375 -0.3984375,-2.3320313 C 3.7258984,-6.4806563 2.9055859,-6.633 2.4954297,-6.633 c -0.5976563,0 -1.3359375,0.2578125 -1.73437501,1.1835937 -0.328125,0.6914063 -0.375,1.4648438 -0.375,2.2617188 0,0.75 0.046875,1.640625 0.4453125,2.40234375 0.43359371,0.80859375 1.16015621,1.0078125 1.65234371,1.0078125 0.5390625,0 1.2890625,-0.2109375 1.734375,-1.16015625 0.3164063,-0.6914063 0.3632813,-1.4648438 0.3632813,-2.25 z m -2.0976563,3.1875 c -0.3867187,0 -0.984375,-0.24609375 -1.1601562,-1.2070313 C 1.2180859,-1.804875 1.2180859,-2.7189375 1.2180859,-3.304875 c 0,-0.6445313 0,-1.3007813 0.082031,-1.8398438 0.1875,-1.1835937 0.9257812,-1.265625 1.1835937,-1.265625 0.328125,0 0.984375,0.1757813 1.171875,1.1601563 0.09375,0.5625 0.09375,1.3125 0.09375,1.9453125 0,0.75 0,1.4179687 -0.1054687,2.0625 -0.1523438,0.9375 -0.7148438,1.2421875 -1.160156,1.2421875 z m 0,0"
         style="fill:#000000;fill-opacity:1;fill-rule:nonzero;stroke:none" />
      <path
         id="path29"
         d="m 6.8928906,-0.52753125 c 0,-0.29296875 -0.234375,-0.52734375 -0.5273437,-0.52734375 -0.28125,0 -0.5273438,0.234375 -0.5273438,0.52734375 0,0.29296875 0.2460938,0.52734375 0.5273438,0.52734375 0.2929687,0 0.5273437,-0.234375 0.5273437,-0.52734375 z m 0,0"
         style="fill:#000000;fill-opacity:1;fill-rule:nonzero;stroke:none" />
      <path
         id="path30"
         d="M 9.3772656,-4.5470625 C 8.9085156,-4.85175 8.8733594,-5.1915938 8.8733594,-5.3556563 c 0,-0.609375 0.6445312,-1.03125 1.3593746,-1.03125 0.726563,0 1.359375,0.515625 1.359375,1.2421875 0,0.5625 -0.386718,1.0429688 -0.984375,1.3945313 z m 1.4531254,0.9375 c 0.714843,-0.3632813 1.207031,-0.8789063 1.207031,-1.5351563 0,-0.9257812 -0.890625,-1.4882812 -1.792969,-1.4882812 -0.9960936,0 -1.8046874,0.7382812 -1.8046874,1.6640625 0,0.1757812 0.011719,0.6210937 0.4335938,1.0898437 0.1054687,0.1289063 0.4804687,0.375 0.7265625,0.5390625 -0.5742188,0.2929688 -1.4296875,0.84375 -1.4296875,1.8398438 0,1.0546875 1.0078125,1.72265625 2.0624996,1.72265625 1.125,0 2.0625,-0.83203125 2.0625,-1.89843755 0,-0.3515625 -0.105468,-0.8085937 -0.480468,-1.21875 -0.1875,-0.2109375 -0.351563,-0.3164062 -0.984375,-0.7148437 z m -0.9960941,0.421875 1.2187501,0.7734375 c 0.28125,0.1875 0.75,0.4921875 0.75,1.1015625 0,0.73828125 -0.75,1.25390625 -1.558594,1.25390625 -0.8671874,0 -1.5820311,-0.62109375 -1.5820311,-1.44140625 0,-0.5859375 0.3164062,-1.21875 1.171875,-1.6875 z m 0,0"
         style="fill:#000000;fill-opacity:1;fill-rule:nonzero;stroke:none" />
    </g>
    <path
       id="path31"
       d="m 2.9290469,-6.3736484 c 0,-0.234375 0,-0.2578125 -0.234375,-0.2578125 -0.609375,0.6328125 -1.4882813,0.6328125 -1.80468753,0.6328125 v 0.3164062 c 0.19921873,0 0.78515623,0 1.30078123,-0.2578125 v 5.15625001 c 0,0.3515625 -0.035156,0.48046875 -0.9257812,0.48046875 H 0.94857812 v 0.3046875 C 1.3001406,-0.03380469 2.1556094,-0.03380469 2.5540469,-0.03380469 c 0.3984375,0 1.265625,0 1.6171875,0.03515625 v -0.3046875 H 3.8548281 c -0.9023437,0 -0.9257812,-0.1171875 -0.9257812,-0.48046875 z m 0,0"
       style="fill:#000000;fill-opacity:1;fill-rule:nonzero;stroke:none"
       aria-label="1"
       transform="matrix(1.3333333,0,0,1.3333333,14.758667,22.478667)" />
  </g>
</svg>
