<?xml version="1.0" encoding="UTF-8" standalone="no"?>
<!-- Created with Inkscape (http://www.inkscape.org/) -->

<svg
   version="1.1"
   id="svg1"
   width="152.21696"
   height="604.52484"
   viewBox="0 0 152.21696 604.52484"
   xmlns="http://www.w3.org/2000/svg"
   xmlns:svg="http://www.w3.org/2000/svg">
  <defs
     id="defs1" />
  <g
     id="g1"
     transform="translate(-4.3249766e-4,-0.48236008)">
    <path
       id="path1"
       d="M -56.69362,-56.69362 H 56.69362 M -56.69362,-28.3468 H 56.69362 M -56.69362,0 H 56.69362 M -56.69362,28.3468 H 56.69362 M -56.69362,56.68365 H 56.69362 M -56.69362,-56.69362 V 56.69362 M -28.3468,-56.69362 V 56.69362 M 0,-56.69362 V 56.69362 M 28.3468,-56.69362 V 56.69362 M 56.68365,-56.69362 V 56.69362"
       style="fill:none;stroke:#808080;stroke-width:0.19925;stroke-linecap:butt;stroke-linejoin:miter;stroke-miterlimit:10;stroke-dasharray:none;stroke-opacity:1"
       transform="matrix(1.3333333,0,0,-1.3333333,76.121333,302.596)" />
    <path
       id="path2"
       d="m -56.69362,-226.77448 c 0,0 1.67163,19.55428 2.31366,26.64695 0.64203,7.09266 1.67162,17.96989 2.31365,24.47215 0.64202,6.50224 1.67163,16.45396 2.31365,22.39162 0.64202,5.93763 1.67161,15.00421 2.31363,20.40281 0.64203,5.39861 1.67162,13.62126 2.31365,18.50656 0.64203,4.88532 1.67163,12.3057 2.31366,16.70333 0.64201,4.39763 1.67162,11.05626 2.31364,14.99177 0.64203,3.93552 1.67162,9.87361 2.31363,13.37278 0.64203,3.49916 1.67163,8.75831 2.31366,11.84678 0.64201,3.08849 1.67162,7.70943 2.31365,10.41292 0.64202,2.70349 1.67161,6.72792 2.31362,9.07205 0.64203,2.34413 1.67164,5.81249 2.31366,7.82288 0.64203,2.0104 1.67162,4.96429 2.31365,6.6667 0.64203,1.70241 1.67163,4.18312 2.31364,5.6031 0.64203,1.41998 1.67162,3.46796 2.31365,4.6312 0.64202,1.16324 1.67162,2.82057 2.31364,3.7527 0.64203,0.93213 1.67163,2.23872 2.31366,2.96548 0.64202,0.72677 1.67162,1.72547 2.31365,2.27254 0.64203,0.54708 1.67161,1.2775 2.31363,1.67047 0.64202,0.39298 1.67163,0.8972 2.31366,1.16179 0.64201,0.2646 1.67161,0.58347 2.31364,0.74527 0.64203,0.16179 1.67162,0.33617 2.31363,0.42085 0.64203,0.08468 1.67163,0.15615 2.31366,0.18946 0.64201,0.03331 1.67161,0.04312 2.31365,0.05061 0.64202,0.00748 1.6716,-0.00394 2.3136,0.00342 0.64204,0.00737 1.67162,0.0168 2.31365,0.04974 C 4.10318,0.0844 5.13277,0.155 5.7748,0.23918 6.41682,0.32336 7.44643,0.4972 8.08846,0.65831 8.73047,0.81944 9.76007,1.1369 10.4021,1.40053 c 0.64203,0.26364 1.67162,0.7661 2.31363,1.15791 0.64203,0.39182 1.67163,1.12042 2.31366,1.66614 0.64201,0.5457 1.67161,1.54167 2.31364,2.26694 0.64203,0.72525 1.67162,2.02984 2.31363,2.96029 0.64203,0.93045 1.67164,2.58452 2.31366,3.74578 0.64202,1.16127 1.67162,3.20607 2.31365,4.62382 0.64203,1.41776 1.67163,3.8945 2.31364,5.59445 0.64203,1.69994 1.67162,4.64981 2.31364,6.65763 0.64203,2.00781 1.67162,5.47198 2.31365,7.81337 0.64203,2.34137 1.67163,6.36117 2.31366,9.06166 0.64201,2.7005 1.67161,7.31638 2.31364,10.40168 0.64203,3.0853 1.6716,8.3393 2.31363,11.8351 0.64203,3.4958 1.67163,9.42826 2.31366,13.36023 0.64201,3.93198 1.67162,10.58502 2.31365,14.97881 0.64203,4.39378 1.67161,11.80739 2.31363,16.6886 0.64203,4.88122 1.67163,13.09747 2.31366,18.49186 0.64201,5.39438 1.67161,14.45404 2.31364,20.38724 0.64203,5.93321 1.67163,15.87758 2.31364,22.3752 0.64203,6.49763 1.67162,17.36746 2.31365,24.45526 0.64203,7.0878 2.31364,26.62877 2.31364,26.62877"
       style="fill:none;stroke:#0000ff;stroke-width:0.79701;stroke-linecap:butt;stroke-linejoin:miter;stroke-miterlimit:10;stroke-dasharray:none;stroke-opacity:1"
       transform="matrix(1.3333333,0,0,-1.3333333,76.121333,302.596)" />
  </g>
</svg>
