<?xml version="1.0" encoding="UTF-8" standalone="no"?>
<!-- Created with Inkscape (http://www.inkscape.org/) -->

<svg
   version="1.1"
   id="svg1"
   width="302.884"
   height="302.884"
   viewBox="0 0 302.884 302.884"
   xmlns="http://www.w3.org/2000/svg"
   xmlns:svg="http://www.w3.org/2000/svg">
  <defs
     id="defs1" />
  <g
     id="g1"
     transform="translate(3.3332701e-4,-0.0096609)">
    <path
       id="path1"
       d="M 0,0 H 226.77448 M 0,28.3468 H 226.77448 M 0,56.69362 H 226.77448 M 0,85.04042 H 226.77448 M 0,113.38724 H 226.77448 M 0,141.73404 H 226.77448 M 0,170.08086 H 226.77448 M 0,198.42766 H 226.77448 M 0,226.76451 H 226.77448 M 0,0 V 226.77448 M 28.3468,0 V 226.77448 M 56.69362,0 V 226.77448 M 85.04042,0 V 226.77448 M 113.38724,0 V 226.77448 M 141.73404,0 V 226.77448 M 170.08086,0 V 226.77448 M 198.42766,0 V 226.77448 M 226.76451,0 v 226.77448"
       style="fill:none;stroke:#000000;stroke-width:0.3985;stroke-linecap:butt;stroke-linejoin:miter;stroke-miterlimit:10;stroke-dasharray:none;stroke-opacity:1"
       transform="matrix(1.3333333,0,0,-1.3333333,0.26533333,302.628)" />
  </g>
</svg>
