<?xml version="1.0" encoding="UTF-8" standalone="no"?>
<!-- Created with Inkscape (http://www.inkscape.org/) -->

<svg
   version="1.1"
   id="svg1"
   width="83.476562"
   height="11.953125"
   viewBox="0 0 83.476562 11.953125"
   xmlns="http://www.w3.org/2000/svg"
   xmlns:svg="http://www.w3.org/2000/svg">
  <defs
     id="defs1" />
  <g
     id="g1"
     transform="translate(-20.378906,-0.0039065)">
    <path
       id="path1"
       d="m 3.7854922,-0.55178906 v 0.65625 l 1.4648437,-0.10546875 v -0.3046875 c -0.703125,0 -0.7734375,-0.0703125 -0.7734375,-0.5625 V -6.9150703 l -1.4414062,0.1054687 v 0.3164063 c 0.703125,0 0.7851562,0.070312 0.7851562,0.5507812 v 2.15625 c -0.2929687,-0.3632812 -0.7265625,-0.6210937 -1.265625,-0.6210937 -1.171875,0 -2.21484371,0.984375 -2.21484371,2.2617187 0,1.26562504 0.97265621,2.25000004 2.10937501,2.25000004 0.6445312,0 1.0898437,-0.33984375 1.3359375,-0.65625 z m 0,-2.67187504 v 2.0507813 c 0,0.17578124 0,0.19921874 -0.1054688,0.36328124 -0.3046875,0.48046875 -0.75,0.703125 -1.1835937,0.703125 -0.4453125,0 -0.796875,-0.2578125 -1.0429688,-0.64453125 C 1.1956484,-1.1611641 1.1604922,-1.7236641 1.1604922,-2.1338203 c 0,-0.3632813 0.023437,-0.9609375 0.3164062,-1.4179688 0.2109375,-0.3046875 0.5859375,-0.6328125 1.125,-0.6328125 0.3515625,0 0.7617188,0.1523438 1.078125,0.5976563 0.1054688,0.1640625 0.1054688,0.1875 0.1054688,0.3632812 z m 3.5068359,-1.1835937 -1.3945312,0.1171875 v 0.3046875 c 0.65625,0 0.7382812,0.058594 0.7382812,0.5507812 v 2.67187504 c 0,0.45703125 -0.1054687,0.45703125 -0.7734375,0.45703125 v 0.3046875 c 0.3164063,-0.01171875 0.8554688,-0.03515625 1.1015625,-0.03515625 0.3398438,0 0.6914063,0.0234375 1.03125,0.03515625 v -0.3046875 c -0.65625,0 -0.703125,-0.0585938 -0.703125,-0.4453125 z m 0.046875,-1.734375 c 0,-0.3164063 -0.2460937,-0.5273438 -0.5273437,-0.5273438 -0.3164063,0 -0.5273438,0.2695313 -0.5273438,0.5273438 0,0.2695312 0.2109375,0.5273437 0.5273438,0.5273437 0.28125,0 0.5273437,-0.1992187 0.5273437,-0.5273437 z m 2.6279297,2.8359375 v -1.1015625 l -1.3828125,0.1171875 v 0.3046875 c 0.6914063,0 0.7734375,0.070312 0.7734375,0.5625 v 2.66015624 c 0,0.45703125 -0.1054687,0.45703125 -0.7734375,0.45703125 v 0.3046875 c 0.3867188,-0.01171875 0.8554688,-0.03515625 1.1367188,-0.03515625 0.3984379,0 0.8671879,0 1.2656249,0.03515625 v -0.3046875 h -0.210937 c -0.738282,0 -0.761719,-0.1171875 -0.761719,-0.46875 V -2.3096016 c 0,-0.984375 0.421875,-1.875 1.183594,-1.875 0.05859,0 0.08203,0 0.105468,0.011719 -0.03516,0.011719 -0.234375,0.1289062 -0.234375,0.3867187 0,0.28125 0.210938,0.4335938 0.433594,0.4335938 0.175781,0 0.421875,-0.1289063 0.421875,-0.4453125 0,-0.3164063 -0.304687,-0.609375 -0.726562,-0.609375 -0.738282,0 -1.089844,0.6679687 -1.2304692,1.1015623 z m 3.3515622,0.796875 c 0.05859,-1.4882813 0.902344,-1.734375 1.242188,-1.734375 1.019531,0 1.125,1.3476562 1.125,1.734375 z m -0.01172,0.2109375 h 2.789062 c 0.210938,0 0.246094,0 0.246094,-0.2109375 0,-0.984375 -0.539063,-1.9570313 -1.78125,-1.9570313 -1.160156,0 -2.074219,1.03125 -2.074219,2.2734375 0,1.33593754 1.042969,2.29687504 2.191406,2.29687504 1.21875,0 1.664063,-1.1015625 1.664063,-1.28906254 0,-0.1054687 -0.08203,-0.1171875 -0.128906,-0.1171875 -0.09375,0 -0.117188,0.058594 -0.128907,0.140625 -0.351562,1.01953129 -1.253906,1.01953129 -1.347656,1.01953129 -0.503906,0 -0.902344,-0.29296875 -1.125,-0.66796875 C 13.306977,-1.2900703 13.306977,-1.9463203 13.306977,-2.2978828 Z m 4.485351,0.1289062 c 0,-1.6289062 0.820313,-2.0507812 1.347656,-2.0507812 0.09375,0 0.714844,0.011719 1.066407,0.375 -0.410157,0.023437 -0.46875,0.328125 -0.46875,0.4570312 0,0.2578125 0.1875,0.4570313 0.457031,0.4570313 0.257812,0 0.457031,-0.1640625 0.457031,-0.46875 0,-0.6796875 -0.75,-1.0664063 -1.523437,-1.0664063 -1.242188,0 -2.15625,1.078125 -2.15625,2.3085938 0,1.27734374 0.984375,2.26171874 2.144531,2.26171874 1.335937,0 1.652344,-1.19531254 1.652344,-1.28906254 0,-0.1054687 -0.105469,-0.1054687 -0.128907,-0.1054687 -0.09375,0 -0.117187,0.046875 -0.128906,0.1054687 -0.292969,0.92578129 -0.9375,1.04296879 -1.3125,1.04296879 -0.527344,0 -1.40625,-0.421875 -1.40625,-2.02734379 z m 4.989258,-1.8164062 h 1.429687 V -4.2900703 H 22.781584 V -6.1299141 H 22.53549 c -0.01172,0.8203125 -0.316406,1.8867188 -1.289062,1.921875 v 0.2226563 h 0.84375 v 2.7539062 c 0,1.21875004 0.925781,1.33593754 1.289062,1.33593754 0.703125,0 0.984375,-0.703125 0.984375,-1.33593754 v -0.5742187 h -0.246094 v 0.5507812 c 0,0.73828129 -0.304687,1.11328129 -0.667968,1.11328129 -0.667969,0 -0.667969,-0.90234379 -0.667969,-1.07812499 z m 3.266601,1.4765625 c 0.05859,-1.4882813 0.902344,-1.734375 1.242188,-1.734375 1.019531,0 1.125,1.3476562 1.125,1.734375 z m -0.01172,0.2109375 h 2.789062 c 0.210938,0 0.246094,0 0.246094,-0.2109375 0,-0.984375 -0.539063,-1.9570313 -1.78125,-1.9570313 -1.160156,0 -2.074219,1.03125 -2.074219,2.2734375 0,1.33593754 1.042969,2.29687504 2.191406,2.29687504 1.21875,0 1.664063,-1.1015625 1.664063,-1.28906254 0,-0.1054687 -0.08203,-0.1171875 -0.128906,-0.1171875 -0.09375,0 -0.117188,0.058594 -0.128907,0.140625 -0.351562,1.01953129 -1.253906,1.01953129 -1.347656,1.01953129 -0.503906,0 -0.902344,-0.29296875 -1.125,-0.66796875 C 26.036469,-1.2900703 26.036469,-1.9463203 26.036469,-2.2978828 Z m 7.110351,1.74609374 v 0.65625 l 1.464844,-0.10546875 v -0.3046875 c -0.703125,0 -0.773437,-0.0703125 -0.773437,-0.5625 V -6.9150703 l -1.441407,0.1054687 v 0.3164063 c 0.703125,0 0.785157,0.070312 0.785157,0.5507812 v 2.15625 c -0.292969,-0.3632812 -0.726563,-0.6210937 -1.265625,-0.6210937 -1.171875,0 -2.214844,0.984375 -2.214844,2.2617187 0,1.26562504 0.972656,2.25000004 2.109375,2.25000004 0.644531,0 1.089844,-0.33984375 1.335937,-0.65625 z m 0,-2.67187504 v 2.0507813 c 0,0.17578124 0,0.19921874 -0.105468,0.36328124 -0.304688,0.48046875 -0.75,0.703125 -1.183594,0.703125 -0.445313,0 -0.796875,-0.2578125 -1.042969,-0.64453125 C 30.556977,-1.1611641 30.52182,-1.7236641 30.52182,-2.1338203 c 0,-0.3632813 0.02344,-0.9609375 0.316407,-1.4179688 0.210937,-0.3046875 0.585937,-0.6328125 1.125,-0.6328125 0.351562,0 0.761718,0.1523438 1.078125,0.5976563 0.105468,0.1640625 0.105468,0.1875 0.105468,0.3632812 z m 7.283203,1.5117188 c -0.867187,0 -0.867187,-0.9960938 -0.867187,-1.2304688 0,-0.2695312 0.01172,-0.5859375 0.152344,-0.8320312 0.08203,-0.1171875 0.316406,-0.3984375 0.714843,-0.3984375 0.867188,0 0.867188,0.9960937 0.867188,1.21875 0,0.2695312 -0.01172,0.5976562 -0.164063,0.84375 -0.08203,0.1171875 -0.304687,0.3984375 -0.703125,0.3984375 z m -1.160156,0.3867187 c 0,-0.035156 0,-0.2695312 0.175781,-0.46875 0.386719,0.28125 0.796875,0.3046875 0.984375,0.3046875 0.925782,0 1.605469,-0.6796875 1.605469,-1.453125 0,-0.3632812 -0.152344,-0.7382812 -0.398437,-0.9609375 0.351562,-0.3398437 0.714843,-0.3867187 0.890625,-0.3867187 0.02344,0 0.07031,0 0.105468,0 -0.117187,0.046875 -0.164062,0.1523437 -0.164062,0.2695312 0,0.1757813 0.128906,0.2929688 0.292969,0.2929688 0.09375,0 0.28125,-0.070312 0.28125,-0.2929688 0,-0.1757812 -0.117188,-0.4921875 -0.503907,-0.4921875 -0.199218,0 -0.632812,0.058594 -1.054687,0.46875 -0.421875,-0.328125 -0.84375,-0.3632812 -1.054688,-0.3632812 -0.925781,0 -1.617187,0.6914062 -1.617187,1.453125 0,0.4453125 0.222656,0.8203125 0.46875,1.03125 -0.128906,0.1523437 -0.304688,0.4804687 -0.304688,0.8203125 0,0.31640624 0.128907,0.69140624 0.433594,0.89062499 -0.597656,0.17578125 -0.914062,0.59765625 -0.914062,0.99609375 0,0.71484376 0.984375,1.26562496 2.203125,1.26562496 1.171875,0 2.203125,-0.5039062 2.203125,-1.28906246 0,-0.33984375 -0.140625,-0.85546875 -0.644532,-1.125 -0.527343,-0.28125 -1.101562,-0.28125 -1.710937,-0.28125 -0.246094,0 -0.679688,0 -0.75,-0.0117188 -0.316406,-0.046875 -0.527344,-0.35156254 -0.527344,-0.66796874 z m 1.441406,3.1523438 c -1.007812,0 -1.699218,-0.515625 -1.699218,-1.04296876 0,-0.45703125 0.375,-0.8203125 0.820312,-0.85546875 h 0.585938 c 0.855468,0 1.96875,0 1.96875,0.85546875 0,0.53906246 -0.703125,1.04296876 -1.675782,1.04296876 z m 4.148438,-5.1328125 v -1.1015625 l -1.382813,0.1171875 v 0.3046875 c 0.691407,0 0.773438,0.070312 0.773438,0.5625 v 2.66015624 c 0,0.45703125 -0.105469,0.45703125 -0.773438,0.45703125 v 0.3046875 c 0.386719,-0.01171875 0.855469,-0.03515625 1.136719,-0.03515625 0.398438,0 0.867188,0 1.265625,0.03515625 v -0.3046875 h -0.210937 c -0.738282,0 -0.761719,-0.1171875 -0.761719,-0.46875 V -2.3096016 c 0,-0.984375 0.421875,-1.875 1.183594,-1.875 0.05859,0 0.08203,0 0.105468,0.011719 -0.03516,0.011719 -0.234375,0.1289062 -0.234375,0.3867187 0,0.28125 0.210938,0.4335938 0.433594,0.4335938 0.175781,0 0.421875,-0.1289063 0.421875,-0.4453125 0,-0.3164063 -0.304687,-0.609375 -0.726562,-0.609375 -0.738282,0 -1.089844,0.6679687 -1.230469,1.1015623 z m 5.554687,2.54296874 c 0.03516,0.3984375 0.304688,0.8203125 0.773438,0.8203125 0.210937,0 0.820312,-0.140625 0.820312,-0.94921875 V -1.4424141 h -0.246093 v 0.55078129 c 0,0.5859375 -0.246094,0.64453125 -0.363282,0.64453125 -0.328125,0 -0.363281,-0.45703125 -0.363281,-0.50390625 V -2.7431953 c 0,-0.4101563 0,-0.8085938 -0.363281,-1.171875 -0.386719,-0.3867188 -0.878906,-0.5507813 -1.359375,-0.5507813 -0.820313,0 -1.511719,0.46875 -1.511719,1.125 0,0.3046875 0.199219,0.46875 0.457031,0.46875 0.28125,0 0.46875,-0.1992187 0.46875,-0.4570312 0,-0.1171875 -0.05859,-0.4453125 -0.515625,-0.4570313 0.269532,-0.3515625 0.761719,-0.4570312 1.078125,-0.4570312 0.492188,0 1.054688,0.3867187 1.054688,1.2773437 v 0.3632813 c -0.503906,0.035156 -1.207031,0.058594 -1.828125,0.3632812 -0.75,0.3398438 -0.996094,0.8554688 -0.996094,1.28906254 0,0.80859375 0.960938,1.0546875 1.59375,1.0546875 0.65625,0 1.113281,-0.3984375 1.300781,-0.8671875 z m -0.07031,-1.62890624 v 0.9960937 c 0,0.94921879 -0.714844,1.28906254 -1.160156,1.28906254 -0.492188,0 -0.902344,-0.3515625 -0.902344,-0.85546875 0,-0.53906249 0.421875,-1.37109379 2.0625,-1.42968749 z m 3.445312,-1.359375 v -0.65625 l -1.429687,0.1171875 v 0.3046875 c 0.703125,0 0.773437,0.058594 0.773437,0.4921875 v 4.6640625 c 0,0.4570312 -0.105468,0.4570312 -0.773437,0.4570312 v 0.3046875 c 0.339844,-0.011719 0.855469,-0.035156 1.113281,-0.035156 0.269531,0 0.773438,0.023437 1.125,0.035156 V 1.6278984 c -0.667969,0 -0.773437,0 -0.773437,-0.4570312 v -1.75781251 c 0.04687,0.15234375 0.46875,0.69140625 1.21875,0.69140625 1.183593,0 2.226562,-0.97265625 2.226562,-2.26171874 0,-1.265625 -0.972656,-2.25 -2.085937,-2.25 -0.773438,0 -1.195313,0.4453125 -1.394532,0.65625 z m 0.03516,2.6132812 v -2.2148437 c 0.28125,-0.515625 0.773437,-0.796875 1.277343,-0.796875 0.726563,0 1.335938,0.8671875 1.335938,1.9921875 0,1.20703124 -0.691406,2.05078124 -1.429688,2.05078124 -0.398437,0 -0.773437,-0.19921875 -1.042968,-0.609375 -0.140625,-0.2109375 -0.140625,-0.22265625 -0.140625,-0.42187504 z m 4.892578,0.37500004 c 0,0.45703125 -0.117188,0.45703125 -0.785156,0.45703125 v 0.3046875 c 0.351562,-0.01171875 0.855468,-0.03515625 1.125,-0.03515625 0.257812,0 0.785156,0.0234375 1.113281,0.03515625 v -0.3046875 c -0.65625,0 -0.773438,0 -0.773438,-0.45703125 V -2.5908516 c 0,-1.03125 0.714844,-1.59375 1.347657,-1.59375 0.621093,0 0.738281,0.5390625 0.738281,1.1015625 v 2.32031254 c 0,0.45703125 -0.117188,0.45703125 -0.773438,0.45703125 v 0.3046875 c 0.339844,-0.01171875 0.855469,-0.03515625 1.125,-0.03515625 0.257813,0 0.773438,0.0234375 1.113282,0.03515625 v -0.3046875 c -0.515625,0 -0.773438,0 -0.785157,-0.3046875 V -2.5088203 c 0,-0.8554688 0,-1.171875 -0.304687,-1.5234375 -0.140625,-0.1757813 -0.46875,-0.375 -1.042969,-0.375 -0.84375,0 -1.277344,0.5976562 -1.441406,0.984375 v -3.4921875 l -1.441406,0.1054687 v 0.3164063 c 0.703125,0 0.785156,0.070312 0.785156,0.5507812 z m 0,0"
       style="fill:#000000;fill-opacity:1;fill-rule:nonzero;stroke:none"
       aria-label="directedgraph"
       transform="matrix(1.3333333,0,0,1.3333333,19.925333,9.224)" />
  </g>
</svg>
