<?xml version="1.0" encoding="UTF-8" standalone="no"?>
<!-- Created with Inkscape (http://www.inkscape.org/) -->

<svg
   version="1.1"
   id="svg1"
   width="348.71631"
   height="114.44993"
   viewBox="0 0 348.71631 114.44993"
   xmlns="http://www.w3.org/2000/svg"
   xmlns:svg="http://www.w3.org/2000/svg">
  <defs
     id="defs1" />
  <g
     id="g1"
     transform="translate(-4.9140625,0.00232288)">
    <path
       id="path1"
       d="m 2.9426719,-2.2031328 h -0.1875 l -0.1875,0.421875 c -0.2109375,-0.28125 -0.5039063,-0.421875 -0.8554688,-0.421875 -0.73828122,0 -1.34765622,0.5039062 -1.34765622,1.1367187 0,0.60937504 0.5859375,1.12500004 1.30078122,1.12500004 0.3046875,0 0.609375,-0.12890625 0.8320313,-0.33984375 v 0.83203125 c 0,0.15234375 0,0.19921875 -0.328125,0.19921875 h -0.082031 v 0.2109375 c 0.2109375,-0.0117188 0.421875,-0.0117188 0.6328125,-0.0117188 0.2109375,0 0.421875,0 0.6328125,0.0117188 v -0.2109375 h -0.09375 c -0.3164062,0 -0.3164062,-0.046875 -0.3164062,-0.19921875 z m -0.421875,1.46484374 c 0,0.09375 0,0.1171875 -0.09375,0.24609375 -0.2226563,0.31640625 -0.5507813,0.38671875 -0.7265625,0.38671875 -0.4804688,0 -0.84375002,-0.4453125 -0.84375002,-0.96093754 0,-0.5390625 0.42187502,-0.9609375 0.90234372,-0.9609375 0.4453125,0 0.7617188,0.3867188 0.7617188,0.6796875 z m 5.765625,-0.76171874 c 0,-0.6210938 -0.46875,-0.703125 -0.84375,-0.703125 -0.4921875,0 -0.7734375,0.2460937 -0.9140625,0.46875 -0.1171875,-0.4570313 -0.6328125,-0.46875 -0.8085938,-0.46875 -0.515625,0 -0.8085937,0.28125 -0.9257812,0.4921875 v -0.4921875 l -0.8203125,0.058594 v 0.2226563 c 0.3632812,0 0.4101562,0.023437 0.4101562,0.2695312 v 1.23046879 c 0,0.15234375 0,0.19921875 -0.3164062,0.19921875 h -0.09375 V -7.8125e-6 C 4.1848594,-0.01172656 4.3957969,-0.02344531 4.6067344,-0.02344531 c 0.2109375,0 0.421875,0.01171875 0.6328125,0.0234374975 V -0.22266406 h -0.082031 c -0.328125,0 -0.328125,-0.046875 -0.328125,-0.19921875 V -1.2890703 c 0,-0.5507813 0.5039063,-0.75 0.8320313,-0.75 0.3632812,0 0.4570312,0.2109375 0.4570312,0.5273437 v 1.08984379 c 0,0.15234375 0,0.19921875 -0.328125,0.19921875 h -0.09375 V -7.8125e-6 C 5.9192344,-0.01172656 6.1184531,-0.02344531 6.3411094,-0.02344531 c 0.2109375,0 0.421875,0.01171875 0.6328125,0.0234374975 V -0.22266406 h -0.09375 c -0.328125,0 -0.328125,-0.046875 -0.328125,-0.19921875 V -1.2890703 c 0,-0.5507813 0.515625,-0.75 0.8320312,-0.75 0.3632813,0 0.4570313,0.2109375 0.4570313,0.5273437 v 1.08984379 c 0,0.15234375 0,0.19921875 -0.328125,0.19921875 H 7.4309531 V -7.8125e-6 C 7.6418906,-0.01172656 7.8528281,-0.02344531 8.0637656,-0.02344531 c 0.2109375,0 0.421875,0.01171875 0.6328125,0.0234374975 V -0.22266406 h -0.082031 c -0.328125,0 -0.328125,-0.046875 -0.328125,-0.19921875 z m 2.8388671,-1.8984375 v 0.2109375 c 0.375,0 0.421875,0.035156 0.421875,0.28125 v 0.9726562 c -0.117187,-0.09375 -0.386719,-0.2695312 -0.796875,-0.2695312 -0.75,0 -1.3593749,0.5039062 -1.3593749,1.1367187 0,0.59765629 0.5625,1.12500004 1.3007809,1.12500004 0.410157,0 0.691407,-0.1875 0.832032,-0.3046875 v 0.3046875 L 12.379195,-7.8125e-6 V -0.22266406 c -0.363281,0 -0.410156,-0.0351563 -0.410156,-0.28125 V -3.4570391 Z m 0.398438,2.85937499 c -0.234375,0.36328125 -0.609375,0.43359375 -0.796875,0.43359375 -0.257813,0 -0.503907,-0.10546875 -0.667969,-0.328125 -0.1640627,-0.19921875 -0.1757814,-0.48046875 -0.1757814,-0.63281254 0,-0.140625 0.011719,-0.46875 0.2226564,-0.6914062 0.175781,-0.1875 0.433594,-0.28125 0.679687,-0.28125 0.140625,0 0.503907,0.035156 0.738282,0.375 z m 0,0"
       style="fill:#000000;fill-opacity:1;fill-rule:nonzero;stroke:none"
       aria-label="qmd"
       transform="matrix(1.3333333,0,0,1.3333333,4.428,70.222667)" />
    <path
       id="path2"
       d="m 0,85.04042 v 28.34682 H 56.69362 V 85.04042 Z"
       style="fill:#fff200;fill-opacity:1;fill-rule:nonzero;stroke:#000000;stroke-width:0.79701;stroke-linecap:butt;stroke-linejoin:miter;stroke-miterlimit:10;stroke-dasharray:none;stroke-opacity:1"
       transform="matrix(1.3333333,0,0,-1.3333333,12.937333,151.712)" />
    <path
       id="path3"
       d="M 0,28.3468 V 56.69362 H 56.69362 V 28.3468 Z"
       style="fill:#fff200;fill-opacity:1;fill-rule:nonzero;stroke:#000000;stroke-width:0.79701;stroke-linecap:butt;stroke-linejoin:miter;stroke-miterlimit:10;stroke-dasharray:none;stroke-opacity:1"
       transform="matrix(1.3333333,0,0,-1.3333333,12.937333,151.712)" />
    <path
       id="path4"
       d="m 113.38724,28.3468 v 28.34682 h 56.69362 V 28.3468 Z"
       style="fill:#b3e6fa;fill-opacity:1;fill-rule:nonzero;stroke:#000000;stroke-width:0.79701;stroke-linecap:butt;stroke-linejoin:miter;stroke-miterlimit:10;stroke-dasharray:none;stroke-opacity:1"
       transform="matrix(1.3333333,0,0,-1.3333333,12.937333,151.712)" />
    <path
       id="path5"
       d="m 198.42766,85.04042 v 28.34682 h 56.69362 V 85.04042 Z"
       style="fill:#ffd9b3;fill-opacity:1;fill-rule:nonzero;stroke:#000000;stroke-width:0.79701;stroke-linecap:butt;stroke-linejoin:miter;stroke-miterlimit:10;stroke-dasharray:none;stroke-opacity:1"
       transform="matrix(1.3333333,0,0,-1.3333333,12.937333,151.712)" />
  </g>
</svg>
