<?xml version="1.0" encoding="UTF-8" standalone="no"?>
<!-- Created with Inkscape (http://www.inkscape.org/) -->

<svg
   version="1.1"
   id="svg1"
   width="354.27203"
   height="165.69934"
   viewBox="0 0 354.27204 165.69934"
   xmlns="http://www.w3.org/2000/svg"
   xmlns:svg="http://www.w3.org/2000/svg">
  <defs
     id="defs1" />
  <g
     id="g1"
     transform="translate(-4.8476563,-4.433594)">
    <path
       id="path1"
       d="m 0,113.38724 h 56.69362 v 28.34679 H 0 Z"
       style="fill:#fffa99;fill-opacity:1;fill-rule:nonzero;stroke:#000000;stroke-width:0.79701;stroke-linecap:butt;stroke-linejoin:miter;stroke-miterlimit:10;stroke-dasharray:none;stroke-opacity:1"
       transform="matrix(1.3333333,0,0,-1.3333333,18.426667,207.39733)" />
    <path
       id="path2"
       d="m 9.0580625,-5.82375 c 0.1757812,-0.5742188 0.609375,-0.6679688 0.9960935,-0.6679688 V -6.808125 c -0.3046873,0.023437 -0.6093748,0.035156 -0.9140623,0.035156 -0.28125,0 -0.9257812,-0.023437 -1.1835937,-0.035156 v 0.3164062 C 8.6244687,-6.48 8.8236875,-6.151875 8.8236875,-5.964375 c 0,0.058594 -0.023437,0.140625 -0.046875,0.1992187 l -1.5,4.6054688 -1.59375,-4.8867188 c 0,-0.035156 -0.023437,-0.09375 -0.023437,-0.1523437 0,-0.2929688 0.5742187,-0.2929688 0.8320312,-0.2929688 V -6.808125 c -0.3515625,0.035156 -1.03125,0.035156 -1.40625,0.035156 -0.3867187,0 -0.8085937,-0.023437 -1.21875,-0.035156 v 0.3164062 c 0.5625,0 0.7734375,0 0.890625,0.3515625 l 0.2226563,0.703125 -1.3828125,4.2773438 -1.6054688,-4.9101563 c -0.011719,-0.023437 -0.023437,-0.09375 -0.023437,-0.1289062 0,-0.2929688 0.5859375,-0.2929688 0.84375,-0.2929688 V -6.808125 C 2.4486875,-6.7729688 1.769,-6.7729688 1.394,-6.7729688 c -0.375,0 -0.80859375,-0.023437 -1.21875,-0.035156 v 0.3164062 c 0.75,0 0.78515625,0.046875 0.9140625,0.4101563 L 3.0815,0.035625 c 0.023437,0.08203125 0.058594,0.1875 0.1875,0.1875 0.140625,0 0.1523437,-0.0703125 0.1992187,-0.19921875 L 5.1088437,-5.0385938 6.7611875,0.035625 c 0.035156,0.08203125 0.058594,0.1875 0.1875,0.1875 0.140625,0 0.1640625,-0.0703125 0.1992187,-0.19921875 z m 1.4677735,3.3164062 c 0.05859,-1.4882812 0.902344,-1.734375 1.242187,-1.734375 1.019532,0 1.125,1.3476563 1.125,1.734375 z m -0.01172,0.2109375 h 2.789063 c 0.210937,0 0.246093,0 0.246093,-0.2109375 0,-0.984375 -0.539062,-1.9570312 -1.78125,-1.9570312 -1.160156,0 -2.0742183,1.03125 -2.0742183,2.2734375 0,1.3359375 1.0429683,2.296875 2.1914063,2.296875 1.21875,0 1.664062,-1.1015625 1.664062,-1.2890625 0,-0.1054688 -0.08203,-0.1171875 -0.128906,-0.1171875 -0.09375,0 -0.117187,0.058594 -0.128906,0.140625 -0.351563,1.01953125 -1.253906,1.01953125 -1.347656,1.01953125 -0.503907,0 -0.902344,-0.29296875 -1.125,-0.66796875 -0.304688,-0.4804688 -0.304688,-1.1367188 -0.304688,-1.4882813 z m 5.036133,-1.453125 v -3.1640625 l -1.429688,0.1054688 v 0.3164062 c 0.691407,0 0.773438,0.070312 0.773438,0.5507813 V 4.6875e-4 h 0.246094 c 0.01172,-0.01171875 0.09375,-0.15234375 0.363281,-0.62109375 0.152344,0.234375 0.5625,0.7265625 1.300781,0.7265625 1.183594,0 2.226563,-0.97265625 2.226563,-2.2617188 0,-1.265625 -0.972657,-2.25 -2.109375,-2.25 -0.785157,0 -1.207032,0.46875 -1.371094,0.65625 z m 0.03516,2.6132813 v -2.0507813 c 0,-0.1875 0,-0.1992187 0.105469,-0.3632812 0.386719,-0.5507813 0.9375,-0.6328125 1.171875,-0.6328125 0.457031,0 0.808594,0.2578125 1.054687,0.6328125 0.257813,0.4101562 0.28125,0.984375 0.28125,1.3945312 0,0.3632813 -0.01172,0.9609375 -0.304687,1.40625005 C 17.683062,-0.433125 17.308062,-0.105 16.769,-0.105 c -0.445313,0 -0.808594,-0.24609375 -1.042969,-0.609375 -0.140625,-0.2109375 -0.140625,-0.24609375 -0.140625,-0.421875 z m 7.001953,0.97265625 C 22.048297,-0.3628125 20.935016,-1.089375 20.935016,-3.3745313 c 0,-2.5898437 1.394531,-3.3984375 2.308593,-3.3984375 0.960938,0 2.320313,0.8554688 2.320313,3.3984375 0,0.7734375 -0.117188,2.1796875 -1.171875,2.95312505 -0.222656,-0.55078125 -0.539063,-1.05468755 -1.125,-1.05468755 -0.515625,0 -0.820313,0.4335938 -0.820313,0.84375005 0,0.26953125 0.128907,0.45703125 0.140625,0.46875 z m 1.535157,-0.09375 c -0.328125,0.1875 -0.65625,0.22265625 -0.867188,0.22265625 -0.515625,0 -0.585937,-0.45703125 -0.585937,-0.59765625 0,-0.29296875 0.199218,-0.62109375 0.597656,-0.62109375 0.527344,0 0.75,0.421875 0.855469,0.99609375 z m 0.410156,0.1875 c 1.183594,-0.52734375 2.027344,-1.80468755 2.027344,-3.30468755 0,-2.0390625 -1.5,-3.6445312 -3.316407,-3.6445312 -1.78125,0 -3.304687,1.59375 -3.304687,3.6445312 0,2.015625 1.5,3.5976563 3.316406,3.5976563 0.304688,0 0.65625,-0.0585938 0.9375,-0.15234375 C 24.345175,1.02 24.4858,1.9340625 25.411581,1.9340625 c 1.019531,0 1.207031,-1.32421875 1.207031,-1.828125 0,-0.10546875 0,-0.2109375 -0.105468,-0.2109375 -0.09375,0 -0.105469,0.0703125 -0.117188,0.17578125 -0.05859,0.5390625 -0.480469,0.83203125 -0.902344,0.83203125 -0.46875,0 -0.714843,-0.33984375 -0.960937,-0.97265625 z m 0,0"
       style="fill:#000000;fill-opacity:1;fill-rule:nonzero;stroke:none"
       aria-label="WebQ"
       transform="matrix(1.3333333,0,0,1.3333333,38.141333,40.64)" />
    <path
       id="path3"
       d="M 3.7842031,-0.60911719 V 1.1721328 c 0,0.4570313 -0.1054687,0.4570313 -0.7734375,0.4570313 v 0.3046875 c 0.3398438,-0.011719 0.8554688,-0.035156 1.1132813,-0.035156 0.2695312,0 0.7734375,0.023437 1.125,0.035156 V 1.6291641 c -0.6679688,0 -0.7734375,0 -0.7734375,-0.4570313 v -5.578125 H 4.2529531 l -0.375,0.9140625 c -0.1289062,-0.28125 -0.5390625,-0.9140625 -1.3359375,-0.9140625 -1.1601562,0 -2.20312497,0.9726563 -2.20312497,2.2617188 0,1.24218746 0.96093747,2.24999996 2.12109377,2.24999996 0.6914062,0 1.1015625,-0.421875 1.3242187,-0.71484375 z m 0.035156,-2.14453121 v 1.3945312 c 0,0.328125 -0.1875,0.59765626 -0.3984375,0.84375001 -0.1289063,0.140625 -0.4570313,0.41015625 -0.9257813,0.41015625 -0.7265625,0 -1.3359375,-0.890625 -1.3359375,-2.03906246 0,-1.1835938 0.703125,-2.0039063 1.4414063,-2.0039063 0.796875,0 1.21875,0.8554688 1.21875,1.3945313 z m 2.540039,-0.6679688 v 2.66015626 c 0,0.45703125 -0.1171875,0.45703125 -0.7851562,0.45703125 V 2.578125e-4 c 0.3515625,-0.0117187525 0.8554687,-0.0351562525 1.125,-0.0351562525 0.2578125,0 0.7851562,0.0234375 1.1132812,0.0351562525 V -0.30442969 c -0.65625,0 -0.7734375,0 -0.7734375,-0.45703125 V -2.5895859 c 0,-1.03125 0.7148438,-1.59375 1.3476563,-1.59375 0.6210937,0 0.7382812,0.5390625 0.7382812,1.1015625 v 2.32031246 c 0,0.45703125 -0.1171875,0.45703125 -0.7734375,0.45703125 V 2.578125e-4 c 0.3398438,-0.0117187525 0.8554688,-0.0351562525 1.125,-0.0351562525 0.2578125,0 0.7734374,0.0234375 1.1132814,0.0351562525 V -0.30442969 c -0.6679689,0 -0.7851564,0 -0.7851564,-0.45703125 V -2.5895859 c 0,-1.03125 0.7148444,-1.59375 1.3476564,-1.59375 0.632813,0 0.738281,0.5390625 0.738281,1.1015625 v 2.32031246 c 0,0.45703125 -0.105468,0.45703125 -0.773437,0.45703125 V 2.578125e-4 c 0.351562,-0.0117187525 0.855469,-0.0351562525 1.125,-0.0351562525 0.257812,0 0.773437,0.0234375 1.113281,0.0351562525 V -0.30442969 c -0.515625,0 -0.761719,0 -0.773437,-0.3046875 V -2.5075547 c 0,-0.8554687 0,-1.171875 -0.316407,-1.5234375 -0.128906,-0.1757812 -0.46875,-0.375 -1.042968,-0.375 -0.832032,0 -1.2773444,0.5976563 -1.4414069,0.984375 -0.140625,-0.8671875 -0.8789062,-0.984375 -1.3242187,-0.984375 -0.7265625,0 -1.1953125,0.4335938 -1.4765625,1.0546875 v -1.0546875 l -1.40625,0.1171875 v 0.3046875 c 0.703125,0 0.7851562,0.070312 0.7851562,0.5625 z m 10.9863289,2.87109376 v 0.65625 L 18.81057,2.578125e-4 V -0.30442969 c -0.703125,0 -0.773437,-0.0703125 -0.773437,-0.5625 V -6.9138047 l -1.441406,0.1054688 v 0.3164062 c 0.703125,0 0.785156,0.070312 0.785156,0.5507813 v 2.15625 c -0.292969,-0.3632813 -0.726563,-0.6210938 -1.265625,-0.6210938 -1.171875,0 -2.214844,0.984375 -2.214844,2.2617188 0,1.26562496 0.972656,2.24999996 2.109375,2.24999996 0.644531,0 1.089844,-0.33984375 1.335938,-0.65625 z m 0,-2.67187496 v 2.0507812 c 0,0.17578126 0,0.19921876 -0.105469,0.36328126 -0.304688,0.48046875 -0.75,0.703125 -1.183594,0.703125 -0.445312,0 -0.796875,-0.2578125 -1.042969,-0.64453125 -0.257812,-0.41015621 -0.292968,-0.97265621 -0.292968,-1.38281251 0,-0.3632812 0.02344,-0.9609375 0.316406,-1.4179687 0.210937,-0.3046875 0.585937,-0.6328125 1.125,-0.6328125 0.351562,0 0.761719,0.1523437 1.078125,0.5976562 0.105469,0.1640625 0.105469,0.1875 0.105469,0.3632813 z m 0,0"
       style="fill:#000000;fill-opacity:1;fill-rule:nonzero;stroke:none"
       aria-label="qmd"
       transform="matrix(1.3333333,0,0,1.3333333,5.1653333,13.652)" />
    <path
       id="path4"
       d="M 0,28.3468 H 56.69362 V 56.69359 H 0 Z"
       style="fill:#fffa99;fill-opacity:1;fill-rule:nonzero;stroke:#000000;stroke-width:0.79701;stroke-linecap:butt;stroke-linejoin:miter;stroke-miterlimit:10;stroke-dasharray:none;stroke-opacity:1"
       transform="matrix(1.3333333,0,0,-1.3333333,18.426667,207.39733)" />
    <path
       id="path5"
       d="M 3.7864844,-0.60853125 V 1.1727188 c 0,0.4570312 -0.1054688,0.4570312 -0.7734375,0.4570312 v 0.3046875 c 0.3398437,-0.011719 0.8554687,-0.035156 1.1132812,-0.035156 0.2695313,0 0.7734375,0.023437 1.125,0.035156 V 1.62975 c -0.6679687,0 -0.7734375,0 -0.7734375,-0.4570312 v -5.578125 H 4.2552344 l -0.375,0.9140625 c -0.1289063,-0.28125 -0.5390625,-0.9140625 -1.3359375,-0.9140625 -1.1601563,0 -2.20312502,0.9726562 -2.20312502,2.2617187 0,1.2421875 0.96093752,2.25 2.12109372,2.25 0.6914063,0 1.1015625,-0.421875 1.3242188,-0.71484375 z m 0.035156,-2.14453125 v 1.3945313 c 0,0.328125 -0.1875,0.5976562 -0.3984375,0.84374995 -0.1289062,0.140625 -0.4570312,0.41015625 -0.9257812,0.41015625 -0.7265625,0 -1.3359375,-0.890625 -1.3359375,-2.0390625 0,-1.1835937 0.703125,-2.0039062 1.4414062,-2.0039062 0.796875,0 1.21875,0.8554687 1.21875,1.3945312 z M 8.7376563,-3.8663437 7.4603125,-4.1710312 C 6.8392188,-4.323375 6.4525,-4.8624375 6.4525,-5.4366562 c 0,-0.703125 0.5390625,-1.3007813 1.3125,-1.3007813 1.6640625,0 1.8867188,1.6289063 1.9453125,2.0742188 0.011719,0.058594 0.011719,0.1171875 0.1171875,0.1171875 0.1289063,0 0.1289063,-0.046875 0.1289063,-0.234375 v -2.0039063 c 0,-0.1640625 0,-0.234375 -0.1054688,-0.234375 -0.070312,0 -0.082031,0.011719 -0.1523437,0.1289063 l -0.3515625,0.5625 c -0.2929688,-0.28125 -0.703125,-0.6914063 -1.59375,-0.6914063 -1.1015625,0 -1.9335938,0.8789063 -1.9335938,1.9335938 0,0.8203125 0.5273438,1.546875 1.3007813,1.8164062 0.1054687,0.046875 0.6210937,0.1640625 1.3125,0.328125 0.2695312,0.070312 0.5742187,0.140625 0.84375,0.515625 C 9.4876563,-2.167125 9.593125,-1.839 9.593125,-1.510875 c 0,0.703125 -0.5039062,1.41796875 -1.3359375,1.41796875 -0.2929687,0 -1.0429687,-0.046875 -1.5703125,-0.5390625 C 6.1009375,-1.1593125 6.0775,-1.8038437 6.0657813,-2.1554062 6.0540625,-2.260875 5.9720313,-2.260875 5.9485938,-2.260875 c -0.1289063,0 -0.1289063,0.070312 -0.1289063,0.2460938 v 1.99218745 c 0,0.17578125 0,0.24609375 0.1054688,0.24609375 0.070312,0 0.082031,-0.0234375 0.1523437,-0.12890625 0,-0.01171875 0.023437,-0.046875 0.3515625,-0.57421875 0.3164063,0.33984375 0.9492188,0.703125 1.8398438,0.703125 1.1601562,0 1.9570317,-0.984375 1.9570317,-2.0742187 0,-0.9960938 -0.6562505,-1.8164063 -1.4882817,-2.015625 z m 3.8144527,-0.5390625 -1.394531,0.1171875 v 0.3046875 c 0.65625,0 0.738281,0.058594 0.738281,0.5507812 v 2.671875 c 0,0.45703125 -0.105468,0.45703125 -0.773437,0.45703125 v 0.3046875 c 0.316406,-0.01171875 0.855469,-0.03515625 1.101562,-0.03515625 0.339844,0 0.691407,0.0234375 1.03125,0.03515625 v -0.3046875 c -0.65625,0 -0.703125,-0.0585938 -0.703125,-0.4453125 z m 0.04687,-1.734375 c 0,-0.3164063 -0.246093,-0.5273438 -0.527343,-0.5273438 -0.316407,0 -0.527344,0.2695313 -0.527344,0.5273438 0,0.2695312 0.210937,0.5273437 0.527344,0.5273437 0.28125,0 0.527343,-0.1992187 0.527343,-0.5273437 z m 2.683594,2.15625 h 1.429688 v -0.3046875 h -1.429688 v -1.8398438 h -0.246094 c -0.01172,0.8203125 -0.316406,1.8867188 -1.289062,1.921875 v 0.2226563 h 0.84375 v 2.7539062 c 0,1.21875 0.925781,1.3359375 1.289062,1.3359375 0.703125,0 0.984375,-0.703125 0.984375,-1.3359375 v -0.5742187 h -0.246093 v 0.5507812 c 0,0.73828125 -0.304688,1.11328125 -0.667969,1.11328125 -0.667969,0 -0.667969,-0.90234375 -0.667969,-1.07812495 z m 3.266602,1.4765625 c 0.05859,-1.4882813 0.902343,-1.734375 1.242187,-1.734375 1.019531,0 1.125,1.3476562 1.125,1.734375 z m -0.01172,0.2109375 h 2.789062 c 0.210938,0 0.246094,0 0.246094,-0.2109375 0,-0.984375 -0.539062,-1.9570313 -1.78125,-1.9570313 -1.160156,0 -2.074219,1.03125 -2.074219,2.2734375 0,1.3359375 1.042969,2.296875 2.191407,2.296875 1.21875,0 1.664062,-1.1015625 1.664062,-1.2890625 0,-0.1054687 -0.08203,-0.1171875 -0.128906,-0.1171875 -0.09375,0 -0.117188,0.058594 -0.128906,0.140625 -0.351563,1.01953125 -1.253907,1.01953125 -1.347657,1.01953125 -0.503906,0 -0.902343,-0.29296875 -1.125,-0.66796875 -0.304687,-0.4804687 -0.304687,-1.1367187 -0.304687,-1.4882812 z m 0,0"
       style="fill:#000000;fill-opacity:1;fill-rule:nonzero;stroke:none"
       aria-label="qSite"
       transform="matrix(1.3333333,0,0,1.3333333,41.646667,153.952)" />
    <path
       id="path6"
       d="m 1.1008984,-0.762625 c 0,0.45703125 -0.11718746,0.45703125 -0.78515621,0.45703125 v 0.3046875 C 0.66730469,-0.012625 1.1712109,-0.0360625 1.4407422,-0.0360625 c 0.2578125,0 0.7851562,0.0234375 1.1132812,0.03515625 v -0.3046875 c -0.65625,0 -0.7734375,0 -0.7734375,-0.45703125 V -2.59075 c 0,-1.03125 0.7148438,-1.59375 1.3476563,-1.59375 0.6210937,0 0.7382812,0.5390625 0.7382812,1.1015625 v 2.3203125 c 0,0.45703125 -0.1171875,0.45703125 -0.7734375,0.45703125 v 0.3046875 c 0.3398438,-0.01171875 0.8554688,-0.03515625 1.125,-0.03515625 0.2578125,0 0.7734375,0.0234375 1.1132813,0.03515625 v -0.3046875 c -0.515625,0 -0.7734375,0 -0.7851563,-0.3046875 V -2.5087188 c 0,-0.8554687 0,-1.171875 -0.3046875,-1.5234375 -0.140625,-0.1757812 -0.46875,-0.375 -1.0429687,-0.375 -0.84375,0 -1.2773438,0.5976563 -1.4414063,0.984375 V -6.9149688 L 0.31574219,-6.8095 v 0.3164062 c 0.70312501,0 0.78515621,0.070312 0.78515621,0.5507813 z M 6.9778516,-3.9852813 H 8.4075391 V -4.2899688 H 6.9778516 V -6.1298125 H 6.7317578 C 6.7200391,-5.3095 6.4153516,-4.2430938 5.4426953,-4.2079375 v 0.2226562 h 0.84375 v 2.7539063 c 0,1.21875 0.9257813,1.3359375 1.2890625,1.3359375 0.703125,0 0.984375,-0.703125 0.984375,-1.3359375 V -1.8055938 H 8.3137891 v 0.5507813 c 0,0.73828125 -0.3046875,1.11328125 -0.6679688,1.11328125 -0.6679687,0 -0.6679687,-0.90234375 -0.6679687,-1.07812505 z m 3.2548824,0.5625 v 2.6601563 c 0,0.45703125 -0.117187,0.45703125 -0.7851559,0.45703125 v 0.3046875 C 9.7991406,-0.012625 10.303047,-0.0360625 10.572578,-0.0360625 c 0.257813,0 0.785156,0.0234375 1.113281,0.03515625 v -0.3046875 c -0.65625,0 -0.773437,0 -0.773437,-0.45703125 V -2.59075 c 0,-1.03125 0.714844,-1.59375 1.347656,-1.59375 0.621094,0 0.738281,0.5390625 0.738281,1.1015625 v 2.3203125 c 0,0.45703125 -0.117187,0.45703125 -0.773437,0.45703125 v 0.3046875 c 0.339844,-0.01171875 0.855469,-0.03515625 1.125,-0.03515625 0.257812,0 0.773437,0.0234375 1.113281,0.03515625 v -0.3046875 c -0.667969,0 -0.785156,0 -0.785156,-0.45703125 V -2.59075 c 0,-1.03125 0.714844,-1.59375 1.347656,-1.59375 0.632813,0 0.738281,0.5390625 0.738281,1.1015625 v 2.3203125 c 0,0.45703125 -0.105468,0.45703125 -0.773437,0.45703125 v 0.3046875 c 0.351562,-0.01171875 0.855469,-0.03515625 1.125,-0.03515625 0.257812,0 0.773437,0.0234375 1.113281,0.03515625 v -0.3046875 c -0.515625,0 -0.761719,0 -0.773437,-0.3046875 V -2.5087188 c 0,-0.8554687 0,-1.171875 -0.316407,-1.5234375 -0.128906,-0.1757812 -0.46875,-0.375 -1.042968,-0.375 -0.832032,0 -1.277344,0.5976563 -1.441407,0.984375 -0.140625,-0.8671875 -0.878906,-0.984375 -1.324218,-0.984375 -0.726563,0 -1.195313,0.4335938 -1.476563,1.0546875 v -1.0546875 l -1.4062499,0.1171875 v 0.3046875 c 0.7031249,0 0.7851559,0.070312 0.7851559,0.5625 z M 19.191719,-6.9149688 17.762031,-6.8095 v 0.3164062 c 0.703125,0 0.773438,0.070312 0.773438,0.5507813 v 5.1796875 c 0,0.45703125 -0.105469,0.45703125 -0.773438,0.45703125 v 0.3046875 C 18.090156,-0.012625 18.6175,-0.0360625 18.863594,-0.0360625 c 0.257812,0 0.738281,0.0234375 1.113281,0.03515625 v -0.3046875 c -0.667969,0 -0.785156,0 -0.785156,-0.45703125 z m 0,0"
       style="fill:#000000;fill-opacity:1;fill-rule:nonzero;stroke:none"
       aria-label="html"
       transform="matrix(1.3333333,0,0,1.3333333,4.4266667,128.32933)" />
    <path
       id="path7"
       d="M 28.3468,112.98872 V 57.55038"
       style="fill:none;stroke:#000000;stroke-width:0.3985;stroke-linecap:butt;stroke-linejoin:miter;stroke-miterlimit:10;stroke-dasharray:none;stroke-opacity:1"
       transform="matrix(1.3333333,0,0,-1.3333333,18.426667,207.39733)" />
    <path
       id="path8"
       d="M -1.19551,1.59401 C -1.09587,0.99626 0,0.09961 0.29886,0 0,-0.09961 -1.09587,-0.99626 -1.19551,-1.59401"
       style="fill:none;stroke:#000000;stroke-width:0.31879;stroke-linecap:round;stroke-linejoin:round;stroke-miterlimit:10;stroke-dasharray:none;stroke-opacity:1"
       transform="matrix(0,1.3333333,1.3333333,0,56.2224,130.66349)" />
    <path
       id="path9"
       d="M 11.16136,78.26057 H 45.53224 V 91.82028 H 11.16136 Z"
       style="fill:#ffffff;fill-opacity:1;fill-rule:nonzero;stroke:none"
       transform="matrix(1.3333333,0,0,-1.3333333,18.426667,207.39733)" />
    <path
       id="path10"
       d="M 1.6628437,-3.3039375 V -4.4055 l -1.38281245,0.1171875 v 0.3046875 c 0.69140625,0 0.77343745,0.070312 0.77343745,0.5625 v 2.66015625 c 0,0.45703125 -0.1054687,0.45703125 -0.77343745,0.45703125 V 7.5e-4 C 0.66675,-0.01096875 1.1355,-0.03440625 1.41675,-0.03440625 c 0.3984375,0 0.8671875,0 1.265625,0.03515625 V -0.3039375 H 2.4714375 c -0.7382813,0 -0.7617188,-0.1171875 -0.7617188,-0.46875 v -1.5351562 c 0,-0.984375 0.421875,-1.875 1.1835938,-1.875 0.058594,0 0.082031,0 0.1054687,0.011719 -0.035156,0.011719 -0.234375,0.1289063 -0.234375,0.3867188 0,0.28125 0.2109375,0.4335937 0.4335938,0.4335937 0.1757812,0 0.421875,-0.1289062 0.421875,-0.4453125 0,-0.3164062 -0.3046875,-0.609375 -0.7265625,-0.609375 -0.7382813,0 -1.0898438,0.6679688 -1.2304688,1.1015622 z m 3.3515625,0.796875 C 5.073,-3.9953437 5.91675,-4.2414375 6.2565937,-4.2414375 c 1.0195313,0 1.125,1.3476563 1.125,1.734375 z M 5.0026875,-2.296125 H 7.79175 c 0.2109375,0 0.2460937,0 0.2460937,-0.2109375 0,-0.984375 -0.5390625,-1.9570312 -1.78125,-1.9570312 -1.1601562,0 -2.0742187,1.03125 -2.0742187,2.2734375 0,1.33593745 1.0429687,2.29687495 2.1914062,2.29687495 1.21875,0 1.6640625,-1.1015625 1.6640625,-1.28906245 0,-0.1054688 -0.082031,-0.1171875 -0.1289062,-0.1171875 -0.09375,0 -0.1171875,0.058594 -0.1289063,0.140625 C 7.4284687,-0.139875 6.526125,-0.139875 6.432375,-0.139875 c -0.5039063,0 -0.9023438,-0.29296875 -1.125,-0.66796875 C 5.0026875,-1.2883125 5.0026875,-1.9445625 5.0026875,-2.296125 Z m 4.4296875,-1.125 v 2.66015625 c 0,0.45703125 -0.1171875,0.45703125 -0.7851563,0.45703125 V 7.5e-4 c 0.3515625,-0.01171875 0.8554688,-0.03515625 1.125,-0.03515625 0.2578123,0 0.7851563,0.0234375 1.1132813,0.03515625 v -0.3046875 c -0.65625,0 -0.773438,0 -0.773438,-0.45703125 V -2.5890937 c 0,-1.03125 0.714844,-1.59375 1.347657,-1.59375 0.621093,0 0.738281,0.5390625 0.738281,1.1015625 v 2.32031245 c 0,0.45703125 -0.117188,0.45703125 -0.773438,0.45703125 V 7.5e-4 c 0.339844,-0.01171875 0.855469,-0.03515625 1.125,-0.03515625 0.257813,0 0.773438,0.0234375 1.113282,0.03515625 v -0.3046875 c -0.515625,0 -0.773438,0 -0.785157,-0.3046875 v -1.8984375 c 0,-0.8554687 0,-1.171875 -0.304687,-1.5234375 -0.140625,-0.1757812 -0.46875,-0.375 -1.042969,-0.375 -0.726562,0 -1.195312,0.4335938 -1.476562,1.0546875 V -4.4055 l -1.4062503,0.1171875 v 0.3046875 c 0.703125,0 0.7851563,0.070312 0.7851563,0.5625 z m 8.217773,2.87109375 v 0.65625 L 19.114992,7.5e-4 v -0.3046875 c -0.703125,0 -0.773437,-0.0703125 -0.773437,-0.5625 v -6.046875 l -1.441407,0.1054688 v 0.3164062 c 0.703125,0 0.785157,0.070312 0.785157,0.5507813 v 2.15625 C 17.392336,-4.1476875 16.958742,-4.4055 16.41968,-4.4055 c -1.171875,0 -2.214844,0.984375 -2.214844,2.2617188 0,1.26562495 0.972656,2.24999995 2.109375,2.24999995 0.644531,0 1.089844,-0.33984375 1.335937,-0.65625 z m 0,-2.67187495 v 2.0507812 c 0,0.17578125 0,0.19921875 -0.105468,0.36328125 -0.304688,0.48046875 -0.75,0.703125 -1.183594,0.703125 -0.445313,0 -0.796875,-0.2578125 -1.042969,-0.64453125 -0.257812,-0.4101562 -0.292969,-0.9726562 -0.292969,-1.3828125 0,-0.3632812 0.02344,-0.9609375 0.316407,-1.4179687 0.210937,-0.3046875 0.585937,-0.6328125 1.125,-0.6328125 0.351562,0 0.761718,0.1523437 1.078125,0.5976562 0.105468,0.1640625 0.105468,0.1875 0.105468,0.3632813 z m 2.862305,0.7148437 c 0.05859,-1.4882812 0.902344,-1.734375 1.242188,-1.734375 1.019531,0 1.125,1.3476563 1.125,1.734375 z m -0.01172,0.2109375 h 2.789063 c 0.210937,0 0.246094,0 0.246094,-0.2109375 0,-0.984375 -0.539063,-1.9570312 -1.78125,-1.9570312 -1.160157,0 -2.074219,1.03125 -2.074219,2.2734375 0,1.33593745 1.042969,2.29687495 2.191406,2.29687495 1.21875,0 1.664063,-1.1015625 1.664063,-1.28906245 0,-0.1054688 -0.08203,-0.1171875 -0.128907,-0.1171875 -0.09375,0 -0.117187,0.058594 -0.128906,0.140625 -0.351562,1.0195312 -1.253906,1.0195312 -1.347656,1.0195312 -0.503906,0 -0.902344,-0.29296875 -1.125,-0.66796875 C 20.500734,-1.2883125 20.500734,-1.9445625 20.500734,-2.296125 Z m 4.992188,-1.0078125 V -4.4055 l -1.382813,0.1171875 v 0.3046875 c 0.691407,0 0.773438,0.070312 0.773438,0.5625 v 2.66015625 c 0,0.45703125 -0.105469,0.45703125 -0.773438,0.45703125 V 7.5e-4 c 0.386719,-0.01171875 0.855469,-0.03515625 1.136719,-0.03515625 0.398438,0 0.867188,0 1.265625,0.03515625 v -0.3046875 h -0.210937 c -0.738282,0 -0.761719,-0.1171875 -0.761719,-0.46875 v -1.5351562 c 0,-0.984375 0.421875,-1.875 1.183594,-1.875 0.05859,0 0.08203,0 0.105468,0.011719 -0.03516,0.011719 -0.234375,0.1289063 -0.234375,0.3867188 0,0.28125 0.210938,0.4335937 0.433594,0.4335937 0.175781,0 0.421875,-0.1289062 0.421875,-0.4453125 0,-0.3164062 -0.304687,-0.609375 -0.726562,-0.609375 -0.738282,0 -1.089844,0.6679688 -1.230469,1.1015622 z m 0,0"
       style="fill:#ff0000;fill-opacity:1;fill-rule:nonzero;stroke:none"
       aria-label="render"
       transform="matrix(1.3333333,0,0,1.3333333,37.736,98.624)" />
    <path
       id="path11"
       d="m 141.73404,28.3468 h 56.69362 v 28.34679 h -56.69362 z"
       style="fill:#cceffc;fill-opacity:1;fill-rule:nonzero;stroke:#000000;stroke-width:0.79701;stroke-linecap:butt;stroke-linejoin:miter;stroke-miterlimit:10;stroke-dasharray:none;stroke-opacity:1"
       transform="matrix(1.3333333,0,0,-1.3333333,18.426667,207.39733)" />
    <path
       id="path12"
       d="m 2.2161406,-1.7123594 c -0.8671875,0 -0.8671875,-0.9960937 -0.8671875,-1.2304687 0,-0.2695313 0.011719,-0.5859375 0.1523438,-0.8320313 0.082031,-0.1171875 0.3164062,-0.3984375 0.7148437,-0.3984375 0.8671875,0 0.8671875,0.9960938 0.8671875,1.21875 0,0.2695313 -0.011719,0.5976563 -0.1640625,0.84375 -0.082031,0.1171875 -0.3046875,0.3984375 -0.703125,0.3984375 z m -1.1601562,0.3867188 c 0,-0.035156 0,-0.2695313 0.1757812,-0.46875 0.3867188,0.28125 0.796875,0.3046875 0.984375,0.3046875 0.9257813,0 1.6054688,-0.6796875 1.6054688,-1.453125 0,-0.3632813 -0.1523438,-0.7382813 -0.3984375,-0.9609375 0.3515625,-0.3398438 0.7148437,-0.3867188 0.890625,-0.3867188 0.023437,0 0.070312,0 0.1054687,0 -0.1171875,0.046875 -0.1640625,0.1523438 -0.1640625,0.2695313 0,0.1757812 0.1289063,0.2929687 0.2929688,0.2929687 0.09375,0 0.28125,-0.070312 0.28125,-0.2929687 0,-0.1757813 -0.1171875,-0.4921875 -0.5039063,-0.4921875 -0.1992187,0 -0.6328125,0.058594 -1.0546875,0.46875 -0.421875,-0.328125 -0.84375,-0.3632813 -1.0546875,-0.3632813 -0.9257812,0 -1.61718747,0.6914063 -1.61718747,1.453125 0,0.4453125 0.22265625,0.8203125 0.46874997,1.03125 -0.12890622,0.1523438 -0.30468747,0.4804688 -0.30468747,0.8203125 0,0.31640628 0.12890625,0.69140628 0.43359377,0.89062503 -0.59765627,0.17578125 -0.91406252,0.59765625 -0.91406252,0.99609375 0,0.71484372 0.98437502,1.26562502 2.20312502,1.26562502 1.171875,0 2.203125,-0.5039063 2.203125,-1.28906252 0,-0.33984375 -0.140625,-0.85546875 -0.6445313,-1.125 -0.5273437,-0.28125 -1.1015625,-0.28125 -1.7109375,-0.28125 -0.2460937,0 -0.6796875,0 -0.75,-0.0117188 C 1.2669219,-0.70454687 1.0559844,-1.0092344 1.0559844,-1.3256406 Z m 1.4414062,3.1523437 c -1.0078125,0 -1.69921872,-0.515625 -1.69921872,-1.04296872 0,-0.45703125 0.37500002,-0.8203125 0.82031252,-0.85546875 h 0.5859375 c 0.8554687,0 1.96875,0 1.96875,0.85546875 0,0.53906252 -0.703125,1.04296872 -1.6757813,1.04296872 z m 3.5859375,-2.58984372 c 0,0.45703125 -0.1171875,0.45703125 -0.7851562,0.45703125 v 0.3046875 c 0.3515625,-0.01171875 0.8554687,-0.03515625 1.125,-0.03515625 0.2578125,0 0.7851562,0.0234375 1.1132812,0.03515625 v -0.3046875 c -0.65625,0 -0.7734375,0 -0.7734375,-0.45703125 V -2.5912656 c 0,-1.03125 0.7148438,-1.59375 1.3476563,-1.59375 0.6210937,0 0.7382812,0.5390625 0.7382812,1.1015625 v 2.32031248 c 0,0.45703125 -0.1171875,0.45703125 -0.7734375,0.45703125 v 0.3046875 c 0.3398438,-0.01171875 0.8554688,-0.03515625 1.125,-0.03515625 0.2578125,0 0.7734375,0.0234375 1.1132814,0.03515625 v -0.3046875 c -0.5156251,0 -0.7734376,0 -0.7851564,-0.3046875 V -2.5092344 c 0,-0.8554687 0,-1.171875 -0.3046875,-1.5234375 -0.140625,-0.1757812 -0.46875,-0.375 -1.0429687,-0.375 -0.84375,0 -1.2773438,0.5976563 -1.4414063,0.984375 v -3.4921875 l -1.4414062,0.1054688 v 0.3164062 c 0.703125,0 0.7851562,0.070312 0.7851562,0.5507813 z M 10.867508,-6.8100156 v 0.3164062 h 0.234375 c 0.773437,0 0.785156,0.1054688 0.785156,0.46875 v 5.25000003 c 0,0.3515625 -0.01172,0.46875 -0.785156,0.46875 h -0.234375 v 0.3046875 h 3.644531 c 1.675781,0 3.046875,-1.47656253 3.046875,-3.35156253 0,-1.8867187 -1.347656,-3.4570312 -3.046875,-3.4570312 z m 2.367187,6.50390623 c -0.46875,0 -0.492187,-0.0703125 -0.492187,-0.3984375 V -6.0951719 c 0,-0.328125 0.02344,-0.3984375 0.492187,-0.3984375 h 0.996094 c 0.621094,0 1.300781,0.2109375 1.816406,0.9257813 0.421875,0.5859375 0.515625,1.4414062 0.515625,2.2148437 0,1.1132813 -0.1875,1.7109375 -0.550781,2.1914063 -0.199219,0.26953123 -0.761719,0.85546873 -1.769531,0.85546873 z m 6.00586,-2.20312503 c 0.05859,-1.4882812 0.902343,-1.734375 1.242187,-1.734375 1.019531,0 1.125,1.3476563 1.125,1.734375 z m -0.01172,0.2109375 h 2.789062 c 0.210938,0 0.246094,0 0.246094,-0.2109375 0,-0.984375 -0.539062,-1.9570312 -1.78125,-1.9570312 -1.160156,0 -2.074219,1.03125 -2.074219,2.2734375 0,1.33593748 1.042969,2.29687498 2.191407,2.29687498 1.21875,0 1.664062,-1.1015625 1.664062,-1.28906248 0,-0.1054688 -0.08203,-0.1171875 -0.128906,-0.1171875 -0.09375,0 -0.117188,0.058594 -0.128906,0.140625 -0.351563,1.01953123 -1.253907,1.01953123 -1.347657,1.01953123 -0.503906,0 -0.902343,-0.29296875 -1.125,-0.66796875 C 19.228836,-1.2904844 19.228836,-1.9467344 19.228836,-2.2982969 Z m 5.399414,0.3632813 c 0.222656,0.035156 1.03125,0.1992187 1.03125,0.9140625 0,0.51562498 -0.351562,0.91406248 -1.125,0.91406248 -0.832031,0 -1.195312,-0.57421875 -1.382812,-1.41796878 -0.03516,-0.1289062 -0.03516,-0.1757812 -0.140625,-0.1757812 -0.128907,0 -0.128907,0.070312 -0.128907,0.2578125 v 1.31249998 c 0,0.1640625 0,0.234375 0.105469,0.234375 0.05859,0 0.07031,0 0.257813,-0.19921875 0.01172,-0.01171875 0.01172,-0.03515625 0.199218,-0.22265625 0.433594,0.421875 0.878907,0.421875 1.089844,0.421875 1.148438,0 1.605469,-0.66796875 1.605469,-1.38281248 0,-0.5273438 -0.292969,-0.8203125 -0.421875,-0.9492188 -0.328125,-0.3164062 -0.714844,-0.3984375 -1.136719,-0.46875 -0.550781,-0.1171875 -1.21875,-0.2460937 -1.21875,-0.8203125 0,-0.3515625 0.257813,-0.7617187 1.113281,-0.7617187 1.101563,0 1.148438,0.9023437 1.171875,1.2070312 0,0.09375 0.09375,0.09375 0.117188,0.09375 0.128906,0 0.128906,-0.046875 0.128906,-0.2460937 v -0.9960938 c 0,-0.1757812 0,-0.2460937 -0.117187,-0.2460937 -0.04687,0 -0.07031,0 -0.199219,0.1171875 -0.02344,0.046875 -0.128906,0.1289062 -0.164063,0.1640625 -0.375,-0.28125 -0.785156,-0.28125 -0.9375,-0.28125 -1.21875,0 -1.59375,0.6679687 -1.59375,1.2304687 0,0.3398438 0.164063,0.6210938 0.433594,0.84375 0.316406,0.2578125 0.597656,0.3164063 1.3125,0.4570313 z m 2.90918,1.17187498 c 0,0.45703125 -0.105469,0.45703125 -0.773438,0.45703125 v 0.3046875 c 0.328125,-0.01171875 0.796875,-0.03515625 1.078125,-0.03515625 0.304688,0 0.703125,0.01171875 1.101563,0.03515625 v -0.3046875 c -0.667969,0 -0.773438,0 -0.773438,-0.45703125 V -1.7826719 l 0.632813,-0.5507812 c 0.773437,1.0546875 1.183593,1.61718748 1.183593,1.79296873 0,0.1875 -0.164062,0.234375 -0.351562,0.234375 v 0.3046875 c 0.269531,-0.01171875 0.867187,-0.03515625 1.066406,-0.03515625 0.292969,0 0.585938,0.01171875 0.867188,0.03515625 v -0.3046875 c -0.363282,0 -0.585938,0 -0.960938,-0.52734375 L 29.342117,-2.6264219 c -0.01172,-0.011719 -0.05859,-0.070312 -0.05859,-0.1054687 0,-0.035156 0.703125,-0.6328125 0.808594,-0.7148438 0.621094,-0.5039062 1.042969,-0.5273437 1.253906,-0.5390625 v -0.3046875 c -0.292968,0.023437 -0.421875,0.023437 -0.703125,0.023437 -0.351562,0 -0.972656,-0.023437 -1.113281,-0.023437 v 0.3046875 c 0.1875,0.011719 0.292969,0.1171875 0.292969,0.2460938 0,0.1992187 -0.140625,0.3164062 -0.222656,0.3867187 l -1.40625,1.21875 v -4.78125 l -1.429688,0.1054688 v 0.3164062 c 0.691406,0 0.773438,0.070312 0.773438,0.5507813 z m 0,0"
       style="fill:#000000;fill-opacity:1;fill-rule:nonzero;stroke:none"
       aria-label="ghDesk"
       transform="matrix(1.3333333,0,0,1.3333333,224.03733,154.02533)" />
    <path
       id="path13"
       d="m 1.1003203,-0.762625 c 0,0.45703125 -0.11718749,0.45703125 -0.78515624,0.45703125 v 0.3046875 C 0.66672656,-0.012625 1.1706328,-0.0360625 1.4401641,-0.0360625 c 0.2578125,0 0.7851562,0.0234375 1.1132812,0.03515625 v -0.3046875 c -0.65625,0 -0.7734375,0 -0.7734375,-0.45703125 V -2.59075 c 0,-1.03125 0.7148438,-1.59375 1.3476563,-1.59375 0.6210937,0 0.7382812,0.5390625 0.7382812,1.1015625 v 2.3203125 c 0,0.45703125 -0.1171875,0.45703125 -0.7734375,0.45703125 v 0.3046875 c 0.3398438,-0.01171875 0.8554688,-0.03515625 1.125,-0.03515625 0.2578125,0 0.7734375,0.0234375 1.1132813,0.03515625 v -0.3046875 c -0.515625,0 -0.7734375,0 -0.7851563,-0.3046875 V -2.5087188 c 0,-0.8554687 0,-1.171875 -0.3046875,-1.5234375 -0.140625,-0.1757812 -0.46875,-0.375 -1.0429687,-0.375 -0.84375,0 -1.2773438,0.5976563 -1.4414063,0.984375 V -6.9149688 L 0.31516406,-6.8095 v 0.3164062 c 0.70312504,0 0.78515624,0.070312 0.78515624,0.5507813 z M 6.9802031,-3.9852813 H 8.4098906 V -4.2899688 H 6.9802031 V -6.1298125 H 6.7341094 C 6.7223906,-5.3095 6.4177031,-4.2430938 5.4450469,-4.2079375 v 0.2226562 h 0.84375 v 2.7539063 c 0,1.21875 0.9257812,1.3359375 1.2890625,1.3359375 0.703125,0 0.984375,-0.703125 0.984375,-1.3359375 V -1.8055938 H 8.3161406 v 0.5507813 c 0,0.73828125 -0.3046875,1.11328125 -0.6679687,1.11328125 -0.6679688,0 -0.6679688,-0.90234375 -0.6679688,-1.07812505 z m 3.2519529,0.5625 v 2.6601563 c 0,0.45703125 -0.117187,0.45703125 -0.785156,0.45703125 v 0.3046875 c 0.3515625,-0.01171875 0.855469,-0.03515625 1.125,-0.03515625 0.257813,0 0.785156,0.0234375 1.113281,0.03515625 v -0.3046875 c -0.65625,0 -0.773437,0 -0.773437,-0.45703125 V -2.59075 c 0,-1.03125 0.714844,-1.59375 1.347656,-1.59375 0.621094,0 0.738281,0.5390625 0.738281,1.1015625 v 2.3203125 c 0,0.45703125 -0.117187,0.45703125 -0.773437,0.45703125 v 0.3046875 c 0.339844,-0.01171875 0.855469,-0.03515625 1.125,-0.03515625 0.257812,0 0.773437,0.0234375 1.113281,0.03515625 v -0.3046875 c -0.667969,0 -0.785156,0 -0.785156,-0.45703125 V -2.59075 c 0,-1.03125 0.714844,-1.59375 1.347656,-1.59375 0.632813,0 0.738281,0.5390625 0.738281,1.1015625 v 2.3203125 c 0,0.45703125 -0.105468,0.45703125 -0.773437,0.45703125 v 0.3046875 c 0.351562,-0.01171875 0.855469,-0.03515625 1.125,-0.03515625 0.257812,0 0.773437,0.0234375 1.113281,0.03515625 v -0.3046875 c -0.515625,0 -0.761719,0 -0.773437,-0.3046875 V -2.5087188 c 0,-0.8554687 0,-1.171875 -0.316407,-1.5234375 -0.128906,-0.1757812 -0.46875,-0.375 -1.042968,-0.375 -0.832032,0 -1.277344,0.5976563 -1.441407,0.984375 -0.140625,-0.8671875 -0.878906,-0.984375 -1.324218,-0.984375 -0.726563,0 -1.195313,0.4335938 -1.476563,1.0546875 V -4.4071563 L 9.447,-4.2899688 v 0.3046875 c 0.703125,0 0.785156,0.070312 0.785156,0.5625 z M 19.191141,-6.9149688 17.761453,-6.8095 v 0.3164062 c 0.703125,0 0.773438,0.070312 0.773438,0.5507813 v 5.1796875 c 0,0.45703125 -0.105469,0.45703125 -0.773438,0.45703125 v 0.3046875 c 0.328125,-0.01171875 0.855469,-0.03515625 1.101563,-0.03515625 0.257812,0 0.738281,0.0234375 1.113281,0.03515625 v -0.3046875 c -0.667969,0 -0.785156,0 -0.785156,-0.45703125 z m 0,0"
       style="fill:#000000;fill-opacity:1;fill-rule:nonzero;stroke:none"
       aria-label="html"
       transform="matrix(1.3333333,0,0,1.3333333,193.404,128.32933)" />
    <path
       id="path14"
       d="m 57.09212,42.5202 h 83.78514"
       style="fill:none;stroke:#000000;stroke-width:0.3985;stroke-linecap:butt;stroke-linejoin:miter;stroke-miterlimit:10;stroke-dasharray:none;stroke-opacity:1"
       transform="matrix(1.3333333,0,0,-1.3333333,18.426667,207.39733)" />
    <path
       id="path15"
       d="M -1.19551,1.59401 C -1.09587,0.99626 0,0.09961 0.29886,0 0,-0.09961 -1.09587,-0.99626 -1.19551,-1.59401"
       style="fill:none;stroke:#000000;stroke-width:0.31879;stroke-linecap:round;stroke-linejoin:round;stroke-miterlimit:10;stroke-dasharray:none;stroke-opacity:1"
       transform="matrix(1.3333333,0,0,-1.3333333,206.26301,150.70373)" />
    <path
       id="path16"
       d="m 84.36687,36.08629 h 29.6939 v 12.86783 h -29.6939 z"
       style="fill:#ffffff;fill-opacity:1;fill-rule:nonzero;stroke:none"
       transform="matrix(1.3333333,0,0,-1.3333333,18.426667,207.39733)" />
    <path
       id="path17"
       d="m 1.6629453,-3.3036094 v -1.1015625 l -1.38281249,0.1171875 v 0.3046875 c 0.69140625,0 0.77343749,0.070312 0.77343749,0.5625 v 2.66015627 c 0,0.45703125 -0.10546874,0.45703125 -0.77343749,0.45703125 v 0.3046875 c 0.38671875,-0.01171875 0.85546879,-0.03515625 1.13671879,-0.03515625 0.3984375,0 0.8671875,0 1.265625,0.03515625 v -0.3046875 H 2.4715391 c -0.7382813,0 -0.7617188,-0.1171875 -0.7617188,-0.46875 V -2.3075156 c 0,-0.984375 0.421875,-1.875 1.1835938,-1.875 0.058594,0 0.082031,0 0.1054687,0.011719 -0.035156,0.011719 -0.234375,0.1289063 -0.234375,0.3867188 0,0.28125 0.2109375,0.4335937 0.4335938,0.4335937 0.1757812,0 0.421875,-0.1289062 0.421875,-0.4453125 0,-0.3164062 -0.3046875,-0.609375 -0.7265625,-0.609375 -0.7382813,0 -1.0898438,0.6679688 -1.2304688,1.1015622 z m 4.3125,1.3710938 c 0.2226563,0.035156 1.03125,0.1992187 1.03125,0.9140625 0,0.51562497 -0.3515625,0.91406247 -1.125,0.91406247 -0.8320312,0 -1.1953125,-0.57421875 -1.3828125,-1.41796877 -0.035156,-0.1289062 -0.035156,-0.1757812 -0.140625,-0.1757812 -0.1289062,0 -0.1289062,0.070312 -0.1289062,0.2578125 v 1.31249997 c 0,0.1640625 0,0.234375 0.1054687,0.234375 0.058594,0 0.070312,0 0.2578125,-0.19921875 0.011719,-0.01171875 0.011719,-0.03515625 0.1992188,-0.22265625 0.4335937,0.421875 0.8789062,0.421875 1.0898437,0.421875 1.1484375,0 1.6054688,-0.66796875 1.6054688,-1.38281247 0,-0.5273438 -0.2929688,-0.8203125 -0.421875,-0.9492188 -0.328125,-0.3164062 -0.7148438,-0.3984375 -1.1367188,-0.46875 -0.5507812,-0.1171875 -1.21875,-0.2460937 -1.21875,-0.8203125 0,-0.3515625 0.2578125,-0.7617187 1.1132813,-0.7617187 1.1015625,0 1.1484375,0.9023437 1.171875,1.2070312 0,0.09375 0.09375,0.09375 0.1171875,0.09375 0.1289062,0 0.1289062,-0.046875 0.1289062,-0.2460937 v -0.9960938 c 0,-0.1757812 0,-0.2460937 -0.1171875,-0.2460937 -0.046875,0 -0.070312,0 -0.1992187,0.1171875 -0.023437,0.046875 -0.1289063,0.1289062 -0.1640625,0.1640625 -0.375,-0.28125 -0.7851563,-0.28125 -0.9375,-0.28125 -1.21875,0 -1.59375,0.6679687 -1.59375,1.2304687 0,0.3398438 0.1640625,0.6210938 0.4335937,0.84375 0.3164063,0.2578125 0.5976563,0.3164063 1.3125,0.4570313 z m 5.9941407,-1.4179688 c 0.257812,-0.6210937 0.761719,-0.6328125 0.925781,-0.6328125 v -0.3046875 c -0.234375,0.011719 -0.515625,0.023437 -0.75,0.023437 -0.175781,0 -0.644531,-0.023437 -0.867187,-0.023437 v 0.3046875 c 0.304687,0.011719 0.46875,0.1757813 0.46875,0.4335938 0,0.09375 -0.01172,0.1171875 -0.05859,0.234375 L 10.680523,-0.86610938 9.5789609,-3.5497031 c -0.046875,-0.09375 -0.058594,-0.140625 -0.058594,-0.1757813 0,-0.2578125 0.3632812,-0.2578125 0.5507811,-0.2578125 v -0.3046875 c -0.2578124,0 -0.9140624,0.023437 -1.0781249,0.023437 -0.2695312,0 -0.6679687,-0.011719 -0.9726562,-0.023437 v 0.3046875 c 0.4804687,0 0.6679687,0 0.8085937,0.3515625 L 10.328961,0.00107812 C 10.270367,0.12998437 10.129742,0.45810937 10.071148,0.58701562 9.8602109,1.1377969 9.5789609,1.8292031 8.9344297,1.8292031 c -0.046875,0 -0.2695313,0 -0.46875,-0.1875 0.3164062,-0.035156 0.3984375,-0.2578125 0.3984375,-0.4101562 0,-0.26953128 -0.1992188,-0.42187503 -0.421875,-0.42187503 -0.1992188,0 -0.421875,0.12890625 -0.421875,0.42187503 0,0.4570312 0.421875,0.8085937 0.9140625,0.8085937 0.6328125,0 1.0429687,-0.5625 1.2773433,-1.13671873 z m 2.220703,-0.070312 v 2.66015627 c 0,0.45703125 -0.117187,0.45703125 -0.785156,0.45703125 v 0.3046875 c 0.351562,-0.01171875 0.855469,-0.03515625 1.125,-0.03515625 0.257812,0 0.785156,0.0234375 1.113281,0.03515625 v -0.3046875 c -0.65625,0 -0.773437,0 -0.773437,-0.45703125 V -2.5887656 c 0,-1.03125 0.714843,-1.59375 1.347656,-1.59375 0.621094,0 0.738281,0.5390625 0.738281,1.1015625 v 2.32031247 c 0,0.45703125 -0.117187,0.45703125 -0.773437,0.45703125 v 0.3046875 c 0.339843,-0.01171875 0.855468,-0.03515625 1.125,-0.03515625 0.257812,0 0.773437,0.0234375 1.113281,0.03515625 v -0.3046875 c -0.515625,0 -0.773438,0 -0.785156,-0.3046875 V -2.5067344 c 0,-0.8554687 0,-1.171875 -0.304688,-1.5234375 -0.140625,-0.1757812 -0.46875,-0.375 -1.042969,-0.375 -0.726562,0 -1.195312,0.4335938 -1.476562,1.0546875 v -1.0546875 l -1.40625,0.1171875 v 0.3046875 c 0.703125,0 0.785156,0.070312 0.785156,0.5625005 z m 5.595703,1.2539063 c 0,-1.6289063 0.820313,-2.0507813 1.347656,-2.0507813 0.09375,0 0.714844,0.011719 1.066407,0.375 -0.410157,0.023437 -0.46875,0.328125 -0.46875,0.4570313 0,0.2578125 0.1875,0.4570312 0.457031,0.4570312 0.257812,0 0.457031,-0.1640625 0.457031,-0.46875 0,-0.6796875 -0.75,-1.0664062 -1.523437,-1.0664062 -1.242188,0 -2.15625,1.078125 -2.15625,2.3085937 0,1.27734377 0.984375,2.26171877 2.144531,2.26171877 1.335937,0 1.652344,-1.19531247 1.652344,-1.28906247 0,-0.1054688 -0.105469,-0.1054688 -0.128907,-0.1054688 -0.09375,0 -0.117187,0.046875 -0.128906,0.1054688 -0.292969,0.92578122 -0.9375,1.04296872 -1.3125,1.04296872 -0.527344,0 -1.40625,-0.421875 -1.40625,-2.02734372 z m 0,0"
       style="fill:#ff0000;fill-opacity:1;fill-rule:nonzero;stroke:none"
       aria-label="rsync"
       transform="matrix(1.3333333,0,0,1.3333333,135.34133,152.272)" />
    <path
       id="path18"
       d="m 198.42766,113.38724 h 56.69362 v 28.34679 h -56.69362 z"
       style="fill:#ffe6cc;fill-opacity:1;fill-rule:nonzero;stroke:#000000;stroke-width:0.79701;stroke-linecap:butt;stroke-linejoin:miter;stroke-miterlimit:10;stroke-dasharray:none;stroke-opacity:1"
       transform="matrix(1.3333333,0,0,-1.3333333,18.426667,207.39733)" />
    <path
       id="path19"
       d="m 2.2160313,-1.7104688 c -0.8671875,0 -0.8671875,-0.9960937 -0.8671875,-1.2304687 0,-0.2695313 0.011719,-0.5859375 0.1523437,-0.8320313 0.082031,-0.1171875 0.3164063,-0.3984375 0.7148438,-0.3984375 0.8671875,0 0.8671875,0.9960938 0.8671875,1.21875 0,0.2695313 -0.011719,0.5976563 -0.1640625,0.84375 -0.082031,0.1171875 -0.3046875,0.3984375 -0.703125,0.3984375 z M 1.055875,-1.32375 c 0,-0.035156 0,-0.2695313 0.1757813,-0.46875 0.3867187,0.28125 0.796875,0.3046875 0.984375,0.3046875 0.9257812,0 1.6054687,-0.6796875 1.6054687,-1.453125 0,-0.3632813 -0.1523437,-0.7382813 -0.3984375,-0.9609375 0.3515625,-0.3398438 0.7148438,-0.3867188 0.890625,-0.3867188 0.023437,0 0.070312,0 0.1054688,0 -0.1171875,0.046875 -0.1640625,0.1523438 -0.1640625,0.2695313 0,0.1757812 0.1289062,0.2929687 0.2929687,0.2929687 0.09375,0 0.28125,-0.070312 0.28125,-0.2929687 0,-0.1757813 -0.1171875,-0.4921875 -0.5039062,-0.4921875 -0.1992188,0 -0.6328125,0.058594 -1.0546875,0.46875 -0.421875,-0.328125 -0.84375,-0.3632813 -1.0546875,-0.3632813 -0.9257813,0 -1.61718755,0.6914063 -1.61718755,1.453125 0,0.4453125 0.22265625,0.8203125 0.46875005,1.03125 -0.1289063,0.1523438 -0.30468755,0.4804688 -0.30468755,0.8203125 0,0.3164063 0.12890625,0.6914063 0.43359375,0.89062505 C 0.59884375,-0.0346875 0.2824375,0.3871875 0.2824375,0.785625 c 0,0.7148437 0.984375,1.265625 2.203125,1.265625 1.171875,0 2.203125,-0.5039063 2.203125,-1.2890625 0,-0.33984375 -0.140625,-0.85546875 -0.6445312,-1.125 -0.5273438,-0.28125 -1.1015625,-0.28125 -1.7109375,-0.28125 -0.2460938,0 -0.6796875,0 -0.75,-0.0117188 C 1.2668125,-0.70265625 1.055875,-1.0073438 1.055875,-1.32375 Z m 1.4414063,3.1523437 c -1.0078125,0 -1.6992188,-0.515625 -1.6992188,-1.0429687 0,-0.45703125 0.375,-0.8203125 0.8203125,-0.85546875 h 0.5859375 c 0.8554688,0 1.96875,0 1.96875,0.85546875 0,0.5390625 -0.703125,1.0429687 -1.6757812,1.0429687 z m 4.2421875,-6.234375 -1.3945313,0.1171875 v 0.3046875 c 0.65625,0 0.7382813,0.058594 0.7382813,0.5507813 v 2.671875 c 0,0.45703125 -0.1054688,0.45703125 -0.7734375,0.45703125 V 4.6875e-4 C 5.6261875,-0.01125 6.16525,-0.0346875 6.4113438,-0.0346875 c 0.3398437,0 0.6914062,0.0234375 1.03125,0.03515625 v -0.3046875 c -0.65625,0 -0.703125,-0.0585938 -0.703125,-0.4453125 z m 0.046875,-1.734375 C 6.7863438,-6.4565625 6.54025,-6.6675 6.259,-6.6675 c -0.3164062,0 -0.5273437,0.2695312 -0.5273437,0.5273437 0,0.2695313 0.2109375,0.5273438 0.5273437,0.5273438 0.28125,0 0.5273438,-0.1992188 0.5273438,-0.5273438 z m 2.6865234,2.15625 H 10.902555 V -4.2885938 H 9.4728672 V -6.1284375 H 9.2267734 c -0.011719,0.8203125 -0.3164062,1.8867187 -1.2890625,1.921875 v 0.2226562 h 0.84375 V -1.23 c 0,1.21875 0.9257813,1.3359375 1.2890621,1.3359375 0.703125,0 0.984375,-0.703125 0.984375,-1.3359375 v -0.5742188 h -0.246093 v 0.5507813 c 0,0.73828125 -0.304688,1.11328125 -0.667969,1.11328125 -0.6679688,0 -0.6679688,-0.90234375 -0.6679688,-1.07812505 z M 12.72482,-0.76125 c 0,0.45703125 -0.117187,0.45703125 -0.785156,0.45703125 v 0.3046875 c 0.351563,-0.01171875 0.855469,-0.03515625 1.125,-0.03515625 0.257813,0 0.785156,0.0234375 1.113281,0.03515625 v -0.3046875 c -0.65625,0 -0.773437,0 -0.773437,-0.45703125 v -1.828125 c 0,-1.03125 0.714844,-1.59375 1.347656,-1.59375 0.621094,0 0.738281,0.5390625 0.738281,1.1015625 V -0.76125 c 0,0.45703125 -0.117187,0.45703125 -0.773437,0.45703125 v 0.3046875 c 0.339844,-0.01171875 0.855469,-0.03515625 1.125,-0.03515625 0.257812,0 0.773437,0.0234375 1.113281,0.03515625 v -0.3046875 c -0.515625,0 -0.773437,0 -0.785156,-0.3046875 V -2.5073438 c 0,-0.8554687 0,-1.171875 -0.304688,-1.5234375 -0.140625,-0.1757812 -0.46875,-0.375 -1.042968,-0.375 -0.84375,0 -1.277344,0.5976563 -1.441407,0.984375 v -3.4921875 l -1.441406,0.1054688 v 0.3164062 c 0.703125,0 0.785156,0.070312 0.785156,0.5507813 z m 8.044922,-0.0234375 v 0.890625 L 22.211148,4.6875e-4 v -0.3046875 c -0.703125,0 -0.785156,-0.0703125 -0.785156,-0.5625 V -4.4057813 l -1.453125,0.1171875 v 0.3046875 c 0.691406,0 0.773438,0.070312 0.773438,0.5625 v 1.7695313 c 0,0.8671875 -0.480469,1.546875 -1.207032,1.546875 -0.832031,0 -0.878906,-0.46875 -0.878906,-0.9960938 v -3.3046875 l -1.464844,0.1171875 v 0.3046875 c 0.785157,0 0.785157,0.035156 0.785157,0.9140625 v 1.5 c 0,0.77343755 0,1.6757813 1.511718,1.6757813 0.550782,0 0.996094,-0.26953125 1.277344,-0.890625 z m 3.357422,-2.9648438 v -3.1640625 l -1.429687,0.1054688 v 0.3164062 c 0.691406,0 0.773437,0.070312 0.773437,0.5507813 V 4.6875e-4 h 0.246094 c 0.01172,-0.01171875 0.09375,-0.15234375 0.363281,-0.62109375 0.152344,0.234375 0.5625,0.7265625 1.300781,0.7265625 1.183594,0 2.226563,-0.97265625 2.226563,-2.2617188 0,-1.265625 -0.972656,-2.25 -2.109375,-2.25 -0.785156,0 -1.207031,0.46875 -1.371094,0.65625 z m 0.03516,2.6132813 v -2.0507813 c 0,-0.1875 0,-0.1992187 0.105469,-0.3632812 0.386719,-0.5507813 0.9375,-0.6328125 1.171875,-0.6328125 0.457031,0 0.808594,0.2578125 1.054688,0.6328125 0.257812,0.4101562 0.28125,0.984375 0.28125,1.3945312 0,0.3632813 -0.01172,0.9609375 -0.304688,1.40625005 C 26.259977,-0.433125 25.884977,-0.105 25.345914,-0.105 24.900602,-0.105 24.53732,-0.35109375 24.302945,-0.714375 24.16232,-0.9253125 24.16232,-0.96046875 24.16232,-1.13625 Z m 0,0"
       style="fill:#000000;fill-opacity:1;fill-rule:nonzero;stroke:none"
       aria-label="github"
       transform="matrix(1.3333333,0,0,1.3333333,302.15467,40.64)" />
    <path
       id="path20"
       d="m 1.1026328,-0.76266406 c 0,0.45703125 -0.11718749,0.45703125 -0.78515624,0.45703125 V -9.453125e-4 C 0.66903906,-0.01266406 1.1729453,-0.03610156 1.4424766,-0.03610156 c 0.2578125,0 0.7851562,0.0234375 1.1132812,0.0351562475 V -0.30563281 c -0.65625,0 -0.7734375,0 -0.7734375,-0.45703125 V -2.5907891 c 0,-1.03125 0.7148438,-1.59375 1.3476563,-1.59375 0.6210937,0 0.7382812,0.5390625 0.7382812,1.1015625 v 2.32031254 c 0,0.45703125 -0.1171875,0.45703125 -0.7734375,0.45703125 v 0.3046874975 c 0.3398438,-0.0117187475 0.8554688,-0.0351562475 1.125,-0.0351562475 0.2578125,0 0.7734375,0.0234375 1.1132813,0.0351562475 V -0.30563281 c -0.515625,0 -0.7734375,0 -0.7851563,-0.3046875 V -2.5087578 c 0,-0.8554688 0,-1.171875 -0.3046875,-1.5234375 -0.140625,-0.1757813 -0.46875,-0.375 -1.0429687,-0.375 -0.84375,0 -1.2773438,0.5976562 -1.4414063,0.984375 v -3.4921875 l -1.44140624,0.1054687 v 0.3164063 c 0.70312504,0 0.78515624,0.070312 0.78515624,0.5507812 z M 6.9795859,-3.9853203 H 8.4092734 V -4.2900078 H 6.9795859 V -6.1298516 H 6.7334922 c -0.011719,0.8203125 -0.3164063,1.8867188 -1.2890625,1.921875 v 0.2226563 h 0.84375 v 2.7539062 c 0,1.21875004 0.9257812,1.33593754 1.2890625,1.33593754 0.703125,0 0.984375,-0.703125 0.984375,-1.33593754 V -1.8056328 H 8.3155234 v 0.5507812 c 0,0.73828129 -0.3046875,1.11328129 -0.6679687,1.11328129 -0.6679688,0 -0.6679688,-0.90234379 -0.6679688,-1.07812499 z m 3.2519531,0.5625 v 2.66015624 c 0,0.45703125 -0.117187,0.45703125 -0.7851562,0.45703125 V -9.453125e-4 C 9.7979453,-0.01266406 10.301852,-0.03610156 10.571383,-0.03610156 c 0.257812,0 0.785156,0.0234375 1.113281,0.0351562475 V -0.30563281 c -0.65625,0 -0.773437,0 -0.773437,-0.45703125 V -2.5907891 c 0,-1.03125 0.714843,-1.59375 1.347656,-1.59375 0.621094,0 0.738281,0.5390625 0.738281,1.1015625 v 2.32031254 c 0,0.45703125 -0.117187,0.45703125 -0.773437,0.45703125 v 0.3046874975 c 0.339843,-0.0117187475 0.855468,-0.0351562475 1.125,-0.0351562475 0.257812,0 0.773437,0.0234375 1.113281,0.0351562475 V -0.30563281 c -0.667969,0 -0.785156,0 -0.785156,-0.45703125 V -2.5907891 c 0,-1.03125 0.714843,-1.59375 1.347656,-1.59375 0.632812,0 0.738281,0.5390625 0.738281,1.1015625 v 2.32031254 c 0,0.45703125 -0.105469,0.45703125 -0.773437,0.45703125 v 0.3046874975 c 0.351562,-0.0117187475 0.855468,-0.0351562475 1.125,-0.0351562475 0.257812,0 0.773437,0.0234375 1.113281,0.0351562475 V -0.30563281 c -0.515625,0 -0.761719,0 -0.773438,-0.3046875 V -2.5087578 c 0,-0.8554688 0,-1.171875 -0.316406,-1.5234375 -0.128906,-0.1757813 -0.46875,-0.375 -1.042969,-0.375 -0.832031,0 -1.277343,0.5976562 -1.441406,0.984375 -0.140625,-0.8671875 -0.878906,-0.984375 -1.324219,-0.984375 -0.726562,0 -1.195312,0.4335937 -1.476562,1.0546875 v -1.0546875 l -1.4062502,0.1171875 v 0.3046875 c 0.7031252,0 0.7851562,0.070312 0.7851562,0.5625 z m 8.958984,-3.4921875 -1.429687,0.1054687 v 0.3164063 c 0.703125,0 0.773437,0.070312 0.773437,0.5507812 v 5.17968754 c 0,0.45703125 -0.105468,0.45703125 -0.773437,0.45703125 V -9.453125e-4 C 18.088961,-0.01266406 18.616305,-0.03610156 18.862398,-0.03610156 c 0.257813,0 0.738282,0.0234375 1.113282,0.0351562475 V -0.30563281 c -0.667969,0 -0.785157,0 -0.785157,-0.45703125 z m 0,0"
       style="fill:#000000;fill-opacity:1;fill-rule:nonzero;stroke:none"
       aria-label="html"
       transform="matrix(1.3333333,0,0,1.3333333,268.99467,14.942667)" />
    <path
       id="path21"
       d="m 179.79173,57.0921 37.02382,55.51538"
       style="fill:none;stroke:#000000;stroke-width:0.3985;stroke-linecap:butt;stroke-linejoin:miter;stroke-miterlimit:10;stroke-dasharray:none;stroke-opacity:1"
       transform="matrix(1.3333333,0,0,-1.3333333,18.426667,207.39733)" />
    <path
       id="path22"
       d="M -1.19551,1.59401 C -1.09587,0.99626 0,0.09961 0.29886,0 0,-0.09961 -1.09587,-0.99626 -1.19551,-1.59401"
       style="fill:none;stroke:#000000;stroke-width:0.31879;stroke-linecap:round;stroke-linejoin:round;stroke-miterlimit:10;stroke-dasharray:none;stroke-opacity:1"
       transform="matrix(0.73976,-1.1092267,-1.1092267,-0.73976,307.51405,57.254027)" />
    <path
       id="path23"
       d="m 178.78229,78.39297 h 39.29695 v 13.29485 h -39.29695 z"
       style="fill:#ffffff;fill-opacity:1;fill-rule:nonzero;stroke:none"
       transform="matrix(1.3333333,0,0,-1.3333333,18.426667,207.39733)" />
    <path
       id="path24"
       d="m 1.1590781,-2.1689844 c 0,-1.6289062 0.8203125,-2.0507812 1.3476563,-2.0507812 0.09375,0 0.7148437,0.011719 1.0664062,0.375 -0.4101562,0.023437 -0.46875,0.328125 -0.46875,0.4570312 0,0.2578125 0.1875,0.4570313 0.4570313,0.4570313 0.2578125,0 0.4570312,-0.1640625 0.4570312,-0.46875 0,-0.6796875 -0.75,-1.0664063 -1.5234375,-1.0664063 -1.2421875,0 -2.15624997,1.078125 -2.15624997,2.3085938 0,1.27734373 0.98437497,2.26171873 2.14453127,2.26171873 1.3359375,0 1.6523437,-1.19531253 1.6523437,-1.28906253 0,-0.1054687 -0.1054687,-0.1054687 -0.1289062,-0.1054687 -0.09375,0 -0.1171875,0.046875 -0.1289063,0.1054687 -0.2929687,0.92578128 -0.9375,1.04296878 -1.3125,1.04296878 -0.5273437,0 -1.40625,-0.421875 -1.40625,-2.02734378 z m 7.9570313,0.035156 c 0,-1.2773438 -0.9960938,-2.3320313 -2.1914063,-2.3320313 -1.2539062,0 -2.2148437,1.0898438 -2.2148437,2.3320313 0,1.28906248 1.03125,2.23828123 2.203125,2.23828123 1.2070312,0 2.203125,-0.97265625 2.203125,-2.23828123 z m -2.1914063,1.99218748 c -0.4335937,0 -0.8671875,-0.2109375 -1.1367187,-0.66796875 C 5.5301719,-1.2432031 5.5301719,-1.8525781 5.5301719,-2.2158594 c 0,-0.3867187 0,-0.9257812 0.2460937,-1.359375 0.2695313,-0.4570312 0.7382813,-0.6679687 1.1367188,-0.6679687 0.4335937,0 0.8671875,0.2226562 1.125,0.6445312 0.2578125,0.4335938 0.2578125,1.0078125 0.2578125,1.3828125 0,0.3632813 0,0.9023438 -0.2226563,1.33593753 -0.2226562,0.4453125 -0.65625,0.73828125 -1.1484375,0.73828095 z M 10.510641,-3.4228906 v 2.66015623 c 0,0.45703125 -0.117188,0.45703125 -0.7851566,0.45703125 v 0.3046875 c 0.3515626,-0.01171875 0.8554686,-0.03515625 1.1249996,-0.03515625 0.257813,0 0.785157,0.0234375 1.113282,0.03515625 v -0.3046875 c -0.65625,0 -0.773438,0 -0.773438,-0.45703125 V -2.5908594 c 0,-1.03125 0.714844,-1.59375 1.347656,-1.59375 0.621094,0 0.738282,0.5390625 0.738282,1.1015625 v 2.32031253 c 0,0.45703125 -0.117188,0.45703125 -0.773438,0.45703125 v 0.3046875 c 0.339844,-0.01171875 0.855469,-0.03515625 1.125,-0.03515625 0.257813,0 0.773438,0.0234375 1.113281,0.03515625 v -0.3046875 c -0.667968,0 -0.785156,0 -0.785156,-0.45703125 V -2.5908594 c 0,-1.03125 0.714844,-1.59375 1.347656,-1.59375 0.632813,0 0.738282,0.5390625 0.738282,1.1015625 v 2.32031253 c 0,0.45703125 -0.105469,0.45703125 -0.773438,0.45703125 v 0.3046875 c 0.351563,-0.01171875 0.855469,-0.03515625 1.125,-0.03515625 0.257813,0 0.773438,0.0234375 1.113281,0.03515625 v -0.3046875 c -0.515625,0 -0.761718,0 -0.773437,-0.3046875 V -2.5088281 c 0,-0.8554688 0,-1.171875 -0.316406,-1.5234375 -0.128907,-0.1757813 -0.46875,-0.375 -1.042969,-0.375 -0.832031,0 -1.277344,0.5976562 -1.441406,0.984375 -0.140625,-0.8671875 -0.878907,-0.984375 -1.324219,-0.984375 -0.726563,0 -1.195313,0.4335937 -1.476563,1.0546875 v -1.0546875 l -1.4062496,0.1171875 v 0.3046875 c 0.7031246,0 0.7851566,0.070312 0.7851566,0.5625 z m 8.302734,0 v 2.66015623 c 0,0.45703125 -0.117187,0.45703125 -0.785156,0.45703125 v 0.3046875 c 0.351562,-0.01171875 0.855469,-0.03515625 1.125,-0.03515625 0.257812,0 0.785156,0.0234375 1.113281,0.03515625 v -0.3046875 c -0.65625,0 -0.773437,0 -0.773437,-0.45703125 V -2.5908594 c 0,-1.03125 0.714843,-1.59375 1.347656,-1.59375 0.621094,0 0.738281,0.5390625 0.738281,1.1015625 v 2.32031253 c 0,0.45703125 -0.117187,0.45703125 -0.773437,0.45703125 v 0.3046875 c 0.339843,-0.01171875 0.855468,-0.03515625 1.125,-0.03515625 0.257812,0 0.773437,0.0234375 1.113281,0.03515625 v -0.3046875 c -0.667969,0 -0.785156,0 -0.785156,-0.45703125 V -2.5908594 c 0,-1.03125 0.714843,-1.59375 1.347656,-1.59375 0.632812,0 0.738281,0.5390625 0.738281,1.1015625 v 2.32031253 c 0,0.45703125 -0.105469,0.45703125 -0.773437,0.45703125 v 0.3046875 c 0.351562,-0.01171875 0.855468,-0.03515625 1.125,-0.03515625 0.257812,0 0.773437,0.0234375 1.113281,0.03515625 v -0.3046875 c -0.515625,0 -0.761719,0 -0.773438,-0.3046875 V -2.5088281 c 0,-0.8554688 0,-1.171875 -0.316406,-1.5234375 -0.128906,-0.1757813 -0.46875,-0.375 -1.042969,-0.375 -0.832031,0 -1.277343,0.5976562 -1.441406,0.984375 -0.140625,-0.8671875 -0.878906,-0.984375 -1.324219,-0.984375 -0.726562,0 -1.195312,0.4335937 -1.476562,1.0546875 v -1.0546875 l -1.40625,0.1171875 v 0.3046875 c 0.703125,0 0.785156,0.070312 0.785156,0.5625 z m 8.956055,-0.984375 -1.394532,0.1171875 v 0.3046875 c 0.65625,0 0.738282,0.058594 0.738282,0.5507812 v 2.67187503 c 0,0.45703125 -0.105469,0.45703125 -0.773438,0.45703125 v 0.3046875 c 0.316406,-0.01171875 0.855469,-0.03515625 1.101563,-0.03515625 0.339843,0 0.691406,0.0234375 1.03125,0.03515625 v -0.3046875 c -0.65625,0 -0.703125,-0.0585938 -0.703125,-0.4453125 z m 0.04687,-1.734375 c 0,-0.3164063 -0.246094,-0.5273438 -0.527344,-0.5273438 -0.316406,0 -0.527344,0.2695313 -0.527344,0.5273438 0,0.2695312 0.210938,0.5273437 0.527344,0.5273437 0.28125,0 0.527344,-0.1992187 0.527344,-0.5273437 z m 2.686523,2.15625 h 1.429688 v -0.3046875 h -1.429688 v -1.8398438 h -0.246094 c -0.01172,0.8203125 -0.316406,1.8867188 -1.289062,1.921875 v 0.2226563 h 0.84375 v 2.7539062 c 0,1.21875003 0.925781,1.33593753 1.289062,1.33593753 0.703125,0 0.984375,-0.703125 0.984375,-1.33593753 v -0.5742187 h -0.246093 v 0.5507812 c 0,0.73828128 -0.304688,1.11328128 -0.667969,1.11328128 -0.667969,0 -0.667969,-0.90234378 -0.667969,-1.07812498 z m 0,0"
       style="fill:#ff0000;fill-opacity:1;fill-rule:nonzero;stroke:none"
       aria-label="commit"
       transform="matrix(1.3333333,0,0,1.3333333,261.228,98.446667)" />
  </g>
</svg>
