<?xml version="1.0" encoding="UTF-8" standalone="no"?>
<!-- Created with Inkscape (http://www.inkscape.org/) -->

<svg
   version="1.1"
   id="svg1"
   width="394.25961"
   height="189.23111"
   viewBox="0 0 394.25961 189.23111"
   xmlns="http://www.w3.org/2000/svg"
   xmlns:svg="http://www.w3.org/2000/svg">
  <defs
     id="defs1" />
  <g
     id="g1"
     transform="translate(-4.6640625,-0.00971806)">
    <path
       id="path1"
       d="M 0,0 H 283.4681 M 0,28.3468 H 283.4681 M 0,56.69362 H 283.4681 M 0,85.04042 H 283.4681 M 0,113.38724 H 283.4681 M 0,141.72409 H 283.4681 M 0,0 V 141.73404 M 28.3468,0 V 141.73404 M 56.69362,0 V 141.73404 M 85.04042,0 V 141.73404 M 113.38724,0 V 141.73404 M 141.73404,0 V 141.73404 M 170.08086,0 V 141.73404 M 198.42766,0 V 141.73404 M 226.77448,0 V 141.73404 M 255.12128,0 V 141.73404 M 283.45813,0 v 141.73404"
       style="fill:none;stroke:#808080;stroke-width:0.19925;stroke-linecap:butt;stroke-linejoin:miter;stroke-miterlimit:10;stroke-dasharray:none;stroke-opacity:1"
       transform="matrix(1.3333333,0,0,-1.3333333,20.846667,189.108)" />
    <path
       id="path2"
       d="M 3.7850469,-0.61075 V 1.1705 c 0,0.4570312 -0.1054688,0.4570312 -0.7734375,0.4570312 V 1.9322187 C 3.3514531,1.9205 3.8670781,1.8970625 4.1248906,1.8970625 c 0.2695313,0 0.7734375,0.023437 1.125,0.035156 V 1.6275312 c -0.6679687,0 -0.7734375,0 -0.7734375,-0.4570312 V -4.407625 H 4.2537969 l -0.375,0.9140625 C 3.7498906,-3.7748125 3.3397344,-4.407625 2.5428594,-4.407625 c -1.1601563,0 -2.20312502,0.9726562 -2.20312502,2.2617187 0,1.24218755 0.96093752,2.25000005 2.12109372,2.25000005 0.6914063,0 1.1015625,-0.421875 1.3242188,-0.71484375 z m 0.035156,-2.1445313 V -1.36075 c 0,0.328125 -0.1875,0.59765625 -0.3984375,0.84375 -0.1289062,0.140625 -0.4570312,0.41015625 -0.9257812,0.41015625 -0.7265625,0 -1.3359375,-0.890625 -1.3359375,-2.03906255 0,-1.1835937 0.703125,-2.0039062 1.4414062,-2.0039062 0.796875,0 1.21875,0.8554687 1.21875,1.3945312 z M 6.3602422,-3.42325 v 2.66015625 c 0,0.45703125 -0.1171875,0.45703125 -0.7851563,0.45703125 v 0.3046875 c 0.3515625,-0.01171875 0.8554688,-0.03515625 1.125,-0.03515625 0.2578125,0 0.7851563,0.0234375 1.1132813,0.03515625 v -0.3046875 c -0.65625,0 -0.7734375,0 -0.7734375,-0.45703125 V -2.5912188 c 0,-1.03125 0.7148437,-1.59375 1.3476562,-1.59375 0.6210938,0 0.7382813,0.5390625 0.7382813,1.1015625 v 2.32031255 c 0,0.45703125 -0.1171875,0.45703125 -0.7734375,0.45703125 v 0.3046875 c 0.3398437,-0.01171875 0.8554687,-0.03515625 1.125,-0.03515625 0.2578125,0 0.7734373,0.0234375 1.1132813,0.03515625 v -0.3046875 c -0.6679688,0 -0.7851563,0 -0.7851563,-0.45703125 V -2.5912188 c 0,-1.03125 0.7148433,-1.59375 1.3476563,-1.59375 0.632812,0 0.738281,0.5390625 0.738281,1.1015625 v 2.32031255 c 0,0.45703125 -0.105469,0.45703125 -0.773437,0.45703125 v 0.3046875 c 0.351562,-0.01171875 0.855468,-0.03515625 1.125,-0.03515625 0.257812,0 0.773437,0.0234375 1.113281,0.03515625 v -0.3046875 c -0.515625,0 -0.761719,0 -0.773438,-0.3046875 v -1.8984375 c 0,-0.8554688 0,-1.171875 -0.316406,-1.5234375 -0.128906,-0.1757813 -0.46875,-0.375 -1.042969,-0.375 -0.832031,0 -1.2773433,0.5976562 -1.4414058,0.984375 -0.140625,-0.8671875 -0.8789063,-0.984375 -1.3242188,-0.984375 -0.7265625,0 -1.1953125,0.4335937 -1.4765625,1.0546875 V -4.407625 l -1.40625,0.1171875 V -3.98575 c 0.703125,0 0.7851563,0.070312 0.7851563,0.5625 z M 17.34657,-0.55215625 v 0.65625 L 18.811414,-0.001375 v -0.3046875 c -0.703125,0 -0.773437,-0.0703125 -0.773437,-0.5625 v -6.046875 l -1.441407,0.1054687 v 0.3164063 c 0.703125,0 0.785157,0.070312 0.785157,0.5507812 v 2.15625 c -0.292969,-0.3632812 -0.726563,-0.6210937 -1.265625,-0.6210937 -1.171875,0 -2.214844,0.984375 -2.214844,2.2617187 0,1.26562505 0.972656,2.25000005 2.109375,2.25000005 0.644531,0 1.089844,-0.33984375 1.335937,-0.65625 z m 0,-2.67187505 V -1.17325 c 0,0.17578125 0,0.19921875 -0.105468,0.36328125 -0.304688,0.48046875 -0.75,0.703125 -1.183594,0.703125 -0.445313,0 -0.796875,-0.2578125 -1.042969,-0.64453125 -0.257812,-0.4101563 -0.292969,-0.9726563 -0.292969,-1.3828125 0,-0.3632813 0.02344,-0.9609375 0.316407,-1.4179688 0.210937,-0.3046875 0.585937,-0.6328125 1.125,-0.6328125 0.351562,0 0.761718,0.1523438 1.078125,0.5976563 0.105468,0.1640625 0.105468,0.1875 0.105468,0.3632812 z m 0,0"
       style="fill:#000000;fill-opacity:1;fill-rule:nonzero;stroke:none"
       aria-label="qmd"
       transform="matrix(1.3333333,0,0,1.3333333,8.1173333,33.689333)" />
    <path
       id="path3"
       d="m 6.1653281,-3.3523359 c 0.1757813,-0.4921875 0.4921875,-0.6210938 0.84375,-0.6328125 v -0.3046875 c -0.2226562,0.011719 -0.515625,0.023437 -0.7265625,0.023437 -0.2929687,0 -0.7382812,-0.023437 -0.9375,-0.023437 v 0.3046875 c 0.3632813,0.011719 0.5859375,0.1875 0.5859375,0.4804687 0,0.058594 0,0.082031 -0.046875,0.2109375 L 4.9700156,-0.75077344 3.9856406,-3.5281172 c -0.035156,-0.1171875 -0.046875,-0.140625 -0.046875,-0.1875 0,-0.2695312 0.3867188,-0.2695312 0.5859375,-0.2695312 v -0.3046875 c -0.2929687,0 -0.796875,0.023437 -1.03125,0.023437 -0.3046875,0 -0.5976562,-0.011719 -0.890625,-0.023437 v 0.3046875 c 0.3632813,0 0.5273438,0.023437 0.6210938,0.1523437 0.058594,0.058594 0.1640625,0.3515625 0.234375,0.5390625 L 2.6028281,-0.87967969 1.6536094,-3.5398359 c -0.046875,-0.1171875 -0.046875,-0.140625 -0.046875,-0.1757813 0,-0.2695312 0.3867187,-0.2695312 0.5859375,-0.2695312 v -0.3046875 c -0.2929688,0 -0.8554688,0.023437 -1.0898438,0.023437 -0.035156,0 -0.56249997,-0.011719 -0.92578122,-0.023437 v 0.3046875 c 0.50390625,0 0.62109375,0.035156 0.73828125,0.3515625 l 1.25390627,3.52734371 c 0.058594,0.140625 0.082031,0.2109375 0.2109375,0.2109375 0.1289062,0 0.1523437,-0.05859375 0.1992187,-0.19921875 l 1.0078125,-2.81249996 1.0195313,2.82421871 c 0.035156,0.1171875 0.070312,0.1875 0.1992187,0.1875 0.1289063,0 0.1523438,-0.08203125 0.1992188,-0.1875 z m 1.8632813,0.84375 c 0.058594,-1.4882813 0.9023437,-1.734375 1.2421875,-1.734375 1.0195311,0 1.1250001,1.3476562 1.1250001,1.734375 z m -0.011719,0.2109375 h 2.7890626 c 0.210938,0 0.246094,0 0.246094,-0.2109375 0,-0.984375 -0.539063,-1.9570313 -1.7812503,-1.9570313 -1.1601563,0 -2.0742188,1.03125 -2.0742188,2.2734375 0,1.33593751 1.0429688,2.29687501 2.1914063,2.29687501 1.2187498,0 1.6640628,-1.1015625 1.6640628,-1.28906251 0,-0.1054687 -0.08203,-0.1171875 -0.128906,-0.1171875 -0.09375,0 -0.117188,0.058594 -0.128907,0.140625 -0.351562,1.01953126 -1.2539061,1.01953126 -1.3476561,1.01953126 -0.5039062,0 -0.9023437,-0.29296875 -1.125,-0.66796875 C 8.0168906,-1.2898359 8.0168906,-1.9460859 8.0168904,-2.2976484 Z m 5.0361326,-1.453125 v -3.1640625 l -1.429687,0.1054687 v 0.3164063 c 0.691406,0 0.773437,0.070312 0.773437,0.5507812 v 5.9414062625 h 0.246094 c 0.01172,-0.0117187525 0.09375,-0.1523437525 0.363281,-0.6210937525 0.152344,0.234375 0.5625,0.7265625 1.300782,0.7265625 1.183593,0 2.226562,-0.97265625 2.226562,-2.26171871 0,-1.265625 -0.972656,-2.25 -2.109375,-2.25 -0.785156,0 -1.207031,0.46875 -1.371094,0.65625 z m 0.03516,2.6132812 v -2.0507812 c 0,-0.1875 0,-0.1992188 0.105468,-0.3632813 0.386719,-0.5507812 0.9375,-0.6328125 1.171875,-0.6328125 0.457032,0 0.808594,0.2578125 1.054688,0.6328125 0.257812,0.4101563 0.28125,0.984375 0.28125,1.3945313 0,0.3632812 -0.01172,0.9609375 -0.304688,1.40624996 -0.210937,0.31640625 -0.585937,0.64453125 -1.125,0.64453125 -0.445312,0 -0.808593,-0.24609375 -1.042968,-0.609375 C 13.08818,-0.92655469 13.08818,-0.96171094 13.08818,-1.1374922 Z m 7.001953,0.97265626 C 19.55107,-0.36405469 18.437789,-1.0906172 18.437789,-3.3757734 c 0,-2.5898438 1.394531,-3.3984375 2.308594,-3.3984375 0.960937,0 2.320312,0.8554687 2.320312,3.3984375 0,0.7734375 -0.117187,2.1796875 -1.171875,2.95312496 -0.222656,-0.55078125 -0.539062,-1.05468746 -1.125,-1.05468746 -0.515625,0 -0.820312,0.4335937 -0.820312,0.84374996 0,0.26953125 0.128906,0.45703125 0.140625,0.46875 z m 1.535156,-0.09375 c -0.328125,0.1875 -0.65625,0.22265625 -0.867187,0.22265625 -0.515625,0 -0.585938,-0.45703125 -0.585938,-0.59765625 0,-0.29296875 0.199219,-0.62109376 0.597656,-0.62109376 0.527344,0 0.75,0.42187501 0.855469,0.99609376 z m 0.410156,0.1875 c 1.183594,-0.52734375 2.027344,-1.80468746 2.027344,-3.30468746 0,-2.0390625 -1.5,-3.6445313 -3.316406,-3.6445313 -1.78125,0 -3.304688,1.59375 -3.304688,3.6445313 0,2.015625 1.5,3.59765621 3.316407,3.59765621 0.304687,0 0.65625,-0.0585938 0.9375,-0.15234375 0.152343,0.94921874 0.292968,1.86328124 1.21875,1.86328124 1.019531,0 1.207031,-1.32421874 1.207031,-1.82812499 0,-0.1054687475 0,-0.2109375 -0.105469,-0.2109375 -0.09375,0 -0.105469,0.0703125 -0.117187,0.17578125 -0.05859,0.5390625 -0.480469,0.83203125 -0.902344,0.83203125 -0.46875,0 -0.714844,-0.33984375 -0.960938,-0.97265625 z m 0,0"
       style="fill:#000000;fill-opacity:1;fill-rule:nonzero;stroke:none"
       aria-label="webQ"
       transform="matrix(1.3333333,0,0,1.3333333,4.428,79.044)" />
    <path
       id="path4"
       d="M 3.7850469,-0.61075 V 1.1705 c 0,0.4570312 -0.1054688,0.4570312 -0.7734375,0.4570312 V 1.9322187 C 3.3514531,1.9205 3.8670781,1.8970625 4.1248906,1.8970625 c 0.2695313,0 0.7734375,0.023437 1.125,0.035156 V 1.6275312 c -0.6679687,0 -0.7734375,0 -0.7734375,-0.4570312 V -4.407625 H 4.2537969 l -0.375,0.9140625 C 3.7498906,-3.7748125 3.3397344,-4.407625 2.5428594,-4.407625 c -1.1601563,0 -2.20312502,0.9726562 -2.20312502,2.2617187 0,1.24218755 0.96093752,2.25000005 2.12109372,2.25000005 0.6914063,0 1.1015625,-0.421875 1.3242188,-0.71484375 z m 0.035156,-2.1445313 V -1.36075 c 0,0.328125 -0.1875,0.59765625 -0.3984375,0.84375 -0.1289062,0.140625 -0.4570312,0.41015625 -0.9257812,0.41015625 -0.7265625,0 -1.3359375,-0.890625 -1.3359375,-2.03906255 0,-1.1835937 0.703125,-2.0039062 1.4414062,-2.0039062 0.796875,0 1.21875,0.8554687 1.21875,1.3945312 z M 6.3602422,-3.42325 v 2.66015625 c 0,0.45703125 -0.1171875,0.45703125 -0.7851563,0.45703125 v 0.3046875 c 0.3515625,-0.01171875 0.8554688,-0.03515625 1.125,-0.03515625 0.2578125,0 0.7851563,0.0234375 1.1132813,0.03515625 v -0.3046875 c -0.65625,0 -0.7734375,0 -0.7734375,-0.45703125 V -2.5912188 c 0,-1.03125 0.7148437,-1.59375 1.3476562,-1.59375 0.6210938,0 0.7382813,0.5390625 0.7382813,1.1015625 v 2.32031255 c 0,0.45703125 -0.1171875,0.45703125 -0.7734375,0.45703125 v 0.3046875 c 0.3398437,-0.01171875 0.8554687,-0.03515625 1.125,-0.03515625 0.2578125,0 0.7734373,0.0234375 1.1132813,0.03515625 v -0.3046875 c -0.6679688,0 -0.7851563,0 -0.7851563,-0.45703125 V -2.5912188 c 0,-1.03125 0.7148433,-1.59375 1.3476563,-1.59375 0.632812,0 0.738281,0.5390625 0.738281,1.1015625 v 2.32031255 c 0,0.45703125 -0.105469,0.45703125 -0.773437,0.45703125 v 0.3046875 c 0.351562,-0.01171875 0.855468,-0.03515625 1.125,-0.03515625 0.257812,0 0.773437,0.0234375 1.113281,0.03515625 v -0.3046875 c -0.515625,0 -0.761719,0 -0.773438,-0.3046875 v -1.8984375 c 0,-0.8554688 0,-1.171875 -0.316406,-1.5234375 -0.128906,-0.1757813 -0.46875,-0.375 -1.042969,-0.375 -0.832031,0 -1.2773433,0.5976562 -1.4414058,0.984375 -0.140625,-0.8671875 -0.8789063,-0.984375 -1.3242188,-0.984375 -0.7265625,0 -1.1953125,0.4335937 -1.4765625,1.0546875 V -4.407625 l -1.40625,0.1171875 V -3.98575 c 0.703125,0 0.7851563,0.070312 0.7851563,0.5625 z M 17.34657,-0.55215625 v 0.65625 L 18.811414,-0.001375 v -0.3046875 c -0.703125,0 -0.773437,-0.0703125 -0.773437,-0.5625 v -6.046875 l -1.441407,0.1054687 v 0.3164063 c 0.703125,0 0.785157,0.070312 0.785157,0.5507812 v 2.15625 c -0.292969,-0.3632812 -0.726563,-0.6210937 -1.265625,-0.6210937 -1.171875,0 -2.214844,0.984375 -2.214844,2.2617187 0,1.26562505 0.972656,2.25000005 2.109375,2.25000005 0.644531,0 1.089844,-0.33984375 1.335937,-0.65625 z m 0,-2.67187505 V -1.17325 c 0,0.17578125 0,0.19921875 -0.105468,0.36328125 -0.304688,0.48046875 -0.75,0.703125 -1.183594,0.703125 -0.445313,0 -0.796875,-0.2578125 -1.042969,-0.64453125 -0.257812,-0.4101563 -0.292969,-0.9726563 -0.292969,-1.3828125 0,-0.3632813 0.02344,-0.9609375 0.316407,-1.4179688 0.210937,-0.3046875 0.585937,-0.6328125 1.125,-0.6328125 0.351562,0 0.761718,0.1523438 1.078125,0.5976563 0.105468,0.1640625 0.105468,0.1875 0.105468,0.3632812 z m 0,0"
       style="fill:#000000;fill-opacity:1;fill-rule:nonzero;stroke:none"
       aria-label="qmd"
       transform="matrix(1.3333333,0,0,1.3333333,8.1173333,33.689333)" />
    <path
       id="path5"
       d="M 0,28.3468 V 56.69362 H 56.69362 V 28.3468 Z"
       style="fill:#fff200;fill-opacity:1;fill-rule:nonzero;stroke:#000000;stroke-width:0.79701;stroke-linecap:butt;stroke-linejoin:miter;stroke-miterlimit:10;stroke-dasharray:none;stroke-opacity:1"
       transform="matrix(1.3333333,0,0,-1.3333333,20.846667,189.108)" />
    <path
       id="path6"
       d="m 113.38724,28.3468 v 28.34682 h 56.69362 V 28.3468 Z"
       style="fill:#b3e6fa;fill-opacity:1;fill-rule:nonzero;stroke:#000000;stroke-width:0.79701;stroke-linecap:butt;stroke-linejoin:miter;stroke-miterlimit:10;stroke-dasharray:none;stroke-opacity:1"
       transform="matrix(1.3333333,0,0,-1.3333333,20.846667,189.108)" />
    <path
       id="path7"
       d="m 198.42766,85.04042 v 28.34682 h 56.69362 V 85.04042 Z"
       style="fill:#ffd9b3;fill-opacity:1;fill-rule:nonzero;stroke:#000000;stroke-width:0.79701;stroke-linecap:butt;stroke-linejoin:miter;stroke-miterlimit:10;stroke-dasharray:none;stroke-opacity:1"
       transform="matrix(1.3333333,0,0,-1.3333333,20.846667,189.108)" />
  </g>
</svg>
