<?xml version="1.0" encoding="UTF-8" standalone="no"?>
<!-- Created with Inkscape (http://www.inkscape.org/) -->

<svg
   version="1.1"
   id="svg1"
   width="386.10028"
   height="189.23111"
   viewBox="0 0 386.10028 189.23111"
   xmlns="http://www.w3.org/2000/svg"
   xmlns:svg="http://www.w3.org/2000/svg">
  <defs
     id="defs1" />
  <g
     id="g1"
     transform="translate(-4.9140625,-0.00971806)">
    <path
       id="path1"
       d="M 0,0 H 283.4681 M 0,28.3468 H 283.4681 M 0,56.69362 H 283.4681 M 0,85.04042 H 283.4681 M 0,113.38724 H 283.4681 M 0,141.72409 H 283.4681 M 0,0 V 141.73404 M 28.3468,0 V 141.73404 M 56.69362,0 V 141.73404 M 85.04042,0 V 141.73404 M 113.38724,0 V 141.73404 M 141.73404,0 V 141.73404 M 170.08086,0 V 141.73404 M 198.42766,0 V 141.73404 M 226.77448,0 V 141.73404 M 255.12128,0 V 141.73404 M 283.45813,0 v 141.73404"
       style="fill:none;stroke:#808080;stroke-width:0.19925;stroke-linecap:butt;stroke-linejoin:miter;stroke-miterlimit:10;stroke-dasharray:none;stroke-opacity:1"
       transform="matrix(1.3333333,0,0,-1.3333333,12.937333,189.108)" />
    <path
       id="path2"
       d="m 2.9426719,-2.2016875 h -0.1875 l -0.1875,0.421875 c -0.2109375,-0.28125 -0.5039063,-0.421875 -0.8554688,-0.421875 -0.73828122,0 -1.34765622,0.5039062 -1.34765622,1.1367187 0,0.60937505 0.5859375,1.12500005 1.30078122,1.12500005 0.3046875,0 0.609375,-0.12890625 0.8320313,-0.33984375 v 0.83203125 c 0,0.15234375 0,0.19921875 -0.328125,0.19921875 H 2.0872031 V 0.962375 c 0.2109375,-0.0117188 0.421875,-0.0117188 0.6328125,-0.0117188 0.2109375,0 0.421875,0 0.6328125,0.0117188 V 0.7514375 h -0.09375 c -0.3164062,0 -0.3164062,-0.046875 -0.3164062,-0.19921875 z m -0.421875,1.46484375 c 0,0.09375 0,0.1171875 -0.09375,0.24609375 -0.2226563,0.31640625 -0.5507813,0.38671875 -0.7265625,0.38671875 -0.4804688,0 -0.84375002,-0.4453125 -0.84375002,-0.96093755 0,-0.5390625 0.42187502,-0.9609375 0.90234372,-0.9609375 0.4453125,0 0.7617188,0.3867188 0.7617188,0.6796875 z m 5.765625,-0.76171875 c 0,-0.6210938 -0.46875,-0.703125 -0.84375,-0.703125 -0.4921875,0 -0.7734375,0.2460937 -0.9140625,0.46875 -0.1171875,-0.4570313 -0.6328125,-0.46875 -0.8085938,-0.46875 -0.515625,0 -0.8085937,0.28125 -0.9257812,0.4921875 v -0.4921875 l -0.8203125,0.058594 v 0.2226563 c 0.3632812,0 0.4101562,0.023437 0.4101562,0.2695312 v 1.2304688 c 0,0.15234375 0,0.19921875 -0.3164062,0.19921875 h -0.09375 V 0.0014375 C 4.1848594,-0.01028125 4.3957969,-0.022 4.6067344,-0.022 c 0.2109375,0 0.421875,0.01171875 0.6328125,0.0234375 v -0.22265625 h -0.082031 c -0.328125,0 -0.328125,-0.046875 -0.328125,-0.19921875 V -1.287625 c 0,-0.5507813 0.5039063,-0.75 0.8320313,-0.75 0.3632812,0 0.4570312,0.2109375 0.4570312,0.5273437 v 1.0898438 c 0,0.15234375 0,0.19921875 -0.328125,0.19921875 h -0.09375 V 0.0014375 C 5.9192344,-0.01028125 6.1184531,-0.022 6.3411094,-0.022 c 0.2109375,0 0.421875,0.01171875 0.6328125,0.0234375 v -0.22265625 h -0.09375 c -0.328125,0 -0.328125,-0.046875 -0.328125,-0.19921875 V -1.287625 c 0,-0.5507813 0.515625,-0.75 0.8320312,-0.75 0.3632813,0 0.4570313,0.2109375 0.4570313,0.5273437 v 1.0898438 c 0,0.15234375 0,0.19921875 -0.328125,0.19921875 H 7.4309531 V 0.0014375 C 7.6418906,-0.01028125 7.8528281,-0.022 8.0637656,-0.022 c 0.2109375,0 0.421875,0.01171875 0.6328125,0.0234375 v -0.22265625 h -0.082031 c -0.328125,0 -0.328125,-0.046875 -0.328125,-0.19921875 z M 11.125289,-3.397 v 0.2109375 c 0.375,0 0.421875,0.035156 0.421875,0.28125 v 0.9726562 c -0.117187,-0.09375 -0.386719,-0.2695312 -0.796875,-0.2695312 -0.75,0 -1.3593749,0.5039062 -1.3593749,1.1367187 0,0.5976563 0.5625,1.12500005 1.3007809,1.12500005 0.410157,0 0.691407,-0.1875 0.832032,-0.3046875 v 0.3046875 L 12.379195,0.0014375 v -0.22265625 c -0.363281,0 -0.410156,-0.0351563 -0.410156,-0.28125 V -3.4555938 Z m 0.398438,2.859375 c -0.234375,0.36328125 -0.609375,0.43359375 -0.796875,0.43359375 -0.257813,0 -0.503907,-0.10546875 -0.667969,-0.328125 C 9.8948203,-0.631375 9.8831016,-0.912625 9.8831016,-1.0649688 c 0,-0.140625 0.011719,-0.46875 0.2226564,-0.6914062 0.175781,-0.1875 0.433594,-0.28125 0.679687,-0.28125 0.140625,0 0.503907,0.035156 0.738282,0.375 z m 0,0"
       style="fill:#000000;fill-opacity:1;fill-rule:nonzero;stroke:none"
       aria-label="qmd"
       transform="matrix(1.3333333,0,0,1.3333333,4.428,32.029333)" />
    <path
       id="path3"
       d="m 0,85.04042 v 28.34682 H 56.69362 V 85.04042 Z"
       style="fill:#fff200;fill-opacity:1;fill-rule:nonzero;stroke:#000000;stroke-width:0.79701;stroke-linecap:butt;stroke-linejoin:miter;stroke-miterlimit:10;stroke-dasharray:none;stroke-opacity:1"
       transform="matrix(1.3333333,0,0,-1.3333333,12.937333,189.108)" />
    <path
       id="path4"
       d="M 0,28.3468 V 56.69362 H 56.69362 V 28.3468 Z"
       style="fill:#fff200;fill-opacity:1;fill-rule:nonzero;stroke:#000000;stroke-width:0.79701;stroke-linecap:butt;stroke-linejoin:miter;stroke-miterlimit:10;stroke-dasharray:none;stroke-opacity:1"
       transform="matrix(1.3333333,0,0,-1.3333333,12.937333,189.108)" />
    <path
       id="path5"
       d="m 113.38724,28.3468 v 28.34682 h 56.69362 V 28.3468 Z"
       style="fill:#b3e6fa;fill-opacity:1;fill-rule:nonzero;stroke:#000000;stroke-width:0.79701;stroke-linecap:butt;stroke-linejoin:miter;stroke-miterlimit:10;stroke-dasharray:none;stroke-opacity:1"
       transform="matrix(1.3333333,0,0,-1.3333333,12.937333,189.108)" />
    <path
       id="path6"
       d="m 198.42766,85.04042 v 28.34682 h 56.69362 V 85.04042 Z"
       style="fill:#ffd9b3;fill-opacity:1;fill-rule:nonzero;stroke:#000000;stroke-width:0.79701;stroke-linecap:butt;stroke-linejoin:miter;stroke-miterlimit:10;stroke-dasharray:none;stroke-opacity:1"
       transform="matrix(1.3333333,0,0,-1.3333333,12.937333,189.108)" />
  </g>
</svg>
