<?xml version="1.0" encoding="UTF-8" standalone="no"?>
<!-- Created with Inkscape (http://www.inkscape.org/) -->

<svg
   version="1.1"
   id="svg1"
   width="353.25748"
   height="165.11002"
   viewBox="0 0 353.25748 165.11002"
   xmlns="http://www.w3.org/2000/svg"
   xmlns:svg="http://www.w3.org/2000/svg">
  <defs
     id="defs1" />
  <g
     id="g1"
     transform="translate(-4.8515625,-4.4335943)">
    <path
       id="path1"
       d="m 0,113.38724 h 56.69362 v 28.34679 H 0 Z"
       style="fill:#fffa99;fill-opacity:1;fill-rule:nonzero;stroke:#000000;stroke-width:0.79701;stroke-linecap:butt;stroke-linejoin:miter;stroke-miterlimit:10;stroke-dasharray:none;stroke-opacity:1"
       transform="matrix(1.3333333,0,0,-1.3333333,17.416,206.808)" />
    <path
       id="path2"
       d="m 9.0592031,-5.8241328 c 0.1757813,-0.5742188 0.609375,-0.6679688 0.9960939,-0.6679688 v -0.3164062 c -0.3046876,0.023437 -0.6093751,0.035156 -0.9140626,0.035156 -0.28125,0 -0.9257813,-0.023437 -1.1835938,-0.035156 v 0.3164062 c 0.6679688,0.011719 0.8671875,0.3398438 0.8671875,0.5273438 0,0.058594 -0.023437,0.140625 -0.046875,0.1992187 l -1.5,4.6054688 -1.59375,-4.8867188 c 0,-0.035156 -0.023437,-0.09375 -0.023437,-0.1523437 0,-0.2929688 0.5742188,-0.2929688 0.8320313,-0.2929688 v -0.3164062 c -0.3515625,0.035156 -1.03125,0.035156 -1.40625,0.035156 -0.3867188,0 -0.8085938,-0.023437 -1.21875,-0.035156 v 0.3164062 c 0.5625,0 0.7734375,0 0.890625,0.3515625 l 0.2226562,0.703125 -1.3828125,4.2773438 -1.6054687,-4.9101563 c -0.011719,-0.023437 -0.023437,-0.09375 -0.023437,-0.1289062 0,-0.2929688 0.5859375,-0.2929688 0.84375,-0.2929688 v -0.3164062 c -0.3632813,0.035156 -1.0429688,0.035156 -1.4179688,0.035156 -0.375,0 -0.80859372,-0.023437 -1.21874997,-0.035156 v 0.3164062 c 0.75,0 0.78515625,0.046875 0.91406247,0.4101563 l 1.9921875,6.11718749 c 0.023437,0.08203125 0.058594,0.1875 0.1875,0.1875 0.140625,0 0.1523438,-0.0703125 0.1992188,-0.19921875 l 1.640625,-5.06250004 1.6523437,5.07421879 c 0.035156,0.08203125 0.058594,0.1875 0.1875,0.1875 0.140625,0 0.1640625,-0.0703125 0.1992188,-0.19921875 z m 1.4677739,3.3164062 c 0.05859,-1.4882812 0.902343,-1.734375 1.242187,-1.734375 1.019531,0 1.125,1.3476563 1.125,1.734375 z m -0.01172,0.2109375 h 2.789062 c 0.210938,0 0.246094,0 0.246094,-0.2109375 0,-0.984375 -0.539062,-1.9570312 -1.78125,-1.9570312 -1.160156,0 -2.0742187,1.03125 -2.0742187,2.2734375 0,1.33593749 1.0429687,2.29687499 2.1914067,2.29687499 1.21875,0 1.664062,-1.1015625 1.664062,-1.28906249 0,-0.1054688 -0.08203,-0.1171875 -0.128906,-0.1171875 -0.09375,0 -0.117188,0.058594 -0.128906,0.140625 -0.351563,1.01953124 -1.253907,1.01953124 -1.347657,1.01953124 -0.503906,0 -0.902343,-0.29296875 -1.125,-0.66796875 C 10.515258,-1.2889766 10.515258,-1.9452266 10.515258,-2.2967891 Z m 5.036133,-1.453125 v -3.1640625 l -1.429688,0.1054688 v 0.3164062 c 0.691406,0 0.773438,0.070312 0.773438,0.5507813 V 8.59375e-5 h 0.246093 c 0.01172,-0.0117187475 0.09375,-0.1523437475 0.363282,-0.6210937475 0.152343,0.234375 0.5625,0.7265625 1.300781,0.7265625 1.183594,0 2.226562,-0.97265625 2.226562,-2.26171879 0,-1.265625 -0.972656,-2.25 -2.109375,-2.25 -0.785156,0 -1.207031,0.46875 -1.371093,0.65625 z m 0.03516,2.6132813 v -2.0507813 c 0,-0.1875 0,-0.1992187 0.105469,-0.3632812 0.386718,-0.5507813 0.9375,-0.6328125 1.171875,-0.6328125 0.457031,0 0.808593,0.2578125 1.054687,0.6328125 0.257813,0.4101562 0.28125,0.984375 0.28125,1.3945312 0,0.3632813 -0.01172,0.9609375 -0.304687,1.40625004 -0.210938,0.31640625 -0.585938,0.64453125 -1.125,0.64453125 -0.445313,0 -0.808594,-0.24609375 -1.042969,-0.609375 C 15.58655,-0.92569531 15.58655,-0.96085156 15.58655,-1.1366328 Z m 6.999023,0.97265624 C 22.046511,-0.36319531 20.93323,-1.0897578 20.93323,-3.3749141 c 0,-2.5898437 1.394531,-3.3984375 2.308593,-3.3984375 0.960938,0 2.320313,0.8554688 2.320313,3.3984375 0,0.7734375 -0.117188,2.1796875 -1.171875,2.95312504 -0.222656,-0.55078125 -0.539063,-1.05468754 -1.125,-1.05468754 -0.515625,0 -0.820313,0.4335938 -0.820313,0.84375004 0,0.26953125 0.128907,0.45703125 0.140625,0.46875 z m 1.535157,-0.09375 c -0.328125,0.1875 -0.65625,0.22265625 -0.867188,0.22265625 -0.515625,0 -0.585937,-0.45703125 -0.585937,-0.59765625 0,-0.29296875 0.199218,-0.62109374 0.597656,-0.62109374 0.527344,0 0.75,0.42187499 0.855469,0.99609374 z m 0.410156,0.1875 c 1.183594,-0.52734375 2.027344,-1.80468754 2.027344,-3.30468754 0,-2.0390625 -1.5,-3.6445312 -3.316407,-3.6445312 -1.78125,0 -3.304687,1.59375 -3.304687,3.6445312 0,2.015625 1.5,3.59765629 3.316406,3.59765629 0.304688,0 0.65625,-0.0585938 0.9375,-0.15234375 0.152344,0.94921876 0.292969,1.86328126 1.21875,1.86328126 1.019531,0 1.207031,-1.32421876 1.207031,-1.82812501 0,-0.1054687525 0,-0.2109375 -0.105468,-0.2109375 -0.09375,0 -0.105469,0.0703125 -0.117188,0.17578125 -0.05859,0.5390625 -0.480469,0.83203125 -0.902344,0.83203125 -0.46875,0 -0.714843,-0.33984375 -0.960937,-0.97265625 z m 0,0"
       style="fill:#000000;fill-opacity:1;fill-rule:nonzero;stroke:none"
       aria-label="WebQ"
       transform="matrix(1.3333333,0,0,1.3333333,37.132,40.050667)" />
    <path
       id="path3"
       d="m 3.5859687,-3.1759297 c -0.421875,-0.703125 -0.9375,-0.7851562 -1.2421875,-0.7851562 -1.0664062,0 -2.03906245,0.8554687 -2.03906245,2.0390625 0,1.13671871 0.91406245,2.01562496 1.96874995,2.01562496 0.375,0 0.8320313,-0.12890625 1.21875,-0.62109375 V 1.0545391 c 0,0.4101562 -0.1054687,0.4101562 -0.6914062,0.4101562 v 0.2695313 c 0.421875,-0.011719 0.5859375,-0.023437 1.0195312,-0.023437 0.4335938,0 0.5507813,0.011719 1.0195313,0.023437 V 1.4646953 c -0.5859375,0 -0.6914063,0 -0.6914063,-0.4101562 v -5.015625 H 3.9258125 Z m -0.070312,1.9335938 c 0,0.1640625 0,0.1992187 -0.140625,0.44531246 -0.2226562,0.38671875 -0.5976562,0.66796875 -1.0664062,0.66796875 -0.6679688,0 -1.2304688,-0.78515625 -1.2304688,-1.79296871 0,-1.0429688 0.6328125,-1.7929688 1.3242188,-1.7929688 0.703125,0 1.1132812,0.75 1.1132812,1.2421875 z m 3.0117188,-1.078125 c 0,-0.9726563 0.703125,-1.4179688 1.2421875,-1.4179688 0.4921875,0 0.65625,0.3515625 0.65625,0.9726563 v 2.07421871 c 0,0.41015625 -0.1054688,0.41015625 -0.6914063,0.41015625 V -1.484375e-4 C 8.1562812,-0.02358594 8.3203437,-0.02358594 8.7539375,-0.02358594 c 0.4335937,0 0.5507812,0 1.0195312,0.0234375025 V -0.28139844 c -0.5859375,0 -0.6914062,0 -0.6914062,-0.41015625 V -2.3204609 c 0,-0.9726563 0.703125,-1.4179688 1.2421875,-1.4179688 0.492187,0 0.65625,0.3515625 0.65625,0.9726563 v 2.07421871 c 0,0.41015625 -0.105469,0.41015625 -0.691406,0.41015625 V -1.484375e-4 C 10.710969,-0.02358594 10.875031,-0.02358594 11.308625,-0.02358594 c 0.433594,0 0.550781,0 1.019531,0.0234375025 V -0.28139844 c -0.457031,0 -0.679687,0 -0.691406,-0.26953125 V -2.2735859 c 0,-0.7851563 0,-1.03125 -0.292969,-1.3710938 -0.1875,-0.2109375 -0.550781,-0.3164062 -0.960937,-0.3164062 -0.6445315,0 -1.0781253,0.375 -1.3359378,0.8554687 -0.1054687,-0.5390625 -0.46875,-0.8554687 -1.21875,-0.8554687 -0.7148437,0 -1.1484375,0.46875 -1.3476562,0.8789062 v -0.8789062 l -1.3007813,0.09375 v 0.28125 c 0.609375,0 0.6914063,0.058594 0.6914063,0.5039062 v 2.39062501 c 0,0.41015625 -0.1054688,0.41015625 -0.6914063,0.41015625 V -1.484375e-4 C 5.6015937,-0.02358594 5.7656562,-0.02358594 6.19925,-0.02358594 c 0.4335937,0 0.5507812,0 1.0195312,0.0234375025 V -0.28139844 c -0.5859375,0 -0.6914062,0 -0.6914062,-0.41015625 z m 9.5068355,1.2421875 c 0,0.16406246 0,0.18749996 -0.140625,0.37499996 -0.28125,0.41015625 -0.691406,0.57421875 -1.042969,0.57421875 -0.386719,0 -0.75,-0.2109375 -0.984375,-0.5859375 -0.234375,-0.38671871 -0.246094,-0.91406251 -0.246094,-1.20703121 0,-0.421875 0.04687,-0.890625 0.28125,-1.2539063 0.199219,-0.28125 0.5625,-0.5625 1.042969,-0.5625 0.375,0 0.738281,0.1875 0.972656,0.5273438 0.117188,0.140625 0.117188,0.1523437 0.117188,0.328125 z m 0.02344,-2.3554688 c -0.04687,-0.058594 -0.445312,-0.5273437 -1.148437,-0.5273437 -1.101563,0 -2.0625,0.8789062 -2.0625,2.0390625 0,1.11328121 0.902344,2.01562496 1.96875,2.01562496 0.644532,0 1.054687,-0.375 1.21875,-0.57421875 V 0.09360156 L 17.381867,-1.484375e-4 V -0.28139844 c -0.609375,0 -0.691406,-0.0585938 -0.691406,-0.50390625 V -6.2228047 l -1.324219,0.1054688 v 0.2695312 c 0.609375,0 0.691406,0.070312 0.691406,0.5039063 z m 0,0"
       style="fill:#000000;fill-opacity:1;fill-rule:nonzero;stroke:none"
       aria-label="qmd"
       transform="matrix(1.3333333,0,0,1.3333333,5.1093333,12.730667)" />
    <path
       id="path4"
       d="M 0,28.3468 H 56.69362 V 56.69359 H 0 Z"
       style="fill:#fffa99;fill-opacity:1;fill-rule:nonzero;stroke:#000000;stroke-width:0.79701;stroke-linecap:butt;stroke-linejoin:miter;stroke-miterlimit:10;stroke-dasharray:none;stroke-opacity:1"
       transform="matrix(1.3333333,0,0,-1.3333333,17.416,206.808)" />
    <path
       id="path5"
       d="M 3.7846953,-0.60891406 V 1.1723359 c 0,0.4570313 -0.1054687,0.4570313 -0.7734375,0.4570313 v 0.3046875 c 0.3398438,-0.011719 0.8554688,-0.035156 1.1132813,-0.035156 0.2695312,0 0.7734375,0.023437 1.125,0.035156 V 1.6293672 c -0.6679688,0 -0.7734375,0 -0.7734375,-0.4570313 v -5.578125 H 4.2534453 l -0.375,0.9140625 c -0.1289062,-0.28125 -0.5390625,-0.9140625 -1.3359375,-0.9140625 -1.1601562,0 -2.20312499,0.9726563 -2.20312499,2.2617188 0,1.24218749 0.96093749,2.24999999 2.12109379,2.24999999 0.6914062,0 1.1015625,-0.421875 1.3242187,-0.71484375 z m 0.035156,-2.14453124 v 1.3945312 c 0,0.328125 -0.1875,0.59765629 -0.3984375,0.84375004 -0.1289063,0.140625 -0.4570313,0.41015625 -0.9257813,0.41015625 -0.7265625,0 -1.3359375,-0.890625 -1.3359375,-2.03906249 0,-1.1835938 0.703125,-2.0039063 1.4414063,-2.0039063 0.796875,0 1.21875,0.8554688 1.21875,1.3945313 z M 8.7387969,-3.8667266 7.4614531,-4.1714141 c -0.6210937,-0.1523437 -1.0078125,-0.6914062 -1.0078125,-1.265625 0,-0.703125 0.5390625,-1.3007812 1.3125,-1.3007812 1.6640625,0 1.8867188,1.6289062 1.9453125,2.0742187 0.011719,0.058594 0.011719,0.1171875 0.1171875,0.1171875 0.1289063,0 0.1289063,-0.046875 0.1289063,-0.234375 v -2.0039062 c 0,-0.1640625 0,-0.234375 -0.1054688,-0.234375 -0.070312,0 -0.082031,0.011719 -0.1523437,0.1289062 l -0.3515625,0.5625 c -0.2929688,-0.28125 -0.703125,-0.6914062 -1.59375,-0.6914062 -1.1015625,0 -1.9335938,0.8789062 -1.9335938,1.9335937 0,0.8203125 0.5273438,1.546875 1.3007813,1.8164063 0.1054687,0.046875 0.6210937,0.1640625 1.3125,0.328125 0.2695312,0.070312 0.5742187,0.140625 0.84375,0.515625 0.2109375,0.2578125 0.3164062,0.5859375 0.3164062,0.9140625 0,0.70312499 -0.5039062,1.41796874 -1.3359375,1.41796874 -0.2929687,0 -1.0429687,-0.046875 -1.5703125,-0.5390625 C 6.1020781,-1.1596953 6.0786406,-1.8042266 6.0669219,-2.1557891 c -0.011719,-0.1054687 -0.09375,-0.1054687 -0.1171875,-0.1054687 -0.1289063,0 -0.1289063,0.070312 -0.1289063,0.2460937 v 1.99218754 c 0,0.17578125 0,0.24609375 0.1054688,0.24609375 0.070312,0 0.082031,-0.0234375 0.1523437,-0.12890625 0,-0.01171875 0.023437,-0.046875 0.3515625,-0.57421875 0.3164063,0.33984375 0.9492188,0.703125 1.8398438,0.703125 1.1601562,0 1.9570311,-0.984375 1.9570311,-2.07421879 0,-0.9960937 -0.6562499,-1.8164062 -1.4882811,-2.015625 z m 3.8115231,-0.5390625 -1.394531,0.1171875 v 0.3046875 c 0.65625,0 0.738281,0.058594 0.738281,0.5507813 v 2.67187499 c 0,0.45703125 -0.105468,0.45703125 -0.773437,0.45703125 V 4.609375e-4 C 11.437039,-0.01125781 11.976102,-0.03469531 12.222195,-0.03469531 c 0.339844,0 0.691407,0.0234375 1.03125,0.0351562475 V -0.30422656 c -0.65625,0 -0.703125,-0.0585938 -0.703125,-0.4453125 z m 0.04687,-1.734375 c 0,-0.3164062 -0.246093,-0.5273437 -0.527343,-0.5273437 -0.316407,0 -0.527344,0.2695312 -0.527344,0.5273437 0,0.2695313 0.210937,0.5273438 0.527344,0.5273438 0.28125,0 0.527343,-0.1992188 0.527343,-0.5273438 z m 2.686524,2.15625 h 1.429687 V -4.2886016 H 15.283714 V -6.1284453 H 15.03762 c -0.01172,0.8203125 -0.316406,1.8867187 -1.289062,1.921875 v 0.2226562 h 0.84375 v 2.7539063 c 0,1.21874999 0.925781,1.33593749 1.289062,1.33593749 0.703125,0 0.984375,-0.703125 0.984375,-1.33593749 v -0.5742188 h -0.246094 v 0.5507813 c 0,0.73828124 -0.304687,1.11328124 -0.667968,1.11328124 -0.667969,0 -0.667969,-0.90234374 -0.667969,-1.07812504 z m 3.263672,1.4765625 c 0.05859,-1.4882812 0.902343,-1.734375 1.242187,-1.734375 1.019531,0 1.125,1.3476563 1.125,1.734375 z m -0.01172,0.2109375 h 2.789062 c 0.210938,0 0.246094,0 0.246094,-0.2109375 0,-0.984375 -0.539062,-1.9570312 -1.78125,-1.9570312 -1.160156,0 -2.074219,1.03125 -2.074219,2.2734375 0,1.33593749 1.042969,2.29687499 2.191407,2.29687499 1.21875,0 1.664062,-1.1015625 1.664062,-1.28906249 0,-0.1054688 -0.08203,-0.1171875 -0.128906,-0.1171875 -0.09375,0 -0.117188,0.058594 -0.128906,0.140625 -0.351563,1.01953124 -1.253907,1.01953124 -1.347657,1.01953124 -0.503906,0 -0.902343,-0.29296875 -1.125,-0.66796875 C 18.535672,-1.2886016 18.535672,-1.9448516 18.535672,-2.2964141 Z m 0,0"
       style="fill:#000000;fill-opacity:1;fill-rule:nonzero;stroke:none"
       aria-label="qSite"
       transform="matrix(1.3333333,0,0,1.3333333,40.637333,153.36267)" />
    <path
       id="path6"
       d="m 1.6418906,-6.2236484 -1.32421873,0.1054687 v 0.2695313 c 0.609375,0 0.69140623,0.070312 0.69140623,0.5039062 v 4.65234376 c 0,0.41015625 -0.10546873,0.41015625 -0.69140623,0.41015625 V -9.921875e-4 C 0.73954687,-0.02442969 0.90360937,-0.02442969 1.3372031,-0.02442969 c 0.4335938,0 0.5507813,0 1.0195313,0.0234375025 V -0.28224219 c -0.5859375,0 -0.6914063,0 -0.6914063,-0.41015625 V -2.3213047 c 0,-0.9492187 0.6796875,-1.4179687 1.2421875,-1.4179687 0.5273438,0 0.6445313,0.4335937 0.6445313,0.9726562 v 2.07421876 c 0,0.41015625 -0.09375,0.41015625 -0.6914063,0.41015625 V -9.921875e-4 C 3.2825156,-0.02442969 3.4582969,-0.02442969 3.8801719,-0.02442969 c 0.4335937,0 0.5507812,0 1.0195312,0.0234375025 V -0.28224219 c -0.4570312,0 -0.6796875,0 -0.6796875,-0.26953125 V -2.2744297 c 0,-0.75 0,-1.0078125 -0.2578125,-1.3242187 -0.1992187,-0.2460938 -0.5507812,-0.3632813 -0.9960937,-0.3632813 -0.5976563,0 -1.0429688,0.3164063 -1.3125,0.8085938 h -0.011719 z m 6.1347656,2.6367187 v -0.28125 H 6.475875 v -1.640625 H 6.2180625 c 0,0.75 -0.3164063,1.6757813 -1.1835938,1.6992188 v 0.2226562 h 0.7734375 v 2.4726563 c 0,1.00781246 0.7265625,1.20703121 1.2070313,1.20703121 0.5976562,0 0.9140625,-0.57421875 0.9140625,-1.20703121 V -1.6181797 H 7.6711875 v 0.4804688 c 0,0.65624996 -0.28125,0.98437496 -0.5976563,0.98437496 -0.5976562,0 -0.5976562,-0.78515625 -0.5976562,-0.94921876 v -2.484375 z m 2.3320308,1.265625 c 0,-0.9726562 0.703125,-1.4179687 1.242188,-1.4179687 0.492187,0 0.65625,0.3515625 0.65625,0.9726562 v 2.07421876 c 0,0.41015625 -0.105469,0.41015625 -0.691406,0.41015625 V -9.921875e-4 C 11.737594,-0.02442969 11.901656,-0.02442969 12.33525,-0.02442969 c 0.433594,0 0.550781,0 1.019531,0.0234375025 V -0.28224219 c -0.585937,0 -0.691406,0 -0.691406,-0.41015625 V -2.3213047 c 0,-0.9726562 0.703125,-1.4179687 1.242187,-1.4179687 0.492188,0 0.65625,0.3515625 0.65625,0.9726562 v 2.07421876 c 0,0.41015625 -0.105468,0.41015625 -0.691406,0.41015625 V -9.921875e-4 C 14.292281,-0.02442969 14.456344,-0.02442969 14.889937,-0.02442969 c 0.433594,0 0.550782,0 1.019532,0.0234375025 V -0.28224219 c -0.457032,0 -0.679688,0 -0.691407,-0.26953125 V -2.2744297 c 0,-0.7851562 0,-1.03125 -0.292968,-1.3710937 -0.1875,-0.2109375 -0.550782,-0.3164063 -0.960938,-0.3164063 -0.644531,0 -1.078125,0.375 -1.335937,0.8554688 -0.105469,-0.5390625 -0.46875,-0.8554688 -1.21875,-0.8554688 -0.714844,0 -1.148438,0.46875 -1.347657,0.8789063 v -0.8789063 l -1.3007808,0.09375 v 0.28125 c 0.609375,0 0.6914063,0.058594 0.6914063,0.5039063 v 2.39062496 c 0,0.41015625 -0.1054688,0.41015625 -0.6914063,0.41015625 V -9.921875e-4 C 9.1829062,-0.02442969 9.3469687,-0.02442969 9.7805625,-0.02442969 c 0.4335935,0 0.5507815,0 1.0195315,0.0234375025 V -0.28224219 c -0.585938,0 -0.691407,0 -0.691407,-0.41015625 z m 7.666993,-3.9023437 -1.324219,0.1054687 v 0.2695313 c 0.609375,0 0.679687,0.070312 0.679687,0.5039062 v 4.65234376 c 0,0.41015625 -0.09375,0.41015625 -0.679687,0.41015625 V -9.921875e-4 C 16.861617,-0.02442969 17.037398,-0.02442969 17.447555,-0.02442969 c 0.421875,0 0.574218,0 1.019531,0.0234375025 V -0.28224219 c -0.597656,0 -0.691406,0 -0.691406,-0.41015625 z m 0,0"
       style="fill:#000000;fill-opacity:1;fill-rule:nonzero;stroke:none"
       aria-label="html"
       transform="matrix(1.3333333,0,0,1.3333333,4.428,127.27867)" />
    <path
       id="path7"
       d="M 28.3468,112.98872 V 57.55038"
       style="fill:none;stroke:#000000;stroke-width:0.3985;stroke-linecap:butt;stroke-linejoin:miter;stroke-miterlimit:10;stroke-dasharray:none;stroke-opacity:1"
       transform="matrix(1.3333333,0,0,-1.3333333,17.416,206.808)" />
    <path
       id="path8"
       d="M -1.19551,1.59401 C -1.09587,0.99626 0,0.09961 0.29886,0 0,-0.09961 -1.09587,-0.99626 -1.19551,-1.59401"
       style="fill:none;stroke:#000000;stroke-width:0.31879;stroke-linecap:round;stroke-linejoin:round;stroke-miterlimit:10;stroke-dasharray:none;stroke-opacity:1"
       transform="matrix(0,1.3333333,1.3333333,0,55.211733,130.07416)" />
    <path
       id="path9"
       d="M 12.20273,78.60649 H 44.49088 V 91.47435 H 12.20273 Z"
       style="fill:#ffffff;fill-opacity:1;fill-rule:nonzero;stroke:none"
       transform="matrix(1.3333333,0,0,-1.3333333,17.416,206.808)" />
    <path
       id="path10"
       d="m 1.5937109,-2.0501172 c 0,-0.375 0.1054688,-1.6875 1.125,-1.6875 v 0.011719 c -0.023437,0.011719 -0.1640625,0.1171875 -0.1640625,0.328125 0,0.2460937 0.1875,0.3984375 0.3984375,0.3984375 0.1875,0 0.3867188,-0.140625 0.3867188,-0.4101563 0,-0.28125 -0.2695313,-0.5507812 -0.6679688,-0.5507812 -0.5390625,0 -0.9140625,0.375 -1.125,0.9257812 v -0.9257812 l -1.27734371,0.09375 v 0.28125 c 0.609375,0 0.69140625,0.058594 0.69140625,0.5039062 v 2.39062501 c 0,0.41015625 -0.10546875,0.41015625 -0.69140625,0.41015625 V 6.640625e-4 C 0.73824219,-0.02277344 0.85542969,-0.02277344 1.3124609,-0.02277344 c 0.3632813,0 0.5742188,0 1.1484375,0.0234375025 V -0.28058594 h -0.1875 c -0.65625,0 -0.6796875,-0.09375 -0.6796875,-0.421875 z m 5.5957032,0 c 0.1992187,0 0.2460937,0 0.2460937,-0.1875 0,-0.9257812 -0.5039062,-1.78125 -1.6523437,-1.78125 -1.078125,0 -1.921875,0.9375 -1.921875,2.0507813 0,1.17187496 0.9492187,2.06249996 2.0390625,2.06249996 1.0898437,0 1.5351562,-0.94921875 1.5351562,-1.16015626 0,-0.058594 -0.046875,-0.1171875 -0.1289062,-0.1171875 -0.09375,0 -0.1171875,0.058594 -0.1289063,0.09375 -0.3046875,0.91406251 -1.1015625,0.93750001 -1.2304687,0.93750001 -0.4335938,0 -0.796875,-0.24609375 -1.0078125,-0.55078125 C 4.6464453,-1.1360547 4.6347266,-1.6751172 4.6347266,-2.0501172 Z M 4.6464453,-2.2727734 c 0.082031,-1.3710938 0.8789063,-1.5234375 1.1367188,-1.5234375 0.4921875,0 1.03125,0.3867187 1.0429687,1.5234375 z m 4.7226563,-0.046875 c 0,-0.9492188 0.6796874,-1.4179688 1.2421874,-1.4179688 0.527344,0 0.644531,0.4335938 0.644531,0.9726563 v 2.07421871 c 0,0.41015625 -0.09375,0.41015625 -0.691406,0.41015625 V 6.640625e-4 C 10.986289,-0.02277344 11.16207,-0.02277344 11.583945,-0.02277344 c 0.433594,0 0.550782,0 1.019532,0.0234375025 V -0.28058594 c -0.457032,0 -0.679688,0 -0.679688,-0.26953125 V -2.2727734 c 0,-0.75 0,-1.0078125 -0.257812,-1.3242188 -0.199219,-0.2460937 -0.550782,-0.3632812 -0.996094,-0.3632812 -0.8320314,0 -1.2187502,0.6210937 -1.3476564,0.8671875 v -0.8671875 l -1.3007813,0.09375 v 0.28125 c 0.609375,0 0.6914063,0.058594 0.6914063,0.5039062 v 2.39062501 c 0,0.41015625 -0.1054688,0.41015625 -0.6914063,0.41015625 V 6.640625e-4 C 8.4433203,-0.02277344 8.6073828,-0.02277344 9.0409766,-0.02277344 c 0.4335937,0 0.5507812,0 1.0195314,0.0234375025 V -0.28058594 c -0.5859377,0 -0.6914064,0 -0.6914064,-0.41015625 z m 6.9462894,1.2421875 c 0,0.16406246 0,0.18749996 -0.140625,0.37499996 -0.28125,0.41015625 -0.691407,0.57421875 -1.042969,0.57421875 -0.386719,0 -0.75,-0.2109375 -0.984375,-0.5859375 -0.234375,-0.38671871 -0.246094,-0.91406251 -0.246094,-1.20703121 0,-0.421875 0.04687,-0.890625 0.28125,-1.2539063 0.199219,-0.28125 0.5625,-0.5625 1.042969,-0.5625 0.375,0 0.738281,0.1875 0.972656,0.5273438 0.117188,0.140625 0.117188,0.1523437 0.117188,0.328125 z m 0.02344,-2.3554688 c -0.04687,-0.058594 -0.445312,-0.5273437 -1.148437,-0.5273437 -1.101563,0 -2.0625,0.8789062 -2.0625,2.0390625 0,1.11328121 0.902343,2.01562496 1.96875,2.01562496 0.644531,0 1.054687,-0.375 1.21875,-0.57421875 V 0.09441406 L 17.663047,6.640625e-4 V -0.28058594 c -0.609375,0 -0.691406,-0.0585938 -0.691406,-0.50390625 V -6.2219922 l -1.324219,0.1054688 v 0.2695312 c 0.609375,0 0.691406,0.070312 0.691406,0.5039063 z m 5.191406,1.3828125 c 0.199219,0 0.246094,0 0.246094,-0.1875 0,-0.9257812 -0.503906,-1.78125 -1.652344,-1.78125 -1.078125,0 -1.921875,0.9375 -1.921875,2.0507813 0,1.17187496 0.949219,2.06249996 2.039063,2.06249996 1.089844,0 1.535156,-0.94921875 1.535156,-1.16015626 0,-0.058594 -0.04687,-0.1171875 -0.128906,-0.1171875 -0.09375,0 -0.117188,0.058594 -0.128906,0.09375 -0.304688,0.91406251 -1.101563,0.93750001 -1.230469,0.93750001 -0.433594,0 -0.796875,-0.24609375 -1.007813,-0.55078125 -0.292971,-0.43359376 -0.30469,-0.97265626 -0.30469,-1.34765626 z m -2.542968,-0.2226562 c 0.08203,-1.3710938 0.878906,-1.5234375 1.136718,-1.5234375 0.492188,0 1.03125,0.3867187 1.042969,1.5234375 z m 4.649414,0.2226562 c 0,-0.375 0.105468,-1.6875 1.125,-1.6875 v 0.011719 c -0.02344,0.011719 -0.164063,0.1171875 -0.164063,0.328125 0,0.2460937 0.1875,0.3984375 0.398438,0.3984375 0.1875,0 0.386718,-0.140625 0.386718,-0.4101563 0,-0.28125 -0.269531,-0.5507812 -0.667968,-0.5507812 -0.539063,0 -0.914063,0.375 -1.125,0.9257812 v -0.9257812 l -1.277344,0.09375 v 0.28125 c 0.609375,0 0.691406,0.058594 0.691406,0.5039062 v 2.39062501 c 0,0.41015625 -0.105469,0.41015625 -0.691406,0.41015625 V 6.640625e-4 C 22.781211,-0.02277344 22.898398,-0.02277344 23.35543,-0.02277344 c 0.363281,0 0.574218,0 1.148437,0.0234375025 V -0.28058594 h -0.1875 c -0.65625,0 -0.679687,-0.09375 -0.679687,-0.421875 z m 0,0"
       style="fill:#ff0000;fill-opacity:1;fill-rule:nonzero;stroke:none"
       aria-label="render"
       transform="matrix(1.3333333,0,0,1.3333333,38.113333,97.573333)" />
    <path
       id="path11"
       d="m 113.38724,28.3468 h 56.69362 v 28.34679 h -56.69362 z"
       style="fill:#cceffc;fill-opacity:1;fill-rule:nonzero;stroke:#000000;stroke-width:0.79701;stroke-linecap:butt;stroke-linejoin:miter;stroke-miterlimit:10;stroke-dasharray:none;stroke-opacity:1"
       transform="matrix(1.3333333,0,0,-1.3333333,17.416,206.808)" />
    <path
       id="path12"
       d="m 2.2136953,-1.7098125 c -0.8671875,0 -0.8671875,-0.9960937 -0.8671875,-1.2304687 0,-0.2695313 0.011719,-0.5859375 0.1523438,-0.8320313 C 1.5808828,-3.8895 1.8152578,-4.17075 2.2136953,-4.17075 c 0.8671875,0 0.8671875,0.9960938 0.8671875,1.21875 0,0.2695313 -0.011719,0.5976563 -0.1640625,0.84375 -0.082031,0.1171875 -0.3046875,0.3984375 -0.703125,0.3984375 z m -1.1601562,0.3867188 c 0,-0.035156 0,-0.2695313 0.1757812,-0.46875 0.3867188,0.28125 0.796875,0.3046875 0.984375,0.3046875 0.9257813,0 1.6054688,-0.6796875 1.6054688,-1.453125 0,-0.3632813 -0.1523438,-0.7382813 -0.3984375,-0.9609375 0.3515625,-0.3398438 0.7148437,-0.3867188 0.890625,-0.3867188 0.023437,0 0.070312,0 0.1054687,0 -0.1171875,0.046875 -0.1640625,0.1523438 -0.1640625,0.2695313 0,0.1757812 0.1289063,0.2929687 0.2929688,0.2929687 0.09375,0 0.28125,-0.070312 0.28125,-0.2929687 0,-0.1757813 -0.1171875,-0.4921875 -0.5039063,-0.4921875 -0.1992187,0 -0.6328125,0.058594 -1.0546875,0.46875 -0.421875,-0.328125 -0.84375,-0.3632813 -1.0546875,-0.3632813 -0.9257812,0 -1.61718749,0.6914063 -1.61718749,1.453125 0,0.4453125 0.22265625,0.8203125 0.46874999,1.03125 -0.12890624,0.1523438 -0.30468749,0.4804688 -0.30468749,0.8203125 0,0.31640625 0.12890625,0.69140625 0.43359379,0.890625 -0.59765629,0.17578125 -0.91406254,0.59765625 -0.91406254,0.99609375 0,0.71484375 0.98437504,1.26562505 2.20312504,1.26562505 1.171875,0 2.203125,-0.5039063 2.203125,-1.28906255 0,-0.33984375 -0.140625,-0.85546875 -0.6445313,-1.125 -0.5273437,-0.28125 -1.1015625,-0.28125 -1.7109375,-0.28125 -0.2460937,0 -0.6796875,0 -0.75,-0.0117188 C 1.2644766,-0.702 1.0535391,-1.0066875 1.0535391,-1.3230937 Z M 2.4949453,1.82925 c -1.0078125,0 -1.69921874,-0.515625 -1.69921874,-1.04296875 0,-0.45703125 0.37500004,-0.8203125 0.82031254,-0.85546875 h 0.5859375 c 0.8554687,0 1.96875,0 1.96875,0.85546875 0,0.53906255 -0.703125,1.04296875 -1.6757813,1.04296875 z m 3.5888672,-2.58984375 c 0,0.45703125 -0.1171875,0.45703125 -0.7851562,0.45703125 V 0.001125 c 0.3515625,-0.01171875 0.8554687,-0.03515625 1.125,-0.03515625 0.2578125,0 0.7851562,0.0234375 1.1132812,0.03515625 v -0.3046875 c -0.65625,0 -0.7734375,0 -0.7734375,-0.45703125 V -2.5887187 c 0,-1.03125 0.7148438,-1.59375 1.3476563,-1.59375 0.6210937,0 0.7382812,0.5390625 0.7382812,1.1015625 v 2.32031245 C 8.8494375,-0.3035625 8.73225,-0.3035625 8.076,-0.3035625 V 0.001125 c 0.3398438,-0.01171875 0.8554688,-0.03515625 1.125,-0.03515625 0.2578125,0 0.7734375,0.0234375 1.113281,0.03515625 v -0.3046875 c -0.5156247,0 -0.7734372,0 -0.785156,-0.3046875 v -1.8984375 c 0,-0.8554687 0,-1.171875 -0.3046875,-1.5234375 -0.140625,-0.1757812 -0.46875,-0.375 -1.0429687,-0.375 -0.84375,0 -1.2773438,0.5976563 -1.4414063,0.984375 v -3.4921875 l -1.4414062,0.1054688 v 0.3164062 c 0.703125,0 0.7851562,0.070312 0.7851562,0.5507813 z M 10.867992,-6.8074687 v 0.3164062 h 0.234375 c 0.773438,0 0.785156,0.1054688 0.785156,0.46875 v 5.25 c 0,0.3515625 -0.01172,0.46875 -0.785156,0.46875 H 10.867992 V 0.001125 h 3.644531 c 1.675782,0 3.046875,-1.4765625 3.046875,-3.3515625 0,-1.8867187 -1.347656,-3.4570312 -3.046875,-3.4570312 z m 2.367188,6.5039062 c -0.46875,0 -0.492188,-0.0703125 -0.492188,-0.3984375 v -5.390625 c 0,-0.328125 0.02344,-0.3984375 0.492188,-0.3984375 h 0.996093 c 0.621094,0 1.300782,0.2109375 1.816407,0.9257813 0.421875,0.5859375 0.515625,1.4414062 0.515625,2.2148437 0,1.1132813 -0.1875,1.7109375 -0.550782,2.1914063 -0.199218,0.2695312 -0.761718,0.8554687 -1.769531,0.8554687 z m 6.005859,-2.203125 c 0.05859,-1.4882812 0.902344,-1.734375 1.242188,-1.734375 1.019531,0 1.125,1.3476563 1.125,1.734375 z M 19.22932,-2.29575 h 2.789063 c 0.210937,0 0.246094,0 0.246094,-0.2109375 0,-0.984375 -0.539063,-1.9570312 -1.78125,-1.9570312 -1.160157,0 -2.074219,1.03125 -2.074219,2.2734375 0,1.33593745 1.042969,2.29687495 2.191406,2.29687495 1.21875,0 1.664063,-1.1015625 1.664063,-1.28906245 0,-0.1054688 -0.08203,-0.1171875 -0.128907,-0.1171875 -0.09375,0 -0.117187,0.058594 -0.128906,0.140625 C 21.655102,-0.1395 20.752758,-0.1395 20.659008,-0.1395 c -0.503906,0 -0.902344,-0.29296875 -1.125,-0.66796875 C 19.22932,-1.2879375 19.22932,-1.9441875 19.22932,-2.29575 Z m 5.399414,0.3632813 c 0.222657,0.035156 1.03125,0.1992187 1.03125,0.9140625 0,0.51562495 -0.351562,0.91406245 -1.125,0.91406245 -0.832031,0 -1.195312,-0.57421875 -1.382812,-1.41796875 -0.03516,-0.1289062 -0.03516,-0.1757812 -0.140625,-0.1757812 -0.128906,0 -0.128906,0.070312 -0.128906,0.2578125 v 1.31249995 c 0,0.1640625 0,0.234375 0.105468,0.234375 0.05859,0 0.07031,0 0.257813,-0.19921875 0.01172,-0.01171875 0.01172,-0.03515625 0.199219,-0.22265625 0.433593,0.421875 0.878906,0.421875 1.089843,0.421875 1.148438,0 1.605469,-0.66796875 1.605469,-1.38281245 0,-0.5273438 -0.292969,-0.8203125 -0.421875,-0.9492188 -0.328125,-0.3164062 -0.714844,-0.3984375 -1.136719,-0.46875 -0.550781,-0.1171875 -1.21875,-0.2460937 -1.21875,-0.8203125 0,-0.3515625 0.257813,-0.7617187 1.113282,-0.7617187 1.101562,0 1.148437,0.9023437 1.171875,1.2070312 0,0.09375 0.09375,0.09375 0.117187,0.09375 0.128906,0 0.128906,-0.046875 0.128906,-0.2460937 V -4.217625 c 0,-0.1757812 0,-0.2460937 -0.117187,-0.2460937 -0.04687,0 -0.07031,0 -0.199219,0.1171875 -0.02344,0.046875 -0.128906,0.1289062 -0.164062,0.1640625 -0.375,-0.28125 -0.785157,-0.28125 -0.9375,-0.28125 -1.21875,0 -1.59375,0.6679687 -1.59375,1.2304687 0,0.3398438 0.164062,0.6210938 0.433593,0.84375 0.316407,0.2578125 0.597657,0.3164063 1.3125,0.4570313 z m 2.90918,1.17187495 c 0,0.45703125 -0.105469,0.45703125 -0.773437,0.45703125 V 0.001125 c 0.328125,-0.01171875 0.796875,-0.03515625 1.078125,-0.03515625 0.304687,0 0.703125,0.01171875 1.101562,0.03515625 v -0.3046875 c -0.667969,0 -0.773437,0 -0.773437,-0.45703125 V -1.780125 l 0.632812,-0.5507812 c 0.773438,1.0546875 1.183594,1.61718745 1.183594,1.7929687 0,0.1875 -0.164063,0.234375 -0.351563,0.234375 V 0.001125 c 0.269532,-0.01171875 0.867188,-0.03515625 1.066407,-0.03515625 0.292968,0 0.585937,0.01171875 0.867187,0.03515625 v -0.3046875 c -0.363281,0 -0.585937,0 -0.960937,-0.52734375 L 29.342602,-2.623875 c -0.01172,-0.011719 -0.05859,-0.070312 -0.05859,-0.1054687 0,-0.035156 0.703125,-0.6328125 0.808594,-0.7148438 0.621093,-0.5039062 1.042968,-0.5273437 1.253906,-0.5390625 V -4.2879375 C 31.053539,-4.2645 30.924633,-4.2645 30.643383,-4.2645 c -0.351563,0 -0.972656,-0.023437 -1.113281,-0.023437 v 0.304687 c 0.1875,0.011719 0.292968,0.1171875 0.292968,0.2460938 0,0.1992187 -0.140625,0.3164062 -0.222656,0.3867187 l -1.40625,1.21875 v -4.78125 l -1.429687,0.1054688 v 0.3164062 c 0.691406,0 0.773437,0.070312 0.773437,0.5507813 z m 0,0"
       style="fill:#000000;fill-opacity:1;fill-rule:nonzero;stroke:none"
       aria-label="ghDesk"
       transform="matrix(1.3333333,0,0,1.3333333,185.232,153.436)" />
    <path
       id="path13"
       d="m 1.6416562,-6.2236484 -1.3242187,0.1054687 v 0.2695313 c 0.609375,0 0.6914062,0.070312 0.6914062,0.5039062 v 4.65234376 c 0,0.41015625 -0.1054687,0.41015625 -0.6914062,0.41015625 V -9.921875e-4 C 0.7393125,-0.02442969 0.903375,-0.02442969 1.3369687,-0.02442969 c 0.4335938,0 0.5507813,0 1.0195313,0.0234375025 V -0.28224219 c -0.5859375,0 -0.6914063,0 -0.6914063,-0.41015625 V -2.3213047 c 0,-0.9492187 0.6796875,-1.4179687 1.2421875,-1.4179687 0.5273438,0 0.6445313,0.4335937 0.6445313,0.9726562 v 2.07421876 c 0,0.41015625 -0.09375,0.41015625 -0.6914063,0.41015625 V -9.921875e-4 C 3.2822812,-0.02442969 3.4580625,-0.02442969 3.8799375,-0.02442969 c 0.4335937,0 0.5507812,0 1.0195312,0.0234375025 V -0.28224219 c -0.4570312,0 -0.6796875,0 -0.6796875,-0.26953125 V -2.2744297 c 0,-0.75 0,-1.0078125 -0.2578125,-1.3242187 C 3.76275,-3.8447422 3.4111875,-3.9619297 2.965875,-3.9619297 c -0.5976563,0 -1.0429688,0.3164063 -1.3125,0.8085938 H 1.641656 Z m 6.1347657,2.6367187 v -0.28125 H 6.4756406 v -1.640625 H 6.2178281 c 0,0.75 -0.3164062,1.6757813 -1.1835937,1.6992188 v 0.2226562 h 0.7734375 v 2.4726563 c 0,1.00781246 0.7265625,1.20703121 1.2070312,1.20703121 0.5976563,0 0.9140625,-0.57421875 0.9140625,-1.20703121 V -1.6181797 H 7.6709531 v 0.4804688 c 0,0.65624996 -0.28125,0.98437496 -0.5976562,0.98437496 -0.5976563,0 -0.5976563,-0.78515625 -0.5976563,-0.94921876 v -2.484375 z m 2.3320311,1.265625 c 0,-0.9726562 0.703125,-1.4179687 1.242188,-1.4179687 0.492187,0 0.65625,0.3515625 0.65625,0.9726562 v 2.07421876 c 0,0.41015625 -0.105469,0.41015625 -0.691407,0.41015625 V -9.921875e-4 C 11.737359,-0.02442969 11.901422,-0.02442969 12.335016,-0.02442969 c 0.433593,0 0.550781,0 1.019531,0.0234375025 V -0.28224219 c -0.585938,0 -0.691406,0 -0.691406,-0.41015625 V -2.3213047 c 0,-0.9726562 0.703125,-1.4179687 1.242187,-1.4179687 0.492188,0 0.65625,0.3515625 0.65625,0.9726562 v 2.07421876 c 0,0.41015625 -0.105469,0.41015625 -0.691406,0.41015625 V -9.921875e-4 C 14.292047,-0.02442969 14.456109,-0.02442969 14.889703,-0.02442969 c 0.433594,0 0.550781,0 1.019531,0.0234375025 V -0.28224219 c -0.457031,0 -0.679687,0 -0.691406,-0.26953125 V -2.2744297 c 0,-0.7851562 0,-1.03125 -0.292969,-1.3710937 -0.1875,-0.2109375 -0.550781,-0.3164063 -0.960937,-0.3164063 -0.644531,0 -1.078125,0.375 -1.335938,0.8554688 -0.105468,-0.5390625 -0.46875,-0.8554688 -1.21875,-0.8554688 -0.714843,0 -1.148437,0.46875 -1.347656,0.8789063 v -0.8789063 l -1.3007811,0.09375 v 0.28125 c 0.609375,0 0.6914062,0.058594 0.6914062,0.5039063 v 2.39062496 c 0,0.41015625 -0.1054687,0.41015625 -0.6914062,0.41015625 V -9.921875e-4 C 9.1826719,-0.02442969 9.3467344,-0.02442969 9.7803281,-0.02442969 c 0.4335939,0 0.5507809,0 1.0195309,0.0234375025 V -0.28224219 c -0.585937,0 -0.691406,0 -0.691406,-0.41015625 z m 7.666992,-3.9023437 -1.324218,0.1054687 v 0.2695313 c 0.609375,0 0.679687,0.070312 0.679687,0.5039062 v 4.65234376 c 0,0.41015625 -0.09375,0.41015625 -0.679687,0.41015625 V -9.921875e-4 C 16.861383,-0.02442969 17.037164,-0.02442969 17.44732,-0.02442969 c 0.421875,0 0.574219,0 1.019532,0.0234375025 V -0.28224219 c -0.597657,0 -0.691407,0 -0.691407,-0.41015625 z m 0,0"
       style="fill:#000000;fill-opacity:1;fill-rule:nonzero;stroke:none"
       aria-label="html"
       transform="matrix(1.3333333,0,0,1.3333333,155.608,127.27867)" />
    <path
       id="path14"
       d="m 57.09212,42.5202 h 55.43832"
       style="fill:none;stroke:#000000;stroke-width:0.3985;stroke-linecap:butt;stroke-linejoin:miter;stroke-miterlimit:10;stroke-dasharray:none;stroke-opacity:1"
       transform="matrix(1.3333333,0,0,-1.3333333,17.416,206.808)" />
    <path
       id="path15"
       d="M -1.19551,1.59401 C -1.09587,0.99626 0,0.09961 0.29886,0 0,-0.09961 -1.09587,-0.99626 -1.19551,-1.59401"
       style="fill:none;stroke:#000000;stroke-width:0.31879;stroke-linecap:round;stroke-linejoin:round;stroke-miterlimit:10;stroke-dasharray:none;stroke-opacity:1"
       transform="matrix(1.3333333,0,0,-1.3333333,167.45659,150.1144)" />
    <path
       id="path16"
       d="M 71.06046,36.39761 H 99.02039 V 48.64277 H 71.06046 Z"
       style="fill:#ffffff;fill-opacity:1;fill-rule:nonzero;stroke:none"
       transform="matrix(1.3333333,0,0,-1.3333333,17.416,206.808)" />
    <path
       id="path17"
       d="m 1.5941328,-2.0502734 c 0,-0.375 0.1054688,-1.6875 1.125,-1.6875 v 0.011719 c -0.023437,0.011719 -0.1640625,0.1171875 -0.1640625,0.328125 0,0.2460938 0.1875,0.3984375 0.3984375,0.3984375 0.1875,0 0.3867188,-0.140625 0.3867188,-0.4101562 0,-0.28125 -0.2695313,-0.5507813 -0.6679688,-0.5507813 -0.5390625,0 -0.9140625,0.375 -1.125,0.9257813 v -0.9257813 l -1.27734374,0.09375 v 0.28125 c 0.609375,0 0.69140625,0.058594 0.69140625,0.5039063 v 2.39062496 c 0,0.41015625 -0.10546875,0.41015625 -0.69140625,0.41015625 V 5.078125e-4 C 0.73866406,-0.02292969 0.85585156,-0.02292969 1.3128828,-0.02292969 c 0.3632813,0 0.5742188,0 1.1484375,0.0234375025 V -0.28074219 h -0.1875 c -0.65625,0 -0.6796875,-0.09375 -0.6796875,-0.421875 z m 5.0917969,-1.734375 c 0,-0.1523438 0,-0.234375 -0.1054688,-0.234375 -0.046875,0 -0.058594,0 -0.1757812,0.1054687 -0.023437,0.023437 -0.1054688,0.1054688 -0.1523438,0.1523438 -0.28125,-0.1992188 -0.5625,-0.2578125 -0.8671875,-0.2578125 -1.1835937,0 -1.4765625,0.65625 -1.4765625,1.1132812 0,0.2929688 0.1289063,0.5273438 0.328125,0.7148438 0.3046875,0.28125 0.6445313,0.3398437 1.1015625,0.421875 0.4570313,0.09375 0.609375,0.1171875 0.8085938,0.2695312 0.09375,0.070312 0.3164062,0.2460938 0.3164062,0.58593751 0,0.78515625 -0.9023437,0.78515625 -1.03125,0.78515625 -0.9140625,0 -1.1484375,-0.76171875 -1.2539062,-1.24218746 -0.023437,-0.09375 -0.035156,-0.140625 -0.140625,-0.140625 -0.1289063,0 -0.1289063,0.070312 -0.1289063,0.234375 v 1.14843746 c 0,0.15234375 0,0.22265625 0.1054688,0.22265625 0.058594,0 0.070312,0 0.2226562,-0.17578125 0.035156,-0.046875 0.140625,-0.1640625 0.1875,-0.2109375 0.375,0.36328125 0.7851563,0.38671875 1.0078125,0.38671875 1.1015625,0 1.4882813,-0.64453125 1.4882813,-1.24218751 0,-0.3984375 -0.1757813,-0.6445312 -0.375,-0.8554687 -0.3046875,-0.2929688 -0.6328125,-0.3515625 -1.2890625,-0.4804688 -0.234375,-0.046875 -0.890625,-0.1640625 -0.890625,-0.6679687 0,-0.2929688 0.2109375,-0.6679688 1.0195312,-0.6679688 0.9726563,0 1.03125,0.75 1.0546875,0.9726563 0.011719,0.1054687 0.011719,0.1640625 0.1171875,0.1640625 0.1289063,0 0.1289063,-0.070312 0.1289063,-0.234375 z m 2.1826172,0.6210937 c -0.046875,-0.1289062 -0.046875,-0.1757812 -0.046875,-0.1875 0,-0.234375 0.3046875,-0.234375 0.4921875,-0.234375 v -0.28125 c -0.4453125,0.023437 -0.6210938,0.035156 -0.9960938,0.035156 -0.023437,0 -0.5390625,0 -0.890625,-0.035156 v 0.28125 c 0.3984375,0 0.5742188,0.023437 0.6796875,0.2578125 L 9.5247969,5.078125e-4 9.3021406,0.52785156 C 9.1029219,1.0083203 8.8451094,1.6176953 8.2591719,1.6176953 c -0.2226563,0 -0.375,-0.1171875 -0.3984375,-0.140625 0.070312,-0.011719 0.3164062,-0.082031 0.3164062,-0.3867187 0,-0.23437504 -0.1640625,-0.37500004 -0.375,-0.37500004 -0.2226562,0 -0.3867187,0.140625 -0.3867187,0.38671874 0,0.4101563 0.375,0.7382813 0.84375,0.7382813 0.5859375,0 0.9726562,-0.5273438 1.1835937,-1.01953129 L 11.071672,-2.9643359 c 0.09375,-0.234375 0.257812,-0.5976563 0.832031,-0.6210938 v -0.28125 c -0.292969,0.035156 -0.5625,0.035156 -0.679687,0.035156 -0.257813,0 -0.527344,-0.011719 -0.785157,-0.035156 v 0.28125 c 0.410157,0.023437 0.410157,0.3398438 0.410157,0.375 0,0.1054688 -0.03516,0.1875 -0.07031,0.2578125 l -0.9023436,2.13281251 z m 4.8984371,0.84375 c 0,-0.9492187 0.679688,-1.4179687 1.242188,-1.4179687 0.527344,0 0.644531,0.4335937 0.644531,0.9726562 v 2.07421876 c 0,0.41015625 -0.09375,0.41015625 -0.691406,0.41015625 V 5.078125e-4 C 15.384172,-0.02292969 15.559953,-0.02292969 15.981828,-0.02292969 c 0.433594,0 0.550781,0 1.019531,0.0234375025 V -0.28074219 c -0.457031,0 -0.679687,0 -0.679687,-0.26953125 V -2.2729297 c 0,-0.75 0,-1.0078125 -0.257813,-1.3242187 -0.199218,-0.2460938 -0.550781,-0.3632813 -0.996093,-0.3632813 -0.832032,0 -1.21875,0.6210938 -1.347657,0.8671875 v -0.8671875 l -1.300781,0.09375 v 0.28125 c 0.609375,0 0.691406,0.058594 0.691406,0.5039063 v 2.39062496 c 0,0.41015625 -0.105468,0.41015625 -0.691406,0.41015625 V 5.078125e-4 C 12.841203,-0.02292969 13.005266,-0.02292969 13.438859,-0.02292969 c 0.433594,0 0.550782,0 1.019532,0.0234375025 V -0.28074219 c -0.585938,0 -0.691407,0 -0.691407,-0.41015625 z m 6.714844,-1.2070312 c -0.1875,0.035156 -0.363281,0.1640625 -0.363281,0.421875 0,0.234375 0.175781,0.421875 0.410156,0.421875 0.234375,0 0.421875,-0.1640625 0.421875,-0.4335938 0,-0.5625 -0.621094,-0.9023437 -1.417969,-0.9023437 -1.148437,0 -2.003906,0.9609375 -2.003906,2.0859375 0,1.14843746 0.9375,2.02734371 1.992188,2.02734371 1.242187,0 1.535156,-1.078125 1.535156,-1.16015621 0,-0.1054688 -0.105469,-0.1054688 -0.128906,-0.1054688 -0.09375,0 -0.09375,0.011719 -0.152344,0.1640625 -0.210938,0.62109376 -0.703125,0.85546876 -1.171875,0.85546876 -0.5625,0 -1.300781,-0.46875 -1.300781,-1.79296876 0,-1.3945312 0.714843,-1.8164062 1.253906,-1.8164062 0.117187,0 0.597656,0.011719 0.925781,0.234375 z m 0,0"
       style="fill:#ff0000;fill-opacity:1;fill-rule:nonzero;stroke:none"
       aria-label="rsync"
       transform="matrix(1.3333333,0,0,1.3333333,116.58933,151.52667)" />
    <path
       id="path18"
       d="m 198.42766,113.38724 h 56.69362 v 28.34679 h -56.69362 z"
       style="fill:#ffe6cc;fill-opacity:1;fill-rule:nonzero;stroke:#000000;stroke-width:0.79701;stroke-linecap:butt;stroke-linejoin:miter;stroke-miterlimit:10;stroke-dasharray:none;stroke-opacity:1"
       transform="matrix(1.3333333,0,0,-1.3333333,17.416,206.808)" />
    <path
       id="path19"
       d="m 2.2152422,-1.7108516 c -0.8671875,0 -0.8671875,-0.9960937 -0.8671875,-1.2304687 0,-0.2695313 0.011719,-0.5859375 0.1523437,-0.8320313 0.082031,-0.1171875 0.3164063,-0.3984375 0.7148438,-0.3984375 0.8671875,0 0.8671875,0.9960938 0.8671875,1.21875 0,0.2695313 -0.011719,0.5976563 -0.1640625,0.84375 -0.082031,0.1171875 -0.3046875,0.3984375 -0.703125,0.3984375 z m -1.1601563,0.3867188 c 0,-0.035156 0,-0.2695313 0.1757813,-0.46875 0.3867187,0.28125 0.796875,0.3046875 0.984375,0.3046875 0.9257812,0 1.6054687,-0.6796875 1.6054687,-1.453125 0,-0.3632813 -0.1523437,-0.7382813 -0.3984375,-0.9609375 0.3515625,-0.3398438 0.7148438,-0.3867188 0.890625,-0.3867188 0.023437,0 0.070312,0 0.1054688,0 -0.1171875,0.046875 -0.1640625,0.1523438 -0.1640625,0.2695313 0,0.1757812 0.1289062,0.2929687 0.2929687,0.2929687 0.09375,0 0.28125,-0.070312 0.28125,-0.2929687 0,-0.1757813 -0.1171875,-0.4921875 -0.5039062,-0.4921875 -0.1992188,0 -0.6328125,0.058594 -1.0546875,0.46875 -0.421875,-0.328125 -0.84375,-0.3632813 -1.0546875,-0.3632813 -0.9257813,0 -1.61718751,0.6914063 -1.61718751,1.453125 0,0.4453125 0.22265625,0.8203125 0.46875001,1.03125 -0.12890626,0.1523438 -0.30468751,0.4804688 -0.30468751,0.8203125 0,0.31640629 0.12890625,0.69140629 0.43359371,0.89062504 -0.59765621,0.17578125 -0.91406246,0.59765625 -0.91406246,0.99609375 0,0.71484371 0.98437496,1.26562501 2.20312496,1.26562501 1.171875,0 2.203125,-0.5039063 2.203125,-1.28906251 0,-0.33984375 -0.140625,-0.85546875 -0.6445312,-1.125 -0.5273438,-0.28125 -1.1015625,-0.28125 -1.7109375,-0.28125 -0.2460938,0 -0.6796875,0 -0.75,-0.0117188 C 1.2660234,-0.70303906 1.0550859,-1.0077266 1.0550859,-1.3241328 Z m 1.4414063,3.1523437 c -1.0078125,0 -1.69921876,-0.515625 -1.69921876,-1.04296871 0,-0.45703125 0.37499996,-0.8203125 0.82031246,-0.85546875 h 0.5859375 c 0.8554688,0 1.96875,0 1.96875,0.85546875 0,0.53906251 -0.703125,1.04296871 -1.6757812,1.04296871 z m 4.2421875,-6.234375 -1.3945313,0.1171875 v 0.3046875 c 0.65625,0 0.7382813,0.058594 0.7382813,0.5507813 v 2.67187499 c 0,0.45703125 -0.1054688,0.45703125 -0.7734375,0.45703125 V 8.59375e-5 C 5.6253984,-0.01163281 6.1644609,-0.03507031 6.4105547,-0.03507031 c 0.3398437,0 0.6914062,0.0234375 1.03125,0.0351562475 V -0.30460156 c -0.65625,0 -0.703125,-0.0585938 -0.703125,-0.4453125 z m 0.046875,-1.734375 c 0,-0.3164062 -0.2460938,-0.5273437 -0.5273438,-0.5273437 -0.3164062,0 -0.5273437,0.2695312 -0.5273437,0.5273437 0,0.2695313 0.2109375,0.5273438 0.5273437,0.5273438 0.28125,0 0.5273438,-0.1992188 0.5273438,-0.5273438 z m 2.6865234,2.15625 H 10.901766 V -4.2889766 H 9.4720781 V -6.1288203 H 9.2259844 c -0.011719,0.8203125 -0.3164063,1.8867187 -1.2890625,1.921875 v 0.2226562 h 0.84375 v 2.7539063 c 0,1.21874999 0.9257812,1.33593749 1.2890621,1.33593749 0.703125,0 0.984375,-0.703125 0.984375,-1.33593749 v -0.5742188 h -0.246093 v 0.5507813 c 0,0.73828124 -0.304688,1.11328124 -0.667969,1.11328124 -0.6679689,0 -0.6679689,-0.90234374 -0.6679689,-1.07812504 z m 3.2519529,3.22265629 c 0,0.45703125 -0.117187,0.45703125 -0.785156,0.45703125 V 8.59375e-5 c 0.351563,-0.0117187475 0.855469,-0.0351562475 1.125,-0.0351562475 0.257813,0 0.785156,0.0234375 1.113281,0.0351562475 V -0.30460156 c -0.65625,0 -0.773437,0 -0.773437,-0.45703125 V -2.5897578 c 0,-1.03125 0.714844,-1.59375 1.347656,-1.59375 0.621094,0 0.738281,0.5390625 0.738281,1.1015625 v 2.32031249 c 0,0.45703125 -0.117187,0.45703125 -0.773437,0.45703125 V 8.59375e-5 c 0.339844,-0.0117187475 0.855469,-0.0351562475 1.125,-0.0351562475 0.257812,0 0.773437,0.0234375 1.113281,0.0351562475 V -0.30460156 c -0.515625,0 -0.773437,0 -0.785156,-0.3046875 V -2.5077266 c 0,-0.8554687 0,-1.171875 -0.304688,-1.5234375 -0.140625,-0.1757812 -0.46875,-0.375 -1.042968,-0.375 -0.84375,0 -1.277344,0.5976563 -1.441407,0.984375 v -3.4921875 l -1.441406,0.1054688 v 0.3164062 c 0.703125,0 0.785156,0.070312 0.785156,0.5507813 z m 8.044922,-0.0234375 v 0.890625 L 22.210359,8.59375e-5 V -0.30460156 c -0.703125,0 -0.785156,-0.0703125 -0.785156,-0.5625 V -4.4061641 l -1.453125,0.1171875 v 0.3046875 c 0.691406,0 0.773438,0.070312 0.773438,0.5625 v 1.7695313 c 0,0.86718749 -0.480469,1.54687499 -1.207032,1.54687499 -0.832031,0 -0.878906,-0.46875 -0.878906,-0.99609379 v -3.3046875 l -1.464844,0.1171875 v 0.3046875 c 0.785157,0 0.785157,0.035156 0.785157,0.9140625 v 1.5 c 0,0.77343754 0,1.67578129 1.511718,1.67578129 0.550782,0 0.996094,-0.26953125 1.277344,-0.890625 z m 3.357422,-2.96484379 v -3.1640625 l -1.429687,0.1054688 v 0.3164062 c 0.691406,0 0.773437,0.070312 0.773437,0.5507813 V 8.59375e-5 h 0.246094 C 23.727938,-0.01163281 23.809969,-0.15225781 24.0795,-0.62100781 c 0.152344,0.234375 0.5625,0.7265625 1.300781,0.7265625 1.183594,0 2.226563,-0.97265625 2.226563,-2.26171879 0,-1.265625 -0.972656,-2.25 -2.109375,-2.25 -0.785156,0 -1.207031,0.46875 -1.371094,0.65625 z m 0.03516,2.6132813 v -2.0507813 c 0,-0.1875 0,-0.1992187 0.105469,-0.3632812 0.386719,-0.5507813 0.9375,-0.6328125 1.171875,-0.6328125 0.457031,0 0.808594,0.2578125 1.054688,0.6328125 0.257812,0.4101562 0.28125,0.984375 0.28125,1.3945312 0,0.3632813 -0.01172,0.9609375 -0.304688,1.40625004 -0.210937,0.31640625 -0.585937,0.64453125 -1.125,0.64453125 -0.445312,0 -0.808594,-0.24609375 -1.042969,-0.609375 -0.140625,-0.2109375 -0.140625,-0.24609375 -0.140625,-0.42187499 z m 0,0"
       style="fill:#000000;fill-opacity:1;fill-rule:nonzero;stroke:none"
       aria-label="github"
       transform="matrix(1.3333333,0,0,1.3333333,301.144,40.050667)" />
    <path
       id="path20"
       d="m 1.6416953,-6.2236875 -1.32421874,0.1054688 v 0.2695312 c 0.609375,0 0.69140624,0.070312 0.69140624,0.5039063 v 4.6523437 c 0,0.41015625 -0.10546874,0.41015625 -0.69140624,0.41015625 v 0.28125 c 0.421875,-0.0234375 0.5859375,-0.0234375 1.01953124,-0.0234375 0.4335938,0 0.5507813,0 1.0195313,0.0234375 v -0.28125 c -0.5859375,0 -0.6914063,0 -0.6914063,-0.41015625 v -1.6289062 c 0,-0.9492188 0.6796875,-1.4179688 1.2421875,-1.4179688 0.5273438,0 0.6445313,0.4335938 0.6445313,0.9726563 v 2.0742187 c 0,0.41015625 -0.09375,0.41015625 -0.6914063,0.41015625 v 0.28125 c 0.421875,-0.0234375 0.5976563,-0.0234375 1.0195313,-0.0234375 0.4335937,0 0.5507812,0 1.0195312,0.0234375 v -0.28125 c -0.4570312,0 -0.6796875,0 -0.6796875,-0.26953125 v -1.7226562 c 0,-0.75 0,-1.0078125 -0.2578125,-1.3242188 -0.1992187,-0.2460937 -0.5507812,-0.3632812 -0.9960937,-0.3632812 -0.5976563,0 -1.0429688,0.3164062 -1.3125,0.8085937 h -0.011719 z m 6.1347656,2.6367188 v -0.28125 H 6.4756797 v -1.640625 H 6.2178672 c 0,0.75 -0.3164063,1.6757812 -1.1835938,1.6992187 v 0.2226563 h 0.7734375 v 2.4726562 c 0,1.0078125 0.7265625,1.20703125 1.2070313,1.20703125 0.5976562,0 0.9140625,-0.57421875 0.9140625,-1.20703125 V -1.6182187 H 7.6709922 V -1.13775 c 0,0.65625 -0.28125,0.984375 -0.5976563,0.984375 -0.5976562,0 -0.5976562,-0.78515625 -0.5976562,-0.9492187 v -2.484375 z m 2.3320311,1.265625 c 0,-0.9726563 0.703125,-1.4179688 1.242188,-1.4179688 0.492187,0 0.65625,0.3515625 0.65625,0.9726563 v 2.0742187 c 0,0.41015625 -0.105469,0.41015625 -0.691407,0.41015625 v 0.28125 c 0.421875,-0.0234375 0.585938,-0.0234375 1.019532,-0.0234375 0.433593,0 0.550781,0 1.019531,0.0234375 v -0.28125 c -0.585938,0 -0.691406,0 -0.691406,-0.41015625 v -1.6289062 c 0,-0.9726563 0.703125,-1.4179688 1.242187,-1.4179688 0.492188,0 0.65625,0.3515625 0.65625,0.9726563 v 2.0742187 c 0,0.41015625 -0.105469,0.41015625 -0.691406,0.41015625 v 0.28125 c 0.421875,-0.0234375 0.585937,-0.0234375 1.019531,-0.0234375 0.433594,0 0.550781,0 1.019531,0.0234375 v -0.28125 c -0.457031,0 -0.679687,0 -0.691406,-0.26953125 v -1.7226562 c 0,-0.7851563 0,-1.03125 -0.292969,-1.3710938 -0.1875,-0.2109375 -0.550781,-0.3164062 -0.960937,-0.3164062 -0.644531,0 -1.078125,0.375 -1.335938,0.8554687 -0.105468,-0.5390625 -0.46875,-0.8554687 -1.21875,-0.8554687 -0.714843,0 -1.148437,0.46875 -1.347656,0.8789062 v -0.8789062 l -1.3007811,0.09375 v 0.28125 c 0.609375,0 0.6914063,0.058594 0.6914063,0.5039062 v 2.390625 c 0,0.41015625 -0.1054688,0.41015625 -0.6914063,0.41015625 v 0.28125 c 0.421875,-0.0234375 0.5859375,-0.0234375 1.0195313,-0.0234375 0.4335938,0 0.5507808,0 1.0195308,0.0234375 v -0.28125 c -0.585937,0 -0.691406,0 -0.691406,-0.41015625 z m 7.666992,-3.9023438 -1.324218,0.1054688 v 0.2695312 c 0.609375,0 0.679687,0.070312 0.679687,0.5039063 v 4.6523437 c 0,0.41015625 -0.09375,0.41015625 -0.679687,0.41015625 v 0.28125 c 0.410156,-0.0234375 0.585937,-0.0234375 0.996093,-0.0234375 0.421875,0 0.574219,0 1.019532,0.0234375 v -0.28125 c -0.597657,0 -0.691407,0 -0.691407,-0.41015625 z m 0,0"
       style="fill:#000000;fill-opacity:1;fill-rule:nonzero;stroke:none"
       aria-label="html"
       transform="matrix(1.3333333,0,0,1.3333333,268.99467,13.892)" />
    <path
       id="path21"
       d="m 156.30038,57.0921 55.59299,55.57266"
       style="fill:none;stroke:#000000;stroke-width:0.3985;stroke-linecap:butt;stroke-linejoin:miter;stroke-miterlimit:10;stroke-dasharray:none;stroke-opacity:1"
       transform="matrix(1.3333333,0,0,-1.3333333,17.416,206.808)" />
    <path
       id="path22"
       d="M -1.19551,1.59401 C -1.09587,0.99626 0,0.09961 0.29886,0 0,-0.09961 -1.09587,-0.99626 -1.19551,-1.59401"
       style="fill:none;stroke:#000000;stroke-width:0.31879;stroke-linecap:round;stroke-linejoin:round;stroke-miterlimit:10;stroke-dasharray:none;stroke-opacity:1"
       transform="matrix(0.94294667,-0.9426,-0.9426,-0.94294667,299.94048,56.588333)" />
    <path
       id="path23"
       d="m 165.83517,78.72014 h 36.84749 v 12.64053 h -36.84749 z"
       style="fill:#ffffff;fill-opacity:1;fill-rule:nonzero;stroke:none"
       transform="matrix(1.3333333,0,0,-1.3333333,17.416,206.808)" />
    <path
       id="path24"
       d="m 3.2566563,-3.5269375 c -0.1875,0.035156 -0.3632813,0.1640625 -0.3632813,0.421875 0,0.234375 0.1757813,0.421875 0.4101563,0.421875 0.234375,0 0.421875,-0.1640625 0.421875,-0.4335937 0,-0.5625 -0.6210938,-0.9023438 -1.4179688,-0.9023438 -1.1484375,0 -2.00390625,0.9609375 -2.00390625,2.0859375 0,1.1484375 0.93750005,2.02734375 1.99218755,2.02734375 1.2421875,0 1.5351562,-1.078125 1.5351562,-1.16015625 0,-0.1054687 -0.1054687,-0.1054687 -0.1289062,-0.1054687 -0.09375,0 -0.09375,0.011719 -0.1523438,0.1640625 -0.2109375,0.6210937 -0.703125,0.8554687 -1.171875,0.8554687 -0.5625,0 -1.3007812,-0.46875 -1.3007812,-1.7929687 0,-1.3945313 0.7148437,-1.8164063 1.2539062,-1.8164063 0.1171875,0 0.5976563,0.011719 0.9257813,0.234375 z M 8.4304844,-1.90975 c 0,-1.171875 -0.9257813,-2.109375 -2.0273438,-2.109375 -1.1484375,0 -2.0507812,0.9609375 -2.0507812,2.109375 0,1.125 0.9375,2.00390625 2.0390625,2.00390625 1.1367187,0 2.0390625,-0.90234375 2.0390625,-2.00390625 z m -2.0273438,1.7578125 c -0.4570312,0 -0.8320312,-0.22265625 -1.03125,-0.57421875 C 5.1375156,-1.1011562 5.1257969,-1.581625 5.1257969,-1.9917812 c 0,-0.328125 0,-0.84375 0.2226562,-1.2070313 0.2695313,-0.4570312 0.7148438,-0.5976562 1.0429688,-0.5976562 0.5039062,0 0.8789062,0.2929687 1.0546875,0.5976562 0.2109375,0.375 0.2109375,0.8320313 0.2109375,1.2070313 0,0.328125 0,0.8554687 -0.2226563,1.2539062 -0.2460937,0.41015625 -0.65625,0.5859375 -1.03125,0.5859375 z m 3.9638674,-2.1679687 c 0,-0.9726563 0.703125,-1.4179688 1.242187,-1.4179688 0.492188,0 0.65625,0.3515625 0.65625,0.9726563 V -0.691 c 0,0.41015625 -0.105468,0.41015625 -0.691406,0.41015625 v 0.28125 c 0.421875,-0.0234375 0.585938,-0.0234375 1.019531,-0.0234375 0.433594,0 0.550782,0 1.019532,0.0234375 v -0.28125 c -0.585938,0 -0.691407,0 -0.691407,-0.41015625 v -1.6289062 c 0,-0.9726563 0.703125,-1.4179688 1.242188,-1.4179688 0.492187,0 0.65625,0.3515625 0.65625,0.9726563 V -0.691 c 0,0.41015625 -0.105469,0.41015625 -0.691406,0.41015625 v 0.28125 c 0.421875,-0.0234375 0.585937,-0.0234375 1.019531,-0.0234375 0.433594,0 0.550781,0 1.019531,0.0234375 v -0.28125 c -0.457031,0 -0.679687,0 -0.691406,-0.26953125 v -1.7226562 c 0,-0.7851563 0,-1.03125 -0.292969,-1.3710938 -0.1875,-0.2109375 -0.550781,-0.3164062 -0.960937,-0.3164062 -0.644532,0 -1.078125,0.375 -1.335938,0.8554687 -0.105469,-0.5390625 -0.46875,-0.8554687 -1.21875,-0.8554687 -0.714844,0 -1.148437,0.46875 -1.347656,0.8789062 v -0.8789062 l -1.3007814,0.09375 v 0.28125 c 0.609375,0 0.6914062,0.058594 0.6914062,0.5039062 V -0.691 c 0,0.41015625 -0.1054687,0.41015625 -0.6914062,0.41015625 v 0.28125 c 0.421875,-0.0234375 0.5859375,-0.0234375 1.0195314,-0.0234375 0.433594,0 0.550781,0 1.019531,0.0234375 v -0.28125 c -0.585937,0 -0.691406,0 -0.691406,-0.41015625 z m 7.68164,0 c 0,-0.9726563 0.703125,-1.4179688 1.242188,-1.4179688 0.492187,0 0.65625,0.3515625 0.65625,0.9726563 V -0.691 c 0,0.41015625 -0.105469,0.41015625 -0.691406,0.41015625 v 0.28125 c 0.421875,-0.0234375 0.585937,-0.0234375 1.019531,-0.0234375 0.433594,0 0.550781,0 1.019531,0.0234375 v -0.28125 c -0.585937,0 -0.691406,0 -0.691406,-0.41015625 v -1.6289062 c 0,-0.9726563 0.703125,-1.4179688 1.242187,-1.4179688 0.492188,0 0.65625,0.3515625 0.65625,0.9726563 V -0.691 c 0,0.41015625 -0.105468,0.41015625 -0.691406,0.41015625 v 0.28125 c 0.421875,-0.0234375 0.585938,-0.0234375 1.019531,-0.0234375 0.433594,0 0.550782,0 1.019532,0.0234375 v -0.28125 c -0.457032,0 -0.679688,0 -0.691407,-0.26953125 v -1.7226562 c 0,-0.7851563 0,-1.03125 -0.292968,-1.3710938 -0.1875,-0.2109375 -0.550782,-0.3164062 -0.960938,-0.3164062 -0.644531,0 -1.078125,0.375 -1.335937,0.8554687 -0.105469,-0.5390625 -0.46875,-0.8554687 -1.21875,-0.8554687 -0.714844,0 -1.148438,0.46875 -1.347657,0.8789062 v -0.8789062 l -1.300781,0.09375 v 0.28125 c 0.609375,0 0.691406,0.058594 0.691406,0.5039062 V -0.691 c 0,0.41015625 -0.105468,0.41015625 -0.691406,0.41015625 v 0.28125 c 0.421875,-0.0234375 0.585938,-0.0234375 1.019531,-0.0234375 0.433594,0 0.550782,0 1.019532,0.0234375 v -0.28125 c -0.585938,0 -0.691407,0 -0.691407,-0.41015625 z m 7.666993,-1.640625 -1.289063,0.09375 v 0.28125 c 0.574219,0 0.644531,0.058594 0.644531,0.4921875 V -0.691 c 0,0.41015625 -0.09375,0.41015625 -0.679687,0.41015625 v 0.28125 c 0.398437,-0.0234375 0.585937,-0.0234375 0.984375,-0.0234375 0.140625,0 0.515625,0 0.960937,0.0234375 v -0.28125 c -0.585937,0 -0.621093,-0.046875 -0.621093,-0.38671875 z m 0.02344,-1.5585938 c 0,-0.2695312 -0.210937,-0.4921875 -0.480469,-0.4921875 -0.28125,0 -0.492187,0.234375 -0.492187,0.4921875 0,0.2578125 0.210937,0.4804688 0.492187,0.4804688 0.269532,0 0.480469,-0.2109375 0.480469,-0.4804688 z m 3.802735,1.9335938 v -0.28125 h -1.300782 v -1.640625 h -0.257812 c 0,0.75 -0.316406,1.6757812 -1.183594,1.6992187 v 0.2226563 h 0.773438 v 2.4726562 c 0,1.0078125 0.726562,1.20703125 1.207031,1.20703125 0.597656,0 0.914062,-0.57421875 0.914062,-1.20703125 v -0.5039062 h -0.257812 v 0.4804687 c 0,0.65625 -0.28125,0.984375 -0.597656,0.984375 -0.597657,0 -0.597657,-0.78515625 -0.597657,-0.9492187 v -2.484375 z m 0,0"
       style="fill:#ff0000;fill-opacity:1;fill-rule:nonzero;stroke:none"
       aria-label="commit"
       transform="matrix(1.3333333,0,0,1.3333333,242.95467,97.421333)" />
  </g>
</svg>
