<?xml version="1.0" encoding="UTF-8" standalone="no"?>
<!-- Created with Inkscape (http://www.inkscape.org/) -->

<svg
   version="1.1"
   id="svg1"
   width="196.47412"
   height="120.6397"
   viewBox="0 0 196.47412 120.6397"
   xmlns="http://www.w3.org/2000/svg"
   xmlns:svg="http://www.w3.org/2000/svg">
  <defs
     id="defs1" />
  <g
     id="g1"
     transform="translate(0.00101253,-3.2046841e-4)">
    <path
       id="path1"
       d="M 9.71223,0 C 9.71223,5.36398 5.36398,9.71223 0,9.71223 -5.36398,9.71223 -9.71223,5.36398 -9.71223,0 c 0,-5.36398 4.34825,-9.71223 9.71223,-9.71223 5.36398,0 9.71223,4.34825 9.71223,9.71223 z"
       style="fill:none;stroke:#000000;stroke-width:0.3985;stroke-linecap:butt;stroke-linejoin:miter;stroke-miterlimit:10;stroke-dasharray:none;stroke-opacity:1"
       transform="matrix(1.3333333,0,0,-1.3333333,31.948,31.949333)" />
    <path
       id="path2"
       d="m 3.9595703,-6.9372891 c -0.046875,-0.1289062 -0.070312,-0.1992187 -0.2226562,-0.1992187 -0.1640625,0 -0.1875,0.058594 -0.2460938,0.1992187 l -2.0625,5.96484379 c -0.1757812,0.50390625 -0.57421874,0.65625 -1.11328124,0.66796875 V 2.109375e-4 c 0.234375,-0.0117187475 0.65625,-0.0351562475 1.01953124,-0.0351562475 0.3046875,0 0.8203125,0.0234375 1.1484375,0.0351562475 V -0.30447656 c -0.5039062,0 -0.75,-0.2578125 -0.75,-0.515625 0,-0.0234375 0.011719,-0.12890625 0.023437,-0.140625 L 2.2134766,-2.2732266 h 2.4609375 l 0.5273437,1.52343754 c 0.011719,0.046875 0.023437,0.10546875 0.023437,0.140625 0,0.3046875 -0.5507812,0.3046875 -0.8203125,0.3046875 V 2.109375e-4 C 4.7564453,-0.03494531 5.4595703,-0.03494531 5.8345703,-0.03494531 c 0.4335938,0 0.890625,0.01171875 1.3007813,0.0351562475 V -0.30447656 H 6.9595703 c -0.5976562,0 -0.7382812,-0.0703125 -0.84375,-0.3984375 z m -0.5273437,1.125 1.125,3.234375 H 2.3189453 Z m 0,0"
       style="fill:#000000;fill-opacity:1;fill-rule:nonzero;stroke:none"
       aria-label="A"
       transform="matrix(1.3333333,0,0,1.3333333,26.966667,36.488)" />
    <path
       id="path3"
       d="m 66.27475,0 c 0,5.29158 -4.28955,9.58113 -9.58113,9.58113 -5.29158,0 -9.58115,-4.28955 -9.58115,-9.58113 0,-5.29158 4.28957,-9.58113 9.58115,-9.58113 5.29158,0 9.58113,4.28955 9.58113,9.58113 z"
       style="fill:none;stroke:#000000;stroke-width:0.3985;stroke-linecap:butt;stroke-linejoin:miter;stroke-miterlimit:10;stroke-dasharray:none;stroke-opacity:1"
       transform="matrix(1.3333333,0,0,-1.3333333,31.948,31.949333)" />
    <path
       id="path4"
       d="m 2.2157969,-3.6443203 v -2.4492188 c 0,-0.328125 0.011719,-0.3984375 0.4804687,-0.3984375 h 1.2421875 c 0.9609375,0 1.3125,0.84375 1.3125,1.3710938 0,0.6328125 -0.4921875,1.4765625 -1.59375,1.4765625 z m 2.34375,0.09375 c 0.9726562,-0.1992188 1.6523437,-0.8320313 1.6523437,-1.5703125 0,-0.8671875 -0.9140625,-1.6875 -2.203125,-1.6875 H 0.36423437 v 0.3164062 h 0.234375 c 0.76171873,0 0.78515623,0.1054688 0.78515623,0.46875 v 5.25000004 c 0,0.3515625 -0.023437,0.46875 -0.78515623,0.46875 h -0.234375 V 2.109375e-4 H 4.2665781 c 1.3242188,0 2.2148438,-0.8906249975 2.2148438,-1.8281250375 0,-0.8671875 -0.8085938,-1.6054687 -1.921875,-1.7226562 z m -0.609375,3.24609374 H 2.6962656 c -0.46875,0 -0.4804687,-0.0703125 -0.4804687,-0.3984375 V -3.4216641 h 1.875 c 0.984375,0 1.3945312,0.9257813 1.3945312,1.59375 0,0.703125 -0.515625,1.52343754 -1.5351562,1.52343754 z m 0,0"
       style="fill:#000000;fill-opacity:1;fill-rule:nonzero;stroke:none"
       aria-label="B"
       transform="matrix(1.3333333,0,0,1.3333333,102.83467,36.488)" />
    <path
       id="path5"
       d="m 123.19458,0 c 0,5.4165 -4.39084,9.80734 -9.80734,9.80734 -5.41652,0 -9.80734,-4.39084 -9.80734,-9.80734 0,-5.4165 4.39082,-9.80734 9.80734,-9.80734 5.4165,0 9.80734,4.39084 9.80734,9.80734 z"
       style="fill:none;stroke:#000000;stroke-width:0.3985;stroke-linecap:butt;stroke-linejoin:miter;stroke-miterlimit:10;stroke-dasharray:none;stroke-opacity:1"
       transform="matrix(1.3333333,0,0,-1.3333333,31.948,31.949333)" />
    <path
       id="path6"
       d="m 0.35057812,-6.8083828 v 0.3164062 h 0.234375 c 0.77343748,0 0.78515628,0.1054688 0.78515628,0.46875 v 5.25000004 c 0,0.3515625 -0.011719,0.46875 -0.78515628,0.46875 h -0.234375 V 2.109375e-4 H 3.9951094 c 1.6757812,0 3.046875,-1.4765625375 3.046875,-3.3515625375 0,-1.8867187 -1.3476563,-3.4570312 -3.046875,-3.4570312 z m 2.36718748,6.50390624 c -0.46875,0 -0.4921875,-0.0703125 -0.4921875,-0.3984375 V -6.0935391 c 0,-0.328125 0.023437,-0.3984375 0.4921875,-0.3984375 h 0.9960938 c 0.6210937,0 1.3007812,0.2109375 1.8164062,0.9257813 0.421875,0.5859375 0.515625,1.4414062 0.515625,2.2148437 0,1.1132813 -0.1875,1.7109375 -0.5507812,2.1914063 -0.1992188,0.26953124 -0.7617188,0.85546874 -1.7695313,0.85546874 z m 0,0"
       style="fill:#000000;fill-opacity:1;fill-rule:nonzero;stroke:none"
       aria-label="D"
       transform="matrix(1.3333333,0,0,1.3333333,178.056,36.488)" />
    <path
       id="path7"
       d="m 66.31877,-56.69362 c 0,5.3159 -4.30927,9.62517 -9.62515,9.62517 -5.3159,0 -9.62517,-4.30927 -9.62517,-9.62517 0,-5.31588 4.30927,-9.62515 9.62517,-9.62515 5.31588,0 9.62515,4.30927 9.62515,9.62515 z"
       style="fill:none;stroke:#000000;stroke-width:0.3985;stroke-linecap:butt;stroke-linejoin:miter;stroke-miterlimit:10;stroke-dasharray:none;stroke-opacity:1"
       transform="matrix(1.3333333,0,0,-1.3333333,31.948,31.949333)" />
    <path
       id="path8"
       d="m 0.56214062,-3.4105625 c 0,2.0625 1.60546878,3.6328125 3.45703128,3.6328125 1.6289062,0 2.6015625,-1.3828125 2.6015625,-2.5429687 0,-0.1054688 0,-0.1757813 -0.1289063,-0.1757813 -0.1054687,0 -0.1054687,0.070312 -0.1171875,0.1640625 -0.082031,1.4296875 -1.1484375,2.23828125 -2.2265625,2.23828125 -0.609375,0 -2.5664062,-0.33984375 -2.5664062,-3.30468745 0,-2.9765625 1.9453125,-3.3164063 2.5546875,-3.3164063 1.078125,0 1.96875,0.9023438 2.1679687,2.3671875 0.023437,0.1289063 0.023437,0.1640625 0.1640625,0.1640625 0.1523438,0 0.1523438,-0.035156 0.1523438,-0.234375 v -2.3671875 c 0,-0.1640625 0,-0.234375 -0.1054688,-0.234375 -0.035156,0 -0.082031,0 -0.1640625,0.1171875 l -0.4921875,0.7382813 c -0.375,-0.3632813 -0.8789062,-0.8554688 -1.8398437,-0.8554688 -1.8632813,0 -3.45703128,1.5820313 -3.45703128,3.609375 z m 0,0"
       style="fill:#000000;fill-opacity:1;fill-rule:nonzero;stroke:none"
       aria-label="C"
       transform="matrix(1.3333333,0,0,1.3333333,102.74267,112.07867)" />
    <path
       id="path9"
       d="M 23.76251,0 C 23.76251,13.12383 13.12383,23.76251 0,23.76251 -13.12383,23.76251 -23.76251,13.12383 -23.76251,0 c 0,-13.12383 10.63868,-23.76251 23.76251,-23.76251 13.12383,0 23.76251,10.63868 23.76251,23.76251 z"
       style="fill:none;stroke:#000000;stroke-width:0.3985;stroke-linecap:butt;stroke-linejoin:miter;stroke-miterlimit:10;stroke-dasharray:none;stroke-opacity:1"
       transform="matrix(1.3333333,0,0,-1.3333333,31.948,31.949333)" />
    <path
       id="path10"
       d="m 3.291875,2.3897734 c 0,-0.035156 0,-0.046875 -0.1640625,-0.2226562 C 1.885625,0.91321094 1.5575,-0.96178906 1.5575,-2.4969453 c 0,-1.7226563 0.3867188,-3.4570313 1.6054688,-4.7109375 0.1289062,-0.1171875 0.1289062,-0.1289063 0.1289062,-0.1640625 0,-0.070312 -0.035156,-0.1054688 -0.09375,-0.1054688 -0.1054687,0 -0.9960937,0.6796875 -1.5820312,1.9453125 -0.515625,1.1015625 -0.63281255,2.203125 -0.63281255,3.0351563 0,0.7851562 0.11718755,1.99218749 0.65625005,3.11718749 0.5976562,1.21875001 1.453125,1.87500001 1.5585937,1.87500001 0.058594,0 0.09375,-0.035156 0.09375,-0.1054688 z m 4.5439453,-9.328125 c -0.046875,-0.1289062 -0.070312,-0.1992187 -0.2226562,-0.1992187 -0.1640625,0 -0.1875,0.058594 -0.2460938,0.1992187 l -2.0625,5.96484379 c -0.1757812,0.50390625 -0.5742187,0.65625 -1.1132812,0.66796875 V -8.515625e-4 C 4.4256641,-0.01257031 4.8475391,-0.03600781 5.2108203,-0.03600781 c 0.3046875,0 0.8203125,0.0234375 1.1484375,0.0351562475 V -0.30553906 c -0.5039062,0 -0.75,-0.2578125 -0.75,-0.515625 0,-0.0234375 0.011719,-0.12890625 0.023437,-0.140625 L 6.0897266,-2.2742891 h 2.4609375 l 0.5273437,1.52343754 c 0.011719,0.046875 0.023437,0.10546875 0.023437,0.140625 0,0.3046875 -0.5507812,0.3046875 -0.8203125,0.3046875 V -8.515625e-4 C 8.6326953,-0.03600781 9.3358203,-0.03600781 9.7108203,-0.03600781 c 0.4335937,0 0.8906247,0.01171875 1.3007817,0.0351562475 V -0.30553906 H 10.83582 c -0.597656,0 -0.738281,-0.0703125 -0.8437497,-0.3984375 z m -0.5273437,1.125 1.125,3.234375 H 6.1951953 Z m 6.9199214,3.3164063 c 0,-0.7734375 -0.117187,-1.9804688 -0.65625,-3.1054688 -0.597656,-1.21875 -1.464843,-1.875 -1.558593,-1.875 -0.05859,0 -0.105469,0.046875 -0.105469,0.1054688 0,0.035156 0,0.046875 0.199219,0.234375 0.972656,0.984375 1.535156,2.5664062 1.535156,4.640625 0,1.71093749 -0.363281,3.45703124 -1.59375,4.7226562 -0.140625,0.1171875 -0.140625,0.1289063 -0.140625,0.1640625 0,0.058594 0.04687,0.1054688 0.105469,0.1054688 0.09375,0 0.996093,-0.6796875 1.582031,-1.94531251 0.503906,-1.1015625 0.632812,-2.20312499 0.632812,-3.04687499 z m 5.422852,-0.011719 c 0.05859,-1.4882812 0.902344,-1.734375 1.242187,-1.734375 1.019532,0 1.125,1.3476563 1.125,1.734375 z m -0.01172,0.2109375 h 2.789063 c 0.210937,0 0.246093,0 0.246093,-0.2109375 0,-0.984375 -0.539062,-1.9570312 -1.78125,-1.9570312 -1.160156,0 -2.074218,1.03125 -2.074218,2.2734375 0,1.33593749 1.042968,2.29687499 2.191406,2.29687499 1.21875,0 1.664062,-1.1015625 1.664062,-1.28906249 0,-0.1054688 -0.08203,-0.1171875 -0.128906,-0.1171875 -0.09375,0 -0.117187,0.058594 -0.128906,0.140625 -0.351563,1.01953124 -1.253906,1.01953124 -1.347656,1.01953124 -0.503907,0 -0.902344,-0.29296875 -1.125,-0.66796875 C 19.639531,-1.2899141 19.639531,-1.9461641 19.639531,-2.2977266 Z m 7.110352,1.74609379 v 0.65625 L 28.214727,-8.515625e-4 V -0.30553906 c -0.703125,0 -0.773438,-0.0703125 -0.773438,-0.5625 V -6.9149141 l -1.441406,0.1054688 v 0.3164062 c 0.703125,0 0.785156,0.070312 0.785156,0.5507813 v 2.15625 c -0.292969,-0.3632813 -0.726562,-0.6210938 -1.265625,-0.6210938 -1.171875,0 -2.214844,0.984375 -2.214844,2.2617188 0,1.26562499 0.972657,2.24999999 2.109375,2.24999999 0.644532,0 1.089844,-0.33984375 1.335938,-0.65625 z m 0,-2.67187499 v 2.0507812 c 0,0.17578129 0,0.19921879 -0.105469,0.36328129 -0.304687,0.48046875 -0.75,0.703125 -1.183594,0.703125 -0.445312,0 -0.796875,-0.2578125 -1.042968,-0.64453125 C 24.160038,-1.161008 24.124882,-1.723508 24.124882,-2.1336643 c 0,-0.3632812 0.02344,-0.9609375 0.316406,-1.4179687 0.210938,-0.3046875 0.585938,-0.6328125 1.125,-0.6328125 0.351563,0 0.761719,0.1523437 1.078125,0.5976562 0.105469,0.1640625 0.105469,0.1875 0.105469,0.3632813 z m 3.966797,1.5117187 c -0.867188,0 -0.867188,-0.9960937 -0.867188,-1.2304687 0,-0.2695313 0.01172,-0.5859375 0.152344,-0.8320313 0.08203,-0.1171875 0.316406,-0.3984375 0.714844,-0.3984375 0.867187,0 0.867187,0.9960938 0.867187,1.21875 0,0.2695313 -0.01172,0.5976563 -0.164062,0.84375 -0.08203,0.1171875 -0.304688,0.3984375 -0.703125,0.3984375 z m -1.160157,0.3867188 c 0,-0.035156 0,-0.2695313 0.175782,-0.46875 0.386718,0.28125 0.796875,0.3046875 0.984375,0.3046875 0.925781,0 1.605468,-0.6796875 1.605468,-1.453125 0,-0.3632813 -0.152343,-0.7382813 -0.398437,-0.9609375 0.351562,-0.3398438 0.714844,-0.3867188 0.890625,-0.3867188 0.02344,0 0.07031,0 0.105469,0 -0.117188,0.046875 -0.164063,0.1523438 -0.164063,0.2695313 0,0.1757812 0.128906,0.2929687 0.292969,0.2929687 0.09375,0 0.28125,-0.070312 0.28125,-0.2929687 0,-0.1757813 -0.117188,-0.4921875 -0.503906,-0.4921875 -0.199219,0 -0.632813,0.058594 -1.054688,0.46875 -0.421875,-0.328125 -0.84375,-0.3632813 -1.054687,-0.3632813 -0.925782,0 -1.617188,0.6914063 -1.617188,1.453125 0,0.4453125 0.222656,0.8203125 0.46875,1.03125 -0.128906,0.1523438 -0.304687,0.4804688 -0.304687,0.8203125 0,0.31640629 0.128906,0.69140629 0.433593,0.89062504 -0.597656,0.17578125 -0.914062,0.59765625 -0.914062,0.99609375 0,0.71484371 0.984375,1.26562501 2.203125,1.26562501 1.171875,0 2.203125,-0.5039063 2.203125,-1.28906251 0,-0.33984375 -0.140625,-0.85546875 -0.644531,-1.125 -0.527344,-0.28125 -1.101563,-0.28125 -1.710938,-0.28125 -0.246094,0 -0.679687,0 -0.75,-0.0117188 -0.316406,-0.046875 -0.527344,-0.35156249 -0.527344,-0.66796869 z m 1.441407,3.1523437 c -1.007813,0 -1.699219,-0.515625 -1.699219,-1.04296871 0,-0.45703125 0.375,-0.8203125 0.820312,-0.85546875 h 0.585938 c 0.855469,0 1.96875,0 1.96875,0.85546875 0,0.53906251 -0.703125,1.04296871 -1.675781,1.04296871 z m 3.597656,-4.3359375 c 0.05859,-1.4882812 0.902344,-1.734375 1.242187,-1.734375 1.019532,0 1.125,1.3476563 1.125,1.734375 z m -0.01172,0.2109375 h 2.789063 c 0.210937,0 0.246093,0 0.246093,-0.2109375 0,-0.984375 -0.539062,-1.9570312 -1.78125,-1.9570312 -1.160156,0 -2.074218,1.03125 -2.074218,2.2734375 0,1.33593749 1.042968,2.29687499 2.191406,2.29687499 1.21875,0 1.664062,-1.1015625 1.664062,-1.28906249 0,-0.1054688 -0.08203,-0.1171875 -0.128906,-0.1171875 -0.09375,0 -0.117187,0.058594 -0.128906,0.140625 -0.351563,1.01953124 -1.253906,1.01953124 -1.347656,1.01953124 -0.503907,0 -0.902344,-0.29296875 -1.125,-0.66796875 C 34.583867,-1.2899141 34.583867,-1.9461641 34.583867,-2.2977266 Z m 0,0"
       style="fill:#000000;fill-opacity:1;fill-rule:nonzero;stroke:none"
       aria-label="(A)edge"
       transform="matrix(1.3333333,0,0,1.3333333,6.6733333,35.270667)" />
  </g>
</svg>
