<?xml version="1.0" encoding="UTF-8" standalone="no"?>
<!-- Created with Inkscape (http://www.inkscape.org/) -->

<svg
   version="1.1"
   id="svg1"
   width="177.7404"
   height="102.03281"
   viewBox="0 0 177.7404 102.03282"
   xmlns="http://www.w3.org/2000/svg"
   xmlns:svg="http://www.w3.org/2000/svg">
  <defs
     id="defs1" />
  <g
     id="g1"
     transform="translate(6.3933326e-4,-5.4733657e-4)">
    <path
       id="path1"
       d="M 9.71223,0 C 9.71223,5.36398 5.36398,9.71223 0,9.71223 -5.36398,9.71223 -9.71223,5.36398 -9.71223,0 c 0,-5.36398 4.34825,-9.71223 9.71223,-9.71223 5.36398,0 9.71223,4.34825 9.71223,9.71223 z"
       style="fill:none;stroke:#000000;stroke-width:0.3985;stroke-linecap:butt;stroke-linejoin:miter;stroke-miterlimit:10;stroke-dasharray:none;stroke-opacity:1"
       transform="matrix(1.3333333,0,0,-1.3333333,13.214667,13.342667)" />
    <path
       id="path2"
       d="m 3.9617187,-6.9363906 c -0.046875,-0.1289063 -0.070312,-0.1992188 -0.2226562,-0.1992188 -0.1640625,0 -0.1875,0.058594 -0.2460938,0.1992188 l -2.0625,5.96484373 c -0.1757812,0.50390625 -0.5742187,0.65625 -1.1132812,0.66796875 v 0.3046875 c 0.234375,-0.01171875 0.65625,-0.03515625 1.0195312,-0.03515625 0.3046875,0 0.8203125,0.0234375 1.1484375,0.03515625 v -0.3046875 c -0.5039062,0 -0.75,-0.2578125 -0.75,-0.515625 0,-0.0234375 0.011719,-0.12890625 0.023437,-0.140625 L 2.215625,-2.2723281 h 2.4609375 l 0.5273437,1.52343748 c 0.011719,0.046875 0.023437,0.10546875 0.023437,0.140625 0,0.3046875 -0.5507812,0.3046875 -0.8203125,0.3046875 v 0.3046875 c 0.3515625,-0.03515625 1.0546875,-0.03515625 1.4296875,-0.03515625 0.4335938,0 0.890625,0.01171875 1.3007813,0.03515625 v -0.3046875 H 6.9617187 c -0.5976562,0 -0.7382812,-0.0703125 -0.84375,-0.3984375 z m -0.5273437,1.125 1.125,3.234375 H 2.3210937 Z m 0,0"
       style="fill:#000000;fill-opacity:1;fill-rule:nonzero;stroke:none"
       aria-label="A"
       transform="matrix(1.3333333,0,0,1.3333333,8.2333333,17.881333)" />
    <path
       id="path3"
       d="m 66.27475,0 c 0,5.29158 -4.28955,9.58113 -9.58113,9.58113 -5.29158,0 -9.58115,-4.28955 -9.58115,-9.58113 0,-5.29158 4.28957,-9.58113 9.58115,-9.58113 5.29158,0 9.58113,4.28955 9.58113,9.58113 z"
       style="fill:none;stroke:#000000;stroke-width:0.3985;stroke-linecap:butt;stroke-linejoin:miter;stroke-miterlimit:10;stroke-dasharray:none;stroke-opacity:1"
       transform="matrix(1.3333333,0,0,-1.3333333,13.214667,13.342667)" />
    <path
       id="path4"
       d="m 2.2150156,-3.6434219 v -2.4492187 c 0,-0.328125 0.011719,-0.3984375 0.4804688,-0.3984375 h 1.2421875 c 0.9609375,0 1.3125,0.84375 1.3125,1.3710937 0,0.6328125 -0.4921875,1.4765625 -1.59375,1.4765625 z m 2.34375,0.09375 c 0.9726563,-0.1992187 1.6523438,-0.8320312 1.6523438,-1.5703125 0,-0.8671875 -0.9140625,-1.6875 -2.203125,-1.6875 H 0.36345312 v 0.3164063 h 0.234375 c 0.76171878,0 0.78515628,0.1054687 0.78515628,0.46875 v 5.24999998 c 0,0.3515625 -0.023437,0.46875 -0.78515628,0.46875 h -0.234375 v 0.3046875 H 4.2657969 c 1.3242187,0 2.2148437,-0.890625 2.2148437,-1.82812498 0,-0.8671875 -0.8085937,-1.6054688 -1.921875,-1.7226563 z m -0.609375,3.24609378 H 2.6954844 c -0.46875,0 -0.4804688,-0.0703125 -0.4804688,-0.3984375 V -3.4207656 h 1.875 c 0.984375,0 1.3945313,0.9257812 1.3945313,1.59375 0,0.703125 -0.515625,1.52343748 -1.5351563,1.52343748 z m 0,0"
       style="fill:#000000;fill-opacity:1;fill-rule:nonzero;stroke:none"
       aria-label="B"
       transform="matrix(1.3333333,0,0,1.3333333,84.101333,17.881333)" />
    <path
       id="path5"
       d="m 123.19458,0 c 0,5.4165 -4.39084,9.80734 -9.80734,9.80734 -5.41652,0 -9.80734,-4.39084 -9.80734,-9.80734 0,-5.4165 4.39082,-9.80734 9.80734,-9.80734 5.4165,0 9.80734,4.39084 9.80734,9.80734 z"
       style="fill:none;stroke:#000000;stroke-width:0.3985;stroke-linecap:butt;stroke-linejoin:miter;stroke-miterlimit:10;stroke-dasharray:none;stroke-opacity:1"
       transform="matrix(1.3333333,0,0,-1.3333333,13.214667,13.342667)" />
    <path
       id="path6"
       d="m 0.35272656,-6.8074844 v 0.3164063 h 0.234375 c 0.77343754,0 0.78515624,0.1054687 0.78515624,0.46875 v 5.24999998 c 0,0.3515625 -0.011719,0.46875 -0.78515624,0.46875 h -0.234375 v 0.3046875 H 3.9972578 c 1.6757813,0 3.046875,-1.47656248 3.046875,-3.35156248 0,-1.8867188 -1.3476562,-3.4570313 -3.046875,-3.4570313 z m 2.36718754,6.50390628 c -0.46875,0 -0.4921875,-0.0703125 -0.4921875,-0.3984375 V -6.0926406 c 0,-0.328125 0.023437,-0.3984375 0.4921875,-0.3984375 h 0.9960937 c 0.6210938,0 1.3007813,0.2109375 1.8164063,0.9257812 0.421875,0.5859375 0.515625,1.4414063 0.515625,2.2148438 0,1.1132812 -0.1875,1.7109375 -0.5507813,2.1914062 -0.1992187,0.26953128 -0.7617187,0.85546878 -1.7695312,0.85546878 z m 0,0"
       style="fill:#000000;fill-opacity:1;fill-rule:nonzero;stroke:none"
       aria-label="D"
       transform="matrix(1.3333333,0,0,1.3333333,159.32267,17.881333)" />
    <path
       id="path7"
       d="m 66.31877,-56.69362 c 0,5.3159 -4.30927,9.62517 -9.62515,9.62517 -5.3159,0 -9.62517,-4.30927 -9.62517,-9.62517 0,-5.31588 4.30927,-9.62515 9.62517,-9.62515 5.31588,0 9.62515,4.30927 9.62515,9.62515 z"
       style="fill:none;stroke:#000000;stroke-width:0.3985;stroke-linecap:butt;stroke-linejoin:miter;stroke-miterlimit:10;stroke-dasharray:none;stroke-opacity:1"
       transform="matrix(1.3333333,0,0,-1.3333333,13.214667,13.342667)" />
    <path
       id="path8"
       d="m 0.56135938,-3.4096641 c 0,2.0625 1.60546872,3.63281254 3.45703122,3.63281254 1.6289063,0 2.6015625,-1.38281254 2.6015625,-2.54296874 0,-0.1054688 0,-0.1757813 -0.1289062,-0.1757813 -0.1054688,0 -0.1054688,0.070312 -0.1171875,0.1640625 -0.082031,1.42968754 -1.1484375,2.23828129 -2.2265625,2.23828129 -0.609375,0 -2.5664063,-0.33984375 -2.5664063,-3.30468749 0,-2.9765625 1.9453125,-3.3164063 2.5546875,-3.3164063 1.078125,0 1.96875,0.9023438 2.1679688,2.3671875 0.023437,0.1289063 0.023437,0.1640625 0.1640625,0.1640625 0.1523437,0 0.1523437,-0.035156 0.1523437,-0.234375 v -2.3671875 c 0,-0.1640625 0,-0.234375 -0.1054687,-0.234375 -0.035156,0 -0.082031,0 -0.1640625,0.1171875 l -0.4921875,0.7382813 c -0.375,-0.3632813 -0.8789063,-0.8554688 -1.8398438,-0.8554688 -1.8632812,0 -3.45703122,1.5820313 -3.45703122,3.609375 z m 0,0"
       style="fill:#000000;fill-opacity:1;fill-rule:nonzero;stroke:none"
       aria-label="C"
       transform="matrix(1.3333333,0,0,1.3333333,84.009333,93.472)" />
    <path
       id="path9"
       d="M 0,0 V 0.45827"
       style="fill:none;stroke:#000000;stroke-width:0.3985;stroke-linecap:butt;stroke-linejoin:miter;stroke-miterlimit:10;stroke-dasharray:none;stroke-opacity:1"
       transform="matrix(1.3333333,0,0,-1.3333333,13.214667,13.342667)" />
    <path
       id="path10"
       d="M -1.19551,1.59401 C -1.09587,0.99626 0,0.09961 0.29886,0 0,-0.09961 -1.09587,-0.99626 -1.19551,-1.59401"
       style="fill:none;stroke:#000000;stroke-width:0.31879;stroke-linecap:round;stroke-linejoin:round;stroke-miterlimit:10;stroke-dasharray:none;stroke-opacity:1"
       transform="matrix(0,-1.3333333,-1.3333333,0,13.214667,13.953693)" />
    <path
       id="path11"
       d="m 66.474,0 h 36.44836"
       style="fill:none;stroke:#000000;stroke-width:0.3985;stroke-linecap:butt;stroke-linejoin:miter;stroke-miterlimit:10;stroke-dasharray:none;stroke-opacity:1"
       transform="matrix(1.3333333,0,0,-1.3333333,13.214667,13.342667)" />
    <path
       id="path12"
       d="M -1.19551,1.59401 C -1.09587,0.99626 0,0.09961 0.29886,0 0,-0.09961 -1.09587,-0.99626 -1.19551,-1.59401"
       style="fill:none;stroke:#000000;stroke-width:0.31879;stroke-linecap:round;stroke-linejoin:round;stroke-miterlimit:10;stroke-dasharray:none;stroke-opacity:1"
       transform="matrix(1.3333333,0,0,-1.3333333,150.44448,13.342667)" />
    <path
       id="path13"
       d="M 7.00847,-7.00847 49.7467,-49.7467 m 13.89382,0 42.67099,42.67097"
       style="fill:none;stroke:#000000;stroke-width:0.3985;stroke-linecap:butt;stroke-linejoin:miter;stroke-miterlimit:10;stroke-dasharray:none;stroke-opacity:1"
       transform="matrix(1.3333333,0,0,-1.3333333,13.214667,13.342667)" />
  </g>
</svg>
