<?xml version="1.0" encoding="UTF-8" standalone="no"?>
<!-- Created with Inkscape (http://www.inkscape.org/) -->

<svg
   version="1.1"
   id="svg1"
   width="177.7404"
   height="105.18932"
   viewBox="0 0 177.7404 105.18931"
   xmlns="http://www.w3.org/2000/svg"
   xmlns:svg="http://www.w3.org/2000/svg">
  <defs
     id="defs1" />
  <g
     id="g1"
     transform="translate(6.3933326e-4,-7.1093753)">
    <path
       id="path1"
       d="M 9.71223,0 C 9.71223,5.36398 5.36398,9.71223 0,9.71223 -5.36398,9.71223 -9.71223,5.36398 -9.71223,0 c 0,-5.36398 4.34825,-9.71223 9.71223,-9.71223 5.36398,0 9.71223,4.34825 9.71223,9.71223 z"
       style="fill:none;stroke:#000000;stroke-width:0.3985;stroke-linecap:butt;stroke-linejoin:miter;stroke-miterlimit:10;stroke-dasharray:none;stroke-opacity:1"
       transform="matrix(1.3333333,0,0,-1.3333333,13.214667,23.608)" />
    <path
       id="path2"
       d="m 3.9617187,-6.9361719 c -0.046875,-0.1289062 -0.070312,-0.1992187 -0.2226562,-0.1992187 -0.1640625,0 -0.1875,0.058594 -0.2460938,0.1992187 l -2.0625,5.96484378 c -0.1757812,0.50390625 -0.5742187,0.65625 -1.1132812,0.66796875 v 0.3046875 c 0.234375,-0.01171875 0.65625,-0.03515625 1.0195312,-0.03515625 0.3046875,0 0.8203125,0.0234375 1.1484375,0.03515625 v -0.3046875 c -0.5039062,0 -0.75,-0.2578125 -0.75,-0.515625 0,-0.0234375 0.011719,-0.12890625 0.023437,-0.140625 L 2.215625,-2.2721094 h 2.4609375 l 0.5273437,1.52343753 c 0.011719,0.046875 0.023437,0.10546875 0.023437,0.140625 0,0.3046875 -0.5507812,0.3046875 -0.8203125,0.3046875 v 0.3046875 c 0.3515625,-0.03515625 1.0546875,-0.03515625 1.4296875,-0.03515625 0.4335938,0 0.890625,0.01171875 1.3007813,0.03515625 v -0.3046875 H 6.9617187 c -0.5976562,0 -0.7382812,-0.0703125 -0.84375,-0.3984375 z m -0.5273437,1.125 1.125,3.234375 H 2.3210937 Z m 0,0"
       style="fill:#000000;fill-opacity:1;fill-rule:nonzero;stroke:none"
       aria-label="A"
       transform="matrix(1.3333333,0,0,1.3333333,8.2333333,28.146667)" />
    <path
       id="path3"
       d="m 66.27475,0 c 0,5.29158 -4.28955,9.58113 -9.58113,9.58113 -5.29158,0 -9.58115,-4.28955 -9.58115,-9.58113 0,-5.29158 4.28957,-9.58113 9.58115,-9.58113 5.29158,0 9.58113,4.28955 9.58113,9.58113 z"
       style="fill:none;stroke:#000000;stroke-width:0.3985;stroke-linecap:butt;stroke-linejoin:miter;stroke-miterlimit:10;stroke-dasharray:none;stroke-opacity:1"
       transform="matrix(1.3333333,0,0,-1.3333333,13.214667,23.608)" />
    <path
       id="path4"
       d="m 2.2150156,-3.6432031 v -2.4492188 c 0,-0.328125 0.011719,-0.3984375 0.4804688,-0.3984375 h 1.2421875 c 0.9609375,0 1.3125,0.84375 1.3125,1.3710938 0,0.6328125 -0.4921875,1.4765625 -1.59375,1.4765625 z m 2.34375,0.09375 c 0.9726563,-0.1992188 1.6523438,-0.8320313 1.6523438,-1.5703125 0,-0.8671875 -0.9140625,-1.6875 -2.203125,-1.6875 H 0.36345312 v 0.3164062 h 0.234375 c 0.76171878,0 0.78515628,0.1054688 0.78515628,0.46875 v 5.25000003 c 0,0.3515625 -0.023437,0.46875 -0.78515628,0.46875 h -0.234375 v 0.3046875 H 4.2657969 c 1.3242187,0 2.2148437,-0.890625 2.2148437,-1.82812503 0,-0.8671875 -0.8085937,-1.6054687 -1.921875,-1.7226562 z m -0.609375,3.24609373 H 2.6954844 c -0.46875,0 -0.4804688,-0.0703125 -0.4804688,-0.3984375 V -3.4205469 h 1.875 c 0.984375,0 1.3945313,0.9257813 1.3945313,1.59375 0,0.703125 -0.515625,1.52343753 -1.5351563,1.52343753 z m 0,0"
       style="fill:#000000;fill-opacity:1;fill-rule:nonzero;stroke:none"
       aria-label="B"
       transform="matrix(1.3333333,0,0,1.3333333,84.101333,28.146667)" />
    <path
       id="path5"
       d="m 123.19458,0 c 0,5.4165 -4.39084,9.80734 -9.80734,9.80734 -5.41652,0 -9.80734,-4.39084 -9.80734,-9.80734 0,-5.4165 4.39082,-9.80734 9.80734,-9.80734 5.4165,0 9.80734,4.39084 9.80734,9.80734 z"
       style="fill:none;stroke:#000000;stroke-width:0.3985;stroke-linecap:butt;stroke-linejoin:miter;stroke-miterlimit:10;stroke-dasharray:none;stroke-opacity:1"
       transform="matrix(1.3333333,0,0,-1.3333333,13.214667,23.608)" />
    <path
       id="path6"
       d="m 0.35272656,-6.8072656 v 0.3164062 h 0.234375 c 0.77343754,0 0.78515624,0.1054688 0.78515624,0.46875 v 5.25000003 c 0,0.3515625 -0.011719,0.46875 -0.78515624,0.46875 h -0.234375 v 0.3046875 H 3.9972578 c 1.6757813,0 3.046875,-1.47656253 3.046875,-3.35156253 0,-1.8867187 -1.3476562,-3.4570312 -3.046875,-3.4570312 z m 2.36718754,6.50390623 c -0.46875,0 -0.4921875,-0.0703125 -0.4921875,-0.3984375 V -6.0924219 c 0,-0.328125 0.023437,-0.3984375 0.4921875,-0.3984375 h 0.9960937 c 0.6210938,0 1.3007813,0.2109375 1.8164063,0.9257813 0.421875,0.5859375 0.515625,1.4414062 0.515625,2.2148437 0,1.1132813 -0.1875,1.7109375 -0.5507813,2.1914063 -0.1992187,0.26953123 -0.7617187,0.85546873 -1.7695312,0.85546873 z m 0,0"
       style="fill:#000000;fill-opacity:1;fill-rule:nonzero;stroke:none"
       aria-label="D"
       transform="matrix(1.3333333,0,0,1.3333333,159.32267,28.146667)" />
    <path
       id="path7"
       d="m 66.31877,-56.69362 c 0,5.3159 -4.30927,9.62517 -9.62515,9.62517 -5.3159,0 -9.62517,-4.30927 -9.62517,-9.62517 0,-5.31588 4.30927,-9.62515 9.62517,-9.62515 5.31588,0 9.62515,4.30927 9.62515,9.62515 z"
       style="fill:none;stroke:#000000;stroke-width:0.3985;stroke-linecap:butt;stroke-linejoin:miter;stroke-miterlimit:10;stroke-dasharray:none;stroke-opacity:1"
       transform="matrix(1.3333333,0,0,-1.3333333,13.214667,23.608)" />
    <path
       id="path8"
       d="m 0.56135938,-3.4094453 c 0,2.0625 1.60546872,3.63281249 3.45703122,3.63281249 1.6289063,0 2.6015625,-1.38281249 2.6015625,-2.54296879 0,-0.1054687 0,-0.1757812 -0.1289062,-0.1757812 -0.1054688,0 -0.1054688,0.070312 -0.1171875,0.1640625 -0.082031,1.42968749 -1.1484375,2.23828124 -2.2265625,2.23828124 -0.609375,0 -2.5664063,-0.33984375 -2.5664063,-3.30468754 0,-2.9765625 1.9453125,-3.3164062 2.5546875,-3.3164062 1.078125,0 1.96875,0.9023437 2.1679688,2.3671875 0.023437,0.1289062 0.023437,0.1640625 0.1640625,0.1640625 0.1523437,0 0.1523437,-0.035156 0.1523437,-0.234375 v -2.3671875 c 0,-0.1640625 0,-0.234375 -0.1054687,-0.234375 -0.035156,0 -0.082031,0 -0.1640625,0.1171875 l -0.4921875,0.7382812 c -0.375,-0.3632812 -0.8789063,-0.8554687 -1.8398438,-0.8554687 -1.8632812,0 -3.45703122,1.5820312 -3.45703122,3.609375 z m 0,0"
       style="fill:#000000;fill-opacity:1;fill-rule:nonzero;stroke:none"
       aria-label="C"
       transform="matrix(1.3333333,0,0,1.3333333,84.009333,103.73733)" />
    <path
       id="path9"
       d="M 9.91148,0 H 46.45494"
       style="fill:none;stroke:#000000;stroke-width:0.3985;stroke-linecap:butt;stroke-linejoin:miter;stroke-miterlimit:10;stroke-dasharray:none;stroke-opacity:1"
       transform="matrix(1.3333333,0,0,-1.3333333,13.214667,23.608)" />
    <path
       id="path10"
       d="M -1.19551,1.59401 C -1.09587,0.99626 0,0.09961 0.29886,0 0,-0.09961 -1.09587,-0.99626 -1.19551,-1.59401"
       style="fill:none;stroke:#000000;stroke-width:0.31879;stroke-linecap:round;stroke-linejoin:round;stroke-miterlimit:10;stroke-dasharray:none;stroke-opacity:1"
       transform="matrix(1.3333333,0,0,-1.3333333,75.154587,23.608)" />
    <path
       id="path11"
       d="m 2.9296953,-6.3741562 c 0,-0.234375 0,-0.2578125 -0.234375,-0.2578125 -0.609375,0.6328125 -1.4882812,0.6328125 -1.80468749,0.6328125 V -5.68275 c 0.19921879,0 0.78515629,0 1.30078129,-0.2578125 v 5.15625 c 0,0.3515625 -0.035156,0.48046875 -0.9257813,0.48046875 H 0.94922656 V 8.4375e-4 C 1.3007891,-0.0343125 2.1562578,-0.0343125 2.5546953,-0.0343125 c 0.3984375,0 1.265625,0 1.6171875,0.03515625 v -0.3046875 H 3.8554766 c -0.9023438,0 -0.9257813,-0.1171875 -0.9257813,-0.48046875 z m 0,0"
       style="fill:#000000;fill-opacity:1;fill-rule:nonzero;stroke:none"
       aria-label="1"
       transform="matrix(1.3333333,0,0,1.3333333,47.777333,15.952)" />
    <path
       id="path12"
       d="m 66.474,0 h 36.44836"
       style="fill:none;stroke:#000000;stroke-width:0.3985;stroke-linecap:butt;stroke-linejoin:miter;stroke-miterlimit:10;stroke-dasharray:none;stroke-opacity:1"
       transform="matrix(1.3333333,0,0,-1.3333333,13.214667,23.608)" />
    <path
       id="path13"
       d="M -1.19551,1.59401 C -1.09587,0.99626 0,0.09961 0.29886,0 0,-0.09961 -1.09587,-0.99626 -1.19551,-1.59401"
       style="fill:none;stroke:#000000;stroke-width:0.31879;stroke-linecap:round;stroke-linejoin:round;stroke-miterlimit:10;stroke-dasharray:none;stroke-opacity:1"
       transform="matrix(1.3333333,0,0,-1.3333333,150.44448,23.608)" />
    <path
       id="path14"
       d="m 2.9293672,-6.3741562 c 0,-0.234375 0,-0.2578125 -0.234375,-0.2578125 -0.609375,0.6328125 -1.4882813,0.6328125 -1.80468751,0.6328125 V -5.68275 c 0.19921871,0 0.78515621,0 1.30078121,-0.2578125 v 5.15625 c 0,0.3515625 -0.035156,0.48046875 -0.9257812,0.48046875 H 0.94889844 V 8.4375e-4 C 1.3004609,-0.0343125 2.1559297,-0.0343125 2.5543672,-0.0343125 c 0.3984375,0 1.265625,0 1.6171875,0.03515625 v -0.3046875 H 3.8551484 c -0.9023437,0 -0.9257812,-0.1171875 -0.9257812,-0.48046875 z m 0,0"
       style="fill:#000000;fill-opacity:1;fill-rule:nonzero;stroke:none"
       aria-label="1"
       transform="matrix(1.3333333,0,0,1.3333333,123.12933,15.952)" />
    <path
       id="path15"
       d="M 7.00847,-7.00847 49.42265,-49.42265"
       style="fill:none;stroke:#000000;stroke-width:0.3985;stroke-linecap:butt;stroke-linejoin:miter;stroke-miterlimit:10;stroke-dasharray:none;stroke-opacity:1"
       transform="matrix(1.3333333,0,0,-1.3333333,13.214667,23.608)" />
    <path
       id="path16"
       d="M -1.19551,1.59401 C -1.09587,0.99626 0,0.09961 0.29886,0 0,-0.09961 -1.09587,-0.99626 -1.19551,-1.59401"
       style="fill:none;stroke:#000000;stroke-width:0.31879;stroke-linecap:round;stroke-linejoin:round;stroke-miterlimit:10;stroke-dasharray:none;stroke-opacity:1"
       transform="matrix(0.9428,0.9428,0.9428,-0.9428,79.111533,89.504867)" />
    <path
       id="path17"
       d="M 1.2654766,-0.76260156 2.3201641,-1.7938516 c 1.5585937,-1.3710937 2.15625,-1.9101562 2.15625,-2.90625 0,-1.1367187 -0.9023438,-1.9335937 -2.1210938,-1.9335937 -1.125,0 -1.85156249,0.9140625 -1.85156249,1.8046875 0,0.5507812 0.4921875,0.5507812 0.52734379,0.5507812 0.1640625,0 0.515625,-0.1171875 0.515625,-0.5273437 0,-0.2578125 -0.1875,-0.515625 -0.5273438,-0.515625 -0.0820312,0 -0.10546874,0 -0.12890624,0.011719 0.22265624,-0.6445312 0.76171874,-1.0195312 1.33593754,-1.0195312 0.9140625,0 1.3359375,0.8085937 1.3359375,1.6289062 0,0.796875 -0.4921875,1.5820313 -1.0429688,2.203125 L 0.60922656,-0.36416406 C 0.50375781,-0.25869531 0.50375781,-0.23525781 0.50375781,-8.828125e-4 H 4.1951641 L 4.4764141,-1.7352578 H 4.2186016 c -0.046875,0.3046875 -0.1171875,0.73828124 -0.2109375,0.89062499 -0.070313,0.0820313 -0.7265625,0.0820313 -0.9492188,0.0820313 z m 0,0"
       style="fill:#000000;fill-opacity:1;fill-rule:nonzero;stroke:none"
       aria-label="2"
       transform="matrix(1.3333333,0,0,1.3333333,47.730667,77.661333)" />
    <path
       id="path18"
       d="m 63.64052,-49.7467 42.34694,42.34693"
       style="fill:none;stroke:#000000;stroke-width:0.3985;stroke-linecap:butt;stroke-linejoin:miter;stroke-miterlimit:10;stroke-dasharray:none;stroke-opacity:1"
       transform="matrix(1.3333333,0,0,-1.3333333,13.214667,23.608)" />
    <path
       id="path19"
       d="M -1.19551,1.59401 C -1.09587,0.99626 0,0.09961 0.29886,0 0,-0.09961 -1.09587,-0.99626 -1.19551,-1.59401"
       style="fill:none;stroke:#000000;stroke-width:0.31879;stroke-linecap:round;stroke-linejoin:round;stroke-miterlimit:10;stroke-dasharray:none;stroke-opacity:1"
       transform="matrix(0.9428,-0.9428,-0.9428,-0.9428,154.53128,33.47436)" />
    <path
       id="path20"
       d="m 2.8950156,-3.5026328 c 0.8085938,-0.2695313 1.3945313,-0.9726563 1.3945313,-1.7578125 0,-0.8203125 -0.8789063,-1.3710938 -1.8398438,-1.3710938 -1.0078125,0 -1.75781247,0.5976563 -1.75781247,1.3476563 0,0.3398437 0.2109375,0.5273437 0.50390627,0.5273437 0.3046875,0 0.5039062,-0.2226562 0.5039062,-0.515625 0,-0.4921875 -0.46875,-0.4921875 -0.609375,-0.4921875 0.3046875,-0.4921875 0.9609375,-0.6210937 1.3242188,-0.6210937 0.4101562,0 0.9492187,0.2226562 0.9492187,1.1132812 0,0.1289063 -0.011719,0.703125 -0.2695312,1.1367188 -0.3046875,0.4804687 -0.6445313,0.515625 -0.890625,0.515625 -0.082031,0.011719 -0.3164063,0.035156 -0.3867188,0.035156 -0.082031,0.011719 -0.1523437,0.023437 -0.1523437,0.1171875 0,0.1171875 0.070312,0.1171875 0.234375,0.1171875 h 0.4453125 c 0.8085937,0 1.1835937,0.6679688 1.1835937,1.6523438 0,1.34765624 -0.6914062,1.64062499 -1.125,1.64062499 -0.4335937,0 -1.171875,-0.17578125 -1.52343747,-0.76171875 0.35156247,0.0585938 0.65624997,-0.1640625 0.65624997,-0.53906254 0,-0.3632812 -0.2695312,-0.5625 -0.56249997,-0.5625 -0.234375,0 -0.55078125,0.140625 -0.55078125,0.5742188 0,0.91406249 0.92578122,1.57031249 2.00390622,1.57031249 1.21875,0 2.1210938,-0.9140625 2.1210938,-1.92187499 0,-0.8203125 -0.6210938,-1.59375 -1.6523438,-1.8046873 z m 0,0"
       style="fill:#000000;fill-opacity:1;fill-rule:nonzero;stroke:none"
       aria-label="3"
       transform="matrix(1.3333333,0,0,1.3333333,123.19467,77.705333)" />
  </g>
</svg>
