<?xml version="1.0" encoding="UTF-8" standalone="no"?>
<!-- Created with Inkscape (http://www.inkscape.org/) -->

<svg
   version="1.1"
   id="svg1"
   width="20.945312"
   height="9.359375"
   viewBox="0 0 20.945312 9.359375"
   xmlns="http://www.w3.org/2000/svg"
   xmlns:svg="http://www.w3.org/2000/svg">
  <defs
     id="defs1" />
  <g
     id="g1"
     transform="translate(-20.175781,-0.0039065)">
    <path
       id="path1"
       d="M 1.7229922,-3.9853828 H 3.1526797 V -4.2900703 H 1.7229922 V -6.1299141 H 1.4768984 c -0.011719,0.8203125 -0.3164062,1.8867188 -1.28906246,1.921875 v 0.2226563 H 1.0315859 v 2.7539062 c 0,1.21875004 0.9257813,1.33593754 1.2890625,1.33593754 0.703125,0 0.984375,-0.703125 0.984375,-1.33593754 V -1.8056953 H 3.0589297 v 0.5507812 c 0,0.73828129 -0.3046875,1.11328129 -0.6679688,1.11328129 -0.6679687,0 -0.6679687,-0.90234379 -0.6679687,-1.07812499 z m 3.9082031,-0.421875 -1.3945312,0.1171875 v 0.3046875 c 0.65625,0 0.7382812,0.058594 0.7382812,0.5507812 v 2.67187504 c 0,0.45703125 -0.1054687,0.45703125 -0.7734375,0.45703125 v 0.3046875 c 0.3164063,-0.01171875 0.8554688,-0.03515625 1.1015625,-0.03515625 0.3398438,0 0.6914063,0.0234375 1.03125,0.03515625 v -0.3046875 c -0.65625,0 -0.703125,-0.0585938 -0.703125,-0.4453125 z m 0.046875,-1.734375 c 0,-0.3164063 -0.2460937,-0.5273438 -0.5273437,-0.5273438 -0.3164063,0 -0.5273438,0.2695313 -0.5273438,0.5273438 0,0.2695312 0.2109375,0.5273437 0.5273438,0.5273437 0.28125,0 0.5273437,-0.1992187 0.5273437,-0.5273437 z m 2.0185547,5.37890624 c 0,0.45703125 -0.1054687,0.45703125 -0.7734375,0.45703125 v 0.3046875 c 0.328125,-0.01171875 0.796875,-0.03515625 1.078125,-0.03515625 0.3046875,0 0.703125,0.01171875 1.1015625,0.03515625 v -0.3046875 c -0.6679687,0 -0.7734375,0 -0.7734375,-0.45703125 V -1.7822578 L 8.96225,-2.3330391 c 0.7734375,1.0546875 1.183594,1.61718754 1.183594,1.79296879 0,0.1875 -0.1640627,0.234375 -0.3515627,0.234375 v 0.3046875 c 0.2695317,-0.01171875 0.8671877,-0.03515625 1.0664067,-0.03515625 0.292968,0 0.585937,0.01171875 0.867187,0.03515625 v -0.3046875 c -0.363281,0 -0.585937,0 -0.960937,-0.52734375 L 9.5013125,-2.6260078 c -0.011719,-0.011719 -0.058594,-0.070312 -0.058594,-0.1054688 0,-0.035156 0.7031255,-0.6328125 0.8085945,-0.7148437 0.621093,-0.5039063 1.042968,-0.5273438 1.253906,-0.5390625 v -0.3046875 c -0.292969,0.023437 -0.421875,0.023437 -0.703125,0.023437 -0.351563,0 -0.9726568,-0.023437 -1.1132818,-0.023437 v 0.3046875 c 0.1875,0.011719 0.2929688,0.1171875 0.2929688,0.2460937 0,0.1992188 -0.140625,0.3164063 -0.2226563,0.3867188 l -1.40625,1.21875 v -4.78125 l -1.4296875,0.1054687 v 0.3164063 c 0.6914063,0 0.7734375,0.070312 0.7734375,0.5507812 z m 8.094727,-3.23437504 c 0.08203,-0.1054687 0.08203,-0.1289062 0.08203,-0.1640625 0,-0.1289062 -0.08203,-0.1289062 -0.257813,-0.1289062 h -3.1875 l -0.105468,1.59375 h 0.246093 c 0.05859,-1.0078125 0.246094,-1.3828125 1.347657,-1.3828125 h 1.136718 l -2.789062,3.76171874 c -0.08203,0.10546875 -0.08203,0.12890625 -0.08203,0.17578125 0,0.140625 0.07031,0.140625 0.257812,0.140625 h 3.28125 L 15.89682,-1.8642891 h -0.246093 c -0.09375,1.17187504 -0.304688,1.61718754 -1.453125,1.61718754 h -1.183594 z m 0,0"
       style="fill:#000000;fill-opacity:1;fill-rule:nonzero;stroke:none"
       aria-label="tikz"
       transform="matrix(1.3333333,0,0,1.3333333,19.925333,9.224)" />
  </g>
</svg>
