<?xml version="1.0" encoding="UTF-8" standalone="no"?>
<!-- Created with Inkscape (http://www.inkscape.org/) -->

<svg
   version="1.1"
   id="svg1"
   width="177.7404"
   height="105.93262"
   viewBox="0 0 177.7404 105.93262"
   xmlns="http://www.w3.org/2000/svg"
   xmlns:svg="http://www.w3.org/2000/svg">
  <defs
     id="defs1" />
  <g
     id="g1"
     transform="translate(6.3933326e-4,5.9989927e-4)">
    <path
       id="path1"
       d="M 9.71223,0 C 9.71223,5.36398 5.36398,9.71223 0,9.71223 -5.36398,9.71223 -9.71223,5.36398 -9.71223,0 c 0,-5.36398 4.34825,-9.71223 9.71223,-9.71223 5.36398,0 9.71223,4.34825 9.71223,9.71223 z"
       style="fill:none;stroke:#000000;stroke-width:0.3985;stroke-linecap:butt;stroke-linejoin:miter;stroke-miterlimit:10;stroke-dasharray:none;stroke-opacity:1"
       transform="matrix(1.3333333,0,0,-1.3333333,13.214667,17.241333)" />
    <path
       id="path2"
       d="m 3.9617187,-6.9365625 c -0.046875,-0.1289063 -0.070312,-0.1992188 -0.2226562,-0.1992188 -0.1640625,0 -0.1875,0.058594 -0.2460938,0.1992188 l -2.0625,5.96484375 C 1.2546875,-0.4678125 0.85625,-0.31546875 0.3171875,-0.30375 V 9.375e-4 c 0.234375,-0.01171875 0.65625,-0.03515625 1.0195312,-0.03515625 0.3046875,0 0.8203125,0.0234375 1.1484375,0.03515625 V -0.30375 c -0.5039062,0 -0.75,-0.2578125 -0.75,-0.515625 0,-0.0234375 0.011719,-0.12890625 0.023437,-0.140625 L 2.215625,-2.2725 h 2.4609375 l 0.5273437,1.5234375 c 0.011719,0.046875 0.023437,0.10546875 0.023437,0.140625 0,0.3046875 -0.5507812,0.3046875 -0.8203125,0.3046875 V 9.375e-4 c 0.3515625,-0.03515625 1.0546875,-0.03515625 1.4296875,-0.03515625 0.4335938,0 0.890625,0.01171875 1.3007813,0.03515625 V -0.30375 H 6.9617187 c -0.5976562,0 -0.7382812,-0.0703125 -0.84375,-0.3984375 z m -0.5273437,1.125 1.125,3.234375 H 2.3210937 Z m 0,0"
       style="fill:#000000;fill-opacity:1;fill-rule:nonzero;stroke:none"
       aria-label="A"
       transform="matrix(1.3333333,0,0,1.3333333,8.2333333,21.78)" />
    <path
       id="path3"
       d="m 66.27475,0 c 0,5.29158 -4.28955,9.58113 -9.58113,9.58113 -5.29158,0 -9.58115,-4.28955 -9.58115,-9.58113 0,-5.29158 4.28957,-9.58113 9.58115,-9.58113 5.29158,0 9.58113,4.28955 9.58113,9.58113 z"
       style="fill:none;stroke:#000000;stroke-width:0.3985;stroke-linecap:butt;stroke-linejoin:miter;stroke-miterlimit:10;stroke-dasharray:none;stroke-opacity:1"
       transform="matrix(1.3333333,0,0,-1.3333333,13.214667,17.241333)" />
    <path
       id="path4"
       d="m 2.2150156,-3.6435938 v -2.4492187 c 0,-0.328125 0.011719,-0.3984375 0.4804688,-0.3984375 h 1.2421875 c 0.9609375,0 1.3125,0.84375 1.3125,1.3710937 0,0.6328125 -0.4921875,1.4765625 -1.59375,1.4765625 z m 2.34375,0.09375 c 0.9726563,-0.1992187 1.6523438,-0.8320312 1.6523438,-1.5703125 0,-0.8671875 -0.9140625,-1.6875 -2.203125,-1.6875 H 0.36345312 V -6.49125 h 0.234375 c 0.76171878,0 0.78515628,0.1054687 0.78515628,0.46875 v 5.25 c 0,0.3515625 -0.023437,0.46875 -0.78515628,0.46875 h -0.234375 V 9.375e-4 H 4.2657969 c 1.3242187,0 2.2148437,-0.890625 2.2148437,-1.828125 0,-0.8671875 -0.8085937,-1.6054688 -1.921875,-1.7226563 z M 3.9493906,-0.30375 H 2.6954844 c -0.46875,0 -0.4804688,-0.0703125 -0.4804688,-0.3984375 v -2.71875 h 1.875 c 0.984375,0 1.3945313,0.9257812 1.3945313,1.59375 0,0.703125 -0.515625,1.5234375 -1.5351563,1.5234375 z m 0,0"
       style="fill:#000000;fill-opacity:1;fill-rule:nonzero;stroke:none"
       aria-label="B"
       transform="matrix(1.3333333,0,0,1.3333333,84.101333,21.78)" />
    <path
       id="path5"
       d="m 123.19458,0 c 0,5.4165 -4.39084,9.80734 -9.80734,9.80734 -5.41652,0 -9.80734,-4.39084 -9.80734,-9.80734 0,-5.4165 4.39082,-9.80734 9.80734,-9.80734 5.4165,0 9.80734,4.39084 9.80734,9.80734 z"
       style="fill:none;stroke:#000000;stroke-width:0.3985;stroke-linecap:butt;stroke-linejoin:miter;stroke-miterlimit:10;stroke-dasharray:none;stroke-opacity:1"
       transform="matrix(1.3333333,0,0,-1.3333333,13.214667,17.241333)" />
    <path
       id="path6"
       d="M 0.35272656,-6.8076563 V -6.49125 h 0.234375 c 0.77343754,0 0.78515624,0.1054687 0.78515624,0.46875 v 5.25 c 0,0.3515625 -0.011719,0.46875 -0.78515624,0.46875 h -0.234375 V 9.375e-4 H 3.9972578 c 1.6757813,0 3.046875,-1.4765625 3.046875,-3.3515625 0,-1.8867188 -1.3476562,-3.4570313 -3.046875,-3.4570313 z M 2.7199141,-0.30375 c -0.46875,0 -0.4921875,-0.0703125 -0.4921875,-0.3984375 v -5.390625 c 0,-0.328125 0.023437,-0.3984375 0.4921875,-0.3984375 h 0.9960937 c 0.6210938,0 1.3007813,0.2109375 1.8164063,0.9257812 0.421875,0.5859375 0.515625,1.4414063 0.515625,2.2148438 0,1.1132812 -0.1875,1.7109375 -0.5507813,2.1914062 C 5.2980391,-0.8896875 4.7355391,-0.30375 3.7277266,-0.30375 Z m 0,0"
       style="fill:#000000;fill-opacity:1;fill-rule:nonzero;stroke:none"
       aria-label="D"
       transform="matrix(1.3333333,0,0,1.3333333,159.32267,21.78)" />
    <path
       id="path7"
       d="m 66.31877,-56.69362 c 0,5.3159 -4.30927,9.62517 -9.62515,9.62517 -5.3159,0 -9.62517,-4.30927 -9.62517,-9.62517 0,-5.31588 4.30927,-9.62515 9.62517,-9.62515 5.31588,0 9.62515,4.30927 9.62515,9.62515 z"
       style="fill:none;stroke:#000000;stroke-width:0.3985;stroke-linecap:butt;stroke-linejoin:miter;stroke-miterlimit:10;stroke-dasharray:none;stroke-opacity:1"
       transform="matrix(1.3333333,0,0,-1.3333333,13.214667,17.241333)" />
    <path
       id="path8"
       d="m 0.56135938,-3.4098359 c 0,2.0625 1.60546872,3.63281246 3.45703122,3.63281246 1.6289063,0 2.6015625,-1.38281246 2.6015625,-2.54296876 0,-0.1054687 0,-0.1757812 -0.1289062,-0.1757812 -0.1054688,0 -0.1054688,0.070312 -0.1171875,0.1640625 -0.082031,1.42968746 -1.1484375,2.23828121 -2.2265625,2.23828121 -0.609375,0 -2.5664063,-0.33984375 -2.5664063,-3.30468751 0,-2.9765625 1.9453125,-3.3164062 2.5546875,-3.3164062 1.078125,0 1.96875,0.9023437 2.1679688,2.3671875 0.023437,0.1289062 0.023437,0.1640625 0.1640625,0.1640625 0.1523437,0 0.1523437,-0.035156 0.1523437,-0.234375 v -2.3671875 c 0,-0.1640625 0,-0.234375 -0.1054687,-0.234375 -0.035156,0 -0.082031,0 -0.1640625,0.1171875 l -0.4921875,0.7382812 c -0.375,-0.3632812 -0.8789063,-0.8554687 -1.8398438,-0.8554687 -1.8632812,0 -3.45703122,1.5820312 -3.45703122,3.609375 z m 0,0"
       style="fill:#000000;fill-opacity:1;fill-rule:nonzero;stroke:none"
       aria-label="C"
       transform="matrix(1.3333333,0,0,1.3333333,84.009333,97.370667)" />
    <path
       id="path9"
       d="M 9.91148,0 H 46.45494"
       style="fill:none;stroke:#000000;stroke-width:0.3985;stroke-linecap:butt;stroke-linejoin:miter;stroke-miterlimit:10;stroke-dasharray:none;stroke-opacity:1"
       transform="matrix(1.3333333,0,0,-1.3333333,13.214667,17.241333)" />
    <path
       id="path10"
       d="M -1.19551,1.59401 C -1.09587,0.99626 0,0.09961 0.29886,0 0,-0.09961 -1.09587,-0.99626 -1.19551,-1.59401"
       style="fill:none;stroke:#000000;stroke-width:0.31879;stroke-linecap:round;stroke-linejoin:round;stroke-miterlimit:10;stroke-dasharray:none;stroke-opacity:1"
       transform="matrix(1.3333333,0,0,-1.3333333,75.154587,17.241333)" />
    <path
       id="path11"
       d="M 7.00847,-7.00847 49.42265,-49.42265"
       style="fill:none;stroke:#000000;stroke-width:0.3985;stroke-linecap:butt;stroke-linejoin:miter;stroke-miterlimit:10;stroke-dasharray:none;stroke-opacity:1"
       transform="matrix(1.3333333,0,0,-1.3333333,13.214667,17.241333)" />
    <path
       id="path12"
       d="M -1.19551,1.59401 C -1.09587,0.99626 0,0.09961 0.29886,0 0,-0.09961 -1.09587,-0.99626 -1.19551,-1.59401"
       style="fill:none;stroke:#000000;stroke-width:0.31879;stroke-linecap:round;stroke-linejoin:round;stroke-miterlimit:10;stroke-dasharray:none;stroke-opacity:1"
       transform="matrix(0.9428,0.9428,0.9428,-0.9428,79.111533,83.1382)" />
    <path
       id="path13"
       d="m 66.474,0 h 36.44836"
       style="fill:none;stroke:#000000;stroke-width:0.3985;stroke-linecap:butt;stroke-linejoin:miter;stroke-miterlimit:10;stroke-dasharray:none;stroke-opacity:1"
       transform="matrix(1.3333333,0,0,-1.3333333,13.214667,17.241333)" />
    <path
       id="path14"
       d="M -1.19551,1.59401 C -1.09587,0.99626 0,0.09961 0.29886,0 0,-0.09961 -1.09587,-0.99626 -1.19551,-1.59401"
       style="fill:none;stroke:#000000;stroke-width:0.31879;stroke-linecap:round;stroke-linejoin:round;stroke-miterlimit:10;stroke-dasharray:none;stroke-opacity:1"
       transform="matrix(1.3333333,0,0,-1.3333333,150.44448,17.241333)" />
    <path
       id="path15"
       d="m 63.64052,-49.7467 42.34694,42.34693"
       style="fill:none;stroke:#000000;stroke-width:0.3985;stroke-linecap:butt;stroke-linejoin:miter;stroke-miterlimit:10;stroke-dasharray:none;stroke-opacity:1"
       transform="matrix(1.3333333,0,0,-1.3333333,13.214667,17.241333)" />
    <path
       id="path16"
       d="M -1.19551,1.59401 C -1.09587,0.99626 0,0.09961 0.29886,0 0,-0.09961 -1.09587,-0.99626 -1.19551,-1.59401"
       style="fill:none;stroke:#000000;stroke-width:0.31879;stroke-linecap:round;stroke-linejoin:round;stroke-miterlimit:10;stroke-dasharray:none;stroke-opacity:1"
       transform="matrix(0.9428,-0.9428,-0.9428,-0.9428,154.53128,27.107693)" />
    <path
       id="path17"
       d="M 9.91148,0 H 46.91322"
       style="fill:none;stroke:#000000;stroke-width:0.3985;stroke-linecap:butt;stroke-linejoin:miter;stroke-miterlimit:10;stroke-dasharray:none;stroke-opacity:1"
       transform="matrix(1.3333333,0,0,-1.3333333,13.214667,17.241333)" />
    <path
       id="path18"
       d="m 69.42581,0 c 0,7.03188 -5.70031,12.7322 -12.73219,12.7322 -7.03189,0 -12.73221,-5.70032 -12.73221,-12.7322 0,-7.03188 5.70032,-12.7322 12.73221,-12.7322 7.03188,0 12.73219,5.70032 12.73219,12.7322 z"
       style="fill:none;stroke:#000000;stroke-width:0.3985;stroke-linecap:butt;stroke-linejoin:miter;stroke-miterlimit:10;stroke-dasharray:none;stroke-opacity:1"
       transform="matrix(1.3333333,0,0,-1.3333333,13.214667,17.241333)" />
    <path
       id="path19"
       d="m 1.52425,-5.8724219 c 0,-0.5976562 -0.234375,-1.0429687 -0.66796875,-1.0429687 -0.3515625,0 -0.52734375,0.2695312 -0.52734375,0.5273437 0,0.2578125 0.17578125,0.5273438 0.52734375,0.5273438 0.19921875,0 0.33984375,-0.09375 0.39843745,-0.1523438 0.011719,-0.023437 0.023437,-0.035156 0.035156,-0.035156 0.011719,0 0.011719,0.140625 0.011719,0.1757812 0,0.328125 -0.070312,1.0429688 -0.6914062,1.6523438 C 0.493,-4.0911719 0.493,-4.0794531 0.493,-4.0442969 c 0,0.070312 0.046875,0.1054688 0.09375,0.1054688 0.1171875,0 0.9375,-0.75 0.9375,-1.9335938 z m 1.9335937,0 c 0,-0.5976562 -0.234375,-1.0429687 -0.6679687,-1.0429687 -0.3515625,0 -0.5273438,0.2695312 -0.5273438,0.5273437 0,0.2578125 0.1640625,0.5273438 0.5273438,0.5273438 0.1992187,0 0.3398437,-0.09375 0.3984375,-0.1523438 0.011719,-0.023437 0.023437,-0.035156 0.035156,-0.035156 0.011719,0 0.011719,0.140625 0.011719,0.1757812 0,0.328125 -0.070312,1.0429688 -0.6914063,1.6523438 -0.1171875,0.1289062 -0.1171875,0.140625 -0.1171875,0.1757812 0,0.070312 0.046875,0.1054688 0.09375,0.1054688 0.1054688,0 0.9375,-0.75 0.9375,-1.933594 z m 4.453125,-0.5039062 c 0,-0.234375 0,-0.2578125 -0.234375,-0.2578125 -0.609375,0.6328125 -1.4882812,0.6328125 -1.8046875,0.6328125 v 0.3164062 c 0.1992188,0 0.7851563,0 1.3007813,-0.2578125 v 5.15625003 c 0,0.3515625 -0.035156,0.48046875 -0.9257813,0.48046875 H 5.9305 v 0.3046875 c 0.3515625,-0.03515625 1.2070312,-0.03515625 1.6054687,-0.03515625 0.3984375,0 1.265625,0 1.6171875,0.03515625 v -0.3046875 H 8.83675 c -0.9023438,0 -0.9257813,-0.1171875 -0.9257813,-0.48046875 z m 3.5742183,0.5039062 c 0,-0.5976562 -0.234375,-1.0429687 -0.667968,-1.0429687 -0.351563,0 -0.527344,0.2695312 -0.527344,0.5273437 0,0.2578125 0.175781,0.5273438 0.527344,0.5273438 0.199218,0 0.339843,-0.09375 0.398437,-0.1523438 0.01172,-0.023437 0.02344,-0.035156 0.03516,-0.035156 0.01172,0 0.01172,0.140625 0.01172,0.1757812 0,0.328125 -0.07031,1.0429688 -0.691406,1.6523438 -0.117188,0.1289062 -0.117188,0.140625 -0.117188,0.1757812 0,0.070312 0.04687,0.1054688 0.09375,0.1054688 0.117188,0 0.9375,-0.75 0.9375,-1.9335938 z m 1.933594,0 c 0,-0.5976562 -0.234375,-1.0429687 -0.667969,-1.0429687 -0.351562,0 -0.527343,0.2695312 -0.527343,0.5273437 0,0.2578125 0.164062,0.5273438 0.527343,0.5273438 0.199219,0 0.339844,-0.09375 0.398438,-0.1523438 0.01172,-0.023437 0.02344,-0.035156 0.03516,-0.035156 0.01172,0 0.01172,0.140625 0.01172,0.1757812 0,0.328125 -0.07031,1.0429688 -0.691406,1.6523438 -0.117188,0.1289062 -0.117188,0.140625 -0.117188,0.1757812 0,0.070312 0.04687,0.1054688 0.09375,0.1054688 0.105469,0 0.9375,-0.75 0.9375,-1.9335938 z m 0,0"
       style="fill:#000000;fill-opacity:1;fill-rule:nonzero;stroke:none"
       aria-label="”1”"
       transform="matrix(1.3333333,0,0,1.3333333,78.842667,21.853333)" />
  </g>
</svg>
