<?xml version="1.0" encoding="UTF-8" standalone="no"?>
<!-- Created with Inkscape (http://www.inkscape.org/) -->

<svg
   version="1.1"
   id="svg1"
   width="395.49878"
   height="295.94583"
   viewBox="0 0 395.49878 295.94583"
   xmlns="http://www.w3.org/2000/svg"
   xmlns:svg="http://www.w3.org/2000/svg">
  <defs
     id="defs1">
    <clipPath
       clipPathUnits="userSpaceOnUse"
       id="clipPath11">
      <path
         d="M -112.36989,32.1445 -27.32947,179.43924 169.0635,66.052 84.02309,-81.24272 Z"
         id="path11" />
    </clipPath>
  </defs>
  <g
     id="g1"
     transform="translate(-0.26322596,0.00298402)">
    <path
       id="path1"
       d="M -113.38724,-28.3468 H 113.38724 M -113.38724,0 h 226.77448 m -226.77448,28.3468 h 226.77448 m -226.77448,28.34682 h 226.77448 m -226.77448,28.3468 h 226.77448 m -226.77448,28.34682 h 226.77448 m -226.77448,28.33685 H 113.38724 M -113.38724,-28.3468 V 141.73404 M -85.04042,-28.3468 V 141.73404 M -56.69362,-28.3468 V 141.73404 M -28.3468,-28.3468 V 141.73404 M 0,-28.3468 V 141.73404 M 28.3468,-28.3468 V 141.73404 M 56.69362,-28.3468 V 141.73404 M 85.04042,-28.3468 V 141.73404 M 113.37727,-28.3468 v 170.08084"
       style="fill:none;stroke:#bfbfbf;stroke-width:0.79701;stroke-linecap:butt;stroke-linejoin:miter;stroke-miterlimit:10;stroke-dasharray:none;stroke-opacity:1"
       transform="matrix(1.3333333,0,0,-1.3333333,170.344,239.24933)" />
    <path
       id="path2"
       d="M -127.10236,0 H 127.10236"
       style="fill:none;stroke:#000000;stroke-width:0.3985;stroke-linecap:butt;stroke-linejoin:miter;stroke-miterlimit:10;stroke-dasharray:none;stroke-opacity:1"
       transform="matrix(1.3333333,0,0,-1.3333333,170.344,239.24933)" />
    <path
       id="path3"
       d="M -1.19551,1.59401 C -1.09587,0.99626 0,0.09961 0.29886,0 0,-0.09961 -1.09587,-0.99626 -1.19551,-1.59401"
       style="fill:none;stroke:#000000;stroke-width:0.31879;stroke-linecap:round;stroke-linejoin:round;stroke-miterlimit:10;stroke-dasharray:none;stroke-opacity:1"
       transform="matrix(-1.3333333,0,0,1.3333333,0.87418667,239.24933)" />
    <path
       id="path4"
       d="M -1.19551,1.59401 C -1.09587,0.99626 0,0.09961 0.29886,0 0,-0.09961 -1.09587,-0.99626 -1.19551,-1.59401"
       style="fill:none;stroke:#000000;stroke-width:0.31879;stroke-linecap:round;stroke-linejoin:round;stroke-miterlimit:10;stroke-dasharray:none;stroke-opacity:1"
       transform="matrix(1.3333333,0,0,-1.3333333,339.81381,239.24933)" />
    <path
       id="path5"
       d="m 3.3290156,-3.0116875 c 0.058594,-0.2578125 0.2929688,-1.171875 0.984375,-1.171875 0.046875,0 0.2929688,0 0.5039063,0.1289063 -0.28125,0.046875 -0.4804688,0.3046875 -0.4804688,0.5390625 0,0.1640625 0.1054688,0.3515625 0.375,0.3515625 0.2226563,0 0.5390625,-0.1875 0.5390625,-0.5859375 0,-0.515625 -0.5859375,-0.65625 -0.9257812,-0.65625 -0.5742188,0 -0.9257813,0.5273437 -1.0429688,0.7617187 -0.2578125,-0.65625 -0.7851562,-0.7617187 -1.078125,-0.7617187 -1.0429687,0 -1.60546872,1.2890625 -1.60546872,1.5351562 0,0.1054688 0.10546875,0.1054688 0.1171875,0.1054688 0.0820313,0 0.1171875,-0.023437 0.12890625,-0.1171875 0.33984377,-1.0546875 0.99609377,-1.3007813 1.33593747,-1.3007813 0.1875,0 0.5390625,0.09375 0.5390625,0.6679688 0,0.3046875 -0.1640625,0.9726562 -0.5390625,2.3671875 -0.1523437,0.6210937 -0.5039062,1.0429687 -0.9492187,1.0429687 -0.058594,0 -0.28125002,0 -0.49218752,-0.12890625 0.24609375,-0.0585938 0.46875002,-0.26953125 0.46875002,-0.5390625 0,-0.26953125 -0.22265627,-0.35156245 -0.37500002,-0.35156245 -0.29296875,0 -0.5390625,0.25781245 -0.5390625,0.5742187 0,0.45703125 0.4921875,0.65625 0.93750002,0.65625 0.65625,0 1.0078125,-0.69140625 1.0429687,-0.75 0.1171875,0.36328125 0.4804688,0.75 1.078125,0.75 1.0195313,0 1.59375,-1.2773437 1.59375,-1.5351562 0,-0.09375 -0.09375,-0.09375 -0.1289062,-0.09375 -0.082031,0 -0.1054688,0.035156 -0.1289063,0.1054687 -0.328125,1.06640625 -0.9960937,1.3125 -1.3242187,1.3125 -0.3867188,0 -0.5390625,-0.328125 -0.5390625,-0.65625 0,-0.22265625 0.058594,-0.4453125 0.1640625,-0.8789062 z m 0,0"
       style="fill:#000000;fill-opacity:1;fill-rule:nonzero;stroke:none"
       aria-label="x"
       transform="matrix(1.3333333,0,0,1.3333333,345.116,242.10933)" />
    <path
       id="path6"
       d="M 0,-42.06192 V 155.44916"
       style="fill:none;stroke:#000000;stroke-width:0.3985;stroke-linecap:butt;stroke-linejoin:miter;stroke-miterlimit:10;stroke-dasharray:none;stroke-opacity:1"
       transform="matrix(1.3333333,0,0,-1.3333333,170.344,239.24933)" />
    <path
       id="path7"
       d="M -1.19551,1.59401 C -1.09587,0.99626 0,0.09961 0.29886,0 0,-0.09961 -1.09587,-0.99626 -1.19551,-1.59401"
       style="fill:none;stroke:#000000;stroke-width:0.31879;stroke-linecap:round;stroke-linejoin:round;stroke-miterlimit:10;stroke-dasharray:none;stroke-opacity:1"
       transform="matrix(0,1.3333333,1.3333333,0,170.344,295.33189)" />
    <path
       id="path8"
       d="M -1.19551,1.59401 C -1.09587,0.99626 0,0.09961 0.29886,0 0,-0.09961 -1.09587,-0.99626 -1.19551,-1.59401"
       style="fill:none;stroke:#000000;stroke-width:0.31879;stroke-linecap:round;stroke-linejoin:round;stroke-miterlimit:10;stroke-dasharray:none;stroke-opacity:1"
       transform="matrix(0,-1.3333333,-1.3333333,0,170.344,31.983787)" />
    <path
       id="path9"
       d="m 4.8385859,-3.7957031 c 0.046875,-0.140625 0.046875,-0.1523438 0.046875,-0.2226563 0,-0.1875 -0.140625,-0.2695312 -0.2929687,-0.2695312 -0.1054688,0 -0.2578125,0.058594 -0.3515625,0.1992187 -0.023437,0.058594 -0.09375,0.3632813 -0.140625,0.5390625 -0.070312,0.2578125 -0.140625,0.5273438 -0.1992188,0.796875 l -0.4453125,1.79296877 c -0.035156,0.15234375 -0.46875,0.85546875 -1.125,0.85546875 -0.5039062,0 -0.6210937,-0.4453125 -0.6210937,-0.80859375 0,-0.45703127 0.1757812,-1.07812497 0.515625,-1.95703127 0.1523437,-0.4101562 0.1992187,-0.515625 0.1992187,-0.7148437 0,-0.4453125 -0.328125,-0.8203125 -0.8203125,-0.8203125 -0.94921871,0 -1.31249996,1.453125 -1.31249996,1.5351562 0,0.1054688 0.09375,0.1054688 0.1171875,0.1054688 0.09375,0 0.10546875,-0.023437 0.15234375,-0.1875 0.26953125,-0.9375 0.66796871,-1.2304688 1.00781251,-1.2304688 0.082031,0 0.2578125,0 0.2578125,0.3164063 0,0.2460937 -0.1054688,0.515625 -0.1757813,0.703125 -0.3984375,1.0546875 -0.5742187,1.6171875 -0.5742187,2.0859375 0,0.89062497 0.6210937,1.18359372 1.21875,1.18359372 0.3867187,0 0.7265625,-0.1640625 0.9960937,-0.4453125 -0.1289062,0.515625 -0.2460937,1.0078125 -0.6445312,1.53515628 -0.2578125,0.3398437 -0.6328125,0.6328125 -1.0898438,0.6328125 -0.140625,0 -0.59765621,-0.035156 -0.76171871,-0.421875 0.1640625,0 0.29296871,0 0.43359371,-0.1171875 0.09375,-0.09375 0.1992188,-0.2226563 0.1992188,-0.41015628 0,-0.31640625 -0.2695313,-0.3515625 -0.375,-0.3515625 -0.22265626,0 -0.55078126,0.1640625 -0.55078126,0.64453128 0,0.5039062 0.43359375,0.8671875 1.05468746,0.8671875 1.0195313,0 2.0507813,-0.9023438 2.3320313,-2.02734378 z m 0,0"
       style="fill:#000000;fill-opacity:1;fill-rule:nonzero;stroke:none"
       aria-label="y"
       transform="matrix(1.3333333,0,0,1.3333333,166.84933,24.1)" />
    <path
       id="path10"
       d="m 128.57797,449.47963 c 0,0 -20.69427,-49.49733 -28.0376,-67.46039 C 93.19705,364.05623 82.12183,336.46365 75.65251,320.01443 69.18323,303.56526 59.50955,278.40025 53.91418,263.46478 48.31883,248.52931 40.04654,225.79158 35.32516,212.3699 30.60379,198.94823 23.73322,178.63835 19.88588,166.73055 16.03854,154.82275 10.5697,136.94072 7.59634,126.54672 4.623,116.1527 0.55551,100.69792 -1.54385,91.81766 -3.64325,82.93738 -6.30919,69.91022 -7.53458,62.54378 -8.75996,55.17732 -10.02412,44.57805 -10.37553,38.7254 c -0.3514,-5.85266 -0.21424,-14.02473 0.30835,-18.36358 0.52256,-4.33889 2.06149,-10.08304 3.45808,-12.90808 1.39659,-2.82503 4.33708,-6.14161 6.60764,-7.4529 2.27052,-1.31126 6.61233,-2.20056 9.75685,-1.99809 3.14451,0.20247 8.88811,1.74102 12.90666,3.45736 4.01857,1.71637 11.16388,5.68279 16.05643,8.91294 4.89253,3.23015 13.43919,9.62382 19.20568,14.36769 5.7665,4.74388 15.71476,13.56514 22.35527,19.82286 6.64051,6.25772 17.99048,17.50688 25.50498,25.2784 7.51448,7.7715 20.26582,21.44787 28.65429,30.73315 8.38846,9.28528 22.54156,25.38955 31.80402,36.18869 9.26248,10.79913 24.81714,29.33099 34.95355,41.64384 10.13645,12.31286 27.09249,33.27201 38.10288,47.09862 11.01042,13.82666 29.36816,37.21362 41.25262,52.55416 11.88445,15.34054 44.40235,58.00968 44.40235,58.00968"
       style="fill:none;stroke:#0000ff;stroke-width:1.19553;stroke-linecap:butt;stroke-linejoin:miter;stroke-miterlimit:10;stroke-dasharray:none;stroke-opacity:1"
       transform="matrix(1.3333333,0,0,-1.3333333,170.344,239.24933)"
       clip-path="url(#clipPath11)" />
  </g>
</svg>
