<?xml version="1.0" encoding="UTF-8" standalone="no"?>
<!-- Created with Inkscape (http://www.inkscape.org/) -->

<svg
   version="1.1"
   id="svg1"
   width="390.35544"
   height="189.23111"
   viewBox="0 0 390.35544 189.23111"
   xmlns="http://www.w3.org/2000/svg"
   xmlns:svg="http://www.w3.org/2000/svg">
  <defs
     id="defs1" />
  <g
     id="g1"
     transform="translate(-4.8789063,-0.00971806)">
    <path
       id="path1"
       d="M 0,0 H 283.4681 M 0,28.3468 H 283.4681 M 0,56.69362 H 283.4681 M 0,85.04042 H 283.4681 M 0,113.38724 H 283.4681 M 0,141.72409 H 283.4681 M 0,0 V 141.73404 M 28.3468,0 V 141.73404 M 56.69362,0 V 141.73404 M 85.04042,0 V 141.73404 M 113.38724,0 V 141.73404 M 141.73404,0 V 141.73404 M 170.08086,0 V 141.73404 M 198.42766,0 V 141.73404 M 226.77448,0 V 141.73404 M 255.12128,0 V 141.73404 M 283.45813,0 v 141.73404"
       style="fill:none;stroke:#808080;stroke-width:0.19925;stroke-linecap:butt;stroke-linejoin:miter;stroke-miterlimit:10;stroke-dasharray:none;stroke-opacity:1"
       transform="matrix(1.3333333,0,0,-1.3333333,17.157333,189.108)" />
    <path
       id="path2"
       d="m 3.7864219,-0.6084375 v 1.78125 c 0,0.4570312 -0.1054688,0.4570312 -0.7734375,0.4570312 v 0.3046875 c 0.3398437,-0.011719 0.8554687,-0.035156 1.1132812,-0.035156 0.2695313,0 0.7734375,0.023437 1.125,0.035156 V 1.6298437 c -0.6679687,0 -0.7734375,0 -0.7734375,-0.4570312 v -5.578125 H 4.2551719 l -0.375,0.9140625 C 3.7512656,-3.7725 3.3411094,-4.4053125 2.5442344,-4.4053125 c -1.1601563,0 -2.20312503,0.9726562 -2.20312503,2.2617187 0,1.24218755 0.96093753,2.25000005 2.12109373,2.25000005 0.6914063,0 1.1015625,-0.421875 1.3242188,-0.71484375 z m 0.035156,-2.1445313 v 1.3945313 c 0,0.328125 -0.1875,0.59765625 -0.3984375,0.84375 -0.1289062,0.140625 -0.4570312,0.41015625 -0.9257812,0.41015625 -0.7265625,0 -1.3359375,-0.890625 -1.3359375,-2.03906255 0,-1.1835937 0.703125,-2.0039062 1.4414062,-2.0039062 0.796875,0 1.21875,0.8554687 1.21875,1.3945312 z m 2.5371094,-0.6679687 v 2.66015625 C 6.3586875,-0.30375 6.2415,-0.30375 5.5735312,-0.30375 V 9.375e-4 c 0.3515625,-0.01171875 0.8554688,-0.03515625 1.125,-0.03515625 0.2578125,0 0.7851563,0.0234375 1.1132813,0.03515625 V -0.30375 c -0.65625,0 -0.7734375,0 -0.7734375,-0.45703125 V -2.5889063 c 0,-1.03125 0.7148437,-1.59375 1.3476562,-1.59375 0.6210938,0 0.7382813,0.5390625 0.7382813,1.1015625 v 2.32031255 C 9.1243125,-0.30375 9.007125,-0.30375 8.350875,-0.30375 V 9.375e-4 c 0.3398437,-0.01171875 0.8554687,-0.03515625 1.125,-0.03515625 0.2578125,0 0.773437,0.0234375 1.113281,0.03515625 V -0.30375 c -0.6679685,0 -0.785156,0 -0.785156,-0.45703125 V -2.5889063 c 0,-1.03125 0.714844,-1.59375 1.347656,-1.59375 0.632813,0 0.738281,0.5390625 0.738281,1.1015625 v 2.32031255 C 11.889937,-0.30375 11.784469,-0.30375 11.1165,-0.30375 V 9.375e-4 c 0.351562,-0.01171875 0.855469,-0.03515625 1.125,-0.03515625 0.257812,0 0.773437,0.0234375 1.113281,0.03515625 V -0.30375 c -0.515625,0 -0.761719,0 -0.773437,-0.3046875 V -2.506875 c 0,-0.8554688 0,-1.171875 -0.316407,-1.5234375 -0.128906,-0.1757813 -0.46875,-0.375 -1.042968,-0.375 -0.832032,0 -1.277344,0.5976562 -1.4414065,0.984375 -0.140625,-0.8671875 -0.8789063,-0.984375 -1.3242188,-0.984375 -0.7265625,0 -1.1953125,0.4335937 -1.4765625,1.0546875 v -1.0546875 l -1.40625,0.1171875 v 0.3046875 c 0.703125,0 0.7851563,0.070312 0.7851561,0.5625 z m 10.9863287,2.87109375 v 0.65625 L 18.809859,9.375e-4 V -0.30375 c -0.703125,0 -0.773437,-0.0703125 -0.773437,-0.5625 v -6.046875 l -1.441406,0.1054687 V -6.49125 c 0.703125,0 0.785156,0.070312 0.785156,0.5507812 v 2.15625 C 17.087203,-4.1475 16.653609,-4.4053125 16.114547,-4.4053125 c -1.171875,0 -2.214844,0.984375 -2.214844,2.2617187 0,1.26562505 0.972656,2.25000005 2.109375,2.25000005 0.644531,0 1.089844,-0.33984375 1.335938,-0.65625 z m 0,-2.67187505 v 2.0507813 c 0,0.17578125 0,0.19921875 -0.105469,0.36328125 -0.304688,0.48046875 -0.75,0.703125 -1.183594,0.703125 -0.445312,0 -0.796875,-0.2578125 -1.042969,-0.64453125 -0.257812,-0.4101563 -0.292968,-0.9726563 -0.292968,-1.3828125 0,-0.3632813 0.02344,-0.9609375 0.316406,-1.4179688 0.210937,-0.3046875 0.585937,-0.6328125 1.125,-0.6328125 0.351562,0 0.761719,0.1523438 1.078125,0.5976563 0.105469,0.1640625 0.105469,0.1875 0.105469,0.3632812 z m 0,0"
       style="fill:#000000;fill-opacity:1;fill-rule:nonzero;stroke:none"
       aria-label="qmd"
       transform="matrix(1.3333333,0,0,1.3333333,4.428,109.28)" />
    <path
       id="path3"
       d="M 0,28.3468 V 56.69362 H 56.69362 V 28.3468 Z"
       style="fill:#fff200;fill-opacity:1;fill-rule:nonzero;stroke:#000000;stroke-width:0.79701;stroke-linecap:butt;stroke-linejoin:miter;stroke-miterlimit:10;stroke-dasharray:none;stroke-opacity:1"
       transform="matrix(1.3333333,0,0,-1.3333333,17.157333,189.108)" />
    <path
       id="path4"
       d="m 1.1007109,-0.76221094 c 0,0.45703125 -0.11718746,0.45703125 -0.78515621,0.45703125 V -4.921875e-4 C 0.66711719,-0.01221094 1.1710234,-0.03564844 1.4405547,-0.03564844 c 0.2578125,0 0.7851562,0.0234375 1.1132812,0.0351562525 V -0.30517969 c -0.65625,0 -0.7734375,0 -0.7734375,-0.45703125 V -2.5903359 c 0,-1.03125 0.7148438,-1.59375 1.3476563,-1.59375 0.6210937,0 0.7382812,0.5390625 0.7382812,1.1015625 v 2.32031246 c 0,0.45703125 -0.1171875,0.45703125 -0.7734375,0.45703125 v 0.3046875025 c 0.3398438,-0.0117187525 0.8554688,-0.0351562525 1.125,-0.0351562525 0.2578125,0 0.7734375,0.0234375 1.1132813,0.0351562525 V -0.30517969 c -0.515625,0 -0.7734375,0 -0.7851563,-0.3046875 V -2.5083047 c 0,-0.8554687 0,-1.171875 -0.3046875,-1.5234375 -0.140625,-0.1757812 -0.46875,-0.375 -1.0429687,-0.375 -0.84375,0 -1.2773438,0.5976563 -1.4414063,0.984375 v -3.4921875 l -1.44140621,0.1054688 v 0.3164062 c 0.70312501,0 0.78515621,0.070312 0.78515621,0.5507813 z M 6.9776641,-3.9848672 H 8.4073516 V -4.2895547 H 6.9776641 V -6.1293984 H 6.7315703 c -0.011719,0.8203125 -0.3164062,1.8867187 -1.2890625,1.921875 v 0.2226562 h 0.84375 v 2.7539063 c 0,1.21874996 0.9257813,1.33593746 1.2890625,1.33593746 0.703125,0 0.984375,-0.703125 0.984375,-1.33593746 V -1.8051797 H 8.3136016 v 0.5507813 c 0,0.73828121 -0.3046875,1.11328121 -0.6679688,1.11328121 -0.6679687,0 -0.6679687,-0.90234371 -0.6679687,-1.07812501 z m 3.2548829,0.5625 v 2.66015626 c 0,0.45703125 -0.117188,0.45703125 -0.7851564,0.45703125 V -4.921875e-4 C 9.7989531,-0.01221094 10.302859,-0.03564844 10.572391,-0.03564844 c 0.257812,0 0.785156,0.0234375 1.113281,0.0351562525 V -0.30517969 c -0.65625,0 -0.773438,0 -0.773438,-0.45703125 V -2.5903359 c 0,-1.03125 0.714844,-1.59375 1.347657,-1.59375 0.621093,0 0.738281,0.5390625 0.738281,1.1015625 v 2.32031246 c 0,0.45703125 -0.117188,0.45703125 -0.773438,0.45703125 v 0.3046875025 c 0.339844,-0.0117187525 0.855469,-0.0351562525 1.125,-0.0351562525 0.257813,0 0.773438,0.0234375 1.113282,0.0351562525 V -0.30517969 c -0.667969,0 -0.785157,0 -0.785157,-0.45703125 V -2.5903359 c 0,-1.03125 0.714844,-1.59375 1.347657,-1.59375 0.632812,0 0.738281,0.5390625 0.738281,1.1015625 v 2.32031246 c 0,0.45703125 -0.105469,0.45703125 -0.773438,0.45703125 v 0.3046875025 c 0.351563,-0.0117187525 0.855469,-0.0351562525 1.125,-0.0351562525 0.257813,0 0.773438,0.0234375 1.113282,0.0351562525 V -0.30517969 c -0.515625,0 -0.761719,0 -0.773438,-0.3046875 V -2.5083047 c 0,-0.8554687 0,-1.171875 -0.316406,-1.5234375 -0.128906,-0.1757812 -0.46875,-0.375 -1.042969,-0.375 -0.832031,0 -1.277344,0.5976563 -1.441406,0.984375 -0.140625,-0.8671875 -0.878906,-0.984375 -1.324219,-0.984375 -0.726562,0 -1.195312,0.4335938 -1.476562,1.0546875 v -1.0546875 l -1.4062504,0.1171875 v 0.3046875 c 0.7031254,0 0.7851564,0.070312 0.7851564,0.5625 z m 8.958984,-3.4921875 -1.429687,0.1054688 v 0.3164062 c 0.703125,0 0.773437,0.070312 0.773437,0.5507813 v 5.17968746 c 0,0.45703125 -0.105469,0.45703125 -0.773437,0.45703125 V -4.921875e-4 C 18.089969,-0.01221094 18.617312,-0.03564844 18.863406,-0.03564844 c 0.257813,0 0.738281,0.0234375 1.113281,0.0351562525 V -0.30517969 c -0.667968,0 -0.785156,0 -0.785156,-0.45703125 z m 6.410156,4.9804688 c 0.222657,0.035156 1.03125,0.1992187 1.03125,0.9140625 0,0.51562496 -0.351562,0.91406246 -1.125,0.91406246 -0.832031,0 -1.195312,-0.57421875 -1.382812,-1.41796876 -0.03516,-0.1289062 -0.03516,-0.1757812 -0.140625,-0.1757812 -0.128906,0 -0.128906,0.070312 -0.128906,0.2578125 v 1.31249996 c 0,0.1640625 0,0.234375 0.105468,0.234375 0.05859,0 0.07031,0 0.257813,-0.19921875 0.01172,-0.01171875 0.01172,-0.03515625 0.199219,-0.22265625 0.433593,0.421875 0.878906,0.421875 1.089843,0.421875 1.148438,0 1.605469,-0.66796875 1.605469,-1.38281246 0,-0.5273438 -0.292969,-0.8203125 -0.421875,-0.9492188 -0.328125,-0.3164062 -0.714844,-0.3984375 -1.136719,-0.46875 -0.550781,-0.1171875 -1.21875,-0.2460937 -1.21875,-0.8203125 0,-0.3515625 0.257813,-0.7617187 1.113282,-0.7617187 1.101562,0 1.148437,0.9023437 1.171875,1.2070312 0,0.09375 0.09375,0.09375 0.117187,0.09375 0.128906,0 0.128906,-0.046875 0.128906,-0.2460937 v -0.9960938 c 0,-0.1757812 0,-0.2460937 -0.117187,-0.2460937 -0.04687,0 -0.07031,0 -0.199219,0.1171875 -0.02344,0.046875 -0.128906,0.1289062 -0.164062,0.1640625 -0.375,-0.28125 -0.785157,-0.28125 -0.9375,-0.28125 -1.21875,0 -1.59375,0.6679687 -1.59375,1.2304687 0,0.3398438 0.164062,0.6210938 0.433593,0.84375 0.316407,0.2578125 0.597657,0.3164063 1.3125,0.4570313 z m 3.612305,-2.4726563 -1.394531,0.1171875 v 0.3046875 c 0.65625,0 0.738281,0.058594 0.738281,0.5507813 v 2.67187496 c 0,0.45703125 -0.105469,0.45703125 -0.773437,0.45703125 V -4.921875e-4 C 28.100711,-0.01221094 28.639773,-0.03564844 28.885867,-0.03564844 c 0.339844,0 0.691406,0.0234375 1.03125,0.0351562525 V -0.30517969 c -0.65625,0 -0.703125,-0.0585938 -0.703125,-0.4453125 z m 0.04687,-1.734375 c 0,-0.3164062 -0.246094,-0.5273437 -0.527344,-0.5273437 -0.316406,0 -0.527343,0.2695312 -0.527343,0.5273437 0,0.2695313 0.210937,0.5273438 0.527343,0.5273438 0.28125,0 0.527344,-0.1992188 0.527344,-0.5273438 z m 2.686524,2.15625 h 1.429687 v -0.3046875 h -1.429687 v -1.8398437 h -0.246094 c -0.01172,0.8203125 -0.316406,1.8867187 -1.289063,1.921875 v 0.2226562 h 0.84375 v 2.7539063 c 0,1.21874996 0.925782,1.33593746 1.289063,1.33593746 0.703125,0 0.984375,-0.703125 0.984375,-1.33593746 v -0.5742188 h -0.246094 v 0.5507813 c 0,0.73828121 -0.304687,1.11328121 -0.667969,1.11328121 -0.667968,0 -0.667968,-0.90234371 -0.667968,-1.07812501 z m 3.263671,1.4765625 c 0.05859,-1.4882812 0.902344,-1.734375 1.242188,-1.734375 1.019531,0 1.125,1.3476563 1.125,1.734375 z m -0.01172,0.2109375 h 2.789062 c 0.210938,0 0.246094,0 0.246094,-0.2109375 0,-0.984375 -0.539063,-1.9570312 -1.78125,-1.9570312 -1.160156,0 -2.074219,1.03125 -2.074219,2.2734375 0,1.33593746 1.042969,2.29687496 2.191406,2.29687496 1.21875,0 1.664063,-1.1015625 1.664063,-1.28906246 0,-0.1054688 -0.08203,-0.1171875 -0.128906,-0.1171875 -0.09375,0 -0.117188,0.058594 -0.128907,0.140625 -0.351562,1.01953121 -1.253906,1.01953121 -1.347656,1.01953121 -0.503906,0 -0.902344,-0.29296875 -1.125,-0.66796875 -0.30468,-0.48046876 -0.30468,-1.13671876 -0.30468,-1.48828126 z m 0,0"
       style="fill:#000000;fill-opacity:1;fill-rule:nonzero;stroke:none"
       aria-label="htmlsite"
       transform="matrix(1.3333333,0,0,1.3333333,29.270667,137.028)" />
    <path
       id="path5"
       d="M 3.7844922,-0.61075 V 1.1705 c 0,0.4570312 -0.1054688,0.4570312 -0.7734375,0.4570312 V 1.9322187 C 3.3508984,1.9205 3.8665234,1.8970625 4.1243359,1.8970625 c 0.2695313,0 0.7734375,0.023437 1.125,0.035156 V 1.6275312 c -0.6679687,0 -0.7734375,0 -0.7734375,-0.4570312 V -4.407625 H 4.2532422 l -0.375,0.9140625 C 3.7493359,-3.7748125 3.3391797,-4.407625 2.5423047,-4.407625 c -1.1601563,0 -2.20312501,0.9726562 -2.20312501,2.2617187 0,1.24218755 0.96093751,2.25000005 2.12109371,2.25000005 0.6914063,0 1.1015625,-0.421875 1.3242188,-0.71484375 z m 0.035156,-2.1445313 V -1.36075 c 0,0.328125 -0.1875,0.59765625 -0.3984375,0.84375 -0.1289062,0.140625 -0.4570312,0.41015625 -0.9257812,0.41015625 -0.7265625,0 -1.3359375,-0.890625 -1.3359375,-2.03906255 0,-1.1835937 0.703125,-2.0039062 1.4414062,-2.0039062 0.796875,0 1.21875,0.8554687 1.21875,1.3945312 z M 6.3596875,-3.42325 v 2.66015625 c 0,0.45703125 -0.1171875,0.45703125 -0.7851563,0.45703125 v 0.3046875 c 0.3515625,-0.01171875 0.8554688,-0.03515625 1.125,-0.03515625 0.2578125,0 0.7851563,0.0234375 1.1132813,0.03515625 v -0.3046875 c -0.65625,0 -0.7734375,0 -0.7734375,-0.45703125 V -2.5912188 c 0,-1.03125 0.7148437,-1.59375 1.3476562,-1.59375 0.6210938,0 0.7382813,0.5390625 0.7382813,1.1015625 v 2.32031255 c 0,0.45703125 -0.1171875,0.45703125 -0.7734375,0.45703125 v 0.3046875 c 0.3398437,-0.01171875 0.8554687,-0.03515625 1.125,-0.03515625 0.2578125,0 0.773437,0.0234375 1.113281,0.03515625 v -0.3046875 c -0.6679685,0 -0.785156,0 -0.785156,-0.45703125 V -2.5912188 c 0,-1.03125 0.714844,-1.59375 1.347656,-1.59375 0.632813,0 0.738281,0.5390625 0.738281,1.1015625 v 2.32031255 c 0,0.45703125 -0.105468,0.45703125 -0.773437,0.45703125 v 0.3046875 c 0.351562,-0.01171875 0.855469,-0.03515625 1.125,-0.03515625 0.257812,0 0.773437,0.0234375 1.113281,0.03515625 v -0.3046875 c -0.515625,0 -0.761719,0 -0.773437,-0.3046875 v -1.8984375 c 0,-0.8554688 0,-1.171875 -0.316407,-1.5234375 -0.128906,-0.1757813 -0.46875,-0.375 -1.042968,-0.375 -0.832032,0 -1.277344,0.5976562 -1.4414065,0.984375 -0.140625,-0.8671875 -0.8789063,-0.984375 -1.3242188,-0.984375 -0.7265625,0 -1.1953125,0.4335937 -1.4765625,1.0546875 V -4.407625 l -1.40625,0.1171875 V -3.98575 c 0.703125,0 0.7851563,0.070312 0.7851563,0.5625 z m 10.9863285,2.87109375 v 0.65625 L 18.810859,-0.001375 v -0.3046875 c -0.703125,0 -0.773437,-0.0703125 -0.773437,-0.5625 v -6.046875 l -1.441406,0.1054687 v 0.3164063 c 0.703125,0 0.785156,0.070312 0.785156,0.5507812 v 2.15625 c -0.292969,-0.3632812 -0.726563,-0.6210937 -1.265625,-0.6210937 -1.171875,0 -2.214844,0.984375 -2.214844,2.2617187 0,1.26562505 0.972656,2.25000005 2.109375,2.25000005 0.644531,0 1.089844,-0.33984375 1.335938,-0.65625 z m 0,-2.67187505 V -1.17325 c 0,0.17578125 0,0.19921875 -0.105469,0.36328125 -0.304688,0.48046875 -0.75,0.703125 -1.183594,0.703125 -0.445312,0 -0.796875,-0.2578125 -1.042969,-0.64453125 -0.257812,-0.4101563 -0.292968,-0.9726563 -0.292968,-1.3828125 0,-0.3632813 0.02344,-0.9609375 0.316406,-1.4179688 0.210937,-0.3046875 0.585937,-0.6328125 1.125,-0.6328125 0.351562,0 0.761719,0.1523438 1.078125,0.5976563 0.105469,0.1640625 0.105469,0.1875 0.105469,0.3632812 z m 0,0"
       style="fill:#000000;fill-opacity:1;fill-rule:nonzero;stroke:none"
       aria-label="qmd"
       transform="matrix(1.3333333,0,0,1.3333333,4.4266667,33.689333)" />
    <path
       id="path6"
       d="m 0,85.04042 v 28.34682 H 56.69362 V 85.04042 Z"
       style="fill:#fff200;fill-opacity:1;fill-rule:nonzero;stroke:#000000;stroke-width:0.79701;stroke-linecap:butt;stroke-linejoin:miter;stroke-miterlimit:10;stroke-dasharray:none;stroke-opacity:1"
       transform="matrix(1.3333333,0,0,-1.3333333,17.157333,189.108)" />
    <path
       id="path7"
       d="m 9.0579141,-5.8248203 c 0.1757812,-0.5742188 0.609375,-0.6679688 0.9960939,-0.6679688 v -0.3164062 c -0.3046877,0.023437 -0.6093752,0.035156 -0.9140627,0.035156 -0.28125,0 -0.9257812,-0.023437 -1.1835937,-0.035156 v 0.3164062 c 0.6679687,0.011719 0.8671875,0.3398438 0.8671875,0.5273438 0,0.058594 -0.023437,0.140625 -0.046875,0.1992187 l -1.5,4.6054688 -1.59375,-4.8867188 c 0,-0.035156 -0.023437,-0.09375 -0.023437,-0.1523437 0,-0.2929688 0.5742187,-0.2929688 0.8320312,-0.2929688 v -0.3164062 c -0.3515625,0.035156 -1.03125,0.035156 -1.40625,0.035156 -0.3867187,0 -0.8085937,-0.023437 -1.21875,-0.035156 v 0.3164062 c 0.5625,0 0.7734375,0 0.890625,0.3515625 l 0.2226563,0.703125 -1.3828125,4.2773438 -1.6054688,-4.9101563 c -0.011719,-0.023437 -0.023437,-0.09375 -0.023437,-0.1289062 0,-0.2929688 0.5859375,-0.2929688 0.84375,-0.2929688 v -0.3164062 c -0.3632812,0.035156 -1.0429687,0.035156 -1.4179687,0.035156 -0.375,0 -0.80859379,-0.023437 -1.21875004,-0.035156 v 0.3164062 c 0.75,0 0.78515625,0.046875 0.91406254,0.4101563 l 1.9921875,6.11718749 c 0.023437,0.08203125 0.058594,0.1875 0.1875,0.1875 0.140625,0 0.1523437,-0.0703125 0.1992187,-0.19921875 l 1.640625,-5.06250004 1.6523438,5.07421879 c 0.035156,0.08203125 0.058594,0.1875 0.1875,0.1875 0.140625,0 0.1640625,-0.0703125 0.1992187,-0.19921875 z m 1.4677739,3.3164062 c 0.05859,-1.4882812 0.902343,-1.734375 1.242187,-1.734375 1.019531,0 1.125,1.3476563 1.125,1.734375 z m -0.01172,0.2109375 h 2.789062 c 0.210938,0 0.246094,0 0.246094,-0.2109375 0,-0.984375 -0.539062,-1.9570312 -1.78125,-1.9570312 -1.160156,0 -2.0742187,1.03125 -2.0742187,2.2734375 0,1.33593749 1.0429687,2.29687499 2.1914067,2.29687499 1.21875,0 1.664062,-1.1015625 1.664062,-1.28906249 0,-0.1054688 -0.08203,-0.1171875 -0.128906,-0.1171875 -0.09375,0 -0.117188,0.058594 -0.128906,0.140625 -0.351563,1.01953124 -1.253907,1.01953124 -1.347657,1.01953124 -0.503906,0 -0.902343,-0.29296875 -1.125,-0.66796875 C 10.513969,-1.2896641 10.513969,-1.9459141 10.513969,-2.2974766 Z m 5.036133,-1.453125 v -3.1640625 l -1.429688,0.1054688 v 0.3164062 c 0.691406,0 0.773438,0.070312 0.773438,0.5507813 v 5.9414062375 h 0.246093 c 0.01172,-0.0117187475 0.09375,-0.1523437475 0.363282,-0.6210937475 0.152343,0.234375 0.5625,0.7265625 1.300781,0.7265625 1.183594,0 2.226562,-0.97265625 2.226562,-2.26171879 0,-1.265625 -0.972656,-2.25 -2.109375,-2.25 -0.785156,0 -1.207031,0.46875 -1.371093,0.65625 z m 0.03516,2.6132813 v -2.0507813 c 0,-0.1875 0,-0.1992187 0.105469,-0.3632812 0.386718,-0.5507813 0.9375,-0.6328125 1.171875,-0.6328125 0.457031,0 0.808593,0.2578125 1.054687,0.6328125 0.257813,0.4101562 0.28125,0.984375 0.28125,1.3945312 0,0.3632813 -0.01172,0.9609375 -0.304687,1.40625004 -0.210938,0.31640625 -0.585938,0.64453125 -1.125,0.64453125 -0.445313,0 -0.808594,-0.24609375 -1.042969,-0.609375 -0.140625,-0.2109375 -0.140625,-0.24609375 -0.140625,-0.42187499 z m 7.001953,0.97265624 C 22.048151,-0.36388281 20.93487,-1.0904453 20.93487,-3.3756016 c 0,-2.5898437 1.394531,-3.3984375 2.308594,-3.3984375 0.960937,0 2.320312,0.8554688 2.320312,3.3984375 0,0.7734375 -0.117187,2.1796875 -1.171875,2.95312504 -0.222656,-0.55078125 -0.539062,-1.05468754 -1.125,-1.05468754 -0.515625,0 -0.820312,0.4335938 -0.820312,0.84375004 0,0.26953125 0.128906,0.45703125 0.140625,0.46875 z m 1.535156,-0.09375 c -0.328125,0.1875 -0.65625,0.22265625 -0.867187,0.22265625 -0.515625,0 -0.585938,-0.45703125 -0.585938,-0.59765625 0,-0.29296875 0.199219,-0.62109374 0.597656,-0.62109374 0.527344,0 0.75,0.42187499 0.855469,0.99609374 z m 0.410156,0.1875 c 1.183594,-0.52734375 2.027344,-1.80468754 2.027344,-3.30468754 0,-2.0390625 -1.5,-3.6445312 -3.316406,-3.6445312 -1.78125,0 -3.304688,1.59375 -3.304688,3.6445312 0,2.015625 1.5,3.59765629 3.316407,3.59765629 0.304687,0 0.65625,-0.0585938 0.9375,-0.15234375 0.152343,0.94921876 0.292968,1.86328126 1.21875,1.86328126 1.019531,0 1.207031,-1.32421876 1.207031,-1.82812501 0,-0.1054687525 0,-0.2109375 -0.105469,-0.2109375 -0.09375,0 -0.105469,0.0703125 -0.117187,0.17578125 -0.05859,0.5390625 -0.480469,0.83203125 -0.902344,0.83203125 -0.46875,0 -0.714844,-0.33984375 -0.960938,-0.97265625 z m 0,0"
       style="fill:#000000;fill-opacity:1;fill-rule:nonzero;stroke:none"
       aria-label="WebQ"
       transform="matrix(1.3333333,0,0,1.3333333,36.872,60.145333)" />
    <path
       id="path8"
       d="m 113.38724,28.3468 v 28.34682 h 56.69362 V 28.3468 Z"
       style="fill:#cceffc;fill-opacity:1;fill-rule:nonzero;stroke:#000000;stroke-width:0.79701;stroke-linecap:butt;stroke-linejoin:miter;stroke-miterlimit:10;stroke-dasharray:none;stroke-opacity:1"
       transform="matrix(1.3333333,0,0,-1.3333333,17.157333,189.108)" />
    <path
       id="path9"
       d="m 198.42766,85.04042 v 28.34682 h 56.69362 V 85.04042 Z"
       style="fill:#ffd9b3;fill-opacity:1;fill-rule:nonzero;stroke:#000000;stroke-width:0.79701;stroke-linecap:butt;stroke-linejoin:miter;stroke-miterlimit:10;stroke-dasharray:none;stroke-opacity:1"
       transform="matrix(1.3333333,0,0,-1.3333333,17.157333,189.108)" />
  </g>
</svg>
