<?xml version="1.0" encoding="UTF-8" standalone="no"?>
<!-- Created with Inkscape (http://www.inkscape.org/) -->

<svg
   version="1.1"
   id="svg1"
   width="81.65625"
   height="45.398438"
   viewBox="0 0 81.65625 45.398437"
   xmlns="http://www.w3.org/2000/svg"
   xmlns:svg="http://www.w3.org/2000/svg">
  <defs
     id="defs1" />
  <g
     id="g1"
     transform="translate(-4.9921875,-4.433594)">
    <path
       id="path1"
       d="m 3.3176719,-0.76189063 c 0.035156,0.3984375 0.3046875,0.8203125 0.7734375,0.8203125 0.2109375,0 0.8203125,-0.140625 0.8203125,-0.94921875 V -1.4415781 H 4.6653281 v 0.55078122 c 0,0.5859375 -0.2460937,0.64453125 -0.3632812,0.64453125 -0.328125,0 -0.3632813,-0.45703125 -0.3632813,-0.50390625 V -2.7423594 c 0,-0.4101562 0,-0.8085937 -0.3632812,-1.171875 -0.3867188,-0.3867187 -0.8789063,-0.5507812 -1.359375,-0.5507812 -0.8203125,0 -1.51171877,0.46875 -1.51171877,1.125 0,0.3046875 0.19921875,0.46875 0.45703127,0.46875 0.28125,0 0.46875,-0.1992188 0.46875,-0.4570313 0,-0.1171875 -0.058594,-0.4453125 -0.515625,-0.4570312 0.2695312,-0.3515625 0.7617187,-0.4570313 1.078125,-0.4570313 0.4921875,0 1.0546875,0.3867188 1.0546875,1.2773438 v 0.3632812 c -0.5039063,0.035156 -1.2070313,0.058594 -1.828125,0.3632813 -0.75000002,0.3398437 -0.99609377,0.8554687 -0.99609377,1.28906247 0,0.80859375 0.96093747,1.0546875 1.59374997,1.0546875 0.65625,0 1.1132813,-0.3984375 1.3007813,-0.8671875 z M 3.2473594,-2.3907969 v 0.9960938 c 0,0.94921872 -0.7148438,1.28906247 -1.1601563,1.28906247 -0.4921875,0 -0.9023437,-0.3515625 -0.9023437,-0.85546875 0,-0.53906252 0.421875,-1.37109372 2.0625,-1.42968752 z m 0,0"
       style="fill:#000000;fill-opacity:1;fill-rule:nonzero;stroke:none"
       aria-label="a"
       transform="matrix(1.3333333,0,0,1.3333333,4.428,11.898667)" />
    <path
       id="path2"
       d="m 1.7096094,-3.7497422 v -3.1640625 l -1.42968753,0.1054688 v 0.3164062 c 0.69140625,0 0.77343753,0.070312 0.77343753,0.5507813 V 2.578125e-4 H 1.2994531 C 1.3111719,-0.01146094 1.3932031,-0.15208594 1.6627344,-0.62083594 c 0.1523437,0.234375 0.5625,0.7265625 1.3007812,0.7265625 1.1835938,0 2.2265625,-0.97265625 2.2265625,-2.26171876 0,-1.265625 -0.9726562,-2.25 -2.109375,-2.25 -0.7851562,0 -1.2070312,0.46875 -1.3710937,0.65625 z m 0.035156,2.6132813 v -2.0507813 c 0,-0.1875 0,-0.1992187 0.1054688,-0.3632812 0.3867187,-0.5507813 0.9375,-0.6328125 1.171875,-0.6328125 0.4570312,0 0.8085937,0.2578125 1.0546875,0.6328125 0.2578125,0.4101562 0.28125,0.984375 0.28125,1.3945312 0,0.3632813 -0.011719,0.9609375 -0.3046875,1.40625001 -0.2109375,0.31640625 -0.5859375,0.64453125 -1.125,0.64453125 -0.4453125,0 -0.8085938,-0.24609375 -1.0429688,-0.609375 -0.140625,-0.2109375 -0.140625,-0.24609375 -0.140625,-0.42187496 z m 0,0"
       style="fill:#000000;fill-opacity:1;fill-rule:nonzero;stroke:none"
       aria-label="b"
       transform="matrix(1.3333333,0,0,1.3333333,41.853333,13.652)" />
    <path
       id="path3"
       d="m 1.1614688,-2.1694141 c 0,-1.6289062 0.8203125,-2.0507812 1.3476562,-2.0507812 0.09375,0 0.7148438,0.011719 1.0664063,0.375 -0.4101563,0.023437 -0.46875,0.328125 -0.46875,0.4570312 0,0.2578125 0.1875,0.4570313 0.4570312,0.4570313 0.2578125,0 0.4570313,-0.1640625 0.4570313,-0.46875 0,-0.6796875 -0.75,-1.0664063 -1.5234375,-1.0664063 -1.2421875,0 -2.15625005,1.078125 -2.15625005,2.3085938 0,1.27734374 0.98437505,2.26171874 2.14453125,2.26171874 1.3359375,0 1.6523438,-1.19531254 1.6523438,-1.28906254 0,-0.1054687 -0.1054688,-0.1054687 -0.1289063,-0.1054687 -0.09375,0 -0.1171875,0.046875 -0.1289062,0.1054687 -0.2929688,0.92578129 -0.9375,1.04296879 -1.3125,1.04296879 -0.5273438,0 -1.40625,-0.421875 -1.40625,-2.02734379 z m 0,0"
       style="fill:#000000;fill-opacity:1;fill-rule:nonzero;stroke:none"
       aria-label="c"
       transform="matrix(1.3333333,0,0,1.3333333,42.592,49.693333)" />
    <path
       id="path4"
       d="M 6.0105,0 H 21.60126"
       style="fill:none;stroke:#000000;stroke-width:0.3985;stroke-linecap:butt;stroke-linejoin:miter;stroke-miterlimit:10;stroke-dasharray:none;stroke-opacity:1"
       transform="matrix(1.3333333,0,0,-1.3333333,7.748,9.0386667)" />
    <path
       id="path5"
       d="M -1.19551,1.59401 C -1.09587,0.99626 0,0.09961 0.29886,0 0,-0.09961 -1.09587,-0.99626 -1.19551,-1.59401"
       style="fill:none;stroke:#000000;stroke-width:0.31879;stroke-linecap:round;stroke-linejoin:round;stroke-miterlimit:10;stroke-dasharray:none;stroke-opacity:1"
       transform="matrix(1.3333333,0,0,-1.3333333,36.54968,9.0386667)" />
    <path
       id="path6"
       d="M 5.6636,-5.66457 22.35904,-22.35822"
       style="fill:none;stroke:#000000;stroke-width:0.3985;stroke-linecap:butt;stroke-linejoin:miter;stroke-miterlimit:10;stroke-dasharray:none;stroke-opacity:1"
       transform="matrix(1.3333333,0,0,-1.3333333,7.748,9.0386667)" />
    <path
       id="path7"
       d="M -1.19551,1.59401 C -1.09587,0.99626 0,0.09961 0.29886,0 0,-0.09961 -1.09587,-0.99626 -1.19551,-1.59401"
       style="fill:none;stroke:#000000;stroke-width:0.31879;stroke-linecap:round;stroke-linejoin:round;stroke-miterlimit:10;stroke-dasharray:none;stroke-opacity:1"
       transform="matrix(0.94285333,0.94273333,0.94273333,-0.94285333,37.560027,38.8496)" />
    <path
       id="path8"
       d="m 3.7844844,-0.55052344 v 0.65625 L 5.2493281,2.578125e-4 V -0.30442969 c -0.703125,0 -0.7734375,-0.0703125 -0.7734375,-0.5625 V -6.9138047 l -1.4414062,0.1054688 v 0.3164062 c 0.703125,0 0.7851562,0.070312 0.7851562,0.5507813 v 2.15625 c -0.2929687,-0.3632813 -0.7265625,-0.6210938 -1.265625,-0.6210938 -1.171875,0 -2.21484372,0.984375 -2.21484372,2.2617188 0,1.26562496 0.97265622,2.24999996 2.10937502,2.24999996 0.6445312,0 1.0898437,-0.33984375 1.3359375,-0.65625 z m 0,-2.67187496 v 2.0507812 c 0,0.17578126 0,0.19921876 -0.1054688,0.36328126 -0.3046875,0.48046875 -0.75,0.703125 -1.1835937,0.703125 -0.4453125,0 -0.796875,-0.2578125 -1.0429688,-0.64453125 C 1.1946406,-1.1598984 1.1594844,-1.7223984 1.1594844,-2.1325547 c 0,-0.3632812 0.023437,-0.9609375 0.3164062,-1.4179687 0.2109375,-0.3046875 0.5859375,-0.6328125 1.125,-0.6328125 0.3515625,0 0.7617188,0.1523437 1.078125,0.5976562 0.1054688,0.1640625 0.1054688,0.1875 0.1054688,0.3632813 z m 0,0"
       style="fill:#000000;fill-opacity:1;fill-rule:nonzero;stroke:none"
       aria-label="d"
       transform="matrix(1.3333333,0,0,1.3333333,79.649333,13.652)" />
    <path
       id="path9"
       d="M 34.63406,0 H 49.94807"
       style="fill:none;stroke:#000000;stroke-width:0.3985;stroke-linecap:butt;stroke-linejoin:miter;stroke-miterlimit:10;stroke-dasharray:none;stroke-opacity:1"
       transform="matrix(1.3333333,0,0,-1.3333333,7.748,9.0386667)" />
    <path
       id="path10"
       d="M -1.19551,1.59401 C -1.09587,0.99626 0,0.09961 0.29886,0 0,-0.09961 -1.09587,-0.99626 -1.19551,-1.59401"
       style="fill:none;stroke:#000000;stroke-width:0.31879;stroke-linecap:round;stroke-linejoin:round;stroke-miterlimit:10;stroke-dasharray:none;stroke-opacity:1"
       transform="matrix(1.3333333,0,0,-1.3333333,74.345427,9.0386667)" />
    <path
       id="path11"
       d="M 34.00981,-22.68222 50.0823,-6.61032"
       style="fill:none;stroke:#000000;stroke-width:0.3985;stroke-linecap:butt;stroke-linejoin:miter;stroke-miterlimit:10;stroke-dasharray:none;stroke-opacity:1"
       transform="matrix(1.3333333,0,0,-1.3333333,7.748,9.0386667)" />
    <path
       id="path12"
       d="M -1.19551,1.59401 C -1.09587,0.99626 0,0.09961 0.29886,0 0,-0.09961 -1.09587,-0.99626 -1.19551,-1.59401"
       style="fill:none;stroke:#000000;stroke-width:0.31879;stroke-linecap:round;stroke-linejoin:round;stroke-miterlimit:10;stroke-dasharray:none;stroke-opacity:1"
       transform="matrix(0.9428,-0.94277333,-0.94277333,-0.9428,74.5244,17.852427)" />
  </g>
</svg>
