<?xml version="1.0" encoding="UTF-8" standalone="no"?>
<!-- Created with Inkscape (http://www.inkscape.org/) -->

<svg
   version="1.1"
   id="svg1"
   width="378.60834"
   height="189.23111"
   viewBox="0 0 378.60834 189.23111"
   xmlns="http://www.w3.org/2000/svg"
   xmlns:svg="http://www.w3.org/2000/svg">
  <defs
     id="defs1" />
  <g
     id="g1"
     transform="translate(6.7331973e-4,-0.00971806)">
    <path
       id="path1"
       d="M 0,0 H 283.4681 M 0,28.3468 H 283.4681 M 0,56.69362 H 283.4681 M 0,85.04042 H 283.4681 M 0,113.38724 H 283.4681 M 0,141.72409 H 283.4681 M 0,0 V 141.73404 M 28.3468,0 V 141.73404 M 56.69362,0 V 141.73404 M 85.04042,0 V 141.73404 M 113.38724,0 V 141.73404 M 141.73404,0 V 141.73404 M 170.08086,0 V 141.73404 M 198.42766,0 V 141.73404 M 226.77448,0 V 141.73404 M 255.12128,0 V 141.73404 M 283.45813,0 v 141.73404"
       style="fill:none;stroke:#808080;stroke-width:0.19925;stroke-linecap:butt;stroke-linejoin:miter;stroke-miterlimit:10;stroke-dasharray:none;stroke-opacity:1"
       transform="matrix(1.3333333,0,0,-1.3333333,0.53066667,189.108)" />
    <path
       id="path2"
       d="M 3.7863984,-0.60849219 V 1.1727578 c 0,0.4570313 -0.1054687,0.4570313 -0.7734375,0.4570313 v 0.3046875 c 0.3398438,-0.011719 0.8554688,-0.035156 1.1132813,-0.035156 0.2695312,0 0.7734375,0.023437 1.125,0.035156 V 1.6297891 c -0.6679688,0 -0.7734375,0 -0.7734375,-0.4570313 v -5.578125 H 4.2551484 l -0.375,0.9140625 c -0.1289062,-0.28125 -0.5390625,-0.9140625 -1.3359375,-0.9140625 -1.1601562,0 -2.20312496,0.9726563 -2.20312496,2.2617188 0,1.24218746 0.96093746,2.24999996 2.12109376,2.24999996 0.6914062,0 1.1015625,-0.421875 1.3242187,-0.71484375 z m 0.035156,-2.14453121 v 1.3945312 c 0,0.328125 -0.1875,0.59765626 -0.3984375,0.84375001 -0.1289063,0.140625 -0.4570313,0.41015625 -0.9257813,0.41015625 -0.7265625,0 -1.3359375,-0.890625 -1.3359375,-2.03906246 0,-1.1835938 0.703125,-2.0039063 1.4414063,-2.0039063 0.796875,0 1.21875,0.8554688 1.21875,1.3945313 z m 2.5371094,-0.6679688 v 2.66015626 c 0,0.45703125 -0.1171875,0.45703125 -0.7851563,0.45703125 V 8.828125e-4 C 5.92507,-0.01083594 6.4289763,-0.03427344 6.6985075,-0.03427344 c 0.2578125,0 0.7851563,0.0234375 1.1132813,0.0351562525 V -0.30380469 c -0.65625,0 -0.7734375,0 -0.7734375,-0.45703125 V -2.5889609 c 0,-1.03125 0.7148437,-1.59375 1.3476562,-1.59375 0.6210938,0 0.7382813,0.5390625 0.7382813,1.1015625 v 2.32031246 c 0,0.45703125 -0.1171875,0.45703125 -0.7734375,0.45703125 V 8.828125e-4 C 8.690695,-0.01083594 9.20632,-0.03427344 9.4758513,-0.03427344 c 0.2578125,0 0.7734377,0.0234375 1.1132817,0.0351562525 V -0.30380469 c -0.6679692,0 -0.7851567,0 -0.7851567,-0.45703125 V -2.5889609 c 0,-1.03125 0.7148437,-1.59375 1.3476567,-1.59375 0.632812,0 0.738281,0.5390625 0.738281,1.1015625 v 2.32031246 c 0,0.45703125 -0.105469,0.45703125 -0.773437,0.45703125 V 8.828125e-4 c 0.351562,-0.0117187525 0.855468,-0.0351562525 1.125,-0.0351562525 0.257812,0 0.773437,0.0234375 1.113281,0.0351562525 V -0.30380469 c -0.515625,0 -0.761719,0 -0.773438,-0.3046875 V -2.5069297 c 0,-0.8554687 0,-1.171875 -0.316406,-1.5234375 -0.128906,-0.1757812 -0.46875,-0.375 -1.042969,-0.375 -0.832031,0 -1.2773437,0.5976563 -1.4414062,0.984375 -0.140625,-0.8671875 -0.8789063,-0.984375 -1.3242188,-0.984375 -0.7265625,0 -1.1953125,0.4335938 -1.4765625,1.0546875 v -1.0546875 l -1.40625,0.1171875 v 0.3046875 c 0.703125,0 0.7851563,0.070312 0.7851563,0.5625 z m 10.9863282,2.87109376 v 0.65625 L 18.809836,8.828125e-4 V -0.30380469 c -0.703125,0 -0.773438,-0.0703125 -0.773438,-0.5625 V -6.9131797 l -1.441406,0.1054688 v 0.3164062 c 0.703125,0 0.785156,0.070312 0.785156,0.5507813 v 2.15625 c -0.292968,-0.3632813 -0.726562,-0.6210938 -1.265625,-0.6210938 -1.171875,0 -2.214843,0.984375 -2.214843,2.2617188 0,1.26562496 0.972656,2.24999996 2.109375,2.24999996 0.644531,0 1.089843,-0.33984375 1.335937,-0.65625 z m 0,-2.67187496 v 2.0507812 c 0,0.17578126 0,0.19921876 -0.105469,0.36328126 -0.304687,0.48046875 -0.75,0.703125 -1.183593,0.703125 -0.445313,0 -0.796875,-0.2578125 -1.042969,-0.64453125 -0.257813,-0.41015621 -0.292969,-0.97265621 -0.292969,-1.38281251 0,-0.3632812 0.02344,-0.9609375 0.316406,-1.4179687 0.210938,-0.3046875 0.585938,-0.6328125 1.125,-0.6328125 0.351563,0 0.761719,0.1523437 1.078125,0.5976562 0.105469,0.1640625 0.105469,0.1875 0.105469,0.3632813 z m 0,0"
       style="fill:#000000;fill-opacity:1;fill-rule:nonzero;stroke:none"
       aria-label="qmd"
       transform="matrix(1.3333333,0,0,1.3333333,25.596,116.83867)" />
    <path
       id="path3"
       d="m 0,85.04042 v 28.34682 H 56.69362 V 85.04042 Z"
       style="fill:#fff200;fill-opacity:1;fill-rule:nonzero;stroke:#000000;stroke-width:0.79701;stroke-linecap:butt;stroke-linejoin:miter;stroke-miterlimit:10;stroke-dasharray:none;stroke-opacity:1"
       transform="matrix(1.3333333,0,0,-1.3333333,0.53066667,189.108)" />
    <path
       id="path4"
       d="M 0,28.3468 V 56.69362 H 56.69362 V 28.3468 Z"
       style="fill:#fff200;fill-opacity:1;fill-rule:nonzero;stroke:#000000;stroke-width:0.79701;stroke-linecap:butt;stroke-linejoin:miter;stroke-miterlimit:10;stroke-dasharray:none;stroke-opacity:1"
       transform="matrix(1.3333333,0,0,-1.3333333,0.53066667,189.108)" />
    <path
       id="path5"
       d="m 113.38724,28.3468 v 28.34682 h 56.69362 V 28.3468 Z"
       style="fill:#b3e6fa;fill-opacity:1;fill-rule:nonzero;stroke:#000000;stroke-width:0.79701;stroke-linecap:butt;stroke-linejoin:miter;stroke-miterlimit:10;stroke-dasharray:none;stroke-opacity:1"
       transform="matrix(1.3333333,0,0,-1.3333333,0.53066667,189.108)" />
    <path
       id="path6"
       d="m 198.42766,85.04042 v 28.34682 h 56.69362 V 85.04042 Z"
       style="fill:#ffd9b3;fill-opacity:1;fill-rule:nonzero;stroke:#000000;stroke-width:0.79701;stroke-linecap:butt;stroke-linejoin:miter;stroke-miterlimit:10;stroke-dasharray:none;stroke-opacity:1"
       transform="matrix(1.3333333,0,0,-1.3333333,0.53066667,189.108)" />
  </g>
</svg>
