<?xml version="1.0" encoding="UTF-8" standalone="no"?>
<!-- Created with Inkscape (http://www.inkscape.org/) -->

<svg
   version="1.1"
   id="svg1"
   width="160.05469"
   height="94.339844"
   viewBox="0 0 160.05469 94.339845"
   xmlns="http://www.w3.org/2000/svg"
   xmlns:svg="http://www.w3.org/2000/svg">
  <defs
     id="defs1" />
  <g
     id="g1"
     transform="translate(-4.8515625,-4.433594)">
    <path
       id="path1"
       d="m 3.9622031,-6.9383906 c -0.046875,-0.1289063 -0.070312,-0.1992188 -0.2226562,-0.1992188 -0.1640625,0 -0.1875,0.058594 -0.2460938,0.1992188 l -2.0625,5.96484372 c -0.1757812,0.50390625 -0.57421872,0.65625 -1.11328122,0.66796875 v 0.304687505 c 0.234375,-0.011718755 0.65625,-0.035156255 1.01953122,-0.035156255 0.3046875,0 0.8203125,0.0234375 1.1484375,0.035156255 V -0.30557813 c -0.5039062,0 -0.75,-0.2578125 -0.75,-0.515625 0,-0.0234375 0.011719,-0.12890625 0.023437,-0.140625 L 2.2161094,-2.2743281 h 2.4609375 l 0.5273437,1.52343747 c 0.011719,0.046875 0.023437,0.10546875 0.023437,0.140625 0,0.3046875 -0.5507812,0.3046875 -0.8203125,0.3046875 v 0.304687505 c 0.351563,-0.035156255 1.054688,-0.035156255 1.429688,-0.035156255 0.4335938,0 0.890625,0.01171875 1.3007813,0.035156255 V -0.30557813 H 6.9622031 c -0.5976562,0 -0.7382812,-0.0703125 -0.84375,-0.3984375 z m -0.5273437,1.125 1.125,3.234375 H 2.3215781 Z m 0,0"
       style="fill:#000000;fill-opacity:1;fill-rule:nonzero;stroke:none"
       aria-label="A"
       transform="matrix(1.3333333,0,0,1.3333333,4.428,22.884)" />
    <path
       id="path2"
       d="m 2.2135703,-3.6454219 v -2.4492187 c 0,-0.328125 0.011719,-0.3984375 0.4804688,-0.3984375 h 1.2421875 c 0.9609375,0 1.3125,0.84375 1.3125,1.3710937 0,0.6328125 -0.4921875,1.4765625 -1.59375,1.4765625 z m 2.34375,0.09375 c 0.9726563,-0.1992187 1.6523438,-0.8320312 1.6523438,-1.5703125 0,-0.8671875 -0.9140625,-1.6875 -2.203125,-1.6875 H 0.36200781 v 0.3164063 h 0.234375 c 0.76171879,0 0.78515629,0.1054687 0.78515629,0.46875 v 5.24999997 c 0,0.3515625 -0.023437,0.46875 -0.78515629,0.46875 h -0.234375 V -8.90625e-4 H 4.2643516 c 1.3242187,0 2.2148437,-0.890625005 2.2148437,-1.828124975 0,-0.8671875 -0.8085937,-1.6054688 -1.921875,-1.7226563 z m -0.609375,3.24609377 H 2.6940391 c -0.46875,0 -0.4804688,-0.0703125 -0.4804688,-0.3984375 V -3.4227656 h 1.875 c 0.984375,0 1.3945313,0.9257812 1.3945313,1.59375 0,0.703125 -0.515625,1.52343747 -1.5351563,1.52343747 z m 0,0"
       style="fill:#000000;fill-opacity:1;fill-rule:nonzero;stroke:none"
       aria-label="B"
       transform="matrix(1.3333333,0,0,1.3333333,80.294667,22.884)" />
    <path
       id="path3"
       d="m 0.35128125,-6.8094844 v 0.3164063 h 0.234375 c 0.77343745,0 0.78515625,0.1054687 0.78515625,0.46875 v 5.24999997 c 0,0.3515625 -0.011719,0.46875 -0.78515625,0.46875 h -0.234375 V -8.90625e-4 H 3.9958125 c 1.6757812,0 3.046875,-1.476562475 3.046875,-3.351562475 0,-1.8867188 -1.3476563,-3.4570313 -3.046875,-3.4570313 z m 2.36718745,6.50390627 c -0.46875,0 -0.4921875,-0.0703125 -0.4921875,-0.3984375 V -6.0946406 c 0,-0.328125 0.023437,-0.3984375 0.4921875,-0.3984375 h 0.9960938 c 0.6210937,0 1.3007812,0.2109375 1.8164062,0.9257812 0.421875,0.5859375 0.515625,1.4414063 0.515625,2.2148438 0,1.1132812 -0.1875,1.7109375 -0.5507812,2.1914062 -0.1992188,0.26953127 -0.7617188,0.85546877 -1.7695313,0.85546877 z m 0,0"
       style="fill:#000000;fill-opacity:1;fill-rule:nonzero;stroke:none"
       aria-label="D"
       transform="matrix(1.3333333,0,0,1.3333333,155.516,22.884)" />
    <path
       id="path4"
       d="m 0.56284375,-3.4087344 c 0,2.0625 1.60546875,3.63281253 3.45703125,3.63281253 1.6289062,0 2.6015625,-1.38281253 2.6015625,-2.54296873 0,-0.1054688 0,-0.1757813 -0.1289063,-0.1757813 -0.1054687,0 -0.1054687,0.070312 -0.1171875,0.1640625 -0.082031,1.42968753 -1.1484375,2.23828128 -2.2265625,2.23828128 -0.609375,0 -2.5664062,-0.33984375 -2.5664062,-3.30468748 0,-2.9765625 1.9453125,-3.3164063 2.5546875,-3.3164063 1.078125,0 1.96875,0.9023438 2.1679687,2.3671875 0.023437,0.1289063 0.023437,0.1640625 0.1640625,0.1640625 0.1523438,0 0.1523438,-0.035156 0.1523438,-0.234375 v -2.3671875 c 0,-0.1640625 0,-0.234375 -0.1054688,-0.234375 -0.035156,0 -0.082031,0 -0.1640625,0.1171875 l -0.4921875,0.7382813 c -0.375,-0.3632813 -0.8789062,-0.8554688 -1.8398437,-0.8554688 -1.8632813,0 -3.45703125,1.5820313 -3.45703125,3.609375 z m 0,0"
       style="fill:#000000;fill-opacity:1;fill-rule:nonzero;stroke:none"
       aria-label="C"
       transform="matrix(1.3333333,0,0,1.3333333,80.202667,98.474667)" />
    <path
       id="path5"
       d="M 7.25584,0 H 49.18703"
       style="fill:none;stroke:#000000;stroke-width:0.3985;stroke-linecap:butt;stroke-linejoin:miter;stroke-miterlimit:10;stroke-dasharray:none;stroke-opacity:1"
       transform="matrix(1.3333333,0,0,-1.3333333,9.4093333,18.345333)" />
    <path
       id="path6"
       d="M -1.19551,1.59401 C -1.09587,0.99626 0,0.09961 0.29886,0 0,-0.09961 -1.09587,-0.99626 -1.19551,-1.59401"
       style="fill:none;stroke:#000000;stroke-width:0.31879;stroke-linecap:round;stroke-linejoin:round;stroke-miterlimit:10;stroke-dasharray:none;stroke-opacity:1"
       transform="matrix(1.3333333,0,0,-1.3333333,74.99204,18.345333)" />
    <path
       id="path7"
       d="m 1.5226172,-5.8708359 c 0,-0.5976563 -0.234375,-1.0429688 -0.66796876,-1.0429688 -0.3515625,0 -0.52734375,0.2695313 -0.52734375,0.5273438 0,0.2578125 0.17578125,0.5273437 0.52734375,0.5273437 0.19921876,0 0.33984376,-0.09375 0.39843746,-0.1523437 0.011719,-0.023437 0.023437,-0.035156 0.035156,-0.035156 0.011719,0 0.011719,0.140625 0.011719,0.1757813 0,0.328125 -0.070312,1.0429687 -0.69140621,1.6523437 -0.1171875,0.1289063 -0.1171875,0.140625 -0.1171875,0.1757813 0,0.070313 0.046875,0.1054687 0.09375,0.1054687 0.1171875,0 0.93750001,-0.75 0.93750001,-1.933594 z m 1.9335937,0 c 0,-0.5976563 -0.234375,-1.0429688 -0.6679687,-1.0429688 -0.3515625,0 -0.5273438,0.2695313 -0.5273438,0.5273438 0,0.2578125 0.1640625,0.5273437 0.5273438,0.5273437 0.1992187,0 0.3398437,-0.09375 0.3984375,-0.1523437 0.011719,-0.023437 0.023437,-0.035156 0.035156,-0.035156 0.011719,0 0.011719,0.140625 0.011719,0.1757813 0,0.328125 -0.070312,1.0429687 -0.6914063,1.6523437 -0.1171875,0.1289063 -0.1171875,0.140625 -0.1171875,0.1757813 0,0.070313 0.046875,0.1054687 0.09375,0.1054687 0.1054688,0 0.9375,-0.75 0.9375,-1.933594 z m 4.4560547,-0.5039063 c 0,-0.234375 0,-0.2578125 -0.234375,-0.2578125 -0.609375,0.6328125 -1.4882812,0.6328125 -1.8046875,0.6328125 v 0.3164063 c 0.1992188,0 0.7851563,0 1.3007813,-0.2578125 v 5.15624996 c 0,0.3515625 -0.035156,0.48046875 -0.9257813,0.48046875 H 5.9317969 V 2.578125e-4 C 6.2833594,-0.03489844 7.1388281,-0.03489844 7.5372656,-0.03489844 c 0.3984375,0 1.265625,0 1.6171875,0.0351562525 V -0.30442969 H 8.8380469 c -0.9023438,0 -0.9257813,-0.1171875 -0.9257813,-0.48046875 z m 3.5742184,0.5039063 c 0,-0.5976563 -0.234375,-1.0429688 -0.667968,-1.0429688 -0.351563,0 -0.527344,0.2695313 -0.527344,0.5273438 0,0.2578125 0.175781,0.5273437 0.527344,0.5273437 0.199218,0 0.339843,-0.09375 0.398437,-0.1523437 0.01172,-0.023437 0.02344,-0.035156 0.03516,-0.035156 0.01172,0 0.01172,0.140625 0.01172,0.1757813 0,0.328125 -0.07031,1.0429687 -0.691406,1.6523437 -0.117188,0.1289063 -0.117188,0.140625 -0.117188,0.1757813 0,0.070313 0.04687,0.1054687 0.09375,0.1054687 0.117188,0 0.9375,-0.75 0.9375,-1.9335937 z m 1.933594,0 c 0,-0.5976563 -0.234375,-1.0429688 -0.667969,-1.0429688 -0.351562,0 -0.527343,0.2695313 -0.527343,0.5273438 0,0.2578125 0.164062,0.5273437 0.527343,0.5273437 0.199219,0 0.339844,-0.09375 0.398438,-0.1523437 0.01172,-0.023437 0.02344,-0.035156 0.03516,-0.035156 0.01172,0 0.01172,0.140625 0.01172,0.1757813 0,0.328125 -0.07031,1.0429687 -0.691406,1.6523437 -0.117188,0.1289063 -0.117188,0.140625 -0.117188,0.1757813 0,0.070313 0.04687,0.1054687 0.09375,0.1054687 0.105469,0 0.9375,-0.75 0.9375,-1.9335937 z m 0,0"
       style="fill:#000000;fill-opacity:1;fill-rule:nonzero;stroke:none"
       aria-label="”1”"
       transform="matrix(1.3333333,0,0,1.3333333,37.38,13.652)" />
  </g>
</svg>
