<?xml version="1.0" encoding="UTF-8" standalone="no"?>
<!-- Created with Inkscape (http://www.inkscape.org/) -->

<svg
   version="1.1"
   id="svg1"
   width="436.82053"
   height="29.238281"
   viewBox="0 0 436.82053 29.238281"
   xmlns="http://www.w3.org/2000/svg"
   xmlns:svg="http://www.w3.org/2000/svg">
  <defs
     id="defs1" />
  <g
     id="g1"
     transform="translate(-20.378906,0.00781225)">
    <path
       id="path1"
       d="m 4.3597109,-7.0911406 c 0.058594,-0.1289063 0.058594,-0.1640625 0.058594,-0.1875 0,-0.1054688 -0.09375,-0.1992188 -0.1992188,-0.1992188 -0.140625,0 -0.1875,0.1054688 -0.2109375,0.1992188 L 0.60971094,2.1080781 c -0.046875,0.1289063 -0.046875,0.1640625 -0.046875,0.1875 0,0.1054688 0.0820313,0.1992188 0.19921875,0.1992188 0.140625,0 0.17578125,-0.1054688 0.19921875,-0.1992188 z m 2.34375,3.1054687 H 8.1331484 V -4.2903594 H 6.7034609 V -6.1302031 H 6.4573672 c -0.011719,0.8203125 -0.3164063,1.8867187 -1.2890625,1.921875 v 0.2226562 h 0.84375 v 2.7539063 c 0,1.21874997 0.9257812,1.33593747 1.2890625,1.33593747 0.703125,0 0.984375,-0.703125 0.984375,-1.33593747 V -1.8059844 H 8.0393984 v 0.5507813 c 0,0.73828122 -0.3046875,1.11328122 -0.6679687,1.11328122 -0.6679688,0 -0.6679688,-0.90234372 -0.6679688,-1.07812502 z m 3.9111331,-0.421875 -1.3945315,0.1171875 v 0.3046875 c 0.65625,0 0.7382813,0.058594 0.7382813,0.5507813 v 2.67187497 c 0,0.45703125 -0.1054688,0.45703125 -0.7734375,0.45703125 v 0.3046875 c 0.3164062,-0.01171875 0.8554687,-0.03515625 1.1015627,-0.03515625 0.339844,0 0.691406,0.0234375 1.03125,0.03515625 v -0.3046875 c -0.65625,0 -0.703125,-0.0585938 -0.703125,-0.4453125 z m 0.04687,-1.734375 c 0,-0.3164062 -0.246094,-0.5273437 -0.527344,-0.5273437 -0.3164062,0 -0.5273437,0.2695312 -0.5273437,0.5273437 0,0.2695313 0.2109375,0.5273438 0.5273437,0.5273438 0.28125,0 0.527344,-0.1992188 0.527344,-0.5273438 z m 2.015625,5.37890627 c 0,0.45703125 -0.105469,0.45703125 -0.773438,0.45703125 v 0.3046875 c 0.328125,-0.01171875 0.796875,-0.03515625 1.078125,-0.03515625 0.304688,0 0.703125,0.01171875 1.101563,0.03515625 v -0.3046875 c -0.667969,0 -0.773438,0 -0.773438,-0.45703125 V -1.7825469 l 0.632813,-0.5507812 c 0.773437,1.0546875 1.183594,1.61718747 1.183594,1.79296872 0,0.1875 -0.164063,0.234375 -0.351563,0.234375 v 0.3046875 c 0.269531,-0.01171875 0.867188,-0.03515625 1.066406,-0.03515625 0.292969,0 0.585938,0.01171875 0.867188,0.03515625 v -0.3046875 c -0.363282,0 -0.585938,0 -0.960938,-0.52734375 l -1.26562,-1.79296877 c -0.01172,-0.011719 -0.05859,-0.070312 -0.05859,-0.1054687 0,-0.035156 0.703125,-0.6328125 0.808593,-0.7148438 0.621094,-0.5039062 1.042969,-0.5273437 1.253906,-0.5390625 v -0.3046875 c -0.292968,0.023437 -0.421875,0.023437 -0.703124,0.023437 -0.351563,0 -0.972657,-0.023437 -1.113282,-0.023437 v 0.3046875 c 0.1875,0.011719 0.292969,0.1171875 0.292969,0.2460938 0,0.1992187 -0.140625,0.3164062 -0.222656,0.3867187 l -1.40625,1.21875 v -4.78125 l -1.429688,0.1054688 v 0.3164062 c 0.691407,0 0.773438,0.070312 0.773438,0.5507813 z M 20.77182,-3.9973906 c 0.08203,-0.1054688 0.08203,-0.1289063 0.08203,-0.1640625 0,-0.1289063 -0.08203,-0.1289063 -0.257813,-0.1289063 h -3.1875 l -0.105469,1.59375 h 0.246094 c 0.05859,-1.0078125 0.246094,-1.3828125 1.347656,-1.3828125 h 1.136719 l -2.789062,3.76171877 c -0.08203,0.10546875 -0.08203,0.12890625 -0.08203,0.17578125 0,0.140625 0.07031,0.140625 0.257813,0.140625 h 3.28125 l 0.175781,-1.86328122 h -0.246094 c -0.09375,1.17187497 -0.304687,1.61718747 -1.453125,1.61718747 h -1.183593 z m 4.895508,-3.09375 c 0.05859,-0.1289063 0.05859,-0.1640625 0.05859,-0.1875 0,-0.1054688 -0.09375,-0.1992188 -0.199219,-0.1992188 -0.140625,0 -0.1875,0.1054688 -0.210937,0.1992188 l -3.398438,9.3867187 c -0.04687,0.1289063 -0.04687,0.1640625 -0.04687,0.1875 0,0.1054688 0.08203,0.1992188 0.199219,0.1992188 0.140625,0 0.175781,-0.1054688 0.199219,-0.1992188 z m 2.651367,7.07812497 c 0,-0.6328125 -0.246093,-1.04296877 -0.644531,-1.04296877 -0.351562,0 -0.527344,0.26953127 -0.527344,0.52734377 0,0.2578125 0.175782,0.52734375 0.527344,0.52734375 0.164063,0 0.28125,-0.05859375 0.375,-0.140625 l 0.02344,-0.0234375 c 0.01172,0 0.02344,0.0117188 0.02344,0.15234375 0,0.64453125 -0.28125,1.24218753 -0.714844,1.71093753 -0.05859,0.058594 -0.07031,0.070312 -0.07031,0.1171875 0,0.070312 0.04687,0.1054687 0.09375,0.1054687 0.117187,0 0.914062,-0.7851562 0.914062,-1.93359373 z m 5.097657,-7.07812497 c 0.05859,-0.1289063 0.05859,-0.1640625 0.05859,-0.1875 0,-0.1054688 -0.09375,-0.1992188 -0.199218,-0.1992188 -0.140625,0 -0.1875,0.1054688 -0.210938,0.1992188 l -3.398437,9.3867187 c -0.04687,0.1289063 -0.04687,0.1640625 -0.04687,0.1875 0,0.1054688 0.08203,0.1992188 0.199218,0.1992188 0.140625,0 0.175782,-0.1054688 0.199219,-0.1992188 z m 2.346679,3.1054687 h 1.429688 v -0.3046875 h -1.429688 v -1.8398437 h -0.246094 c -0.01172,0.8203125 -0.316406,1.8867187 -1.289062,1.921875 v 0.2226562 h 0.84375 v 2.7539063 c 0,1.21874997 0.925781,1.33593747 1.289062,1.33593747 0.703125,0 0.984375,-0.703125 0.984375,-1.33593747 v -0.5742188 h -0.246093 v 0.5507813 c 0,0.73828122 -0.304688,1.11328122 -0.667969,1.11328122 -0.667969,0 -0.667969,-0.90234372 -0.667969,-1.07812502 z m 3.908203,-0.421875 -1.394531,0.1171875 v 0.3046875 c 0.65625,0 0.738281,0.058594 0.738281,0.5507813 v 2.67187497 c 0,0.45703125 -0.105468,0.45703125 -0.773437,0.45703125 v 0.3046875 c 0.316406,-0.01171875 0.855469,-0.03515625 1.101562,-0.03515625 0.339844,0 0.691407,0.0234375 1.03125,0.03515625 v -0.3046875 c -0.65625,0 -0.703125,-0.0585938 -0.703125,-0.4453125 z m 0.04687,-1.734375 c 0,-0.3164062 -0.246093,-0.5273437 -0.527343,-0.5273437 -0.316407,0 -0.527344,0.2695312 -0.527344,0.5273437 0,0.2695313 0.210937,0.5273438 0.527344,0.5273438 0.28125,0 0.527343,-0.1992188 0.527343,-0.5273438 z m 2.018555,5.37890627 c 0,0.45703125 -0.105469,0.45703125 -0.773437,0.45703125 v 0.3046875 c 0.328125,-0.01171875 0.796875,-0.03515625 1.078125,-0.03515625 0.304687,0 0.703125,0.01171875 1.101562,0.03515625 v -0.3046875 c -0.667969,0 -0.773437,0 -0.773437,-0.45703125 V -1.7825469 l 0.632812,-0.5507812 c 0.773438,1.0546875 1.183594,1.61718747 1.183594,1.79296872 0,0.1875 -0.164063,0.234375 -0.351563,0.234375 v 0.3046875 c 0.269532,-0.01171875 0.867188,-0.03515625 1.066407,-0.03515625 0.292968,0 0.585937,0.01171875 0.867187,0.03515625 v -0.3046875 c -0.363281,0 -0.585937,0 -0.960937,-0.52734375 l -1.26562,-1.79296877 c -0.01172,-0.011719 -0.05859,-0.070312 -0.05859,-0.1054687 0,-0.035156 0.703125,-0.6328125 0.808594,-0.7148438 0.621093,-0.5039062 1.042968,-0.5273437 1.253906,-0.5390625 v -0.3046875 c -0.292969,0.023437 -0.421875,0.023437 -0.703125,0.023437 -0.351563,0 -0.972656,-0.023437 -1.113281,-0.023437 v 0.3046875 c 0.1875,0.011719 0.292968,0.1171875 0.292968,0.2460938 0,0.1992187 -0.140625,0.3164062 -0.222656,0.3867187 l -1.40625,1.21875 v -4.78125 l -1.429687,0.1054688 v 0.3164062 c 0.691406,0 0.773437,0.070312 0.773437,0.5507813 z m 8.094727,-3.23437497 c 0.08203,-0.1054688 0.08203,-0.1289063 0.08203,-0.1640625 0,-0.1289063 -0.08203,-0.1289063 -0.257813,-0.1289063 h -3.1875 l -0.105468,1.59375 h 0.246093 c 0.05859,-1.0078125 0.246094,-1.3828125 1.347657,-1.3828125 h 1.136718 l -2.789062,3.76171877 c -0.08203,0.10546875 -0.08203,0.12890625 -0.08203,0.17578125 0,0.140625 0.07031,0.140625 0.257812,0.140625 h 3.28125 l 0.175781,-1.86328122 h -0.246093 c -0.09375,1.17187497 -0.304688,1.61718747 -1.453125,1.61718747 h -1.183594 z m 4.895507,-3.09375 c 0.05859,-0.1289063 0.05859,-0.1640625 0.05859,-0.1875 0,-0.1054688 -0.09375,-0.1992188 -0.199219,-0.1992188 -0.140625,0 -0.1875,0.1054688 -0.210937,0.1992188 l -3.398438,9.3867187 c -0.04687,0.1289063 -0.04687,0.1640625 -0.04687,0.1875 0,0.1054688 0.08203,0.1992188 0.199219,0.1992188 0.140625,0 0.175781,-0.1054688 0.199219,-0.1992188 z m 2.835938,5.3789062 c -0.867188,0 -0.867188,-0.9960937 -0.867188,-1.2304687 0,-0.2695313 0.01172,-0.5859375 0.152344,-0.8320313 0.08203,-0.1171875 0.316406,-0.3984375 0.714844,-0.3984375 0.867187,0 0.867187,0.9960938 0.867187,1.21875 0,0.2695313 -0.01172,0.5976563 -0.164062,0.84375 -0.08203,0.1171875 -0.304688,0.3984375 -0.703125,0.3984375 z m -1.160156,0.3867188 c 0,-0.035156 0,-0.2695313 0.175781,-0.46875 0.386719,0.28125 0.796875,0.3046875 0.984375,0.3046875 0.925781,0 1.605469,-0.6796875 1.605469,-1.453125 0,-0.3632813 -0.152344,-0.7382813 -0.398438,-0.9609375 0.351563,-0.3398438 0.714844,-0.3867188 0.890625,-0.3867188 0.02344,0 0.07031,0 0.105469,0 -0.117188,0.046875 -0.164063,0.1523438 -0.164063,0.2695313 0,0.1757812 0.128907,0.2929687 0.292969,0.2929687 0.09375,0 0.28125,-0.070312 0.28125,-0.2929687 0,-0.1757813 -0.117187,-0.4921875 -0.503906,-0.4921875 -0.199219,0 -0.632813,0.058594 -1.054688,0.46875 -0.421875,-0.328125 -0.84375,-0.3632813 -1.054687,-0.3632813 -0.925781,0 -1.617188,0.6914063 -1.617188,1.453125 0,0.4453125 0.222657,0.8203125 0.46875,1.03125 -0.128906,0.1523438 -0.304687,0.4804688 -0.304687,0.8203125 0,0.31640627 0.128906,0.69140627 0.433594,0.89062502 -0.597657,0.17578125 -0.914063,0.59765625 -0.914063,0.99609375 0,0.71484373 0.984375,1.26562503 2.203125,1.26562503 1.171875,0 2.203125,-0.5039063 2.203125,-1.28906253 0,-0.33984375 -0.140625,-0.85546875 -0.644531,-1.125 -0.527344,-0.28125 -1.101563,-0.28125 -1.710938,-0.28125 -0.246093,0 -0.679687,0 -0.75,-0.0117188 -0.316406,-0.046875 -0.527343,-0.35156247 -0.527343,-0.66796867 z m 1.441406,3.1523437 c -1.007813,0 -1.699219,-0.515625 -1.699219,-1.04296873 0,-0.45703125 0.375,-0.8203125 0.820313,-0.85546875 h 0.585937 c 0.855469,0 1.96875,0 1.96875,0.85546875 0,0.53906253 -0.703125,1.04296873 -1.675781,1.04296873 z m 4.148437,-5.1328125 v -1.1015625 l -1.382812,0.1171875 v 0.3046875 c 0.691406,0 0.773437,0.070312 0.773437,0.5625 v 2.66015627 c 0,0.45703125 -0.105468,0.45703125 -0.773437,0.45703125 v 0.3046875 c 0.386719,-0.01171875 0.855469,-0.03515625 1.136719,-0.03515625 0.398437,0 0.867187,0 1.265625,0.03515625 v -0.3046875 h -0.210938 c -0.738281,0 -0.761719,-0.1171875 -0.761719,-0.46875 V -2.3098906 c 0,-0.984375 0.421875,-1.875 1.183594,-1.875 0.05859,0 0.08203,0 0.105469,0.011719 -0.03516,0.011719 -0.234375,0.1289063 -0.234375,0.3867188 0,0.28125 0.210937,0.4335937 0.433594,0.4335937 0.175781,0 0.421875,-0.1289062 0.421875,-0.4453125 0,-0.3164062 -0.304688,-0.609375 -0.726563,-0.609375 -0.738281,0 -1.089844,0.6679688 -1.230469,1.1015622 z m 5.554688,2.54296877 c 0.03516,0.3984375 0.304687,0.8203125 0.773437,0.8203125 0.210938,0 0.820313,-0.140625 0.820313,-0.94921875 V -1.4427031 h -0.246094 v 0.55078122 c 0,0.5859375 -0.246094,0.64453125 -0.363281,0.64453125 -0.328125,0 -0.363281,-0.45703125 -0.363281,-0.50390625 V -2.7434844 c 0,-0.4101562 0,-0.8085937 -0.363282,-1.171875 -0.386718,-0.3867187 -0.878906,-0.5507812 -1.359375,-0.5507812 -0.820312,0 -1.511718,0.46875 -1.511718,1.125 0,0.3046875 0.199218,0.46875 0.457031,0.46875 0.28125,0 0.46875,-0.1992188 0.46875,-0.4570313 0,-0.1171875 -0.05859,-0.4453125 -0.515625,-0.4570312 0.269531,-0.3515625 0.761719,-0.4570313 1.078125,-0.4570313 0.492187,0 1.054687,0.3867188 1.054687,1.2773438 v 0.3632812 c -0.503906,0.035156 -1.207031,0.058594 -1.828125,0.3632813 -0.75,0.3398437 -0.996093,0.8554687 -0.996093,1.28906247 0,0.80859375 0.960937,1.0546875 1.59375,1.0546875 0.65625,0 1.113281,-0.3984375 1.300781,-0.8671875 z m -0.07031,-1.62890627 v 0.9960938 c 0,0.94921872 -0.714843,1.28906247 -1.160156,1.28906247 -0.492187,0 -0.902344,-0.3515625 -0.902344,-0.85546875 0,-0.53906252 0.421875,-1.37109372 2.0625,-1.42968752 z m 3.448243,-1.359375 v -0.65625 l -1.429688,0.1171875 v 0.3046875 c 0.703125,0 0.773438,0.058594 0.773438,0.4921875 v 4.6640625 c 0,0.4570313 -0.105469,0.4570313 -0.773438,0.4570313 v 0.3046875 c 0.339844,-0.011719 0.855469,-0.035156 1.113281,-0.035156 0.269532,0 0.773438,0.023437 1.125,0.035156 V 1.6276094 c -0.667968,0 -0.773437,0 -0.773437,-0.4570313 v -1.75781248 c 0.04687,0.15234375 0.46875,0.69140625 1.21875,0.69140625 1.183594,0 2.226562,-0.97265625 2.226562,-2.26171877 0,-1.265625 -0.972656,-2.25 -2.085937,-2.25 -0.773438,0 -1.195313,0.4453125 -1.394531,0.65625 z m 0.03516,2.6132813 v -2.2148438 c 0.28125,-0.515625 0.773437,-0.796875 1.277344,-0.796875 0.726562,0 1.335937,0.8671875 1.335937,1.9921875 0,1.20703127 -0.691406,2.05078127 -1.429687,2.05078127 -0.398438,0 -0.773438,-0.19921875 -1.042969,-0.609375 -0.140625,-0.2109375 -0.140625,-0.22265625 -0.140625,-0.42187497 z m 4.889648,0.37499997 c 0,0.45703125 -0.117187,0.45703125 -0.785156,0.45703125 v 0.3046875 c 0.351563,-0.01171875 0.855469,-0.03515625 1.125,-0.03515625 0.257813,0 0.785156,0.0234375 1.113281,0.03515625 v -0.3046875 c -0.65625,0 -0.773437,0 -0.773437,-0.45703125 V -2.5911406 c 0,-1.03125 0.714844,-1.59375 1.347656,-1.59375 0.621094,0 0.738281,0.5390625 0.738281,1.1015625 v 2.32031247 c 0,0.45703125 -0.117187,0.45703125 -0.773437,0.45703125 v 0.3046875 c 0.339844,-0.01171875 0.855469,-0.03515625 1.125,-0.03515625 0.257812,0 0.773437,0.0234375 1.113281,0.03515625 v -0.3046875 c -0.515625,0 -0.773437,0 -0.785156,-0.3046875 V -2.5091094 c 0,-0.8554687 0,-1.171875 -0.304688,-1.5234375 -0.140625,-0.1757812 -0.46875,-0.375 -1.042968,-0.375 -0.84375,0 -1.277344,0.5976563 -1.441407,0.984375 v -3.4921875 l -1.441406,0.1054688 v 0.3164062 c 0.703125,0 0.785156,0.070312 0.785156,0.5507813 z m 6.506836,-1.17187497 c 0.222656,0.035156 1.03125,0.1992187 1.03125,0.9140625 0,0.51562497 -0.351562,0.91406247 -1.125,0.91406247 -0.832031,0 -1.195312,-0.57421875 -1.382812,-1.41796877 -0.03516,-0.1289062 -0.03516,-0.1757812 -0.140625,-0.1757812 -0.128907,0 -0.128907,0.070312 -0.128907,0.2578125 v 1.31249997 c 0,0.1640625 0,0.234375 0.105469,0.234375 0.05859,0 0.07031,0 0.257813,-0.19921875 0.01172,-0.01171875 0.01172,-0.03515625 0.199218,-0.22265625 0.433594,0.421875 0.878907,0.421875 1.089844,0.421875 1.148438,0 1.605469,-0.66796875 1.605469,-1.38281247 0,-0.5273438 -0.292969,-0.8203125 -0.421875,-0.9492188 -0.328125,-0.3164062 -0.714844,-0.3984375 -1.136719,-0.46875 -0.550781,-0.1171875 -1.21875,-0.2460937 -1.21875,-0.8203125 0,-0.3515625 0.257813,-0.7617187 1.113281,-0.7617187 1.101563,0 1.148438,0.9023437 1.171875,1.2070312 0,0.09375 0.09375,0.09375 0.117188,0.09375 0.128906,0 0.128906,-0.046875 0.128906,-0.2460937 v -0.9960938 c 0,-0.1757812 0,-0.2460937 -0.117187,-0.2460937 -0.04687,0 -0.07031,0 -0.199219,0.1171875 -0.02344,0.046875 -0.128906,0.1289062 -0.164063,0.1640625 -0.375,-0.28125 -0.785156,-0.28125 -0.9375,-0.28125 -1.21875,0 -1.59375,0.6679687 -1.59375,1.2304687 0,0.3398438 0.164063,0.6210938 0.433594,0.84375 0.316406,0.2578125 0.597656,0.3164063 1.3125,0.4570313 z m 6.216797,-5.15625 c 0.05859,-0.1289063 0.05859,-0.1640625 0.05859,-0.1875 0,-0.1054688 -0.09375,-0.1992188 -0.199219,-0.1992188 -0.140625,0 -0.1875,0.1054688 -0.210937,0.1992188 l -3.398438,9.3867187 c -0.04687,0.1289063 -0.04687,0.1640625 -0.04687,0.1875 0,0.1054688 0.08203,0.1992188 0.199219,0.1992188 0.140625,0 0.175781,-0.1054688 0.199219,-0.1992188 z M 1.1604922,9.7867891 c 0,-1.6289063 0.8203125,-2.0507813 1.3476562,-2.0507813 0.09375,0 0.7148438,0.011719 1.0664063,0.375 -0.4101563,0.023437 -0.46875,0.328125 -0.46875,0.4570313 0,0.2578125 0.1875,0.4570312 0.4570312,0.4570312 0.2578125,0 0.4570313,-0.1640625 0.4570313,-0.46875 0,-0.6796875 -0.75,-1.0664062 -1.5234375,-1.0664062 -1.2421875,0 -2.15625001,1.078125 -2.15625001,2.3085937 0,1.2773442 0.98437501,2.2617192 2.14453121,2.2617192 1.3359375,0 1.6523438,-1.195313 1.6523438,-1.289063 0,-0.105469 -0.1054688,-0.105469 -0.1289063,-0.105469 -0.09375,0 -0.1171875,0.04687 -0.1289062,0.105469 -0.2929688,0.925781 -0.9375,1.042969 -1.3125,1.042969 -0.5273438,0 -1.40625,-0.421875 -1.40625,-2.0273439 z m 7.9541016,0.035156 c 0,-1.2773437 -0.9960938,-2.3320312 -2.1914063,-2.3320312 -1.2539062,0 -2.2148437,1.0898437 -2.2148437,2.3320312 0,1.2890629 1.03125,2.2382819 2.203125,2.2382819 1.2070312,0 2.203125,-0.972657 2.203125,-2.2382819 z M 6.9231875,11.814133 C 6.4895938,11.814133 6.056,11.603195 5.7864688,11.146164 5.5286563,10.71257 5.5286563,10.103195 5.5286563,9.7399141 c 0,-0.3867188 0,-0.9257813 0.2460937,-1.359375 0.2695313,-0.4570313 0.7382813,-0.6679688 1.1367188,-0.6679688 0.4335937,0 0.8671875,0.2226563 1.125,0.6445313 0.2578125,0.4335937 0.2578125,1.0078125 0.2578125,1.3828125 0,0.3632809 0,0.9023439 -0.2226563,1.3359379 -0.2226562,0.445312 -0.65625,0.738281 -1.1484375,0.738281 z M 10.509125,8.5328828 v 2.6601562 c 0,0.457031 -0.117187,0.457031 -0.7851562,0.457031 v 0.304688 c 0.3515622,-0.01172 0.8554692,-0.03516 1.1250002,-0.03516 0.257812,0 0.785156,0.02344 1.113281,0.03516 V 11.65007 c -0.65625,0 -0.773437,0 -0.773437,-0.457031 V 9.3649141 c 0,-1.03125 0.714843,-1.59375 1.347656,-1.59375 0.621094,0 0.738281,0.5390625 0.738281,1.1015625 v 2.3203124 c 0,0.457031 -0.117187,0.457031 -0.773437,0.457031 v 0.304688 c 0.339843,-0.01172 0.855468,-0.03516 1.125,-0.03516 0.257812,0 0.773437,0.02344 1.113281,0.03516 V 11.65007 c -0.515625,0 -0.773438,0 -0.785156,-0.304687 V 9.4469453 c 0,-0.8554687 0,-1.171875 -0.304688,-1.5234375 -0.140625,-0.1757812 -0.46875,-0.375 -1.042969,-0.375 -0.726562,0 -1.195312,0.4335938 -1.476562,1.0546875 V 7.5485078 L 9.7239688,7.6656953 v 0.3046875 c 0.7031252,0 0.7851562,0.070312 0.7851562,0.5625 z m 8.305664,0.1054688 c 0.08203,-0.234375 0.257813,-0.65625 0.914063,-0.6679688 V 7.6656953 c -0.234375,0.011719 -0.515625,0.023437 -0.75,0.023437 -0.234375,0 -0.691407,-0.023437 -0.867188,-0.023437 v 0.3046875 c 0.375,0.011719 0.480469,0.234375 0.480469,0.4335938 0,0.082031 -0.02344,0.1289062 -0.05859,0.234375 L 17.514008,11.18132 16.400727,8.4039766 c -0.05859,-0.140625 -0.05859,-0.1523438 -0.05859,-0.1757813 0,-0.2578125 0.386719,-0.2578125 0.5625,-0.2578125 V 7.6656953 c -0.292969,0 -0.855469,0.023437 -1.078125,0.023437 -0.269531,0 -0.667969,-0.011719 -0.972656,-0.023437 v 0.3046875 c 0.632812,0 0.667968,0.058594 0.796875,0.3632813 l 1.441406,3.5390629 c 0.05859,0.140625 0.07031,0.1875 0.199219,0.1875 0.128906,0 0.175781,-0.08203 0.210937,-0.1875 z m 1.942383,0.8085937 c 0.05859,-1.4882812 0.902344,-1.734375 1.242187,-1.734375 1.019532,0 1.125,1.3476563 1.125,1.734375 z m -0.01172,0.2109375 h 2.789063 c 0.210937,0 0.246093,0 0.246093,-0.2109375 0,-0.984375 -0.539062,-1.9570312 -1.78125,-1.9570312 -1.160156,0 -2.074218,1.03125 -2.074218,2.2734375 0,1.3359374 1.042968,2.2968754 2.191406,2.2968754 1.21875,0 1.664062,-1.101563 1.664062,-1.289063 0,-0.105469 -0.08203,-0.117187 -0.128906,-0.117187 -0.09375,0 -0.117187,0.05859 -0.128906,0.140625 -0.351563,1.019531 -1.253906,1.019531 -1.347656,1.019531 -0.503907,0 -0.902344,-0.292969 -1.125,-0.667969 -0.304688,-0.480469 -0.304688,-1.136719 -0.304688,-1.4882812 z M 25.734711,8.6500703 V 7.5485078 l -1.382813,0.1171875 v 0.3046875 c 0.691407,0 0.773438,0.070312 0.773438,0.5625 v 2.6601562 c 0,0.457031 -0.105469,0.457031 -0.773438,0.457031 v 0.304688 c 0.386719,-0.01172 0.855469,-0.03516 1.136719,-0.03516 0.398438,0 0.867188,0 1.265625,0.03516 V 11.65007 h -0.210937 c -0.738282,0 -0.761719,-0.117187 -0.761719,-0.46875 V 9.6461641 c 0,-0.984375 0.421875,-1.875 1.183594,-1.875 0.05859,0 0.08203,0 0.105468,0.011719 -0.03516,0.011719 -0.234375,0.1289063 -0.234375,0.3867188 0,0.28125 0.210938,0.4335937 0.433594,0.4335937 0.175781,0 0.421875,-0.1289062 0.421875,-0.4453125 0,-0.3164062 -0.304687,-0.609375 -0.726562,-0.609375 -0.738282,0 -1.089844,0.6679688 -1.230469,1.1015622 z m 4.3125,1.3710937 c 0.222656,0.03516 1.03125,0.199219 1.03125,0.914063 0,0.515625 -0.351563,0.914062 -1.125,0.914062 -0.832031,0 -1.195313,-0.574219 -1.382813,-1.417969 -0.03516,-0.128906 -0.03516,-0.175781 -0.140625,-0.175781 -0.128906,0 -0.128906,0.07031 -0.128906,0.257813 v 1.3125 c 0,0.164062 0,0.234375 0.105469,0.234375 0.05859,0 0.07031,0 0.257812,-0.199219 0.01172,-0.01172 0.01172,-0.03516 0.199219,-0.222656 0.433594,0.421875 0.878906,0.421875 1.089844,0.421875 1.148437,0 1.605469,-0.667969 1.605469,-1.382813 0,-0.527344 -0.292969,-0.8203124 -0.421875,-0.9492187 -0.328125,-0.3164062 -0.714844,-0.3984375 -1.136719,-0.46875 -0.550781,-0.1171875 -1.21875,-0.2460937 -1.21875,-0.8203125 0,-0.3515625 0.257812,-0.7617187 1.113281,-0.7617187 1.101563,0 1.148438,0.9023437 1.171875,1.2070312 0,0.09375 0.09375,0.09375 0.117188,0.09375 0.128906,0 0.128906,-0.046875 0.128906,-0.2460937 V 7.7360078 c 0,-0.1757812 0,-0.2460937 -0.117188,-0.2460937 -0.04687,0 -0.07031,0 -0.199218,0.1171875 -0.02344,0.046875 -0.128907,0.1289062 -0.164063,0.1640625 -0.375,-0.28125 -0.785156,-0.28125 -0.9375,-0.28125 -1.21875,0 -1.59375,0.6679687 -1.59375,1.2304687 0,0.3398438 0.164063,0.6210938 0.433594,0.84375 0.316406,0.2578125 0.597656,0.3164063 1.3125,0.4570312 z m 3.615234,-2.4726562 -1.394531,0.1171875 v 0.3046875 c 0.65625,0 0.738281,0.058594 0.738281,0.5507813 v 2.6718749 c 0,0.457031 -0.105468,0.457031 -0.773437,0.457031 v 0.304688 c 0.316406,-0.01172 0.855469,-0.03516 1.101562,-0.03516 0.339844,0 0.691407,0.02344 1.03125,0.03516 V 11.65007 c -0.65625,0 -0.703125,-0.05859 -0.703125,-0.445312 z m 0.04687,-1.734375 c 0,-0.3164062 -0.246093,-0.5273437 -0.527343,-0.5273437 -0.316407,0 -0.527344,0.2695312 -0.527344,0.5273437 0,0.2695313 0.210937,0.5273438 0.527344,0.5273438 0.28125,0 0.527343,-0.1992188 0.527343,-0.5273438 z m 5.648438,4.0078125 c 0,-1.2773437 -0.996094,-2.3320312 -2.191406,-2.3320312 -1.253907,0 -2.214844,1.0898437 -2.214844,2.3320312 0,1.2890627 1.03125,2.2382817 2.203125,2.2382817 1.207031,0 2.203125,-0.972657 2.203125,-2.2382817 z m -2.191406,1.9921877 c -0.433594,0 -0.867188,-0.210938 -1.136719,-0.667969 C 35.77182,10.71257 35.77182,10.103195 35.77182,9.7399141 c 0,-0.3867188 0,-0.9257813 0.246094,-1.359375 0.269531,-0.4570313 0.738281,-0.6679688 1.136719,-0.6679688 0.433594,0 0.867187,0.2226563 1.125,0.6445313 0.257812,0.4335937 0.257812,1.0078125 0.257812,1.3828125 0,0.3632809 0,0.9023439 -0.222656,1.3359379 -0.222656,0.445312 -0.65625,0.738281 -1.148437,0.738281 z m 3.585937,-3.2812502 v 2.6601562 c 0,0.457031 -0.117187,0.457031 -0.785156,0.457031 v 0.304688 c 0.351562,-0.01172 0.855469,-0.03516 1.125,-0.03516 0.257812,0 0.785156,0.02344 1.113281,0.03516 V 11.65007 c -0.65625,0 -0.773437,0 -0.773437,-0.457031 V 9.3649141 c 0,-1.03125 0.714843,-1.59375 1.347656,-1.59375 0.621094,0 0.738281,0.5390625 0.738281,1.1015625 v 2.3203124 c 0,0.457031 -0.117187,0.457031 -0.773437,0.457031 v 0.304688 c 0.339843,-0.01172 0.855468,-0.03516 1.125,-0.03516 0.257812,0 0.773437,0.02344 1.113281,0.03516 V 11.65007 c -0.515625,0 -0.773438,0 -0.785156,-0.304687 V 9.4469453 c 0,-0.8554687 0,-1.171875 -0.304688,-1.5234375 -0.140625,-0.1757812 -0.46875,-0.375 -1.042969,-0.375 -0.726562,0 -1.195312,0.4335938 -1.476562,1.0546875 V 7.5485078 l -1.40625,0.1171875 v 0.3046875 c 0.703125,0 0.785156,0.070312 0.785156,0.5625 z m 6.509766,1.4882812 c 0.222656,0.03516 1.03125,0.199219 1.03125,0.914063 0,0.515625 -0.351563,0.914062 -1.125,0.914062 -0.832032,0 -1.195313,-0.574219 -1.382813,-1.417969 -0.03516,-0.128906 -0.03516,-0.175781 -0.140625,-0.175781 -0.128906,0 -0.128906,0.07031 -0.128906,0.257813 v 1.3125 c 0,0.164062 0,0.234375 0.105469,0.234375 0.05859,0 0.07031,0 0.257812,-0.199219 0.01172,-0.01172 0.01172,-0.03516 0.199219,-0.222656 0.433594,0.421875 0.878906,0.421875 1.089844,0.421875 1.148437,0 1.605468,-0.667969 1.605468,-1.382813 0,-0.527344 -0.292968,-0.8203124 -0.421875,-0.9492187 -0.32812,-0.3164062 -0.714838,-0.3984375 -1.136713,-0.46875 -0.550782,-0.1171875 -1.21875,-0.2460937 -1.21875,-0.8203125 0,-0.3515625 0.257812,-0.7617187 1.113281,-0.7617187 1.101562,0 1.148437,0.9023437 1.171875,1.2070312 0,0.09375 0.09375,0.09375 0.117187,0.09375 0.128907,0 0.128907,-0.046875 0.128907,-0.2460937 V 7.7360078 c 0,-0.1757812 0,-0.2460937 -0.117188,-0.2460937 -0.04687,0 -0.07031,0 -0.199219,0.1171875 -0.02344,0.046875 -0.128906,0.1289062 -0.164062,0.1640625 -0.375,-0.28125 -0.785156,-0.28125 -0.9375,-0.28125 -1.21875,0 -1.59375,0.6679687 -1.59375,1.2304687 0,0.3398438 0.164062,0.6210938 0.433594,0.84375 0.316406,0.2578125 0.597656,0.3164063 1.3125,0.4570312 z m 6.213867,-5.1562499 c 0.05859,-0.1289063 0.05859,-0.1640625 0.05859,-0.1875 0,-0.1054688 -0.09375,-0.1992188 -0.199219,-0.1992188 -0.140625,0 -0.1875,0.1054688 -0.210938,0.1992188 l -3.398437,9.3867189 c -0.04687,0.128906 -0.04687,0.164062 -0.04687,0.1875 0,0.105469 0.08203,0.199219 0.199219,0.199219 0.140625,0 0.175781,-0.105469 0.199218,-0.199219 z m 1.78125,4.921875 c 0,-1.6289063 0.820312,-2.0507813 1.347656,-2.0507813 0.09375,0 0.714844,0.011719 1.066406,0.375 -0.410156,0.023437 -0.46875,0.328125 -0.46875,0.4570313 0,0.2578125 0.1875,0.4570312 0.457032,0.4570312 0.257812,0 0.457031,-0.1640625 0.457031,-0.46875 0,-0.6796875 -0.75,-1.0664062 -1.523438,-1.0664062 -1.242187,0 -2.15625,1.078125 -2.15625,2.3085937 0,1.2773442 0.984375,2.2617192 2.144532,2.2617192 1.335937,0 1.652343,-1.195313 1.652343,-1.289063 0,-0.105469 -0.105468,-0.105469 -0.128906,-0.105469 -0.09375,0 -0.117187,0.04687 -0.128906,0.105469 -0.292969,0.925781 -0.9375,1.042969 -1.3125,1.042969 -0.527344,0 -1.40625,-0.421875 -1.40625,-2.0273439 z m 6.594726,1.4062499 c 0.03516,0.398438 0.304688,0.820313 0.773438,0.820313 0.210937,0 0.820312,-0.140625 0.820312,-0.949219 V 10.513352 H 63.19955 v 0.550781 c 0,0.585937 -0.246094,0.644531 -0.363282,0.644531 -0.328125,0 -0.363281,-0.457031 -0.363281,-0.503906 V 9.2125703 c 0,-0.4101562 0,-0.8085937 -0.363281,-1.171875 C 61.722987,7.6539766 61.2308,7.4899141 60.750331,7.4899141 c -0.820313,0 -1.511719,0.46875 -1.511719,1.125 0,0.3046875 0.199219,0.46875 0.457031,0.46875 0.28125,0 0.46875,-0.1992188 0.46875,-0.4570313 0,-0.1171875 -0.05859,-0.4453125 -0.515625,-0.4570312 0.269532,-0.3515625 0.761719,-0.4570313 1.078125,-0.4570313 0.492188,0 1.054688,0.3867188 1.054688,1.2773438 v 0.3632812 c -0.503906,0.035156 -1.207031,0.058594 -1.828125,0.3632813 -0.75,0.3398434 -0.996094,0.8554684 -0.996094,1.2890624 0,0.808594 0.960938,1.054688 1.59375,1.054688 0.65625,0 1.113281,-0.398438 1.300781,-0.867188 z m -0.07031,-1.6289062 v 0.9960942 c 0,0.949218 -0.714844,1.289062 -1.160156,1.289062 -0.492188,0 -0.902344,-0.351562 -0.902344,-0.855469 0,-0.539062 0.421875,-1.3710934 2.0625,-1.4296872 z m 2.835937,-1.03125 v 2.6601562 c 0,0.457031 -0.117187,0.457031 -0.785156,0.457031 v 0.304688 c 0.351563,-0.01172 0.855469,-0.03516 1.125,-0.03516 0.257813,0 0.785156,0.02344 1.113281,0.03516 V 11.65007 c -0.65625,0 -0.773437,0 -0.773437,-0.457031 V 9.3649141 c 0,-1.03125 0.714844,-1.59375 1.347656,-1.59375 0.621094,0 0.738281,0.5390625 0.738281,1.1015625 v 2.3203124 c 0,0.457031 -0.117187,0.457031 -0.773437,0.457031 v 0.304688 c 0.339844,-0.01172 0.855469,-0.03516 1.125,-0.03516 0.257812,0 0.773437,0.02344 1.113281,0.03516 V 11.65007 c -0.515625,0 -0.773437,0 -0.785156,-0.304687 V 9.4469453 c 0,-0.8554687 0,-1.171875 -0.304688,-1.5234375 -0.140625,-0.1757812 -0.46875,-0.375 -1.042968,-0.375 -0.726563,0 -1.195313,0.4335938 -1.476563,1.0546875 V 7.5485078 l -1.40625,0.1171875 v 0.3046875 c 0.703125,0 0.785156,0.070312 0.785156,0.5625 z m 8.302735,0.1054688 c 0.08203,-0.234375 0.257812,-0.65625 0.914062,-0.6679688 V 7.6656953 c -0.234375,0.011719 -0.515625,0.023437 -0.75,0.023437 -0.234375,0 -0.691406,-0.023437 -0.867187,-0.023437 v 0.3046875 c 0.375,0.011719 0.480469,0.234375 0.480469,0.4335938 0,0.082031 -0.02344,0.1289062 -0.05859,0.234375 L 71.619477,11.18132 70.506195,8.4039766 c -0.05859,-0.140625 -0.05859,-0.1523438 -0.05859,-0.1757813 0,-0.2578125 0.386718,-0.2578125 0.5625,-0.2578125 V 7.6656953 c -0.292969,0 -0.855469,0.023437 -1.078125,0.023437 -0.269532,0 -0.667969,-0.011719 -0.972657,-0.023437 v 0.3046875 c 0.632813,0 0.667969,0.058594 0.796875,0.3632813 l 1.441407,3.5390629 c 0.05859,0.140625 0.07031,0.1875 0.199218,0.1875 0.128907,0 0.175782,-0.08203 0.210938,-0.1875 z m 3.870117,2.5546874 c 0.03516,0.398438 0.304687,0.820313 0.773437,0.820313 0.210938,0 0.820313,-0.140625 0.820313,-0.949219 v -0.550781 h -0.246094 v 0.550781 c 0,0.585937 -0.246094,0.644531 -0.363281,0.644531 -0.328125,0 -0.363281,-0.457031 -0.363281,-0.503906 V 9.2125703 c 0,-0.4101562 0,-0.8085937 -0.363282,-1.171875 -0.386718,-0.3867187 -0.878906,-0.5507812 -1.359375,-0.5507812 -0.820312,0 -1.511718,0.46875 -1.511718,1.125 0,0.3046875 0.199218,0.46875 0.457031,0.46875 0.28125,0 0.46875,-0.1992188 0.46875,-0.4570313 0,-0.1171875 -0.05859,-0.4453125 -0.515625,-0.4570312 0.269531,-0.3515625 0.761719,-0.4570313 1.078125,-0.4570313 0.492187,0 1.054687,0.3867188 1.054687,1.2773438 v 0.3632812 c -0.503906,0.035156 -1.207031,0.058594 -1.828125,0.3632813 -0.75,0.3398434 -0.996093,0.8554684 -0.996093,1.2890624 0,0.808594 0.960937,1.054688 1.59375,1.054688 0.65625,0 1.113281,-0.398438 1.300781,-0.867188 z m -0.07031,-1.6289062 v 0.9960942 c 0,0.949218 -0.714843,1.289062 -1.160156,1.289062 -0.492187,0 -0.902344,-0.351562 -0.902344,-0.855469 0,-0.539062 0.421875,-1.3710934 2.0625,-1.4296872 z m 3.808594,0.4570312 c 0.222656,0.03516 1.03125,0.199219 1.03125,0.914063 0,0.515625 -0.351562,0.914062 -1.125,0.914062 -0.832031,0 -1.195312,-0.574219 -1.382812,-1.417969 -0.03516,-0.128906 -0.03516,-0.175781 -0.140625,-0.175781 -0.128907,0 -0.128907,0.07031 -0.128907,0.257813 v 1.3125 c 0,0.164062 0,0.234375 0.105469,0.234375 0.05859,0 0.07031,0 0.257813,-0.199219 0.01172,-0.01172 0.01172,-0.03516 0.199218,-0.222656 0.433594,0.421875 0.878907,0.421875 1.089844,0.421875 1.148438,0 1.605469,-0.667969 1.605469,-1.382813 0,-0.527344 -0.292969,-0.8203124 -0.421875,-0.9492187 C 81.290375,9.4117891 80.903656,9.3297578 80.481781,9.2594453 79.931,9.1422578 79.263031,9.0133516 79.263031,8.4391328 c 0,-0.3515625 0.257813,-0.7617187 1.113281,-0.7617187 1.101563,0 1.148438,0.9023437 1.171875,1.2070312 0,0.09375 0.09375,0.09375 0.117188,0.09375 0.128906,0 0.128906,-0.046875 0.128906,-0.2460937 V 7.7360078 c 0,-0.1757812 0,-0.2460937 -0.117187,-0.2460937 -0.04687,0 -0.07031,0 -0.199219,0.1171875 -0.02344,0.046875 -0.128906,0.1289062 -0.164063,0.1640625 -0.375,-0.28125 -0.785156,-0.28125 -0.9375,-0.28125 -1.21875,0 -1.59375,0.6679687 -1.59375,1.2304687 0,0.3398438 0.164063,0.6210938 0.433594,0.84375 0.316406,0.2578125 0.597656,0.3164063 1.3125,0.4570312 z m 6.583008,-0.2343749 c 0,-1.6289063 0.820313,-2.0507813 1.347656,-2.0507813 0.09375,0 0.714844,0.011719 1.066407,0.375 -0.410157,0.023437 -0.46875,0.328125 -0.46875,0.4570313 0,0.2578125 0.1875,0.4570312 0.457031,0.4570312 0.257812,0 0.457031,-0.1640625 0.457031,-0.46875 0,-0.6796875 -0.75,-1.0664062 -1.523437,-1.0664062 -1.242188,0 -2.15625,1.078125 -2.15625,2.3085937 0,1.2773442 0.984375,2.2617192 2.144531,2.2617192 1.335937,0 1.652344,-1.195313 1.652344,-1.289063 0,-0.105469 -0.105469,-0.105469 -0.128907,-0.105469 -0.09375,0 -0.117187,0.04687 -0.128906,0.105469 -0.292969,0.925781 -0.9375,1.042969 -1.3125,1.042969 -0.527344,0 -1.40625,-0.421875 -1.40625,-2.0273439 z m 7.954102,0.035156 c 0,-1.2773437 -0.996094,-2.3320312 -2.191407,-2.3320312 -1.253906,0 -2.214843,1.0898437 -2.214843,2.3320312 0,1.2890629 1.03125,2.2382819 2.203125,2.2382819 1.207031,0 2.203125,-0.972657 2.203125,-2.2382819 z m -2.191407,1.9921879 c -0.433593,0 -0.867187,-0.210938 -1.136718,-0.667969 -0.257813,-0.433594 -0.257813,-1.042969 -0.257813,-1.4062501 0,-0.3867188 0,-0.9257813 0.246094,-1.359375 0.269531,-0.4570313 0.738281,-0.6679688 1.136719,-0.6679688 0.433593,0 0.867187,0.2226563 1.125,0.6445313 0.257812,0.4335937 0.257812,1.0078125 0.257812,1.3828125 0,0.3632811 0,0.9023441 -0.222656,1.3359381 -0.222656,0.445312 -0.65625,0.738281 -1.148438,0.738281 z m 7.450191,-1.9921879 c 0,-1.2773437 -0.996089,-2.3320312 -2.191402,-2.3320312 -1.253906,0 -2.214843,1.0898437 -2.214843,2.3320312 0,1.2890629 1.03125,2.2382819 2.203125,2.2382819 1.207031,0 2.20312,-0.972657 2.20312,-2.2382819 z m -2.191402,1.9921879 c -0.433593,0 -0.867187,-0.210938 -1.136718,-0.667969 -0.257813,-0.433594 -0.257813,-1.042969 -0.257813,-1.4062501 0,-0.3867188 0,-0.9257813 0.246094,-1.359375 0.269531,-0.4570313 0.738281,-0.6679688 1.136719,-0.6679688 0.433593,0 0.867187,0.2226563 1.125,0.6445313 0.257812,0.4335937 0.257812,1.0078125 0.257812,1.3828125 0,0.3632811 0,0.9023441 -0.222656,1.3359381 -0.222656,0.445312 -0.65625,0.738281 -1.148438,0.738281 z M 102.28452,8.6500703 V 7.5485078 l -1.38282,0.1171875 v 0.3046875 c 0.69141,0 0.77344,0.070312 0.77344,0.5625 v 2.6601562 c 0,0.457031 -0.10547,0.457031 -0.77344,0.457031 v 0.304688 c 0.38672,-0.01172 0.85547,-0.03516 1.13672,-0.03516 0.39844,0 0.86719,0 1.26563,0.03516 V 11.65007 h -0.21094 c -0.73828,0 -0.76172,-0.117187 -0.76172,-0.46875 V 9.6461641 c 0,-0.984375 0.42188,-1.875 1.18359,-1.875 0.0586,0 0.082,0 0.10547,0.011719 -0.0352,0.011719 -0.23437,0.1289063 -0.23437,0.3867188 0,0.28125 0.21094,0.4335937 0.43359,0.4335937 0.17578,0 0.42188,-0.1289062 0.42188,-0.4453125 0,-0.3164062 -0.30469,-0.609375 -0.72657,-0.609375 -0.73828,0 -1.08984,0.6679688 -1.23046,1.1015622 z m 6.02343,2.7539067 v 0.65625 l 1.46485,-0.105469 V 11.65007 c -0.70313,0 -0.77344,-0.07031 -0.77344,-0.5625 V 5.0406953 l -1.44141,0.1054688 v 0.3164062 c 0.70313,0 0.78516,0.070312 0.78516,0.5507813 v 2.15625 c -0.29297,-0.3632813 -0.72656,-0.6210938 -1.26563,-0.6210938 -1.17187,0 -2.21484,0.984375 -2.21484,2.2617188 0,1.2656254 0.97266,2.2500004 2.10938,2.2500004 0.64453,0 1.08984,-0.339844 1.33593,-0.65625 z m 0,-2.6718754 v 2.0507814 c 0,0.175781 0,0.199219 -0.10547,0.363281 -0.30468,0.480469 -0.75,0.703125 -1.18359,0.703125 -0.44531,0 -0.79687,-0.257812 -1.04297,-0.644531 -0.25781,-0.410156 -0.29297,-0.972656 -0.29297,-1.3828127 0,-0.3632812 0.0234,-0.9609375 0.31641,-1.4179687 0.21094,-0.3046875 0.58594,-0.6328125 1.125,-0.6328125 0.35156,0 0.76172,0.1523437 1.07812,0.5976562 0.10547,0.1640625 0.10547,0.1875 0.10547,0.3632813 z m 3.50684,-1.1835938 -1.39453,0.1171875 v 0.3046875 c 0.65625,0 0.73828,0.058594 0.73828,0.5507813 v 2.6718749 c 0,0.457031 -0.10547,0.457031 -0.77344,0.457031 v 0.304688 c 0.31641,-0.01172 0.85547,-0.03516 1.10156,-0.03516 0.33985,0 0.69141,0.02344 1.03125,0.03516 V 11.65007 c -0.65625,0 -0.70312,-0.05859 -0.70312,-0.445312 z m 0.0469,-1.734375 c 0,-0.3164062 -0.24609,-0.5273437 -0.52734,-0.5273437 -0.31641,0 -0.52734,0.2695312 -0.52734,0.5273437 0,0.2695313 0.21093,0.5273438 0.52734,0.5273438 0.28125,0 0.52734,-0.1992188 0.52734,-0.5273438 z m 2.06543,2.71875 v 2.6601562 c 0,0.457031 -0.11718,0.457031 -0.78515,0.457031 v 0.304688 c 0.35156,-0.01172 0.85547,-0.03516 1.125,-0.03516 0.25781,0 0.78515,0.02344 1.11328,0.03516 V 11.65007 c -0.65625,0 -0.77344,0 -0.77344,-0.457031 V 9.3649141 c 0,-1.03125 0.71484,-1.59375 1.34766,-1.59375 0.62109,0 0.73828,0.5390625 0.73828,1.1015625 v 2.3203124 c 0,0.457031 -0.11719,0.457031 -0.77344,0.457031 v 0.304688 c 0.33984,-0.01172 0.85547,-0.03516 1.125,-0.03516 0.25781,0 0.77344,0.02344 1.11328,0.03516 V 11.65007 c -0.51562,0 -0.77344,0 -0.78515,-0.304687 V 9.4469453 c 0,-0.8554687 0,-1.171875 -0.30469,-1.5234375 -0.14063,-0.1757812 -0.46875,-0.375 -1.04297,-0.375 -0.72656,0 -1.19531,0.4335938 -1.47656,1.0546875 V 7.5485078 l -1.40625,0.1171875 v 0.3046875 c 0.70312,0 0.78515,0.070312 0.78515,0.5625 z m 7.74903,2.6601562 c 0.0352,0.398438 0.30468,0.820313 0.77343,0.820313 0.21094,0 0.82032,-0.140625 0.82032,-0.949219 v -0.550781 h -0.2461 v 0.550781 c 0,0.585937 -0.24609,0.644531 -0.36328,0.644531 -0.32812,0 -0.36328,-0.457031 -0.36328,-0.503906 V 9.2125703 c 0,-0.4101562 0,-0.8085937 -0.36328,-1.171875 -0.38672,-0.3867187 -0.87891,-0.5507812 -1.35938,-0.5507812 -0.82031,0 -1.51171,0.46875 -1.51171,1.125 0,0.3046875 0.19921,0.46875 0.45703,0.46875 0.28125,0 0.46875,-0.1992188 0.46875,-0.4570313 0,-0.1171875 -0.0586,-0.4453125 -0.51563,-0.4570312 0.26953,-0.3515625 0.76172,-0.4570313 1.07813,-0.4570313 0.49218,0 1.05468,0.3867188 1.05468,1.2773438 v 0.3632812 c -0.5039,0.035156 -1.20703,0.058594 -1.82812,0.3632813 -0.75,0.3398434 -0.99609,0.8554684 -0.99609,1.2890624 0,0.808594 0.96093,1.054688 1.59375,1.054688 0.65625,0 1.11328,-0.398438 1.30078,-0.867188 z m -0.0703,-1.6289062 v 0.9960942 c 0,0.949218 -0.71484,1.289062 -1.16015,1.289062 -0.49219,0 -0.90235,-0.351562 -0.90235,-0.855469 0,-0.539062 0.42188,-1.3710934 2.0625,-1.4296872 z m 3.45704,-1.59375 h 1.42968 V 7.6656953 h -1.42968 V 5.8258516 h -0.2461 c -0.0117,0.8203125 -0.3164,1.8867187 -1.28906,1.921875 v 0.2226562 h 0.84375 v 2.7539062 c 0,1.21875 0.92578,1.335938 1.28906,1.335938 0.70313,0 0.98438,-0.703125 0.98438,-1.335938 V 10.15007 h -0.2461 v 0.550782 c 0,0.738281 -0.30468,1.113281 -0.66797,1.113281 -0.66796,0 -0.66796,-0.902344 -0.66796,-1.078125 z m 3.2666,1.4765625 c 0.0586,-1.4882812 0.90234,-1.734375 1.24218,-1.734375 1.01954,0 1.125,1.3476563 1.125,1.734375 z m -0.0117,0.2109375 h 2.78906 c 0.21094,0 0.24609,0 0.24609,-0.2109375 0,-0.984375 -0.53906,-1.9570312 -1.78125,-1.9570312 -1.16015,0 -2.07421,1.03125 -2.07421,2.2734375 0,1.3359374 1.04296,2.2968754 2.1914,2.2968754 1.21875,0 1.66406,-1.101563 1.66406,-1.289063 0,-0.105469 -0.082,-0.117187 -0.1289,-0.117187 -0.0937,0 -0.11719,0.05859 -0.12891,0.140625 -0.35156,1.019531 -1.2539,1.019531 -1.34765,1.019531 -0.50391,0 -0.90235,-0.292969 -1.125,-0.667969 -0.30469,-0.480469 -0.30469,-1.136719 -0.30469,-1.4882812 z m 7.68457,-4.7929687 c 0.0586,-0.1289063 0.0586,-0.1640625 0.0586,-0.1875 0,-0.1054688 -0.0937,-0.1992188 -0.19922,-0.1992188 -0.14062,0 -0.1875,0.1054688 -0.21093,0.1992188 l -3.39844,9.3867189 c -0.0469,0.128906 -0.0469,0.164062 -0.0469,0.1875 0,0.105469 0.082,0.199219 0.19922,0.199219 0.14063,0 0.17578,-0.105469 0.19922,-0.199219 z m 2.53125,6.5624999 c 0,-0.292969 -0.23438,-0.527344 -0.52734,-0.527344 -0.28125,0 -0.52735,0.234375 -0.52735,0.527344 0,0.292969 0.2461,0.527344 0.52735,0.527344 0.29296,0 0.52734,-0.234375 0.52734,-0.527344 z m 2.01855,-1.6406249 c 0,-1.6289063 0.82032,-2.0507813 1.34766,-2.0507813 0.0937,0 0.71484,0.011719 1.06641,0.375 -0.41016,0.023437 -0.46875,0.328125 -0.46875,0.4570313 0,0.2578125 0.1875,0.4570312 0.45703,0.4570312 0.25781,0 0.45703,-0.1640625 0.45703,-0.46875 0,-0.6796875 -0.75,-1.0664062 -1.52344,-1.0664062 -1.24219,0 -2.15625,1.078125 -2.15625,2.3085937 0,1.2773442 0.98438,2.2617192 2.14453,2.2617192 1.33594,0 1.65235,-1.195313 1.65235,-1.289063 0,-0.105469 -0.10547,-0.105469 -0.12891,-0.105469 -0.0937,0 -0.11719,0.04687 -0.12891,0.105469 -0.29297,0.925781 -0.9375,1.042969 -1.3125,1.042969 -0.52734,0 -1.40625,-0.421875 -1.40625,-2.0273439 z m 7.95411,0.035156 c 0,-1.2773437 -0.9961,-2.3320312 -2.19141,-2.3320312 -1.25391,0 -2.21484,1.0898437 -2.21484,2.3320312 0,1.2890629 1.03125,2.2382819 2.20312,2.2382819 1.20703,0 2.20313,-0.972657 2.20313,-2.2382819 z m -2.19141,1.9921879 c -0.43359,0 -0.86719,-0.210938 -1.13672,-0.667969 -0.25781,-0.433594 -0.25781,-1.042969 -0.25781,-1.4062501 0,-0.3867188 0,-0.9257813 0.24609,-1.359375 0.26953,-0.4570313 0.73828,-0.6679688 1.13672,-0.6679688 0.43359,0 0.86719,0.2226563 1.125,0.6445313 0.25781,0.4335937 0.25781,1.0078125 0.25781,1.3828125 0,0.3632811 0,0.9023441 -0.22265,1.3359381 -0.22266,0.445312 -0.65625,0.738281 -1.14844,0.738281 z m 6.53906,-0.410156 v 0.65625 l 1.46485,-0.105469 V 11.65007 c -0.70313,0 -0.77344,-0.07031 -0.77344,-0.5625 V 5.0406953 l -1.44141,0.1054688 v 0.3164062 c 0.70313,0 0.78516,0.070312 0.78516,0.5507813 v 2.15625 c -0.29297,-0.3632813 -0.72656,-0.6210938 -1.26563,-0.6210938 -1.17187,0 -2.21484,0.984375 -2.21484,2.2617188 0,1.2656254 0.97266,2.2500004 2.10937,2.2500004 0.64454,0 1.08985,-0.339844 1.33594,-0.65625 z m 0,-2.6718756 v 2.0507816 c 0,0.175781 0,0.199219 -0.10547,0.363281 -0.30468,0.480469 -0.75,0.703125 -1.18359,0.703125 -0.44531,0 -0.79688,-0.257812 -1.04297,-0.644531 -0.25781,-0.410156 -0.29297,-0.972656 -0.29297,-1.3828129 0,-0.3632812 0.0234,-0.9609375 0.31641,-1.4179687 0.21094,-0.3046875 0.58594,-0.6328125 1.125,-0.6328125 0.35156,0 0.76172,0.1523437 1.07812,0.5976562 0.10547,0.1640625 0.10547,0.1875 0.10547,0.3632813 z m 2.86524,0.7148437 c 0.0586,-1.4882812 0.90234,-1.734375 1.24218,-1.734375 1.01953,0 1.125,1.3476563 1.125,1.734375 z m -0.0117,0.2109375 h 2.78906 c 0.21094,0 0.24609,0 0.24609,-0.2109375 0,-0.984375 -0.53906,-1.9570312 -1.78125,-1.9570312 -1.16015,0 -2.07422,1.03125 -2.07422,2.2734375 0,1.3359376 1.04297,2.2968756 2.19141,2.2968756 1.21875,0 1.66406,-1.101563 1.66406,-1.289063 0,-0.105469 -0.082,-0.117187 -0.1289,-0.117187 -0.0937,0 -0.11719,0.05859 -0.12891,0.140625 -0.35156,1.019531 -1.25391,1.019531 -1.34766,1.019531 -0.5039,0 -0.90234,-0.292969 -1.125,-0.667969 -0.30468,-0.480469 -0.30468,-1.136719 -0.30468,-1.4882814 z M 165.8764,8.6969451 c 0.15235,0 0.33985,0 0.33985,-0.1992187 0,-0.1992188 -0.1875,-0.1992188 -0.32813,-0.1992188 h -5.96484 c -0.14063,0 -0.32813,0 -0.32813,0.1992188 0,0.1992187 0.1875,0.1992187 0.33985,0.1992187 z m 0.0117,1.9335939 c 0.14063,0 0.32813,0 0.32813,-0.199219 0,-0.199218 -0.1875,-0.199218 -0.33985,-0.199218 h -5.9414 c -0.15235,0 -0.33985,0 -0.33985,0.199218 0,0.199219 0.1875,0.199219 0.32813,0.199219 z m 3.82324,-5.0507814 c 0,-0.234375 0,-0.2578125 -0.23437,-0.2578125 -0.60938,0.6328125 -1.48828,0.6328125 -1.80469,0.6328125 v 0.3164063 c 0.19922,0 0.78516,0 1.30078,-0.2578125 v 5.1562506 c 0,0.351562 -0.0352,0.480468 -0.92578,0.480468 h -0.31641 v 0.304688 c 0.35157,-0.03516 1.20704,-0.03516 1.60547,-0.03516 0.39844,0 1.26563,0 1.61719,0.03516 V 11.65007 h -0.31641 c -0.90234,0 -0.92578,-0.117187 -0.92578,-0.480468 z m 14.76856,6.3632814 c 0,-0.632812 -0.2461,-1.042969 -0.64453,-1.042969 -0.35157,0 -0.52735,0.269532 -0.52735,0.527344 0,0.257813 0.17578,0.527344 0.52735,0.527344 0.16406,0 0.28125,-0.05859 0.375,-0.140625 l 0.0234,-0.02344 c 0.0117,0 0.0234,0.01172 0.0234,0.152344 0,0.644531 -0.28125,1.242188 -0.71484,1.710938 -0.0586,0.05859 -0.0703,0.07031 -0.0703,0.117187 0,0.07031 0.0469,0.105469 0.0937,0.105469 0.11718,0 0.91406,-0.785156 0.91406,-1.933594 z m 5.52539,-2.1562501 c 0,-1.6289063 0.82031,-2.0507813 1.34765,-2.0507813 0.0937,0 0.71485,0.011719 1.06641,0.375 -0.41016,0.023437 -0.46875,0.328125 -0.46875,0.4570313 0,0.2578125 0.1875,0.4570312 0.45703,0.4570312 0.25781,0 0.45703,-0.1640625 0.45703,-0.46875 0,-0.6796875 -0.75,-1.0664062 -1.52343,-1.0664062 -1.24219,0 -2.15625,1.078125 -2.15625,2.3085937 0,1.2773444 0.98437,2.2617194 2.14453,2.2617194 1.33593,0 1.65234,-1.195313 1.65234,-1.289063 0,-0.105469 -0.10547,-0.105469 -0.12891,-0.105469 -0.0937,0 -0.11718,0.04687 -0.1289,0.105469 -0.29297,0.925781 -0.9375,1.042969 -1.3125,1.042969 -0.52735,0 -1.40625,-0.421875 -1.40625,-2.0273441 z m 7.95703,0.035156 c 0,-1.2773437 -0.99609,-2.3320312 -2.19141,-2.3320312 -1.2539,0 -2.21484,1.0898437 -2.21484,2.3320312 0,1.2890631 1.03125,2.2382821 2.20312,2.2382821 1.20704,0 2.20313,-0.972657 2.20313,-2.2382821 z m -2.19141,1.9921881 c -0.43359,0 -0.86718,-0.210938 -1.13672,-0.667969 -0.25781,-0.433594 -0.25781,-1.042969 -0.25781,-1.4062503 0,-0.3867188 0,-0.9257813 0.2461,-1.359375 0.26953,-0.4570313 0.73828,-0.6679688 1.13671,-0.6679688 0.4336,0 0.86719,0.2226563 1.125,0.6445313 0.25782,0.4335937 0.25782,1.0078125 0.25782,1.3828125 0,0.3632813 0,0.9023443 -0.22266,1.3359383 -0.22266,0.445312 -0.65625,0.738281 -1.14844,0.738281 z m 3.58594,-3.2812506 v 2.6601566 c 0,0.457031 -0.11719,0.457031 -0.78516,0.457031 v 0.304688 c 0.35157,-0.01172 0.85547,-0.03516 1.125,-0.03516 0.25782,0 0.78516,0.02344 1.11329,0.03516 V 11.65007 c -0.65625,0 -0.77344,0 -0.77344,-0.457031 V 9.3649141 c 0,-1.03125 0.71484,-1.59375 1.34765,-1.59375 0.6211,0 0.73829,0.5390625 0.73829,1.1015625 v 2.3203124 c 0,0.457031 -0.11719,0.457031 -0.77344,0.457031 v 0.304688 c 0.33984,-0.01172 0.85547,-0.03516 1.125,-0.03516 0.25781,0 0.77344,0.02344 1.11328,0.03516 V 11.65007 c -0.51563,0 -0.77344,0 -0.78516,-0.304687 V 9.4469453 c 0,-0.8554687 0,-1.171875 -0.30468,-1.5234375 -0.14063,-0.1757812 -0.46875,-0.375 -1.04297,-0.375 -0.72657,0 -1.19532,0.4335938 -1.47657,1.0546875 V 7.5485078 l -1.40625,0.1171875 v 0.3046875 c 0.70313,0 0.78516,0.070312 0.78516,0.5624996 z m 8.30274,0.1054688 c 0.082,-0.234375 0.25781,-0.65625 0.91406,-0.6679688 V 7.6656953 c -0.23438,0.011719 -0.51563,0.023437 -0.75,0.023437 -0.23438,0 -0.69141,-0.023437 -0.86719,-0.023437 v 0.3046875 c 0.375,0.011719 0.48047,0.234375 0.48047,0.4335938 0,0.082031 -0.0234,0.1289062 -0.0586,0.234375 l -1.01954,2.5429684 -1.11328,-2.7773434 c -0.0586,-0.140625 -0.0586,-0.1523438 -0.0586,-0.1757813 0,-0.2578125 0.38672,-0.2578125 0.5625,-0.2578125 V 7.6656953 c -0.29297,0 -0.85547,0.023437 -1.07813,0.023437 -0.26953,0 -0.66796,-0.011719 -0.97265,-0.023437 v 0.3046875 c 0.63281,0 0.66797,0.058594 0.79687,0.3632813 l 1.44141,3.5390629 c 0.0586,0.140625 0.0703,0.1875 0.19922,0.1875 0.1289,0 0.17578,-0.08203 0.21094,-0.1875 z m 1.9541,0.8085937 c 0.0586,-1.4882812 0.90234,-1.734375 1.24218,-1.734375 1.01954,0 1.125,1.3476563 1.125,1.734375 z m -0.0117,0.2109375 h 2.78906 c 0.21094,0 0.24609,0 0.24609,-0.2109375 0,-0.984375 -0.53906,-1.9570312 -1.78125,-1.9570312 -1.16015,0 -2.07421,1.03125 -2.07421,2.2734375 0,1.3359378 1.04296,2.2968758 2.1914,2.2968758 1.21875,0 1.66406,-1.101563 1.66406,-1.289063 0,-0.105469 -0.082,-0.117187 -0.1289,-0.117187 -0.0937,0 -0.11719,0.05859 -0.12891,0.140625 -0.35156,1.019531 -1.2539,1.019531 -1.34765,1.019531 -0.50391,0 -0.90235,-0.292969 -1.125,-0.667969 -0.30469,-0.480469 -0.30469,-1.136719 -0.30469,-1.4882816 z m 4.98926,-1.0078125 V 7.5485078 l -1.38282,0.1171875 v 0.3046875 c 0.69141,0 0.77344,0.070312 0.77344,0.5625 v 2.6601562 c 0,0.457031 -0.10547,0.457031 -0.77344,0.457031 v 0.304688 c 0.38672,-0.01172 0.85547,-0.03516 1.13672,-0.03516 0.39844,0 0.86719,0 1.26563,0.03516 V 11.65007 h -0.21094 c -0.73828,0 -0.76172,-0.117187 -0.76172,-0.46875 V 9.6461641 c 0,-0.984375 0.42188,-1.875 1.18359,-1.875 0.0586,0 0.082,0 0.10547,0.011719 -0.0351,0.011719 -0.23437,0.1289063 -0.23437,0.3867188 0,0.28125 0.21094,0.4335937 0.43359,0.4335937 0.17578,0 0.42188,-0.1289062 0.42188,-0.4453125 0,-0.3164062 -0.30469,-0.609375 -0.72657,-0.609375 -0.73828,0 -1.08984,0.6679688 -1.23046,1.1015618 z m 4.3125,1.3710941 c 0.22265,0.03516 1.03125,0.199219 1.03125,0.914063 0,0.515625 -0.35157,0.914062 -1.125,0.914062 -0.83204,0 -1.19532,-0.574219 -1.38282,-1.417969 -0.0351,-0.128906 -0.0351,-0.175781 -0.14062,-0.175781 -0.12891,0 -0.12891,0.07031 -0.12891,0.257813 v 1.3125 c 0,0.164062 0,0.234375 0.10547,0.234375 0.0586,0 0.0703,0 0.25781,-0.199219 0.0117,-0.01172 0.0117,-0.03516 0.19922,-0.222656 0.4336,0.421875 0.87891,0.421875 1.08985,0.421875 1.14843,0 1.60546,-0.667969 1.60546,-1.382813 0,-0.527344 -0.29296,-0.8203128 -0.42187,-0.9492191 -0.32813,-0.3164062 -0.71484,-0.3984375 -1.13672,-0.46875 -0.55078,-0.1171875 -1.21875,-0.2460937 -1.21875,-0.8203125 0,-0.3515625 0.25781,-0.7617187 1.11328,-0.7617187 1.10156,0 1.14844,0.9023437 1.17188,1.2070312 0,0.09375 0.0937,0.09375 0.11718,0.09375 0.12891,0 0.12891,-0.046875 0.12891,-0.2460937 V 7.7360078 c 0,-0.1757812 0,-0.2460937 -0.11719,-0.2460937 -0.0469,0 -0.0703,0 -0.19922,0.1171875 -0.0234,0.046875 -0.1289,0.1289062 -0.16406,0.1640625 -0.375,-0.28125 -0.78515,-0.28125 -0.9375,-0.28125 -1.21875,0 -1.59375,0.6679687 -1.59375,1.2304687 0,0.3398438 0.16406,0.6210938 0.4336,0.84375 0.3164,0.2578125 0.59765,0.3164063 1.3125,0.4570312 z m 3.6123,-2.4726566 -1.39453,0.1171875 v 0.3046875 c 0.65625,0 0.73828,0.058594 0.73828,0.5507813 v 2.6718753 c 0,0.457031 -0.10547,0.457031 -0.77344,0.457031 v 0.304688 c 0.31641,-0.01172 0.85547,-0.03516 1.10157,-0.03516 0.33984,0 0.6914,0.02344 1.03125,0.03516 V 11.65007 c -0.65625,0 -0.70313,-0.05859 -0.70313,-0.445312 z m 0.0469,-1.734375 c 0,-0.3164062 -0.2461,-0.5273437 -0.52735,-0.5273437 -0.3164,0 -0.52734,0.2695312 -0.52734,0.5273437 0,0.2695313 0.21094,0.5273438 0.52734,0.5273438 0.28125,0 0.52735,-0.1992188 0.52735,-0.5273438 z m 5.65136,4.0078125 c 0,-1.2773437 -0.99609,-2.3320312 -2.1914,-2.3320312 -1.25391,0 -2.21485,1.0898437 -2.21485,2.3320312 0,1.2890631 1.03125,2.2382821 2.20313,2.2382821 1.20703,0 2.20312,-0.972657 2.20312,-2.2382821 z m -2.1914,1.9921881 c -0.4336,0 -0.86719,-0.210938 -1.13672,-0.667969 -0.25781,-0.433594 -0.25781,-1.042969 -0.25781,-1.4062503 0,-0.3867188 0,-0.9257813 0.24609,-1.359375 0.26953,-0.4570313 0.73828,-0.6679688 1.13672,-0.6679688 0.43359,0 0.86719,0.2226563 1.125,0.6445313 0.25781,0.4335937 0.25781,1.0078125 0.25781,1.3828125 0,0.3632813 0,0.9023443 -0.22266,1.3359383 -0.22265,0.445312 -0.65625,0.738281 -1.14843,0.738281 z m 3.58593,-3.2812506 v 2.6601566 c 0,0.457031 -0.11718,0.457031 -0.78515,0.457031 v 0.304688 c 0.35156,-0.01172 0.85547,-0.03516 1.125,-0.03516 0.25781,0 0.78515,0.02344 1.11328,0.03516 V 11.65007 c -0.65625,0 -0.77344,0 -0.77344,-0.457031 V 9.3649141 c 0,-1.03125 0.71485,-1.59375 1.34766,-1.59375 0.62109,0 0.73828,0.5390625 0.73828,1.1015625 v 2.3203124 c 0,0.457031 -0.11719,0.457031 -0.77344,0.457031 v 0.304688 c 0.33985,-0.01172 0.85547,-0.03516 1.125,-0.03516 0.25781,0 0.77344,0.02344 1.11328,0.03516 V 11.65007 c -0.51562,0 -0.77343,0 -0.78515,-0.304687 V 9.4469453 c 0,-0.8554687 0,-1.171875 -0.30469,-1.5234375 -0.14063,-0.1757812 -0.46875,-0.375 -1.04297,-0.375 -0.72656,0 -1.19531,0.4335938 -1.47656,1.0546875 V 7.5485078 l -1.40625,0.1171875 v 0.3046875 c 0.70312,0 0.78515,0.070312 0.78515,0.5624996 z m 6.50977,1.4882816 c 0.22266,0.03516 1.03125,0.199219 1.03125,0.914063 0,0.515625 -0.35156,0.914062 -1.125,0.914062 -0.83203,0 -1.19531,-0.574219 -1.38281,-1.417969 -0.0352,-0.128906 -0.0352,-0.175781 -0.14063,-0.175781 -0.1289,0 -0.1289,0.07031 -0.1289,0.257813 v 1.3125 c 0,0.164062 0,0.234375 0.10546,0.234375 0.0586,0 0.0703,0 0.25782,-0.199219 0.0117,-0.01172 0.0117,-0.03516 0.19922,-0.222656 0.43359,0.421875 0.8789,0.421875 1.08984,0.421875 1.14844,0 1.60547,-0.667969 1.60547,-1.382813 0,-0.527344 -0.29297,-0.8203128 -0.42188,-0.9492191 -0.32812,-0.3164062 -0.71484,-0.3984375 -1.13672,-0.46875 -0.55078,-0.1171875 -1.21875,-0.2460937 -1.21875,-0.8203125 0,-0.3515625 0.25782,-0.7617187 1.11329,-0.7617187 1.10156,0 1.14843,0.9023437 1.17187,1.2070312 0,0.09375 0.0937,0.09375 0.11719,0.09375 0.1289,0 0.1289,-0.046875 0.1289,-0.2460937 V 7.7360078 c 0,-0.1757812 0,-0.2460937 -0.11718,-0.2460937 -0.0469,0 -0.0703,0 -0.19922,0.1171875 -0.0234,0.046875 -0.12891,0.1289062 -0.16406,0.1640625 -0.375,-0.28125 -0.78516,-0.28125 -0.9375,-0.28125 -1.21875,0 -1.59375,0.6679687 -1.59375,1.2304687 0,0.3398438 0.16406,0.6210938 0.43359,0.84375 0.31641,0.2578125 0.59766,0.3164063 1.3125,0.4570312 z m 6.21387,-5.1562503 c 0.0586,-0.1289063 0.0586,-0.1640625 0.0586,-0.1875 0,-0.1054688 -0.0937,-0.1992188 -0.19922,-0.1992188 -0.14062,0 -0.1875,0.1054688 -0.21094,0.1992188 l -3.39843,9.3867193 c -0.0469,0.128906 -0.0469,0.164062 -0.0469,0.1875 0,0.105469 0.082,0.199219 0.19922,0.199219 0.14063,0 0.17578,-0.105469 0.19922,-0.199219 z m 1.78125,4.921875 c 0,-1.6289063 0.82031,-2.0507813 1.34765,-2.0507813 0.0937,0 0.71485,0.011719 1.06641,0.375 -0.41016,0.023437 -0.46875,0.328125 -0.46875,0.4570313 0,0.2578125 0.1875,0.4570312 0.45703,0.4570312 0.25781,0 0.45703,-0.1640625 0.45703,-0.46875 0,-0.6796875 -0.75,-1.0664062 -1.52344,-1.0664062 -1.24218,0 -2.15625,1.078125 -2.15625,2.3085937 0,1.2773446 0.98438,2.2617196 2.14454,2.2617196 1.33593,0 1.65234,-1.195313 1.65234,-1.289063 0,-0.105469 -0.10547,-0.105469 -0.12891,-0.105469 -0.0937,0 -0.11718,0.04687 -0.1289,0.105469 -0.29297,0.925781 -0.9375,1.042969 -1.3125,1.042969 -0.52735,0 -1.40625,-0.421875 -1.40625,-2.0273443 z m 7.9541,0.035156 c 0,-1.2773437 -0.9961,-2.3320312 -2.19141,-2.3320312 -1.2539,0 -2.21484,1.0898437 -2.21484,2.3320312 0,1.2890623 1.03125,2.2382813 2.20312,2.2382813 1.20703,0 2.20313,-0.972657 2.20313,-2.2382813 z m -2.19141,1.9921873 c -0.43359,0 -0.86719,-0.210938 -1.13672,-0.667969 -0.25781,-0.433594 -0.25781,-1.042969 -0.25781,-1.4062495 0,-0.3867188 0,-0.9257813 0.24609,-1.359375 0.26954,-0.4570313 0.73829,-0.6679688 1.13672,-0.6679688 0.4336,0 0.86719,0.2226563 1.125,0.6445313 0.25782,0.4335937 0.25782,1.0078125 0.25782,1.3828125 0,0.3632805 0,0.9023435 -0.22266,1.3359375 -0.22266,0.445312 -0.65625,0.738281 -1.14844,0.738281 z m 7.44141,-1.9921873 c 0,-1.2773437 -0.9961,-2.3320312 -2.19141,-2.3320312 -1.2539,0 -2.21484,1.0898437 -2.21484,2.3320312 0,1.2890623 1.03125,2.2382813 2.20312,2.2382813 1.20703,0 2.20313,-0.972657 2.20313,-2.2382813 z m -2.19141,1.9921873 c -0.43359,0 -0.86719,-0.210938 -1.13672,-0.667969 -0.25781,-0.433594 -0.25781,-1.042969 -0.25781,-1.4062495 0,-0.3867188 0,-0.9257813 0.24609,-1.359375 0.26954,-0.4570313 0.73829,-0.6679688 1.13672,-0.6679688 0.4336,0 0.86719,0.2226563 1.125,0.6445313 0.25782,0.4335937 0.25782,1.0078125 0.25782,1.3828125 0,0.3632805 0,0.9023435 -0.22266,1.3359375 -0.22266,0.445312 -0.65625,0.738281 -1.14844,0.738281 z m 4.15137,-3.1640623 V 7.5485078 l -1.38281,0.1171875 v 0.3046875 c 0.6914,0 0.77343,0.070312 0.77343,0.5625 v 2.6601562 c 0,0.457031 -0.10546,0.457031 -0.77343,0.457031 v 0.304688 c 0.38672,-0.01172 0.85547,-0.03516 1.13672,-0.03516 0.39843,0 0.86718,0 1.26562,0.03516 V 11.65007 h -0.21094 c -0.73828,0 -0.76172,-0.117187 -0.76172,-0.46875 V 9.6461641 c 0,-0.984375 0.42188,-1.875 1.1836,-1.875 0.0586,0 0.082,0 0.10547,0.011719 -0.0352,0.011719 -0.23438,0.1289063 -0.23438,0.3867188 0,0.28125 0.21094,0.4335937 0.4336,0.4335937 0.17578,0 0.42187,-0.1289062 0.42187,-0.4453125 0,-0.3164062 -0.30469,-0.609375 -0.72656,-0.609375 -0.73828,0 -1.08985,0.6679688 -1.23047,1.1015616 z m 6.02344,2.7539063 v 0.65625 l 1.46484,-0.105469 V 11.65007 c -0.70312,0 -0.77344,-0.07031 -0.77344,-0.5625 V 5.0406953 l -1.4414,0.1054688 v 0.3164062 c 0.70312,0 0.78515,0.070312 0.78515,0.5507813 v 2.15625 c -0.29297,-0.3632813 -0.72656,-0.6210938 -1.26562,-0.6210938 -1.17188,0 -2.21485,0.984375 -2.21485,2.2617188 0,1.2656254 0.97266,2.2500004 2.10938,2.2500004 0.64453,0 1.08984,-0.339844 1.33594,-0.656251 z m 0,-2.671875 v 2.050781 c 0,0.175781 0,0.199219 -0.10547,0.363281 -0.30469,0.480469 -0.75,0.703125 -1.1836,0.703125 -0.44531,0 -0.79687,-0.257812 -1.04296,-0.644531 -0.25782,-0.410156 -0.29297,-0.972656 -0.29297,-1.3828123 0,-0.3632812 0.0234,-0.9609375 0.3164,-1.4179687 0.21094,-0.3046875 0.58594,-0.6328125 1.125,-0.6328125 0.35157,0 0.76172,0.1523437 1.07813,0.5976562 0.10547,0.1640625 0.10547,0.1875 0.10547,0.3632813 z m 3.50683,-1.1835938 -1.39453,0.1171875 v 0.3046875 c 0.65625,0 0.73828,0.058594 0.73828,0.5507813 v 2.6718745 c 0,0.457031 -0.10547,0.457031 -0.77343,0.457031 v 0.304688 c 0.3164,-0.01172 0.85546,-0.03516 1.10156,-0.03516 0.33984,0 0.6914,0.02344 1.03125,0.03516 V 11.65007 c -0.65625,0 -0.70313,-0.05859 -0.70313,-0.445312 z m 0.0469,-1.734375 c 0,-0.3164062 -0.2461,-0.5273437 -0.52735,-0.5273437 -0.3164,0 -0.52734,0.2695312 -0.52734,0.5273437 0,0.2695313 0.21094,0.5273438 0.52734,0.5273438 0.28125,0 0.52735,-0.1992188 0.52735,-0.5273438 z m 2.06543,2.71875 v 2.6601558 c 0,0.457031 -0.11719,0.457031 -0.78516,0.457031 v 0.304688 c 0.35156,-0.01172 0.85547,-0.03516 1.125,-0.03516 0.25781,0 0.78516,0.02344 1.11328,0.03516 V 11.65007 c -0.65625,0 -0.77343,0 -0.77343,-0.457031 V 9.3649141 c 0,-1.03125 0.71484,-1.59375 1.34765,-1.59375 0.6211,0 0.73828,0.5390625 0.73828,1.1015625 v 2.3203124 c 0,0.457031 -0.11718,0.457031 -0.77343,0.457031 v 0.304688 c 0.33984,-0.01172 0.85546,-0.03516 1.125,-0.03516 0.25781,0 0.77343,0.02344 1.11328,0.03516 V 11.65007 c -0.51563,0 -0.77344,0 -0.78516,-0.304687 V 9.4469453 c 0,-0.8554687 0,-1.171875 -0.30469,-1.5234375 -0.14062,-0.1757812 -0.46875,-0.375 -1.04297,-0.375 -0.72656,0 -1.19531,0.4335938 -1.47656,1.0546875 V 7.5485078 l -1.40625,0.1171875 v 0.3046875 c 0.70313,0 0.78516,0.070312 0.78516,0.5624994 z m 7.74902,2.6601558 c 0.0352,0.398438 0.30469,0.820313 0.77344,0.820313 0.21094,0 0.82031,-0.140625 0.82031,-0.949219 v -0.550781 h -0.24609 v 0.550781 c 0,0.585937 -0.2461,0.644531 -0.36328,0.644531 -0.32813,0 -0.36329,-0.457031 -0.36329,-0.503906 V 9.2125703 c 0,-0.4101562 0,-0.8085937 -0.36328,-1.171875 -0.38672,-0.3867187 -0.8789,-0.5507812 -1.35937,-0.5507812 -0.82031,0 -1.51172,0.46875 -1.51172,1.125 0,0.3046875 0.19922,0.46875 0.45703,0.46875 0.28125,0 0.46875,-0.1992188 0.46875,-0.4570313 0,-0.1171875 -0.0586,-0.4453125 -0.51562,-0.4570312 0.26953,-0.3515625 0.76171,-0.4570313 1.07812,-0.4570313 0.49219,0 1.05469,0.3867188 1.05469,1.2773438 v 0.3632812 c -0.50391,0.035156 -1.20703,0.058594 -1.82813,0.3632813 -0.75,0.3398434 -0.99609,0.8554684 -0.99609,1.2890624 0,0.808594 0.96094,1.054688 1.59375,1.054688 0.65625,0 1.11328,-0.398438 1.30078,-0.867189 z m -0.0703,-1.6289058 v 0.9960938 c 0,0.949218 -0.71485,1.289062 -1.16016,1.289062 -0.49219,0 -0.90234,-0.351562 -0.90234,-0.855469 0,-0.539062 0.42187,-1.371093 2.0625,-1.4296868 z m 3.45703,-1.59375 h 1.42969 V 7.6656953 H 282.056 V 5.8258516 h -0.24609 c -0.0117,0.8203125 -0.31641,1.8867187 -1.28907,1.921875 v 0.2226562 h 0.84375 v 2.7539062 c 0,1.21875 0.92578,1.335938 1.28907,1.335938 0.70312,0 0.98437,-0.703125 0.98437,-1.335938 V 10.15007 h -0.24609 v 0.550782 c 0,0.738281 -0.30469,1.113281 -0.66797,1.113281 -0.66797,0 -0.66797,-0.902344 -0.66797,-1.078125 z m 3.2666,1.4765625 c 0.0586,-1.4882812 0.90235,-1.734375 1.24219,-1.734375 1.01953,0 1.125,1.3476563 1.125,1.734375 z m -0.0117,0.2109375 h 2.78907 c 0.21093,0 0.24609,0 0.24609,-0.2109375 0,-0.984375 -0.53906,-1.9570312 -1.78125,-1.9570312 -1.16016,0 -2.07422,1.03125 -2.07422,2.2734375 0,1.335937 1.04297,2.296875 2.19141,2.296875 1.21875,0 1.66406,-1.101563 1.66406,-1.289063 0,-0.105469 -0.082,-0.117187 -0.12891,-0.117187 -0.0937,0 -0.11718,0.05859 -0.1289,0.140625 -0.35157,1.019531 -1.25391,1.019531 -1.34766,1.019531 -0.50391,0 -0.90234,-0.292969 -1.125,-0.667969 -0.30469,-0.480469 -0.30469,-1.136719 -0.30469,-1.4882808 z m 7.68457,-4.7929687 c 0.0586,-0.1289063 0.0586,-0.1640625 0.0586,-0.1875 0,-0.1054688 -0.0937,-0.1992188 -0.19922,-0.1992188 -0.14063,0 -0.1875,0.1054688 -0.21094,0.1992188 l -3.39844,9.3867185 c -0.0469,0.128906 -0.0469,0.164062 -0.0469,0.1875 0,0.105469 0.082,0.199219 0.19922,0.199219 0.14062,0 0.17578,-0.105469 0.19922,-0.199219 z m 2.53125,6.5624995 c 0,-0.292969 -0.23437,-0.527344 -0.52734,-0.527344 -0.28125,0 -0.52734,0.234375 -0.52734,0.527344 0,0.292969 0.24609,0.527344 0.52734,0.527344 0.29297,0 0.52734,-0.234375 0.52734,-0.527344 z m 2.01856,-1.6406245 c 0,-1.6289063 0.82031,-2.0507813 1.34765,-2.0507813 0.0937,0 0.71485,0.011719 1.06641,0.375 -0.41016,0.023437 -0.46875,0.328125 -0.46875,0.4570313 0,0.2578125 0.1875,0.4570312 0.45703,0.4570312 0.25781,0 0.45703,-0.1640625 0.45703,-0.46875 0,-0.6796875 -0.75,-1.0664062 -1.52343,-1.0664062 -1.24219,0 -2.15625,1.078125 -2.15625,2.3085937 0,1.2773438 0.98437,2.2617188 2.14453,2.2617188 1.33593,0 1.65234,-1.195313 1.65234,-1.289063 0,-0.105469 -0.10547,-0.105469 -0.12891,-0.105469 -0.0937,0 -0.11718,0.04687 -0.1289,0.105469 -0.29297,0.925781 -0.9375,1.042969 -1.3125,1.042969 -0.52735,0 -1.40625,-0.421875 -1.40625,-2.0273435 z m 7.9541,0.035156 c 0,-1.2773437 -0.99609,-2.3320312 -2.19141,-2.3320312 -1.2539,0 -2.21484,1.0898437 -2.21484,2.3320312 0,1.2890625 1.03125,2.2382815 2.20312,2.2382815 1.20704,0 2.20313,-0.972657 2.20313,-2.2382815 z m -2.19141,1.9921875 c -0.43359,0 -0.86718,-0.210938 -1.13672,-0.667969 -0.25781,-0.433594 -0.25781,-1.042969 -0.25781,-1.4062497 0,-0.3867188 0,-0.9257813 0.2461,-1.359375 0.26953,-0.4570313 0.73828,-0.6679688 1.13671,-0.6679688 0.4336,0 0.86719,0.2226563 1.125,0.6445313 0.25782,0.4335937 0.25782,1.0078125 0.25782,1.3828125 0,0.3632807 0,0.9023437 -0.22266,1.3359377 -0.22266,0.445312 -0.65625,0.738281 -1.14844,0.738281 z m 6.55078,-0.410156 v 0.65625 l 1.46485,-0.105469 V 11.65007 c -0.70313,0 -0.77344,-0.07031 -0.77344,-0.5625 V 5.0406953 l -1.44141,0.1054688 v 0.3164062 c 0.70313,0 0.78516,0.070312 0.78516,0.5507813 v 2.15625 c -0.29297,-0.3632813 -0.72656,-0.6210938 -1.26562,-0.6210938 -1.17188,0 -2.21485,0.984375 -2.21485,2.2617188 0,1.2656254 0.97266,2.2500004 2.10938,2.2500004 0.64453,0 1.08984,-0.339844 1.33593,-0.656251 z m 0,-2.6718752 v 2.0507812 c 0,0.175781 0,0.199219 -0.10546,0.363281 -0.30469,0.480469 -0.75,0.703125 -1.1836,0.703125 -0.44531,0 -0.79687,-0.257812 -1.04297,-0.644531 -0.25781,-0.410156 -0.29297,-0.972656 -0.29297,-1.3828125 0,-0.3632812 0.0234,-0.9609375 0.31641,-1.4179687 0.21094,-0.3046875 0.58594,-0.6328125 1.125,-0.6328125 0.35156,0 0.76172,0.1523437 1.07813,0.5976562 0.10546,0.1640625 0.10546,0.1875 0.10546,0.3632813 z m 2.86231,0.7148437 c 0.0586,-1.4882812 0.90234,-1.734375 1.24219,-1.734375 1.01953,0 1.125,1.3476563 1.125,1.734375 z m -0.0117,0.2109375 h 2.78906 c 0.21094,0 0.2461,0 0.2461,-0.2109375 0,-0.984375 -0.53907,-1.9570312 -1.78125,-1.9570312 -1.16016,0 -2.07422,1.03125 -2.07422,2.2734375 0,1.3359372 1.04297,2.2968752 2.1914,2.2968752 1.21875,0 1.66407,-1.101563 1.66407,-1.289063 0,-0.105469 -0.082,-0.117187 -0.12891,-0.117187 -0.0937,0 -0.11719,0.05859 -0.12891,0.140625 -0.35156,1.019531 -1.2539,1.019531 -1.34765,1.019531 -0.50391,0 -0.90235,-0.292969 -1.125,-0.667969 -0.30469,-0.480469 -0.30469,-1.136719 -0.30469,-1.488281 z m 10.16895,-0.9609375 c 0.15234,0 0.33984,0 0.33984,-0.1992187 0,-0.1992188 -0.1875,-0.1992188 -0.32813,-0.1992188 h -5.96484 c -0.14062,0 -0.32812,0 -0.32812,0.1992188 0,0.1992187 0.1875,0.1992187 0.33984,0.1992187 z m 0.0117,1.9335935 c 0.14063,0 0.32813,0 0.32813,-0.199219 0,-0.199218 -0.1875,-0.199218 -0.33984,-0.199218 h -5.94141 c -0.15234,0 -0.33984,0 -0.33984,0.199218 0,0.199219 0.1875,0.199219 0.32812,0.199219 z m 3.82325,-5.050781 c 0,-0.234375 0,-0.2578125 -0.23438,-0.2578125 -0.60937,0.6328125 -1.48828,0.6328125 -1.80469,0.6328125 v 0.3164063 c 0.19922,0 0.78516,0 1.30079,-0.2578125 v 5.1562502 c 0,0.351562 -0.0352,0.480468 -0.92579,0.480468 h -0.3164 v 0.304688 c 0.35156,-0.03516 1.20703,-0.03516 1.60547,-0.03516 0.39843,0 1.26562,0 1.61718,0.03516 V 11.65007 h -0.3164 c -0.90235,0 -0.92578,-0.117187 -0.92578,-0.480468 z m 0,0"
       style="fill:#000000;fill-opacity:1;fill-rule:nonzero;stroke:none"
       aria-label="/tikz/,/tikz/graphs/&#10;conversions/canvascoordinate/.code=1,conversions/coordinate/.code=1"
       transform="matrix(1.3333333,0,0,1.3333333,19.925333,9.9626667)" />
  </g>
</svg>
