<?xml version="1.0" encoding="UTF-8" standalone="no"?>
<!-- Created with Inkscape (http://www.inkscape.org/) -->

<svg
   version="1.1"
   id="svg1"
   width="91.98848"
   height="54.653984"
   viewBox="0 0 91.98848 54.653984"
   xmlns="http://www.w3.org/2000/svg"
   xmlns:svg="http://www.w3.org/2000/svg">
  <defs
     id="defs1" />
  <g
     id="g1"
     transform="translate(6.6649663e-4,1.4646434e-4)">
    <path
       id="path1"
       d="M -5.81125,-5.46532 H 5.81126 V 5.46531 H -5.81125 Z"
       style="fill:none;stroke:#000000;stroke-width:0.3985;stroke-linecap:butt;stroke-linejoin:miter;stroke-miterlimit:10;stroke-dasharray:none;stroke-opacity:1"
       transform="matrix(1.3333333,0,0,-1.3333333,8.0133333,9.3053333)" />
    <path
       id="path2"
       d="m 3.3149609,-0.76267188 c 0.035156,0.3984375 0.3046875,0.8203125 0.7734375,0.8203125 0.2109375,0 0.8203125,-0.140625 0.8203125,-0.94921875 V -1.4423594 H 4.6626172 v 0.55078127 c 0,0.5859375 -0.2460938,0.64453125 -0.3632813,0.64453125 -0.328125,0 -0.3632812,-0.45703125 -0.3632812,-0.50390625 V -2.7431406 c 0,-0.4101563 0,-0.8085938 -0.3632813,-1.171875 -0.3867187,-0.3867188 -0.8789062,-0.5507813 -1.359375,-0.5507813 -0.8203125,0 -1.51171871,0.46875 -1.51171871,1.125 0,0.3046875 0.19921875,0.46875 0.45703121,0.46875 0.28125,0 0.46875,-0.1992187 0.46875,-0.4570312 0,-0.1171875 -0.058594,-0.4453125 -0.515625,-0.4570313 0.2695313,-0.3515625 0.7617188,-0.4570312 1.078125,-0.4570312 0.4921875,0 1.0546875,0.3867187 1.0546875,1.2773437 v 0.3632813 c -0.5039062,0.035156 -1.2070312,0.058594 -1.828125,0.3632812 -0.74999996,0.3398438 -0.99609371,0.8554688 -0.99609371,1.28906252 0,0.80859375 0.96093751,1.0546875 1.59375001,1.0546875 0.65625,0 1.1132812,-0.3984375 1.3007812,-0.8671875 z M 3.2446484,-2.3915781 v 0.9960937 c 0,0.94921877 -0.7148437,1.28906252 -1.1601562,1.28906252 -0.4921875,0 -0.9023438,-0.3515625 -0.9023438,-0.85546875 0,-0.53906247 0.421875,-1.37109377 2.0625,-1.42968747 z m 0,0"
       style="fill:#000000;fill-opacity:1;fill-rule:nonzero;stroke:none"
       aria-label="a"
       transform="matrix(1.3333333,0,0,1.3333333,4.6933333,12.165333)" />
    <path
       id="path3"
       d="M 22.25879,-6.77985 H 34.4348 V 6.77986 H 22.25879 Z"
       style="fill:none;stroke:#000000;stroke-width:0.3985;stroke-linecap:butt;stroke-linejoin:miter;stroke-miterlimit:10;stroke-dasharray:none;stroke-opacity:1"
       transform="matrix(1.3333333,0,0,-1.3333333,8.0133333,9.3053333)" />
    <path
       id="path4"
       d="m 1.7098281,-3.7495234 v -3.1640625 l -1.42968748,0.1054687 v 0.3164063 c 0.69140625,0 0.77343748,0.070312 0.77343748,0.5507812 V 4.765625e-4 H 1.2996719 C 1.3113906,-0.01124219 1.3934219,-0.15186719 1.6629531,-0.62061719 c 0.1523438,0.234375 0.5625,0.7265625 1.3007813,0.7265625 1.1835937,0 2.2265625,-0.97265625 2.2265625,-2.26171871 0,-1.265625 -0.9726563,-2.25 -2.109375,-2.25 -0.7851563,0 -1.2070313,0.46875 -1.3710938,0.65625 z m 0.035156,2.6132812 v -2.0507812 c 0,-0.1875 0,-0.1992188 0.1054687,-0.3632813 0.3867188,-0.5507812 0.9375,-0.6328125 1.171875,-0.6328125 0.4570313,0 0.8085938,0.2578125 1.0546875,0.6328125 0.2578125,0.4101563 0.28125,0.984375 0.28125,1.3945313 0,0.3632812 -0.011719,0.9609375 -0.3046875,1.40624996 -0.2109375,0.31640625 -0.5859375,0.64453125 -1.125,0.64453125 -0.4453125,0 -0.8085937,-0.24609375 -1.0429687,-0.609375 -0.140625,-0.2109375 -0.140625,-0.24609375 -0.140625,-0.42187501 z m 0,0"
       style="fill:#000000;fill-opacity:1;fill-rule:nonzero;stroke:none"
       aria-label="b"
       transform="matrix(1.3333333,0,0,1.3333333,42.118667,13.917333)" />
    <path
       id="path5"
       d="M 22.81229,-33.81213 H 33.88131 V -22.8815 H 22.81229 Z"
       style="fill:none;stroke:#000000;stroke-width:0.3985;stroke-linecap:butt;stroke-linejoin:miter;stroke-miterlimit:10;stroke-dasharray:none;stroke-opacity:1"
       transform="matrix(1.3333333,0,0,-1.3333333,8.0133333,9.3053333)" />
    <path
       id="path6"
       d="m 1.1587578,-2.1672656 c 0,-1.6289063 0.8203125,-2.0507813 1.3476563,-2.0507813 0.09375,0 0.7148437,0.011719 1.0664062,0.375 -0.4101562,0.023437 -0.46875,0.328125 -0.46875,0.4570313 0,0.2578125 0.1875,0.4570312 0.4570313,0.4570312 0.2578125,0 0.4570312,-0.1640625 0.4570312,-0.46875 0,-0.6796875 -0.75,-1.0664062 -1.5234375,-1.0664062 -1.2421875,0 -2.15624999,1.078125 -2.15624999,2.3085937 0,1.27734377 0.98437499,2.26171877 2.14453129,2.26171877 1.3359375,0 1.6523437,-1.19531247 1.6523437,-1.28906247 0,-0.1054688 -0.1054687,-0.1054688 -0.1289062,-0.1054688 -0.09375,0 -0.1171875,0.046875 -0.1289063,0.1054688 -0.2929687,0.92578122 -0.9375,1.04296872 -1.3125,1.04296872 -0.5273437,0 -1.40625,-0.421875 -1.40625,-2.02734372 z m 0,0"
       style="fill:#000000;fill-opacity:1;fill-rule:nonzero;stroke:none"
       aria-label="c"
       transform="matrix(1.3333333,0,0,1.3333333,42.857333,49.96)" />
    <path
       id="path7"
       d="M 6.0105,0 H 21.60126"
       style="fill:none;stroke:#000000;stroke-width:0.3985;stroke-linecap:butt;stroke-linejoin:miter;stroke-miterlimit:10;stroke-dasharray:none;stroke-opacity:1"
       transform="matrix(1.3333333,0,0,-1.3333333,8.0133333,9.3053333)" />
    <path
       id="path8"
       d="M -1.19551,1.59401 C -1.09587,0.99626 0,0.09961 0.29886,0 0,-0.09961 -1.09587,-0.99626 -1.19551,-1.59401"
       style="fill:none;stroke:#000000;stroke-width:0.31879;stroke-linecap:round;stroke-linejoin:round;stroke-miterlimit:10;stroke-dasharray:none;stroke-opacity:1"
       transform="matrix(1.3333333,0,0,-1.3333333,36.815013,9.3053333)" />
    <path
       id="path9"
       d="M 5.6636,-5.66457 22.35904,-22.35822"
       style="fill:none;stroke:#000000;stroke-width:0.3985;stroke-linecap:butt;stroke-linejoin:miter;stroke-miterlimit:10;stroke-dasharray:none;stroke-opacity:1"
       transform="matrix(1.3333333,0,0,-1.3333333,8.0133333,9.3053333)" />
    <path
       id="path10"
       d="M -1.19551,1.59401 C -1.09587,0.99626 0,0.09961 0.29886,0 0,-0.09961 -1.09587,-0.99626 -1.19551,-1.59401"
       style="fill:none;stroke:#000000;stroke-width:0.31879;stroke-linecap:round;stroke-linejoin:round;stroke-miterlimit:10;stroke-dasharray:none;stroke-opacity:1"
       transform="matrix(0.94285333,0.94273333,0.94273333,-0.94285333,37.82536,39.116267)" />
    <path
       id="path11"
       d="M 50.6056,-6.77985 H 62.78161 V 6.77986 H 50.6056 Z"
       style="fill:none;stroke:#000000;stroke-width:0.3985;stroke-linecap:butt;stroke-linejoin:miter;stroke-miterlimit:10;stroke-dasharray:none;stroke-opacity:1"
       transform="matrix(1.3333333,0,0,-1.3333333,8.0133333,9.3053333)" />
    <path
       id="path12"
       d="m 3.7847031,-0.55030469 v 0.65625 L 5.2495469,4.765625e-4 V -0.30421094 c -0.703125,0 -0.7734375,-0.0703125 -0.7734375,-0.5625 V -6.9135859 l -1.4414063,0.1054687 v 0.3164063 c 0.703125,0 0.7851563,0.070312 0.7851563,0.5507812 v 2.15625 c -0.2929688,-0.3632812 -0.7265625,-0.6210937 -1.265625,-0.6210937 -1.171875,0 -2.21484377,0.984375 -2.21484377,2.2617187 0,1.26562501 0.97265627,2.25000001 2.10937497,2.25000001 0.6445313,0 1.0898438,-0.33984375 1.3359375,-0.65625 z m 0,-2.67187501 v 2.0507813 c 0,0.17578121 0,0.19921871 -0.1054687,0.36328121 -0.3046875,0.48046875 -0.75,0.703125 -1.1835938,0.703125 -0.4453125,0 -0.796875,-0.2578125 -1.0429687,-0.64453125 C 1.1948594,-1.1596797 1.1597031,-1.7221797 1.1597031,-2.1323359 c 0,-0.3632813 0.023437,-0.9609375 0.3164063,-1.4179688 0.2109375,-0.3046875 0.5859375,-0.6328125 1.125,-0.6328125 0.3515625,0 0.7617187,0.1523438 1.078125,0.5976563 0.1054687,0.1640625 0.1054687,0.1875 0.1054687,0.3632812 z m 0,0"
       style="fill:#000000;fill-opacity:1;fill-rule:nonzero;stroke:none"
       aria-label="d"
       transform="matrix(1.3333333,0,0,1.3333333,79.914667,13.917333)" />
    <path
       id="path13"
       d="M 34.63406,0 H 49.94807"
       style="fill:none;stroke:#000000;stroke-width:0.3985;stroke-linecap:butt;stroke-linejoin:miter;stroke-miterlimit:10;stroke-dasharray:none;stroke-opacity:1"
       transform="matrix(1.3333333,0,0,-1.3333333,8.0133333,9.3053333)" />
    <path
       id="path14"
       d="M -1.19551,1.59401 C -1.09587,0.99626 0,0.09961 0.29886,0 0,-0.09961 -1.09587,-0.99626 -1.19551,-1.59401"
       style="fill:none;stroke:#000000;stroke-width:0.31879;stroke-linecap:round;stroke-linejoin:round;stroke-miterlimit:10;stroke-dasharray:none;stroke-opacity:1"
       transform="matrix(1.3333333,0,0,-1.3333333,74.61076,9.3053333)" />
    <path
       id="path15"
       d="M 34.00981,-22.68222 50.0823,-6.61032"
       style="fill:none;stroke:#000000;stroke-width:0.3985;stroke-linecap:butt;stroke-linejoin:miter;stroke-miterlimit:10;stroke-dasharray:none;stroke-opacity:1"
       transform="matrix(1.3333333,0,0,-1.3333333,8.0133333,9.3053333)" />
    <path
       id="path16"
       d="M -1.19551,1.59401 C -1.09587,0.99626 0,0.09961 0.29886,0 0,-0.09961 -1.09587,-0.99626 -1.19551,-1.59401"
       style="fill:none;stroke:#000000;stroke-width:0.31879;stroke-linecap:round;stroke-linejoin:round;stroke-miterlimit:10;stroke-dasharray:none;stroke-opacity:1"
       transform="matrix(0.9428,-0.94277333,-0.94277333,-0.9428,74.789733,18.119093)" />
  </g>
</svg>
