<?xml version="1.0" encoding="UTF-8" standalone="no"?>
<!-- Created with Inkscape (http://www.inkscape.org/) -->

<svg
   version="1.1"
   id="svg1"
   width="328.52817"
   height="102.46911"
   viewBox="0 0 328.52817 102.46911"
   xmlns="http://www.w3.org/2000/svg"
   xmlns:svg="http://www.w3.org/2000/svg">
  <defs
     id="defs1" />
  <g
     id="g1"
     transform="translate(-2.5473607,-4.1445314)">
    <path
       id="path1"
       d="M 9.71223,0 C 9.71223,5.36398 5.36398,9.71223 0,9.71223 -5.36398,9.71223 -9.71223,5.36398 -9.71223,0 c 0,-5.36398 4.34825,-9.71223 9.71223,-9.71223 5.36398,0 9.71223,4.34825 9.71223,9.71223 z"
       style="fill:none;stroke:#000000;stroke-width:0.3985;stroke-linecap:butt;stroke-linejoin:miter;stroke-miterlimit:10;stroke-dasharray:none;stroke-opacity:1"
       transform="matrix(1.3333333,0,0,-1.3333333,15.762667,17.68)" />
    <path
       id="path2"
       d="M 3.960875,-6.9374375 C 3.914,-7.0663438 3.8905625,-7.1366563 3.7382187,-7.1366563 c -0.1640625,0 -0.1875,0.058594 -0.2460937,0.1992188 l -2.0625,5.96484375 C 1.2538437,-0.4686875 0.85540625,-0.31634375 0.31634375,-0.304625 V 6.25e-5 c 0.234375,-0.01171875 0.65625,-0.03515625 1.01953125,-0.03515625 0.3046875,0 0.8203125,0.0234375 1.1484375,0.03515625 V -0.304625 c -0.5039063,0 -0.75,-0.2578125 -0.75,-0.515625 0,-0.0234375 0.011719,-0.12890625 0.023437,-0.140625 l 0.4570312,-1.3125 h 2.4609375 l 0.5273438,1.5234375 c 0.011719,0.046875 0.023437,0.10546875 0.023437,0.140625 0,0.3046875 -0.5507813,0.3046875 -0.8203125,0.3046875 V 6.25e-5 C 4.75775,-0.03509375 5.460875,-0.03509375 5.835875,-0.03509375 c 0.4335937,0 0.890625,0.01171875 1.3007812,0.03515625 V -0.304625 H 6.960875 c -0.5976563,0 -0.7382813,-0.0703125 -0.84375,-0.3984375 z m -0.5273438,1.125 1.125,3.234375 H 2.32025 Z m 0,0"
       style="fill:#000000;fill-opacity:1;fill-rule:nonzero;stroke:none"
       aria-label="A"
       transform="matrix(1.3333333,0,0,1.3333333,10.781333,22.218667)" />
    <path
       id="path3"
       d="m 123.01244,0 c 0,5.31589 -4.30927,9.62515 -9.62516,9.62515 -5.31588,0 -9.62516,-4.30926 -9.62516,-9.62515 0,-5.31589 4.30928,-9.62515 9.62516,-9.62515 5.31589,0 9.62516,4.30926 9.62516,9.62515 z"
       style="fill:none;stroke:#000000;stroke-width:0.3985;stroke-linecap:butt;stroke-linejoin:miter;stroke-miterlimit:10;stroke-dasharray:none;stroke-opacity:1"
       transform="matrix(1.3333333,0,0,-1.3333333,15.762667,17.68)" />
    <path
       id="path4"
       d="m 0.56382813,-3.4100938 c 0,2.0625 1.60546877,3.63281255 3.45703127,3.63281255 1.6289062,0 2.6015625,-1.38281255 2.6015625,-2.54296875 0,-0.1054688 0,-0.1757813 -0.1289063,-0.1757813 -0.1054687,0 -0.1054687,0.070312 -0.1171875,0.1640625 -0.082031,1.42968755 -1.1484375,2.2382813 -2.2265625,2.2382813 -0.609375,0 -2.5664062,-0.33984375 -2.5664062,-3.3046875 0,-2.9765625 1.9453125,-3.3164063 2.5546875,-3.3164063 1.078125,0 1.96875,0.9023438 2.1679687,2.3671875 0.023437,0.1289063 0.023437,0.1640625 0.1640625,0.1640625 0.1523438,0 0.1523438,-0.035156 0.1523438,-0.234375 v -2.3671875 c 0,-0.1640625 0,-0.234375 -0.1054688,-0.234375 -0.035156,0 -0.082031,0 -0.1640625,0.1171875 L 5.8607031,-6.164 c -0.375,-0.3632813 -0.8789062,-0.8554688 -1.8398437,-0.8554688 -1.8632813,0 -3.45703127,1.5820313 -3.45703127,3.609375 z m 0,0"
       style="fill:#000000;fill-opacity:1;fill-rule:nonzero;stroke:none"
       aria-label="C"
       transform="matrix(1.3333333,0,0,1.3333333,162.14667,22.218667)" />
    <path
       id="path5"
       d="m 9.91148,0 h 93.65139"
       style="fill:none;stroke:#000000;stroke-width:0.3985;stroke-linecap:butt;stroke-linejoin:miter;stroke-miterlimit:10;stroke-dasharray:none;stroke-opacity:1"
       transform="matrix(1.3333333,0,0,-1.3333333,15.762667,17.68)" />
    <path
       id="path6"
       d="m 2.9300703,-6.3747891 c 0,-0.234375 0,-0.2578125 -0.234375,-0.2578125 -0.609375,0.6328125 -1.4882812,0.6328125 -1.80468749,0.6328125 v 0.3164063 c 0.19921879,0 0.78515629,0 1.30078129,-0.2578125 v 5.15624999 c 0,0.3515625 -0.035156,0.48046875 -0.9257813,0.48046875 H 0.94960156 V 2.109375e-4 C 1.3011641,-0.03494531 2.1566328,-0.03494531 2.5550703,-0.03494531 c 0.3984375,0 1.265625,0 1.6171875,0.0351562475 V -0.30447656 H 3.8558516 c -0.9023438,0 -0.9257813,-0.1171875 -0.9257813,-0.48046875 z m 0,0"
       style="fill:#000000;fill-opacity:1;fill-rule:nonzero;stroke:none"
       aria-label="1"
       transform="matrix(1.3333333,0,0,1.3333333,88.089333,12.988)" />
    <path
       id="path7"
       d="m 236.2854,0 c 0,5.25275 -4.25809,9.51083 -9.51083,9.51083 -5.25277,0 -9.51085,-4.25808 -9.51085,-9.51083 0,-5.25275 4.25808,-9.51083 9.51085,-9.51083 5.25274,0 9.51083,4.25808 9.51083,9.51083 z"
       style="fill:none;stroke:#000000;stroke-width:0.3985;stroke-linecap:butt;stroke-linejoin:miter;stroke-miterlimit:10;stroke-dasharray:none;stroke-opacity:1"
       transform="matrix(1.3333333,0,0,-1.3333333,15.762667,17.68)" />
    <path
       id="path8"
       d="m 1.3604766,-0.773375 c 0,0.3515625 -0.023437,0.46875 -0.79687504,0.46875 h -0.234375 V 6.25e-5 H 6.0831328 L 6.4932891,-2.5663438 H 6.2471953 C 6.0011016,-1.0311875 5.7667266,-0.304625 4.0557891,-0.304625 H 2.7315703 c -0.46875,0 -0.4921875,-0.0703125 -0.4921875,-0.3984375 v -2.6601563 h 0.9023438 c 0.9609375,0 1.078125,0.3164063 1.078125,1.1601563 H 4.4659453 V -4.8397813 H 4.2198516 c 0,0.8554688 -0.1171875,1.1601563 -1.078125,1.1601563 H 2.2393828 V -6.07025 c 0,-0.328125 0.023437,-0.3984375 0.4921875,-0.3984375 h 1.2890625 c 1.5234375,0 1.7929688,0.5507812 1.9453125,1.9335937 H 6.2120391 L 5.9425078,-6.773375 H 0.32922656 v 0.3046875 h 0.234375 c 0.77343754,0 0.79687504,0.1171875 0.79687504,0.46875 z m 0,0"
       style="fill:#000000;fill-opacity:1;fill-rule:nonzero;stroke:none"
       aria-label="E"
       transform="matrix(1.3333333,0,0,1.3333333,313.604,22.218667)" />
    <path
       id="path9"
       d="m 123.21169,0 h 93.85278"
       style="fill:none;stroke:#000000;stroke-width:0.3985;stroke-linecap:butt;stroke-linejoin:miter;stroke-miterlimit:10;stroke-dasharray:none;stroke-opacity:1"
       transform="matrix(1.3333333,0,0,-1.3333333,15.762667,17.68)" />
    <path
       id="path10"
       d="m 2.8943281,-3.5036953 c 0.8085938,-0.2695313 1.3945313,-0.9726563 1.3945313,-1.7578125 0,-0.8203125 -0.8789063,-1.3710938 -1.8398438,-1.3710938 -1.0078125,0 -1.75781247,0.5976563 -1.75781247,1.3476563 0,0.3398437 0.2109375,0.5273437 0.50390627,0.5273437 0.3046875,0 0.5039062,-0.2226562 0.5039062,-0.515625 0,-0.4921875 -0.46875,-0.4921875 -0.609375,-0.4921875 0.3046875,-0.4921875 0.9609375,-0.6210937 1.3242188,-0.6210937 0.4101562,0 0.9492187,0.2226562 0.9492187,1.1132812 0,0.1289063 -0.011719,0.703125 -0.2695312,1.1367188 -0.3046875,0.4804687 -0.6445313,0.515625 -0.890625,0.515625 -0.082031,0.011719 -0.3164063,0.035156 -0.3867188,0.035156 -0.082031,0.011719 -0.1523437,0.023437 -0.1523437,0.1171875 0,0.1171875 0.070312,0.1171875 0.234375,0.1171875 h 0.4453125 c 0.8085937,0 1.1835937,0.6679688 1.1835937,1.6523438 0,1.34765624 -0.6914062,1.64062499 -1.125,1.64062499 -0.4335937,0 -1.171875,-0.17578125 -1.52343747,-0.76171875 0.35156247,0.0585938 0.65624997,-0.1640625 0.65624997,-0.53906254 0,-0.3632812 -0.2695312,-0.5625 -0.56249997,-0.5625 -0.234375,0 -0.55078125,0.140625 -0.55078125,0.5742188 0,0.91406249 0.92578122,1.57031249 2.00390622,1.57031249 1.21875,0 2.1210938,-0.9140625 2.1210938,-1.92187499 0,-0.8203125 -0.6210938,-1.59375 -1.6523438,-1.8046873 z m 0,0"
       style="fill:#000000;fill-opacity:1;fill-rule:nonzero;stroke:none"
       aria-label="3"
       transform="matrix(1.3333333,0,0,1.3333333,239.28933,12.988)" />
    <path
       id="path11"
       d="m 9.58113,-56.69363 c 0,5.29158 -4.28955,9.58114 -9.58113,9.58114 -5.29158,0 -9.58113,-4.28956 -9.58113,-9.58114 0,-5.29158 4.28955,-9.58114 9.58113,-9.58114 5.29158,0 9.58113,4.28956 9.58113,9.58114 z"
       style="fill:none;stroke:#000000;stroke-width:0.3985;stroke-linecap:butt;stroke-linejoin:miter;stroke-miterlimit:10;stroke-dasharray:none;stroke-opacity:1"
       transform="matrix(1.3333333,0,0,-1.3333333,15.762667,17.68)" />
    <path
       id="path12"
       d="m 2.2157891,-3.6450859 v -2.4492188 c 0,-0.328125 0.011719,-0.3984375 0.4804687,-0.3984375 h 1.2421875 c 0.9609375,0 1.3125,0.84375 1.3125,1.3710938 0,0.6328125 -0.4921875,1.4765625 -1.59375,1.4765625 z m 2.34375,0.09375 c 0.9726562,-0.1992188 1.6523437,-0.8320313 1.6523437,-1.5703125 0,-0.8671875 -0.9140625,-1.6875 -2.203125,-1.6875 H 0.36422656 v 0.3164062 h 0.234375 c 0.76171874,0 0.78515624,0.1054688 0.78515624,0.46875 v 5.25000001 c 0,0.3515625 -0.023437,0.46875 -0.78515624,0.46875 h -0.234375 V -5.546875e-4 H 4.2665703 c 1.3242188,0 2.2148438,-0.8906250025 2.2148438,-1.8281250125 0,-0.8671875 -0.8085938,-1.6054687 -1.921875,-1.7226562 z m -0.609375,3.24609371 H 2.6962578 c -0.46875,0 -0.4804687,-0.0703125 -0.4804687,-0.3984375 V -3.4224297 h 1.875 c 0.984375,0 1.3945312,0.9257813 1.3945312,1.59375 0,0.703125 -0.515625,1.52343751 -1.5351562,1.52343751 z m 0,0"
       style="fill:#000000;fill-opacity:1;fill-rule:nonzero;stroke:none"
       aria-label="B"
       transform="matrix(1.3333333,0,0,1.3333333,11.057333,97.809333)" />
    <path
       id="path13"
       d="m 123.19463,-56.69363 c 0,5.41652 -4.39084,9.80735 -9.80735,9.80735 -5.41652,0 -9.80734,-4.39083 -9.80734,-9.80735 0,-5.41651 4.39082,-9.80735 9.80734,-9.80735 5.41651,0 9.80735,4.39084 9.80735,9.80735 z"
       style="fill:none;stroke:#000000;stroke-width:0.3985;stroke-linecap:butt;stroke-linejoin:miter;stroke-miterlimit:10;stroke-dasharray:none;stroke-opacity:1"
       transform="matrix(1.3333333,0,0,-1.3333333,15.762667,17.68)" />
    <path
       id="path14"
       d="m 0.35288281,-6.8091484 v 0.3164062 h 0.234375 c 0.77343749,0 0.78515629,0.1054688 0.78515629,0.46875 v 5.25000001 c 0,0.3515625 -0.011719,0.46875 -0.78515629,0.46875 h -0.234375 V -5.546875e-4 H 3.9974141 c 1.6757812,0 3.046875,-1.4765625125 3.046875,-3.3515625125 0,-1.8867187 -1.3476563,-3.4570312 -3.046875,-3.4570312 z m 2.36718749,6.50390621 c -0.46875,0 -0.4921875,-0.0703125 -0.4921875,-0.3984375 V -6.0943047 c 0,-0.328125 0.023437,-0.3984375 0.4921875,-0.3984375 h 0.9960938 c 0.6210937,0 1.3007812,0.2109375 1.8164062,0.9257813 0.421875,0.5859375 0.515625,1.4414062 0.515625,2.2148437 0,1.1132813 -0.1875,1.7109375 -0.5507812,2.1914063 -0.1992188,0.26953121 -0.7617188,0.85546871 -1.7695313,0.85546871 z m 0,0"
       style="fill:#000000;fill-opacity:1;fill-rule:nonzero;stroke:none"
       aria-label="D"
       transform="matrix(1.3333333,0,0,1.3333333,161.86933,97.809333)" />
    <path
       id="path15"
       d="m 9.78038,-56.69363 h 93.6003"
       style="fill:none;stroke:#000000;stroke-width:0.3985;stroke-linecap:butt;stroke-linejoin:miter;stroke-miterlimit:10;stroke-dasharray:none;stroke-opacity:1"
       transform="matrix(1.3333333,0,0,-1.3333333,15.762667,17.68)" />
    <path
       id="path16"
       d="m 2.9307969,-6.3754219 c 0,-0.234375 0,-0.2578125 -0.234375,-0.2578125 -0.609375,0.6328125 -1.4882813,0.6328125 -1.80468752,0.6328125 v 0.3164063 c 0.19921872,0 0.78515622,0 1.30078122,-0.2578125 v 5.15624997 c 0,0.3515625 -0.035156,0.48046875 -0.9257812,0.48046875 H 0.95032813 V -4.21875e-4 C 1.3018906,-0.03557813 2.1573594,-0.03557813 2.5557969,-0.03557813 c 0.3984375,0 1.265625,0 1.6171875,0.035156255 V -0.30510938 H 3.8565781 c -0.9023437,0 -0.9257812,-0.1171875 -0.9257812,-0.48046875 z m 0,0"
       style="fill:#000000;fill-opacity:1;fill-rule:nonzero;stroke:none"
       aria-label="1"
       transform="matrix(1.3333333,0,0,1.3333333,87.881333,106.524)" />
    <path
       id="path17"
       d="m 236.1813,-56.69363 c 0,5.19526 -4.21148,9.40675 -9.40673,9.40675 -5.19527,0 -9.40674,-4.21149 -9.40674,-9.40675 0,-5.19526 4.21147,-9.40674 9.40674,-9.40674 5.19525,0 9.40673,4.21148 9.40673,9.40674 z"
       style="fill:none;stroke:#000000;stroke-width:0.3985;stroke-linecap:butt;stroke-linejoin:miter;stroke-miterlimit:10;stroke-dasharray:none;stroke-opacity:1"
       transform="matrix(1.3333333,0,0,-1.3333333,15.762667,17.68)" />
    <path
       id="path18"
       d="M 5.8005781,-6.7739922 H 0.32792188 v 0.3046875 h 0.234375 c 0.77343752,0 0.79687502,0.1171875 0.79687502,0.46875 v 5.22656251 c 0,0.3515625 -0.023437,0.46875 -0.79687502,0.46875 h -0.234375 V -5.546875e-4 C 0.67948438,-0.03571094 1.4529219,-0.03571094 1.8396406,-0.03571094 c 0.4101563,0 1.3125,0 1.6757813,0.0351562525 V -0.30524219 h -0.328125 c -0.9492188,0 -0.9492188,-0.12890625 -0.9492188,-0.48046875 V -3.2349297 h 0.8554688 c 0.9609375,0 1.0546875,0.3164063 1.0546875,1.1601563 H 4.4060469 V -4.7114922 H 4.1482344 c 0,0.8320313 -0.09375,1.1601563 -1.0546875,1.1601563 H 2.2380781 v -2.5195313 c 0,-0.328125 0.023437,-0.3984375 0.4921875,-0.3984375 h 1.1953125 c 1.4882813,0 1.7460938,0.5625 1.8984375,1.9335938 h 0.2578125 z m 0,0"
       style="fill:#000000;fill-opacity:1;fill-rule:nonzero;stroke:none"
       aria-label="F"
       transform="matrix(1.3333333,0,0,1.3333333,313.78933,97.809333)" />
    <path
       id="path19"
       d="m 123.39388,-56.69363 h 93.77468"
       style="fill:none;stroke:#000000;stroke-width:0.3985;stroke-linecap:butt;stroke-linejoin:miter;stroke-miterlimit:10;stroke-dasharray:none;stroke-opacity:1"
       transform="matrix(1.3333333,0,0,-1.3333333,15.762667,17.68)" />
    <path
       id="path20"
       d="m 2.9300391,-1.6410469 v 0.86718752 c 0,0.3515625 -0.023437,0.46875 -0.7617188,0.46875 H 1.9573828 v 0.304687505 c 0.4101563,-0.035156255 0.9375,-0.035156255 1.3476563,-0.035156255 0.421875,0 0.9492187,0 1.359375,0.035156255 V -0.30510938 H 4.4534766 c -0.7382813,0 -0.7617188,-0.1171875 -0.7617188,-0.46875 V -1.6410469 H 4.6878516 V -1.9574531 H 3.6917578 v -4.5234375 c 0,-0.1992188 0,-0.2578125 -0.1523437,-0.2578125 -0.09375,0 -0.1171875,0 -0.1992188,0.1171875 l -3.05859374,4.6640625 v 0.3164062 z m 0.058594,-0.3164062 H 0.56285156 L 2.9886328,-5.6722969 Z m 0,0"
       style="fill:#000000;fill-opacity:1;fill-rule:nonzero;stroke:none"
       aria-label="4"
       transform="matrix(1.3333333,0,0,1.3333333,239.48,106.524)" />
    <path
       id="path21"
       d="M 0,-46.91324 V -9.91148"
       style="fill:none;stroke:#000000;stroke-width:0.3985;stroke-linecap:butt;stroke-linejoin:miter;stroke-miterlimit:10;stroke-dasharray:none;stroke-opacity:1"
       transform="matrix(1.3333333,0,0,-1.3333333,15.762667,17.68)" />
    <path
       id="path22"
       d="M 1.2668906,-0.76190625 2.3215781,-1.7931563 c 1.5585938,-1.3710937 2.15625,-1.9101562 2.15625,-2.90625 0,-1.1367187 -0.9023437,-1.9335937 -2.1210937,-1.9335937 -1.125,0 -1.85156253,0.9140625 -1.85156253,1.8046875 0,0.5507812 0.4921875,0.5507812 0.52734373,0.5507812 0.1640625,0 0.515625,-0.1171875 0.515625,-0.5273437 0,-0.2578125 -0.1875,-0.515625 -0.5273437,-0.515625 -0.0820313,0 -0.10546878,0 -0.12890628,0.011719 0.22265628,-0.6445312 0.76171878,-1.0195312 1.33593748,-1.0195312 0.9140625,0 1.3359375,0.8085937 1.3359375,1.6289062 0,0.796875 -0.4921875,1.5820313 -1.0429687,2.203125 L 0.61064062,-0.36346875 C 0.50517187,-0.258 0.50517187,-0.2345625 0.50517187,-1.875e-4 H 4.1965781 l 0.28125,-1.734375 H 4.2200156 c -0.046875,0.3046875 -0.1171875,0.73828125 -0.2109375,0.890625 -0.070312,0.0820313 -0.7265625,0.0820313 -0.9492187,0.0820313 z m 0,0"
       style="fill:#000000;fill-opacity:1;fill-rule:nonzero;stroke:none"
       aria-label="2"
       transform="matrix(1.3333333,0,0,1.3333333,4.428,59.844)" />
    <path
       id="path23"
       d="M 113.38728,-9.8244 V -46.68703"
       style="fill:none;stroke:#000000;stroke-width:0.3985;stroke-linecap:butt;stroke-linejoin:miter;stroke-miterlimit:10;stroke-dasharray:none;stroke-opacity:1"
       transform="matrix(1.3333333,0,0,-1.3333333,15.762667,17.68)" />
    <path
       id="path24"
       d="M 1.2661641,-0.76310937 2.3208516,-1.7943594 c 1.5585937,-1.3710937 2.15625,-1.9101562 2.15625,-2.90625 0,-1.1367187 -0.9023438,-1.9335937 -2.1210938,-1.9335937 -1.125,0 -1.85156249,0.9140625 -1.85156249,1.8046875 0,0.5507812 0.4921875,0.5507812 0.52734379,0.5507812 0.1640625,0 0.515625,-0.1171875 0.515625,-0.5273437 0,-0.2578125 -0.1875,-0.515625 -0.5273438,-0.515625 -0.0820312,0 -0.10546874,0 -0.12890624,0.011719 0.22265624,-0.6445312 0.76171874,-1.0195312 1.33593754,-1.0195312 0.9140625,0 1.3359375,0.8085937 1.3359375,1.6289062 0,0.796875 -0.4921875,1.5820313 -1.0429688,2.203125 L 0.60991406,-0.36467187 C 0.50444531,-0.25920312 0.50444531,-0.23576562 0.50444531,-0.00139062 H 4.1958516 l 0.28125,-1.73437498 H 4.2192891 c -0.046875,0.3046875 -0.1171875,0.73828123 -0.2109375,0.89062498 -0.070312,0.0820313 -0.7265625,0.0820313 -0.9492188,0.0820313 z m 0,0"
       style="fill:#000000;fill-opacity:1;fill-rule:nonzero;stroke:none"
       aria-label="2"
       transform="matrix(1.3333333,0,0,1.3333333,171.636,59.634667)" />
    <path
       id="path25"
       d="M 104.6007,-4.39322 8.74721,-52.3201"
       style="fill:none;stroke:#000000;stroke-width:0.3985;stroke-linecap:butt;stroke-linejoin:miter;stroke-miterlimit:10;stroke-dasharray:none;stroke-opacity:1"
       transform="matrix(1.3333333,0,0,-1.3333333,15.762667,17.68)" />
    <path
       id="path26"
       d="M 1.2652734,-0.76207813 2.3199609,-1.7933281 c 1.5585938,-1.3710938 2.15625,-1.9101563 2.15625,-2.90625 0,-1.1367188 -0.9023437,-1.9335938 -2.1210937,-1.9335938 -1.125,0 -1.85156251,0.9140625 -1.85156251,1.8046875 0,0.5507813 0.4921875,0.5507813 0.52734371,0.5507813 0.1640625,0 0.515625,-0.1171875 0.515625,-0.5273438 0,-0.2578125 -0.1875,-0.515625 -0.5273437,-0.515625 -0.0820313,0 -0.10546876,0 -0.12890626,0.011719 0.22265626,-0.6445313 0.76171876,-1.0195313 1.33593746,-1.0195313 0.9140625,0 1.3359375,0.8085938 1.3359375,1.6289063 0,0.796875 -0.4921875,1.5820312 -1.0429687,2.203125 L 0.60902344,-0.36364063 C 0.50355469,-0.25817188 0.50355469,-0.23473438 0.50355469,-3.59375e-4 H 4.1949609 L 4.4762109,-1.7347344 H 4.2183984 c -0.046875,0.3046875 -0.1171875,0.73828127 -0.2109375,0.89062502 -0.070312,0.0820313 -0.7265625,0.0820313 -0.9492187,0.0820313 z m 0,0"
       style="fill:#000000;fill-opacity:1;fill-rule:nonzero;stroke:none"
       aria-label="2"
       transform="matrix(1.3333333,0,0,1.3333333,96.02,68.742667)" />
    <path
       id="path27"
       d="m 122.3368,-52.21893 95.75343,47.87684"
       style="fill:none;stroke:#000000;stroke-width:0.3985;stroke-linecap:butt;stroke-linejoin:miter;stroke-miterlimit:10;stroke-dasharray:none;stroke-opacity:1"
       transform="matrix(1.3333333,0,0,-1.3333333,15.762667,17.68)" />
    <path
       id="path28"
       d="m 2.8932891,-3.5044375 c 0.8085937,-0.2695313 1.3945312,-0.9726563 1.3945312,-1.7578125 0,-0.8203125 -0.8789062,-1.3710938 -1.8398437,-1.3710938 -1.0078125,0 -1.75781254,0.5976563 -1.75781254,1.3476563 0,0.3398437 0.2109375,0.5273437 0.50390624,0.5273437 0.3046875,0 0.5039063,-0.2226562 0.5039063,-0.515625 0,-0.4921875 -0.46875,-0.4921875 -0.609375,-0.4921875 0.3046875,-0.4921875 0.9609375,-0.6210937 1.3242187,-0.6210937 0.4101563,0 0.9492188,0.2226562 0.9492188,1.1132812 0,0.1289063 -0.011719,0.703125 -0.2695313,1.1367188 -0.3046875,0.4804687 -0.6445312,0.515625 -0.890625,0.515625 -0.082031,0.011719 -0.3164062,0.035156 -0.3867187,0.035156 -0.082031,0.011719 -0.1523438,0.023437 -0.1523438,0.1171875 0,0.1171875 0.070312,0.1171875 0.234375,0.1171875 h 0.4453125 c 0.8085938,0 1.1835938,0.6679688 1.1835938,1.6523438 0,1.34765625 -0.6914063,1.640625 -1.125,1.640625 -0.4335938,0 -1.171875,-0.17578125 -1.52343754,-0.76171875 0.35156254,0.0585938 0.65625004,-0.1640625 0.65625004,-0.53906255 0,-0.3632812 -0.2695313,-0.5625 -0.56250004,-0.5625 -0.234375,0 -0.55078125,0.140625 -0.55078125,0.5742188 0,0.9140625 0.92578129,1.5703125 2.00390629,1.5703125 1.21875,0 2.1210937,-0.9140625 2.1210937,-1.921875 0,-0.8203125 -0.6210937,-1.59375 -1.6523437,-1.8046873 z m 0,0"
       style="fill:#000000;fill-opacity:1;fill-rule:nonzero;stroke:none"
       aria-label="3"
       transform="matrix(1.3333333,0,0,1.3333333,247.404,68.641333)" />
    <path
       id="path29"
       d="M 226.77457,-9.71008 V -47.08763"
       style="fill:none;stroke:#000000;stroke-width:0.3985;stroke-linecap:butt;stroke-linejoin:miter;stroke-miterlimit:10;stroke-dasharray:none;stroke-opacity:1"
       transform="matrix(1.3333333,0,0,-1.3333333,15.762667,17.68)" />
    <path
       id="path30"
       d="m 2.9289922,-6.3758359 c 0,-0.234375 0,-0.2578125 -0.234375,-0.2578125 -0.609375,0.6328125 -1.4882813,0.6328125 -1.80468751,0.6328125 v 0.3164062 c 0.19921871,0 0.78515621,0 1.30078121,-0.2578125 v 5.15625001 c 0,0.3515625 -0.035156,0.48046875 -0.9257812,0.48046875 H 0.94852344 V -8.359375e-4 C 1.3000859,-0.03599219 2.1555547,-0.03599219 2.5539922,-0.03599219 c 0.3984375,0 1.265625,0 1.6171875,0.0351562525 V -0.30552344 H 3.8547734 c -0.9023437,0 -0.9257812,-0.1171875 -0.9257812,-0.48046875 z m 0,0"
       style="fill:#000000;fill-opacity:1;fill-rule:nonzero;stroke:none"
       aria-label="1"
       transform="matrix(1.3333333,0,0,1.3333333,322.81733,59.825333)" />
  </g>
</svg>
