<?xml version="1.0" encoding="UTF-8" standalone="no"?>
<!-- Created with Inkscape (http://www.inkscape.org/) -->

<svg
   version="1.1"
   id="svg1"
   width="98.846161"
   height="60.822731"
   viewBox="0 0 98.846161 60.822731"
   xmlns="http://www.w3.org/2000/svg"
   xmlns:svg="http://www.w3.org/2000/svg">
  <defs
     id="defs1" />
  <g
     id="g1"
     transform="translate(-5.0660817e-4,5.0668743e-4)">
    <path
       id="path1"
       d="M 7.95537,0 C 7.95537,4.39366 4.39366,7.95537 0,7.95537 -4.39366,7.95537 -7.95537,4.39366 -7.95537,0 c 0,-4.39366 3.56171,-7.95537 7.95537,-7.95537 4.39366,0 7.95537,3.56171 7.95537,7.95537 z"
       style="fill:none;stroke:#000000;stroke-width:0.3985;stroke-linecap:butt;stroke-linejoin:miter;stroke-miterlimit:10;stroke-dasharray:none;stroke-opacity:1"
       transform="matrix(1.3333333,0,0,-1.3333333,10.873333,12.381333)" />
    <path
       id="path2"
       d="m 3.3154922,-0.76107812 c 0.035156,0.3984375 0.3046875,0.8203125 0.7734375,0.8203125 0.2109375,0 0.8203125,-0.140625 0.8203125,-0.94921875 V -1.4407656 H 4.6631484 v 0.55078123 c 0,0.5859375 -0.2460937,0.64453125 -0.3632812,0.64453125 -0.328125,0 -0.3632813,-0.45703125 -0.3632813,-0.50390625 V -2.7415469 c 0,-0.4101562 0,-0.8085937 -0.3632812,-1.171875 -0.3867188,-0.3867187 -0.8789063,-0.5507812 -1.359375,-0.5507812 -0.8203125,0 -1.51171876,0.46875 -1.51171876,1.125 0,0.3046875 0.19921875,0.46875 0.45703126,0.46875 0.28125,0 0.46875,-0.1992188 0.46875,-0.4570313 0,-0.1171875 -0.058594,-0.4453125 -0.515625,-0.4570312 0.2695312,-0.3515625 0.7617187,-0.4570313 1.078125,-0.4570313 0.4921875,0 1.0546875,0.3867188 1.0546875,1.2773438 v 0.3632812 c -0.5039063,0.035156 -1.2070313,0.058594 -1.828125,0.3632813 -0.75000001,0.3398437 -0.99609376,0.8554687 -0.99609376,1.28906248 0,0.80859375 0.96093746,1.0546875 1.59374996,1.0546875 0.65625,0 1.1132813,-0.3984375 1.3007813,-0.8671875 z M 3.2451797,-2.3899844 v 0.9960938 c 0,0.94921873 -0.7148438,1.28906248 -1.1601563,1.28906248 -0.4921875,0 -0.9023437,-0.3515625 -0.9023437,-0.85546875 0,-0.53906253 0.421875,-1.37109373 2.0625,-1.42968753 z m 0,0"
       style="fill:#000000;fill-opacity:1;fill-rule:nonzero;stroke:none"
       aria-label="a"
       transform="matrix(1.3333333,0,0,1.3333333,7.552,15.241333)" />
    <path
       id="path3"
       d="m 37.43393,0 c 0,5.01872 -4.06839,9.08713 -9.08713,9.08713 -5.01874,0 -9.08713,-4.06841 -9.08713,-9.08713 0,-5.01872 4.06839,-9.08713 9.08713,-9.08713 5.01874,0 9.08713,4.06841 9.08713,9.08713 z"
       style="fill:none;stroke:#000000;stroke-width:0.3985;stroke-linecap:butt;stroke-linejoin:miter;stroke-miterlimit:10;stroke-dasharray:none;stroke-opacity:1"
       transform="matrix(1.3333333,0,0,-1.3333333,10.873333,12.381333)" />
    <path
       id="path4"
       d="m 1.7122891,-3.7508594 v -3.1640625 l -1.42968754,0.1054688 v 0.3164062 c 0.69140625,0 0.77343754,0.070312 0.77343754,0.5507813 v 5.941406225 h 0.2460937 c 0.011719,-0.011718745 0.09375,-0.152343745 0.3632813,-0.621093745 0.1523437,0.234375 0.5625,0.7265625 1.3007812,0.7265625 1.1835938,0 2.2265625,-0.97265625 2.2265625,-2.26171878 0,-1.265625 -0.9726562,-2.25 -2.109375,-2.25 -0.7851562,0 -1.2070312,0.46875 -1.3710937,0.65625 z m 0.035156,2.6132813 v -2.0507813 c 0,-0.1875 0,-0.1992187 0.1054688,-0.3632812 0.3867187,-0.5507813 0.9375,-0.6328125 1.171875,-0.6328125 0.4570312,0 0.8085937,0.2578125 1.0546875,0.6328125 0.2578125,0.4101562 0.28125,0.984375 0.28125,1.3945312 0,0.3632813 -0.011719,0.9609375 -0.3046875,1.40625003 -0.2109375,0.31640625 -0.5859375,0.64453125 -1.125,0.64453125 -0.4453125,0 -0.8085938,-0.24609375 -1.0429688,-0.609375 -0.140625,-0.2109375 -0.140625,-0.24609375 -0.140625,-0.42187498 z m 0,0"
       style="fill:#000000;fill-opacity:1;fill-rule:nonzero;stroke:none"
       aria-label="b"
       transform="matrix(1.3333333,0,0,1.3333333,44.978667,16.993333)" />
    <path
       id="path5"
       d="m 36.13142,-28.3468 c 0,4.29938 -3.48524,7.78462 -7.78462,7.78462 -4.29938,0 -7.78462,-3.48524 -7.78462,-7.78462 0,-4.29938 3.48524,-7.78462 7.78462,-7.78462 4.29938,0 7.78462,3.48524 7.78462,7.78462 z"
       style="fill:none;stroke:#000000;stroke-width:0.3985;stroke-linecap:butt;stroke-linejoin:miter;stroke-miterlimit:10;stroke-dasharray:none;stroke-opacity:1"
       transform="matrix(1.3333333,0,0,-1.3333333,10.873333,12.381333)" />
    <path
       id="path6"
       d="m 1.1592891,-2.1686016 c 0,-1.6289062 0.8203125,-2.0507812 1.3476562,-2.0507812 0.09375,0 0.7148438,0.011719 1.0664063,0.375 -0.4101563,0.023437 -0.46875,0.328125 -0.46875,0.4570312 0,0.2578125 0.1875,0.4570313 0.4570312,0.4570313 0.2578125,0 0.4570313,-0.1640625 0.4570313,-0.46875 0,-0.6796875 -0.75,-1.0664063 -1.5234375,-1.0664063 -1.2421875,0 -2.15625004,1.078125 -2.15625004,2.3085938 0,1.27734374 0.98437504,2.26171874 2.14453124,2.26171874 1.3359375,0 1.6523438,-1.19531254 1.6523438,-1.28906254 0,-0.1054687 -0.1054688,-0.1054687 -0.1289063,-0.1054687 -0.09375,0 -0.1171875,0.046875 -0.1289062,0.1054687 -0.2929688,0.92578129 -0.9375,1.04296879 -1.3125,1.04296879 -0.5273438,0 -1.40625,-0.421875 -1.40625,-2.02734379 z m 0,0"
       style="fill:#000000;fill-opacity:1;fill-rule:nonzero;stroke:none"
       aria-label="c"
       transform="matrix(1.3333333,0,0,1.3333333,45.716,53.036)" />
    <path
       id="path7"
       d="M 8.15462,0 H 18.60214"
       style="fill:none;stroke:#000000;stroke-width:0.3985;stroke-linecap:butt;stroke-linejoin:miter;stroke-miterlimit:10;stroke-dasharray:none;stroke-opacity:1"
       transform="matrix(1.3333333,0,0,-1.3333333,10.873333,12.381333)" />
    <path
       id="path8"
       d="M -1.19551,1.59401 C -1.09587,0.99626 0,0.09961 0.29886,0 0,-0.09961 -1.09587,-0.99626 -1.19551,-1.59401"
       style="fill:none;stroke:#000000;stroke-width:0.31879;stroke-linecap:round;stroke-linejoin:round;stroke-miterlimit:10;stroke-dasharray:none;stroke-opacity:1"
       transform="matrix(1.3333333,0,0,-1.3333333,35.676187,12.381333)" />
    <path
       id="path9"
       d="M 5.76617,-5.76617 22.3773,-22.3773"
       style="fill:none;stroke:#000000;stroke-width:0.3985;stroke-linecap:butt;stroke-linejoin:miter;stroke-miterlimit:10;stroke-dasharray:none;stroke-opacity:1"
       transform="matrix(1.3333333,0,0,-1.3333333,10.873333,12.381333)" />
    <path
       id="path10"
       d="M -1.19551,1.59401 C -1.09587,0.99626 0,0.09961 0.29886,0 0,-0.09961 -1.09587,-0.99626 -1.19551,-1.59401"
       style="fill:none;stroke:#000000;stroke-width:0.31879;stroke-linecap:round;stroke-linejoin:round;stroke-miterlimit:10;stroke-dasharray:none;stroke-opacity:1"
       transform="matrix(0.9428,0.9428,0.9428,-0.9428,40.709733,42.217733)" />
    <path
       id="path11"
       d="m 65.78075,0 c 0,5.01872 -4.06841,9.08713 -9.08713,9.08713 -5.01874,0 -9.08714,-4.06841 -9.08714,-9.08713 0,-5.01872 4.0684,-9.08713 9.08714,-9.08713 5.01872,0 9.08713,4.06841 9.08713,9.08713 z"
       style="fill:none;stroke:#000000;stroke-width:0.3985;stroke-linecap:butt;stroke-linejoin:miter;stroke-miterlimit:10;stroke-dasharray:none;stroke-opacity:1"
       transform="matrix(1.3333333,0,0,-1.3333333,10.873333,12.381333)" />
    <path
       id="path12"
       d="m 3.7852344,-0.55164062 v 0.65625 L 5.2500781,-8.59375e-4 V -0.30554687 c -0.703125,0 -0.7734375,-0.0703125 -0.7734375,-0.5625 V -6.9149219 l -1.4414062,0.1054688 v 0.3164062 c 0.703125,0 0.7851562,0.070312 0.7851562,0.5507813 v 2.15625 c -0.2929687,-0.3632813 -0.7265625,-0.6210938 -1.265625,-0.6210938 -1.171875,0 -2.21484373,0.984375 -2.21484373,2.2617188 0,1.26562498 0.97265623,2.24999998 2.10937503,2.24999998 0.6445312,0 1.0898437,-0.33984375 1.3359375,-0.65625 z m 0,-2.67187498 v 2.0507812 c 0,0.17578128 0,0.19921878 -0.1054688,0.36328128 -0.3046875,0.48046875 -0.75,0.703125 -1.1835937,0.703125 -0.4453125,0 -0.796875,-0.2578125 -1.0429688,-0.64453125 C 1.1953906,-1.1610156 1.1602344,-1.7235156 1.1602344,-2.1336719 c 0,-0.3632812 0.023437,-0.9609375 0.3164062,-1.4179687 0.2109375,-0.3046875 0.5859375,-0.6328125 1.125,-0.6328125 0.3515625,0 0.7617188,0.1523437 1.078125,0.5976562 0.1054688,0.1640625 0.1054688,0.1875 0.1054688,0.3632813 z m 0,0"
       style="fill:#000000;fill-opacity:1;fill-rule:nonzero;stroke:none"
       aria-label="d"
       transform="matrix(1.3333333,0,0,1.3333333,82.773333,16.993333)" />
    <path
       id="path13"
       d="m 37.6332,0 h 9.31574"
       style="fill:none;stroke:#000000;stroke-width:0.3985;stroke-linecap:butt;stroke-linejoin:miter;stroke-miterlimit:10;stroke-dasharray:none;stroke-opacity:1"
       transform="matrix(1.3333333,0,0,-1.3333333,10.873333,12.381333)" />
    <path
       id="path14"
       d="M -1.19551,1.59401 C -1.09587,0.99626 0,0.09961 0.29886,0 0,-0.09961 -1.09587,-0.99626 -1.19551,-1.59401"
       style="fill:none;stroke:#000000;stroke-width:0.31879;stroke-linecap:round;stroke-linejoin:round;stroke-miterlimit:10;stroke-dasharray:none;stroke-opacity:1"
       transform="matrix(1.3333333,0,0,-1.3333333,73.47192,12.381333)" />
    <path
       id="path15"
       d="M 33.99225,-22.70135 49.8031,-6.8905"
       style="fill:none;stroke:#000000;stroke-width:0.3985;stroke-linecap:butt;stroke-linejoin:miter;stroke-miterlimit:10;stroke-dasharray:none;stroke-opacity:1"
       transform="matrix(1.3333333,0,0,-1.3333333,10.873333,12.381333)" />
    <path
       id="path16"
       d="M -1.19551,1.59401 C -1.09587,0.99626 0,0.09961 0.29886,0 0,-0.09961 -1.09587,-0.99626 -1.19551,-1.59401"
       style="fill:none;stroke:#000000;stroke-width:0.31879;stroke-linecap:round;stroke-linejoin:round;stroke-miterlimit:10;stroke-dasharray:none;stroke-opacity:1"
       transform="matrix(0.9428,-0.9428,-0.9428,-0.9428,77.277467,21.568667)" />
  </g>
</svg>
