<?xml version="1.0" encoding="UTF-8" standalone="no"?>
<!-- Created with Inkscape (http://www.inkscape.org/) -->

<svg
   version="1.1"
   id="svg1"
   width="9.09375"
   height="9.515625"
   viewBox="0 0 9.0937499 9.5156249"
   xmlns="http://www.w3.org/2000/svg"
   xmlns:svg="http://www.w3.org/2000/svg">
  <defs
     id="defs1" />
  <g
     id="g1"
     transform="translate(-4.8515625,-3.9882814)">
    <path
       id="path1"
       d="m 3.9622031,-6.9375703 c -0.046875,-0.1289063 -0.070312,-0.1992188 -0.2226562,-0.1992188 -0.1640625,0 -0.1875,0.058594 -0.2460938,0.1992188 l -2.0625,5.96484374 c -0.1757812,0.50390625 -0.57421872,0.65625 -1.11328122,0.66796875 V -7.03125e-5 c 0.234375,-0.0117187475 0.65625,-0.0351562475 1.01953122,-0.0351562475 0.3046875,0 0.8203125,0.0234375 1.1484375,0.0351562475 V -0.30475781 c -0.5039062,0 -0.75,-0.2578125 -0.75,-0.515625 0,-0.0234375 0.011719,-0.12890625 0.023437,-0.140625 L 2.2161094,-2.2735078 h 2.4609375 l 0.5273437,1.52343749 c 0.011719,0.046875 0.023437,0.10546875 0.023437,0.140625 0,0.3046875 -0.5507812,0.3046875 -0.8203125,0.3046875 V -7.03125e-5 C 4.7590781,-0.03522656 5.4622031,-0.03522656 5.8372031,-0.03522656 c 0.4335938,0 0.890625,0.01171875 1.3007813,0.0351562475 V -0.30475781 H 6.9622031 c -0.5976562,0 -0.7382812,-0.0703125 -0.84375,-0.3984375 z m -0.5273437,1.125 1.125,3.234375 H 2.3215781 Z m 0,0"
       style="fill:#000000;fill-opacity:1;fill-rule:nonzero;stroke:none"
       aria-label="A"
       transform="matrix(1.3333333,0,0,1.3333333,4.428,13.504)" />
  </g>
</svg>
