<?xml version="1.0" encoding="UTF-8" standalone="no"?>
<!-- Created with Inkscape (http://www.inkscape.org/) -->

<svg
   version="1.1"
   id="svg1"
   width="391.12143"
   height="227.02684"
   viewBox="0 0 391.12143 227.02684"
   xmlns="http://www.w3.org/2000/svg"
   xmlns:svg="http://www.w3.org/2000/svg">
  <defs
     id="defs1" />
  <g
     id="g1"
     transform="translate(-4.8515625,-0.00998567)">
    <path
       id="path1"
       d="M 0,0 H 283.4681 M 0,28.3468 H 283.4681 M 0,56.69362 H 283.4681 M 0,85.04042 H 283.4681 M 0,113.38724 H 283.4681 M 0,141.73404 H 283.4681 M 0,170.07089 H 283.4681 M 0,0 V 170.08086 M 28.3468,0 V 170.08086 M 56.69362,0 V 170.08086 M 85.04042,0 V 170.08086 M 113.38724,0 V 170.08086 M 141.73404,0 V 170.08086 M 170.08086,0 V 170.08086 M 198.42766,0 V 170.08086 M 226.77448,0 V 170.08086 M 255.12128,0 V 170.08086 M 283.45813,0 v 170.08086"
       style="fill:none;stroke:#808080;stroke-width:0.19925;stroke-linecap:butt;stroke-linejoin:miter;stroke-miterlimit:10;stroke-dasharray:none;stroke-opacity:1"
       transform="matrix(1.3333333,0,0,-1.3333333,17.896,226.904)" />
    <path
       id="path2"
       d="m 1.1028281,-0.76171094 c 0,0.45703125 -0.11718748,0.45703125 -0.78515623,0.45703125 V 7.8125e-6 C 0.66923437,-0.01171094 1.1731406,-0.03514844 1.4426719,-0.03514844 c 0.2578125,0 0.7851562,0.0234375 1.1132812,0.0351562525 V -0.30467969 c -0.65625,0 -0.7734375,0 -0.7734375,-0.45703125 V -2.5898359 c 0,-1.03125 0.7148438,-1.59375 1.3476563,-1.59375 0.6210937,0 0.7382812,0.5390625 0.7382812,1.1015625 v 2.32031246 c 0,0.45703125 -0.1171875,0.45703125 -0.7734375,0.45703125 V 7.8125e-6 c 0.3398438,-0.0117187525 0.8554688,-0.0351562525 1.125,-0.0351562525 0.2578125,0 0.7734375,0.0234375 1.1132813,0.0351562525 V -0.30467969 c -0.515625,0 -0.7734375,0 -0.7851563,-0.3046875 V -2.5078047 c 0,-0.8554687 0,-1.171875 -0.3046875,-1.5234375 -0.140625,-0.1757812 -0.46875,-0.375 -1.0429687,-0.375 -0.84375,0 -1.2773438,0.5976563 -1.4414063,0.984375 v -3.4921875 l -1.44140623,0.1054688 v 0.3164062 c 0.70312503,0 0.78515623,0.070312 0.78515623,0.5507813 z M 6.9797812,-3.9843672 H 8.4094687 V -4.2890547 H 6.9797812 V -6.1288984 H 6.7336875 c -0.011719,0.8203125 -0.3164063,1.8867187 -1.2890625,1.921875 v 0.2226562 h 0.84375 v 2.7539063 c 0,1.21874996 0.9257812,1.33593746 1.2890625,1.33593746 0.703125,0 0.984375,-0.703125 0.984375,-1.33593746 V -1.8046797 H 8.3157187 v 0.5507813 c 0,0.73828121 -0.3046875,1.11328121 -0.6679687,1.11328121 -0.6679688,0 -0.6679688,-0.90234371 -0.6679688,-1.07812501 z m 3.2519528,0.5625 v 2.66015626 c 0,0.45703125 -0.117187,0.45703125 -0.7851559,0.45703125 V 7.8125e-6 C 9.7981406,-0.01171094 10.302047,-0.03514844 10.571578,-0.03514844 c 0.257813,0 0.785156,0.0234375 1.113281,0.0351562525 V -0.30467969 c -0.65625,0 -0.773437,0 -0.773437,-0.45703125 V -2.5898359 c 0,-1.03125 0.714844,-1.59375 1.347656,-1.59375 0.621094,0 0.738281,0.5390625 0.738281,1.1015625 v 2.32031246 c 0,0.45703125 -0.117187,0.45703125 -0.773437,0.45703125 V 7.8125e-6 c 0.339844,-0.0117187525 0.855469,-0.0351562525 1.125,-0.0351562525 0.257812,0 0.773437,0.0234375 1.113281,0.0351562525 V -0.30467969 c -0.667969,0 -0.785156,0 -0.785156,-0.45703125 V -2.5898359 c 0,-1.03125 0.714844,-1.59375 1.347656,-1.59375 0.632813,0 0.738281,0.5390625 0.738281,1.1015625 v 2.32031246 c 0,0.45703125 -0.105468,0.45703125 -0.773437,0.45703125 V 7.8125e-6 c 0.351562,-0.0117187525 0.855469,-0.0351562525 1.125,-0.0351562525 0.257812,0 0.773437,0.0234375 1.113281,0.0351562525 V -0.30467969 c -0.515625,0 -0.761719,0 -0.773437,-0.3046875 V -2.5078047 c 0,-0.8554687 0,-1.171875 -0.316407,-1.5234375 -0.128906,-0.1757812 -0.46875,-0.375 -1.042968,-0.375 -0.832032,0 -1.277344,0.5976563 -1.441407,0.984375 -0.140625,-0.8671875 -0.878906,-0.984375 -1.324218,-0.984375 -0.726563,0 -1.195313,0.4335938 -1.476563,1.0546875 v -1.0546875 l -1.4062499,0.1171875 v 0.3046875 c 0.7031249,0 0.7851559,0.070312 0.7851559,0.5625 z m 8.958985,-3.4921875 -1.429688,0.1054688 v 0.3164062 c 0.703125,0 0.773438,0.070312 0.773438,0.5507813 v 5.17968746 c 0,0.45703125 -0.105469,0.45703125 -0.773438,0.45703125 V 7.8125e-6 C 18.089156,-0.01171094 18.6165,-0.03514844 18.862594,-0.03514844 c 0.257812,0 0.738281,0.0234375 1.113281,0.0351562525 V -0.30467969 c -0.667969,0 -0.785156,0 -0.785156,-0.45703125 z m 0,0"
       style="fill:#000000;fill-opacity:1;fill-rule:nonzero;stroke:none"
       aria-label="html"
       transform="matrix(1.3333333,0,0,1.3333333,4.428,72.777333)" />
    <path
       id="path3"
       d="m 0,85.04042 v 28.34682 H 56.69362 V 85.04042 Z"
       style="fill:#fff200;fill-opacity:1;fill-rule:nonzero;stroke:#000000;stroke-width:0.79701;stroke-linecap:butt;stroke-linejoin:miter;stroke-miterlimit:10;stroke-dasharray:none;stroke-opacity:1"
       transform="matrix(1.3333333,0,0,-1.3333333,17.896,226.904)" />
    <path
       id="path4"
       d="M 9.057625,-5.8241641 C 9.2334063,-6.3983828 9.667,-6.4921328 10.053719,-6.4921328 v -0.3164063 c -0.3046877,0.023437 -0.6093752,0.035156 -0.9140627,0.035156 -0.28125,0 -0.9257813,-0.023437 -1.1835938,-0.035156 v 0.3164063 c 0.6679688,0.011719 0.8671875,0.3398437 0.8671875,0.5273437 0,0.058594 -0.023437,0.140625 -0.046875,0.1992188 l -1.5,4.6054687 -1.59375,-4.8867187 c 0,-0.035156 -0.023437,-0.09375 -0.023437,-0.1523438 0,-0.2929687 0.5742188,-0.2929687 0.8320313,-0.2929687 v -0.3164063 c -0.3515625,0.035156 -1.03125,0.035156 -1.40625,0.035156 -0.3867188,0 -0.8085938,-0.023437 -1.21875,-0.035156 v 0.3164063 c 0.5625,0 0.7734375,0 0.890625,0.3515625 L 4.9795,-5.4374453 3.5966875,-1.1601016 1.9912188,-6.0702578 c -0.011719,-0.023437 -0.023437,-0.09375 -0.023437,-0.1289063 0,-0.2929687 0.5859375,-0.2929687 0.84375,-0.2929687 v -0.3164063 c -0.3632813,0.035156 -1.0429688,0.035156 -1.4179688,0.035156 -0.375,0 -0.80859375,-0.023437 -1.21875,-0.035156 v 0.3164063 c 0.75,0 0.78515625,0.046875 0.9140625,0.4101562 L 3.081063,0.03521094 c 0.023437,0.08203125 0.058594,0.1875 0.1875,0.1875 0.140625,0 0.1523438,-0.0703125 0.1992188,-0.19921875 L 5.1084063,-5.0390078 6.76075,0.03521094 c 0.035156,0.08203125 0.058594,0.1875 0.1875,0.1875 0.140625,0 0.1640625,-0.0703125 0.1992188,-0.19921875 z m 1.467773,3.3164063 c 0.05859,-1.4882813 0.902344,-1.734375 1.242188,-1.734375 1.019531,0 1.125,1.3476562 1.125,1.734375 z m -0.01172,0.2109375 h 2.789062 c 0.210938,0 0.246094,0 0.246094,-0.2109375 0,-0.984375 -0.539063,-1.9570313 -1.78125,-1.9570313 -1.160156,0 -2.0742188,1.03125 -2.0742188,2.2734375 0,1.33593754 1.0429688,2.29687504 2.1914058,2.29687504 1.21875,0 1.664063,-1.1015625 1.664063,-1.28906254 0,-0.1054687 -0.08203,-0.1171875 -0.128906,-0.1171875 -0.09375,0 -0.117188,0.058594 -0.128907,0.140625 -0.351562,1.01953129 -1.253906,1.01953129 -1.347656,1.01953129 -0.503906,0 -0.902344,-0.29296875 -1.125,-0.66796875 C 10.51368,-1.2890078 10.51368,-1.9452578 10.51368,-2.2968203 Z m 5.036133,-1.453125 v -3.1640625 l -1.429688,0.1054687 v 0.3164063 c 0.691406,0 0.773438,0.070312 0.773438,0.5507812 V 5.46875e-5 h 0.246093 c 0.01172,-0.0117187475 0.09375,-0.1523437475 0.363282,-0.6210937475 0.152343,0.234375 0.5625,0.7265625 1.300781,0.7265625 1.183594,0 2.226562,-0.97265625 2.226562,-2.26171874 0,-1.265625 -0.972656,-2.25 -2.109375,-2.25 -0.785156,0 -1.207031,0.46875 -1.371093,0.65625 z m 0.03516,2.6132812 v -2.0507812 c 0,-0.1875 0,-0.1992188 0.105469,-0.3632813 0.386718,-0.5507812 0.9375,-0.6328125 1.171875,-0.6328125 0.457031,0 0.808593,0.2578125 1.054687,0.6328125 0.257813,0.4101563 0.28125,0.984375 0.28125,1.3945313 0,0.3632812 -0.01172,0.9609375 -0.304687,1.40624999 -0.210938,0.31640625 -0.585938,0.64453125 -1.125,0.64453125 -0.445313,0 -0.808594,-0.24609375 -1.042969,-0.609375 -0.140625,-0.2109375 -0.140625,-0.24609375 -0.140625,-0.42187504 z m 7.001953,0.97265629 C 22.047861,-0.36322656 20.93458,-1.0897891 20.93458,-3.3749453 c 0,-2.5898438 1.394531,-3.3984375 2.308594,-3.3984375 0.960937,0 2.320312,0.8554687 2.320312,3.3984375 0,0.7734375 -0.117187,2.1796875 -1.171875,2.95312499 -0.222656,-0.55078125 -0.539062,-1.05468749 -1.125,-1.05468749 -0.515625,0 -0.820312,0.4335937 -0.820312,0.84374999 0,0.26953125 0.128906,0.45703125 0.140625,0.46875 z m 1.535156,-0.09375 c -0.328125,0.1875 -0.65625,0.22265625 -0.867187,0.22265625 -0.515625,0 -0.585938,-0.45703125 -0.585938,-0.59765625 0,-0.29296875 0.199219,-0.62109379 0.597656,-0.62109379 0.527344,0 0.75,0.42187504 0.855469,0.99609379 z m 0.410156,0.1875 c 1.183594,-0.52734375 2.027344,-1.80468749 2.027344,-3.30468749 0,-2.0390625 -1.5,-3.6445313 -3.316406,-3.6445313 -1.78125,0 -3.304688,1.59375 -3.304688,3.6445313 0,2.015625 1.5,3.59765624 3.316407,3.59765624 0.304687,0 0.65625,-0.0585938 0.9375,-0.15234375 0.152343,0.94921871 0.292968,1.86328121 1.21875,1.86328121 1.019531,0 1.207031,-1.32421871 1.207031,-1.82812496 0,-0.1054687525 0,-0.2109375 -0.105469,-0.2109375 -0.09375,0 -0.105469,0.0703125 -0.117187,0.17578125 -0.05859,0.5390625 -0.480469,0.83203125 -0.902344,0.83203125 -0.46875,0 -0.714844,-0.33984375 -0.960938,-0.97265625 z m 0,0"
       style="fill:#000000;fill-opacity:1;fill-rule:nonzero;stroke:none"
       aria-label="WebQ"
       transform="matrix(1.3333333,0,0,1.3333333,37.610667,97.941333)" />
    <path
       id="path5"
       d="M 28.3468,85.04042 V 60.23564"
       style="fill:none;stroke:#000000;stroke-width:0.79701;stroke-linecap:butt;stroke-linejoin:miter;stroke-miterlimit:10;stroke-dasharray:none;stroke-opacity:1"
       transform="matrix(1.3333333,0,0,-1.3333333,17.896,226.904)" />
    <path
       id="path6"
       d="M -1.55415,2.0722 C -1.42464,1.29512 0,0.1295 0.38852,0 0,-0.1295 -1.42464,-1.29512 -1.55415,-2.0722"
       style="fill:none;stroke:#000000;stroke-width:0.6376;stroke-linecap:round;stroke-linejoin:round;stroke-miterlimit:10;stroke-dasharray:none;stroke-opacity:1"
       transform="matrix(0,1.3333333,1.3333333,0,55.691733,146.58981)" />
    <path
       id="path7"
       d="M 3.7842031,-0.61071094 V 1.1705391 c 0,0.4570312 -0.1054687,0.4570312 -0.7734375,0.4570312 v 0.3046875 c 0.3398438,-0.011719 0.8554688,-0.035156 1.1132813,-0.035156 0.2695312,0 0.7734375,0.023437 1.125,0.035156 V 1.6275703 c -0.6679688,0 -0.7734375,0 -0.7734375,-0.4570312 v -5.578125 H 4.2529531 l -0.375,0.9140625 c -0.1289062,-0.28125 -0.5390625,-0.9140625 -1.3359375,-0.9140625 -1.1601562,0 -2.20312498,0.9726562 -2.20312498,2.2617187 0,1.24218751 0.96093748,2.25000001 2.12109378,2.25000001 0.6914062,0 1.1015625,-0.421875 1.3242187,-0.71484375 z m 0.035156,-2.14453126 v 1.3945313 c 0,0.328125 -0.1875,0.59765621 -0.3984375,0.84374996 -0.1289063,0.140625 -0.4570313,0.41015625 -0.9257813,0.41015625 -0.7265625,0 -1.3359375,-0.890625 -1.3359375,-2.03906251 0,-1.1835937 0.703125,-2.0039062 1.4414063,-2.0039062 0.796875,0 1.21875,0.8554687 1.21875,1.3945312 z m 2.540039,-0.6679687 v 2.66015621 c 0,0.45703125 -0.1171875,0.45703125 -0.7851562,0.45703125 v 0.3046875 c 0.3515625,-0.01171875 0.8554687,-0.03515625 1.125,-0.03515625 0.2578125,0 0.7851562,0.0234375 1.1132812,0.03515625 v -0.3046875 c -0.65625,0 -0.7734375,0 -0.7734375,-0.45703125 V -2.5911797 c 0,-1.03125 0.7148438,-1.59375 1.3476563,-1.59375 0.6210937,0 0.7382812,0.5390625 0.7382812,1.1015625 v 2.32031251 c 0,0.45703125 -0.1171875,0.45703125 -0.7734375,0.45703125 v 0.3046875 c 0.3398438,-0.01171875 0.8554688,-0.03515625 1.125,-0.03515625 0.2578125,0 0.7734374,0.0234375 1.1132814,0.03515625 v -0.3046875 c -0.6679689,0 -0.7851564,0 -0.7851564,-0.45703125 V -2.5911797 c 0,-1.03125 0.7148444,-1.59375 1.3476564,-1.59375 0.632813,0 0.738281,0.5390625 0.738281,1.1015625 v 2.32031251 c 0,0.45703125 -0.105468,0.45703125 -0.773437,0.45703125 v 0.3046875 c 0.351562,-0.01171875 0.855469,-0.03515625 1.125,-0.03515625 0.257812,0 0.773437,0.0234375 1.113281,0.03515625 v -0.3046875 c -0.515625,0 -0.761719,0 -0.773437,-0.3046875 V -2.5091484 c 0,-0.8554688 0,-1.171875 -0.316407,-1.5234375 -0.128906,-0.1757813 -0.46875,-0.375 -1.042968,-0.375 -0.832032,0 -1.2773444,0.5976562 -1.4414069,0.984375 -0.140625,-0.8671875 -0.8789062,-0.984375 -1.3242187,-0.984375 -0.7265625,0 -1.1953125,0.4335937 -1.4765625,1.0546875 v -1.0546875 l -1.40625,0.1171875 v 0.3046875 c 0.703125,0 0.7851562,0.070312 0.7851562,0.5625 z m 10.9863289,2.87109371 v 0.65625 l 1.464843,-0.10546875 v -0.3046875 c -0.703125,0 -0.773437,-0.0703125 -0.773437,-0.5625 V -6.9153984 l -1.441406,0.1054687 v 0.3164063 c 0.703125,0 0.785156,0.070312 0.785156,0.5507812 v 2.15625 c -0.292969,-0.3632812 -0.726563,-0.6210937 -1.265625,-0.6210937 -1.171875,0 -2.214844,0.984375 -2.214844,2.2617187 0,1.26562501 0.972656,2.25000001 2.109375,2.25000001 0.644531,0 1.089844,-0.33984375 1.335938,-0.65625 z m 0,-2.67187501 v 2.0507813 c 0,0.17578121 0,0.19921871 -0.105469,0.36328121 -0.304688,0.48046875 -0.75,0.703125 -1.183594,0.703125 -0.445312,0 -0.796875,-0.2578125 -1.042969,-0.64453125 -0.257812,-0.41015626 -0.292968,-0.97265626 -0.292968,-1.38281246 0,-0.3632813 0.02344,-0.9609375 0.316406,-1.4179688 0.210937,-0.3046875 0.585937,-0.6328125 1.125,-0.6328125 0.351562,0 0.761719,0.1523438 1.078125,0.5976563 0.105469,0.1640625 0.105469,0.1875 0.105469,0.3632812 z m 0,0"
       style="fill:#000000;fill-opacity:1;fill-rule:nonzero;stroke:none"
       aria-label="qmd"
       transform="matrix(1.3333333,0,0,1.3333333,5.1653333,147.076)" />
    <path
       id="path8"
       d="M 0,28.3468 V 56.69362 H 56.69362 V 28.3468 Z"
       style="fill:#fff200;fill-opacity:1;fill-rule:nonzero;stroke:#000000;stroke-width:0.79701;stroke-linecap:butt;stroke-linejoin:miter;stroke-miterlimit:10;stroke-dasharray:none;stroke-opacity:1"
       transform="matrix(1.3333333,0,0,-1.3333333,17.896,226.904)" />
    <path
       id="path9"
       d="m 1.1004219,-0.76155469 c 0,0.45703125 -0.11718753,0.45703125 -0.78515628,0.45703125 V 1.640625e-4 C 0.66682812,-0.01155469 1.1707344,-0.03499219 1.4402656,-0.03499219 c 0.2578125,0 0.7851563,0.0234375 1.1132813,0.0351562525 V -0.30452344 c -0.65625,0 -0.7734375,0 -0.7734375,-0.45703125 V -2.5896797 c 0,-1.03125 0.7148437,-1.59375 1.3476562,-1.59375 0.6210938,0 0.7382813,0.5390625 0.7382813,1.1015625 v 2.32031251 c 0,0.45703125 -0.1171875,0.45703125 -0.7734375,0.45703125 V 1.640625e-4 c 0.3398437,-0.0117187525 0.8554687,-0.0351562525 1.125,-0.0351562525 0.2578125,0 0.7734375,0.0234375 1.1132812,0.0351562525 V -0.30452344 c -0.515625,0 -0.7734375,0 -0.7851562,-0.3046875 V -2.5076484 c 0,-0.8554688 0,-1.171875 -0.3046875,-1.5234375 -0.140625,-0.1757813 -0.46875,-0.375 -1.0429688,-0.375 -0.84375,0 -1.2773437,0.5976562 -1.4414062,0.984375 v -3.4921875 l -1.44140628,0.1054687 v 0.3164063 c 0.70312498,0 0.78515628,0.070312 0.78515628,0.5507812 z M 6.9803047,-3.9842109 H 8.4099922 V -4.2888984 H 6.9803047 V -6.1287422 H 6.7342109 c -0.011719,0.8203125 -0.3164062,1.8867188 -1.2890625,1.921875 v 0.2226563 h 0.84375 v 2.7539062 c 0,1.21875001 0.9257813,1.33593751 1.2890625,1.33593751 0.703125,0 0.984375,-0.703125 0.984375,-1.33593751 V -1.8045234 H 8.3162422 v 0.5507812 c 0,0.73828126 -0.3046875,1.11328126 -0.6679688,1.11328126 -0.6679687,0 -0.6679687,-0.90234376 -0.6679687,-1.07812496 z m 3.2519533,0.5625 v 2.66015621 c 0,0.45703125 -0.117188,0.45703125 -0.7851564,0.45703125 V 1.640625e-4 C 9.7986641,-0.01155469 10.30257,-0.03499219 10.572102,-0.03499219 c 0.257812,0 0.785156,0.0234375 1.113281,0.0351562525 V -0.30452344 c -0.65625,0 -0.773438,0 -0.773438,-0.45703125 V -2.5896797 c 0,-1.03125 0.714844,-1.59375 1.347657,-1.59375 0.621093,0 0.738281,0.5390625 0.738281,1.1015625 v 2.32031251 c 0,0.45703125 -0.117188,0.45703125 -0.773438,0.45703125 V 1.640625e-4 c 0.339844,-0.0117187525 0.855469,-0.0351562525 1.125,-0.0351562525 0.257813,0 0.773438,0.0234375 1.113282,0.0351562525 V -0.30452344 c -0.667969,0 -0.785157,0 -0.785157,-0.45703125 V -2.5896797 c 0,-1.03125 0.714844,-1.59375 1.347657,-1.59375 0.632812,0 0.738281,0.5390625 0.738281,1.1015625 v 2.32031251 c 0,0.45703125 -0.105469,0.45703125 -0.773438,0.45703125 V 1.640625e-4 c 0.351563,-0.0117187525 0.855469,-0.0351562525 1.125,-0.0351562525 0.257813,0 0.773438,0.0234375 1.113282,0.0351562525 V -0.30452344 c -0.515625,0 -0.761719,0 -0.773438,-0.3046875 V -2.5076484 c 0,-0.8554688 0,-1.171875 -0.316406,-1.5234375 -0.128906,-0.1757813 -0.46875,-0.375 -1.042969,-0.375 -0.832031,0 -1.277344,0.5976562 -1.441406,0.984375 -0.140625,-0.8671875 -0.878906,-0.984375 -1.324219,-0.984375 -0.726562,0 -1.195312,0.4335937 -1.476562,1.0546875 v -1.0546875 l -1.4062504,0.1171875 v 0.3046875 c 0.7031254,0 0.7851564,0.070312 0.7851564,0.5625 z m 8.958984,-3.4921875 -1.429687,0.1054687 v 0.3164063 c 0.703125,0 0.773437,0.070312 0.773437,0.5507812 v 5.17968751 c 0,0.45703125 -0.105469,0.45703125 -0.773437,0.45703125 V 1.640625e-4 C 18.08968,-0.01155469 18.617023,-0.03499219 18.863117,-0.03499219 c 0.257813,0 0.738281,0.0234375 1.113281,0.0351562525 V -0.30452344 c -0.667968,0 -0.785156,0 -0.785156,-0.45703125 z m 6.410156,4.9804687 c 0.222657,0.035156 1.03125,0.1992188 1.03125,0.9140625 0,0.51562501 -0.351562,0.91406251 -1.125,0.91406251 -0.832031,0 -1.195312,-0.57421875 -1.382812,-1.41796871 -0.03516,-0.1289063 -0.03516,-0.1757813 -0.140625,-0.1757813 -0.128906,0 -0.128906,0.070312 -0.128906,0.2578125 v 1.31250001 c 0,0.1640625 0,0.234375 0.105468,0.234375 0.05859,0 0.07031,0 0.257813,-0.19921875 0.01172,-0.01171875 0.01172,-0.03515625 0.199219,-0.22265625 0.433593,0.421875 0.878906,0.421875 1.089843,0.421875 1.148438,0 1.605469,-0.66796875 1.605469,-1.38281251 0,-0.5273437 -0.292969,-0.8203125 -0.421875,-0.9492187 -0.328125,-0.3164063 -0.714844,-0.3984375 -1.136719,-0.46875 -0.550781,-0.1171875 -1.21875,-0.2460938 -1.21875,-0.8203125 0,-0.3515625 0.257813,-0.7617188 1.113282,-0.7617188 1.101562,0 1.148437,0.9023438 1.171875,1.2070313 0,0.09375 0.09375,0.09375 0.117187,0.09375 0.128906,0 0.128906,-0.046875 0.128906,-0.2460938 v -0.9960937 c 0,-0.1757813 0,-0.2460938 -0.117187,-0.2460938 -0.04687,0 -0.07031,0 -0.199219,0.1171875 -0.02344,0.046875 -0.128906,0.1289063 -0.164062,0.1640625 -0.375,-0.28125 -0.785157,-0.28125 -0.9375,-0.28125 -1.21875,0 -1.59375,0.6679688 -1.59375,1.2304688 0,0.3398437 0.164062,0.6210937 0.433593,0.84375 0.316407,0.2578125 0.597657,0.3164062 1.3125,0.4570312 z m 3.612305,-2.4726562 -1.394531,0.1171875 v 0.3046875 c 0.65625,0 0.738281,0.058594 0.738281,0.5507812 v 2.67187501 c 0,0.45703125 -0.105469,0.45703125 -0.773437,0.45703125 V 1.640625e-4 C 28.100422,-0.01155469 28.639484,-0.03499219 28.885578,-0.03499219 c 0.339844,0 0.691406,0.0234375 1.03125,0.0351562525 V -0.30452344 c -0.65625,0 -0.703125,-0.0585938 -0.703125,-0.4453125 z m 0.04687,-1.734375 c 0,-0.3164063 -0.246094,-0.5273438 -0.527344,-0.5273438 -0.316406,0 -0.527343,0.2695313 -0.527343,0.5273438 0,0.2695312 0.210937,0.5273437 0.527343,0.5273437 0.28125,0 0.527344,-0.1992187 0.527344,-0.5273437 z m 2.686524,2.15625 h 1.429687 v -0.3046875 h -1.429687 v -1.8398438 h -0.246094 c -0.01172,0.8203125 -0.316406,1.8867188 -1.289063,1.921875 v 0.2226563 h 0.84375 v 2.7539062 c 0,1.21875001 0.925782,1.33593751 1.289063,1.33593751 0.703125,0 0.984375,-0.703125 0.984375,-1.33593751 v -0.5742187 h -0.246094 v 0.5507812 c 0,0.73828126 -0.304687,1.11328126 -0.667969,1.11328126 -0.667968,0 -0.667968,-0.90234376 -0.667968,-1.07812496 z m 3.266601,1.4765625 c 0.05859,-1.4882813 0.902344,-1.734375 1.242188,-1.734375 1.019531,0 1.125,1.3476562 1.125,1.734375 z m -0.01172,0.2109375 h 2.789063 c 0.210937,0 0.246094,0 0.246094,-0.2109375 0,-0.984375 -0.539063,-1.9570313 -1.78125,-1.9570313 -1.160157,0 -2.074219,1.03125 -2.074219,2.2734375 0,1.33593751 1.042969,2.29687501 2.191406,2.29687501 1.21875,0 1.664063,-1.1015625 1.664063,-1.28906251 0,-0.1054687 -0.08203,-0.1171875 -0.128907,-0.1171875 -0.09375,0 -0.117187,0.058594 -0.128906,0.140625 -0.351562,1.01953126 -1.253906,1.01953126 -1.347656,1.01953126 -0.503906,0 -0.902344,-0.29296875 -1.125,-0.66796875 C 35.201984,-1.2888984 35.201984,-1.9451484 35.201984,-2.2967109 Z m 0,0"
       style="fill:#000000;fill-opacity:1;fill-rule:nonzero;stroke:none"
       aria-label="htmlsite"
       transform="matrix(1.3333333,0,0,1.3333333,30.009333,174.824)" />
    <path
       id="path10"
       d="M 56.69362,42.5202 H 109.8452"
       style="fill:none;stroke:#000000;stroke-width:0.79701;stroke-linecap:butt;stroke-linejoin:miter;stroke-miterlimit:10;stroke-dasharray:none;stroke-opacity:1"
       transform="matrix(1.3333333,0,0,-1.3333333,17.896,226.904)" />
    <path
       id="path11"
       d="M -1.55415,2.0722 C -1.42464,1.29512 0,0.1295 0.38852,0 0,-0.1295 -1.42464,-1.29512 -1.55415,-2.0722"
       style="fill:none;stroke:#000000;stroke-width:0.6376;stroke-linecap:round;stroke-linejoin:round;stroke-miterlimit:10;stroke-dasharray:none;stroke-opacity:1"
       transform="matrix(1.3333333,0,0,-1.3333333,164.35627,170.2104)" />
    <path
       id="path12"
       d="m 1.1025937,-0.76232812 c 0,0.45703125 -0.11718745,0.45703125 -0.7851562,0.45703125 V -6.09375e-4 C 0.669,-0.01232812 1.1729062,-0.03576562 1.4424375,-0.03576562 c 0.2578125,0 0.7851562,0.0234375 1.1132812,0.035156245 V -0.30529687 c -0.65625,0 -0.7734375,0 -0.7734375,-0.45703125 V -2.5904531 c 0,-1.03125 0.7148438,-1.59375 1.3476563,-1.59375 0.6210937,0 0.7382812,0.5390625 0.7382812,1.1015625 v 2.32031248 c 0,0.45703125 -0.1171875,0.45703125 -0.7734375,0.45703125 v 0.304687495 c 0.3398438,-0.011718745 0.8554688,-0.035156245 1.125,-0.035156245 0.2578125,0 0.7734375,0.0234375 1.1132813,0.035156245 V -0.30529687 c -0.515625,0 -0.7734375,0 -0.7851563,-0.3046875 V -2.5084219 c 0,-0.8554687 0,-1.171875 -0.3046875,-1.5234375 -0.140625,-0.1757812 -0.46875,-0.375 -1.0429687,-0.375 -0.84375,0 -1.2773438,0.5976563 -1.4414063,0.984375 v -3.4921875 l -1.4414062,0.1054688 v 0.3164062 c 0.703125,0 0.7851562,0.070312 0.7851562,0.5507813 z M 6.9795469,-3.9849844 H 8.4092344 V -4.2896719 H 6.9795469 V -6.1295156 H 6.7334531 c -0.011719,0.8203125 -0.3164062,1.8867187 -1.2890625,1.921875 v 0.2226562 h 0.84375 v 2.7539063 c 0,1.21874998 0.9257813,1.33593748 1.2890625,1.33593748 0.703125,0 0.984375,-0.703125 0.984375,-1.33593748 V -1.8052969 H 8.3154844 v 0.5507813 c 0,0.73828123 -0.3046875,1.11328123 -0.6679688,1.11328123 -0.6679687,0 -0.6679687,-0.90234373 -0.6679687,-1.07812503 z m 3.2519531,0.5625 v 2.66015628 c 0,0.45703125 -0.117188,0.45703125 -0.7851563,0.45703125 V -6.09375e-4 C 9.7979062,-0.01232812 10.301812,-0.03576562 10.571344,-0.03576562 c 0.257812,0 0.785156,0.0234375 1.113281,0.035156245 V -0.30529687 c -0.65625,0 -0.773438,0 -0.773438,-0.45703125 V -2.5904531 c 0,-1.03125 0.714844,-1.59375 1.347657,-1.59375 0.621093,0 0.738281,0.5390625 0.738281,1.1015625 v 2.32031248 c 0,0.45703125 -0.117188,0.45703125 -0.773438,0.45703125 v 0.304687495 c 0.339844,-0.011718745 0.855469,-0.035156245 1.125,-0.035156245 0.257813,0 0.773438,0.0234375 1.113282,0.035156245 V -0.30529687 c -0.667969,0 -0.785157,0 -0.785157,-0.45703125 V -2.5904531 c 0,-1.03125 0.714844,-1.59375 1.347657,-1.59375 0.632812,0 0.738281,0.5390625 0.738281,1.1015625 v 2.32031248 c 0,0.45703125 -0.105469,0.45703125 -0.773438,0.45703125 v 0.304687495 c 0.351563,-0.011718745 0.855469,-0.035156245 1.125,-0.035156245 0.257813,0 0.773438,0.0234375 1.113282,0.035156245 V -0.30529687 c -0.515625,0 -0.761719,0 -0.773438,-0.3046875 V -2.5084219 c 0,-0.8554687 0,-1.171875 -0.316406,-1.5234375 -0.128906,-0.1757812 -0.46875,-0.375 -1.042969,-0.375 -0.832031,0 -1.277344,0.5976563 -1.441406,0.984375 -0.140625,-0.8671875 -0.878906,-0.984375 -1.324219,-0.984375 -0.726562,0 -1.195312,0.4335938 -1.476562,1.0546875 v -1.0546875 l -1.4062503,0.1171875 v 0.3046875 c 0.7031253,0 0.7851563,0.070312 0.7851563,0.5625 z m 8.958984,-3.4921875 -1.429687,0.1054688 v 0.3164062 c 0.703125,0 0.773437,0.070312 0.773437,0.5507813 v 5.17968748 c 0,0.45703125 -0.105468,0.45703125 -0.773437,0.45703125 v 0.304687495 c 0.328125,-0.011718745 0.855469,-0.035156245 1.101562,-0.035156245 0.257813,0 0.738282,0.0234375 1.113282,0.035156245 V -0.30529687 c -0.667969,0 -0.785157,0 -0.785157,-0.45703125 z m 0,0"
       style="fill:#000000;fill-opacity:1;fill-rule:nonzero;stroke:none"
       aria-label="html"
       transform="matrix(1.3333333,0,0,1.3333333,155.608,148.368)" />
    <path
       id="path13"
       d="m 113.38724,28.3468 v 28.34682 h 56.69362 V 28.3468 Z"
       style="fill:#cceffc;fill-opacity:1;fill-rule:nonzero;stroke:#000000;stroke-width:0.79701;stroke-linecap:butt;stroke-linejoin:miter;stroke-miterlimit:10;stroke-dasharray:none;stroke-opacity:1"
       transform="matrix(1.3333333,0,0,-1.3333333,17.896,226.904)" />
    <path
       id="path14"
       d="m 2.2157344,-1.7115 c -0.8671875,0 -0.8671875,-0.9960938 -0.8671875,-1.2304688 0,-0.2695312 0.011719,-0.5859375 0.1523437,-0.8320312 0.082031,-0.1171875 0.3164063,-0.3984375 0.7148438,-0.3984375 0.8671875,0 0.8671875,0.9960937 0.8671875,1.21875 0,0.2695312 -0.011719,0.5976562 -0.1640625,0.84375 C 2.8368281,-1.99275 2.6141719,-1.7115 2.2157344,-1.7115 Z m -1.1601563,0.3867187 c 0,-0.035156 0,-0.2695312 0.1757813,-0.46875 0.3867187,0.28125 0.796875,0.3046875 0.984375,0.3046875 0.9257812,0 1.6054687,-0.6796875 1.6054687,-1.453125 0,-0.3632812 -0.1523437,-0.7382812 -0.3984375,-0.9609375 0.3515625,-0.3398437 0.7148438,-0.3867187 0.890625,-0.3867187 0.023437,0 0.070312,0 0.1054688,0 -0.1171875,0.046875 -0.1640625,0.1523437 -0.1640625,0.2695312 0,0.1757813 0.1289062,0.2929688 0.2929687,0.2929688 0.09375,0 0.28125,-0.070312 0.28125,-0.2929688 0,-0.1757812 -0.1171875,-0.4921875 -0.5039062,-0.4921875 -0.1992188,0 -0.6328125,0.058594 -1.0546875,0.46875 -0.421875,-0.328125 -0.84375,-0.3632812 -1.0546875,-0.3632812 -0.9257813,0 -1.61718752,0.6914062 -1.61718752,1.453125 0,0.4453125 0.22265625,0.8203125 0.46875002,1.03125 -0.12890627,0.1523437 -0.30468752,0.4804687 -0.30468752,0.8203125 0,0.31640625 0.12890625,0.69140625 0.43359372,0.890625 -0.59765622,0.17578125 -0.91406247,0.59765625 -0.91406247,0.99609375 0,0.71484375 0.98437497,1.26562495 2.20312497,1.26562495 1.171875,0 2.203125,-0.5039062 2.203125,-1.28906245 0,-0.33984375 -0.140625,-0.85546875 -0.6445312,-1.125 -0.5273438,-0.28125 -1.1015625,-0.28125 -1.7109375,-0.28125 -0.2460938,0 -0.6796875,0 -0.75,-0.0117188 C 1.2665156,-0.7036875 1.0555781,-1.008375 1.0555781,-1.3247813 Z m 1.4414063,3.1523438 c -1.0078125,0 -1.69921877,-0.515625 -1.69921877,-1.04296875 0,-0.45703125 0.37499997,-0.8203125 0.82031247,-0.85546875 h 0.5859375 c 0.8554688,0 1.96875,0 1.96875,0.85546875 0,0.53906245 -0.703125,1.04296875 -1.6757812,1.04296875 z m 3.5859375,-2.58984375 c 0,0.45703125 -0.1171875,0.45703125 -0.7851563,0.45703125 v 0.3046875 c 0.3515625,-0.01171875 0.8554688,-0.03515625 1.125,-0.03515625 0.2578125,0 0.7851563,0.0234375 1.1132813,0.03515625 V -0.30525 c -0.65625,0 -0.7734375,0 -0.7734375,-0.45703125 V -2.5904063 c 0,-1.03125 0.7148437,-1.59375 1.3476562,-1.59375 0.6210938,0 0.7382813,0.5390625 0.7382813,1.1015625 v 2.32031255 c 0,0.45703125 -0.1171875,0.45703125 -0.7734375,0.45703125 v 0.3046875 c 0.3398437,-0.01171875 0.8554687,-0.03515625 1.125,-0.03515625 0.2578125,0 0.7734375,0.0234375 1.1132816,0.03515625 V -0.30525 c -0.5156254,0 -0.7734379,0 -0.7851566,-0.3046875 V -2.508375 c 0,-0.8554688 0,-1.171875 -0.3046875,-1.5234375 -0.140625,-0.1757813 -0.46875,-0.375 -1.0429688,-0.375 -0.84375,0 -1.2773437,0.5976562 -1.4414062,0.984375 V -6.914625 L 5.2977656,-6.8091563 V -6.49275 c 0.703125,0 0.7851563,0.070312 0.7851563,0.5507812 z M 10.867102,-6.8091563 V -6.49275 h 0.234375 c 0.773437,0 0.785156,0.1054687 0.785156,0.46875 v 5.25 c 0,0.3515625 -0.01172,0.46875 -0.785156,0.46875 h -0.234375 v 0.3046875 h 3.644531 c 1.675781,0 3.046875,-1.4765625 3.046875,-3.3515625 0,-1.8867188 -1.347656,-3.4570313 -3.046875,-3.4570313 z m 2.367187,6.5039063 c -0.46875,0 -0.492187,-0.0703125 -0.492187,-0.3984375 v -5.390625 c 0,-0.328125 0.02344,-0.3984375 0.492187,-0.3984375 h 0.996094 c 0.621094,0 1.300781,0.2109375 1.816406,0.9257812 0.421875,0.5859375 0.515625,1.4414063 0.515625,2.2148438 0,1.1132812 -0.1875,1.7109375 -0.550781,2.1914062 -0.199219,0.2695313 -0.761719,0.8554688 -1.769531,0.8554688 z m 6.005859,-2.203125 c 0.05859,-1.4882813 0.902344,-1.734375 1.242188,-1.734375 1.019531,0 1.125,1.3476562 1.125,1.734375 z m -0.01172,0.2109375 h 2.789062 c 0.210938,0 0.246094,0 0.246094,-0.2109375 0,-0.984375 -0.539063,-1.9570313 -1.78125,-1.9570313 -1.160156,0 -2.074219,1.03125 -2.074219,2.2734375 0,1.33593755 1.042969,2.29687505 2.191406,2.29687505 1.21875,0 1.664063,-1.1015625 1.664063,-1.28906255 0,-0.1054687 -0.08203,-0.1171875 -0.128906,-0.1171875 -0.09375,0 -0.117188,0.058594 -0.128907,0.140625 -0.351562,1.0195313 -1.253906,1.0195313 -1.347656,1.0195313 -0.503906,0 -0.902344,-0.29296875 -1.125,-0.66796875 C 19.22843,-1.289625 19.22843,-1.945875 19.22843,-2.2974375 Z m 5.399414,0.3632812 c 0.222656,0.035156 1.03125,0.1992188 1.03125,0.9140625 0,0.51562505 -0.351563,0.91406255 -1.125,0.91406255 -0.832031,0 -1.195313,-0.57421875 -1.382813,-1.41796875 -0.03516,-0.1289063 -0.03516,-0.1757813 -0.140625,-0.1757813 -0.128906,0 -0.128906,0.070312 -0.128906,0.2578125 v 1.31250005 c 0,0.1640625 0,0.234375 0.105469,0.234375 0.05859,0 0.07031,0 0.257812,-0.19921875 0.01172,-0.01171875 0.01172,-0.03515625 0.199219,-0.22265625 0.433594,0.421875 0.878906,0.421875 1.089844,0.421875 1.148437,0 1.605469,-0.66796875 1.605469,-1.38281255 0,-0.5273437 -0.292969,-0.8203125 -0.421875,-0.9492187 -0.328125,-0.3164063 -0.714844,-0.3984375 -1.136719,-0.46875 -0.550781,-0.1171875 -1.21875,-0.2460938 -1.21875,-0.8203125 0,-0.3515625 0.257812,-0.7617188 1.113281,-0.7617188 1.101563,0 1.148438,0.9023438 1.171875,1.2070313 0,0.09375 0.09375,0.09375 0.117188,0.09375 0.128906,0 0.128906,-0.046875 0.128906,-0.2460938 v -0.9960937 c 0,-0.1757813 0,-0.2460938 -0.117188,-0.2460938 -0.04687,0 -0.07031,0 -0.199218,0.1171875 -0.02344,0.046875 -0.128907,0.1289063 -0.164063,0.1640625 -0.375,-0.28125 -0.785156,-0.28125 -0.9375,-0.28125 -1.21875,0 -1.59375,0.6679688 -1.59375,1.2304688 0,0.3398437 0.164063,0.6210937 0.433594,0.84375 0.316406,0.2578125 0.597656,0.3164062 1.3125,0.4570312 z m 2.909179,1.17187505 c 0,0.45703125 -0.105468,0.45703125 -0.773437,0.45703125 v 0.3046875 c 0.328125,-0.01171875 0.796875,-0.03515625 1.078125,-0.03515625 0.304687,0 0.703125,0.01171875 1.101562,0.03515625 V -0.30525 c -0.667968,0 -0.773437,0 -0.773437,-0.45703125 V -1.7818125 l 0.632812,-0.5507813 c 0.773438,1.0546875 1.183594,1.61718755 1.183594,1.7929688 0,0.1875 -0.164062,0.234375 -0.351562,0.234375 v 0.3046875 c 0.269531,-0.01171875 0.867187,-0.03515625 1.066406,-0.03515625 0.292969,0 0.585937,0.01171875 0.867187,0.03515625 V -0.30525 c -0.363281,0 -0.585937,0 -0.960937,-0.52734375 L 29.341711,-2.6255625 c -0.01172,-0.011719 -0.05859,-0.070312 -0.05859,-0.1054688 0,-0.035156 0.703125,-0.6328125 0.808594,-0.7148437 0.621094,-0.5039063 1.042969,-0.5273438 1.253906,-0.5390625 V -4.289625 c -0.292969,0.023437 -0.421875,0.023437 -0.703125,0.023437 -0.351562,0 -0.972656,-0.023437 -1.113281,-0.023437 v 0.3046875 c 0.1875,0.011719 0.292969,0.1171875 0.292969,0.2460937 0,0.1992188 -0.140625,0.3164063 -0.222657,0.3867188 l -1.40625,1.21875 v -4.78125 L 26.76359,-6.8091563 V -6.49275 c 0.691406,0 0.773437,0.070312 0.773437,0.5507812 z m 5.926758,-3.22265625 h 1.429688 V -4.289625 h -1.429688 v -1.8398438 h -0.246093 c -0.01172,0.8203125 -0.316407,1.8867188 -1.289063,1.921875 v 0.2226563 h 0.84375 v 2.7539062 c 0,1.21875005 0.925781,1.33593755 1.289063,1.33593755 0.703125,0 0.984375,-0.703125 0.984375,-1.33593755 V -1.80525 h -0.246094 v 0.5507812 c 0,0.7382813 -0.304688,1.1132813 -0.667969,1.1132813 -0.667969,0 -0.667969,-0.9023438 -0.667969,-1.078125 z M 40.3046,-2.133375 c 0,-1.2773438 -0.996094,-2.3320313 -2.191407,-2.3320313 -1.253906,0 -2.214843,1.0898438 -2.214843,2.3320313 0,1.2890625 1.03125,2.23828125 2.203125,2.23828125 1.207031,0 2.203125,-0.97265625 2.203125,-2.23828125 z m -2.191407,1.9921875 c -0.433593,0 -0.867187,-0.2109375 -1.136718,-0.66796875 C 36.718664,-1.24275 36.718664,-1.852125 36.718664,-2.2154063 c 0,-0.3867187 0,-0.9257812 0.246094,-1.359375 0.269531,-0.4570312 0.738281,-0.6679687 1.136719,-0.6679687 0.433593,0 0.867187,0.2226562 1.125,0.6445312 0.257812,0.4335938 0.257812,1.0078125 0.257812,1.3828125 0,0.3632813 0,0.9023438 -0.222656,1.33593755 -0.222656,0.4453125 -0.65625,0.73828125 -1.148438,0.73828125 z m 4.195313,-3.609375 v -0.65625 L 40.87882,-4.289625 v 0.3046875 c 0.703125,0 0.773438,0.058594 0.773438,0.4921875 v 4.6640625 c 0,0.4570312 -0.105469,0.4570312 -0.773438,0.4570312 v 0.3046875 c 0.339844,-0.011719 0.855469,-0.035156 1.113282,-0.035156 0.269531,0 0.773437,0.023437 1.125,0.035156 V 1.6283437 c -0.667969,0 -0.773438,0 -0.773438,-0.4570312 V -0.5865 c 0.04687,0.15234375 0.46875,0.69140625 1.21875,0.69140625 1.183594,0 2.226563,-0.97265625 2.226563,-2.26171875 0,-1.265625 -0.972657,-2.25 -2.085938,-2.25 -0.773437,0 -1.195312,0.4453125 -1.394531,0.65625 z m 0.03516,2.6132812 V -3.352125 C 42.624914,-3.86775 43.117102,-4.149 43.621008,-4.149 c 0.726562,0 1.335937,0.8671875 1.335937,1.9921875 0,1.20703125 -0.691406,2.05078125 -1.429687,2.05078125 -0.398438,0 -0.773438,-0.19921875 -1.042969,-0.609375 -0.140625,-0.2109375 -0.140625,-0.22265625 -0.140625,-0.42187505 z m 0,0"
       style="fill:#000000;fill-opacity:1;fill-rule:nonzero;stroke:none"
       aria-label="ghDesktop"
       transform="matrix(1.3333333,0,0,1.3333333,176.116,173.532)" />
    <path
       id="path15"
       d="m 170.08086,42.5202 53.86009,40.39505"
       style="fill:none;stroke:#000000;stroke-width:0.79701;stroke-linecap:butt;stroke-linejoin:miter;stroke-miterlimit:10;stroke-dasharray:none;stroke-opacity:1"
       transform="matrix(1.3333333,0,0,-1.3333333,17.896,226.904)" />
    <path
       id="path16"
       d="M -1.55415,2.0722 C -1.42464,1.29512 0,0.1295 0.38852,0 0,-0.1295 -1.42464,-1.29512 -1.55415,-2.0722"
       style="fill:none;stroke:#000000;stroke-width:0.6376;stroke-linecap:round;stroke-linejoin:round;stroke-miterlimit:10;stroke-dasharray:none;stroke-opacity:1"
       transform="matrix(1.0666267,-0.79998667,-0.79998667,-1.0666267,316.48393,116.35033)" />
    <path
       id="path17"
       d="m 1.1026328,-0.76171094 c 0,0.45703125 -0.11718749,0.45703125 -0.78515624,0.45703125 V 7.8125e-6 C 0.66903906,-0.01171094 1.1729453,-0.03514844 1.4424766,-0.03514844 c 0.2578125,0 0.7851562,0.0234375 1.1132812,0.0351562525 V -0.30467969 c -0.65625,0 -0.7734375,0 -0.7734375,-0.45703125 V -2.5898359 c 0,-1.03125 0.7148438,-1.59375 1.3476563,-1.59375 0.6210937,0 0.7382812,0.5390625 0.7382812,1.1015625 v 2.32031246 c 0,0.45703125 -0.1171875,0.45703125 -0.7734375,0.45703125 V 7.8125e-6 c 0.3398438,-0.0117187525 0.8554688,-0.0351562525 1.125,-0.0351562525 0.2578125,0 0.7734375,0.0234375 1.1132813,0.0351562525 V -0.30467969 c -0.515625,0 -0.7734375,0 -0.7851563,-0.3046875 V -2.5078047 c 0,-0.8554687 0,-1.171875 -0.3046875,-1.5234375 -0.140625,-0.1757812 -0.46875,-0.375 -1.0429687,-0.375 -0.84375,0 -1.2773438,0.5976563 -1.4414063,0.984375 v -3.4921875 l -1.44140624,0.1054688 v 0.3164062 c 0.70312504,0 0.78515624,0.070312 0.78515624,0.5507813 z M 6.9795859,-3.9843672 H 8.4092734 V -4.2890547 H 6.9795859 V -6.1288984 H 6.7334922 c -0.011719,0.8203125 -0.3164063,1.8867187 -1.2890625,1.921875 v 0.2226562 h 0.84375 v 2.7539063 c 0,1.21874996 0.9257812,1.33593746 1.2890625,1.33593746 0.703125,0 0.984375,-0.703125 0.984375,-1.33593746 V -1.8046797 H 8.3155234 v 0.5507813 c 0,0.73828121 -0.3046875,1.11328121 -0.6679687,1.11328121 -0.6679688,0 -0.6679688,-0.90234371 -0.6679688,-1.07812501 z m 3.2519531,0.5625 v 2.66015626 c 0,0.45703125 -0.117187,0.45703125 -0.7851562,0.45703125 V 7.8125e-6 C 9.7979453,-0.01171094 10.301852,-0.03514844 10.571383,-0.03514844 c 0.257812,0 0.785156,0.0234375 1.113281,0.0351562525 V -0.30467969 c -0.65625,0 -0.773437,0 -0.773437,-0.45703125 V -2.5898359 c 0,-1.03125 0.714843,-1.59375 1.347656,-1.59375 0.621094,0 0.738281,0.5390625 0.738281,1.1015625 v 2.32031246 c 0,0.45703125 -0.117187,0.45703125 -0.773437,0.45703125 V 7.8125e-6 c 0.339843,-0.0117187525 0.855468,-0.0351562525 1.125,-0.0351562525 0.257812,0 0.773437,0.0234375 1.113281,0.0351562525 V -0.30467969 c -0.667969,0 -0.785156,0 -0.785156,-0.45703125 V -2.5898359 c 0,-1.03125 0.714843,-1.59375 1.347656,-1.59375 0.632812,0 0.738281,0.5390625 0.738281,1.1015625 v 2.32031246 c 0,0.45703125 -0.105469,0.45703125 -0.773437,0.45703125 V 7.8125e-6 c 0.351562,-0.0117187525 0.855468,-0.0351562525 1.125,-0.0351562525 0.257812,0 0.773437,0.0234375 1.113281,0.0351562525 V -0.30467969 c -0.515625,0 -0.761719,0 -0.773438,-0.3046875 V -2.5078047 c 0,-0.8554687 0,-1.171875 -0.316406,-1.5234375 -0.128906,-0.1757812 -0.46875,-0.375 -1.042969,-0.375 -0.832031,0 -1.277343,0.5976563 -1.441406,0.984375 -0.140625,-0.8671875 -0.878906,-0.984375 -1.324219,-0.984375 -0.726562,0 -1.195312,0.4335938 -1.476562,1.0546875 v -1.0546875 l -1.4062502,0.1171875 v 0.3046875 c 0.7031252,0 0.7851562,0.070312 0.7851562,0.5625 z m 8.958984,-3.4921875 -1.429687,0.1054688 v 0.3164062 c 0.703125,0 0.773437,0.070312 0.773437,0.5507813 v 5.17968746 c 0,0.45703125 -0.105468,0.45703125 -0.773437,0.45703125 V 7.8125e-6 C 18.088961,-0.01171094 18.616305,-0.03514844 18.862398,-0.03514844 c 0.257813,0 0.738282,0.0234375 1.113282,0.0351562525 V -0.30467969 c -0.667969,0 -0.785157,0 -0.785157,-0.45703125 z m 0,0"
       style="fill:#000000;fill-opacity:1;fill-rule:nonzero;stroke:none"
       aria-label="html"
       transform="matrix(1.3333333,0,0,1.3333333,268.99467,72.777333)" />
    <path
       id="path18"
       d="m 198.42766,85.04042 v 28.34682 h 56.69362 V 85.04042 Z"
       style="fill:#ffd9b3;fill-opacity:1;fill-rule:nonzero;stroke:#000000;stroke-width:0.79701;stroke-linecap:butt;stroke-linejoin:miter;stroke-miterlimit:10;stroke-dasharray:none;stroke-opacity:1"
       transform="matrix(1.3333333,0,0,-1.3333333,17.896,226.904)" />
    <path
       id="path19"
       d="m 2.2134062,-1.7108828 c -0.8671875,0 -0.8671875,-0.9960938 -0.8671875,-1.2304688 0,-0.2695312 0.011719,-0.5859375 0.1523438,-0.8320312 0.082031,-0.1171875 0.3164062,-0.3984375 0.7148437,-0.3984375 0.8671875,0 0.8671875,0.9960937 0.8671875,1.21875 0,0.2695312 -0.011719,0.5976562 -0.1640625,0.84375 -0.082031,0.1171875 -0.3046875,0.3984375 -0.703125,0.3984375 z M 1.05325,-1.3241641 c 0,-0.035156 0,-0.2695312 0.1757812,-0.46875 0.3867188,0.28125 0.796875,0.3046875 0.984375,0.3046875 0.9257813,0 1.6054688,-0.6796875 1.6054688,-1.453125 0,-0.3632812 -0.1523438,-0.7382812 -0.3984375,-0.9609375 0.3515625,-0.3398437 0.7148437,-0.3867187 0.890625,-0.3867187 0.023437,0 0.070312,0 0.1054687,0 -0.1171875,0.046875 -0.1640625,0.1523437 -0.1640625,0.2695312 0,0.1757813 0.1289063,0.2929688 0.2929688,0.2929688 0.09375,0 0.28125,-0.070312 0.28125,-0.2929688 0,-0.1757812 -0.1171875,-0.4921875 -0.5039063,-0.4921875 -0.1992187,0 -0.6328125,0.058594 -1.0546875,0.46875 -0.421875,-0.328125 -0.84375,-0.3632812 -1.0546875,-0.3632812 -0.9257812,0 -1.61718745,0.6914062 -1.61718745,1.453125 0,0.4453125 0.22265625,0.8203125 0.46874995,1.03125 -0.1289062,0.1523437 -0.30468745,0.4804687 -0.30468745,0.8203125 0,0.31640624 0.12890625,0.69140624 0.43359375,0.89062499 -0.59765625,0.17578125 -0.9140625,0.59765625 -0.9140625,0.99609375 0,0.71484376 0.984375,1.26562496 2.203125,1.26562496 1.171875,0 2.203125,-0.5039062 2.203125,-1.28906246 0,-0.33984375 -0.140625,-0.85546875 -0.6445313,-1.125 -0.5273437,-0.28125 -1.1015625,-0.28125 -1.7109375,-0.28125 -0.2460937,0 -0.6796875,0 -0.75,-0.0117188 C 1.2641875,-0.70307031 1.05325,-1.0077578 1.05325,-1.3241641 Z m 1.4414062,3.1523438 c -1.0078125,0 -1.6992187,-0.515625 -1.6992187,-1.04296876 0,-0.45703125 0.375,-0.8203125 0.8203125,-0.85546875 h 0.5859375 c 0.8554687,0 1.96875,0 1.96875,0.85546875 0,0.53906246 -0.703125,1.04296876 -1.6757813,1.04296876 z m 4.2451172,-6.234375 -1.3945312,0.1171875 v 0.3046875 c 0.65625,0 0.7382812,0.058594 0.7382812,0.5507812 v 2.67187504 c 0,0.45703125 -0.1054687,0.45703125 -0.7734375,0.45703125 V 5.46875e-5 C 5.6264922,-0.01166406 6.1655547,-0.03510156 6.4116484,-0.03510156 c 0.3398438,0 0.6914063,0.0234375 1.03125,0.0351562475 V -0.30463281 c -0.65625,0 -0.703125,-0.0585938 -0.703125,-0.4453125 z m 0.046875,-1.734375 c 0,-0.3164063 -0.2460937,-0.5273438 -0.5273437,-0.5273438 -0.3164063,0 -0.5273438,0.2695313 -0.5273438,0.5273438 0,0.2695312 0.2109375,0.5273437 0.5273438,0.5273437 0.28125,0 0.5273437,-0.1992187 0.5273437,-0.5273437 z m 2.6835938,2.15625 H 10.89993 V -4.2890078 H 9.4702422 V -6.1288516 H 9.2241484 c -0.011719,0.8203125 -0.3164062,1.8867188 -1.2890625,1.921875 v 0.2226563 h 0.84375 v 2.7539062 c 0,1.21875004 0.9257813,1.33593754 1.2890621,1.33593754 0.703125,0 0.984375,-0.703125 0.984375,-1.33593754 V -1.8046328 H 10.80618 v 0.5507812 c 0,0.73828129 -0.304688,1.11328129 -0.667969,1.11328129 -0.6679688,0 -0.6679688,-0.90234379 -0.6679688,-1.07812499 z m 3.2548828,3.22265624 c 0,0.45703125 -0.117188,0.45703125 -0.785156,0.45703125 V 5.46875e-5 c 0.351562,-0.0117187475 0.855468,-0.0351562475 1.125,-0.0351562475 0.257812,0 0.785156,0.0234375 1.113281,0.0351562475 V -0.30463281 c -0.65625,0 -0.773438,0 -0.773438,-0.45703125 V -2.5897891 c 0,-1.03125 0.714844,-1.59375 1.347657,-1.59375 0.621093,0 0.738281,0.5390625 0.738281,1.1015625 v 2.32031254 c 0,0.45703125 -0.117188,0.45703125 -0.773438,0.45703125 V 5.46875e-5 c 0.339844,-0.0117187475 0.855469,-0.0351562475 1.125,-0.0351562475 0.257813,0 0.773438,0.0234375 1.113282,0.0351562475 V -0.30463281 c -0.515625,0 -0.773438,0 -0.785157,-0.3046875 V -2.5077578 c 0,-0.8554688 0,-1.171875 -0.304687,-1.5234375 -0.140625,-0.1757813 -0.46875,-0.375 -1.042969,-0.375 -0.84375,0 -1.277344,0.5976562 -1.441406,0.984375 v -3.4921875 l -1.441406,0.1054687 v 0.3164063 c 0.703125,0 0.785156,0.070312 0.785156,0.5507812 z m 8.044922,-0.0234375 v 0.890625 L 22.211453,5.46875e-5 V -0.30463281 c -0.703125,0 -0.785156,-0.0703125 -0.785156,-0.5625 V -4.4061953 l -1.453125,0.1171875 v 0.3046875 c 0.691406,0 0.773437,0.070312 0.773437,0.5625 v 1.7695312 c 0,0.86718754 -0.480468,1.54687504 -1.207031,1.54687504 -0.832031,0 -0.878906,-0.46875 -0.878906,-0.99609374 v -3.3046875 l -1.464844,0.1171875 v 0.3046875 c 0.785156,0 0.785156,0.035156 0.785156,0.9140625 v 1.5 c 0,0.77343749 0,1.67578124 1.511719,1.67578124 0.550781,0 0.996094,-0.26953125 1.277344,-0.890625 z m 3.354492,-2.96484374 v -3.1640625 l -1.429687,0.1054687 v 0.3164063 c 0.691406,0 0.773437,0.070312 0.773437,0.5507812 V 5.46875e-5 h 0.246094 c 0.01172,-0.0117187475 0.09375,-0.1523437475 0.363281,-0.6210937475 0.152344,0.234375 0.5625,0.7265625 1.300781,0.7265625 1.183594,0 2.226563,-0.97265625 2.226563,-2.26171874 0,-1.265625 -0.972656,-2.25 -2.109375,-2.25 -0.785156,0 -1.207031,0.46875 -1.371094,0.65625 z m 0.03516,2.6132812 v -2.0507812 c 0,-0.1875 0,-0.1992188 0.105469,-0.3632813 0.386719,-0.5507812 0.9375,-0.6328125 1.171875,-0.6328125 0.457031,0 0.808594,0.2578125 1.054688,0.6328125 0.257812,0.4101563 0.28125,0.984375 0.28125,1.3945313 0,0.3632812 -0.01172,0.9609375 -0.304688,1.40624999 -0.210937,0.31640625 -0.585937,0.64453125 -1.125,0.64453125 -0.445312,0 -0.808594,-0.24609375 -1.042969,-0.609375 -0.140625,-0.2109375 -0.140625,-0.24609375 -0.140625,-0.42187504 z m 5.701172,0.60937504 c 0,-0.29296875 -0.234375,-0.52734374 -0.527344,-0.52734374 -0.28125,0 -0.527343,0.23437499 -0.527343,0.52734374 0,0.29296875 0.246093,0.5273437475 0.527343,0.5273437475 0.292969,0 0.527344,-0.2343749975 0.527344,-0.5273437475 z m 2.015625,-1.64062504 c 0,-1.6289062 0.820313,-2.0507812 1.347656,-2.0507812 0.09375,0 0.714844,0.011719 1.066407,0.375 -0.410157,0.023437 -0.46875,0.328125 -0.46875,0.4570312 0,0.2578125 0.1875,0.4570313 0.457031,0.4570313 0.257812,0 0.457031,-0.1640625 0.457031,-0.46875 0,-0.6796875 -0.75,-1.0664063 -1.523437,-1.0664063 -1.242188,0 -2.15625,1.078125 -2.15625,2.3085938 0,1.27734374 0.984375,2.26171874 2.144531,2.26171874 1.335937,0 1.652344,-1.19531254 1.652344,-1.28906254 0,-0.1054687 -0.105469,-0.1054687 -0.128907,-0.1054687 -0.09375,0 -0.117187,0.046875 -0.128906,0.1054687 -0.292969,0.92578129 -0.9375,1.04296879 -1.3125,1.04296879 -0.527344,0 -1.40625,-0.421875 -1.40625,-2.02734379 z m 7.957031,0.035156 c 0,-1.2773438 -0.996093,-2.3320313 -2.191406,-2.3320313 -1.253906,0 -2.214844,1.0898438 -2.214844,2.3320313 0,1.28906249 1.03125,2.23828124 2.203125,2.23828124 1.207032,0 2.203125,-0.97265625 2.203125,-2.23828124 z m -2.191406,1.99218749 c -0.433594,0 -0.867187,-0.2109375 -1.136719,-0.66796875 C 36.24759,-1.2421331 36.24759,-1.8515081 36.24759,-2.2147894 c 0,-0.3867187 0,-0.9257812 0.246094,-1.359375 0.269531,-0.4570312 0.738281,-0.6679687 1.136718,-0.6679687 0.433594,0 0.867188,0.2226562 1.125,0.6445312 0.257813,0.4335938 0.257813,1.0078125 0.257813,1.3828125 0,0.3632813 0,0.9023438 -0.222656,1.33593754 -0.222657,0.4453125 -0.65625,0.73828125 -1.148438,0.73828125 z m 3.585938,-3.28124999 v 2.66015624 c 0,0.45703125 -0.117188,0.45703125 -0.785157,0.45703125 V 5.46875e-5 c 0.351563,-0.0117187475 0.855469,-0.0351562475 1.125,-0.0351562475 0.257813,0 0.785157,0.0234375 1.113282,0.0351562475 V -0.30463281 c -0.65625,0 -0.773438,0 -0.773438,-0.45703125 V -2.5897891 c 0,-1.03125 0.714844,-1.59375 1.347656,-1.59375 0.621094,0 0.738282,0.5390625 0.738282,1.1015625 v 2.32031254 c 0,0.45703125 -0.117188,0.45703125 -0.773438,0.45703125 V 5.46875e-5 c 0.339844,-0.0117187475 0.855469,-0.0351562475 1.125,-0.0351562475 0.257813,0 0.773438,0.0234375 1.113281,0.0351562475 V -0.30463281 c -0.667968,0 -0.785156,0 -0.785156,-0.45703125 V -2.5897891 c 0,-1.03125 0.714844,-1.59375 1.347656,-1.59375 0.632813,0 0.738282,0.5390625 0.738282,1.1015625 v 2.32031254 c 0,0.45703125 -0.105469,0.45703125 -0.773438,0.45703125 V 5.46875e-5 c 0.351563,-0.0117187475 0.855469,-0.0351562475 1.125,-0.0351562475 0.257813,0 0.773438,0.0234375 1.113281,0.0351562475 V -0.30463281 c -0.515625,0 -0.761718,0 -0.773437,-0.3046875 V -2.5077578 c 0,-0.8554688 0,-1.171875 -0.316406,-1.5234375 -0.128907,-0.1757813 -0.46875,-0.375 -1.042969,-0.375 -0.832031,0 -1.277344,0.5976562 -1.441406,0.984375 -0.140625,-0.8671875 -0.878907,-0.984375 -1.324219,-0.984375 -0.726563,0 -1.195313,0.4335937 -1.476563,1.0546875 v -1.0546875 l -1.40625,0.1171875 v 0.3046875 c 0.703125,0 0.785157,0.070312 0.785157,0.5624997 z m 0,0"
       style="fill:#000000;fill-opacity:1;fill-rule:nonzero;stroke:none"
       aria-label="github.com"
       transform="matrix(1.3333333,0,0,1.3333333,287.97067,97.941333)" />
  </g>
</svg>
