<?xml version="1.0" encoding="UTF-8" standalone="no"?>
<!-- Created with Inkscape (http://www.inkscape.org/) -->

<svg
   version="1.1"
   id="svg1"
   width="196.243"
   height="93.021477"
   viewBox="0 0 196.243 93.021479"
   xmlns="http://www.w3.org/2000/svg"
   xmlns:svg="http://www.w3.org/2000/svg">
  <defs
     id="defs1" />
  <g
     id="g1"
     transform="translate(-2.5473607,-4.1445314)">
    <path
       id="path1"
       d="M 9.71223,0 C 9.71223,5.36398 5.36398,9.71223 0,9.71223 -5.36398,9.71223 -9.71223,5.36398 -9.71223,0 c 0,-5.36398 4.34825,-9.71223 9.71223,-9.71223 5.36398,0 9.71223,4.34825 9.71223,9.71223 z"
       style="fill:none;stroke:#000000;stroke-width:0.3985;stroke-linecap:butt;stroke-linejoin:miter;stroke-miterlimit:10;stroke-dasharray:none;stroke-opacity:1"
       transform="matrix(1.3333333,0,0,-1.3333333,15.762667,17.681333)" />
    <path
       id="path2"
       d="M 3.960875,-6.9384375 C 3.914,-7.0673437 3.8905625,-7.1376562 3.7382187,-7.1376562 c -0.1640625,0 -0.1875,0.058594 -0.2460937,0.1992187 l -2.0625,5.96484375 c -0.1757813,0.50390625 -0.57421875,0.65625 -1.11328125,0.66796875 v 0.3046875 c 0.234375,-0.01171875 0.65625,-0.03515625 1.01953125,-0.03515625 0.3046875,0 0.8203125,0.0234375 1.1484375,0.03515625 V -0.305625 c -0.5039063,0 -0.75,-0.2578125 -0.75,-0.515625 0,-0.0234375 0.011719,-0.12890625 0.023437,-0.140625 l 0.4570312,-1.3125 h 2.4609375 l 0.5273438,1.5234375 c 0.011719,0.046875 0.023437,0.10546875 0.023437,0.140625 0,0.3046875 -0.5507813,0.3046875 -0.8203125,0.3046875 V -9.375e-4 C 4.75775,-0.03609375 5.460875,-0.03609375 5.835875,-0.03609375 c 0.4335937,0 0.890625,0.01171875 1.3007812,0.03515625 V -0.305625 H 6.960875 c -0.5976563,0 -0.7382813,-0.0703125 -0.84375,-0.3984375 z m -0.5273438,1.125 1.125,3.234375 H 2.32025 Z m 0,0"
       style="fill:#000000;fill-opacity:1;fill-rule:nonzero;stroke:none"
       aria-label="A"
       transform="matrix(1.3333333,0,0,1.3333333,10.781333,22.22)" />
    <path
       id="path3"
       d="m 73.4055,0 c 0,5.31589 -4.30928,9.62515 -9.62517,9.62515 -5.31588,0 -9.62516,-4.30926 -9.62516,-9.62515 0,-5.31589 4.30928,-9.62515 9.62516,-9.62515 5.31589,0 9.62517,4.30926 9.62517,9.62515 z"
       style="fill:none;stroke:#000000;stroke-width:0.3985;stroke-linecap:butt;stroke-linejoin:miter;stroke-miterlimit:10;stroke-dasharray:none;stroke-opacity:1"
       transform="matrix(1.3333333,0,0,-1.3333333,15.762667,17.681333)" />
    <path
       id="path4"
       d="m 0.56142969,-3.4110937 c 0,2.0625 1.60546871,3.63281245 3.45703121,3.63281245 1.6289063,0 2.6015625,-1.38281245 2.6015625,-2.54296875 0,-0.1054687 0,-0.1757812 -0.1289062,-0.1757812 -0.1054688,0 -0.1054688,0.070312 -0.1171875,0.1640625 -0.082031,1.42968745 -1.1484375,2.2382812 -2.2265625,2.2382812 -0.609375,0 -2.5664063,-0.33984375 -2.5664063,-3.3046875 0,-2.9765625 1.9453125,-3.3164062 2.5546875,-3.3164062 1.078125,0 1.96875,0.9023437 2.1679688,2.3671875 0.023437,0.1289062 0.023437,0.1640625 0.1640625,0.1640625 0.1523437,0 0.1523437,-0.035156 0.1523437,-0.234375 v -2.3671875 c 0,-0.1640625 0,-0.234375 -0.1054687,-0.234375 -0.035156,0 -0.082031,0 -0.1640625,0.1171875 L 5.8583047,-6.165 c -0.375,-0.3632812 -0.8789063,-0.8554687 -1.8398438,-0.8554687 -1.8632812,0 -3.45703121,1.5820312 -3.45703121,3.609375 z m 0,0"
       style="fill:#000000;fill-opacity:1;fill-rule:nonzero;stroke:none"
       aria-label="C"
       transform="matrix(1.3333333,0,0,1.3333333,96.005333,22.22)" />
    <path
       id="path5"
       d="M 9.91148,0 H 53.95592"
       style="fill:none;stroke:#000000;stroke-width:0.3985;stroke-linecap:butt;stroke-linejoin:miter;stroke-miterlimit:10;stroke-dasharray:none;stroke-opacity:1"
       transform="matrix(1.3333333,0,0,-1.3333333,15.762667,17.681333)" />
    <path
       id="path6"
       d="m 2.9303359,-6.3747891 c 0,-0.234375 0,-0.2578125 -0.234375,-0.2578125 -0.609375,0.6328125 -1.4882812,0.6328125 -1.80468746,0.6328125 v 0.3164063 c 0.19921876,0 0.78515626,0 1.30078126,-0.2578125 v 5.15624999 c 0,0.3515625 -0.035156,0.48046875 -0.9257813,0.48046875 H 0.94986719 V 2.109375e-4 C 1.3014297,-0.03494531 2.1568984,-0.03494531 2.5553359,-0.03494531 c 0.3984375,0 1.265625,0 1.6171875,0.0351562475 V -0.30447656 H 3.8561172 c -0.9023438,0 -0.9257813,-0.1171875 -0.9257813,-0.48046875 z m 0,0"
       style="fill:#000000;fill-opacity:1;fill-rule:nonzero;stroke:none"
       aria-label="1"
       transform="matrix(1.3333333,0,0,1.3333333,55.018667,12.988)" />
    <path
       id="path7"
       d="m 137.07152,0 c 0,5.25275 -4.25809,9.51083 -9.51085,9.51083 -5.25275,0 -9.51083,-4.25808 -9.51083,-9.51083 0,-5.25275 4.25808,-9.51083 9.51083,-9.51083 5.25276,0 9.51085,4.25808 9.51085,9.51083 z"
       style="fill:none;stroke:#000000;stroke-width:0.3985;stroke-linecap:butt;stroke-linejoin:miter;stroke-miterlimit:10;stroke-dasharray:none;stroke-opacity:1"
       transform="matrix(1.3333333,0,0,-1.3333333,15.762667,17.681333)" />
    <path
       id="path8"
       d="m 1.3586094,-0.774375 c 0,0.3515625 -0.023437,0.46875 -0.79687502,0.46875 h -0.234375 V -9.375e-4 H 6.0812656 L 6.4914219,-2.5673437 H 6.2453281 C 5.9992344,-1.0321875 5.7648594,-0.305625 4.0539219,-0.305625 H 2.7297031 c -0.46875,0 -0.4921875,-0.0703125 -0.4921875,-0.3984375 v -2.6601562 h 0.9023438 c 0.9609375,0 1.078125,0.3164062 1.078125,1.1601562 H 4.4640781 V -4.8407812 H 4.2179844 c 0,0.8554687 -0.1171875,1.1601562 -1.078125,1.1601562 H 2.2375156 V -6.07125 c 0,-0.328125 0.023437,-0.3984375 0.4921875,-0.3984375 h 1.2890625 c 1.5234375,0 1.7929688,0.5507813 1.9453125,1.9335938 H 6.2101719 L 5.9406406,-6.774375 H 0.32735938 v 0.3046875 h 0.234375 c 0.77343752,0 0.79687502,0.1171875 0.79687502,0.46875 z m 0,0"
       style="fill:#000000;fill-opacity:1;fill-rule:nonzero;stroke:none"
       aria-label="E"
       transform="matrix(1.3333333,0,0,1.3333333,181.32133,22.22)" />
    <path
       id="path9"
       d="m 73.60475,0 h 44.24582"
       style="fill:none;stroke:#000000;stroke-width:0.3985;stroke-linecap:butt;stroke-linejoin:miter;stroke-miterlimit:10;stroke-dasharray:none;stroke-opacity:1"
       transform="matrix(1.3333333,0,0,-1.3333333,15.762667,17.681333)" />
    <path
       id="path10"
       d="m 2.8931953,-3.5036953 c 0.8085938,-0.2695313 1.3945313,-0.9726563 1.3945313,-1.7578125 0,-0.8203125 -0.8789063,-1.3710938 -1.8398438,-1.3710938 -1.0078125,0 -1.75781249,0.5976563 -1.75781249,1.3476563 0,0.3398437 0.2109375,0.5273437 0.50390629,0.5273437 0.3046875,0 0.5039062,-0.2226562 0.5039062,-0.515625 0,-0.4921875 -0.46875,-0.4921875 -0.609375,-0.4921875 0.3046875,-0.4921875 0.9609375,-0.6210937 1.3242188,-0.6210937 0.4101562,0 0.9492187,0.2226562 0.9492187,1.1132812 0,0.1289063 -0.011719,0.703125 -0.2695312,1.1367188 -0.3046875,0.4804687 -0.6445313,0.515625 -0.890625,0.515625 -0.082031,0.011719 -0.3164063,0.035156 -0.3867188,0.035156 -0.082031,0.011719 -0.1523437,0.023437 -0.1523437,0.1171875 0,0.1171875 0.070312,0.1171875 0.234375,0.1171875 h 0.4453125 c 0.8085937,0 1.1835937,0.6679688 1.1835937,1.6523438 0,1.34765624 -0.6914062,1.64062499 -1.125,1.64062499 -0.4335937,0 -1.171875,-0.17578125 -1.52343749,-0.76171875 0.35156249,0.0585938 0.65624999,-0.1640625 0.65624999,-0.53906254 0,-0.3632812 -0.2695312,-0.5625 -0.56249999,-0.5625 -0.234375,0 -0.55078125,0.140625 -0.55078125,0.5742188 0,0.91406249 0.92578124,1.57031249 2.00390624,1.57031249 1.21875,0 2.1210938,-0.9140625 2.1210938,-1.92187499 0,-0.8203125 -0.6210938,-1.59375 -1.6523438,-1.8046873 z m 0,0"
       style="fill:#000000;fill-opacity:1;fill-rule:nonzero;stroke:none"
       aria-label="3"
       transform="matrix(1.3333333,0,0,1.3333333,140.076,12.988)" />
    <path
       id="path11"
       d="m 9.58113,-49.60692 c 0,5.29158 -4.28955,9.58113 -9.58113,9.58113 -5.29158,0 -9.58113,-4.28955 -9.58113,-9.58113 0,-5.29158 4.28955,-9.58114 9.58113,-9.58114 5.29158,0 9.58113,4.28956 9.58113,9.58114 z"
       style="fill:none;stroke:#000000;stroke-width:0.3985;stroke-linecap:butt;stroke-linejoin:miter;stroke-miterlimit:10;stroke-dasharray:none;stroke-opacity:1"
       transform="matrix(1.3333333,0,0,-1.3333333,15.762667,17.681333)" />
    <path
       id="path12"
       d="m 2.2157891,-3.6430703 v -2.4492188 c 0,-0.328125 0.011719,-0.3984375 0.4804687,-0.3984375 h 1.2421875 c 0.9609375,0 1.3125,0.84375 1.3125,1.3710938 0,0.6328125 -0.4921875,1.4765625 -1.59375,1.4765625 z m 2.34375,0.09375 c 0.9726562,-0.1992188 1.6523437,-0.8320313 1.6523437,-1.5703125 0,-0.8671875 -0.9140625,-1.6875 -2.203125,-1.6875 H 0.36422656 v 0.3164062 h 0.234375 c 0.76171874,0 0.78515624,0.1054688 0.78515624,0.46875 v 5.25000004 c 0,0.3515625 -0.023437,0.46875 -0.78515624,0.46875 h -0.234375 v 0.3046875 H 4.2665703 c 1.3242188,0 2.2148438,-0.890625 2.2148438,-1.82812504 0,-0.8671875 -0.8085938,-1.6054687 -1.921875,-1.7226562 z m -0.609375,3.24609374 H 2.6962578 c -0.46875,0 -0.4804687,-0.0703125 -0.4804687,-0.3984375 V -3.4204141 h 1.875 c 0.984375,0 1.3945312,0.9257813 1.3945312,1.59375 0,0.703125 -0.515625,1.52343754 -1.5351562,1.52343754 z m 0,0"
       style="fill:#000000;fill-opacity:1;fill-rule:nonzero;stroke:none"
       aria-label="B"
       transform="matrix(1.3333333,0,0,1.3333333,11.057333,88.361333)" />
    <path
       id="path13"
       d="m 73.58768,-49.60692 c 0,5.41651 -4.39084,9.80734 -9.80735,9.80734 -5.4165,0 -9.80734,-4.39083 -9.80734,-9.80734 0,-5.41652 4.39084,-9.80734 9.80734,-9.80734 5.41651,0 9.80735,4.39082 9.80735,9.80734 z"
       style="fill:none;stroke:#000000;stroke-width:0.3985;stroke-linecap:butt;stroke-linejoin:miter;stroke-miterlimit:10;stroke-dasharray:none;stroke-opacity:1"
       transform="matrix(1.3333333,0,0,-1.3333333,15.762667,17.681333)" />
    <path
       id="path14"
       d="m 0.35048438,-6.8071328 v 0.3164062 h 0.234375 c 0.77343752,0 0.78515622,0.1054688 0.78515622,0.46875 v 5.25000004 c 0,0.3515625 -0.011719,0.46875 -0.78515622,0.46875 h -0.234375 v 0.3046875 H 3.9950156 c 1.6757813,0 3.046875,-1.47656254 3.046875,-3.35156254 0,-1.8867187 -1.3476562,-3.4570312 -3.046875,-3.4570312 z m 2.36718752,6.50390624 c -0.46875,0 -0.4921875,-0.0703125 -0.4921875,-0.3984375 V -6.0922891 c 0,-0.328125 0.023437,-0.3984375 0.4921875,-0.3984375 h 0.9960937 c 0.6210938,0 1.3007813,0.2109375 1.8164063,0.9257813 0.421875,0.5859375 0.515625,1.4414062 0.515625,2.2148437 0,1.1132813 -0.1875,1.7109375 -0.5507813,2.1914063 -0.1992187,0.26953124 -0.7617187,0.85546874 -1.7695312,0.85546874 z m 0,0"
       style="fill:#000000;fill-opacity:1;fill-rule:nonzero;stroke:none"
       aria-label="D"
       transform="matrix(1.3333333,0,0,1.3333333,95.728,88.361333)" />
    <path
       id="path15"
       d="M 9.78038,-49.60692 H 53.77374"
       style="fill:none;stroke:#000000;stroke-width:0.3985;stroke-linecap:butt;stroke-linejoin:miter;stroke-miterlimit:10;stroke-dasharray:none;stroke-opacity:1"
       transform="matrix(1.3333333,0,0,-1.3333333,15.762667,17.681333)" />
    <path
       id="path16"
       d="m 2.9310625,-6.3763359 c 0,-0.234375 0,-0.2578125 -0.234375,-0.2578125 C 2.0873125,-6.0013359 1.2084063,-6.0013359 0.892,-6.0013359 v 0.3164062 c 0.1992188,0 0.7851563,0 1.3007813,-0.2578125 v 5.15625001 c 0,0.3515625 -0.035156,0.48046875 -0.9257813,0.48046875 H 0.95059375 v 0.3046875 C 1.3021563,-0.03649219 2.157625,-0.03649219 2.5560625,-0.03649219 c 0.3984375,0 1.265625,0 1.6171875,0.03515625 v -0.3046875 H 3.8568438 c -0.9023438,0 -0.9257813,-0.1171875 -0.9257813,-0.48046875 z m 0,0"
       style="fill:#000000;fill-opacity:1;fill-rule:nonzero;stroke:none"
       aria-label="1"
       transform="matrix(1.3333333,0,0,1.3333333,54.810667,97.076)" />
    <path
       id="path17"
       d="m 136.96742,-49.60692 c 0,5.19525 -4.21148,9.40674 -9.40675,9.40674 -5.19525,0 -9.40674,-4.21149 -9.40674,-9.40674 0,-5.19527 4.21149,-9.40674 9.40674,-9.40674 5.19527,0 9.40675,4.21147 9.40675,9.40674 z"
       style="fill:none;stroke:#000000;stroke-width:0.3985;stroke-linecap:butt;stroke-linejoin:miter;stroke-miterlimit:10;stroke-dasharray:none;stroke-opacity:1"
       transform="matrix(1.3333333,0,0,-1.3333333,15.762667,17.681333)" />
    <path
       id="path18"
       d="M 5.7997109,-6.7719766 H 0.32705469 v 0.3046875 h 0.234375 c 0.77343751,0 0.79687501,0.1171875 0.79687501,0.46875 v 5.22656254 c 0,0.3515625 -0.023437,0.46875 -0.79687501,0.46875 h -0.234375 v 0.3046875 c 0.3515625,-0.03515625 1.12500001,-0.03515625 1.51171871,-0.03515625 0.4101563,0 1.3125,0 1.6757813,0.03515625 v -0.3046875 h -0.328125 c -0.9492188,0 -0.9492188,-0.12890625 -0.9492188,-0.48046875 V -3.2329141 h 0.8554688 c 0.9609375,0 1.0546875,0.3164063 1.0546875,1.1601563 H 4.4051797 V -4.7094766 H 4.1473672 c 0,0.8320313 -0.09375,1.1601563 -1.0546875,1.1601563 H 2.2372109 v -2.5195313 c 0,-0.328125 0.023437,-0.3984375 0.4921875,-0.3984375 h 1.1953125 c 1.4882813,0 1.7460938,0.5625 1.8984375,1.9335938 h 0.2578125 z m 0,0"
       style="fill:#000000;fill-opacity:1;fill-rule:nonzero;stroke:none"
       aria-label="F"
       transform="matrix(1.3333333,0,0,1.3333333,181.50533,88.361333)" />
    <path
       id="path19"
       d="m 73.78693,-49.60692 h 44.16775"
       style="fill:none;stroke:#000000;stroke-width:0.3985;stroke-linecap:butt;stroke-linejoin:miter;stroke-miterlimit:10;stroke-dasharray:none;stroke-opacity:1"
       transform="matrix(1.3333333,0,0,-1.3333333,15.762667,17.681333)" />
    <path
       id="path20"
       d="m 2.9308359,-1.6419609 v 0.86718746 c 0,0.3515625 -0.023437,0.46875 -0.7617187,0.46875 H 1.9581797 v 0.3046875 c 0.4101562,-0.03515625 0.9375,-0.03515625 1.3476562,-0.03515625 0.421875,0 0.9492188,0 1.359375,0.03515625 v -0.3046875 H 4.4542734 c -0.7382812,0 -0.7617187,-0.1171875 -0.7617187,-0.46875 V -1.6419609 H 4.6886484 V -1.9583672 H 3.6925547 v -4.5234375 c 0,-0.1992187 0,-0.2578125 -0.1523438,-0.2578125 -0.09375,0 -0.1171875,0 -0.1992187,0.1171875 l -3.05859376,4.6640625 v 0.3164063 z m 0.058594,-0.3164063 H 0.56364844 L 2.9894297,-5.6732109 Z m 0,0"
       style="fill:#000000;fill-opacity:1;fill-rule:nonzero;stroke:none"
       aria-label="4"
       transform="matrix(1.3333333,0,0,1.3333333,140.268,97.076)" />
    <path
       id="path21"
       d="M 0,-39.82654 V -9.91148"
       style="fill:none;stroke:#000000;stroke-width:0.3985;stroke-linecap:butt;stroke-linejoin:miter;stroke-miterlimit:10;stroke-dasharray:none;stroke-opacity:1"
       transform="matrix(1.3333333,0,0,-1.3333333,15.762667,17.681333)" />
    <path
       id="path22"
       d="M 1.2668906,-0.76089844 2.3215781,-1.7921484 c 1.5585938,-1.3710938 2.15625,-1.9101563 2.15625,-2.90625 0,-1.1367188 -0.9023437,-1.9335938 -2.1210937,-1.9335938 -1.125,0 -1.85156253,0.9140625 -1.85156253,1.8046875 0,0.5507813 0.4921875,0.5507813 0.52734373,0.5507813 0.1640625,0 0.515625,-0.1171875 0.515625,-0.5273438 0,-0.2578125 -0.1875,-0.515625 -0.5273437,-0.515625 -0.0820313,0 -0.10546878,0 -0.12890628,0.011719 0.22265628,-0.6445313 0.76171878,-1.0195313 1.33593748,-1.0195313 0.9140625,0 1.3359375,0.8085938 1.3359375,1.6289063 0,0.796875 -0.4921875,1.5820312 -1.0429687,2.203125 L 0.61064062,-0.36246094 C 0.50517187,-0.25699219 0.50517187,-0.23355469 0.50517187,8.203125e-4 H 4.1965781 L 4.4778281,-1.7335547 H 4.2200156 c -0.046875,0.3046875 -0.1171875,0.73828126 -0.2109375,0.89062501 -0.070312,0.0820313 -0.7265625,0.0820313 -0.9492187,0.0820313 z m 0,0"
       style="fill:#000000;fill-opacity:1;fill-rule:nonzero;stroke:none"
       aria-label="2"
       transform="matrix(1.3333333,0,0,1.3333333,4.428,55.12)" />
    <path
       id="path23"
       d="M 63.78033,-9.8244 V -39.60033"
       style="fill:none;stroke:#000000;stroke-width:0.3985;stroke-linecap:butt;stroke-linejoin:miter;stroke-miterlimit:10;stroke-dasharray:none;stroke-opacity:1"
       transform="matrix(1.3333333,0,0,-1.3333333,15.762667,17.681333)" />
    <path
       id="path24"
       d="M 1.2666953,-0.76210156 2.3213828,-1.7933516 c 1.5585938,-1.3710937 2.15625,-1.9101562 2.15625,-2.90625 0,-1.1367187 -0.9023437,-1.9335937 -2.1210937,-1.9335937 -1.125,0 -1.85156254,0.9140625 -1.85156254,1.8046875 0,0.5507812 0.4921875,0.5507812 0.52734374,0.5507812 0.1640625,0 0.515625,-0.1171875 0.515625,-0.5273437 0,-0.2578125 -0.1875,-0.515625 -0.5273437,-0.515625 -0.0820313,0 -0.10546879,0 -0.12890629,0.011719 0.22265629,-0.6445312 0.76171879,-1.0195312 1.33593749,-1.0195312 0.9140625,0 1.3359375,0.8085937 1.3359375,1.6289062 0,0.796875 -0.4921875,1.5820313 -1.0429687,2.203125 L 0.61044531,-0.36366406 C 0.50497656,-0.25819531 0.50497656,-0.23475781 0.50497656,-3.828125e-4 H 4.1963828 L 4.4776328,-1.7347578 H 4.2198203 c -0.046875,0.3046875 -0.1171875,0.73828124 -0.2109375,0.89062499 -0.070313,0.0820313 -0.7265625,0.0820313 -0.9492187,0.0820313 z m 0,0"
       style="fill:#000000;fill-opacity:1;fill-rule:nonzero;stroke:none"
       aria-label="2"
       transform="matrix(1.3333333,0,0,1.3333333,105.49467,54.910667)" />
    <path
       id="path25"
       d="M 56.02556,-6.03125 7.71986,-43.60254"
       style="fill:none;stroke:#000000;stroke-width:0.3985;stroke-linecap:butt;stroke-linejoin:miter;stroke-miterlimit:10;stroke-dasharray:none;stroke-opacity:1"
       transform="matrix(1.3333333,0,0,-1.3333333,15.762667,17.681333)" />
    <path
       id="path26"
       d="M 1.2664687,-0.76214062 2.3211562,-1.7933906 c 1.5585938,-1.3710938 2.15625,-1.9101563 2.15625,-2.90625 0,-1.1367188 -0.9023437,-1.9335938 -2.1210937,-1.9335938 -1.125,0 -1.8515625,0.9140625 -1.8515625,1.8046875 0,0.5507813 0.4921875,0.5507813 0.5273437,0.5507813 0.1640625,0 0.515625,-0.1171875 0.515625,-0.5273438 0,-0.2578125 -0.1875,-0.515625 -0.5273437,-0.515625 -0.0820313,0 -0.10546875,0 -0.12890625,0.011719 0.22265625,-0.6445313 0.76171875,-1.0195313 1.33593745,-1.0195313 0.9140625,0 1.3359375,0.8085938 1.3359375,1.6289063 0,0.796875 -0.4921875,1.5820312 -1.0429687,2.203125 L 0.61021875,-0.36370312 C 0.50475,-0.25823437 0.50475,-0.23479687 0.50475,-4.21875e-4 H 4.1961562 L 4.4774062,-1.7347969 H 4.2195937 c -0.046875,0.3046875 -0.1171875,0.73828128 -0.2109375,0.89062503 -0.070312,0.0820313 -0.7265625,0.0820313 -0.9492187,0.0820313 z m 0,0"
       style="fill:#000000;fill-opacity:1;fill-rule:nonzero;stroke:none"
       aria-label="2"
       transform="matrix(1.3333333,0,0,1.3333333,62.952,64.024)" />
    <path
       id="path27"
       d="m 71.6789,-43.46382 48.21739,37.50258"
       style="fill:none;stroke:#000000;stroke-width:0.3985;stroke-linecap:butt;stroke-linejoin:miter;stroke-miterlimit:10;stroke-dasharray:none;stroke-opacity:1"
       transform="matrix(1.3333333,0,0,-1.3333333,15.762667,17.681333)" />
    <path
       id="path28"
       d="m 2.8954375,-3.5047969 c 0.8085938,-0.2695312 1.3945313,-0.9726562 1.3945313,-1.7578125 0,-0.8203125 -0.8789063,-1.3710937 -1.8398438,-1.3710937 -1.0078125,0 -1.7578125,0.5976562 -1.7578125,1.3476562 0,0.3398438 0.2109375,0.5273438 0.5039063,0.5273438 0.3046875,0 0.5039062,-0.2226563 0.5039062,-0.515625 0,-0.4921875 -0.46875,-0.4921875 -0.609375,-0.4921875 0.3046875,-0.4921875 0.9609375,-0.6210938 1.3242188,-0.6210938 0.4101562,0 0.9492187,0.2226563 0.9492187,1.1132813 0,0.1289062 -0.011719,0.703125 -0.2695312,1.1367187 -0.3046875,0.4804688 -0.6445313,0.515625 -0.890625,0.515625 -0.082031,0.011719 -0.3164063,0.035156 -0.3867188,0.035156 -0.082031,0.011719 -0.1523437,0.023437 -0.1523437,0.1171875 0,0.1171875 0.070312,0.1171875 0.234375,0.1171875 h 0.4453125 c 0.8085937,0 1.1835937,0.6679687 1.1835937,1.6523437 0,1.34765628 -0.6914062,1.64062503 -1.125,1.64062503 -0.4335937,0 -1.171875,-0.17578125 -1.5234375,-0.76171875 0.3515625,0.0585938 0.65625,-0.1640625 0.65625,-0.53906248 0,-0.3632813 -0.2695312,-0.5625 -0.5625,-0.5625 -0.234375,0 -0.55078125,0.140625 -0.55078125,0.5742187 0,0.91406253 0.92578125,1.57031253 2.00390625,1.57031253 1.21875,0 2.1210938,-0.9140625 2.1210938,-1.92187503 0,-0.8203125 -0.6210938,-1.59375 -1.6523438,-1.8046872 z m 0,0"
       style="fill:#000000;fill-opacity:1;fill-rule:nonzero;stroke:none"
       aria-label="3"
       transform="matrix(1.3333333,0,0,1.3333333,148.17067,63.884)" />
    <path
       id="path29"
       d="M 127.56067,-9.71008 V -40.00093"
       style="fill:none;stroke:#000000;stroke-width:0.3985;stroke-linecap:butt;stroke-linejoin:miter;stroke-miterlimit:10;stroke-dasharray:none;stroke-opacity:1"
       transform="matrix(1.3333333,0,0,-1.3333333,15.762667,17.681333)" />
    <path
       id="path30"
       d="m 2.9300547,-6.3748281 c 0,-0.234375 0,-0.2578125 -0.234375,-0.2578125 -0.609375,0.6328125 -1.4882813,0.6328125 -1.80468751,0.6328125 v 0.3164062 c 0.19921871,0 0.78515621,0 1.30078121,-0.2578125 v 5.15625003 c 0,0.3515625 -0.035156,0.48046875 -0.9257812,0.48046875 H 0.94958594 V 1.71875e-4 C 1.3011484,-0.03498437 2.1566172,-0.03498437 2.5550547,-0.03498437 c 0.3984375,0 1.265625,0 1.6171875,0.035156245 V -0.30451562 H 3.8558359 c -0.9023437,0 -0.9257812,-0.1171875 -0.9257812,-0.48046875 z m 0,0"
       style="fill:#000000;fill-opacity:1;fill-rule:nonzero;stroke:none"
       aria-label="1"
       transform="matrix(1.3333333,0,0,1.3333333,190.53467,55.101333)" />
  </g>
</svg>
